<?xml version="1.0" encoding="utf-8"?>
<!-- Generator: Adobe Illustrator 25.3.0, SVG Export Plug-In . SVG Version: 6.00 Build 0)  -->
<svg version="1.1" id="レイヤー_1" xmlns="http://www.w3.org/2000/svg" xmlns:xlink="http://www.w3.org/1999/xlink" x="0px"
	 y="0px" viewBox="0 0 687.4 211.2" style="enable-background:new 0 0 687.4 211.2;" xml:space="preserve">
<style type="text/css">
	.st0{fill:#FFFDFE;stroke:#3C0000;stroke-width:1.5;stroke-miterlimit:10;}
	.st1{fill:#D26088;}
	.st2{fill:#2D2D2D;}
	.st3{font-family:'RoundedMplus1c-Regular';}
	.st4{font-size:30px;}
	.st5{enable-background:new    ;}
	.st6{fill:#FFFFFF;}
</style>
<path class="st0" d="M25.9,0.8h635.6c13.9,0,25.2,11.3,25.2,25.1v159.5c0,13.9-11.3,25.1-25.2,25.1H25.9
	c-13.9,0-25.1-11.3-25.1-25.1V25.9C0.8,12,12,0.8,25.9,0.8z"/>
<path class="st1" d="M35,9.5h616.6c13.9,0,25.2,11.3,25.2,25.2v71.4c0,13.9-11.3,25.2-25.2,25.2H35c-13.9,0-25.1-11.3-25.1-25.2
	V34.7C9.9,20.8,21.1,9.5,35,9.5z"/>
<text transform="matrix(1 0 0 1 238.34 182.97)" class="st2 st3 st4">詳しくはこちら</text>
<g class="st5">
	<path class="st6" d="M246.2,56.9c0.9,0,1.7,0.3,2.3,1c0.7,0.7,1,1.4,1,2.3v5.4c0,5.8-0.1,10.5-0.4,14.3c-0.3,3.8-0.6,6.8-1.1,9.2
		c-0.5,2.4-1.2,4.2-2.2,5.3c-1,1.2-2,2-3.2,2.3c-1.1,0.4-2.6,0.6-4.5,0.6c-2,0-5.1-0.2-9.5-0.6c-0.9-0.1-1.6-0.5-2.2-1.2
		s-0.8-1.5-0.8-2.4l0.3-3.4c0.1-0.9,0.5-1.6,1.2-2.2c0.7-0.6,1.5-0.8,2.4-0.8c2.2,0.2,3.9,0.3,5.1,0.3c0.8,0,1.4-0.3,1.8-1
		c0.4-0.6,0.7-2.1,1-4.5c0.2-2.4,0.4-5.9,0.4-10.7v-3.8c0-0.3-0.2-0.5-0.5-0.5H228c-0.3,0-0.5,0.2-0.6,0.5
		c-0.9,6.9-2.4,12.6-4.7,17.1c-2.2,4.5-5.4,8.5-9.5,12.1c-0.7,0.6-1.5,0.8-2.4,0.8c-0.9-0.1-1.7-0.4-2.3-1.1l-2.5-2.7
		c-0.6-0.7-0.9-1.4-0.8-2.3c0.1-0.9,0.5-1.6,1.1-2.2c3-2.7,5.3-5.6,6.9-8.9c1.6-3.3,2.8-7.5,3.5-12.7c0.1-0.3-0.1-0.5-0.4-0.5h-8.6
		c-0.9,0-1.7-0.3-2.3-1c-0.7-0.7-1-1.4-1-2.3v-3.2c0-0.9,0.3-1.7,1-2.3c0.7-0.7,1.4-1,2.3-1h9.4c0.3,0,0.5-0.2,0.5-0.5
		c0.1-1.8,0.1-3.3,0.1-4.4c0-0.9,0.3-1.6,1-2.3c0.7-0.6,1.4-1,2.3-1h4.1c0.9,0,1.7,0.3,2.3,1c0.6,0.7,1,1.4,1,2.4c0,1,0,2.4-0.1,4.2
		c0,0.3,0.2,0.5,0.5,0.5H246.2z"/>
	<path class="st6" d="M307.7,67.8c0.8,0.3,1.5,0.9,1.8,1.8c0.4,0.8,0.4,1.7,0,2.5c-3.8,9.2-8.9,15.8-15.1,19.7
		c-6.3,3.9-15,5.9-26,6.1c-0.9,0-1.7-0.3-2.3-1c-0.7-0.7-1-1.4-1-2.3V53.8c0-0.9,0.3-1.7,1-2.3c0.7-0.7,1.4-1,2.3-1h5.3
		c0.9,0,1.7,0.3,2.3,1c0.7,0.7,1,1.4,1,2.3v32.6c0,0.3,0.2,0.5,0.5,0.4c5.6-0.8,10.1-2.7,13.5-5.6c3.4-2.9,6.2-7.3,8.6-13.2
		c0.3-0.8,0.9-1.4,1.7-1.8s1.6-0.4,2.5-0.1L307.7,67.8z"/>
	<path class="st6" d="M323.9,61.7c-0.8-0.4-1.3-1-1.6-1.8c-0.3-0.8-0.2-1.6,0.2-2.4l2.1-4c0.4-0.8,1.1-1.4,2-1.7
		c0.9-0.3,1.8-0.3,2.6,0.1c4.2,1.9,8.3,3.9,12.3,5.9c0.8,0.4,1.3,1,1.6,1.8c0.2,0.8,0.1,1.7-0.3,2.4l-2.3,4.2
		c-0.4,0.8-1.1,1.3-2,1.6c-0.9,0.3-1.7,0.2-2.5-0.2C331.5,65.3,327.5,63.3,323.9,61.7z M365.8,57.9c0.9,0.2,1.6,0.7,2.1,1.4
		s0.7,1.6,0.5,2.5c-2.3,10.3-6.8,18.3-13.5,23.9s-15.9,9.2-27.7,10.6c-0.9,0.1-1.7-0.1-2.5-0.7c-0.7-0.6-1.1-1.3-1.3-2.2l-0.7-4.2
		c-0.2-0.8,0-1.6,0.6-2.4c0.5-0.7,1.3-1.2,2.1-1.3c9.4-1.3,16.6-4,21.6-8.1c5-4.1,8.7-10.1,10.8-18.1c0.2-0.9,0.7-1.6,1.5-2
		c0.8-0.5,1.6-0.6,2.4-0.4L365.8,57.9z"/>
	<path class="st6" d="M419.4,55.9c0.8,0.6,1.2,1.4,1.2,2.5c-0.1,13.1-3,22.9-8.7,29.2c-5.7,6.4-14.8,10.2-27.3,11.7
		c-0.9,0.1-1.8-0.1-2.5-0.7c-0.7-0.6-1.2-1.3-1.4-2.2l-0.6-3.4c-0.2-0.9,0-1.7,0.6-2.4c0.5-0.7,1.3-1.1,2.1-1.2
		c8-1.1,13.9-3.1,17.6-6.1c0.1-0.1,0.1-0.2,0.1-0.3c0-0.1,0-0.2-0.1-0.2c-3.1-1.6-5.9-2.9-8.3-4c-0.8-0.4-1.4-1-1.6-1.8
		c-0.3-0.8-0.2-1.7,0.2-2.4l2.1-3.8c0.4-0.8,1.1-1.4,2-1.6c0.9-0.3,1.8-0.2,2.6,0.1c2.6,1.2,5.6,2.7,9.2,4.5
		c0.3,0.2,0.5,0.1,0.6-0.2c0.8-2.5,1.3-5.1,1.6-8c0-0.3-0.2-0.5-0.5-0.5h-15.4c-0.3,0-0.6,0.1-0.7,0.4c-2.1,4.4-4.9,8.6-8.5,12.5
		c-0.6,0.7-1.4,1-2.3,1.1s-1.7-0.3-2.4-0.9l-2.7-2.3c-0.7-0.6-1-1.3-1-2.2c0-0.9,0.2-1.7,0.8-2.4c4.6-5.5,7.7-11.7,9.4-18.6
		c0.2-0.9,0.7-1.7,1.4-2.3s1.6-0.8,2.5-0.8l3.8,0.2c0.9,0.1,1.7,0.4,2.3,1.1s0.8,1.4,0.6,2.3c0,0.3-0.1,0.8-0.3,1.5
		c0,0.1,0,0.2,0.1,0.3c0.1,0.1,0.2,0.2,0.3,0.2h17.3c0.1,0,0.2-0.1,0.3-0.2c0.1-0.1,0-0.2,0-0.3c-0.2-0.3-0.4-0.8-0.7-1.3
		s-0.5-1-0.7-1.3c-0.4-0.7-0.5-1.5-0.2-2.3c0.2-0.8,0.7-1.4,1.5-1.8c0.8-0.4,1.6-0.4,2.3-0.2c0.8,0.3,1.4,0.8,1.8,1.6
		c0.2,0.3,0.5,0.9,0.8,1.5s0.6,1.2,0.8,1.5c0.5,0.8,0.4,1.8-0.1,2.7C419.1,55.5,419.1,55.7,419.4,55.9z M426.5,48.5
		c0.2,0.4,0.5,0.9,0.8,1.7c0.4,0.7,0.6,1.3,0.8,1.6c0.4,0.8,0.4,1.5,0.2,2.3c-0.3,0.8-0.8,1.3-1.6,1.7c-0.8,0.4-1.6,0.4-2.3,0.2
		c-0.8-0.3-1.4-0.8-1.8-1.6c-0.3-0.7-0.9-1.7-1.7-3.1c-0.4-0.8-0.5-1.6-0.2-2.3c0.2-0.8,0.8-1.4,1.5-1.8c0.8-0.4,1.6-0.4,2.4-0.2
		C425.5,47.3,426.1,47.8,426.5,48.5z"/>
	<path class="st6" d="M479.7,68.7c0.9,0,1.7,0.3,2.3,1c0.7,0.7,1,1.4,1,2.3v4.4c0,0.9-0.3,1.7-1,2.3c-0.7,0.7-1.4,1-2.3,1h-42
		c-0.9,0-1.7-0.3-2.3-1c-0.7-0.7-1-1.4-1-2.3V72c0-0.9,0.3-1.7,1-2.3c0.7-0.7,1.4-1,2.3-1H479.7z"/>
</g>
</svg>
