<?xml version="1.0" encoding="utf-8"?>
<!-- Generator: Adobe Illustrator 25.3.0, SVG Export Plug-In . SVG Version: 6.00 Build 0)  -->
<svg version="1.1" id="レイヤー_1" xmlns="http://www.w3.org/2000/svg" xmlns:xlink="http://www.w3.org/1999/xlink" x="0px"
	 y="0px" viewBox="0 0 687.4 211.2" style="enable-background:new 0 0 687.4 211.2;" xml:space="preserve">
<style type="text/css">
	.st0{fill:#FFFDFE;stroke:#3C0000;stroke-width:1.5;stroke-miterlimit:10;}
	.st1{fill:#D26088;}
	.st2{enable-background:new    ;}
	.st3{fill:#FFFFFF;}
	.st4{fill:#2D2D2D;}
	.st5{font-family:'RoundedMplus1c-Regular';}
	.st6{font-size:30px;}
</style>
<path class="st0" d="M25.9,0.8h635.6c13.9,0,25.2,11.3,25.2,25.1v159.5c0,13.9-11.3,25.1-25.2,25.1H25.9
	c-13.9,0-25.1-11.3-25.1-25.1V25.9C0.8,12,12,0.8,25.9,0.8z"/>
<path class="st1" d="M35,9.5h616.6c13.9,0,25.2,11.3,25.2,25.2v71.4c0,13.9-11.3,25.2-25.2,25.2H35c-13.9,0-25.1-11.3-25.1-25.2
	V34.7C9.9,20.8,21.1,9.5,35,9.5z"/>
<g class="st2">
	<path class="st3" d="M133.4,50.8l2.4,2.8c0.6,0.7,0.9,1.5,0.8,2.4c-0.1,0.9-0.5,1.7-1.2,2.3c-4,3.4-8.5,6.3-13.2,8.9
		c-0.3,0.2-0.5,0.4-0.5,0.8v24.5c0,0.9-0.3,1.7-1,2.3c-0.7,0.7-1.4,1-2.3,1h-5.3c-0.9,0-1.7-0.3-2.3-1c-0.7-0.7-1-1.4-1-2.3v-19
		c0-0.1-0.1-0.2-0.2-0.3c-0.1-0.1-0.2-0.1-0.3-0.1c-5.5,2.1-10.9,3.6-16.2,4.5c-0.9,0.2-1.7,0-2.5-0.6c-0.8-0.5-1.2-1.3-1.4-2.1
		l-0.6-3.6c-0.2-0.9,0-1.7,0.5-2.4s1.2-1.2,2.1-1.4c6.9-1.2,13.6-3.3,20.1-6.3c6.5-2.9,12.2-6.5,17.3-10.7c0.7-0.6,1.5-0.8,2.4-0.8
		C132.1,49.8,132.8,50.2,133.4,50.8z"/>
	<path class="st3" d="M151.1,59.2c-0.8-0.4-1.3-1-1.6-1.8c-0.3-0.8-0.2-1.6,0.2-2.4l2.1-4c0.4-0.8,1.1-1.4,2-1.7
		c0.9-0.3,1.8-0.3,2.6,0.1c4.2,1.9,8.3,3.9,12.3,5.9c0.8,0.4,1.3,1,1.6,1.8c0.2,0.8,0.1,1.7-0.3,2.4l-2.3,4.2
		c-0.4,0.8-1.1,1.3-2,1.6c-0.9,0.3-1.7,0.2-2.5-0.2C158.7,62.9,154.7,60.9,151.1,59.2z M193,55.5c0.9,0.2,1.6,0.7,2.1,1.4
		c0.5,0.8,0.7,1.6,0.5,2.5c-2.3,10.3-6.8,18.3-13.5,23.9c-6.7,5.7-15.9,9.2-27.7,10.6c-0.9,0.1-1.7-0.1-2.5-0.7
		c-0.7-0.6-1.1-1.3-1.3-2.2l-0.7-4.2c-0.2-0.8,0-1.6,0.6-2.4c0.5-0.7,1.3-1.2,2.1-1.3c9.4-1.3,16.6-4,21.6-8.1
		c5-4.1,8.7-10.1,10.8-18.1c0.2-0.9,0.7-1.6,1.5-2c0.8-0.5,1.6-0.6,2.4-0.4L193,55.5z"/>
	<path class="st3" d="M247.9,50.4c0.9,0,1.7,0.3,2.4,1c0.7,0.6,1,1.4,0.9,2.3C251,66.6,248,76.4,242.1,83
		c-5.9,6.6-14.8,10.7-26.9,12.1c-0.9,0.1-1.8-0.1-2.5-0.7c-0.8-0.6-1.2-1.3-1.4-2.2l-0.8-3.6c-0.2-0.8,0-1.6,0.5-2.3
		c0.5-0.7,1.2-1.1,2.1-1.2c8.2-1,14.4-3.3,18.4-7c4.1-3.7,6.6-9.2,7.6-16.8c0-0.1,0-0.2-0.1-0.3c-0.1-0.1-0.2-0.1-0.3-0.1h-29.8
		c-0.9,0-1.7-0.3-2.3-1c-0.7-0.7-1-1.4-1-2.3v-3.8c0-0.9,0.3-1.7,1-2.3c0.7-0.7,1.4-1,2.3-1H247.9z"/>
	<path class="st3" d="M302.5,62.3c0.9,0,1.7,0.3,2.3,1c0.7,0.7,1,1.4,1,2.3v1.6c0,0.9-0.3,1.7-1,2.3c-0.7,0.7-1.4,1-2.3,1h-4
		c-0.3,0-0.5,0.2-0.5,0.5v14.9c0,1.6,0,2.8-0.1,3.7c-0.1,0.9-0.2,1.7-0.5,2.5c-0.3,0.8-0.6,1.3-0.9,1.7s-0.9,0.6-1.8,0.9
		c-0.8,0.2-1.7,0.4-2.6,0.4c-0.9,0-2.2,0.1-3.9,0.1c-0.5,0-1.9-0.1-4.4-0.2c-0.9,0-1.6-0.4-2.3-1.1c-0.6-0.7-0.9-1.5-0.8-2.4l0.1-1
		c0.1-0.9,0.4-1.6,1.1-2.2c0.7-0.6,1.4-0.9,2.3-0.8c1.5,0.1,2.5,0.2,3,0.2c0.8,0,1.2-0.1,1.4-0.2c0.2-0.2,0.2-0.6,0.2-1.4v-7.4
		c0-0.1,0-0.1-0.1-0.2c-0.1-0.1-0.2-0.1-0.2,0c-4.8,3.9-9.8,7.4-15.1,10.6c-0.8,0.5-1.6,0.6-2.5,0.3c-0.9-0.2-1.6-0.7-2-1.5l-1-1.7
		c-0.5-0.8-0.6-1.6-0.3-2.5c0.2-0.9,0.8-1.5,1.5-2c5.3-3.2,10.3-6.8,15-10.8c0.1,0,0.1-0.1,0.1-0.2c0-0.1-0.1-0.1-0.2-0.1h-13.8
		c-0.9,0-1.7-0.3-2.3-1c-0.7-0.7-1-1.4-1-2.3v-1.6c0-0.9,0.3-1.7,1-2.3c0.7-0.7,1.4-1,2.3-1h18.1c0.3,0,0.5-0.2,0.5-0.5v-2.7
		c0-0.9,0.3-1.7,1-2.3c0.7-0.7,1.4-1,2.3-1h2.5c0.9,0,1.7,0.3,2.3,1c0.7,0.7,1,1.4,1,2.3v2.7c0,0.3,0.2,0.5,0.5,0.5H302.5z"/>
	<path class="st3" d="M354.7,71.6c4.8,4,8.6,7.3,11.4,9.8c0.7,0.6,1,1.4,1.1,2.3s-0.2,1.7-0.8,2.4l-2.9,3.4
		c-0.6,0.7-1.3,1.1-2.2,1.1s-1.7-0.2-2.3-0.8c-3.6-3.3-7.3-6.5-11.1-9.7c-0.3-0.2-0.5-0.2-0.8,0.1c-5.2,5.4-11.3,10.2-18.4,14.2
		c-0.8,0.5-1.7,0.6-2.6,0.4c-0.9-0.2-1.7-0.7-2.2-1.4l-2.8-3.9c-0.5-0.7-0.7-1.5-0.5-2.4c0.2-0.8,0.6-1.5,1.4-2
		c6.3-3.9,11.6-8,15.9-12.5c0.2-0.2,0.2-0.4,0-0.6c-3.9-3-7.6-5.9-11.2-8.4c-0.7-0.5-1.2-1.2-1.3-2.1c-0.1-0.9,0.1-1.6,0.7-2.3
		l2.8-3.3c0.6-0.7,1.3-1.2,2.2-1.3c0.9-0.1,1.7,0.1,2.5,0.6c3.6,2.6,7.3,5.4,11,8.3c0.1,0.1,0.2,0.1,0.3,0.1s0.3-0.1,0.3-0.2
		c2.7-4.1,5-8.6,6.8-13.4c0.3-0.8,0.9-1.5,1.7-2c0.8-0.5,1.7-0.6,2.6-0.4l4.8,1c0.9,0.2,1.6,0.7,2,1.4c0.5,0.7,0.6,1.5,0.3,2.4
		c-2,6.5-5,12.6-9,18.5C354.3,71.1,354.4,71.4,354.7,71.6z"/>
	<path class="st3" d="M422.5,66.3c0.9,0,1.7,0.3,2.3,1c0.7,0.7,1,1.4,1,2.3V74c0,0.9-0.3,1.7-1,2.3c-0.7,0.7-1.4,1-2.3,1h-42
		c-0.9,0-1.7-0.3-2.3-1c-0.7-0.7-1-1.4-1-2.3v-4.4c0-0.9,0.3-1.7,1-2.3c0.7-0.7,1.4-1,2.3-1H422.5z"/>
	<path class="st3" d="M452.1,73.1c-5.3-1.1-9.6-1.9-12.9-2.5c-0.9-0.2-1.6-0.6-2.1-1.4s-0.7-1.6-0.5-2.4l0.6-2.9
		c0.2-0.9,0.7-1.6,1.4-2.1c0.8-0.5,1.6-0.7,2.5-0.5c3.4,0.6,7.7,1.4,12.9,2.5c0.9,0.2,1.6,0.7,2.1,1.4c0.5,0.8,0.6,1.6,0.4,2.4
		l-0.6,2.9c-0.2,0.9-0.7,1.6-1.4,2.1C453.8,73.2,453,73.3,452.1,73.1z M481.8,56.2c0.9,0.2,1.6,0.6,2.1,1.3c0.5,0.7,0.7,1.5,0.5,2.4
		c-2.4,11.3-6.8,19.6-13.1,25c-6.3,5.4-15.7,8.7-28.1,10.2c-0.9,0.1-1.7-0.1-2.5-0.7c-0.7-0.6-1.1-1.3-1.3-2.2l-0.7-3.9
		c-0.2-0.8,0-1.6,0.6-2.3c0.5-0.7,1.3-1.1,2.1-1.2c10.2-1.1,17.7-3.6,22.5-7.5c4.8-3.9,8.1-10.2,10.1-19c0.2-0.9,0.7-1.6,1.4-2.1
		c0.8-0.5,1.6-0.7,2.5-0.6L481.8,56.2z M444,47.4c3.4,0.6,7.8,1.5,13.2,2.5c0.9,0.2,1.6,0.7,2.1,1.4c0.5,0.8,0.7,1.6,0.5,2.5
		l-0.6,3.2c-0.2,0.9-0.7,1.6-1.4,2.1c-0.8,0.5-1.6,0.6-2.5,0.4c-2.9-0.6-7.3-1.4-13.2-2.5c-0.8-0.2-1.5-0.6-2.1-1.3
		c-0.5-0.7-0.7-1.5-0.5-2.4l0.6-3.2c0.2-0.9,0.7-1.6,1.4-2.1C442.3,47.5,443.1,47.3,444,47.4z"/>
	<path class="st3" d="M531.4,58.8c0.9,0,1.7,0.3,2.3,1c0.7,0.7,1,1.4,1,2.3v28.6c0,0.9-0.3,1.7-1,2.3c-0.7,0.7-1.4,1-2.3,1h-29
		c-0.9,0-1.7-0.3-2.3-1c-0.7-0.7-1-1.4-1-2.3v-1.8c0-0.9,0.3-1.7,1-2.3c0.7-0.7,1.4-1,2.3-1h21.8c0.3,0,0.5-0.2,0.5-0.5v-4.6
		c0-0.3-0.2-0.5-0.5-0.5h-19c-0.9,0-1.7-0.3-2.3-1c-0.7-0.7-1-1.4-1-2.3v-1.6c0-0.9,0.3-1.7,1-2.3c0.7-0.7,1.4-1,2.3-1h19
		c0.3,0,0.5-0.2,0.5-0.5v-3.8c0-0.3-0.2-0.5-0.5-0.5h-21.8c-0.9,0-1.7-0.3-2.3-1c-0.7-0.7-1-1.4-1-2.3v-1.6c0-0.9,0.3-1.7,1-2.3
		c0.7-0.7,1.4-1,2.3-1H531.4z"/>
	<path class="st3" d="M555.7,59.2c-0.8-0.4-1.3-1-1.6-1.8c-0.3-0.8-0.2-1.6,0.2-2.4l2.1-4c0.4-0.8,1.1-1.4,2-1.7s1.8-0.3,2.6,0.1
		c4.2,1.9,8.3,3.9,12.3,5.9c0.8,0.4,1.3,1,1.6,1.8c0.2,0.8,0.1,1.7-0.3,2.4l-2.3,4.2c-0.4,0.8-1.1,1.3-2,1.6
		c-0.9,0.3-1.7,0.2-2.5-0.2C563.3,62.9,559.3,60.9,555.7,59.2z M597.6,55.5c0.9,0.2,1.6,0.7,2.1,1.4c0.5,0.8,0.7,1.6,0.5,2.5
		c-2.3,10.3-6.8,18.3-13.5,23.9c-6.7,5.7-15.9,9.2-27.7,10.6c-0.9,0.1-1.7-0.1-2.5-0.7c-0.7-0.6-1.1-1.3-1.3-2.2l-0.7-4.2
		c-0.2-0.8,0-1.6,0.6-2.4c0.5-0.7,1.3-1.2,2.1-1.3c9.4-1.3,16.6-4,21.6-8.1c5-4.1,8.7-10.1,10.8-18.1c0.2-0.9,0.7-1.6,1.5-2
		c0.8-0.5,1.6-0.6,2.4-0.4L597.6,55.5z"/>
</g>
<text transform="matrix(1 0 0 1 238.34 182.97)" class="st4 st5 st6">詳しくはこちら</text>
</svg>
