<?xml version="1.0" encoding="utf-8"?>
<!-- Generator: Adobe Illustrator 25.3.0, SVG Export Plug-In . SVG Version: 6.00 Build 0)  -->
<svg version="1.1" id="レイヤー_1" xmlns="http://www.w3.org/2000/svg" xmlns:xlink="http://www.w3.org/1999/xlink" x="0px"
	 y="0px" viewBox="0 0 687.4 211.2" style="enable-background:new 0 0 687.4 211.2;" xml:space="preserve">
<style type="text/css">
	.st0{fill:#FFFDFE;stroke:#3C0000;stroke-width:1.5;stroke-miterlimit:10;}
	.st1{fill:#D26088;}
	.st2{fill:#2D2D2D;}
	.st3{font-family:'RoundedMplus1c-Regular';}
	.st4{font-size:30px;}
	.st5{enable-background:new    ;}
	.st6{fill:#FFFFFF;}
</style>
<path class="st0" d="M25.9,0.8h635.6c13.9,0,25.2,11.3,25.2,25.1v159.5c0,13.9-11.3,25.1-25.2,25.1H25.9
	c-13.9,0-25.1-11.3-25.1-25.1V25.9C0.8,12,12,0.8,25.9,0.8z"/>
<path class="st1" d="M35,9.5h616.6c13.9,0,25.2,11.3,25.2,25.2v71.4c0,13.9-11.3,25.2-25.2,25.2H35c-13.9,0-25.1-11.3-25.1-25.2
	V34.7C9.9,20.8,21.1,9.5,35,9.5z"/>
<text transform="matrix(1 0 0 1 238.34 182.97)" class="st2 st3 st4">詳しくはこちら</text>
<g class="st5">
	<path class="st6" d="M268,71.6c4.8,4,8.6,7.3,11.4,9.8c0.7,0.6,1,1.4,1.1,2.3c0.1,0.9-0.2,1.7-0.8,2.4l-2.9,3.4
		c-0.6,0.7-1.3,1.1-2.2,1.1c-0.9,0.1-1.7-0.2-2.3-0.8c-3.6-3.3-7.3-6.5-11.1-9.7c-0.3-0.2-0.5-0.2-0.8,0.1
		c-5.2,5.4-11.3,10.2-18.4,14.2c-0.8,0.5-1.7,0.6-2.6,0.4c-0.9-0.2-1.7-0.7-2.2-1.4l-2.8-3.9c-0.5-0.7-0.7-1.5-0.5-2.4
		c0.2-0.8,0.6-1.5,1.4-2c6.3-3.9,11.6-8,15.9-12.5c0.2-0.2,0.2-0.4,0-0.6c-3.9-3-7.6-5.9-11.2-8.4c-0.7-0.5-1.2-1.2-1.3-2.1
		c-0.1-0.9,0.1-1.6,0.7-2.3l2.8-3.3c0.6-0.7,1.3-1.2,2.2-1.3c0.9-0.1,1.7,0.1,2.5,0.6c3.6,2.6,7.3,5.4,11,8.3
		c0.1,0.1,0.2,0.1,0.3,0.1c0.2,0,0.3-0.1,0.3-0.2c2.7-4.1,5-8.6,6.8-13.4c0.3-0.8,0.9-1.5,1.7-2c0.8-0.5,1.7-0.6,2.6-0.4l4.8,1
		c0.9,0.2,1.6,0.7,2,1.4c0.5,0.7,0.6,1.5,0.3,2.4c-2,6.5-5,12.6-9,18.5C267.6,71.1,267.7,71.4,268,71.6z"/>
	<path class="st6" d="M335.2,82.5c0.9,0,1.7,0.3,2.3,1c0.7,0.7,1,1.4,1,2.3v4.1c0,0.9-0.3,1.7-1,2.3c-0.7,0.7-1.4,1-2.3,1h-40.8
		c-0.9,0-1.7-0.3-2.3-1c-0.7-0.7-1-1.4-1-2.3v-4.1c0-0.9,0.3-1.7,1-2.3c0.7-0.7,1.4-1,2.3-1H335.2z M298.4,50.4h32.7
		c0.9,0,1.7,0.3,2.3,1c0.7,0.7,1,1.4,1,2.3v4.1c0,0.9-0.3,1.7-1,2.3c-0.7,0.7-1.4,1-2.3,1h-32.7c-0.9,0-1.7-0.3-2.3-1
		c-0.7-0.7-1-1.4-1-2.3v-4.1c0-0.9,0.3-1.7,1-2.3C296.8,50.7,297.6,50.4,298.4,50.4z"/>
	<path class="st6" d="M389.2,85.1c0.9,0,1.7,0.3,2.3,1c0.7,0.7,1,1.4,1,2.3v1.8c0,0.9-0.3,1.7-1,2.3c-0.7,0.7-1.4,1-2.3,1H356
		c-0.9,0-1.7-0.3-2.3-1c-0.7-0.7-1-1.4-1-2.3v-1.8c0-0.9,0.3-1.7,1-2.3s1.4-1,2.3-1h17.1c0.3,0,0.5-0.2,0.5-0.5l0.8-16.4
		c0-0.3-0.2-0.5-0.5-0.5h-13.4c-0.9,0-1.7-0.3-2.3-1c-0.7-0.7-1-1.4-1-2.3v-1.8c0-0.9,0.3-1.7,1-2.3c0.7-0.7,1.4-1,2.3-1h21.2
		c0.9,0,1.6,0.3,2.3,1c0.6,0.7,0.9,1.4,0.9,2.3l-1,22c0,0.3,0.2,0.5,0.5,0.5H389.2z"/>
	<path class="st6" d="M451.4,66.3c0.9,0,1.7,0.3,2.3,1c0.7,0.7,1,1.4,1,2.3V74c0,0.9-0.3,1.7-1,2.3c-0.7,0.7-1.4,1-2.3,1h-42
		c-0.9,0-1.7-0.3-2.3-1c-0.7-0.7-1-1.4-1-2.3v-4.4c0-0.9,0.3-1.7,1-2.3c0.7-0.7,1.4-1,2.3-1H451.4z"/>
</g>
</svg>
