<?xml version="1.0" encoding="utf-8"?>
<!-- Generator: Adobe Illustrator 25.3.0, SVG Export Plug-In . SVG Version: 6.00 Build 0)  -->
<svg version="1.1" id="レイヤー_1" xmlns="http://www.w3.org/2000/svg" xmlns:xlink="http://www.w3.org/1999/xlink" x="0px"
	 y="0px" viewBox="0 0 687.4 211.2" style="enable-background:new 0 0 687.4 211.2;" xml:space="preserve">
<style type="text/css">
	.st0{fill:#FFFDFE;stroke:#3C0000;stroke-width:1.5;stroke-miterlimit:10;}
	.st1{fill:#D26088;}
	.st2{fill:#2D2D2D;}
	.st3{font-family:'RoundedMplus1c-Regular';}
	.st4{font-size:30px;}
	.st5{enable-background:new    ;}
	.st6{fill:#FFFFFF;}
</style>
<path class="st0" d="M25.9,0.8h635.6c13.9,0,25.2,11.3,25.2,25.1v159.5c0,13.9-11.3,25.1-25.2,25.1H25.9
	c-13.9,0-25.1-11.3-25.1-25.1V25.9C0.8,12,12,0.8,25.9,0.8z"/>
<path class="st1" d="M35.4,9.5H652c13.9,0,25.2,11.3,25.2,25.2v71.4c0,13.9-11.3,25.2-25.2,25.2H35.4c-13.9,0-25.1-11.3-25.1-25.2
	V34.7C10.3,20.8,21.5,9.5,35.4,9.5z"/>
<text transform="matrix(1 0 0 1 238.34 182.97)" class="st2 st3 st4">詳しくはこちら</text>
<g class="st5">
	<path class="st6" d="M277.4,84.9c0.9,0,1.7,0.3,2.3,1c0.7,0.7,1,1.4,1,2.3v4.1c0,0.9-0.3,1.7-1,2.3c-0.7,0.7-1.4,1-2.3,1h-40.8
		c-0.9,0-1.7-0.3-2.3-1c-0.7-0.7-1-1.4-1-2.3v-4.1c0-0.9,0.3-1.7,1-2.3c0.7-0.7,1.4-1,2.3-1H277.4z M240.6,52.8h32.7
		c0.9,0,1.7,0.3,2.3,1c0.7,0.7,1,1.4,1,2.3v4.1c0,0.9-0.3,1.7-1,2.3c-0.7,0.7-1.4,1-2.3,1h-32.7c-0.9,0-1.7-0.3-2.3-1
		c-0.7-0.7-1-1.4-1-2.3v-4.1c0-0.9,0.3-1.7,1-2.3C239,53.2,239.8,52.8,240.6,52.8z"/>
	<path class="st6" d="M331.4,87.5c0.9,0,1.7,0.3,2.3,1c0.7,0.7,1,1.4,1,2.3v1.8c0,0.9-0.3,1.7-1,2.3c-0.7,0.7-1.4,1-2.3,1h-33.2
		c-0.9,0-1.7-0.3-2.3-1c-0.7-0.7-1-1.4-1-2.3v-1.8c0-0.9,0.3-1.7,1-2.3c0.7-0.7,1.4-1,2.3-1h17.1c0.3,0,0.5-0.2,0.5-0.5l0.8-16.4
		c0-0.3-0.2-0.5-0.5-0.5h-13.4c-0.9,0-1.7-0.3-2.3-1c-0.7-0.7-1-1.4-1-2.3V65c0-0.9,0.3-1.7,1-2.3c0.7-0.7,1.4-1,2.3-1H324
		c0.9,0,1.6,0.3,2.3,1c0.6,0.7,0.9,1.4,0.9,2.3l-1,22c0,0.3,0.2,0.5,0.5,0.5H331.4z"/>
	<path class="st6" d="M393.6,68.7c0.9,0,1.7,0.3,2.3,1c0.7,0.7,1,1.4,1,2.3v4.4c0,0.9-0.3,1.7-1,2.3c-0.7,0.7-1.4,1-2.3,1h-42
		c-0.9,0-1.7-0.3-2.3-1c-0.7-0.7-1-1.4-1-2.3V72c0-0.9,0.3-1.7,1-2.3c0.7-0.7,1.4-1,2.3-1H393.6z"/>
	<path class="st6" d="M440.4,77.1c3.9,3.3,7.9,7,12.3,11.1c0.7,0.6,1,1.4,1,2.3c0,0.9-0.3,1.7-0.9,2.3l-2.9,2.9
		c-0.7,0.7-1.4,1-2.3,1s-1.7-0.3-2.3-0.9c-3.9-3.6-7.9-7.3-12.1-11c-0.3-0.2-0.6-0.2-0.8-0.1c-5.5,4.9-11.5,8.8-17.9,12
		c-0.8,0.4-1.7,0.4-2.6,0.1c-0.9-0.3-1.5-0.8-2-1.6l-1.8-3.2c-0.4-0.8-0.5-1.6-0.2-2.4s0.8-1.5,1.6-1.9c12-6.2,21.2-14.6,27.6-25.3
		c0.1-0.1,0.1-0.2,0-0.3c-0.1-0.1-0.1-0.1-0.3-0.1H415c-0.9,0-1.7-0.3-2.3-1c-0.7-0.7-1-1.4-1-2.3V55c0-0.9,0.3-1.7,1-2.3
		s1.4-1,2.3-1h31.6c0.9,0,1.7,0.3,2.3,1s1,1.4,1,2.3v3.5c0,2.3-0.5,4.4-1.5,6.2c-2.4,4.2-5,8.1-8,11.7
		C440.1,76.6,440.2,76.8,440.4,77.1z"/>
</g>
</svg>
