<?xml version="1.0" encoding="utf-8"?>
<!-- Generator: Adobe Illustrator 25.3.0, SVG Export Plug-In . SVG Version: 6.00 Build 0)  -->
<svg version="1.1" id="レイヤー_1" xmlns="http://www.w3.org/2000/svg" xmlns:xlink="http://www.w3.org/1999/xlink" x="0px"
	 y="0px" viewBox="0 0 687.4 211.2" style="enable-background:new 0 0 687.4 211.2;" xml:space="preserve">
<style type="text/css">
	.st0{fill:#FFFDFE;stroke:#3C0000;stroke-width:1.5;stroke-miterlimit:10;}
	.st1{fill:#D26088;}
	.st2{fill:#2D2D2D;}
	.st3{font-family:'RoundedMplus1c-Regular';}
	.st4{font-size:30px;}
	.st5{fill:#FFFFFF;}
</style>
<path class="st0" d="M25.5,0.8h635.6c13.9,0,25.2,11.3,25.2,25.1v159.5c0,13.9-11.3,25.1-25.2,25.1H25.5
	c-13.9,0-25.1-11.3-25.1-25.1V25.9C0.4,12,11.6,0.8,25.5,0.8z"/>
<path class="st1" d="M35,9.5h616.6c13.9,0,25.2,11.3,25.2,25.2v71.4c0,13.9-11.3,25.2-25.2,25.2H35c-13.9,0-25.1-11.3-25.1-25.2
	V34.7C9.9,20.8,21.1,9.5,35,9.5z"/>
<text transform="matrix(1 0 0 1 238.34 182.97)" class="st2 st3 st4">詳しくはこちら</text>
<g>
	<path class="st5" d="M217,43.9c0.9,0.2,1.7,0.7,2.2,1.4c0.5,0.8,0.7,1.6,0.6,2.5c-0.8,4-1.9,7.5-3.1,10.4c-0.1,0.3-0.2,0.6-0.2,1
		V95c0,0.9-0.3,1.7-1,2.4c-0.7,0.7-1.5,1-2.4,1h-3.7c-0.9,0-1.7-0.3-2.4-1c-0.7-0.7-1-1.5-1-2.4V75.2c0-0.1,0-0.1-0.1-0.1
		c-0.1,0-0.1,0-0.2,0.1c-0.2,0.2-0.4,0.6-0.7,1c-0.3,0.4-0.4,0.6-0.5,0.7c-0.4,0.6-1,0.8-1.7,0.6c-0.7-0.2-1.1-0.6-1.3-1.3l-1.4-5.7
		c-0.5-2.1,0-4.1,1.3-6c4-5.2,6.8-11.4,8.4-18.5c0.2-0.9,0.7-1.6,1.5-2.2c0.8-0.5,1.6-0.7,2.6-0.5L217,43.9z M240.6,79.9
		c0,0.9-0.3,1.7-1,2.4c-0.7,0.7-1.5,1-2.4,1h-8.4c-0.4,0-0.5,0.2-0.5,0.5v0.8c0,0.9-0.3,1.7-1,2.4c-0.7,0.7-1.5,1-2.4,1h-2.2
		c-0.9,0-1.7-0.3-2.4-1c-0.7-0.7-1-1.5-1-2.4v-23c0-0.9,0.3-1.7,1-2.4c0.7-0.7,1.5-1,2.4-1h14.5c0.9,0,1.7,0.3,2.4,1
		c0.7,0.7,1,1.5,1,2.4V79.9z M254.7,44.8c0.9,0,1.7,0.3,2.4,1c0.7,0.7,1,1.5,1,2.4v2.5c0,0.9-0.3,1.7-1,2.4c-0.7,0.7-1.5,1-2.4,1
		c-0.4,0-0.5,0.2-0.5,0.5v31.7c0,2.1,0,3.7-0.1,4.8c-0.1,1.2-0.2,2.3-0.5,3.3c-0.3,1-0.7,1.7-1.1,2.2c-0.4,0.4-1.1,0.8-2,1.1
		c-0.9,0.3-1.9,0.5-2.9,0.6c-1,0.1-2.4,0.1-4.3,0.1c-1.7,0-4.2-0.1-7.4-0.2c-1,0-1.8-0.4-2.5-1.1c-0.7-0.7-1.1-1.5-1.1-2.5l-0.1-2.5
		c-0.1-0.9,0.2-1.7,0.8-2.4c0.6-0.7,1.4-1,2.3-0.9c2.9,0.1,4.9,0.2,6,0.2c1,0,1.6-0.1,1.8-0.3c0.2-0.2,0.3-0.8,0.3-1.8V54.7
		c0-0.4-0.2-0.5-0.5-0.5h-18c-0.9,0-1.7-0.3-2.4-1c-0.7-0.7-1-1.5-1-2.4v-2.5c0-0.9,0.3-1.7,1-2.4c0.7-0.7,1.5-1,2.4-1H254.7z
		 M232.2,75v-8.3c0-0.4-0.2-0.5-0.5-0.5h-2.8c-0.4,0-0.5,0.2-0.5,0.5V75c0,0.4,0.2,0.5,0.5,0.5h2.8C232,75.5,232.2,75.3,232.2,75z"
		/>
	<path class="st5" d="M315.8,51.2c0.9,0.3,1.6,0.9,2.1,1.7c0.4,0.8,0.5,1.7,0.3,2.7l-0.7,2.7c-0.2,0.9-0.8,1.6-1.6,2
		c-0.8,0.4-1.6,0.5-2.5,0.2c-0.3-0.1-0.7-0.2-1.3-0.5c-0.6-0.2-1-0.4-1.3-0.5c-0.3-0.1-0.5,0-0.5,0.3v17.4c0,0.3,0.1,0.6,0.4,0.8
		l3.1,2.7c0.7,0.6,1,1.3,1.1,2.2c0,0.9-0.3,1.6-0.9,2.3c-0.6,0.6-1.5,1.4-2.8,2.5c-0.1,0.1-0.1,0.2-0.1,0.3c0,0.1,0.1,0.2,0.2,0.2
		c1.4,0.5,2.4,0.8,3.1,1c0.8,0.2,1.4,0.8,1.7,1.5s0.2,1.5-0.2,2.3l-1.5,2.4c-0.6,0.9-1.3,1.5-2.3,1.9c-0.9,0.4-1.9,0.5-2.9,0.2
		c-6.1-1.7-11.5-4.4-16.3-8.3c-0.2-0.2-0.3-0.1-0.3,0.2l0.2,2.5c0.1,0.9-0.2,1.8-0.8,2.5c-0.6,0.8-1.3,1.2-2.3,1.3
		c-7.9,1-15.8,1.7-23.7,2.1c-1,0-1.8-0.3-2.5-0.9c-0.7-0.6-1.1-1.4-1.2-2.4l-0.2-2c-0.1-0.9,0.2-1.7,0.8-2.4c0.6-0.7,1.3-1,2.2-1.1
		c0.4,0,1,0,1.8-0.1c0.4,0,0.5-0.2,0.5-0.5V60.1c0-0.3-0.2-0.4-0.5-0.3c-0.2,0.1-0.6,0.2-1,0.4c-0.4,0.2-0.8,0.3-1,0.4
		c-0.9,0.3-1.7,0.2-2.5-0.2s-1.3-1.1-1.5-2l-0.7-2.7c-0.2-0.9-0.1-1.8,0.3-2.7c0.4-0.8,1.1-1.4,2.1-1.7c6.2-2.2,11.7-4.6,16.7-7.2
		c2.1-1.1,4.2-1.6,6.5-1.6h7c2.2,0,4.4,0.5,6.5,1.6C304,46.6,309.6,49,315.8,51.2z M294.8,55.6h6c0.1,0,0.1,0,0.1-0.1
		c0-0.1,0-0.1-0.1-0.2c-3.9-1.8-7.6-3.8-11.2-6.1c-0.3-0.2-0.6-0.2-0.9-0.1c-4.1,2.5-7.8,4.5-11.3,6.2c-0.1,0-0.1,0.1-0.1,0.2
		c0,0.1,0,0.1,0.1,0.1h6c0.4,0,0.5-0.2,0.5-0.5v-0.5c0-0.9,0.3-1.7,1-2.4c0.7-0.7,1.5-1,2.4-1h3.4c0.9,0,1.7,0.3,2.4,1
		c0.7,0.7,1,1.5,1,2.4v0.5C294.2,55.4,294.4,55.6,294.8,55.6z M278.5,64.4c0,0.4,0.2,0.5,0.5,0.5h19.4c0.4,0,0.5-0.2,0.5-0.5v-1.1
		c0-0.3-0.2-0.5-0.5-0.5h-19.4c-0.4,0-0.5,0.2-0.5,0.5V64.4z M279.1,73.4h19.4c0.4,0,0.5-0.2,0.5-0.5v-1.1c0-0.3-0.2-0.5-0.5-0.5
		h-19.4c-0.4,0-0.5,0.2-0.5,0.5v1.1C278.5,73.2,278.7,73.4,279.1,73.4z M289.7,87.3c0.1,0,0.2-0.1,0.2-0.2c0.1-0.1,0-0.2,0-0.3
		c-2-2-3.6-3.9-4.9-5.8c-0.2-0.3-0.5-0.4-0.8-0.4h-5.1c-0.4,0-0.5,0.2-0.5,0.5v6.7c0,0.3,0.2,0.4,0.5,0.4
		C283.8,87.9,287.4,87.6,289.7,87.3z M305,81c0.1,0,0.1-0.1,0.1-0.2c0-0.1-0.1-0.2-0.2-0.2h-7.5c-0.1,0-0.1,0-0.2,0.1
		c0,0.1,0,0.1,0,0.2c1.3,1.1,2.5,2.1,3.7,2.8c0.3,0.2,0.6,0.2,0.9,0C303.2,82.5,304.3,81.6,305,81z"/>
	<path class="st5" d="M362.9,67.8c7.8,7.4,12.2,11.6,13.4,12.7c0.7,0.6,1,1.4,1.1,2.4c0,0.9-0.2,1.8-0.8,2.5l-3.4,3.9
		c-0.6,0.7-1.4,1.1-2.3,1.1c-0.9,0.1-1.8-0.2-2.4-0.8c-4.6-4.2-10.4-9.7-17.4-16.5c-2.7-2.7-4.5-4.3-5.3-4.9c-0.8-0.6-1.5-1-2.1-1
		c-0.7,0-1.4,0.3-2,0.9c-0.7,0.6-1.9,2.1-3.7,4.5c-3.2,4.4-5.7,7.7-7.5,10c-0.6,0.7-1.3,1.1-2.3,1.2c-0.9,0.1-1.8-0.2-2.4-0.9
		l-3.4-3.1c-0.7-0.7-1.1-1.5-1.1-2.4c-0.1-0.9,0.2-1.8,0.8-2.6c1.3-1.6,3.3-4.2,6.2-7.8c3.1-4,5.3-6.7,6.8-8.2c1.5-1.5,2.8-2.5,4-3
		c1.2-0.5,2.8-0.7,5-0.7c1.9,0,3.5,0.2,4.6,0.7c1.2,0.5,2.7,1.5,4.7,3.1C355.1,60.5,358.3,63.5,362.9,67.8z M357,47.5
		c0.8-0.4,1.7-0.5,2.7-0.2c0.9,0.3,1.6,0.8,2.1,1.7c0.8,1.3,1.6,2.9,2.4,4.6c0.4,0.8,0.5,1.7,0.2,2.6c-0.3,0.9-0.9,1.5-1.7,1.9
		l-0.6,0.3c-0.8,0.4-1.7,0.5-2.6,0.2c-0.9-0.3-1.6-0.9-2-1.7c-0.3-0.5-0.7-1.3-1.2-2.3c-0.5-1-0.9-1.7-1.2-2.2
		c-0.4-0.8-0.5-1.7-0.3-2.6c0.3-0.9,0.8-1.6,1.7-2L357,47.5z M367.5,45.1c0.8-0.4,1.7-0.5,2.7-0.2c0.9,0.3,1.6,0.8,2.1,1.7
		c1.1,2.1,2,3.7,2.5,4.8c0.4,0.8,0.5,1.7,0.2,2.6c-0.3,0.9-0.9,1.5-1.7,1.9l-0.8,0.4c-0.8,0.4-1.7,0.5-2.6,0.2
		c-0.9-0.3-1.6-0.9-2-1.7l-2.5-4.7c-0.4-0.8-0.5-1.6-0.2-2.5c0.3-0.9,0.8-1.5,1.7-2L367.5,45.1z"/>
	<path class="st5" d="M417.1,64.1c5.1,0,9.2,1.3,12.3,4c3.1,2.6,4.6,6,4.6,10.2c0,5.8-2.2,10.3-6.5,13.5c-4.3,3.2-10.4,4.9-18.3,4.9
		c-12.5,0-18.7-3.8-18.7-11.5c0-2.9,1.4-5.3,4.2-7.3c2.8-2,6.4-3,10.9-3c4.6,0,7.9,0.7,10.1,2.2c2.1,1.5,3.2,3.8,3.2,6.8
		c0,0.1,0,0.3,0,0.5c0,0.2,0,0.4,0,0.5c0,0.3,0.1,0.3,0.4,0.2c2-1.5,3-3.7,3-6.4c0-2-0.9-3.6-2.7-4.8c-1.8-1.2-4.4-1.8-7.8-1.8
		c-3.9,0-7.3,0.3-10.1,0.8c-2.9,0.5-6.1,1.5-9.7,3c-0.9,0.4-1.8,0.4-2.7,0c-0.9-0.3-1.5-0.9-2-1.8l-0.9-1.7
		c-0.4-0.8-0.5-1.7-0.2-2.7c0.3-0.9,0.8-1.6,1.7-2.1L408.6,56v-0.1h-16.5c-0.9,0-1.7-0.3-2.4-1c-0.7-0.7-1-1.5-1-2.4V50
		c0-0.9,0.3-1.7,1-2.4c0.7-0.7,1.5-1,2.4-1h33.5c0.9,0,1.7,0.3,2.4,1c0.7,0.7,1,1.5,1,2.4v2.8c0,2.3-1,3.9-3.1,4.9l-13.2,6.6
		l0.1,0.1C414.5,64.2,415.9,64.1,417.1,64.1z M409.2,87.4c0.2-0.9,0.4-1.7,0.4-2.2c0-0.9-0.3-1.5-0.9-1.9c-0.6-0.4-1.8-0.5-3.6-0.5
		c-2.8,0-4.2,0.8-4.2,2.4c0,1.8,2.6,2.7,7.7,2.7C408.9,87.9,409.1,87.7,409.2,87.4z"/>
	<path class="st5" d="M470,47.8c5.5,0,9.8,1,12.8,3c3.1,2,4.6,4.6,4.6,7.8c0,1.5-0.2,2.9-0.6,4.1c-0.4,1.2-1.1,2.3-2.1,3.3
		c-1,1-1.8,1.7-2.5,2.3c-0.7,0.5-1.8,1.2-3.1,2.1c-2.8,1.8-4.6,3.2-5.4,4.3c-1.5,2.1-3.1,3.2-4.7,3.2h-4c-1,0-1.8-0.3-2.4-1
		c-0.6-0.7-0.8-1.5-0.5-2.4c0.4-1.3,1.1-2.6,2.1-3.8c1-1.2,1.9-2.2,2.7-2.8c0.8-0.6,1.9-1.4,3.3-2.4c1-0.8,1.8-1.3,2.4-1.7
		c0.5-0.4,1-0.9,1.5-1.5c0.5-0.6,0.7-1.2,0.7-1.8c0-2.2-2.2-3.3-6.6-3.3c-3.3,0-6.9,0.5-10.9,1.5c-0.9,0.2-1.8,0.1-2.6-0.4
		c-0.8-0.5-1.3-1.1-1.5-2l-0.7-2.7c-0.2-0.9-0.1-1.8,0.5-2.6c0.5-0.8,1.2-1.3,2.1-1.5C460.1,48.3,465,47.8,470,47.8z M469.6,82.8
		c0.9,0,1.7,0.3,2.4,1c0.7,0.7,1,1.5,1,2.4V89c0,0.9-0.3,1.7-1,2.4c-0.7,0.7-1.5,1-2.4,1h-5.2c-0.9,0-1.7-0.3-2.4-1
		c-0.7-0.7-1-1.5-1-2.4v-2.8c0-0.9,0.3-1.7,1-2.4c0.7-0.7,1.5-1,2.4-1H469.6z"/>
</g>
</svg>
