<?xml version="1.0" encoding="utf-8"?>
<!-- Generator: Adobe Illustrator 25.3.0, SVG Export Plug-In . SVG Version: 6.00 Build 0)  -->
<svg version="1.1" id="レイヤー_1" xmlns="http://www.w3.org/2000/svg" xmlns:xlink="http://www.w3.org/1999/xlink" x="0px"
	 y="0px" viewBox="0 0 687.4 211.2" style="enable-background:new 0 0 687.4 211.2;" xml:space="preserve">
<style type="text/css">
	.st0{fill:#FFFDFE;stroke:#3C0000;stroke-width:1.5;stroke-miterlimit:10;}
	.st1{fill:#D26088;}
	.st2{enable-background:new    ;}
	.st3{fill:#FFFFFF;}
	.st4{fill:#2D2D2D;}
	.st5{font-family:'RoundedMplus1c-Regular';}
	.st6{font-size:30px;}
</style>
<path class="st0" d="M25.9,0.8h635.6c13.9,0,25.2,11.3,25.2,25.1v159.5c0,13.9-11.3,25.1-25.2,25.1H25.9
	c-13.9,0-25.1-11.3-25.1-25.1V25.9C0.8,12,12,0.8,25.9,0.8z"/>
<path class="st1" d="M35.4,9.5H652c13.9,0,25.2,11.3,25.2,25.2v71.4c0,13.9-11.3,25.2-25.2,25.2H35.4c-13.9,0-25.1-11.3-25.1-25.2
	V34.7C10.3,20.8,21.5,9.5,35.4,9.5z"/>
<g class="st2">
	<path class="st3" d="M238.5,77.1c3.9,3.3,7.9,7,12.3,11.1c0.7,0.6,1,1.4,1,2.3c0,0.9-0.3,1.7-0.9,2.3l-2.9,2.9
		c-0.7,0.7-1.4,1-2.3,1c-0.9,0-1.7-0.3-2.3-0.9c-3.9-3.6-7.9-7.3-12.1-11c-0.3-0.2-0.6-0.2-0.8-0.1c-5.5,4.9-11.5,8.8-17.9,12
		c-0.8,0.4-1.7,0.4-2.6,0.1c-0.9-0.3-1.5-0.8-2-1.6l-1.8-3.2c-0.4-0.8-0.5-1.6-0.2-2.4s0.8-1.5,1.6-1.9c12-6.2,21.2-14.6,27.6-25.3
		c0.1-0.1,0.1-0.2,0-0.3c-0.1-0.1-0.1-0.1-0.3-0.1h-21.9c-0.9,0-1.7-0.3-2.3-1c-0.7-0.7-1-1.4-1-2.3V55c0-0.9,0.3-1.7,1-2.3
		c0.7-0.7,1.4-1,2.3-1h31.6c0.9,0,1.7,0.3,2.3,1c0.7,0.7,1,1.4,1,2.3v3.5c0,2.3-0.5,4.4-1.5,6.2c-2.4,4.2-5,8.1-8,11.7
		C238.2,76.6,238.3,76.8,238.5,77.1z"/>
	<path class="st3" d="M308.1,73.7c0.8,0.3,1.5,0.8,1.9,1.6c0.4,0.8,0.5,1.7,0.1,2.6l-1.4,4.2c-0.3,0.8-0.8,1.5-1.6,1.9
		c-0.8,0.4-1.7,0.5-2.5,0.1c-7.7-2.7-15.6-5.1-23.6-7.2c-0.1,0-0.2,0-0.3,0.1c-0.1,0.1-0.1,0.2-0.1,0.3v17.9c0,0.9-0.3,1.7-1,2.3
		c-0.7,0.7-1.4,1-2.3,1h-5c-0.9,0-1.7-0.3-2.3-1c-0.7-0.7-1-1.4-1-2.3v-42c0-0.9,0.3-1.7,1-2.3c0.7-0.7,1.4-1,2.3-1h5
		c0.9,0,1.7,0.3,2.3,1c0.7,0.7,1,1.4,1,2.3V65c0,0.3,0.2,0.6,0.5,0.6C290.6,68.1,299.6,70.7,308.1,73.7z"/>
	<path class="st3" d="M365.1,68.7c0.9,0,1.7,0.3,2.3,1c0.7,0.7,1,1.4,1,2.3v4.4c0,0.9-0.3,1.7-1,2.3c-0.7,0.7-1.4,1-2.3,1h-42
		c-0.9,0-1.7-0.3-2.3-1c-0.7-0.7-1-1.4-1-2.3V72c0-0.9,0.3-1.7,1-2.3c0.7-0.7,1.4-1,2.3-1H365.1z"/>
	<path class="st3" d="M393.5,73.8c0,0.9-0.3,1.7-1,2.3s-1.4,1-2.3,1h-5c-0.9,0-1.7-0.3-2.3-1c-0.7-0.7-1-1.4-1-2.3v-20
		c0-0.9,0.3-1.7,1-2.3c0.7-0.7,1.4-1,2.3-1h5c0.9,0,1.7,0.3,2.3,1c0.7,0.7,1,1.4,1,2.3V73.8z M418.5,50.5c0.9,0,1.7,0.3,2.3,1
		c0.7,0.7,1,1.4,1,2.3v13.5c0,9.6-2.4,17-7.2,22.2c-4.8,5.1-12.1,8.3-21.9,9.3c-0.9,0.1-1.8-0.1-2.5-0.7c-0.7-0.6-1.2-1.3-1.4-2.3
		l-0.8-3.4c-0.2-0.8,0-1.6,0.5-2.3s1.2-1.1,2.1-1.2c7.4-1,12.4-3.1,15.2-6.2c2.8-3.1,4.1-8.2,4.1-15.2V53.8c0-0.9,0.3-1.7,1-2.3
		c0.7-0.7,1.4-1,2.3-1H418.5z"/>
	<path class="st3" d="M480.7,68.7c0.9,0,1.7,0.3,2.3,1c0.7,0.7,1,1.4,1,2.3v4.4c0,0.9-0.3,1.7-1,2.3c-0.7,0.7-1.4,1-2.3,1h-42
		c-0.9,0-1.7-0.3-2.3-1c-0.7-0.7-1-1.4-1-2.3V72c0-0.9,0.3-1.7,1-2.3c0.7-0.7,1.4-1,2.3-1H480.7z"/>
</g>
<text transform="matrix(1 0 0 1 238.34 182.97)" class="st4 st5 st6">詳しくはこちら</text>
</svg>
