<?xml version="1.0" encoding="utf-8"?>
<!-- Generator: Adobe Illustrator 25.3.0, SVG Export Plug-In . SVG Version: 6.00 Build 0)  -->
<svg version="1.1" id="レイヤー_1" xmlns="http://www.w3.org/2000/svg" xmlns:xlink="http://www.w3.org/1999/xlink" x="0px"
	 y="0px" viewBox="0 0 868.5 4425.9" style="enable-background:new 0 0 868.5 4425.9;" xml:space="preserve">
<style type="text/css">
	.st0{fill:#050505;stroke:#000000;stroke-width:8.3856;stroke-miterlimit:10;}
	.st1{fill:none;stroke:#FFFFFF;stroke-width:1.5818;stroke-miterlimit:10;}
	.st2{fill:none;stroke:#FFFFFF;stroke-width:1.5818;stroke-miterlimit:10;stroke-dasharray:9.5013,9.5013;}
	.st3{opacity:0.5;}
	.st4{fill:#8E6643;}
	.st5{fill:#006738;}
	.st6{fill:#00512A;}
	.st7{fill:#017D3E;}
	.st8{fill:#019444;}
	.st9{fill:#3EA347;}
	.st10{fill:#43BE54;}
	.st11{fill:#6CB32F;}
	.st12{fill:#99CE3E;}
	.st13{fill:#60E285;}
	.st14{fill:#FFBE1D;}
	.st15{fill:none;}
	.st16{fill:#B24914;}
	.st17{fill:#FFFFFF;}
	.st18{fill:#50C975;}
</style>
<path class="st0" d="M403.2,4425.9H370V4211c0-40.3,32.8-73.1,73.1-73.1h61.4c39.8,0,72.2-32.4,72.2-72.2v-82.5
	c0-39.8-32.4-72.2-72.2-72.2H217.3c-56.6,0-109.8-22-149.8-62.1c-40-40-62.1-93.2-62.1-149.8v-848.8c0-56.6,22-109.8,62.1-149.8
	c40-40,93.2-62.1,149.8-62.1h303.4c39.8,0,72.2-32.4,72.2-72.2V2466c0-39.8-32.4-72.2-72.2-72.2H217.3c-56.6,0-109.8-22-149.8-62.1
	c-40-40-62.1-93.2-62.1-149.8v-859c0-56.6,22-109.8,62.1-149.8c40-40,93.2-62.1,149.8-62.1h303.4c39.8,0,72.2-32.4,72.2-72.2V936.4
	c0-39.8-32.4-72.2-72.2-72.2H194c-81.3,0-147.5-66.2-147.5-147.5V357.3c0-81.3,66.2-147.5,147.5-147.5h359c22,0,39.9-17.9,39.9-39.9
	V4.3h33.2v165.6c0,40.3-32.8,73.1-73.1,73.1H194c-63,0-114.2,51.2-114.2,114.2v359.5c0,63,51.2,114.2,114.2,114.2h326.7
	c58.2,0,105.5,47.3,105.5,105.5v102.4c0,58.2-47.3,105.5-105.5,105.5H217.3c-98.5,0-178.7,80.1-178.7,178.7v858.9
	c0,98.5,80.1,178.7,178.7,178.7h303.4c58.2,0,105.5,47.3,105.5,105.5v100.2c0,58.2-47.3,105.5-105.5,105.5H217.3
	c-98.5,0-178.7,80.1-178.7,178.7v848.8c0,98.5,80.1,178.7,178.7,178.7h287.2c58.1,0,105.5,47.3,105.5,105.5v82.5
	c0,58.1-47.3,105.5-105.5,105.5h-61.4c-22,0-39.9,17.9-39.9,39.9V4425.9z"/>
<g>
	<g>
		<line class="st1" x1="609.6" y1="4.3" x2="609.6" y2="9"/>
		<path class="st2" d="M609.6,18.5v151.4c0,31.2-25.3,56.5-56.5,56.5H194c-72.3,0-130.9,58.6-130.9,130.9v359.5
			c0,72.3,58.6,130.9,130.9,130.9h326.7c49.1,0,88.8,39.8,88.8,88.8v102.4c0,49.1-39.8,88.8-88.8,88.8H217.3
			C109.5,1127.7,22,1215.1,22,1323v858.9c0,107.8,87.4,195.3,195.3,195.3h303.4c49.1,0,88.8,39.8,88.8,88.8v100.2
			c0,49.1-39.8,88.8-88.8,88.8H217.3C109.5,2655,22,2742.4,22,2850.3v848.8c0,107.8,87.4,195.3,195.3,195.3h287.2
			c49.1,0,88.8,39.8,88.8,88.8v82.5c0,49.1-39.8,88.8-88.8,88.8h-61.4c-31.2,0-56.5,25.3-56.5,56.5v205.4"/>
		<line class="st1" x1="386.6" y1="4421.2" x2="386.6" y2="4425.9"/>
	</g>
</g>
<g>
	<g class="st3">
		<rect x="299.9" y="1087.2" class="st4" width="9.8" height="24.3"/>
		<path class="st5" d="M330.3,1073.5h-51.1c-3.3,0-6.1,3-6.1,6.8c0,3.8,2.7,6.8,6.1,6.8h51.1c3.3,0,6.1-3,6.1-6.8
			C336.3,1076.6,333.6,1073.5,330.3,1073.5L330.3,1073.5z"/>
		<path class="st6" d="M333.1,1087.4h-56.6c-3.3,0-6.1,3-6.1,6.8s2.7,6.8,6.1,6.8h56.6c3.3,0,6.1-3,6.1-6.8
			C339,1090.4,336.3,1087.4,333.1,1087.4L333.1,1087.4z"/>
		<path class="st7" d="M326.2,1060h-43c-3.3,0.1-6,3.3-5.7,7c0.1,3.6,2.5,6.3,5.7,6.5h43c3.3-0.1,6-3.3,5.7-7
			C331.9,1062.9,329.4,1060.1,326.2,1060z"/>
		<path class="st8" d="M322.2,1046.5h-34.9c-3.3,0-6.1,3-6.1,6.8c0,3.8,2.7,6.8,6.1,6.8h34.9c3.3,0,6.1-3,6.1-6.8
			C328.3,1049.6,325.5,1046.5,322.2,1046.5L322.2,1046.5z"/>
		<path class="st9" d="M318.1,1033h-26.6c-3.3,0.1-6,3.3-5.7,7c0.1,3.6,2.5,6.3,5.7,6.5h26.6c3.3-0.1,6-3.3,5.7-7
			C323.7,1035.9,321.2,1033.1,318.1,1033z"/>
		<path class="st10" d="M314.1,1019.4h-18.5c-3.3,0-6.1,3-6.1,6.8c0,3.8,2.7,6.8,6.1,6.8h18.5c3.3,0,6.1-3,6.1-6.8
			C320,1022.4,317.4,1019.4,314.1,1019.4L314.1,1019.4L314.1,1019.4z"/>
		<path class="st11" d="M310,1005.8h-10.5c-3.3,0-6.1,3-6.1,6.8s2.7,6.8,6.1,6.8H310c3.3,0,6.1-3,6.1-6.8
			C316,1008.9,313.3,1005.8,310,1005.8z"/>
		<path class="st12" d="M307.2,992.3h-4.9c-3.3,0.1-6,3.3-5.7,7c0.1,3.6,2.5,6.3,5.7,6.5h4.9c3.3-0.1,6-3.3,5.7-7
			C312.9,995.2,310.4,992.4,307.2,992.3z"/>
	</g>
	<g class="st3">
		<rect x="189.2" y="1081" class="st4" width="12.3" height="30.3"/>
		<path class="st5" d="M227.2,1064.2h-63.8c-4.1,0.1-7.4,4.1-7.2,8.7c0.1,4.4,3.3,7.9,7.2,8.2h63.8c4.1-0.1,7.4-4.1,7.2-8.7
			C234.3,1067.8,231.1,1064.3,227.2,1064.2L227.2,1064.2z"/>
		<path class="st6" d="M230.6,1081.3H160c-4.1,0.1-7.4,4.1-7.2,8.7c0.1,4.4,3.3,7.9,7.2,8.2h70.6c4.1-0.1,7.4-4.1,7.2-8.7
			C237.7,1084.9,234.6,1081.5,230.6,1081.3z"/>
		<path class="st7" d="M222.1,1047.3h-53.8c-4.1,0.6-7.1,4.7-6.6,9.5c0.4,3.9,3.2,7,6.6,7.5H222c4.1-0.6,7.1-4.7,6.6-9.5
			C228.3,1050.7,225.7,1047.7,222.1,1047.3L222.1,1047.3z"/>
		<path class="st8" d="M217.1,1030.3h-43.5c-4.1,0.1-7.4,4.1-7.2,8.7c0.1,4.4,3.3,7.9,7.2,8.2h43.5c4.1-0.1,7.4-4.1,7.2-8.7
			C224.2,1034.1,221,1030.4,217.1,1030.3z"/>
		<path class="st9" d="M212,1013.3h-33.3c-4.1,0.1-7.4,4.1-7.2,8.7c0.1,4.4,3.3,7.9,7.2,8.2H212c4.1-0.1,7.4-4.1,7.2-8.7
			C219.1,1017.1,215.9,1013.7,212,1013.3z"/>
		<path class="st10" d="M206.9,996.4h-23.2c-4.1,0.1-7.4,4.1-7.2,8.7c0.1,4.4,3.3,7.9,7.2,8.2h23.2c4.1-0.1,7.4-4.1,7.2-8.7
			C214,1000.2,210.8,996.7,206.9,996.4z"/>
		<path class="st11" d="M201.8,979.6h-13.1c-4.1,0.6-7.1,4.7-6.6,9.5c0.4,3.9,3.2,7,6.6,7.5h13.1c4.1-0.6,7.1-4.7,6.6-9.5
			C208.1,983.1,205.3,980,201.8,979.6z"/>
		<path class="st12" d="M198.4,962.6h-6.2c-4.1,0.1-7.4,4.1-7.2,8.7c0.1,4.4,3.3,7.9,7.2,8.2h6.2c4.1-0.1,7.4-4.1,7.2-8.7
			C205.5,966.4,202.4,962.8,198.4,962.6L198.4,962.6z"/>
	</g>
	<g class="st3">
		<rect x="405.2" y="1096.7" class="st4" width="6" height="14.7"/>
		<path class="st5" d="M423.6,1088.5h-30.9c-2,0.1-3.6,2-3.4,4.2c0.1,2,1.6,3.8,3.4,3.9h30.9c2-0.1,3.6-2,3.4-4.2
			C427,1090.4,425.5,1088.6,423.6,1088.5z"/>
		<path class="st6" d="M425.3,1096.9H391c-2,0.1-3.6,2-3.4,4.2c0.1,2,1.6,3.8,3.4,3.9h34.2c2-0.1,3.6-2,3.4-4.2
			C428.7,1098.6,427.2,1097,425.3,1096.9z"/>
		<path class="st7" d="M421.2,1080.3h-26c-2,0-3.7,1.8-3.7,4.1c0,2.3,1.6,4.1,3.7,4.1h26c2,0,3.7-1.8,3.7-4.1
			C424.9,1082.2,423.2,1080.3,421.2,1080.3L421.2,1080.3z"/>
		<path class="st8" d="M418.7,1072.1h-21c-2,0.1-3.6,2-3.4,4.2c0.1,2,1.6,3.8,3.4,3.9h21c2-0.1,3.6-2,3.4-4.2
			C422.1,1073.9,420.6,1072.1,418.7,1072.1z"/>
		<path class="st9" d="M416.3,1063.9H400c-2,0.1-3.6,2-3.4,4.2c0.1,2,1.6,3.8,3.4,3.9h16.2c2-0.1,3.6-2,3.4-4.2
			C419.6,1065.7,418,1064,416.3,1063.9z"/>
		<path class="st10" d="M413.7,1055.8h-11.3c-2,0-3.7,1.8-3.7,4.1c0,2.3,1.6,4.1,3.7,4.1h11.3c2,0,3.7-1.8,3.7-4.1
			C417.4,1057.7,415.8,1055.8,413.7,1055.8z"/>
		<path class="st11" d="M411.3,1047.4h-6.2c-2-0.1-3.7,1.6-3.8,3.9s1.4,4.1,3.4,4.2c0.1,0,0.3,0,0.4,0h6.2c2-0.1,3.6-2,3.4-4.2
			C414.7,1049.3,413.2,1047.5,411.3,1047.4z"/>
		<path class="st12" d="M409.7,1039.3h-3c-2,0.1-3.6,2-3.4,4.2c0.1,2,1.6,3.8,3.4,3.9h3c2-0.1,3.6-2,3.4-4.2
			C413,1041.1,411.6,1039.4,409.7,1039.3z"/>
	</g>
	<rect x="180.7" y="1118.4" class="st13" width="0.6" height="17.9"/>
	<path class="st14" d="M185.4,1114.4L185.4,1114.4c-0.4-0.4-1-0.6-1.5-0.8c0.5-0.1,1-0.4,1.4-0.8c0.8-0.5,1.1-1.6,0.8-2.5
		c-0.4-1-1.5-1.3-2.4-0.9c0,0-0.1,0-0.1,0.1c-0.4,0.3-0.8,0.6-1.1,0.9c0.1-0.5,0.1-0.9,0.1-1.3c0-1.1-0.6-1.9-1.6-2
		s-1.8,0.8-1.8,1.8v0.1c0,0.5,0,1,0.1,1.5c-0.4-0.4-0.6-0.6-1-0.9c-0.8-0.5-1.8-0.4-2.4,0.5c-0.5,0.9-0.4,2,0.4,2.7l0.1,0.1
		c0.4,0.4,1,0.6,1.5,0.8c-0.5,0.1-1.1,0.4-1.5,0.8l0,0c-0.9,0.6-1.1,1.8-0.6,2.7l0.1,0.1c0.5,0.9,1.6,1,2.4,0.5
		c0.4-0.3,0.6-0.5,1-0.9c-0.1,0.5-0.1,1-0.1,1.5l0,0c0,1.1,0.8,1.9,1.8,1.9s1.8-0.9,1.8-1.9l0,0l0,0c0-0.5,0-1-0.1-1.5
		c0.4,0.4,0.6,0.6,1.1,0.9l0,0c0.9,0.6,1.9,0.3,2.4-0.6C186.2,1116.4,186.2,1115.1,185.4,1114.4L185.4,1114.4z"/>
	<path class="st15" d="M185.4,1114.4L185.4,1114.4c-0.4-0.4-1-0.6-1.5-0.8c0.5-0.1,1-0.4,1.4-0.8c0.8-0.5,1.1-1.6,0.8-2.5
		c-0.4-1-1.5-1.3-2.4-0.9c0,0-0.1,0-0.1,0.1c-0.4,0.3-0.8,0.6-1.1,0.9c0.1-0.5,0.1-0.9,0.1-1.3c0-1.1-0.6-1.9-1.6-2
		s-1.8,0.8-1.8,1.8v0.1c0,0.5,0,1,0.1,1.5c-0.4-0.4-0.6-0.6-1-0.9c-0.8-0.5-1.8-0.4-2.4,0.5c-0.5,0.9-0.4,2,0.4,2.7l0.1,0.1
		c0.4,0.4,1,0.6,1.5,0.8c-0.5,0.1-1.1,0.4-1.5,0.8l0,0c-0.9,0.6-1.1,1.8-0.6,2.7l0.1,0.1c0.5,0.9,1.6,1,2.4,0.5
		c0.4-0.3,0.6-0.5,1-0.9c-0.1,0.5-0.1,1-0.1,1.5l0,0c0,1.1,0.8,1.9,1.8,1.9s1.8-0.9,1.8-1.9l0,0l0,0c0-0.5,0-1-0.1-1.5
		c0.4,0.4,0.6,0.6,1.1,0.9l0,0c0.9,0.6,1.9,0.3,2.4-0.6C186.2,1116.4,186.2,1115.1,185.4,1114.4L185.4,1114.4z"/>
	<path class="st16" d="M182.7,1113.7c0,1.1-0.8,1.9-1.8,1.9s-1.8-0.9-1.8-1.9c0-1.1,0.8-1.9,1.8-1.9l0,0
		C181.9,1111.7,182.7,1112.6,182.7,1113.7z"/>
	<path class="st15" d="M182.7,1113.7c0,1.1-0.8,1.9-1.8,1.9s-1.8-0.9-1.8-1.9c0-1.1,0.8-1.9,1.8-1.9l0,0
		C181.9,1111.7,182.7,1112.6,182.7,1113.7z"/>
	<rect x="286" y="1093.4" class="st13" width="0.6" height="17.9"/>
	<path class="st14" d="M290.7,1089.5L290.7,1089.5c-0.4-0.4-1-0.6-1.5-0.8c0.5-0.1,1-0.4,1.4-0.8c0.8-0.5,1.1-1.6,0.8-2.5
		c-0.4-1-1.4-1.3-2.3-0.9c0,0-0.1,0-0.1,0.1c-0.4,0.3-0.8,0.5-1.1,0.9c0.1-0.5,0.1-0.9,0.1-1.3c0-1.1-0.6-1.9-1.6-2
		s-1.8,0.8-1.8,1.8v0.1c0,0.5,0,1,0.1,1.5c-0.4-0.4-0.6-0.6-1-0.9c-0.8-0.5-1.8-0.4-2.4,0.5s-0.4,2,0.4,2.7l0.1,0.1
		c0.4,0.4,1,0.6,1.5,0.8c-0.5,0.1-1.1,0.4-1.5,0.8l0,0c-0.9,0.6-1.1,1.8-0.6,2.7l0.1,0.1c0.5,0.9,1.6,1,2.4,0.5
		c0.4-0.3,0.6-0.5,1-0.9c-0.1,0.5-0.1,1-0.1,1.5l0,0c0,1.1,0.8,1.9,1.8,1.9s1.8-0.9,1.8-1.9l0,0l0,0c0-0.5,0-1-0.1-1.5
		c0.4,0.4,0.6,0.6,1.1,0.9l0,0c0.9,0.6,1.9,0.3,2.4-0.8C291.9,1091.3,291.6,1090.1,290.7,1089.5L290.7,1089.5L290.7,1089.5z"/>
	<path class="st15" d="M290.7,1089.5L290.7,1089.5c-0.4-0.4-1-0.6-1.5-0.8c0.5-0.1,1-0.4,1.4-0.8c0.8-0.5,1.1-1.6,0.8-2.5
		c-0.4-1-1.4-1.3-2.3-0.9c0,0-0.1,0-0.1,0.1c-0.4,0.3-0.8,0.5-1.1,0.9c0.1-0.5,0.1-0.9,0.1-1.3c0-1.1-0.6-1.9-1.6-2
		s-1.8,0.8-1.8,1.8v0.1c0,0.5,0,1,0.1,1.5c-0.4-0.4-0.6-0.6-1-0.9c-0.8-0.5-1.8-0.4-2.4,0.5s-0.4,2,0.4,2.7l0.1,0.1
		c0.4,0.4,1,0.6,1.5,0.8c-0.5,0.1-1.1,0.4-1.5,0.8l0,0c-0.9,0.6-1.1,1.8-0.6,2.7l0.1,0.1c0.5,0.9,1.6,1,2.4,0.5
		c0.4-0.3,0.6-0.5,1-0.9c-0.1,0.5-0.1,1-0.1,1.5l0,0c0,1.1,0.8,1.9,1.8,1.9s1.8-0.9,1.8-1.9l0,0l0,0c0-0.5,0-1-0.1-1.5
		c0.4,0.4,0.6,0.6,1.1,0.9l0,0c0.9,0.6,1.9,0.3,2.4-0.8C291.9,1091.3,291.6,1090.1,290.7,1089.5L290.7,1089.5L290.7,1089.5z"/>
	<path class="st16" d="M288.1,1088.8c0,1.1-0.8,1.9-1.8,1.9s-1.8-0.9-1.8-1.9c0-1.1,0.8-1.9,1.8-1.9l0,0
		C287.3,1086.7,288.1,1087.6,288.1,1088.8z"/>
	<path class="st15" d="M288.1,1088.8c0,1.1-0.8,1.9-1.8,1.9s-1.8-0.9-1.8-1.9c0-1.1,0.8-1.9,1.8-1.9l0,0
		C287.3,1086.7,288.1,1087.6,288.1,1088.8z"/>
	<rect x="71.2" y="1146.6" class="st4" width="6.1" height="15"/>
	<path class="st5" d="M89.9,1138.3H58.7c-2,0.1-3.6,2-3.4,4.4c0.1,2,1.6,3.8,3.4,3.9h31.2c2-0.1,3.6-2,3.4-4.4
		C93.3,1140.1,91.8,1138.5,89.9,1138.3z"/>
	<path class="st6" d="M91.5,1146.7H56.9c-2-0.1-3.8,1.6-3.9,3.9c-0.1,2.3,1.4,4.2,3.4,4.4c0.1,0,0.3,0,0.4,0h34.6
		c2-0.1,3.6-2,3.4-4.4C95,1148.6,93.6,1146.8,91.5,1146.7z"/>
	<path class="st7" d="M87.5,1130H61.2c-2,0-3.7,1.8-3.7,4.1c0,2.3,1.6,4.1,3.7,4.1h26.2c2,0,3.7-1.8,3.7-4.1
		C91.1,1131.9,89.4,1130,87.5,1130z"/>
	<path class="st8" d="M84.9,1121.7H63.6c-2,0.1-3.6,2-3.4,4.4c0.1,2,1.6,3.8,3.4,3.9h21.3c2-0.1,3.6-2,3.4-4.4
		C88.4,1123.6,86.8,1121.8,84.9,1121.7z"/>
	<path class="st9" d="M82.5,1113.5H66.2c-2,0-3.7,1.8-3.7,4.1s1.6,4.1,3.7,4.1h16.4c2,0,3.7-1.8,3.7-4.1
		C86.2,1115.4,84.4,1113.5,82.5,1113.5z"/>
	<path class="st10" d="M80,1105.2H68.7c-2,0.1-3.6,2-3.4,4.4c0.1,2,1.6,3.8,3.4,3.9H80c2-0.1,3.6-2,3.4-4.4
		C83.4,1107,81.9,1105.5,80,1105.2z"/>
	<path class="st11" d="M77.6,1097h-6.3c-2,0-3.7,1.8-3.7,4.1c0,2.3,1.6,4.1,3.7,4.1h6.3c2,0,3.7-1.8,3.7-4.1
		C81.1,1098.9,79.5,1097,77.6,1097L77.6,1097z"/>
	<path class="st12" d="M75.8,1088.8h-3c-2-0.1-3.8,1.6-3.9,3.9s1.4,4.2,3.4,4.4c0.1,0,0.3,0,0.4,0h3c2-0.1,3.6-2,3.4-4.4
		C79.1,1090.4,77.7,1088.9,75.8,1088.8z"/>
	<rect x="63" y="1152.3" class="st13" width="0.6" height="15.1"/>
	<path class="st14" d="M67.1,1148.7L67.1,1148.7c-0.4-0.3-0.9-0.5-1.3-0.6c0.4-0.1,0.9-0.4,1.1-0.6c0.6-0.5,1-1.3,0.6-2.2
		c-0.4-0.9-1.1-1.1-1.9-0.8c0,0-0.1,0-0.1,0.1c-0.4,0.3-0.6,0.5-0.9,0.8c0.1-0.4,0.1-0.9,0.1-1.1c0-0.9-0.5-1.6-1.3-1.8
		c-0.8-0.1-1.5,0.6-1.6,1.5v0.1c0,0.4,0,0.9,0.1,1.1c-0.3-0.3-0.5-0.5-0.8-0.8c-0.6-0.5-1.5-0.3-2,0.4c-0.5,0.8-0.4,1.8,0.4,2.3
		l0.1,0.1c0.4,0.3,0.9,0.5,1.3,0.6c-0.4,0.1-0.9,0.4-1.3,0.6l0,0c-0.6,0.5-1,1.5-0.5,2.3l0.1,0.1c0.4,0.8,1.3,0.9,2,0.4
		c0.4-0.3,0.5-0.5,0.8-0.8c-0.1,0.4-0.1,0.9-0.1,1.1l0,0c-0.1,0.9,0.5,1.8,1.3,1.8c0.8,0.1,1.5-0.6,1.6-1.5c0-0.1,0-0.3,0-0.3l0,0
		c0-0.4,0-0.9-0.1-1.1c0.3,0.3,0.5,0.5,0.9,0.8l0,0c0.8,0.5,1.6,0.1,1.9-0.6C67.9,1150.4,67.7,1149.4,67.1,1148.7L67.1,1148.7z"/>
	<path class="st17" d="M67.1,1148.7L67.1,1148.7c-0.4-0.3-0.9-0.5-1.3-0.6c0.4-0.1,0.9-0.4,1.1-0.6c0.6-0.5,1-1.3,0.6-2.2
		c-0.4-0.9-1.1-1.1-1.9-0.8c0,0-0.1,0-0.1,0.1c-0.4,0.3-0.6,0.5-0.9,0.8c0.1-0.4,0.1-0.9,0.1-1.1c0-0.9-0.5-1.6-1.3-1.8
		c-0.8-0.1-1.5,0.6-1.6,1.5v0.1c0,0.4,0,0.9,0.1,1.1c-0.3-0.3-0.5-0.5-0.8-0.8c-0.6-0.5-1.5-0.3-2,0.4c-0.5,0.8-0.4,1.8,0.4,2.3
		l0.1,0.1c0.4,0.3,0.9,0.5,1.3,0.6c-0.4,0.1-0.9,0.4-1.3,0.6l0,0c-0.6,0.5-1,1.5-0.5,2.3l0.1,0.1c0.4,0.8,1.3,0.9,2,0.4
		c0.4-0.3,0.5-0.5,0.8-0.8c-0.1,0.4-0.1,0.9-0.1,1.1l0,0c-0.1,0.9,0.5,1.8,1.3,1.8c0.8,0.1,1.5-0.6,1.6-1.5c0-0.1,0-0.3,0-0.3l0,0
		c0-0.4,0-0.9-0.1-1.1c0.3,0.3,0.5,0.5,0.9,0.8l0,0c0.8,0.5,1.6,0.1,1.9-0.6C67.9,1150.4,67.7,1149.4,67.1,1148.7L67.1,1148.7z"/>
	<path class="st16" d="M64.9,1148.2c0,1-0.6,1.8-1.5,1.8s-1.5-0.8-1.5-1.8s0.6-1.8,1.5-1.8l0,0C64.1,1146.6,64.9,1147.2,64.9,1148.2
		L64.9,1148.2z"/>
	<path class="st14" d="M65.2,1148.2c0,1.1-0.9,2-1.8,2c-0.9,0-1.8-1-1.8-2c0-1.1,0.9-2,1.8-2C64.3,1146.2,65.2,1147.1,65.2,1148.2
		L65.2,1148.2z"/>
	<rect x="138.8" y="1113.7" class="st4" width="9.1" height="22.6"/>
	<path class="st5" d="M167.1,1101.3h-47.4c-3,0.1-5.5,3-5.3,6.6c0.1,3.3,2.5,5.8,5.3,6h47.4c3-0.1,5.5-3,5.3-6.6
		C172.2,1104.1,170,1101.3,167.1,1101.3L167.1,1101.3z"/>
	<path class="st6" d="M169.6,1113.7h-52.5c-3,0-5.6,2.8-5.5,6.3c0,3.4,2.5,6.2,5.5,6.2h52.5c3,0,5.6-2.8,5.5-6.3
		C175.1,1116.6,172.7,1113.7,169.6,1113.7L169.6,1113.7z"/>
	<path class="st7" d="M163.4,1088.8h-39.8c-3,0.1-5.5,3-5.3,6.6c0.1,3.3,2.5,5.8,5.3,6h39.8c3-0.1,5.5-3,5.3-6.6
		C168.5,1091.4,166.2,1088.9,163.4,1088.8z"/>
	<path class="st8" d="M159.6,1076.2h-32.3c-3,0-5.6,2.8-5.5,6.3c0,3.4,2.5,6.2,5.5,6.2h32.3c3,0,5.6-2.8,5.5-6.3
		C165.2,1079,162.7,1076.2,159.6,1076.2z"/>
	<path class="st9" d="M155.8,1063.6h-24.7c-3,0.1-5.5,3-5.3,6.6c0.1,3.3,2.5,5.8,5.3,6h24.7c3-0.1,5.5-3,5.3-6.6
		C161,1066.4,158.7,1063.8,155.8,1063.6L155.8,1063.6z"/>
	<path class="st10" d="M152,1051.1h-17.2c-3,0.1-5.5,3-5.3,6.6c0.1,3.3,2.5,5.8,5.3,6H152c3-0.1,5.5-3,5.3-6.6
		C157.2,1053.8,154.9,1051.2,152,1051.1z"/>
	<path class="st11" d="M148.2,1038.4h-9.8c-3,0-5.6,2.8-5.5,6.3c0,3.4,2.5,6.2,5.5,6.2h9.8c3,0,5.6-2.8,5.5-6.3
		C153.8,1041.2,151.3,1038.4,148.2,1038.4z"/>
	<path class="st12" d="M145.8,1025.9h-4.7c-3,0.1-5.5,3-5.3,6.6c0.1,3.3,2.5,5.8,5.3,6h4.7c3-0.1,5.5-3,5.3-6.6
		C151,1028.6,148.6,1026,145.8,1025.9z"/>
	<rect x="457.7" y="1096.5" class="st4" width="6" height="15"/>
	<path class="st5" d="M476.4,1088.2h-31.2c-2,0-3.7,1.8-3.7,4.1c0,2.3,1.6,4.1,3.7,4.1h31.2c2,0,3.7-1.8,3.7-4.1
		C480,1090.3,478.3,1088.2,476.4,1088.2z"/>
	<path class="st6" d="M478,1096.7h-34.6c-2,0-3.7,1.8-3.7,4.1c0,2.3,1.6,4.1,3.7,4.1H478c2,0,3.7-1.8,3.7-4.1
		C481.7,1098.4,480,1096.7,478,1096.7z"/>
	<path class="st7" d="M473.8,1080.1h-26.2c-2-0.1-3.8,1.6-3.9,3.9c-0.1,2.3,1.4,4.2,3.4,4.4c0.1,0,0.3,0,0.4,0h26.2
		c2,0.1,3.8-1.6,3.9-3.9s-1.4-4.2-3.4-4.4C474.1,1080.1,474,1080.1,473.8,1080.1z"/>
	<path class="st8" d="M471.4,1071.6h-21.3c-2,0-3.7,1.8-3.7,4.1c0,2.3,1.6,4.1,3.7,4.1h21.3c2,0,3.7-1.8,3.7-4.1
		C475.1,1073.7,473.3,1071.6,471.4,1071.6z"/>
	<path class="st9" d="M468.9,1063.5h-16.4c-2,0.1-3.6,2-3.4,4.4c0.1,2,1.6,3.8,3.4,3.9h16.4c2-0.1,3.6-2,3.4-4.4
		C472.3,1065.3,470.8,1063.5,468.9,1063.5z"/>
	<path class="st10" d="M466.5,1055.3h-11.3c-2,0-3.7,1.8-3.7,4.1c0,2.3,1.6,4.1,3.7,4.1h11.3c2,0,3.7-1.8,3.7-4.1
		C470.2,1057.1,468.4,1055.3,466.5,1055.3z"/>
	<path class="st11" d="M463.8,1047h-6.3c-2-0.1-3.8,1.6-3.9,3.9s1.4,4.2,3.4,4.4c0.1,0,0.3,0,0.4,0h6.3c2-0.1,3.6-2,3.4-4.4
		C467.2,1048.7,465.8,1047.2,463.8,1047z"/>
	<path class="st12" d="M462.2,1038.7h-3c-2,0-3.7,1.8-3.7,4.1c0,2.3,1.6,4.1,3.7,4.1h3c2,0,3.7-1.8,3.7-4.1
		C465.8,1040.6,464.3,1038.7,462.2,1038.7z"/>
	<rect x="534.1" y="1090.3" class="st4" width="9.1" height="22.6"/>
	<path class="st5" d="M562.3,1077.7h-47.4c-3,0.1-5.5,3-5.3,6.6c0.1,3.3,2.5,5.8,5.3,6h47.4c3-0.1,5.5-3,5.3-6.6
		C567.5,1080.3,565.3,1077.8,562.3,1077.7z"/>
	<path class="st6" d="M564.9,1090.3h-52.5c-3,0-5.6,2.8-5.5,6.3c0,3.4,2.5,6.2,5.5,6.2h52.5c3,0,5.6-2.8,5.5-6.3
		C570.5,1093.1,567.9,1090.3,564.9,1090.3z"/>
	<path class="st7" d="M558.5,1065.2h-39.8c-3,0.1-5.5,3-5.3,6.6c0.1,3.3,2.5,5.8,5.3,6h39.8c3-0.1,5.5-3,5.3-6.6
		C563.7,1067.8,561.5,1065.3,558.5,1065.2L558.5,1065.2z"/>
	<path class="st8" d="M554.7,1052.5h-32.3c-3,0-5.6,2.8-5.5,6.3c0,3.4,2.5,6.2,5.5,6.2h32.3c3,0,5.6-2.8,5.5-6.3
		C560.3,1055.3,557.8,1052.5,554.7,1052.5L554.7,1052.5z"/>
	<path class="st9" d="M551.1,1039.9h-24.7c-3,0.1-5.5,3-5.3,6.6c0.1,3.3,2.5,5.8,5.3,6h24.7c3-0.1,5.5-3,5.3-6.6
		C556.1,1042.7,554,1040.1,551.1,1039.9L551.1,1039.9z"/>
	<path class="st10" d="M547.3,1027.4h-17.1c-3,0.1-5.5,3-5.3,6.6c0.1,3.3,2.5,5.8,5.3,6h17.1c3-0.1,5.5-3,5.3-6.6
		C552.5,1030.2,550.2,1027.5,547.3,1027.4z"/>
	<path class="st11" d="M543.5,1014.8h-9.8c-3,0-5.6,2.8-5.5,6.3c0,3.4,2.5,6.2,5.5,6.2h9.8c3,0,5.6-2.8,5.5-6.3
		C549,1017.6,546.6,1014.8,543.5,1014.8z"/>
	<path class="st12" d="M540.9,1002.3h-4.7c-3,0.1-5.5,3-5.3,6.6c0.1,3.3,2.5,5.8,5.3,6h4.7c3-0.1,5.5-3,5.3-6.6
		C546.1,1004.9,543.8,1002.4,540.9,1002.3z"/>
	<rect x="342.2" y="1092.4" class="st4" width="7.6" height="19"/>
	<path class="st5" d="M366.2,1081.8h-40.1c-2.5,0.1-4.7,2.7-4.4,5.6c0.1,2.7,2,4.8,4.4,4.9h40.1c2.5-0.1,4.7-2.7,4.4-5.6
		C370.5,1084.1,368.6,1081.9,366.2,1081.8L366.2,1081.8z"/>
	<path class="st6" d="M368.3,1092.6H324c-2.5,0.1-4.7,2.7-4.4,5.6c0.1,2.7,2,4.8,4.4,4.9h44.3c2.5-0.1,4.7-2.7,4.4-5.6
		C372.6,1094.8,370.6,1092.6,368.3,1092.6L368.3,1092.6z"/>
	<path class="st7" d="M363,1071.3h-33.7c-2.5,0-4.7,2.5-4.7,5.5s2,5.2,4.7,5.2H363c2.5,0,4.7-2.5,4.7-5.5S365.5,1071.3,363,1071.3
		L363,1071.3z"/>
	<path class="st8" d="M359.7,1060.6h-27.3c-2.5,0.1-4.7,2.7-4.4,5.6c0.1,2.7,2,4.8,4.4,4.9h27.3c2.5-0.1,4.7-2.7,4.4-5.6
		C364.2,1062.9,362.2,1060.7,359.7,1060.6z"/>
	<path class="st9" d="M356.7,1049.9h-20.9c-2.5,0-4.7,2.5-4.7,5.5s2,5.2,4.7,5.2h20.9c2.5,0,4.7-2.5,4.7-5.5
		C361.2,1052.4,359.2,1049.9,356.7,1049.9z"/>
	<path class="st10" d="M353.4,1039.3h-14.6c-2.5,0.1-4.7,2.7-4.4,5.6c0.1,2.7,2,4.8,4.4,4.9h14.6c2.5-0.1,4.7-2.7,4.4-5.6
		C357.8,1041.6,355.9,1039.4,353.4,1039.3z"/>
	<path class="st11" d="M350.2,1028.6H342c-2.5,0-4.7,2.5-4.7,5.5s2,5.2,4.7,5.2h8.2c2.5,0,4.7-2.5,4.7-5.5
		C354.9,1031.1,352.9,1028.6,350.2,1028.6z"/>
	<path class="st12" d="M348,1018.1h-3.9c-2.5,0.1-4.7,2.7-4.4,5.6c0.1,2.7,2,4.8,4.4,4.9h3.9c2.5-0.1,4.7-2.7,4.4-5.6
		C352.4,1020.5,350.6,1018.2,348,1018.1z"/>
	<rect x="204.8" y="1096.2" class="st13" width="0.5" height="15.1"/>
	<path class="st14" d="M208.9,1093.1L208.9,1093.1c-0.4-0.3-0.9-0.5-1.3-0.6c0.4-0.1,0.9-0.4,1.1-0.6c0.8-0.4,1-1.5,0.6-2.2
		c-0.4-0.8-1.3-1.1-1.9-0.8l-0.1,0.1c-0.4,0.3-0.6,0.5-0.9,0.8c0.1-0.4,0.1-0.9,0.1-1.1c0-0.9-0.5-1.6-1.3-1.8
		c-0.8-0.1-1.5,0.6-1.6,1.5v0.1c0,0.4,0,0.9,0.1,1.1c-0.3-0.3-0.5-0.5-0.9-0.8c-0.6-0.5-1.5-0.3-2,0.4c-0.5,0.8-0.4,1.8,0.4,2.3
		l0.1,0.1c0.4,0.3,0.9,0.5,1.3,0.6c-0.4,0.1-0.9,0.4-1.3,0.6l0,0c-0.6,0.5-1,1.5-0.5,2.3l0.1,0.1c0.4,0.8,1.3,0.9,2,0.4
		c0.4-0.3,0.5-0.5,0.9-0.8c-0.1,0.4-0.1,0.9-0.1,1.1l0,0c0,0.8,0.4,1.3,1,1.6c0.8,0.3,1.6-0.3,1.8-1.1c0-0.1,0.1-0.4,0.1-0.5l0,0
		c0-0.4,0-0.9-0.1-1.1c0.3,0.3,0.5,0.5,0.9,0.8l0,0c0.8,0.5,1.6,0.1,1.9-0.6C209.7,1094.5,209.6,1093.4,208.9,1093.1L208.9,1093.1z"
		/>
	<path class="st17" d="M208.9,1093.1L208.9,1093.1c-0.4-0.3-0.9-0.5-1.3-0.6c0.4-0.1,0.9-0.4,1.1-0.6c0.8-0.4,1-1.5,0.6-2.2
		c-0.4-0.8-1.3-1.1-1.9-0.8l-0.1,0.1c-0.4,0.3-0.6,0.5-0.9,0.8c0.1-0.4,0.1-0.9,0.1-1.1c0-0.9-0.5-1.6-1.3-1.8
		c-0.8-0.1-1.5,0.6-1.6,1.5v0.1c0,0.4,0,0.9,0.1,1.1c-0.3-0.3-0.5-0.5-0.9-0.8c-0.6-0.5-1.5-0.3-2,0.4c-0.5,0.8-0.4,1.8,0.4,2.3
		l0.1,0.1c0.4,0.3,0.9,0.5,1.3,0.6c-0.4,0.1-0.9,0.4-1.3,0.6l0,0c-0.6,0.5-1,1.5-0.5,2.3l0.1,0.1c0.4,0.8,1.3,0.9,2,0.4
		c0.4-0.3,0.5-0.5,0.9-0.8c-0.1,0.4-0.1,0.9-0.1,1.1l0,0c0,0.8,0.4,1.3,1,1.6c0.8,0.3,1.6-0.3,1.8-1.1c0-0.1,0.1-0.4,0.1-0.5l0,0
		c0-0.4,0-0.9-0.1-1.1c0.3,0.3,0.5,0.5,0.9,0.8l0,0c0.8,0.5,1.6,0.1,1.9-0.6C209.7,1094.5,209.6,1093.4,208.9,1093.1L208.9,1093.1z"
		/>
	<path class="st16" d="M206.7,1092.4c0,1-0.6,1.8-1.5,1.8s-1.5-0.8-1.5-1.8c0-1,0.6-1.8,1.5-1.8l0,0
		C206,1090.7,206.7,1091.4,206.7,1092.4z"/>
	<path class="st14" d="M206.9,1092.4c0,1.1-0.8,2-1.8,2c-1.1,0-1.8-0.9-1.8-2s0.8-2,1.8-2C206,1090.4,206.9,1091.2,206.9,1092.4z"/>
	<rect x="328.6" y="1099.1" class="st13" width="0.6" height="12.2"/>
	<path class="st14" d="M333.3,1095.2L333.3,1095.2c-0.4-0.4-1-0.6-1.5-0.8c0.5-0.1,1-0.4,1.4-0.8c0.8-0.5,1.1-1.8,0.8-2.5
		c-0.4-1-1.5-1.3-2.4-0.9c0,0-0.1,0-0.1,0.1c-0.4,0.3-0.8,0.6-1.1,0.9c0.1-0.5,0.1-0.9,0.1-1.3c0-1.1-0.6-1.9-1.6-2
		s-1.8,0.8-1.8,1.8v0.1c0,0.5,0,1,0.1,1.5c-0.4-0.4-0.6-0.6-1-0.9c-0.8-0.5-1.8-0.4-2.4,0.5c-0.5,0.9-0.4,2,0.4,2.8
		c0,0,0.1,0,0.1,0.1c0.4,0.4,1,0.6,1.5,0.8c-0.5,0.1-1.1,0.4-1.5,0.8l0,0c-0.9,0.6-1.1,1.8-0.5,2.7c0,0,0,0.1,0.1,0.1
		c0.5,0.9,1.6,1,2.4,0.5c0.4-0.3,0.6-0.5,1-0.9c-0.1,0.5-0.1,1-0.1,1.5l0,0c0,0.9,0.4,1.6,1.1,1.8c1,0.4,1.9-0.3,2.2-1.1
		c0.1-0.3,0.1-0.4,0.1-0.6l0,0c0-0.5,0-1-0.1-1.5c0.4,0.4,0.6,0.6,1.1,0.9l0,0c0.9,0.5,1.9,0.1,2.4-0.9
		C334.4,1097,334.1,1095.9,333.3,1095.2L333.3,1095.2z"/>
	<path class="st15" d="M333.3,1095.2L333.3,1095.2c-0.4-0.4-1-0.6-1.5-0.8c0.5-0.1,1-0.4,1.4-0.8c0.8-0.5,1.1-1.8,0.8-2.5
		c-0.4-1-1.5-1.3-2.4-0.9c0,0-0.1,0-0.1,0.1c-0.4,0.3-0.8,0.6-1.1,0.9c0.1-0.5,0.1-0.9,0.1-1.3c0-1.1-0.6-1.9-1.6-2
		s-1.8,0.8-1.8,1.8v0.1c0,0.5,0,1,0.1,1.5c-0.4-0.4-0.6-0.6-1-0.9c-0.8-0.5-1.8-0.4-2.4,0.5c-0.5,0.9-0.4,2,0.4,2.8
		c0,0,0.1,0,0.1,0.1c0.4,0.4,1,0.6,1.5,0.8c-0.5,0.1-1.1,0.4-1.5,0.8l0,0c-0.9,0.6-1.1,1.8-0.5,2.7c0,0,0,0.1,0.1,0.1
		c0.5,0.9,1.6,1,2.4,0.5c0.4-0.3,0.6-0.5,1-0.9c-0.1,0.5-0.1,1-0.1,1.5l0,0c0,0.9,0.4,1.6,1.1,1.8c1,0.4,1.9-0.3,2.2-1.1
		c0.1-0.3,0.1-0.4,0.1-0.6l0,0c0-0.5,0-1-0.1-1.5c0.4,0.4,0.6,0.6,1.1,0.9l0,0c0.9,0.5,1.9,0.1,2.4-0.9
		C334.4,1097,334.1,1095.9,333.3,1095.2L333.3,1095.2z"/>
	<path class="st16" d="M330.7,1094.6c0,1.1-0.8,1.9-1.8,1.9s-1.8-0.9-1.8-1.9s0.8-1.9,1.8-1.9
		C329.9,1092.6,330.7,1093.4,330.7,1094.6z"/>
	<path class="st15" d="M330.7,1094.6c0,1.1-0.8,1.9-1.8,1.9s-1.8-0.9-1.8-1.9s0.8-1.9,1.8-1.9
		C329.9,1092.6,330.7,1093.4,330.7,1094.6z"/>
	<rect x="45.2" y="1152.5" class="st13" width="0.8" height="24.6"/>
	<path class="st14" d="M50.1,1148.6L50.1,1148.6c-0.4-0.4-1-0.6-1.5-0.8c0.5-0.1,1-0.4,1.4-0.8c0.8-0.5,1.1-1.8,0.8-2.5
		c-0.4-1-1.5-1.3-2.4-0.9c0,0-0.1,0-0.1,0.1c-0.4,0.3-0.8,0.5-1.1,0.9c0.1-0.5,0.1-0.9,0.1-1.3c0-1.1-0.6-1.9-1.6-2
		s-1.8,0.8-1.8,1.8v0.1c0,0.5,0,1,0.1,1.5c-0.4-0.4-0.6-0.6-1-0.9c-0.8-0.5-1.8-0.4-2.4,0.5c-0.5,0.9-0.4,2,0.4,2.8
		c0,0,0.1,0,0.1,0.1c0.4-0.4,0.9-0.4,1.3,0c0.4,0.4,0.4,1,0,1.5c-0.4,0.4-0.9,0.4-1.1,0l0,0c-0.9,0.6-1.1,1.8-0.5,2.7
		c0,0,0,0.1,0.1,0.1c0.5,0.9,1.6,1,2.4,0.5c0.4-0.3,0.6-0.5,1-0.9c-0.1,0.5-0.1,1-0.1,1.5l0,0c0,0.9,0.4,1.6,1.1,1.8
		c1,0.4,1.9-0.3,2.2-1.1c0.1-0.3,0.1-0.4,0.1-0.6l0,0c0-0.5,0-1-0.1-1.5c0.4,0.4,0.6,0.6,1.1,0.9l0,0c0.9,0.5,1.9,0.1,2.4-0.9
		C51.1,1150.2,50.7,1149.1,50.1,1148.6L50.1,1148.6z"/>
	<path class="st15" d="M50.1,1148.6L50.1,1148.6c-0.4-0.4-1-0.6-1.5-0.8c0.5-0.1,1-0.4,1.4-0.8c0.8-0.5,1.1-1.8,0.8-2.5
		c-0.4-1-1.5-1.3-2.4-0.9c0,0-0.1,0-0.1,0.1c-0.4,0.3-0.8,0.5-1.1,0.9c0.1-0.5,0.1-0.9,0.1-1.3c0-1.1-0.6-1.9-1.6-2
		s-1.8,0.8-1.8,1.8v0.1c0,0.5,0,1,0.1,1.5c-0.4-0.4-0.6-0.6-1-0.9c-0.8-0.5-1.8-0.4-2.4,0.5c-0.5,0.9-0.4,2,0.4,2.8
		c0,0,0.1,0,0.1,0.1c0.4-0.4,0.9-0.4,1.3,0c0.4,0.4,0.4,1,0,1.5c-0.4,0.4-0.9,0.4-1.1,0l0,0c-0.9,0.6-1.1,1.8-0.5,2.7
		c0,0,0,0.1,0.1,0.1c0.5,0.9,1.6,1,2.4,0.5c0.4-0.3,0.6-0.5,1-0.9c-0.1,0.5-0.1,1-0.1,1.5l0,0c0,0.9,0.4,1.6,1.1,1.8
		c1,0.4,1.9-0.3,2.2-1.1c0.1-0.3,0.1-0.4,0.1-0.6l0,0c0-0.5,0-1-0.1-1.5c0.4,0.4,0.6,0.6,1.1,0.9l0,0c0.9,0.5,1.9,0.1,2.4-0.9
		C51.1,1150.2,50.7,1149.1,50.1,1148.6L50.1,1148.6z"/>
	<path class="st16" d="M47.4,1147.8c0,1.1-0.8,1.9-1.8,1.9s-1.8-0.9-1.8-1.9c0-1.1,0.8-1.9,1.8-1.9l0,0
		C46.6,1145.8,47.4,1146.7,47.4,1147.8z"/>
	<path class="st15" d="M47.4,1147.8c0,1.1-0.8,1.9-1.8,1.9s-1.8-0.9-1.8-1.9c0-1.1,0.8-1.9,1.8-1.9l0,0
		C46.6,1145.8,47.4,1146.7,47.4,1147.8z"/>
	<rect x="231.1" y="1096" class="st13" width="0.6" height="15.5"/>
	<path class="st18" d="M231.4,1097c-0.8,0-1.4-0.6-1.5-1.5c-0.3-1.5-0.1-3,0.4-4.4l0.6-1.9c0.1-0.4,0.4-0.5,0.6-0.4
		c0.1,0.1,0.3,0.3,0.4,0.4l0.6,1.9c0.4,1.5,0.5,2.9,0.4,4.4C232.8,1096.4,232.2,1097,231.4,1097L231.4,1097z"/>
	<polygon class="st13" points="231.5,1101.4 231.3,1101.1 234.6,1097.2 234.9,1097.6 	"/>
	<path class="st18" d="M234.3,1098c-0.4-0.4-0.4-1.1-0.1-1.6c0.5-0.9,1.3-1.6,2.2-1.9l1.1-0.6c0.3-0.1,0.4,0,0.5,0.3
		c0,0.1,0,0.3,0,0.4l-0.5,1.3c-0.4,1-1,1.8-1.8,2.5C235.2,1098.4,234.7,1098.4,234.3,1098L234.3,1098z"/>
	<polygon class="st13" points="231.5,1108.2 231.3,1107.8 234.6,1103.8 234.9,1104.2 	"/>
	<path class="st18" d="M234.3,1104.6c-0.4-0.4-0.4-1.1-0.1-1.6c0.5-0.9,1.3-1.6,2.2-1.9l1.1-0.6c0.3-0.1,0.4,0,0.5,0.3
		c0,0.1,0,0.3,0,0.4l-0.5,1.3c-0.4,1-1,1.8-1.8,2.5C235.2,1105,234.7,1105,234.3,1104.6L234.3,1104.6z"/>
	<polygon class="st13" points="231.3,1101.4 231.5,1101.1 228.1,1097.2 227.8,1097.6 	"/>
	<path class="st18" d="M228.5,1098c0.4-0.4,0.4-1.1,0.1-1.6c-0.5-0.9-1.3-1.6-2.2-1.9l-1.1-0.6c-0.3-0.1-0.4,0-0.5,0.3
		c0,0.1,0,0.3,0,0.4l0.5,1.3c0.4,1,1,1.8,1.8,2.5C227.5,1098.4,228.1,1098.4,228.5,1098L228.5,1098z"/>
	<polygon class="st13" points="231.3,1108.2 231.5,1107.8 228.1,1103.8 227.8,1104.2 	"/>
	<path class="st18" d="M228.5,1104.6c0.4-0.4,0.4-1.1,0.1-1.6c-0.5-0.9-1.3-1.6-2.2-1.9l-1.1-0.6c-0.3-0.1-0.4,0-0.5,0.3
		c0,0.1,0,0.3,0,0.4l0.5,1.3c0.4,1,1,1.8,1.8,2.5C227.5,1105,228.1,1105,228.5,1104.6L228.5,1104.6z"/>
	<rect x="391.5" y="1093.4" class="st13" width="0.6" height="17.9"/>
	<path class="st14" d="M396.2,1089.5L396.2,1089.5c-0.4-0.4-1-0.6-1.5-0.8c0.5-0.1,1-0.4,1.4-0.8c0.8-0.5,1.1-1.6,0.8-2.5
		c-0.4-1-1.5-1.3-2.4-0.9c0,0-0.1,0-0.1,0.1c-0.4,0.3-0.8,0.6-1.1,0.9c0.1-0.5,0.1-0.9,0.1-1.3c0-1.1-0.6-1.9-1.6-2
		s-1.8,0.8-1.8,1.8v0.1c0,0.5,0,1,0.1,1.5c-0.4-0.4-0.6-0.6-1-0.9c-0.8-0.5-1.8-0.4-2.4,0.5s-0.4,2,0.4,2.7l0.1,0.1
		c0.4,0.4,1,0.6,1.5,0.8c-0.5,0.1-1.1,0.4-1.5,0.8l0,0c-0.9,0.6-1.1,1.8-0.6,2.7l0.1,0.1c0.5,0.9,1.6,1,2.4,0.5
		c0.4-0.3,0.6-0.5,1-0.9c-0.1,0.5-0.1,1-0.1,1.5l0,0c0,1.1,0.8,1.9,1.8,1.9s1.8-0.9,1.8-1.9l0,0l0,0c0-0.5,0-1-0.1-1.5
		c0.4,0.4,0.6,0.6,1.1,0.9l0,0c0.9,0.6,1.9,0.3,2.4-0.6C397.4,1091.3,397.1,1090.1,396.2,1089.5L396.2,1089.5z"/>
	<path class="st15" d="M396.2,1089.5L396.2,1089.5c-0.4-0.4-1-0.6-1.5-0.8c0.5-0.1,1-0.4,1.4-0.8c0.8-0.5,1.1-1.6,0.8-2.5
		c-0.4-1-1.5-1.3-2.4-0.9c0,0-0.1,0-0.1,0.1c-0.4,0.3-0.8,0.6-1.1,0.9c0.1-0.5,0.1-0.9,0.1-1.3c0-1.1-0.6-1.9-1.6-2
		s-1.8,0.8-1.8,1.8v0.1c0,0.5,0,1,0.1,1.5c-0.4-0.4-0.6-0.6-1-0.9c-0.8-0.5-1.8-0.4-2.4,0.5s-0.4,2,0.4,2.7l0.1,0.1
		c0.4,0.4,1,0.6,1.5,0.8c-0.5,0.1-1.1,0.4-1.5,0.8l0,0c-0.9,0.6-1.1,1.8-0.6,2.7l0.1,0.1c0.5,0.9,1.6,1,2.4,0.5
		c0.4-0.3,0.6-0.5,1-0.9c-0.1,0.5-0.1,1-0.1,1.5l0,0c0,1.1,0.8,1.9,1.8,1.9s1.8-0.9,1.8-1.9l0,0l0,0c0-0.5,0-1-0.1-1.5
		c0.4,0.4,0.6,0.6,1.1,0.9l0,0c0.9,0.6,1.9,0.3,2.4-0.6C397.4,1091.3,397.1,1090.1,396.2,1089.5L396.2,1089.5z"/>
	<path class="st16" d="M393.6,1088.8c0,1.1-0.8,1.9-1.8,1.9s-1.8-0.9-1.8-1.9c0-1.1,0.8-1.9,1.8-1.9l0,0
		C392.8,1086.7,393.6,1087.6,393.6,1088.8z"/>
	<path class="st15" d="M393.6,1088.8c0,1.1-0.8,1.9-1.8,1.9s-1.8-0.9-1.8-1.9c0-1.1,0.8-1.9,1.8-1.9l0,0
		C392.8,1086.7,393.6,1087.6,393.6,1088.8z"/>
	<rect x="459.8" y="1096.2" class="st13" width="0.5" height="15.1"/>
	<path class="st14" d="M463.7,1093.1L463.7,1093.1c-0.4-0.3-0.9-0.5-1.3-0.6c0.4-0.1,0.9-0.4,1.1-0.6c0.8-0.4,1-1.5,0.6-2.2
		c-0.4-0.8-1.3-1.1-1.9-0.8l-0.1,0.1c-0.4,0.3-0.6,0.5-0.9,0.8c0.1-0.4,0.1-0.9,0.1-1.1c0-0.9-0.5-1.6-1.3-1.8
		c-0.8-0.1-1.5,0.6-1.6,1.5v0.1c0,0.4,0,0.9,0.1,1.1c-0.3-0.3-0.5-0.5-0.9-0.8c-0.6-0.5-1.5-0.3-1.9,0.4c-0.5,0.8-0.4,1.8,0.4,2.3
		l0.1,0.1c0.4,0.3,0.9,0.5,1.3,0.6c-0.4,0.1-0.9,0.4-1.3,0.6l0,0c-0.6,0.5-1,1.5-0.5,2.3l0.1,0.1c0.4,0.8,1.3,0.9,1.9,0.4
		c0.4-0.3,0.5-0.5,0.9-0.8c-0.1,0.4-0.1,0.9-0.1,1.1l0,0c0,0.8,0.4,1.3,1,1.6c0.8,0.3,1.6-0.3,1.8-1.1c0-0.1,0.1-0.4,0.1-0.5l0,0
		c0-0.4,0-0.9-0.1-1.1c0.3,0.3,0.5,0.5,0.9,0.8l0,0c0.8,0.5,1.6,0.1,1.9-0.6C464.6,1094.5,464.3,1093.4,463.7,1093.1L463.7,1093.1z"
		/>
	<path class="st17" d="M463.7,1093.1L463.7,1093.1c-0.4-0.3-0.9-0.5-1.3-0.6c0.4-0.1,0.9-0.4,1.1-0.6c0.8-0.4,1-1.5,0.6-2.2
		c-0.4-0.8-1.3-1.1-1.9-0.8l-0.1,0.1c-0.4,0.3-0.6,0.5-0.9,0.8c0.1-0.4,0.1-0.9,0.1-1.1c0-0.9-0.5-1.6-1.3-1.8
		c-0.8-0.1-1.5,0.6-1.6,1.5v0.1c0,0.4,0,0.9,0.1,1.1c-0.3-0.3-0.5-0.5-0.9-0.8c-0.6-0.5-1.5-0.3-1.9,0.4c-0.5,0.8-0.4,1.8,0.4,2.3
		l0.1,0.1c0.4,0.3,0.9,0.5,1.3,0.6c-0.4,0.1-0.9,0.4-1.3,0.6l0,0c-0.6,0.5-1,1.5-0.5,2.3l0.1,0.1c0.4,0.8,1.3,0.9,1.9,0.4
		c0.4-0.3,0.5-0.5,0.9-0.8c-0.1,0.4-0.1,0.9-0.1,1.1l0,0c0,0.8,0.4,1.3,1,1.6c0.8,0.3,1.6-0.3,1.8-1.1c0-0.1,0.1-0.4,0.1-0.5l0,0
		c0-0.4,0-0.9-0.1-1.1c0.3,0.3,0.5,0.5,0.9,0.8l0,0c0.8,0.5,1.6,0.1,1.9-0.6C464.6,1094.5,464.3,1093.4,463.7,1093.1L463.7,1093.1z"
		/>
	<path class="st16" d="M461.5,1092.4c0,1-0.6,1.8-1.5,1.8s-1.5-0.8-1.5-1.8c0-1,0.6-1.8,1.5-1.8l0,0
		C460.9,1090.7,461.5,1091.4,461.5,1092.4z"/>
	<path class="st14" d="M461.9,1092.4c0,1.1-0.8,2-1.8,2c-1.1,0-1.8-0.9-1.8-2s0.8-2,1.8-2C461,1090.4,461.9,1091.2,461.9,1092.4z"/>
	<rect x="486" y="1096" class="st13" width="0.6" height="15.5"/>
	<path class="st18" d="M486.3,1097c-0.8,0-1.4-0.6-1.5-1.5c-0.3-1.5-0.1-3,0.4-4.4l0.6-1.9c0.1-0.4,0.4-0.5,0.6-0.4
		c0.1,0.1,0.3,0.3,0.4,0.4l0.6,1.9c0.4,1.5,0.5,2.9,0.4,4.4C487.7,1096.4,487,1097,486.3,1097L486.3,1097z"/>
	<polygon class="st13" points="486.5,1101.4 486.3,1101.1 489.6,1097.2 489.8,1097.6 	"/>
	<path class="st18" d="M489.2,1098c-0.4-0.4-0.4-1.1-0.1-1.6c0.5-0.9,1.3-1.6,2.2-1.9l1.1-0.6c0.3-0.1,0.4,0,0.5,0.3
		c0,0.1,0,0.3,0,0.4l-0.5,1.3c-0.4,1-1,1.8-1.8,2.5C490.2,1098.4,489.7,1098.4,489.2,1098L489.2,1098z"/>
	<polygon class="st13" points="486.5,1108.2 486.3,1107.8 489.6,1103.8 489.8,1104.2 	"/>
	<path class="st18" d="M489.2,1104.6c-0.4-0.4-0.4-1.1-0.1-1.6c0.5-0.9,1.3-1.6,2.2-1.9l1.1-0.6c0.3-0.1,0.4,0,0.5,0.3
		c0,0.1,0,0.3,0,0.4l-0.5,1.3c-0.4,1-1,1.8-1.8,2.5C490.2,1105,489.7,1105,489.2,1104.6L489.2,1104.6z"/>
	<polygon class="st13" points="486.3,1101.4 486.5,1101.1 483.1,1097.2 482.8,1097.6 	"/>
	<path class="st18" d="M483.3,1098c0.4-0.4,0.4-1.1,0.1-1.6c-0.5-0.9-1.3-1.6-2.2-1.9l-1.1-0.6c-0.3-0.1-0.4,0-0.5,0.3
		c0,0.1,0,0.3,0,0.4l0.5,1.3c0.4,1,1,1.8,1.8,2.5C482.5,1098.4,483,1098.4,483.3,1098L483.3,1098z"/>
	<polygon class="st13" points="486.3,1108.2 486.5,1107.8 483.1,1103.8 482.8,1104.2 	"/>
	<path class="st18" d="M483.3,1104.6c0.4-0.4,0.4-1.1,0.1-1.6c-0.5-0.9-1.3-1.6-2.2-1.9l-1.1-0.6c-0.3-0.1-0.4,0-0.5,0.3
		c0,0.1,0,0.3,0,0.4l0.5,1.3c0.4,1,1,1.8,1.8,2.5C482.5,1105,483,1105,483.3,1104.6L483.3,1104.6z"/>
</g>
<g>
	<g class="st3">
		<rect x="299.9" y="2614" class="st4" width="9.8" height="24.3"/>
		<path class="st5" d="M330.3,2600.3h-51.1c-3.3,0-6.1,3-6.1,6.8s2.7,6.8,6.1,6.8h51.1c3.3,0,6.1-3,6.1-6.8
			C336.3,2603.3,333.6,2600.3,330.3,2600.3L330.3,2600.3z"/>
		<path class="st6" d="M333.1,2614.1h-56.6c-3.3,0-6.1,3-6.1,6.8s2.7,6.8,6.1,6.8h56.6c3.3,0,6.1-3,6.1-6.8
			C339,2617.1,336.3,2614.1,333.1,2614.1L333.1,2614.1z"/>
		<path class="st7" d="M326.2,2586.7h-43c-3.3,0.1-6,3.3-5.7,7c0.1,3.6,2.5,6.3,5.7,6.5h43c3.3-0.1,6-3.3,5.7-7
			C331.9,2589.6,329.4,2586.8,326.2,2586.7z"/>
		<path class="st8" d="M322.2,2573.2h-34.9c-3.3,0-6.1,3-6.1,6.8s2.7,6.8,6.1,6.8h34.9c3.3,0,6.1-3,6.1-6.8
			C328.3,2576.3,325.5,2573.2,322.2,2573.2L322.2,2573.2z"/>
		<path class="st9" d="M318.1,2559.7h-26.6c-3.3,0.1-6,3.3-5.7,7c0.1,3.6,2.5,6.3,5.7,6.5h26.6c3.3-0.1,6-3.3,5.7-7
			C323.7,2562.6,321.2,2559.8,318.1,2559.7z"/>
		<path class="st10" d="M314.1,2546.1h-18.5c-3.3,0-6.1,3-6.1,6.8s2.7,6.8,6.1,6.8h18.5c3.3,0,6.1-3,6.1-6.8
			C320,2549.2,317.4,2546.1,314.1,2546.1L314.1,2546.1L314.1,2546.1z"/>
		<path class="st11" d="M310,2532.5h-10.5c-3.3,0-6.1,3-6.1,6.8s2.7,6.8,6.1,6.8H310c3.3,0,6.1-3,6.1-6.8
			C316,2535.6,313.3,2532.5,310,2532.5z"/>
		<path class="st12" d="M307.2,2519h-4.9c-3.3,0.1-6,3.3-5.7,7c0.1,3.6,2.5,6.3,5.7,6.5h4.9c3.3-0.1,6-3.3,5.7-7
			C312.9,2521.9,310.4,2519.1,307.2,2519z"/>
	</g>
	<g class="st3">
		<rect x="189.2" y="2607.7" class="st4" width="12.3" height="30.3"/>
		<path class="st5" d="M227.2,2590.9h-63.8c-4.1,0.1-7.4,4.1-7.2,8.7c0.1,4.4,3.3,7.9,7.2,8.2h63.8c4.1-0.1,7.4-4.1,7.2-8.7
			C234.3,2594.6,231.1,2591,227.2,2590.9L227.2,2590.9z"/>
		<path class="st6" d="M230.6,2608H160c-4.1,0.1-7.4,4.1-7.2,8.7c0.1,4.4,3.3,7.9,7.2,8.2h70.6c4.1-0.1,7.4-4.1,7.2-8.7
			C237.7,2611.7,234.6,2608.2,230.6,2608z"/>
		<path class="st7" d="M222.1,2574h-53.8c-4.1,0.6-7.1,4.7-6.6,9.5c0.4,3.9,3.2,7,6.6,7.5H222c4.1-0.6,7.1-4.7,6.6-9.5
			C228.3,2577.4,225.7,2574.4,222.1,2574L222.1,2574z"/>
		<path class="st8" d="M217.1,2557h-43.5c-4.1,0.1-7.4,4.1-7.2,8.7c0.1,4.4,3.3,7.9,7.2,8.2h43.5c4.1-0.1,7.4-4.1,7.2-8.7
			C224.2,2560.8,221,2557.1,217.1,2557z"/>
		<path class="st9" d="M212,2540h-33.3c-4.1,0.1-7.4,4.1-7.2,8.7c0.1,4.4,3.3,7.9,7.2,8.2H212c4.1-0.1,7.4-4.1,7.2-8.7
			C219.1,2543.8,215.9,2540.4,212,2540z"/>
		<path class="st10" d="M206.9,2523.2h-23.2c-4.1,0.1-7.4,4.1-7.2,8.7c0.1,4.4,3.3,7.9,7.2,8.2h23.2c4.1-0.1,7.4-4.1,7.2-8.7
			C214,2527,210.8,2523.4,206.9,2523.2z"/>
		<path class="st11" d="M201.8,2506.3h-13.1c-4.1,0.6-7.1,4.7-6.6,9.5c0.4,3.9,3.2,7,6.6,7.5h13.1c4.1-0.6,7.1-4.7,6.6-9.5
			C208.1,2509.8,205.3,2506.7,201.8,2506.3z"/>
		<path class="st12" d="M198.4,2489.3h-6.2c-4.1,0.1-7.4,4.1-7.2,8.7c0.1,4.4,3.3,7.9,7.2,8.2h6.2c4.1-0.1,7.4-4.1,7.2-8.7
			C205.5,2493.1,202.4,2489.6,198.4,2489.3L198.4,2489.3z"/>
	</g>
	<g class="st3">
		<rect x="405.2" y="2623.5" class="st4" width="6" height="14.7"/>
		<path class="st5" d="M423.6,2615.2h-30.9c-2,0.1-3.6,2-3.4,4.2c0.1,2,1.6,3.8,3.4,3.9h30.9c2-0.1,3.6-2,3.4-4.2
			C427,2617.1,425.5,2615.3,423.6,2615.2z"/>
		<path class="st6" d="M425.3,2623.6H391c-2,0.1-3.6,2-3.4,4.2c0.1,2,1.6,3.8,3.4,3.9h34.2c2-0.1,3.6-2,3.4-4.2
			C428.7,2625.4,427.2,2623.7,425.3,2623.6z"/>
		<path class="st7" d="M421.2,2607h-26c-2,0-3.7,1.8-3.7,4.1s1.6,4.1,3.7,4.1h26c2,0,3.7-1.8,3.7-4.1
			C424.9,2608.9,423.2,2607,421.2,2607L421.2,2607z"/>
		<path class="st8" d="M418.7,2598.9h-21c-2,0.1-3.6,2-3.4,4.2c0.1,2,1.6,3.8,3.4,3.9h21c2-0.1,3.6-2,3.4-4.2
			C422.1,2600.6,420.6,2598.9,418.7,2598.9z"/>
		<path class="st9" d="M416.3,2590.6H400c-2,0.1-3.6,2-3.4,4.2c0.1,2,1.6,3.8,3.4,3.9h16.2c2-0.1,3.6-2,3.4-4.2
			C419.6,2592.4,418,2590.7,416.3,2590.6z"/>
		<path class="st10" d="M413.7,2582.5h-11.3c-2,0-3.7,1.8-3.7,4.1s1.6,4.1,3.7,4.1h11.3c2,0,3.7-1.8,3.7-4.1
			C417.4,2584.4,415.8,2582.5,413.7,2582.5z"/>
		<path class="st11" d="M411.3,2574.1h-6.2c-2-0.1-3.7,1.6-3.8,3.9c-0.1,2.3,1.4,4.1,3.4,4.2c0.1,0,0.3,0,0.4,0h6.2
			c2-0.1,3.6-2,3.4-4.2C414.7,2576,413.2,2574.3,411.3,2574.1z"/>
		<path class="st12" d="M409.7,2566h-3c-2,0.1-3.6,2-3.4,4.2c0.1,2,1.6,3.8,3.4,3.9h3c2-0.1,3.6-2,3.4-4.2
			C413,2567.8,411.6,2566.1,409.7,2566z"/>
	</g>
	<rect x="180.7" y="2645.1" class="st13" width="0.6" height="17.9"/>
	<path class="st14" d="M185.4,2641.1L185.4,2641.1c-0.4-0.4-1-0.6-1.5-0.8c0.5-0.1,1-0.4,1.4-0.8c0.8-0.5,1.1-1.6,0.8-2.5
		c-0.4-1-1.5-1.3-2.4-0.9c0,0-0.1,0-0.1,0.1c-0.4,0.3-0.8,0.6-1.1,0.9c0.1-0.5,0.1-0.9,0.1-1.3c0-1.1-0.6-1.9-1.6-2
		s-1.8,0.8-1.8,1.8v0.1c0,0.5,0,1,0.1,1.5c-0.4-0.4-0.6-0.6-1-0.9c-0.8-0.5-1.8-0.4-2.4,0.5c-0.5,0.9-0.4,2,0.4,2.7l0.1,0.1
		c0.4,0.4,1,0.6,1.5,0.8c-0.5,0.1-1.1,0.4-1.5,0.8l0,0c-0.9,0.6-1.1,1.8-0.6,2.7l0.1,0.1c0.5,0.9,1.6,1,2.4,0.5
		c0.4-0.3,0.6-0.5,1-0.9c-0.1,0.5-0.1,1-0.1,1.5l0,0c0,1.1,0.8,1.9,1.8,1.9s1.8-0.9,1.8-1.9l0,0l0,0c0-0.5,0-1-0.1-1.5
		c0.4,0.4,0.6,0.6,1.1,0.9l0,0c0.9,0.6,1.9,0.3,2.4-0.6C186.2,2643.1,186.2,2641.8,185.4,2641.1L185.4,2641.1z"/>
	<path class="st15" d="M185.4,2641.1L185.4,2641.1c-0.4-0.4-1-0.6-1.5-0.8c0.5-0.1,1-0.4,1.4-0.8c0.8-0.5,1.1-1.6,0.8-2.5
		c-0.4-1-1.5-1.3-2.4-0.9c0,0-0.1,0-0.1,0.1c-0.4,0.3-0.8,0.6-1.1,0.9c0.1-0.5,0.1-0.9,0.1-1.3c0-1.1-0.6-1.9-1.6-2
		s-1.8,0.8-1.8,1.8v0.1c0,0.5,0,1,0.1,1.5c-0.4-0.4-0.6-0.6-1-0.9c-0.8-0.5-1.8-0.4-2.4,0.5c-0.5,0.9-0.4,2,0.4,2.7l0.1,0.1
		c0.4,0.4,1,0.6,1.5,0.8c-0.5,0.1-1.1,0.4-1.5,0.8l0,0c-0.9,0.6-1.1,1.8-0.6,2.7l0.1,0.1c0.5,0.9,1.6,1,2.4,0.5
		c0.4-0.3,0.6-0.5,1-0.9c-0.1,0.5-0.1,1-0.1,1.5l0,0c0,1.1,0.8,1.9,1.8,1.9s1.8-0.9,1.8-1.9l0,0l0,0c0-0.5,0-1-0.1-1.5
		c0.4,0.4,0.6,0.6,1.1,0.9l0,0c0.9,0.6,1.9,0.3,2.4-0.6C186.2,2643.1,186.2,2641.8,185.4,2641.1L185.4,2641.1z"/>
	<path class="st16" d="M182.7,2640.5c0,1.1-0.8,1.9-1.8,1.9s-1.8-0.9-1.8-1.9c0-1.1,0.8-1.9,1.8-1.9l0,0
		C181.9,2638.4,182.7,2639.3,182.7,2640.5z"/>
	<path class="st15" d="M182.7,2640.5c0,1.1-0.8,1.9-1.8,1.9s-1.8-0.9-1.8-1.9c0-1.1,0.8-1.9,1.8-1.9l0,0
		C181.9,2638.4,182.7,2639.3,182.7,2640.5z"/>
	<rect x="286" y="2620.2" class="st13" width="0.6" height="17.9"/>
	<path class="st14" d="M290.7,2616.2L290.7,2616.2c-0.4-0.4-1-0.6-1.5-0.8c0.5-0.1,1-0.4,1.4-0.8c0.8-0.5,1.1-1.6,0.8-2.5
		c-0.4-1-1.4-1.3-2.3-0.9c0,0-0.1,0-0.1,0.1c-0.4,0.3-0.8,0.5-1.1,0.9c0.1-0.5,0.1-0.9,0.1-1.3c0-1.1-0.6-1.9-1.6-2
		s-1.8,0.8-1.8,1.8v0.1c0,0.5,0,1,0.1,1.5c-0.4-0.4-0.6-0.6-1-0.9c-0.8-0.5-1.8-0.4-2.4,0.5s-0.4,2,0.4,2.7l0.1,0.1
		c0.4,0.4,1,0.6,1.5,0.8c-0.5,0.1-1.1,0.4-1.5,0.8l0,0c-0.9,0.6-1.1,1.8-0.6,2.7l0.1,0.1c0.5,0.9,1.6,1,2.4,0.5
		c0.4-0.3,0.6-0.5,1-0.9c-0.1,0.5-0.1,1-0.1,1.5l0,0c0,1.1,0.8,1.9,1.8,1.9s1.8-0.9,1.8-1.9l0,0l0,0c0-0.5,0-1-0.1-1.5
		c0.4,0.4,0.6,0.6,1.1,0.9l0,0c0.9,0.6,1.9,0.3,2.4-0.8C291.9,2618,291.6,2616.9,290.7,2616.2L290.7,2616.2L290.7,2616.2z"/>
	<path class="st15" d="M290.7,2616.2L290.7,2616.2c-0.4-0.4-1-0.6-1.5-0.8c0.5-0.1,1-0.4,1.4-0.8c0.8-0.5,1.1-1.6,0.8-2.5
		c-0.4-1-1.4-1.3-2.3-0.9c0,0-0.1,0-0.1,0.1c-0.4,0.3-0.8,0.5-1.1,0.9c0.1-0.5,0.1-0.9,0.1-1.3c0-1.1-0.6-1.9-1.6-2
		s-1.8,0.8-1.8,1.8v0.1c0,0.5,0,1,0.1,1.5c-0.4-0.4-0.6-0.6-1-0.9c-0.8-0.5-1.8-0.4-2.4,0.5s-0.4,2,0.4,2.7l0.1,0.1
		c0.4,0.4,1,0.6,1.5,0.8c-0.5,0.1-1.1,0.4-1.5,0.8l0,0c-0.9,0.6-1.1,1.8-0.6,2.7l0.1,0.1c0.5,0.9,1.6,1,2.4,0.5
		c0.4-0.3,0.6-0.5,1-0.9c-0.1,0.5-0.1,1-0.1,1.5l0,0c0,1.1,0.8,1.9,1.8,1.9s1.8-0.9,1.8-1.9l0,0l0,0c0-0.5,0-1-0.1-1.5
		c0.4,0.4,0.6,0.6,1.1,0.9l0,0c0.9,0.6,1.9,0.3,2.4-0.8C291.9,2618,291.6,2616.9,290.7,2616.2L290.7,2616.2L290.7,2616.2z"/>
	<path class="st16" d="M288.1,2615.5c0,1.1-0.8,1.9-1.8,1.9s-1.8-0.9-1.8-1.9c0-1.1,0.8-1.9,1.8-1.9l0,0
		C287.3,2613.4,288.1,2614.3,288.1,2615.5z"/>
	<path class="st15" d="M288.1,2615.5c0,1.1-0.8,1.9-1.8,1.9s-1.8-0.9-1.8-1.9c0-1.1,0.8-1.9,1.8-1.9l0,0
		C287.3,2613.4,288.1,2614.3,288.1,2615.5z"/>
	<rect x="71.2" y="2673.3" class="st4" width="6.1" height="15"/>
	<path class="st5" d="M89.9,2665.1H58.7c-2,0.1-3.6,2-3.4,4.4c0.1,2,1.6,3.8,3.4,3.9h31.2c2-0.1,3.6-2,3.4-4.4
		C93.3,2666.8,91.8,2665.2,89.9,2665.1z"/>
	<path class="st6" d="M91.5,2673.4H56.9c-2-0.1-3.8,1.6-3.9,3.9s1.4,4.2,3.4,4.4c0.1,0,0.3,0,0.4,0h34.6c2-0.1,3.6-2,3.4-4.4
		C95,2675.3,93.6,2673.5,91.5,2673.4z"/>
	<path class="st7" d="M87.5,2656.7H61.2c-2,0-3.7,1.8-3.7,4.1s1.6,4.1,3.7,4.1h26.2c2,0,3.7-1.8,3.7-4.1
		C91.1,2658.6,89.4,2656.7,87.5,2656.7z"/>
	<path class="st8" d="M84.9,2648.4H63.6c-2,0.1-3.6,2-3.4,4.4c0.1,2,1.6,3.8,3.4,3.9h21.3c2-0.1,3.6-2,3.4-4.4
		C88.4,2650.3,86.8,2648.6,84.9,2648.4z"/>
	<path class="st9" d="M82.5,2640.2H66.2c-2,0-3.7,1.8-3.7,4.1s1.6,4.1,3.7,4.1h16.4c2,0,3.7-1.8,3.7-4.1
		C86.2,2642.1,84.4,2640.2,82.5,2640.2z"/>
	<path class="st10" d="M80,2632H68.7c-2,0.1-3.6,2-3.4,4.4c0.1,2,1.6,3.8,3.4,3.9H80c2-0.1,3.6-2,3.4-4.4
		C83.4,2633.7,81.9,2632.2,80,2632z"/>
	<path class="st11" d="M77.6,2623.7h-6.3c-2,0-3.7,1.8-3.7,4.1s1.6,4.1,3.7,4.1h6.3c2,0,3.7-1.8,3.7-4.1
		C81.1,2625.6,79.5,2623.7,77.6,2623.7L77.6,2623.7z"/>
	<path class="st12" d="M75.8,2615.5h-3c-2-0.1-3.8,1.6-3.9,3.9s1.4,4.2,3.4,4.4c0.1,0,0.3,0,0.4,0h3c2-0.1,3.6-2,3.4-4.4
		C79.1,2617.1,77.7,2615.6,75.8,2615.5z"/>
	<rect x="63" y="2679" class="st13" width="0.6" height="15.1"/>
	<path class="st14" d="M67.1,2675.5L67.1,2675.5c-0.4-0.3-0.9-0.5-1.3-0.6c0.4-0.1,0.9-0.4,1.1-0.6c0.6-0.5,1-1.3,0.6-2.2
		s-1.1-1.1-1.9-0.8c0,0-0.1,0-0.1,0.1c-0.4,0.3-0.6,0.5-0.9,0.8c0.1-0.4,0.1-0.9,0.1-1.1c0-0.9-0.5-1.6-1.3-1.8
		c-0.8-0.1-1.5,0.6-1.6,1.5v0.1c0,0.4,0,0.9,0.1,1.1c-0.3-0.3-0.5-0.5-0.8-0.8c-0.6-0.5-1.5-0.3-2,0.4c-0.5,0.8-0.4,1.8,0.4,2.3
		l0.1,0.1c0.4,0.3,0.9,0.5,1.3,0.6c-0.4,0.1-0.9,0.4-1.3,0.6l0,0c-0.6,0.5-1,1.5-0.5,2.3l0.1,0.1c0.4,0.8,1.3,0.9,2,0.4
		c0.4-0.3,0.5-0.5,0.8-0.8c-0.1,0.4-0.1,0.9-0.1,1.1l0,0c-0.1,0.9,0.5,1.8,1.3,1.8c0.8,0.1,1.5-0.6,1.6-1.5c0-0.1,0-0.3,0-0.3l0,0
		c0-0.4,0-0.9-0.1-1.1c0.3,0.3,0.5,0.5,0.9,0.8l0,0c0.8,0.5,1.6,0.1,1.9-0.6C67.9,2677.1,67.7,2676.1,67.1,2675.5L67.1,2675.5z"/>
	<path class="st17" d="M67.1,2675.5L67.1,2675.5c-0.4-0.3-0.9-0.5-1.3-0.6c0.4-0.1,0.9-0.4,1.1-0.6c0.6-0.5,1-1.3,0.6-2.2
		s-1.1-1.1-1.9-0.8c0,0-0.1,0-0.1,0.1c-0.4,0.3-0.6,0.5-0.9,0.8c0.1-0.4,0.1-0.9,0.1-1.1c0-0.9-0.5-1.6-1.3-1.8
		c-0.8-0.1-1.5,0.6-1.6,1.5v0.1c0,0.4,0,0.9,0.1,1.1c-0.3-0.3-0.5-0.5-0.8-0.8c-0.6-0.5-1.5-0.3-2,0.4c-0.5,0.8-0.4,1.8,0.4,2.3
		l0.1,0.1c0.4,0.3,0.9,0.5,1.3,0.6c-0.4,0.1-0.9,0.4-1.3,0.6l0,0c-0.6,0.5-1,1.5-0.5,2.3l0.1,0.1c0.4,0.8,1.3,0.9,2,0.4
		c0.4-0.3,0.5-0.5,0.8-0.8c-0.1,0.4-0.1,0.9-0.1,1.1l0,0c-0.1,0.9,0.5,1.8,1.3,1.8c0.8,0.1,1.5-0.6,1.6-1.5c0-0.1,0-0.3,0-0.3l0,0
		c0-0.4,0-0.9-0.1-1.1c0.3,0.3,0.5,0.5,0.9,0.8l0,0c0.8,0.5,1.6,0.1,1.9-0.6C67.9,2677.1,67.7,2676.1,67.1,2675.5L67.1,2675.5z"/>
	<path class="st16" d="M64.9,2674.9c0,1-0.6,1.8-1.5,1.8s-1.5-0.8-1.5-1.8s0.6-1.8,1.5-1.8l0,0C64.1,2673.3,64.9,2673.9,64.9,2674.9
		L64.9,2674.9z"/>
	<path class="st14" d="M65.2,2674.9c0,1.1-0.9,2-1.8,2c-0.9,0-1.8-1-1.8-2c0-1.1,0.9-2,1.8-2C64.3,2672.9,65.2,2673.8,65.2,2674.9
		L65.2,2674.9z"/>
	<rect x="138.8" y="2640.5" class="st4" width="9.1" height="22.6"/>
	<path class="st5" d="M167.1,2628h-47.4c-3,0.1-5.5,3-5.3,6.6c0.1,3.3,2.5,5.8,5.3,6h47.4c3-0.1,5.5-3,5.3-6.6
		C172.2,2630.8,170,2628,167.1,2628L167.1,2628z"/>
	<path class="st6" d="M169.6,2640.5h-52.5c-3,0-5.6,2.8-5.5,6.3c0,3.4,2.5,6.2,5.5,6.2h52.5c3,0,5.6-2.8,5.5-6.3
		C175.1,2643.4,172.7,2640.5,169.6,2640.5L169.6,2640.5z"/>
	<path class="st7" d="M163.4,2615.5h-39.8c-3,0.1-5.5,3-5.3,6.6c0.1,3.3,2.5,5.8,5.3,6h39.8c3-0.1,5.5-3,5.3-6.6
		C168.5,2618.1,166.2,2615.6,163.4,2615.5z"/>
	<path class="st8" d="M159.6,2602.9h-32.3c-3,0-5.6,2.8-5.5,6.3c0,3.4,2.5,6.2,5.5,6.2h32.3c3,0,5.6-2.8,5.5-6.3
		C165.2,2605.7,162.7,2602.9,159.6,2602.9z"/>
	<path class="st9" d="M155.8,2590.4h-24.7c-3,0.1-5.5,3-5.3,6.6c0.1,3.3,2.5,5.8,5.3,6h24.7c3-0.1,5.5-3,5.3-6.6
		C161,2593.2,158.7,2590.5,155.8,2590.4L155.8,2590.4z"/>
	<path class="st10" d="M152,2577.8h-17.2c-3,0.1-5.5,3-5.3,6.6c0.1,3.3,2.5,5.8,5.3,6H152c3-0.1,5.5-3,5.3-6.6
		C157.2,2580.5,154.9,2577.9,152,2577.8z"/>
	<path class="st11" d="M148.2,2565.1h-9.8c-3,0-5.6,2.8-5.5,6.3c0,3.4,2.5,6.2,5.5,6.2h9.8c3,0,5.6-2.8,5.5-6.3
		C153.8,2567.9,151.3,2565.1,148.2,2565.1z"/>
	<path class="st12" d="M145.8,2552.6h-4.7c-3,0.1-5.5,3-5.3,6.6c0.1,3.3,2.5,5.8,5.3,6h4.7c3-0.1,5.5-3,5.3-6.6
		C151,2555.4,148.6,2552.7,145.8,2552.6z"/>
	<rect x="457.7" y="2623.2" class="st4" width="6" height="15"/>
	<path class="st5" d="M476.4,2615h-31.2c-2,0-3.7,1.8-3.7,4.1s1.6,4.1,3.7,4.1h31.2c2,0,3.7-1.8,3.7-4.1
		C480,2617,478.3,2615,476.4,2615z"/>
	<path class="st6" d="M478,2623.5h-34.6c-2,0-3.7,1.8-3.7,4.1s1.6,4.1,3.7,4.1H478c2,0,3.7-1.8,3.7-4.1
		C481.7,2625.1,480,2623.5,478,2623.5z"/>
	<path class="st7" d="M473.8,2606.9h-26.2c-2-0.1-3.8,1.6-3.9,3.9s1.4,4.2,3.4,4.4c0.1,0,0.3,0,0.4,0h26.2c2,0.1,3.8-1.6,3.9-3.9
		s-1.4-4.2-3.4-4.4C474.1,2606.9,474,2606.9,473.8,2606.9z"/>
	<path class="st8" d="M471.4,2598.4h-21.3c-2,0-3.7,1.8-3.7,4.1s1.6,4.1,3.7,4.1h21.3c2,0,3.7-1.8,3.7-4.1
		C475.1,2600.4,473.3,2598.4,471.4,2598.4z"/>
	<path class="st9" d="M468.9,2590.2h-16.4c-2,0.1-3.6,2-3.4,4.4c0.1,2,1.6,3.8,3.4,3.9h16.4c2-0.1,3.6-2,3.4-4.4
		C472.3,2592,470.8,2590.2,468.9,2590.2z"/>
	<path class="st10" d="M466.5,2582h-11.3c-2,0-3.7,1.8-3.7,4.1s1.6,4.1,3.7,4.1h11.3c2,0,3.7-1.8,3.7-4.1
		C470.2,2583.8,468.4,2582,466.5,2582z"/>
	<path class="st11" d="M463.8,2573.8h-6.3c-2-0.1-3.8,1.6-3.9,3.9s1.4,4.2,3.4,4.4c0.1,0,0.3,0,0.4,0h6.3c2-0.1,3.6-2,3.4-4.4
		C467.2,2575.4,465.8,2573.9,463.8,2573.8z"/>
	<path class="st12" d="M462.2,2565.4h-3c-2,0-3.7,1.8-3.7,4.1s1.6,4.1,3.7,4.1h3c2,0,3.7-1.8,3.7-4.1
		C465.8,2567.3,464.3,2565.4,462.2,2565.4z"/>
	<rect x="534.1" y="2617" class="st4" width="9.1" height="22.6"/>
	<path class="st5" d="M562.3,2604.4h-47.4c-3,0.1-5.5,3-5.3,6.6c0.1,3.3,2.5,5.8,5.3,6h47.4c3-0.1,5.5-3,5.3-6.6
		C567.5,2607,565.3,2604.6,562.3,2604.4z"/>
	<path class="st6" d="M564.9,2617h-52.5c-3,0-5.6,2.8-5.5,6.3c0,3.4,2.5,6.2,5.5,6.2h52.5c3,0,5.6-2.8,5.5-6.3
		C570.5,2619.8,567.9,2617,564.9,2617z"/>
	<path class="st7" d="M558.5,2591.9h-39.8c-3,0.1-5.5,3-5.3,6.6c0.1,3.3,2.5,5.8,5.3,6h39.8c3-0.1,5.5-3,5.3-6.6
		C563.7,2594.6,561.5,2592,558.5,2591.9L558.5,2591.9z"/>
	<path class="st8" d="M554.7,2579.2h-32.3c-3,0-5.6,2.8-5.5,6.3c0,3.4,2.5,6.2,5.5,6.2h32.3c3,0,5.6-2.8,5.5-6.3
		C560.3,2582,557.8,2579.2,554.7,2579.2L554.7,2579.2z"/>
	<path class="st9" d="M551.1,2566.7h-24.7c-3,0.1-5.5,3-5.3,6.6c0.1,3.3,2.5,5.8,5.3,6h24.7c3-0.1,5.5-3,5.3-6.6
		C556.1,2569.4,554,2566.8,551.1,2566.7L551.1,2566.7z"/>
	<path class="st10" d="M547.3,2554.1h-17.1c-3,0.1-5.5,3-5.3,6.6c0.1,3.3,2.5,5.8,5.3,6h17.1c3-0.1,5.5-3,5.3-6.6
		C552.5,2556.9,550.2,2554.2,547.3,2554.1z"/>
	<path class="st11" d="M543.5,2541.5h-9.8c-3,0-5.6,2.8-5.5,6.3c0,3.4,2.5,6.2,5.5,6.2h9.8c3,0,5.6-2.8,5.5-6.3
		C549,2544.3,546.6,2541.5,543.5,2541.5z"/>
	<path class="st12" d="M540.9,2529h-4.7c-3,0.1-5.5,3-5.3,6.6c0.1,3.3,2.5,5.8,5.3,6h4.7c3-0.1,5.5-3,5.3-6.6
		C546.1,2531.7,543.8,2529.1,540.9,2529z"/>
	<rect x="342.2" y="2619.2" class="st4" width="7.6" height="19"/>
	<path class="st5" d="M366.2,2608.5h-40.1c-2.5,0.1-4.7,2.7-4.4,5.6c0.1,2.7,2,4.8,4.4,4.9h40.1c2.5-0.1,4.7-2.7,4.4-5.6
		C370.5,2610.8,368.6,2608.6,366.2,2608.5L366.2,2608.5z"/>
	<path class="st6" d="M368.3,2619.3H324c-2.5,0.1-4.7,2.7-4.4,5.6c0.1,2.7,2,4.8,4.4,4.9h44.3c2.5-0.1,4.7-2.7,4.4-5.6
		C372.6,2621.6,370.6,2619.3,368.3,2619.3L368.3,2619.3z"/>
	<path class="st7" d="M363,2598h-33.7c-2.5,0-4.7,2.5-4.7,5.5s2,5.2,4.7,5.2H363c2.5,0,4.7-2.5,4.7-5.5S365.5,2598,363,2598
		L363,2598z"/>
	<path class="st8" d="M359.7,2587.3h-27.3c-2.5,0.1-4.7,2.7-4.4,5.6c0.1,2.7,2,4.8,4.4,4.9h27.3c2.5-0.1,4.7-2.7,4.4-5.6
		C364.2,2589.6,362.2,2587.5,359.7,2587.3z"/>
	<path class="st9" d="M356.7,2576.7h-20.9c-2.5,0-4.7,2.5-4.7,5.5s2,5.2,4.7,5.2h20.9c2.5,0,4.7-2.5,4.7-5.5
		C361.2,2579.1,359.2,2576.7,356.7,2576.7z"/>
	<path class="st10" d="M353.4,2566h-14.6c-2.5,0.1-4.7,2.7-4.4,5.6c0.1,2.7,2,4.8,4.4,4.9h14.6c2.5-0.1,4.7-2.7,4.4-5.6
		C357.8,2568.3,355.9,2566.1,353.4,2566z"/>
	<path class="st11" d="M350.2,2555.4H342c-2.5,0-4.7,2.5-4.7,5.5c0,2.9,2,5.2,4.7,5.2h8.2c2.5,0,4.7-2.5,4.7-5.5
		C354.9,2557.8,352.9,2555.4,350.2,2555.4z"/>
	<path class="st12" d="M348,2544.8h-3.9c-2.5,0.1-4.7,2.7-4.4,5.6c0.1,2.7,2,4.8,4.4,4.9h3.9c2.5-0.1,4.7-2.7,4.4-5.6
		C352.4,2547.3,350.6,2545,348,2544.8z"/>
	<rect x="204.8" y="2623" class="st13" width="0.5" height="15.1"/>
	<path class="st14" d="M208.9,2619.8L208.9,2619.8c-0.4-0.3-0.9-0.5-1.3-0.6c0.4-0.1,0.9-0.4,1.1-0.6c0.8-0.4,1-1.5,0.6-2.2
		c-0.4-0.8-1.3-1.1-1.9-0.8l-0.1,0.1c-0.4,0.3-0.6,0.5-0.9,0.8c0.1-0.4,0.1-0.9,0.1-1.1c0-0.9-0.5-1.6-1.3-1.8
		c-0.8-0.1-1.5,0.6-1.6,1.5v0.1c0,0.4,0,0.9,0.1,1.1c-0.3-0.3-0.5-0.5-0.9-0.8c-0.6-0.5-1.5-0.3-2,0.4c-0.5,0.8-0.4,1.8,0.4,2.3
		l0.1,0.1c0.4,0.3,0.9,0.5,1.3,0.6c-0.4,0.1-0.9,0.4-1.3,0.6l0,0c-0.6,0.5-1,1.5-0.5,2.3l0.1,0.1c0.4,0.8,1.3,0.9,2,0.4
		c0.4-0.3,0.5-0.5,0.9-0.8c-0.1,0.4-0.1,0.9-0.1,1.1l0,0c0,0.8,0.4,1.3,1,1.6c0.8,0.3,1.6-0.3,1.8-1.1c0-0.1,0.1-0.4,0.1-0.5l0,0
		c0-0.4,0-0.9-0.1-1.1c0.3,0.3,0.5,0.5,0.9,0.8l0,0c0.8,0.5,1.6,0.1,1.9-0.6C209.7,2621.2,209.6,2620.2,208.9,2619.8L208.9,2619.8z"
		/>
	<path class="st17" d="M208.9,2619.8L208.9,2619.8c-0.4-0.3-0.9-0.5-1.3-0.6c0.4-0.1,0.9-0.4,1.1-0.6c0.8-0.4,1-1.5,0.6-2.2
		c-0.4-0.8-1.3-1.1-1.9-0.8l-0.1,0.1c-0.4,0.3-0.6,0.5-0.9,0.8c0.1-0.4,0.1-0.9,0.1-1.1c0-0.9-0.5-1.6-1.3-1.8
		c-0.8-0.1-1.5,0.6-1.6,1.5v0.1c0,0.4,0,0.9,0.1,1.1c-0.3-0.3-0.5-0.5-0.9-0.8c-0.6-0.5-1.5-0.3-2,0.4c-0.5,0.8-0.4,1.8,0.4,2.3
		l0.1,0.1c0.4,0.3,0.9,0.5,1.3,0.6c-0.4,0.1-0.9,0.4-1.3,0.6l0,0c-0.6,0.5-1,1.5-0.5,2.3l0.1,0.1c0.4,0.8,1.3,0.9,2,0.4
		c0.4-0.3,0.5-0.5,0.9-0.8c-0.1,0.4-0.1,0.9-0.1,1.1l0,0c0,0.8,0.4,1.3,1,1.6c0.8,0.3,1.6-0.3,1.8-1.1c0-0.1,0.1-0.4,0.1-0.5l0,0
		c0-0.4,0-0.9-0.1-1.1c0.3,0.3,0.5,0.5,0.9,0.8l0,0c0.8,0.5,1.6,0.1,1.9-0.6C209.7,2621.2,209.6,2620.2,208.9,2619.8L208.9,2619.8z"
		/>
	<path class="st16" d="M206.7,2619.2c0,1-0.6,1.8-1.5,1.8s-1.5-0.8-1.5-1.8s0.6-1.8,1.5-1.8l0,0
		C206,2617.4,206.7,2618.1,206.7,2619.2z"/>
	<path class="st14" d="M206.9,2619.2c0,1.1-0.8,2-1.8,2c-1.1,0-1.8-0.9-1.8-2s0.8-2,1.8-2C206,2617.1,206.9,2617.9,206.9,2619.2z"/>
	<rect x="328.6" y="2625.9" class="st13" width="0.6" height="12.2"/>
	<path class="st14" d="M333.3,2621.9L333.3,2621.9c-0.4-0.4-1-0.6-1.5-0.8c0.5-0.1,1-0.4,1.4-0.8c0.8-0.5,1.1-1.8,0.8-2.5
		c-0.4-1-1.5-1.3-2.4-0.9c0,0-0.1,0-0.1,0.1c-0.4,0.3-0.8,0.6-1.1,0.9c0.1-0.5,0.1-0.9,0.1-1.3c0-1.1-0.6-1.9-1.6-2
		s-1.8,0.8-1.8,1.8v0.1c0,0.5,0,1,0.1,1.5c-0.4-0.4-0.6-0.6-1-0.9c-0.8-0.5-1.8-0.4-2.4,0.5c-0.5,0.9-0.4,2,0.4,2.8
		c0,0,0.1,0,0.1,0.1c0.4,0.4,1,0.6,1.5,0.8c-0.5,0.1-1.1,0.4-1.5,0.8l0,0c-0.9,0.6-1.1,1.8-0.5,2.7c0,0,0,0.1,0.1,0.1
		c0.5,0.9,1.6,1,2.4,0.5c0.4-0.3,0.6-0.5,1-0.9c-0.1,0.5-0.1,1-0.1,1.5l0,0c0,0.9,0.4,1.6,1.1,1.8c1,0.4,1.9-0.3,2.2-1.1
		c0.1-0.3,0.1-0.4,0.1-0.6l0,0c0-0.5,0-1-0.1-1.5c0.4,0.4,0.6,0.6,1.1,0.9l0,0c0.9,0.5,1.9,0.1,2.4-0.9
		C334.4,2623.7,334.1,2622.6,333.3,2621.9L333.3,2621.9z"/>
	<path class="st15" d="M333.3,2621.9L333.3,2621.9c-0.4-0.4-1-0.6-1.5-0.8c0.5-0.1,1-0.4,1.4-0.8c0.8-0.5,1.1-1.8,0.8-2.5
		c-0.4-1-1.5-1.3-2.4-0.9c0,0-0.1,0-0.1,0.1c-0.4,0.3-0.8,0.6-1.1,0.9c0.1-0.5,0.1-0.9,0.1-1.3c0-1.1-0.6-1.9-1.6-2
		s-1.8,0.8-1.8,1.8v0.1c0,0.5,0,1,0.1,1.5c-0.4-0.4-0.6-0.6-1-0.9c-0.8-0.5-1.8-0.4-2.4,0.5c-0.5,0.9-0.4,2,0.4,2.8
		c0,0,0.1,0,0.1,0.1c0.4,0.4,1,0.6,1.5,0.8c-0.5,0.1-1.1,0.4-1.5,0.8l0,0c-0.9,0.6-1.1,1.8-0.5,2.7c0,0,0,0.1,0.1,0.1
		c0.5,0.9,1.6,1,2.4,0.5c0.4-0.3,0.6-0.5,1-0.9c-0.1,0.5-0.1,1-0.1,1.5l0,0c0,0.9,0.4,1.6,1.1,1.8c1,0.4,1.9-0.3,2.2-1.1
		c0.1-0.3,0.1-0.4,0.1-0.6l0,0c0-0.5,0-1-0.1-1.5c0.4,0.4,0.6,0.6,1.1,0.9l0,0c0.9,0.5,1.9,0.1,2.4-0.9
		C334.4,2623.7,334.1,2622.6,333.3,2621.9L333.3,2621.9z"/>
	<path class="st16" d="M330.7,2621.3c0,1.1-0.8,1.9-1.8,1.9s-1.8-0.9-1.8-1.9s0.8-1.9,1.8-1.9
		C329.9,2619.3,330.7,2620.2,330.7,2621.3z"/>
	<path class="st15" d="M330.7,2621.3c0,1.1-0.8,1.9-1.8,1.9s-1.8-0.9-1.8-1.9s0.8-1.9,1.8-1.9
		C329.9,2619.3,330.7,2620.2,330.7,2621.3z"/>
	<rect x="45.2" y="2679.3" class="st13" width="0.8" height="24.6"/>
	<path class="st14" d="M50.1,2675.3L50.1,2675.3c-0.4-0.4-1-0.6-1.5-0.8c0.5-0.1,1-0.4,1.4-0.8c0.8-0.5,1.1-1.8,0.8-2.5
		c-0.4-1-1.5-1.3-2.4-0.9c0,0-0.1,0-0.1,0.1c-0.4,0.3-0.8,0.5-1.1,0.9c0.1-0.5,0.1-0.9,0.1-1.3c0-1.1-0.6-1.9-1.6-2
		s-1.8,0.8-1.8,1.8v0.1c0,0.5,0,1,0.1,1.5c-0.4-0.4-0.6-0.6-1-0.9c-0.8-0.5-1.8-0.4-2.4,0.5c-0.5,0.9-0.4,2,0.4,2.8
		c0,0,0.1,0,0.1,0.1c0.4-0.4,0.9-0.4,1.3,0c0.4,0.4,0.4,1,0,1.5c-0.4,0.4-0.9,0.4-1.1,0l0,0c-0.9,0.6-1.1,1.8-0.5,2.7
		c0,0,0,0.1,0.1,0.1c0.5,0.9,1.6,1,2.4,0.5c0.4-0.3,0.6-0.5,1-0.9c-0.1,0.5-0.1,1-0.1,1.5l0,0c0,0.9,0.4,1.6,1.1,1.8
		c1,0.4,1.9-0.3,2.2-1.1c0.1-0.3,0.1-0.4,0.1-0.6l0,0c0-0.5,0-1-0.1-1.5c0.4,0.4,0.6,0.6,1.1,0.9l0,0c0.9,0.5,1.9,0.1,2.4-0.9
		C51.1,2677,50.7,2675.8,50.1,2675.3L50.1,2675.3z"/>
	<path class="st15" d="M50.1,2675.3L50.1,2675.3c-0.4-0.4-1-0.6-1.5-0.8c0.5-0.1,1-0.4,1.4-0.8c0.8-0.5,1.1-1.8,0.8-2.5
		c-0.4-1-1.5-1.3-2.4-0.9c0,0-0.1,0-0.1,0.1c-0.4,0.3-0.8,0.5-1.1,0.9c0.1-0.5,0.1-0.9,0.1-1.3c0-1.1-0.6-1.9-1.6-2
		s-1.8,0.8-1.8,1.8v0.1c0,0.5,0,1,0.1,1.5c-0.4-0.4-0.6-0.6-1-0.9c-0.8-0.5-1.8-0.4-2.4,0.5c-0.5,0.9-0.4,2,0.4,2.8
		c0,0,0.1,0,0.1,0.1c0.4-0.4,0.9-0.4,1.3,0c0.4,0.4,0.4,1,0,1.5c-0.4,0.4-0.9,0.4-1.1,0l0,0c-0.9,0.6-1.1,1.8-0.5,2.7
		c0,0,0,0.1,0.1,0.1c0.5,0.9,1.6,1,2.4,0.5c0.4-0.3,0.6-0.5,1-0.9c-0.1,0.5-0.1,1-0.1,1.5l0,0c0,0.9,0.4,1.6,1.1,1.8
		c1,0.4,1.9-0.3,2.2-1.1c0.1-0.3,0.1-0.4,0.1-0.6l0,0c0-0.5,0-1-0.1-1.5c0.4,0.4,0.6,0.6,1.1,0.9l0,0c0.9,0.5,1.9,0.1,2.4-0.9
		C51.1,2677,50.7,2675.8,50.1,2675.3L50.1,2675.3z"/>
	<path class="st16" d="M47.4,2674.6c0,1.1-0.8,1.9-1.8,1.9s-1.8-0.9-1.8-1.9c0-1.1,0.8-1.9,1.8-1.9l0,0
		C46.6,2672.5,47.4,2673.4,47.4,2674.6z"/>
	<path class="st15" d="M47.4,2674.6c0,1.1-0.8,1.9-1.8,1.9s-1.8-0.9-1.8-1.9c0-1.1,0.8-1.9,1.8-1.9l0,0
		C46.6,2672.5,47.4,2673.4,47.4,2674.6z"/>
	<rect x="231.1" y="2622.7" class="st13" width="0.6" height="15.5"/>
	<path class="st18" d="M231.4,2623.7c-0.8,0-1.4-0.6-1.5-1.5c-0.3-1.5-0.1-3,0.4-4.4l0.6-1.9c0.1-0.4,0.4-0.5,0.6-0.4
		c0.1,0.1,0.3,0.3,0.4,0.4l0.6,1.9c0.4,1.5,0.5,2.9,0.4,4.4C232.8,2623.1,232.2,2623.7,231.4,2623.7L231.4,2623.7z"/>
	<polygon class="st13" points="231.5,2628.2 231.3,2627.8 234.6,2624 234.9,2624.4 	"/>
	<path class="st18" d="M234.3,2624.7c-0.4-0.4-0.4-1.1-0.1-1.6c0.5-0.9,1.3-1.6,2.2-1.9l1.1-0.6c0.3-0.1,0.4,0,0.5,0.3
		c0,0.1,0,0.3,0,0.4l-0.5,1.3c-0.4,1-1,1.8-1.8,2.5C235.2,2625.1,234.7,2625.1,234.3,2624.7L234.3,2624.7z"/>
	<polygon class="st13" points="231.5,2634.9 231.3,2634.5 234.6,2630.6 234.9,2630.9 	"/>
	<path class="st18" d="M234.3,2631.3c-0.4-0.4-0.4-1.1-0.1-1.6c0.5-0.9,1.3-1.6,2.2-1.9l1.1-0.6c0.3-0.1,0.4,0,0.5,0.3
		c0,0.1,0,0.3,0,0.4l-0.5,1.3c-0.4,1-1,1.8-1.8,2.5C235.2,2631.7,234.7,2631.7,234.3,2631.3L234.3,2631.3z"/>
	<polygon class="st13" points="231.3,2628.2 231.5,2627.8 228.1,2624 227.8,2624.4 	"/>
	<path class="st18" d="M228.5,2624.7c0.4-0.4,0.4-1.1,0.1-1.6c-0.5-0.9-1.3-1.6-2.2-1.9l-1.1-0.6c-0.3-0.1-0.4,0-0.5,0.3
		c0,0.1,0,0.3,0,0.4l0.5,1.3c0.4,1,1,1.8,1.8,2.5C227.5,2625.1,228.1,2625.1,228.5,2624.7L228.5,2624.7z"/>
	<polygon class="st13" points="231.3,2634.9 231.5,2634.5 228.1,2630.6 227.8,2630.9 	"/>
	<path class="st18" d="M228.5,2631.3c0.4-0.4,0.4-1.1,0.1-1.6c-0.5-0.9-1.3-1.6-2.2-1.9l-1.1-0.6c-0.3-0.1-0.4,0-0.5,0.3
		c0,0.1,0,0.3,0,0.4l0.5,1.3c0.4,1,1,1.8,1.8,2.5C227.5,2631.7,228.1,2631.7,228.5,2631.3L228.5,2631.3z"/>
	<rect x="391.5" y="2620.2" class="st13" width="0.6" height="17.9"/>
	<path class="st14" d="M396.2,2616.2L396.2,2616.2c-0.4-0.4-1-0.6-1.5-0.8c0.5-0.1,1-0.4,1.4-0.8c0.8-0.5,1.1-1.6,0.8-2.5
		c-0.4-1-1.5-1.3-2.4-0.9c0,0-0.1,0-0.1,0.1c-0.4,0.3-0.8,0.6-1.1,0.9c0.1-0.5,0.1-0.9,0.1-1.3c0-1.1-0.6-1.9-1.6-2
		s-1.8,0.8-1.8,1.8v0.1c0,0.5,0,1,0.1,1.5c-0.4-0.4-0.6-0.6-1-0.9c-0.8-0.5-1.8-0.4-2.4,0.5s-0.4,2,0.4,2.7l0.1,0.1
		c0.4,0.4,1,0.6,1.5,0.8c-0.5,0.1-1.1,0.4-1.5,0.8l0,0c-0.9,0.6-1.1,1.8-0.6,2.7l0.1,0.1c0.5,0.9,1.6,1,2.4,0.5
		c0.4-0.3,0.6-0.5,1-0.9c-0.1,0.5-0.1,1-0.1,1.5l0,0c0,1.1,0.8,1.9,1.8,1.9s1.8-0.9,1.8-1.9l0,0l0,0c0-0.5,0-1-0.1-1.5
		c0.4,0.4,0.6,0.6,1.1,0.9l0,0c0.9,0.6,1.9,0.3,2.4-0.6C397.4,2618,397.1,2616.9,396.2,2616.2L396.2,2616.2z"/>
	<path class="st15" d="M396.2,2616.2L396.2,2616.2c-0.4-0.4-1-0.6-1.5-0.8c0.5-0.1,1-0.4,1.4-0.8c0.8-0.5,1.1-1.6,0.8-2.5
		c-0.4-1-1.5-1.3-2.4-0.9c0,0-0.1,0-0.1,0.1c-0.4,0.3-0.8,0.6-1.1,0.9c0.1-0.5,0.1-0.9,0.1-1.3c0-1.1-0.6-1.9-1.6-2
		s-1.8,0.8-1.8,1.8v0.1c0,0.5,0,1,0.1,1.5c-0.4-0.4-0.6-0.6-1-0.9c-0.8-0.5-1.8-0.4-2.4,0.5s-0.4,2,0.4,2.7l0.1,0.1
		c0.4,0.4,1,0.6,1.5,0.8c-0.5,0.1-1.1,0.4-1.5,0.8l0,0c-0.9,0.6-1.1,1.8-0.6,2.7l0.1,0.1c0.5,0.9,1.6,1,2.4,0.5
		c0.4-0.3,0.6-0.5,1-0.9c-0.1,0.5-0.1,1-0.1,1.5l0,0c0,1.1,0.8,1.9,1.8,1.9s1.8-0.9,1.8-1.9l0,0l0,0c0-0.5,0-1-0.1-1.5
		c0.4,0.4,0.6,0.6,1.1,0.9l0,0c0.9,0.6,1.9,0.3,2.4-0.6C397.4,2618,397.1,2616.9,396.2,2616.2L396.2,2616.2z"/>
	<path class="st16" d="M393.6,2615.5c0,1.1-0.8,1.9-1.8,1.9s-1.8-0.9-1.8-1.9c0-1.1,0.8-1.9,1.8-1.9l0,0
		C392.8,2613.4,393.6,2614.3,393.6,2615.5z"/>
	<path class="st15" d="M393.6,2615.5c0,1.1-0.8,1.9-1.8,1.9s-1.8-0.9-1.8-1.9c0-1.1,0.8-1.9,1.8-1.9l0,0
		C392.8,2613.4,393.6,2614.3,393.6,2615.5z"/>
	<rect x="459.8" y="2623" class="st13" width="0.5" height="15.1"/>
	<path class="st14" d="M463.7,2619.8L463.7,2619.8c-0.4-0.3-0.9-0.5-1.3-0.6c0.4-0.1,0.9-0.4,1.1-0.6c0.8-0.4,1-1.5,0.6-2.2
		c-0.4-0.8-1.3-1.1-1.9-0.8l-0.1,0.1c-0.4,0.3-0.6,0.5-0.9,0.8c0.1-0.4,0.1-0.9,0.1-1.1c0-0.9-0.5-1.6-1.3-1.8
		c-0.8-0.1-1.5,0.6-1.6,1.5v0.1c0,0.4,0,0.9,0.1,1.1c-0.3-0.3-0.5-0.5-0.9-0.8c-0.6-0.5-1.5-0.3-1.9,0.4c-0.5,0.8-0.4,1.8,0.4,2.3
		l0.1,0.1c0.4,0.3,0.9,0.5,1.3,0.6c-0.4,0.1-0.9,0.4-1.3,0.6l0,0c-0.6,0.5-1,1.5-0.5,2.3l0.1,0.1c0.4,0.8,1.3,0.9,1.9,0.4
		c0.4-0.3,0.5-0.5,0.9-0.8c-0.1,0.4-0.1,0.9-0.1,1.1l0,0c0,0.8,0.4,1.3,1,1.6c0.8,0.3,1.6-0.3,1.8-1.1c0-0.1,0.1-0.4,0.1-0.5l0,0
		c0-0.4,0-0.9-0.1-1.1c0.3,0.3,0.5,0.5,0.9,0.8l0,0c0.8,0.5,1.6,0.1,1.9-0.6C464.6,2621.2,464.3,2620.2,463.7,2619.8L463.7,2619.8z"
		/>
	<path class="st17" d="M463.7,2619.8L463.7,2619.8c-0.4-0.3-0.9-0.5-1.3-0.6c0.4-0.1,0.9-0.4,1.1-0.6c0.8-0.4,1-1.5,0.6-2.2
		c-0.4-0.8-1.3-1.1-1.9-0.8l-0.1,0.1c-0.4,0.3-0.6,0.5-0.9,0.8c0.1-0.4,0.1-0.9,0.1-1.1c0-0.9-0.5-1.6-1.3-1.8
		c-0.8-0.1-1.5,0.6-1.6,1.5v0.1c0,0.4,0,0.9,0.1,1.1c-0.3-0.3-0.5-0.5-0.9-0.8c-0.6-0.5-1.5-0.3-1.9,0.4c-0.5,0.8-0.4,1.8,0.4,2.3
		l0.1,0.1c0.4,0.3,0.9,0.5,1.3,0.6c-0.4,0.1-0.9,0.4-1.3,0.6l0,0c-0.6,0.5-1,1.5-0.5,2.3l0.1,0.1c0.4,0.8,1.3,0.9,1.9,0.4
		c0.4-0.3,0.5-0.5,0.9-0.8c-0.1,0.4-0.1,0.9-0.1,1.1l0,0c0,0.8,0.4,1.3,1,1.6c0.8,0.3,1.6-0.3,1.8-1.1c0-0.1,0.1-0.4,0.1-0.5l0,0
		c0-0.4,0-0.9-0.1-1.1c0.3,0.3,0.5,0.5,0.9,0.8l0,0c0.8,0.5,1.6,0.1,1.9-0.6C464.6,2621.2,464.3,2620.2,463.7,2619.8L463.7,2619.8z"
		/>
	<path class="st16" d="M461.5,2619.2c0,1-0.6,1.8-1.5,1.8s-1.5-0.8-1.5-1.8s0.6-1.8,1.5-1.8l0,0
		C460.9,2617.4,461.5,2618.1,461.5,2619.2z"/>
	<path class="st14" d="M461.9,2619.2c0,1.1-0.8,2-1.8,2c-1.1,0-1.8-0.9-1.8-2s0.8-2,1.8-2C461,2617.1,461.9,2617.9,461.9,2619.2z"/>
	<rect x="486" y="2622.7" class="st13" width="0.6" height="15.5"/>
	<path class="st18" d="M486.3,2623.7c-0.8,0-1.4-0.6-1.5-1.5c-0.3-1.5-0.1-3,0.4-4.4l0.6-1.9c0.1-0.4,0.4-0.5,0.6-0.4
		c0.1,0.1,0.3,0.3,0.4,0.4l0.6,1.9c0.4,1.5,0.5,2.9,0.4,4.4C487.7,2623.1,487,2623.7,486.3,2623.7L486.3,2623.7z"/>
	<polygon class="st13" points="486.5,2628.2 486.3,2627.8 489.6,2624 489.8,2624.4 	"/>
	<path class="st18" d="M489.2,2624.7c-0.4-0.4-0.4-1.1-0.1-1.6c0.5-0.9,1.3-1.6,2.2-1.9l1.1-0.6c0.3-0.1,0.4,0,0.5,0.3
		c0,0.1,0,0.3,0,0.4l-0.5,1.3c-0.4,1-1,1.8-1.8,2.5C490.2,2625.1,489.7,2625.1,489.2,2624.7L489.2,2624.7z"/>
	<polygon class="st13" points="486.5,2634.9 486.3,2634.5 489.6,2630.6 489.8,2630.9 	"/>
	<path class="st18" d="M489.2,2631.3c-0.4-0.4-0.4-1.1-0.1-1.6c0.5-0.9,1.3-1.6,2.2-1.9l1.1-0.6c0.3-0.1,0.4,0,0.5,0.3
		c0,0.1,0,0.3,0,0.4l-0.5,1.3c-0.4,1-1,1.8-1.8,2.5C490.2,2631.7,489.7,2631.7,489.2,2631.3L489.2,2631.3z"/>
	<polygon class="st13" points="486.3,2628.2 486.5,2627.8 483.1,2624 482.8,2624.4 	"/>
	<path class="st18" d="M483.3,2624.7c0.4-0.4,0.4-1.1,0.1-1.6c-0.5-0.9-1.3-1.6-2.2-1.9l-1.1-0.6c-0.3-0.1-0.4,0-0.5,0.3
		c0,0.1,0,0.3,0,0.4l0.5,1.3c0.4,1,1,1.8,1.8,2.5C482.5,2625.1,483,2625.1,483.3,2624.7L483.3,2624.7z"/>
	<polygon class="st13" points="486.3,2634.9 486.5,2634.5 483.1,2630.6 482.8,2630.9 	"/>
	<path class="st18" d="M483.3,2631.3c0.4-0.4,0.4-1.1,0.1-1.6c-0.5-0.9-1.3-1.6-2.2-1.9l-1.1-0.6c-0.3-0.1-0.4,0-0.5,0.3
		c0,0.1,0,0.3,0,0.4l0.5,1.3c0.4,1,1,1.8,1.8,2.5C482.5,2631.7,483,2631.7,483.3,2631.3L483.3,2631.3z"/>
</g>
</svg>
