<svg id="レイヤー_1" data-name="レイヤー 1" xmlns="http://www.w3.org/2000/svg" viewBox="0 0 74.91 100.76"><defs><style>.cls-1{fill:#dd8ba0;}.cls-1,.cls-2{stroke:#3c0000;stroke-miterlimit:10;stroke-width:1.6px;}.cls-2{fill:#ffd4dd;}</style></defs><path class="cls-1" d="M37.5,90.41H29.6l.95,7.64A2,2,0,0,0,32.43,100H42.84a2.05,2.05,0,0,0,1.9-2l.58-7.52Z"/><rect class="cls-1" x="44.59" y="78.2" width="0.7" height="12.84"/><rect class="cls-1" x="42.64" y="78.2" width="0.7" height="12.84"/><rect class="cls-1" x="31.65" y="78.75" width="0.7" height="12.84"/><rect class="cls-1" x="29.7" y="78.75" width="0.7" height="12.84"/><rect class="cls-1" x="29.75" y="90.41" width="15.41" height="1.96"/><path class="cls-1" d="M.8,31.69A26.78,26.78,0,0,0,4.32,44.92h0l.12.2c.06.12.13.23.19.34l.4.66.21.32.21.33.22.32.22.32c.08.1.15.21.23.32h0l.24.32c.1.14.2.28.31.41s.23.31.35.46H6.9l.64.7L26.88,71l2.49,2.75H45.55L48,71,67.38,49.62l.64-.7h-.13c.11-.14.23-.28.34-.43l.29-.39.13-.17h0l.52-.73a2.75,2.75,0,0,1,.19-.28l.27-.41c.06-.1.13-.2.19-.31s.31-.49.46-.75l.19-.32c0-.06.07-.13.11-.2a26.78,26.78,0,0,0,3.52-13.23,26.31,26.31,0,0,0-.47-5c-.07-.35-.14-.7-.22-1.05l-.12-.49A29.9,29.9,0,0,0,63.38,9.85,40.25,40.25,0,0,0,37.46.8C19.84.8,5.12,11.28,1.6,25.24c0,.14-.07.29-.1.44s-.13.57-.19.86A25.92,25.92,0,0,0,.8,31.69Z"/><path class="cls-2" d="M15.33,31.69a41,41,0,0,0,2.13,13.23h0a1.18,1.18,0,0,0,.07.2,3.38,3.38,0,0,0,.11.34c.08.22.16.44.25.66l.12.32.13.33c0,.11.09.21.13.32s.09.21.13.32.09.21.14.32h0l.14.32c.07.14.13.28.19.41s.14.31.22.46H19l.39.7L31.07,71l1.5,2.75h9.77L43.85,71,55.52,49.62l.38-.7h-.07c.07-.14.13-.28.2-.43l.18-.39a1.3,1.3,0,0,1,.08-.17h0c.11-.24.21-.49.31-.73l.12-.28c.05-.14.11-.27.16-.41l.12-.31c.09-.25.19-.49.28-.75,0-.1.07-.21.11-.32s0-.13.07-.2a41.27,41.27,0,0,0,2.12-13.23,42.52,42.52,0,0,0-.28-5c0-.35-.09-.7-.14-1.05,0-.17,0-.33-.07-.49a35.72,35.72,0,0,0-6-15.34c-4-5.59-9.53-9-15.64-9C26.82.8,17.94,11.28,15.81,25.24l-.06.44c0,.28-.08.57-.11.86A41.53,41.53,0,0,0,15.33,31.69Z"/><path class="cls-1" d="M30.34,31.69A122.43,122.43,0,0,0,31,44.92h0a1.23,1.23,0,0,0,0,.2c0,.12,0,.23,0,.34s.05.44.07.66,0,.22.05.32,0,.22,0,.33,0,.21,0,.32,0,.21,0,.32,0,.21.05.32h0c0,.11,0,.22,0,.32l.06.41c0,.16.05.31.07.46h0l.12.7L35.4,71l.49,2.75H39L39.51,71l3.75-21.33.13-.7h0c0-.14,0-.28.07-.43s0-.26,0-.39l0-.17h0c0-.24.07-.49.1-.73s0-.19,0-.28,0-.27.05-.41,0-.2,0-.31l.09-.75,0-.32,0-.2a125.18,125.18,0,0,0,.68-13.23c0-1.69,0-3.34-.09-5,0-.35,0-.7,0-1.05,0-.17,0-.33,0-.49A90.37,90.37,0,0,0,42.49,9.85c-1.29-5.59-3.07-9-5-9-3.42,0-6.28,10.48-7,24.44,0,.14,0,.29,0,.44s0,.57,0,.86C30.38,28.22,30.34,29.94,30.34,31.69Z"/><rect class="cls-1" x="29.31" y="73.7" width="16.29" height="5.68" rx="0.43"/></svg>