<?xml version="1.0" encoding="utf-8"?>
<!-- Generator: Adobe Illustrator 25.3.0, SVG Export Plug-In . SVG Version: 6.00 Build 0)  -->
<svg version="1.1" id="レイヤー_1" xmlns="http://www.w3.org/2000/svg" xmlns:xlink="http://www.w3.org/1999/xlink" x="0px"
	 y="0px" viewBox="0 0 687.4 211.2" style="enable-background:new 0 0 687.4 211.2;" xml:space="preserve">
<style type="text/css">
	.st0{fill:#FFFDFE;stroke:#3C0000;stroke-width:1.5;stroke-miterlimit:10;}
	.st1{fill:#D26088;}
	.st2{enable-background:new    ;}
	.st3{fill:#FFFFFF;}
	.st4{fill:#2D2D2D;}
	.st5{font-family:'RoundedMplus1c-Regular';}
	.st6{font-size:30px;}
</style>
<path class="st0" d="M25.9,0.8h635.6c13.9,0,25.2,11.3,25.2,25.1v159.5c0,13.9-11.3,25.1-25.2,25.1H25.9
	c-13.9,0-25.1-11.3-25.1-25.1V25.9C0.8,12,12,0.8,25.9,0.8z"/>
<path class="st1" d="M35,9.5h616.6c13.9,0,25.2,11.3,25.2,25.2v71.4c0,13.9-11.3,25.2-25.2,25.2H35c-13.9,0-25.1-11.3-25.1-25.2
	V34.7C9.9,20.8,21.1,9.5,35,9.5z"/>
<g class="st2">
	<path class="st3" d="M194.2,80.4c0.9,0,1.7,0.3,2.3,1c0.7,0.7,1,1.4,1,2.3v2.4c0,0.9-0.3,1.7-1,2.3c-0.7,0.7-1.4,1-2.3,1h-14.4
		c-0.3,0-0.5,0.2-0.5,0.5V95c0,0.9-0.3,1.7-1,2.3c-0.7,0.7-1.4,1-2.3,1h-4.4c-0.9,0-1.7-0.3-2.3-1c-0.7-0.7-1-1.4-1-2.3v-5.1
		c0-0.3-0.2-0.5-0.5-0.5h-21.3c-0.9,0-1.7-0.3-2.3-1c-0.7-0.7-1-1.4-1-2.3v-2.4c0-0.9,0.3-1.7,1-2.3c0.7-0.7,1.4-1,2.3-1h4.6
		c0.3,0,0.5-0.2,0.5-0.5v-8.5c0-0.3-0.2-0.5-0.5-0.5c-0.6-0.1-1-0.2-1.3-0.3l-3.8-1.9c-0.8-0.4-1.3-1.1-1.6-1.9s-0.2-1.7,0.2-2.4
		c3.1-5.7,5.7-11.4,7.7-17.2c0.3-0.9,0.9-1.6,1.7-2.1s1.7-0.6,2.6-0.4l3.9,0.8c0.9,0.2,1.5,0.7,2,1.4c0.4,0.7,0.5,1.5,0.2,2.4v0.1
		l-0.1,0.1c-0.1,0.3,0,0.5,0.3,0.5h28.7c0.9,0,1.7,0.3,2.3,1c0.7,0.7,1,1.4,1,2.3v2.1c0,0.9-0.3,1.7-1,2.3c-0.7,0.7-1.4,1-2.3,1
		h-12.1c-0.3,0-0.5,0.2-0.5,0.5v5c0,0.3,0.2,0.5,0.5,0.5h10.3c0.9,0,1.7,0.3,2.3,1c0.7,0.7,1,1.4,1,2.3v2.1c0,0.9-0.3,1.7-1,2.3
		c-0.7,0.7-1.4,1-2.3,1h-10.3c-0.3,0-0.5,0.2-0.5,0.5v6.2c0,0.3,0.2,0.5,0.5,0.5h14.7V80.4z M168.3,64v-5c0-0.3-0.2-0.5-0.5-0.5
		h-7.9c-0.3,0-0.6,0.2-0.7,0.5c-0.8,1.8-1.5,3.5-2.3,5.1c-0.2,0.3-0.1,0.5,0.2,0.5h10.7C168.1,64.5,168.3,64.4,168.3,64z
		 M168.3,79.9v-6.2c0-0.3-0.2-0.5-0.5-0.5h-5.3c-0.3,0-0.5,0.2-0.5,0.5v6.2c0,0.3,0.2,0.5,0.5,0.5h5.3
		C168.1,80.4,168.3,80.3,168.3,79.9z"/>
	<path class="st3" d="M226.7,67c0,0.9-0.3,1.7-1,2.3c-0.7,0.7-1.4,1-2.3,1h-11c-0.3,0-0.5,0.2-0.5,0.5V95c0,0.9-0.3,1.7-1,2.3
		c-0.7,0.7-1.4,1-2.3,1h-3.5c-0.9,0-1.7-0.3-2.3-1c-0.7-0.7-1-1.4-1-2.3V49c0-0.9,0.3-1.7,1-2.3c0.7-0.7,1.4-1,2.3-1h18.3
		c0.9,0,1.7,0.3,2.3,1c0.7,0.7,1,1.4,1,2.3V67z M219.2,55.1v-1.6c0-0.3-0.2-0.5-0.5-0.5h-6.2c-0.3,0-0.5,0.2-0.5,0.5v1.6
		c0,0.3,0.2,0.5,0.5,0.5h6.2C219,55.6,219.2,55.4,219.2,55.1z M219.2,63.4v-1.6c0-0.3-0.2-0.5-0.5-0.5h-6.2c-0.3,0-0.5,0.2-0.5,0.5
		v1.6c0,0.3,0.2,0.5,0.5,0.5h6.2C219,64,219.2,63.8,219.2,63.4z M251.1,45.8c0.9,0,1.7,0.3,2.3,1c0.7,0.7,1,1.4,1,2.3v37.7
		c0,2,0,3.5-0.1,4.6s-0.2,2.2-0.5,3.1c-0.3,1-0.7,1.7-1,2.1c-0.4,0.4-1,0.8-1.9,1.1c-0.9,0.3-1.9,0.5-2.9,0.5
		c-1,0.1-2.4,0.1-4.2,0.1c-1.7,0-3.3,0-4.8-0.1c-0.8,0-1.6-0.4-2.3-1s-1.1-1.3-1.2-2.2c-0.1-0.3-0.3-0.5-0.5-0.5h-11.2
		c-0.2,0-0.3,0.1-0.3,0.3c0,0.5-0.2,1-0.6,1.4c-0.4,0.4-0.9,0.6-1.4,0.6h-3.1c-0.9,0-1.7-0.3-2.3-1c-0.7-0.7-1-1.4-1-2.3V75.9
		c0-0.9,0.3-1.7,1-2.3c0.7-0.7,1.4-1,2.3-1h19.4c0.9,0,1.7,0.3,2.3,1c0.7,0.7,1,1.4,1,2.3v13.2c0,0.3,0.2,0.5,0.5,0.5h0.4
		c1.1,0,1.8-0.1,2-0.3c0.2-0.2,0.3-0.8,0.3-1.8V70.8c0-0.3-0.2-0.5-0.5-0.5h-11.5c-0.9,0-1.7-0.3-2.3-1c-0.7-0.7-1-1.4-1-2.3V49
		c0-0.9,0.3-1.7,1-2.3c0.7-0.7,1.4-1,2.3-1L251.1,45.8L251.1,45.8z M232.7,80.5v-1.3c0-0.3-0.2-0.5-0.5-0.5H224
		c-0.3,0-0.5,0.2-0.5,0.5v1.3c0,0.3,0.2,0.5,0.5,0.5h8.3C232.6,81,232.7,80.8,232.7,80.5z M232.7,88.3V87c0-0.3-0.2-0.5-0.5-0.5H224
		c-0.3,0-0.5,0.2-0.5,0.5v1.3c0,0.3,0.2,0.5,0.5,0.5h8.3C232.6,88.8,232.7,88.6,232.7,88.3z M244.3,55.1v-1.6c0-0.3-0.2-0.5-0.5-0.5
		H237c-0.3,0-0.5,0.2-0.5,0.5v1.6c0,0.3,0.2,0.5,0.5,0.5h6.8C244.1,55.6,244.3,55.4,244.3,55.1z M244.3,63.4v-1.6
		c0-0.3-0.2-0.5-0.5-0.5H237c-0.3,0-0.5,0.2-0.5,0.5v1.6c0,0.3,0.2,0.5,0.5,0.5h6.8C244.1,64,244.3,63.8,244.3,63.4z"/>
	<path class="st3" d="M304.6,54.4c0.9,0,1.7,0.3,2.3,1c0.7,0.7,1,1.4,1,2.3v5.4c0,5.8-0.1,10.5-0.4,14.3c-0.3,3.8-0.6,6.8-1.1,9.2
		c-0.5,2.4-1.2,4.2-2.2,5.3c-1,1.2-2,2-3.2,2.3c-1.1,0.4-2.6,0.6-4.5,0.6c-2,0-5.1-0.2-9.5-0.6c-0.9-0.1-1.6-0.5-2.2-1.2
		s-0.8-1.5-0.8-2.4l0.3-3.4c0.1-0.9,0.5-1.6,1.2-2.2s1.5-0.8,2.4-0.8c2.2,0.2,3.9,0.3,5.1,0.3c0.8,0,1.4-0.3,1.8-1
		c0.4-0.6,0.7-2.1,1-4.5c0.2-2.4,0.4-5.9,0.4-10.7v-3.8c0-0.3-0.2-0.5-0.5-0.5h-9.5c-0.3,0-0.5,0.2-0.6,0.5
		c-0.9,6.9-2.4,12.6-4.7,17.1c-2.2,4.5-5.4,8.5-9.5,12.1c-0.7,0.6-1.5,0.8-2.4,0.8c-0.9-0.1-1.7-0.4-2.3-1.1l-2.5-2.7
		c-0.6-0.7-0.9-1.4-0.8-2.3s0.5-1.6,1.1-2.2c3-2.7,5.3-5.6,6.9-8.9s2.8-7.5,3.5-12.7c0.1-0.3-0.1-0.5-0.4-0.5h-8.6
		c-0.9,0-1.7-0.3-2.3-1c-0.7-0.7-1-1.4-1-2.3v-3.2c0-0.9,0.3-1.7,1-2.3c0.7-0.7,1.4-1,2.3-1h9.4c0.3,0,0.5-0.2,0.5-0.5
		c0.1-1.8,0.1-3.3,0.1-4.4c0-0.9,0.3-1.6,1-2.3c0.7-0.6,1.4-1,2.3-1h4.1c0.9,0,1.7,0.3,2.3,1c0.6,0.7,1,1.4,1,2.4s0,2.4-0.1,4.2
		c0,0.3,0.2,0.5,0.5,0.5h17.6V54.4z"/>
	<path class="st3" d="M366.1,65.4c0.8,0.3,1.5,0.9,1.8,1.8s0.4,1.7,0,2.5c-3.8,9.2-8.9,15.8-15.1,19.7c-6.3,3.9-15,5.9-26,6.1
		c-0.9,0-1.7-0.3-2.3-1c-0.7-0.7-1-1.4-1-2.3V51.4c0-0.9,0.3-1.7,1-2.3c0.7-0.7,1.4-1,2.3-1h5.3c0.9,0,1.7,0.3,2.3,1
		c0.7,0.7,1,1.4,1,2.3V84c0,0.3,0.2,0.5,0.5,0.4c5.6-0.8,10.1-2.7,13.5-5.6s6.2-7.3,8.6-13.2c0.3-0.8,0.9-1.4,1.7-1.8
		c0.8-0.3,1.6-0.4,2.5-0.1L366.1,65.4z"/>
	<path class="st3" d="M382.3,59.2c-0.8-0.4-1.3-1-1.6-1.8c-0.3-0.8-0.2-1.6,0.2-2.4l2.1-4c0.4-0.8,1.1-1.4,2-1.7s1.8-0.3,2.6,0.1
		c4.2,1.9,8.3,3.9,12.3,5.9c0.8,0.4,1.3,1,1.6,1.8c0.2,0.8,0.1,1.7-0.3,2.4l-2.3,4.2c-0.4,0.8-1.1,1.3-2,1.6s-1.7,0.2-2.5-0.2
		C389.9,62.9,385.9,60.9,382.3,59.2z M424.2,55.5c0.9,0.2,1.6,0.7,2.1,1.4c0.5,0.8,0.7,1.6,0.5,2.5c-2.3,10.3-6.8,18.3-13.5,23.9
		c-6.7,5.7-15.9,9.2-27.7,10.6c-0.9,0.1-1.7-0.1-2.5-0.7c-0.7-0.6-1.1-1.3-1.3-2.2l-0.7-4.2c-0.2-0.8,0-1.6,0.6-2.4
		c0.5-0.7,1.3-1.2,2.1-1.3c9.4-1.3,16.6-4,21.6-8.1s8.7-10.1,10.8-18.1c0.2-0.9,0.7-1.6,1.5-2c0.8-0.5,1.6-0.6,2.4-0.4L424.2,55.5z"
		/>
	<path class="st3" d="M477.8,53.4c0.8,0.6,1.2,1.4,1.2,2.5c-0.1,13.1-3,22.9-8.7,29.2S455.5,95.4,443,96.9c-0.9,0.1-1.8-0.1-2.5-0.7
		s-1.2-1.3-1.4-2.2l-0.6-3.4c-0.2-0.9,0-1.7,0.6-2.4c0.5-0.7,1.3-1.1,2.1-1.2c8-1.1,13.9-3.1,17.6-6.1c0.1-0.1,0.1-0.2,0.1-0.3
		c0-0.1,0-0.2-0.1-0.2c-3.1-1.6-5.9-2.9-8.3-4c-0.8-0.4-1.4-1-1.6-1.8c-0.3-0.8-0.2-1.7,0.2-2.4l2.1-3.8c0.4-0.8,1.1-1.4,2-1.6
		c0.9-0.3,1.8-0.2,2.6,0.1c2.6,1.2,5.6,2.7,9.2,4.5c0.3,0.2,0.5,0.1,0.6-0.2c0.8-2.5,1.3-5.1,1.6-8c0-0.3-0.2-0.5-0.5-0.5h-15.4
		c-0.3,0-0.6,0.1-0.7,0.4c-2.1,4.4-4.9,8.6-8.5,12.5c-0.6,0.7-1.4,1-2.3,1.1s-1.7-0.3-2.4-0.9l-2.7-2.3c-0.7-0.6-1-1.3-1-2.2
		c0-0.9,0.2-1.7,0.8-2.4c4.6-5.5,7.7-11.7,9.4-18.6c0.2-0.9,0.7-1.7,1.4-2.3c0.7-0.6,1.6-0.8,2.5-0.8l3.8,0.2
		c0.9,0.1,1.7,0.4,2.3,1.1s0.8,1.4,0.6,2.3c0,0.3-0.1,0.8-0.3,1.5c0,0.1,0,0.2,0.1,0.3s0.2,0.2,0.3,0.2h17.3c0.1,0,0.2-0.1,0.3-0.2
		c0.1-0.1,0-0.2,0-0.3c-0.2-0.3-0.4-0.8-0.7-1.3c-0.3-0.6-0.5-1-0.7-1.3c-0.4-0.7-0.5-1.5-0.2-2.3s0.7-1.4,1.5-1.8
		c0.8-0.4,1.6-0.4,2.3-0.2c0.8,0.3,1.4,0.8,1.8,1.6c0.2,0.3,0.5,0.9,0.8,1.5s0.6,1.2,0.8,1.5c0.5,0.8,0.4,1.8-0.1,2.7
		C477.5,53,477.5,53.3,477.8,53.4z M484.9,46.1c0.2,0.4,0.5,0.9,0.8,1.7c0.4,0.7,0.6,1.3,0.8,1.6c0.4,0.8,0.4,1.5,0.2,2.3
		c-0.3,0.8-0.8,1.3-1.6,1.7c-0.8,0.4-1.6,0.4-2.3,0.2c-0.8-0.3-1.4-0.8-1.8-1.6c-0.3-0.7-0.9-1.7-1.7-3.1c-0.4-0.8-0.5-1.6-0.2-2.3
		c0.3-0.8,0.8-1.4,1.5-1.8c0.8-0.4,1.6-0.4,2.4-0.2C483.9,44.8,484.5,45.3,484.9,46.1z"/>
	<path class="st3" d="M538.1,66.3c0.9,0,1.7,0.3,2.3,1c0.7,0.7,1,1.4,1,2.3V74c0,0.9-0.3,1.7-1,2.3c-0.7,0.7-1.4,1-2.3,1h-42
		c-0.9,0-1.7-0.3-2.3-1c-0.7-0.7-1-1.4-1-2.3v-4.4c0-0.9,0.3-1.7,1-2.3c0.7-0.7,1.4-1,2.3-1C496.1,66.3,538.1,66.3,538.1,66.3z"/>
</g>
<text transform="matrix(1 0 0 1 238.34 182.97)" class="st4 st5 st6">詳しくはこちら</text>
</svg>
