<svg id="レイヤー_1" data-name="レイヤー 1" xmlns="http://www.w3.org/2000/svg" viewBox="0 0 337 234.35"><defs><style>.cls-1{fill:#fffdfe;stroke:#3c0000;stroke-miterlimit:10;stroke-width:4.5px;}.cls-2{fill:#91c04f;}.cls-3{isolation:isolate;}.cls-4{fill:#fff;}.cls-5{fill:#2d2d2d;}.cls-6{fill:#3c0000;}</style></defs><path class="cls-1" d="M31,2.2H313.2a25.2,25.2,0,0,1,25.2,25.1V186.8a25.14,25.14,0,0,1-25.2,25.1H31A25.12,25.12,0,0,1,5.9,186.8V27.4A25.07,25.07,0,0,1,31,2.2Z" transform="translate(-3.65 0.05)"/><path class="cls-2" d="M40.1,11H303.3a25.22,25.22,0,0,1,25.2,25.2v71.4a25.22,25.22,0,0,1-25.2,25.2H40.1A25.14,25.14,0,0,1,15,107.6V36.2A25.14,25.14,0,0,1,40.1,11Z" transform="translate(-3.65 0.05)"/><g class="cls-3"><path class="cls-4" d="M95.49,75.5c4.8,4,8.6,7.3,11.4,9.8a3.36,3.36,0,0,1,1.1,2.3,3.07,3.07,0,0,1-.8,2.4l-2.9,3.4a2.79,2.79,0,0,1-2.2,1.1,2.74,2.74,0,0,1-2.3-.8c-3.6-3.3-7.3-6.5-11.1-9.7a.53.53,0,0,0-.8.1,79.75,79.75,0,0,1-18.4,14.2,3.39,3.39,0,0,1-2.6.4,3.68,3.68,0,0,1-2.2-1.4l-2.8-3.9a2.89,2.89,0,0,1-.5-2.4,3.12,3.12,0,0,1,1.4-2,80,80,0,0,0,15.9-12.5.37.37,0,0,0,0-.6c-3.9-3-7.6-5.9-11.2-8.4a3,3,0,0,1-1.3-2.1,2.78,2.78,0,0,1,.7-2.3l2.8-3.3a3.38,3.38,0,0,1,2.2-1.3,3.74,3.74,0,0,1,2.5.6c3.6,2.6,7.3,5.4,11,8.3a.37.37,0,0,0,.3.1c.2,0,.3-.1.3-.2a67.44,67.44,0,0,0,6.8-13.4,4.1,4.1,0,0,1,1.7-2,3.39,3.39,0,0,1,2.6-.4l4.8,1a3,3,0,0,1,2,1.4,2.53,2.53,0,0,1,.3,2.4,68.83,68.83,0,0,1-9,18.5C95.09,75.1,95.19,75.3,95.49,75.5Z" transform="translate(-3.65 0.05)"/><path class="cls-4" d="M162.69,86.4a2.9,2.9,0,0,1,2.3,1,3,3,0,0,1,1,2.3v4.1a2.9,2.9,0,0,1-1,2.3,3,3,0,0,1-2.3,1h-40.8a2.9,2.9,0,0,1-2.3-1,3,3,0,0,1-1-2.3V89.7a2.9,2.9,0,0,1,1-2.3,3,3,0,0,1,2.3-1ZM126,54.3h32.7a2.9,2.9,0,0,1,2.3,1,3,3,0,0,1,1,2.3v4.1a2.9,2.9,0,0,1-1,2.3,3,3,0,0,1-2.3,1H126a2.9,2.9,0,0,1-2.3-1,3,3,0,0,1-1-2.3V57.6a2.9,2.9,0,0,1,1-2.3A3.26,3.26,0,0,1,126,54.3Z" transform="translate(-3.65 0.05)"/><path class="cls-4" d="M216.69,89a2.9,2.9,0,0,1,2.3,1,3.45,3.45,0,0,1,1,2.3v1.8a2.9,2.9,0,0,1-1,2.3,3,3,0,0,1-2.3,1h-33.2a2.9,2.9,0,0,1-2.3-1,3,3,0,0,1-1-2.3V92.3a2.9,2.9,0,0,1,1-2.3,3,3,0,0,1,2.3-1h17.1a.47.47,0,0,0,.5-.5l.8-16.4a.47.47,0,0,0-.5-.5H188a2.9,2.9,0,0,1-2.3-1,3,3,0,0,1-1-2.3V66.5a2.9,2.9,0,0,1,1-2.3,3,3,0,0,1,2.3-1h21.2a3,3,0,0,1,2.3,1,3.34,3.34,0,0,1,.9,2.3l-1,22a.47.47,0,0,0,.5.5Z" transform="translate(-3.65 0.05)"/><path class="cls-4" d="M278.89,70.2a2.9,2.9,0,0,1,2.3,1,3,3,0,0,1,1,2.3v4.4a2.9,2.9,0,0,1-1,2.3,3,3,0,0,1-2.3,1h-42a2.9,2.9,0,0,1-2.3-1,3,3,0,0,1-1-2.3V73.5a2.9,2.9,0,0,1,1-2.3,3,3,0,0,1,2.3-1Z" transform="translate(-3.65 0.05)"/></g><g class="cls-3"><path class="cls-5" d="M70.35,167.4a1,1,0,0,1,0-2H79a1,1,0,0,1,0,2Zm.8-4.2a1,1,0,0,1,0-2H78a1,1,0,0,1,0,2Zm-1,22.9V180a1.71,1.71,0,0,1,1.7-1.7h5.5a1.71,1.71,0,0,1,1.7,1.7v4.3a1.71,1.71,0,0,1-1.7,1.7h-4.8c-.1,0-.1.1-.1.2h0a1.13,1.13,0,0,1-1.9.8A1.22,1.22,0,0,1,70.15,186.1Zm1.2-14.4a1,1,0,0,1,0-2H78a1,1,0,0,1,0,2Zm0,4.2a1,1,0,0,1,0-2H78a1,1,0,0,1,0,2Zm1,4.5v3.3c0,.2.1.3.2.3h4.1c.2,0,.2-.1.2-.3v-3.3c0-.2-.1-.2-.2-.2h-4.1A.22.22,0,0,0,72.35,180.4ZM96,178.1a1,1,0,0,1,.7,1.7,1.08,1.08,0,0,1-.7.3h-5.9c-.2,0-.2.1-.2.3v5.5a1,1,0,0,1-1.1,1.1,1.61,1.61,0,0,1-.9-.3,1.14,1.14,0,0,1-.3-.8v-5.5c0-.2-.1-.3-.2-.3H81a1,1,0,0,1,0-2h6.4c.2,0,.2-.1.2-.3v-4.5c0-.2-.1-.3-.2-.3h-5.5a1,1,0,0,1,0-2h5.5c.2,0,.2-.1.2-.2v-4.2c0-.2-.1-.3-.2-.3h-6.3a1,1,0,0,1,0-2h3.2c.2,0,.2-.1.1-.2-.5-1-.9-2-1.4-2.8-.1-.2-.2-.5,0-.7a1,1,0,0,1,.6-.5,1.25,1.25,0,0,1,1.6.7,35.39,35.39,0,0,1,1.6,3.4.52.52,0,0,0,.4.2h3.5a.52.52,0,0,0,.4-.2c.7-1.2,1.2-2.3,1.7-3.3a1.24,1.24,0,0,1,1.5-.8c.3.1.5.2.6.5a1.1,1.1,0,0,1,0,.8c-.4.8-.9,1.8-1.5,2.8v.1a.1.1,0,0,0,.1.1h2.2a1,1,0,0,1,0,2h-5.5c-.2,0-.2.1-.2.3v4.2c0,.2.1.2.2.2h5a1,1,0,0,1,0,2h-5c-.2,0-.2.1-.2.3v4.5c0,.2.1.3.2.3H96Z" transform="translate(-3.65 0.05)"/><path class="cls-5" d="M112.55,186.1q-4.8,0-6.6-2.4c-1.2-1.6-1.8-4.5-1.8-8.8,0-3.4.1-7.6.3-12.4a.91.91,0,0,1,.4-.8,1.14,1.14,0,0,1,.8-.3.91.91,0,0,1,.8.4,1.14,1.14,0,0,1,.3.8c-.2,4.8-.3,8.9-.3,12.4a28.58,28.58,0,0,0,.3,4.6,5.64,5.64,0,0,0,1.1,2.7,3.8,3.8,0,0,0,1.8,1.3,10.06,10.06,0,0,0,2.7.3,8,8,0,0,0,5.4-2.1,15.4,15.4,0,0,0,4.2-6.2.9.9,0,0,1,.6-.6,1.1,1.1,0,0,1,.8,0,.9.9,0,0,1,.6.6,1.39,1.39,0,0,1,0,.9,17.39,17.39,0,0,1-5,7.2A9.36,9.36,0,0,1,112.55,186.1Z" transform="translate(-3.65 0.05)"/><path class="cls-5" d="M136.75,177.2a25.28,25.28,0,0,1-3-2.3,2.79,2.79,0,0,1-.6-1.8,2.49,2.49,0,0,1,.7-1.9,20.91,20.91,0,0,1,3.2-2.4c3.3-2.1,6.7-4.7,10.4-7.6a1.4,1.4,0,0,1,.9-.3,1.23,1.23,0,0,1,.8.4.78.78,0,0,1,.2.8,1.23,1.23,0,0,1-.4.8c-3.7,2.9-7.2,5.5-10.4,7.6a23.4,23.4,0,0,0-2.3,1.6,1.38,1.38,0,0,0-.5.9,1.22,1.22,0,0,0,.4.9,12.15,12.15,0,0,0,2,1.5q5.85,4,11.7,9a1.1,1.1,0,0,1-.8,1.9,1.61,1.61,0,0,1-.9-.3C144.35,182.8,140.55,179.9,136.75,177.2Z" transform="translate(-3.65 0.05)"/><path class="cls-5" d="M163.45,185.8a1.49,1.49,0,0,1-.9-.2,1.16,1.16,0,0,1-.5-.7,52.87,52.87,0,0,1,0-22.4,1.16,1.16,0,0,1,.5-.7c.2-.2.5-.2.9-.2a1,1,0,0,1,.7.4.75.75,0,0,1,.1.8,46.06,46.06,0,0,0-1.2,10.9,46.67,46.67,0,0,0,1.2,10.9,1.13,1.13,0,0,1-.1.8A1.61,1.61,0,0,1,163.45,185.8Zm11.2.1a7.42,7.42,0,0,1-4.8-1.4,4.78,4.78,0,0,1-1.7-3.9,4.2,4.2,0,0,1,1.7-3.6,7.42,7.42,0,0,1,4.8-1.3,8.42,8.42,0,0,1,3.5.7c.2.1.2,0,.2-.1v-8c0-.2-.1-.2-.3-.2H170a1,1,0,0,1,0-2h8.1c.2,0,.3-.1.3-.2v-3.7a1.1,1.1,0,1,1,2.2,0v3.7c0,.2.1.2.3.2h4a1,1,0,0,1,0,2h-4c-.2,0-.3.1-.3.2v9.3a.52.52,0,0,0,.2.4,36.83,36.83,0,0,1,4.4,3.8,1.14,1.14,0,0,1,.3.8,1.33,1.33,0,0,1-.3.8,1.22,1.22,0,0,1-1.6,0,29.66,29.66,0,0,0-2.8-2.6c-.2-.1-.2-.1-.2.1C180.25,184.1,178.35,185.9,174.65,185.9Zm-.1-8.2c-2.8,0-4.2,1-4.2,2.8q0,3.3,4.2,3.3a4,4,0,0,0,2.9-.9,4.14,4.14,0,0,0,.9-3v-.8a.52.52,0,0,0-.2-.4A7,7,0,0,0,174.55,177.7Z" transform="translate(-3.65 0.05)"/><path class="cls-5" d="M203.15,185.5a17.69,17.69,0,0,1-8.3-1.7,5.14,5.14,0,0,1-3-4.6c0-1.7,1.2-3.9,3.6-6.4a1.22,1.22,0,0,1,1.6,0,1,1,0,0,1,0,1.4c-1.9,2-2.9,3.6-2.9,4.8s.8,2.4,2.4,3.2a15,15,0,0,0,6.6,1.2,38,38,0,0,0,8.9-1,1.13,1.13,0,0,1,.8.1,2.65,2.65,0,0,1,.5.6,1.06,1.06,0,0,1-.1.8,1.33,1.33,0,0,1-.6.5A41.9,41.9,0,0,1,203.15,185.5Zm-7.5-22.4h15.1a1,1,0,0,1,0,2h-15.1a1,1,0,0,1-.7-1.7A.78.78,0,0,1,195.65,163.1Z" transform="translate(-3.65 0.05)"/><path class="cls-5" d="M222.15,166.7a1,1,0,0,1,0-2H228a.27.27,0,0,0,.3-.3,23.25,23.25,0,0,0,.5-2.8,1,1,0,0,1,.4-.7,1.14,1.14,0,0,1,.8-.3,1,1,0,0,1,.7.4,1.08,1.08,0,0,1,.2.8,24.13,24.13,0,0,1-.5,2.6v.2c0,.1.1.1.2.1h13.3a1,1,0,0,1,0,2h-13.8c-.2,0-.3.1-.3.2a55.41,55.41,0,0,1-2.5,6.8v.1h.1a18.8,18.8,0,0,1,3.8-1.3,18.06,18.06,0,0,1,3.8-.5,10,10,0,0,1,6.2,1.7,5.74,5.74,0,0,1,2.1,4.8,6.19,6.19,0,0,1-2.9,5.3,14.21,14.21,0,0,1-7.9,2,43.18,43.18,0,0,1-6.2-.5.68.68,0,0,1-.6-.4,1.08,1.08,0,0,1-.2-.8.68.68,0,0,1,.4-.6,1.08,1.08,0,0,1,.8-.2,41.46,41.46,0,0,0,5.9.5,11.15,11.15,0,0,0,6.2-1.5,4.57,4.57,0,0,0,2.3-3.9c0-2.9-2-4.4-6.1-4.4a15.23,15.23,0,0,0-7.9,2.2,2.11,2.11,0,0,1-1.9.1c-.3-.1-.4-.3-.5-.6a.75.75,0,0,1,.1-.8,60.1,60.1,0,0,0,3.1-7.8c0-.2,0-.2-.2-.2h-5.5Z" transform="translate(-3.65 0.05)"/><path class="cls-5" d="M253.85,176.8c-.3-.1-.5-.2-.6-.5a1.88,1.88,0,0,1-.2-.8c.3-1.9.7-4.3,1.1-7.4a1.23,1.23,0,0,1,.4-.8.9.9,0,0,1,.9-.2,1.23,1.23,0,0,1,.8.4,1.2,1.2,0,0,1,.2.8c-.4,2.6-.7,4.5-.9,6h.1a15.53,15.53,0,0,1,4.8-2.5,17.62,17.62,0,0,1,5.3-1c5.6,0,8.4,2.2,8.4,6.7a6.6,6.6,0,0,1-3.3,6c-2.2,1.3-5.4,2.1-9.7,2.1-1.5,0-3.2-.1-5.2-.2a.75.75,0,0,1-.7-.4,1.14,1.14,0,0,1-.3-.8.75.75,0,0,1,.4-.7.66.66,0,0,1,.7-.2c2,.2,3.7.3,5,.3,7,0,10.4-2,10.4-6.1,0-3.1-2-4.7-6.1-4.7a13.3,13.3,0,0,0-4.8,1,20.85,20.85,0,0,0-4.9,2.6A2,2,0,0,1,253.85,176.8Zm3.7-14.7a92.49,92.49,0,0,0,11.4.8,1,1,0,0,1,.7,1.7,1.08,1.08,0,0,1-.7.3,90.44,90.44,0,0,1-11.6-.8.75.75,0,0,1-.7-.4,1.08,1.08,0,0,1-.2-.8.75.75,0,0,1,.4-.7A.63.63,0,0,1,257.55,162.1Z" transform="translate(-3.65 0.05)"/></g><polygon class="cls-6" points="168.05 234.35 180.95 212.05 155.25 212.05 168.05 234.35"/></svg>