<?xml version="1.0" encoding="utf-8"?>
<!-- Generator: Adobe Illustrator 25.3.0, SVG Export Plug-In . SVG Version: 6.00 Build 0)  -->
<svg version="1.1" id="レイヤー_1" xmlns="http://www.w3.org/2000/svg" xmlns:xlink="http://www.w3.org/1999/xlink" x="0px"
	 y="0px" viewBox="0 0 687.4 211.2" style="enable-background:new 0 0 687.4 211.2;" xml:space="preserve">
<style type="text/css">
	.st0{fill:#FFFDFE;stroke:#3C0000;stroke-width:1.5;stroke-miterlimit:10;}
	.st1{fill:#D26088;}
	.st2{enable-background:new    ;}
	.st3{fill:#FFFFFF;}
	.st4{fill:#2D2D2D;}
	.st5{font-family:'RoundedMplus1c-Regular';}
	.st6{font-size:30px;}
</style>
<path class="st0" d="M25.9,0.8h635.6c13.9,0,25.2,11.3,25.2,25.1v159.5c0,13.9-11.3,25.1-25.2,25.1H25.9
	c-13.9,0-25.1-11.3-25.1-25.1V25.9C0.8,12,12,0.8,25.9,0.8z"/>
<path class="st1" d="M35,9.5h616.6c13.9,0,25.2,11.3,25.2,25.2v71.4c0,13.9-11.3,25.2-25.2,25.2H35c-13.9,0-25.1-11.3-25.1-25.2
	V34.7C9.9,20.8,21.1,9.5,35,9.5z"/>
<g class="st2">
	<path class="st3" d="M194.2,82.9c0.9,0,1.7,0.3,2.3,1c0.7,0.7,1,1.4,1,2.3v2.4c0,0.9-0.3,1.7-1,2.3c-0.7,0.7-1.4,1-2.3,1h-14.4
		c-0.3,0-0.5,0.2-0.5,0.5v5.1c0,0.9-0.3,1.7-1,2.3c-0.7,0.7-1.4,1-2.3,1h-4.4c-0.9,0-1.7-0.3-2.3-1c-0.7-0.7-1-1.4-1-2.3v-5.1
		c0-0.3-0.2-0.5-0.5-0.5h-21.3c-0.9,0-1.7-0.3-2.3-1s-1-1.4-1-2.3v-2.4c0-0.9,0.3-1.7,1-2.3s1.4-1,2.3-1h4.6c0.3,0,0.5-0.2,0.5-0.5
		v-8.5c0-0.3-0.2-0.5-0.5-0.5c-0.6-0.1-1-0.2-1.3-0.3l-3.8-1.9c-0.8-0.4-1.3-1.1-1.6-1.9c-0.3-0.8-0.2-1.7,0.2-2.4
		c3.1-5.7,5.7-11.4,7.7-17.2c0.3-0.9,0.9-1.6,1.7-2.1c0.8-0.5,1.7-0.6,2.6-0.4l3.9,0.8c0.9,0.2,1.5,0.7,2,1.4
		c0.4,0.7,0.5,1.5,0.2,2.4v0.1l-0.1,0.1c-0.1,0.3,0,0.5,0.3,0.5h28.7c0.9,0,1.7,0.3,2.3,1s1,1.4,1,2.3v2.1c0,0.9-0.3,1.7-1,2.3
		c-0.7,0.7-1.4,1-2.3,1h-12.1c-0.3,0-0.5,0.2-0.5,0.5v5c0,0.3,0.2,0.5,0.5,0.5h10.3c0.9,0,1.7,0.3,2.3,1c0.7,0.7,1,1.4,1,2.3v2.1
		c0,0.9-0.3,1.7-1,2.3c-0.7,0.7-1.4,1-2.3,1h-10.3c-0.3,0-0.5,0.2-0.5,0.5v6.2c0,0.3,0.2,0.5,0.5,0.5H194.2z M168.3,66.5v-5
		c0-0.3-0.2-0.5-0.5-0.5h-7.9c-0.3,0-0.6,0.2-0.7,0.5c-0.8,1.8-1.5,3.5-2.3,5.1c-0.2,0.3-0.1,0.5,0.2,0.5h10.7
		C168.1,67,168.3,66.8,168.3,66.5z M168.3,82.4v-6.2c0-0.3-0.2-0.5-0.5-0.5h-5.3c-0.3,0-0.5,0.2-0.5,0.5v6.2c0,0.3,0.2,0.5,0.5,0.5
		h5.3C168.1,82.9,168.3,82.7,168.3,82.4z"/>
	<path class="st3" d="M226.7,69.5c0,0.9-0.3,1.7-1,2.3c-0.7,0.7-1.4,1-2.3,1h-11c-0.3,0-0.5,0.2-0.5,0.5v24.2c0,0.9-0.3,1.7-1,2.3
		c-0.7,0.7-1.4,1-2.3,1h-3.5c-0.9,0-1.7-0.3-2.3-1c-0.7-0.7-1-1.4-1-2.3v-46c0-0.9,0.3-1.7,1-2.3c0.7-0.7,1.4-1,2.3-1h18.3
		c0.9,0,1.7,0.3,2.3,1c0.7,0.7,1,1.4,1,2.3V69.5z M219.2,57.5V56c0-0.3-0.2-0.5-0.5-0.5h-6.2c-0.3,0-0.5,0.2-0.5,0.5v1.6
		c0,0.3,0.2,0.5,0.5,0.5h6.2C219,58,219.2,57.9,219.2,57.5z M219.2,65.9v-1.6c0-0.3-0.2-0.5-0.5-0.5h-6.2c-0.3,0-0.5,0.2-0.5,0.5
		v1.6c0,0.3,0.2,0.5,0.5,0.5h6.2C219,66.4,219.2,66.2,219.2,65.9z M251.1,48.2c0.9,0,1.7,0.3,2.3,1c0.7,0.7,1,1.4,1,2.3v37.7
		c0,2,0,3.5-0.1,4.6c-0.1,1.1-0.2,2.2-0.5,3.1c-0.3,1-0.7,1.7-1,2.1c-0.4,0.4-1,0.8-1.9,1.1c-0.9,0.3-1.9,0.5-2.9,0.5
		s-2.4,0.1-4.2,0.1c-1.7,0-3.3,0-4.8-0.1c-0.8,0-1.6-0.4-2.3-1c-0.7-0.6-1.1-1.3-1.2-2.2c-0.1-0.3-0.3-0.5-0.5-0.5h-11.2
		c-0.2,0-0.3,0.1-0.3,0.3c0,0.5-0.2,1-0.6,1.4c-0.4,0.4-0.9,0.6-1.4,0.6h-3.1c-0.9,0-1.7-0.3-2.3-1c-0.7-0.7-1-1.4-1-2.3V78.4
		c0-0.9,0.3-1.7,1-2.3c0.7-0.7,1.4-1,2.3-1h19.4c0.9,0,1.7,0.3,2.3,1c0.7,0.7,1,1.4,1,2.3v13.2c0,0.3,0.2,0.5,0.5,0.5h0.4
		c1.1,0,1.8-0.1,2-0.3c0.2-0.2,0.3-0.8,0.3-1.8V73.3c0-0.3-0.2-0.5-0.5-0.5h-11.5c-0.9,0-1.7-0.3-2.3-1c-0.7-0.7-1-1.4-1-2.3v-18
		c0-0.9,0.3-1.7,1-2.3c0.7-0.7,1.4-1,2.3-1H251.1z M232.7,83v-1.3c0-0.3-0.2-0.5-0.5-0.5H224c-0.3,0-0.5,0.2-0.5,0.5V83
		c0,0.3,0.2,0.5,0.5,0.5h8.3C232.6,83.5,232.7,83.3,232.7,83z M232.7,90.8v-1.3c0-0.3-0.2-0.5-0.5-0.5H224c-0.3,0-0.5,0.2-0.5,0.5
		v1.3c0,0.3,0.2,0.5,0.5,0.5h8.3C232.6,91.3,232.7,91.1,232.7,90.8z M244.3,57.5V56c0-0.3-0.2-0.5-0.5-0.5H237
		c-0.3,0-0.5,0.2-0.5,0.5v1.6c0,0.3,0.2,0.5,0.5,0.5h6.8C244.1,58,244.3,57.9,244.3,57.5z M244.3,65.9v-1.6c0-0.3-0.2-0.5-0.5-0.5
		H237c-0.3,0-0.5,0.2-0.5,0.5v1.6c0,0.3,0.2,0.5,0.5,0.5h6.8C244.1,66.4,244.3,66.2,244.3,65.9z"/>
	<path class="st3" d="M304.6,56.9c0.9,0,1.7,0.3,2.3,1s1,1.4,1,2.3v5.4c0,5.8-0.1,10.5-0.4,14.3c-0.3,3.8-0.6,6.8-1.1,9.2
		c-0.5,2.4-1.2,4.2-2.2,5.3c-1,1.2-2,2-3.2,2.3c-1.1,0.4-2.6,0.6-4.5,0.6c-2,0-5.1-0.2-9.5-0.6c-0.9-0.1-1.6-0.5-2.2-1.2
		s-0.8-1.5-0.8-2.4l0.3-3.4c0.1-0.9,0.5-1.6,1.2-2.2c0.7-0.6,1.5-0.8,2.4-0.8c2.2,0.2,3.9,0.3,5.1,0.3c0.8,0,1.4-0.3,1.8-1
		s0.7-2.1,1-4.5c0.2-2.4,0.4-5.9,0.4-10.7v-3.8c0-0.3-0.2-0.5-0.5-0.5h-9.5c-0.3,0-0.5,0.2-0.6,0.5c-0.9,6.9-2.4,12.6-4.7,17.1
		c-2.2,4.5-5.4,8.5-9.5,12.1c-0.7,0.6-1.5,0.8-2.4,0.8c-0.9-0.1-1.7-0.4-2.3-1.1l-2.5-2.7c-0.6-0.7-0.9-1.4-0.8-2.3
		c0.1-0.9,0.5-1.6,1.1-2.2c3-2.7,5.3-5.6,6.9-8.9c1.6-3.3,2.8-7.5,3.5-12.7c0.1-0.3-0.1-0.5-0.4-0.5h-8.6c-0.9,0-1.7-0.3-2.3-1
		c-0.7-0.7-1-1.4-1-2.3v-3.2c0-0.9,0.3-1.7,1-2.3c0.7-0.7,1.4-1,2.3-1h9.4c0.3,0,0.5-0.2,0.5-0.5c0.1-1.8,0.1-3.3,0.1-4.4
		c0-0.9,0.3-1.6,1-2.3c0.7-0.6,1.4-1,2.3-1h4.1c0.9,0,1.7,0.3,2.3,1c0.6,0.7,1,1.4,1,2.4c0,1,0,2.4-0.1,4.2c0,0.3,0.2,0.5,0.5,0.5
		H304.6z"/>
	<path class="st3" d="M366.1,67.8c0.8,0.3,1.5,0.9,1.8,1.8s0.4,1.7,0,2.5c-3.8,9.2-8.9,15.8-15.1,19.7c-6.3,3.9-15,5.9-26,6.1
		c-0.9,0-1.7-0.3-2.3-1c-0.7-0.7-1-1.4-1-2.3V53.8c0-0.9,0.3-1.7,1-2.3c0.7-0.7,1.4-1,2.3-1h5.3c0.9,0,1.7,0.3,2.3,1
		c0.7,0.7,1,1.4,1,2.3v32.6c0,0.3,0.2,0.5,0.5,0.4c5.6-0.8,10.1-2.7,13.5-5.6c3.4-2.9,6.2-7.3,8.6-13.2c0.3-0.8,0.9-1.4,1.7-1.8
		c0.8-0.3,1.6-0.4,2.5-0.1L366.1,67.8z"/>
	<path class="st3" d="M382.3,61.7c-0.8-0.4-1.3-1-1.6-1.8c-0.3-0.8-0.2-1.6,0.2-2.4l2.1-4c0.4-0.8,1.1-1.4,2-1.7s1.8-0.3,2.6,0.1
		c4.2,1.9,8.3,3.9,12.3,5.9c0.8,0.4,1.3,1,1.6,1.8c0.2,0.8,0.1,1.7-0.3,2.4l-2.3,4.2c-0.4,0.8-1.1,1.3-2,1.6
		c-0.9,0.3-1.7,0.2-2.5-0.2C389.9,65.3,385.9,63.3,382.3,61.7z M424.2,57.9c0.9,0.2,1.6,0.7,2.1,1.4c0.5,0.8,0.7,1.6,0.5,2.5
		c-2.3,10.3-6.8,18.3-13.5,23.9c-6.7,5.7-15.9,9.2-27.7,10.6c-0.9,0.1-1.7-0.1-2.5-0.7c-0.7-0.6-1.1-1.3-1.3-2.2l-0.7-4.2
		c-0.2-0.8,0-1.6,0.6-2.4c0.5-0.7,1.3-1.2,2.1-1.3c9.4-1.3,16.6-4,21.6-8.1c5-4.1,8.7-10.1,10.8-18.1c0.2-0.9,0.7-1.6,1.5-2
		c0.8-0.5,1.6-0.6,2.4-0.4L424.2,57.9z"/>
	<path class="st3" d="M477.8,55.9c0.8,0.6,1.2,1.4,1.2,2.5c-0.1,13.1-3,22.9-8.7,29.2S455.5,97.9,443,99.3c-0.9,0.1-1.8-0.1-2.5-0.7
		c-0.7-0.6-1.2-1.3-1.4-2.2l-0.6-3.4c-0.2-0.9,0-1.7,0.6-2.4c0.5-0.7,1.3-1.1,2.1-1.2c8-1.1,13.9-3.1,17.6-6.1
		c0.1-0.1,0.1-0.2,0.1-0.3c0-0.1,0-0.2-0.1-0.2c-3.1-1.6-5.9-2.9-8.3-4c-0.8-0.4-1.4-1-1.6-1.8c-0.3-0.8-0.2-1.7,0.2-2.4l2.1-3.8
		c0.4-0.8,1.1-1.4,2-1.6c0.9-0.3,1.8-0.2,2.6,0.1c2.6,1.2,5.6,2.7,9.2,4.5c0.3,0.2,0.5,0.1,0.6-0.2c0.8-2.5,1.3-5.1,1.6-8
		c0-0.3-0.2-0.5-0.5-0.5h-15.4c-0.3,0-0.6,0.1-0.7,0.4c-2.1,4.4-4.9,8.6-8.5,12.5c-0.6,0.7-1.4,1-2.3,1.1s-1.7-0.3-2.4-0.9l-2.7-2.3
		c-0.7-0.6-1-1.3-1-2.2c0-0.9,0.2-1.7,0.8-2.4c4.6-5.5,7.7-11.7,9.4-18.6c0.2-0.9,0.7-1.7,1.4-2.3c0.7-0.6,1.6-0.8,2.5-0.8l3.8,0.2
		c0.9,0.1,1.7,0.4,2.3,1.1s0.8,1.4,0.6,2.3c0,0.3-0.1,0.8-0.3,1.5c0,0.1,0,0.2,0.1,0.3c0.1,0.1,0.2,0.2,0.3,0.2h17.3
		c0.1,0,0.2-0.1,0.3-0.2c0.1-0.1,0-0.2,0-0.3c-0.2-0.3-0.4-0.8-0.7-1.3c-0.3-0.6-0.5-1-0.7-1.3c-0.4-0.7-0.5-1.5-0.2-2.3
		c0.3-0.8,0.7-1.4,1.5-1.8c0.8-0.4,1.6-0.4,2.3-0.2c0.8,0.3,1.4,0.8,1.8,1.6c0.2,0.3,0.5,0.9,0.8,1.5s0.6,1.2,0.8,1.5
		c0.5,0.8,0.4,1.8-0.1,2.7C477.5,55.5,477.5,55.7,477.8,55.9z M484.9,48.5c0.2,0.4,0.5,0.9,0.8,1.7c0.4,0.7,0.6,1.3,0.8,1.6
		c0.4,0.8,0.4,1.5,0.2,2.3c-0.3,0.8-0.8,1.3-1.6,1.7c-0.8,0.4-1.6,0.4-2.3,0.2c-0.8-0.3-1.4-0.8-1.8-1.6c-0.3-0.7-0.9-1.7-1.7-3.1
		c-0.4-0.8-0.5-1.6-0.2-2.3c0.3-0.8,0.8-1.4,1.5-1.8c0.8-0.4,1.6-0.4,2.4-0.2C483.9,47.3,484.5,47.8,484.9,48.5z"/>
	<path class="st3" d="M538.1,68.7c0.9,0,1.7,0.3,2.3,1c0.7,0.7,1,1.4,1,2.3v4.4c0,0.9-0.3,1.7-1,2.3c-0.7,0.7-1.4,1-2.3,1h-42
		c-0.9,0-1.7-0.3-2.3-1c-0.7-0.7-1-1.4-1-2.3V72c0-0.9,0.3-1.7,1-2.3c0.7-0.7,1.4-1,2.3-1H538.1z"/>
</g>
<text transform="matrix(1 0 0 1 238.34 182.97)" class="st4 st5 st6">詳しくはこちら</text>
</svg>
