<svg id="レイヤー_1" data-name="レイヤー 1" xmlns="http://www.w3.org/2000/svg" viewBox="0 0 108.31 129.53"><defs><style>.cls-1,.cls-4{fill:#d0d1d3;}.cls-1,.cls-3,.cls-6,.cls-8{stroke:#232020;}.cls-1,.cls-2,.cls-3,.cls-6,.cls-7,.cls-8{stroke-miterlimit:10;}.cls-1,.cls-3{stroke-width:0.5px;}.cls-2,.cls-7,.cls-8{fill:none;}.cls-2,.cls-7{stroke:#3c0000;}.cls-2,.cls-8{stroke-linecap:round;stroke-width:2.01px;}.cls-3,.cls-9{fill:#eb5160;}.cls-5{fill:#eaeced;}.cls-6{fill:#dd8793;stroke-width:0.41px;}.cls-7{stroke-width:2.96px;}.cls-10{fill:#ffebc8;}.cls-11{fill:#efd3a5;}.cls-12{fill:#ff92ab;}.cls-13{fill:#fffefd;}.cls-14{fill:#fff6ee;}.cls-15{fill:#3c0000;}</style></defs><path class="cls-1" d="M74.42,9s.24-6.82,1.43-7.65S86.38,1,87.69,1.57,89.25,9,89.25,9Z"/><path class="cls-2" d="M74,8.7S74.23,3,75.3,1.88,84.39.81,87,1.41s1.79,7.41,1.79,7.41"/><path class="cls-3" d="M104,80.77a28.06,28.06,0,0,1-2.36,4.84c-1.2,1.92-42.11,7.18-42.11,7.18C11.23,96.65,18.76,91,11,88.68c-1.86-.55-2.74-.91-2.74-.91-12.44-12-3.83-62.64-3.83-62.64,1.44-16,9.33-15.55,9.33-15.55l79.45-1c13.4,4.55,12.44,32.5,13.64,49.24C107.62,68.6,105.74,76.2,104,80.77Z"/><path class="cls-4" d="M7.55,23.77s36.31-2.55,61-1.91,34.29,1.6,34.29,1.6,0-15.79-13.08-15-56.4.48-56.4.48S12.66,9.58,10,11.33,5.48,20.27,5.32,23.85Z"/><path class="cls-1" d="M19.63,9s.24-6.82,1.44-7.65S31.6,1,32.91,1.57,34.47,9,34.47,9Z"/><path class="cls-3" d="M48.83,12.61s6.38-1,7.42-.4,1.43,5.9,1.35,6.62-5.5,1.75-7.33,1.2A7.79,7.79,0,0,1,47,17.63Z"/><path class="cls-5" d="M9.47,23.62a16.64,16.64,0,0,1,4.46-8.46c3.67-3.51,71.88-2.87,76.82-3s7,4,7.5,5.42A54,54,0,0,1,99.36,23l3.51.48s-.48-14.36-13.08-15-76,1.12-76,1.12-6.54,3-6.7,5.26-1.75,9.73-1.75,9.73Z"/><path class="cls-6" d="M95.85,23.46s3.83,26.75-.47,45.41-17,16.5-25.84,16.5,23.68,3.35,29.9-1.19,6.22-8.61,6.22-8.61,3-31.54-2.79-52.11l-7.37-.72Z"/><path class="cls-7" d="M5.81,18.15s-10,55,.48,67.9,84.23,7.42,95-.48,3.11-61-.24-69.57S92,8.82,80.47,8.34,24,9.06,19,9.3,8.44,8.82,5.81,18.15Z"/><path class="cls-2" d="M8.44,23.83c22-1.75,40.82-1.55,40.82-1.55"/><path class="cls-7" d="M48.12,12.92s-1,3.14-.24,5.31,8.33,1.21,9.42.6.24-5.19-.49-6.28S49.33,11.83,48.12,12.92Z"/><path class="cls-2" d="M19.2,8.7S19.44,3,20.52,1.88,29.61.81,32.24,1.41,34,8.82,34,8.82"/><path class="cls-2" d="M56.07,22.46s20.1-.72,39.47.48"/><line class="cls-8" x1="9.4" y1="32.59" x2="13.86" y2="32.67"/><line class="cls-8" x1="8.28" y1="38.49" x2="14.18" y2="38.33"/><line class="cls-8" x1="7.96" y1="44.71" x2="14.02" y2="44.87"/><line class="cls-8" x1="7.48" y1="66.91" x2="13.54" y2="67.07"/><line class="cls-8" x1="8.92" y1="73.45" x2="14.98" y2="73.61"/><line class="cls-8" x1="11.31" y1="79.19" x2="15.5" y2="79.35"/><line class="cls-8" x1="7.64" y1="52.72" x2="13.54" y2="52.72"/><line class="cls-8" x1="7.96" y1="60.05" x2="13.86" y2="60.05"/><line class="cls-8" x1="100.09" y1="33.22" x2="95.62" y2="33.3"/><line class="cls-8" x1="101.21" y1="39.12" x2="95.31" y2="38.97"/><line class="cls-8" x1="101.53" y1="45.34" x2="95.46" y2="45.5"/><line class="cls-8" x1="102" y1="67.55" x2="95.94" y2="67.71"/><line class="cls-8" x1="100.57" y1="74.09" x2="94.51" y2="74.25"/><line class="cls-8" x1="98.18" y1="79.83" x2="93.99" y2="79.99"/><line class="cls-8" x1="101.84" y1="52.72" x2="95.94" y2="52.72"/><line class="cls-8" x1="101.53" y1="60.69" x2="95.62" y2="60.69"/><path class="cls-9" d="M70.3,124A5.9,5.9,0,0,1,76,119.51h.07a5.93,5.93,0,0,1,5.72,4.5Z"/><path class="cls-9" d="M42,119A5.9,5.9,0,0,1,43.77,126l-9.07-7A5.92,5.92,0,0,1,42,119Z"/><path class="cls-10" d="M44.61,112.51a23.64,23.64,0,0,1-2.1,3.46,8.06,8.06,0,0,0-2-.79,22.35,22.35,0,0,0,2.13-3.39A8,8,0,0,0,44.61,112.51Z"/><path class="cls-10" d="M73.35,109.9a22.55,22.55,0,0,1,1.28,6.91,8.43,8.43,0,0,0-2.11.63,20.6,20.6,0,0,0-1.24-7.06A5.49,5.49,0,0,1,73.35,109.9Z"/><path class="cls-6" d="M80.57,108.89a.35.35,0,0,1-.49.41c-.34-.17-.65-.37-1-.59a8.78,8.78,0,0,0-4.61-1.61.62.62,0,0,0-.19,0l-.48,0a8.57,8.57,0,0,0-5.08,1.52h0l-.17.11a6.52,6.52,0,0,1-7.55,0,9.29,9.29,0,0,0-10.53,0,6.1,6.1,0,0,1-3.78,1.2,6,6,0,0,1-3.77-1.21l-.13-.07s0,0,0,0a9.29,9.29,0,0,0-10.38.11,10.44,10.44,0,0,1-1,.59.3.3,0,0,1-.37,0,.35.35,0,0,1-.12-.38l7.07-21.4c.59.24,1.18.48,1.77.7a3.9,3.9,0,0,0-1.42,4.94,3.9,3.9,0,0,0,2.39,2,34.8,34.8,0,0,0,9.92,1.46,26.25,26.25,0,0,0,14.79-4.17A23.18,23.18,0,0,0,69.55,89l.66-.21h.06l.18-.07,0,0c1-.35,2-.75,3-1.16Z"/><path class="cls-11" d="M74,111.91a20.16,20.16,0,0,0-.6-2,5.49,5.49,0,0,0-2.07.48,18,18,0,0,1,.54,1.72,9.64,9.64,0,0,1,2-.19Z"/><path class="cls-11" d="M41.94,113l.8.47s0,0,0,0l.13.08c.29.19.58.36.86.52.31-.51.59-1,.85-1.55a8,8,0,0,1-2-.72C42.4,112.19,42.17,112.58,41.94,113Z"/><path class="cls-10" d="M76.93,88.87A19.58,19.58,0,0,0,91.58,79.7a1.39,1.39,0,0,0,0-1.53,3.17,3.17,0,0,1-.52-1.61,3.38,3.38,0,0,1,3.25-3.5,3.27,3.27,0,0,1,2.42.94,3.34,3.34,0,0,1-2,5.72,1.38,1.38,0,0,0-1.08.67,21.75,21.75,0,0,1-16,10.49Z"/><path class="cls-10" d="M70.53,83.05a24.92,24.92,0,0,1-1.78,2.55c-.19.24-.38.46-.62.74l-.38.43a21.23,21.23,0,0,1-3.9,3.34A23.56,23.56,0,0,1,50.6,93.82a31.73,31.73,0,0,1-9.11-1.35,1.06,1.06,0,0,1-.66-.55,1.12,1.12,0,0,1,0-.88,1.06,1.06,0,0,1,1-.66,1,1,0,0,1,.3.05A28.91,28.91,0,0,0,56.6,91l.07,0a19.3,19.3,0,0,0,11.81-8.66,1.42,1.42,0,0,0,0-1.52A3.11,3.11,0,0,1,68,79.22a3.24,3.24,0,0,1,.9-2.41,3.3,3.3,0,0,1,2.33-1.09h0a3.34,3.34,0,0,1,.41,6.66A1.42,1.42,0,0,0,70.53,83.05Z"/><path class="cls-12" d="M49.83,67.27H61.61a5.9,5.9,0,0,1-11.78,0Z"/><path class="cls-10" d="M55.72,30.11c-17.29,0-31.36,13.2-31.36,29.43A28.38,28.38,0,0,0,32,78.79,31.37,31.37,0,0,0,38.31,84a32.61,32.61,0,0,0,3.59,2,43.19,43.19,0,0,0,12.24,2.24l.78,0,.85,0h.36a16,16,0,0,0,6.62-3.47,16.9,16.9,0,0,0,2.9-3.26,6.1,6.1,0,0,1-.51-2.16,6.16,6.16,0,0,1,10.45-4.71,6.1,6.1,0,0,1,1.86,4.41,5.49,5.49,0,0,1-.07.91,6.31,6.31,0,0,1-.26,1.08,30.76,30.76,0,0,0,2.31-2.25,28.36,28.36,0,0,0,7.65-19.26C87.08,43.31,73,30.11,55.72,30.11ZM39.28,56.89a3.35,3.35,0,1,1-3.34,3.34A3.34,3.34,0,0,1,39.28,56.89ZM64.43,67A8.71,8.71,0,1,1,47,67V65.86a1.41,1.41,0,0,1,1.41-1.4H63a1.41,1.41,0,0,1,1.41,1.4Zm1.32-19.49a6,6,0,0,1-5-3.08,5.66,5.66,0,0,1-10.07,0,6,6,0,0,1-5,3.08c-3.55,0-6.43-3.7-6.43-8.26a1.41,1.41,0,0,1,2.82,0c0,3,1.65,5.45,3.61,5.45s3.61-2.5,3.61-5.45a1.41,1.41,0,1,1,2.81,0c0,3,1.65,5.45,3.6,5.45s3.61-2.5,3.61-5.45a1.41,1.41,0,1,1,2.81,0c0,3,1.66,5.45,3.61,5.45s3.61-2.5,3.61-5.45a1.41,1.41,0,1,1,2.82,0C72.18,43.82,69.29,47.52,65.75,47.52Zm6.41,16.06a3.35,3.35,0,1,1,3.34-3.35A3.35,3.35,0,0,1,72.16,63.58Z"/><path class="cls-13" d="M77.12,81.05c.11-.09.21-.19.31-.29a5.38,5.38,0,0,0-.07-.69A6.1,6.1,0,0,1,77.12,81.05Z"/><path class="cls-13" d="M65.14,81.4a5.59,5.59,0,0,0,.09.7c.14-.19.29-.38.42-.58a5.88,5.88,0,0,1-.42-1.43A5.74,5.74,0,0,0,65.14,81.4Z"/><path class="cls-14" d="M55.72,32.14c17,0,30.8,12.69,31.34,28.47,0-.36,0-.71,0-1.07,0-16.23-14.06-29.43-31.36-29.43S24.36,43.31,24.36,59.54c0,.36,0,.72,0,1.07C24.92,44.83,38.77,32.14,55.72,32.14Z"/><path class="cls-15" d="M98.68,72a6.12,6.12,0,0,0-4.46-1.74h-.08c-6.37,1-5.82,7.21-5.82,7.21a6.77,6.77,0,0,0,.43,1.41,16.62,16.62,0,0,1-12.22,7.22L84,77.69A31,31,0,0,0,89.9,59.54c0-17.79-15.33-32.25-34.18-32.25S21.54,41.75,21.54,59.54a31,31,0,0,0,5.92,18.14h0c2.66,4,8.11,8,8.11,8l-.21.62L28.2,108a3.16,3.16,0,0,0,4.46,3.79c.44-.23.83-.47,1.2-.7a6,6,0,0,1,3.77-1.21,5.79,5.79,0,0,1,2.53.49,18.78,18.78,0,0,1-3.3,4.68,8.72,8.72,0,0,0-5.39,3.24,1.42,1.42,0,0,0,.26,2l11.57,8.95a1.43,1.43,0,0,0,.86.3l.19,0a1.37,1.37,0,0,0,.92-.53,8.71,8.71,0,0,0-.53-11.3,25.9,25.9,0,0,0,2.87-5,8.79,8.79,0,0,0,4.33-1.6,6.54,6.54,0,0,1,7.55,0,8.72,8.72,0,0,0,5.27,1.64,8.41,8.41,0,0,0,4-.92,18.3,18.3,0,0,1,.8,7.74,8.71,8.71,0,0,0-2.27,5.86,1.41,1.41,0,0,0,1.4,1.41H83.36a1.41,1.41,0,0,0,1.41-1.41,8.74,8.74,0,0,0-7.33-8.6,25.25,25.25,0,0,0-1-6.35,10.3,10.3,0,0,1,1.09.64c.38.23.76.47,1.21.71a3.16,3.16,0,0,0,4.45-3.8L78.49,93.59A24.33,24.33,0,0,0,95.68,82.42a6.16,6.16,0,0,0,3-10.44Zm-67,6.42a28.33,28.33,0,0,1-7.28-18.86c0-16.23,14.07-29.43,31.36-29.43s31.36,13.2,31.36,29.43a28.55,28.55,0,0,1-10,21.51,6.2,6.2,0,0,0,.33-2,6.1,6.1,0,0,0-1.86-4.41,6.18,6.18,0,0,0-10.45,4.71,5.9,5.9,0,0,0,.52,2.16,18.43,18.43,0,0,1-2,2.37,16.17,16.17,0,0,1-7.57,4.36h-.36l-.85,0-.78,0A43.19,43.19,0,0,1,41.9,86a32.61,32.61,0,0,1-3.59-2A30.92,30.92,0,0,1,31.64,78.4Zm36.84,2.44A3.11,3.11,0,0,1,68,79.22a3.24,3.24,0,0,1,.9-2.41,3.3,3.3,0,0,1,2.33-1.09h0a3.34,3.34,0,0,1,.41,6.66,1.42,1.42,0,0,0-1.08.67c-.37.61-.78,1.21-1.21,1.81l-.57.74c-.19.24-.38.46-.62.74l-.38.43a21.23,21.23,0,0,1-3.9,3.34A23.56,23.56,0,0,1,50.6,93.82a31.73,31.73,0,0,1-9.11-1.35,1.06,1.06,0,0,1-.66-.55,1.12,1.12,0,0,1,0-.88,1.06,1.06,0,0,1,1-.66,1,1,0,0,1,.3.05A28.91,28.91,0,0,0,56.6,91l.07,0A19,19,0,0,0,67,84.45a21.88,21.88,0,0,0,1.51-2.09A1.42,1.42,0,0,0,68.48,80.84ZM43.77,126l-9.07-7A5.92,5.92,0,0,1,42,119,5.9,5.9,0,0,1,43.77,126ZM42.51,116a8.06,8.06,0,0,0-2-.79,22.35,22.35,0,0,0,2.13-3.39,8,8,0,0,0,2,.72A23.64,23.64,0,0,1,42.51,116Zm39.27,8H70.3A5.9,5.9,0,0,1,76,119.51h.07A5.93,5.93,0,0,1,81.78,124Zm-10.5-13.62a5.49,5.49,0,0,1,2.07-.48,22.55,22.55,0,0,1,1.28,6.91,8.43,8.43,0,0,0-2.11.63A20.6,20.6,0,0,0,71.28,110.38Zm9.29-1.49a.35.35,0,0,1-.49.41c-.34-.17-.65-.37-1-.59a8.69,8.69,0,0,0-4.61-1.61.62.62,0,0,0-.19,0l-.48,0a8.57,8.57,0,0,0-5.08,1.52h0l-.17.11a6.52,6.52,0,0,1-7.55,0,9.29,9.29,0,0,0-10.53,0,6.1,6.1,0,0,1-3.78,1.2,6,6,0,0,1-3.77-1.21l-.13-.07s0,0,0,0a9.29,9.29,0,0,0-10.38.11,10.44,10.44,0,0,1-1,.59.3.3,0,0,1-.37,0,.35.35,0,0,1-.12-.38l7.07-21.4c.59.24,1.18.48,1.77.7a3.9,3.9,0,0,0-1.42,4.94,3.9,3.9,0,0,0,2.39,2,34.8,34.8,0,0,0,9.92,1.46,26.25,26.25,0,0,0,14.79-4.17A23.18,23.18,0,0,0,69.55,89l.66-.21h.06l.18-.07,0,0c1-.35,2-.75,3-1.16ZM94.71,79.72a1.38,1.38,0,0,0-1.08.67,21.75,21.75,0,0,1-16,10.49l-.67-2A19.58,19.58,0,0,0,91.58,79.7a1.39,1.39,0,0,0,0-1.53,3.08,3.08,0,0,1-.52-1.61,3.38,3.38,0,0,1,3.25-3.5,3.28,3.28,0,0,1,2.42.94,3.34,3.34,0,0,1-2,5.72Z"/><circle class="cls-15" cx="72.16" cy="60.23" r="3.34" transform="translate(-3.1 116.54) rotate(-76.66)"/><path class="cls-15" d="M70.77,37.85a1.41,1.41,0,0,1,1.41,1.41c0,4.56-2.89,8.26-6.43,8.26a6,6,0,0,1-5-3.08,5.66,5.66,0,0,1-10.07,0,6,6,0,0,1-5,3.08c-3.55,0-6.43-3.7-6.43-8.26a1.41,1.41,0,0,1,2.82,0c0,3,1.65,5.45,3.61,5.45s3.61-2.5,3.61-5.45a1.41,1.41,0,1,1,2.81,0c0,3,1.65,5.45,3.6,5.45s3.61-2.5,3.61-5.45a1.41,1.41,0,1,1,2.81,0c0,3,1.66,5.45,3.61,5.45s3.61-2.5,3.61-5.45A1.41,1.41,0,0,1,70.77,37.85Z"/><path class="cls-15" d="M64.43,65.86V67A8.71,8.71,0,1,1,47,67V65.86a1.41,1.41,0,0,1,1.41-1.4H63A1.41,1.41,0,0,1,64.43,65.86Zm-2.82,1.41H49.83a5.9,5.9,0,0,0,11.78,0Z"/><circle class="cls-15" cx="39.28" cy="60.23" r="3.34" transform="translate(-28.39 84.56) rotate(-76.66)"/><path class="cls-11" d="M77.12,81.05a30.76,30.76,0,0,0,2.31-2.25c-.66.41-1.35.8-2.05,1.17A6.31,6.31,0,0,1,77.12,81.05Z"/><path class="cls-11" d="M32,78.79A31.37,31.37,0,0,0,38.31,84a32.61,32.61,0,0,0,3.59,2,43.19,43.19,0,0,0,12.24,2.24l.78,0,.85,0h.36a16,16,0,0,0,6.62-3.47,46.44,46.44,0,0,1-7,.52A45.84,45.84,0,0,1,32,78.79Z"/><circle class="cls-6" cx="34.05" cy="70.6" r="3.86" transform="translate(-42.51 87.42) rotate(-76.65)"/><circle class="cls-6" cx="77.4" cy="70.6" r="3.86" transform="translate(-9.17 129.6) rotate(-76.65)"/><path class="cls-15" d="M94.22,70.24s-6.13.76-5.9,7.22"/></svg>