<svg id="レイヤー_1" data-name="レイヤー 1" xmlns="http://www.w3.org/2000/svg" viewBox="0 0 111.7 124.29"><defs><style>.cls-1{fill:#3c0000;}.cls-2{fill:#b86a39;}.cls-3{fill:#f5b887;}.cls-4{fill:#fd974f;}.cls-5{fill:#ffebc8;}.cls-6{fill:#efd3a5;}.cls-7{fill:#ffce8d;}.cls-8{fill:#fff6ee;}.cls-9{fill:#ff92ab;}</style></defs><path class="cls-1" d="M17.73,84.45A5.36,5.36,0,0,1,12.2,79.3V46.53l-1.14-.59C1.26,40.93,0,32,0,24.71A22.81,22.81,0,0,1,8.26,7C13.67,2.4,21.15,0,29.9,0c9,0,17.51,2.66,23.83,7.48L56.12,9.3,58.5,7.48C64.83,2.66,73.29,0,82.34,0c8.71,0,16.13,2.5,21.44,7.23a23.63,23.63,0,0,1,7.92,17.92c0,7.45-.81,15.83-10.53,20.79l-1.14.59V79.3a5.36,5.36,0,0,1-5.53,5.15Z"/><path class="cls-2" d="M17.73,80.93a1.86,1.86,0,0,1-2-1.63V44.38l-3.05-1.56C4.72,38.76,3.51,31.71,3.51,24.71c0-11.93,9.89-21.2,26.39-21.2,8.28,0,16,2.4,21.7,6.76l4.52,3.45,4.51-3.45c5.72-4.36,13.43-6.76,21.71-6.76,16.49,0,25.85,9.71,25.85,21.64,0,7-.68,13.61-8.62,17.67l-3,1.56V79.3a1.86,1.86,0,0,1-2,1.63Z"/><path class="cls-3" d="M45,15.62c-2.63,0-2.63,4.09,0,4.09S47.63,15.62,45,15.62Z"/><path class="cls-3" d="M15.29,24.15l-.24-.56a2.31,2.31,0,0,0-.85-.85l-.1-.07a2.06,2.06,0,0,0-2.19,0l-.1.07a1.84,1.84,0,0,0-.66.61,1.83,1.83,0,0,0-.43.8,3,3,0,0,0,.07,1.56,2.26,2.26,0,0,0,.82,1.19,2.22,2.22,0,0,0,1.4.5,2.84,2.84,0,0,0,1.16-.32,2.3,2.3,0,0,0,1.05-1.37A2.68,2.68,0,0,0,15.29,24.15Z"/><path class="cls-3" d="M29.2,10.86a2.92,2.92,0,0,0-2-.82,2.87,2.87,0,0,0-2,.82,2.8,2.8,0,0,0,0,3.94,2.92,2.92,0,0,0,2,.82,2.88,2.88,0,0,0,2-.82,2.8,2.8,0,0,0,0-3.94Z"/><path class="cls-3" d="M71.36,14.58a2,2,0,0,0-1.24-.95l-.27,0a2.13,2.13,0,0,0-1.12,0,2.19,2.19,0,0,0-.93.54,2.22,2.22,0,0,0-.61,1.49,2.09,2.09,0,0,0,1.54,2,2.13,2.13,0,0,0,1.12,0l.27,0,.5-.21a1.46,1.46,0,0,0,.57-.53,2,2,0,0,0,.45-1.25A2.48,2.48,0,0,0,71.36,14.58Z"/><path class="cls-3" d="M92.71,70.05a1.56,1.56,0,0,0,0,3.11A1.56,1.56,0,0,0,92.71,70.05Z"/><path class="cls-3" d="M79.36,70a2.4,2.4,0,0,0-1.61-.66h-.21a2.27,2.27,0,0,0-2.28,2.28,2.27,2.27,0,0,0,2.28,2.27h.21a2.36,2.36,0,0,0,1.61-.66A2.39,2.39,0,0,0,80,71.61,2.35,2.35,0,0,0,79.36,70Z"/><path class="cls-3" d="M23.71,73.16A2.62,2.62,0,0,0,22,72.44h-.21a1.91,1.91,0,0,0-.94.21,1.86,1.86,0,0,0-.79.51,2.53,2.53,0,0,0-.72,1.73A2.49,2.49,0,0,0,20,76.63l.5.38a2.53,2.53,0,0,0,1.23.34H22a2.58,2.58,0,0,0,1.74-.72,2.46,2.46,0,0,0,0-3.48Z"/><path class="cls-3" d="M93.34,29.4l0,.17a1.93,1.93,0,0,0,3.7,0l0-.17C97.79,26.26,92.65,26.24,93.34,29.4Z"/><path class="cls-3" d="M26.51,40.53a2.29,2.29,0,0,0-2.2-.58,2.43,2.43,0,0,0-1.18.73,1.71,1.71,0,0,0-.47.74,1.63,1.63,0,0,0-.19.87,2.25,2.25,0,0,0,2.27,2.28l.61-.08a2.3,2.3,0,0,0,1-.58,2.45,2.45,0,0,0,.74-1.18A2.29,2.29,0,0,0,26.51,40.53Z"/><path class="cls-3" d="M87,10.79a2.19,2.19,0,0,0-.65-1.33v0a2.3,2.3,0,0,0-2.7-.35h0a2.29,2.29,0,0,0-1,1.35l-.08.6a2.26,2.26,0,0,0,.3,1.14,2.32,2.32,0,0,0,.86.87,2.29,2.29,0,0,0,1.77.22,2.44,2.44,0,0,0,1.14-.78,2.14,2.14,0,0,0,.47-1.33A2.32,2.32,0,0,0,87,10.79Z"/><path class="cls-3" d="M91.13,42.65a2.65,2.65,0,0,0-2-1.83,2.44,2.44,0,0,0-1.51.11,2.2,2.2,0,0,0-1.11,1,2.84,2.84,0,0,0-.32,1.17,2.32,2.32,0,0,0,.68,1.64,4.23,4.23,0,0,0,.72.56,4.55,4.55,0,0,0,.64.27,1.88,1.88,0,0,0,.94,0,1.1,1.1,0,0,0,.37-.06,2.48,2.48,0,0,0,1.39-1.07A2.44,2.44,0,0,0,91.13,42.65Z"/><path class="cls-3" d="M59.42,71c-2.93,0-2.94,4.56,0,4.56S62.35,71,59.42,71Z"/><path class="cls-3" d="M81.68,22.73l-.45-.35a2.25,2.25,0,0,0-1.13-.3h-.21a1.68,1.68,0,0,0-.86.2,1.62,1.62,0,0,0-.72.46,2.22,2.22,0,0,0,0,3.16l.45.35a2.22,2.22,0,0,0,1.13.3.72.72,0,0,0,.21,0,2.35,2.35,0,0,0,1.58-.66,2.27,2.27,0,0,0,.66-1.58A2.31,2.31,0,0,0,81.68,22.73Z"/><path class="cls-4" d="M69.41,121.47H57.93a5.91,5.91,0,0,1,11.48,0Z"/><path class="cls-4" d="M54.29,121.47H42.81a5.91,5.91,0,0,1,11.48,0Z"/><path class="cls-5" d="M51.53,112.24l-1.39,2.07a8.32,8.32,0,0,0-1.59-.16c-.3,0-.59,0-.89,0L49.14,112l.27-.41-.9-1.52a7.93,7.93,0,0,0,2.11-.58l.76,1.28.19.32A1.05,1.05,0,0,1,51.53,112.24Z"/><path class="cls-5" d="M64.56,114.2a8.53,8.53,0,0,0-.89,0,8.22,8.22,0,0,0-1.58.16l-1.4-2.08a1,1,0,0,1,0-1.12l.18-.31.77-1.29a8.17,8.17,0,0,0,2.1.59l-.9,1.51.28.43Z"/><path class="cls-5" d="M96.83,93.67l-3,3a1,1,0,0,1-.76.33l-.18,0c-8.44-1.45-13.64-8.09-16-12l-.4-1.24.76-.43.9-.4c1.61,2.89,6.16,9.76,13.8,11.71a1.38,1.38,0,0,0,.67,0Z"/><path class="cls-5" d="M35.39,84.86l0,.12c-2.38,3.92-7.59,10.57-16,12a1.12,1.12,0,0,1-.95-.3l-3-3,4.22,1a1.38,1.38,0,0,0,.67,0c6.86-1.76,11.24-7.49,13.21-10.71C34.13,84.24,34.76,84.56,35.39,84.86Z"/><path class="cls-6" d="M81,106.36a.32.32,0,0,1-.11.36.3.3,0,0,1-.38,0,10.44,10.44,0,0,1-1-.59,9.33,9.33,0,0,0-10.55,0A6.19,6.19,0,0,1,66,107.33a8.11,8.11,0,0,1-.86,0,5.71,5.71,0,0,1-3.34-.93l-.42-.26a9.29,9.29,0,0,0-10.57,0l-.41.25a5.76,5.76,0,0,1-3.35.94,7.92,7.92,0,0,1-.85,0,6.18,6.18,0,0,1-2.93-1.16,9.29,9.29,0,0,0-10.53,0,10.44,10.44,0,0,1-1,.59.32.32,0,0,1-.38,0,.36.36,0,0,1-.11-.38L38,86a46.11,46.11,0,0,0,10.74,2.81c1.24.16,2.47.27,3.68.33a34.66,34.66,0,0,0,3.69.19,35.91,35.91,0,0,0,12.47-2.22A47.13,47.13,0,0,0,73.92,85Z"/><path class="cls-6" d="M50.62,109.51l.76,1.28-.56.35-.41.26a6.82,6.82,0,0,1-1.27.62l.27-.41-.9-1.52A7.93,7.93,0,0,0,50.62,109.51Z"/><path class="cls-6" d="M62.81,111.61l.28.43a6.65,6.65,0,0,1-1.28-.64,4.28,4.28,0,0,1-.42-.26l-.55-.34.77-1.29a8.17,8.17,0,0,0,2.1.59Z"/><path class="cls-1" d="M39.73,28.64C29.1,34.13,21.87,44.78,21.87,57a31.21,31.21,0,0,0,9,21.84,1.46,1.46,0,0,1,.51.51l.09.09-.05,0a1.68,1.68,0,0,1,.17,1.22,2.09,2.09,0,0,1,0,.25,1.53,1.53,0,0,1-.07.36c0,.12,0,.25-.05.38a1.69,1.69,0,0,1-.2.5s0,0,0,0a1.62,1.62,0,0,1-.22.41c-1.73,2.8-5.45,7.66-11.15,9.27l-8.58-2a1.39,1.39,0,0,0-1.54.68A1.41,1.41,0,0,0,10,92.2l6.36,6.47a3.82,3.82,0,0,0,2.76,1.16,5.27,5.27,0,0,0,.65,0,24.18,24.18,0,0,0,13-7l-4.18,12.68A3.16,3.16,0,0,0,33,109.27c.45-.22.83-.47,1.21-.7a6.5,6.5,0,0,1,7.54,0A9.18,9.18,0,0,0,45.2,110l.88,1.49-3.24,4.78a8.71,8.71,0,0,0-3,6.58,1.41,1.41,0,0,0,1.4,1.41H55.87a2,2,0,0,0,.24,0,1.9,1.9,0,0,0,.25,0H71a1.41,1.41,0,0,0,1.41-1.41,8.71,8.71,0,0,0-3-6.58l-3.24-4.78L67,110a9,9,0,0,0,3.38-1.46,6.53,6.53,0,0,1,7.56,0c.37.23.76.48,1.2.71a3.17,3.17,0,0,0,4.46-3.8L79.44,92.79a24.27,24.27,0,0,0,13,7,4.32,4.32,0,0,0,.62,0,3.83,3.83,0,0,0,2.76-1.16l6.37-6.47a1.44,1.44,0,0,0,.22-1.68,1.4,1.4,0,0,0-1.55-.68l-8.58,2c-6.75-1.9-10.69-8.3-11.86-10.5,3.24-4.5,5.42-8.36,5.42-8.36a30.69,30.69,0,0,0,4.49-16c0-17.81-15.37-32.3-34.25-32.3-.7,0-1.4,0-2.09.06l-2.76.69,2.4-.67A35.67,35.67,0,0,0,41.1,28M24.82,57c0-16.19,14-29.36,31.29-29.36S87.41,40.81,87.41,57c0,13-9.06,24.06-21.56,27.91a42.82,42.82,0,0,1-11.53,1.4C37.89,85.44,24.82,72.63,24.82,57ZM19.33,97a1.12,1.12,0,0,1-.95-.3l-3-3,4.22,1a1.38,1.38,0,0,0,.67,0c6.86-1.76,11.24-7.49,13.21-10.71.62.32,1.25.64,1.88.94l0,.12C33,88.9,27.76,95.55,19.33,97Zm23.48,24.47a5.91,5.91,0,0,1,11.48,0Zm5.7-11.38a7.93,7.93,0,0,0,2.11-.58l1,1.6a1.05,1.05,0,0,1,0,1.13l-1.39,2.07a8.32,8.32,0,0,0-1.59-.16c-.3,0-.59,0-.89,0l1.75-2.59Zm7.6,8.46a8.74,8.74,0,0,0-3.25-3.25l1-1.48a3.93,3.93,0,0,0,.12-4.16l-.93-1.54a6.5,6.5,0,0,1,6.1,0l-.92,1.54a3.89,3.89,0,0,0,.12,4.16l1,1.48A8.81,8.81,0,0,0,56.11,118.55Zm13.3,2.92H57.93a5.91,5.91,0,0,1,11.48,0Zm-4.85-7.27a8.53,8.53,0,0,0-.89,0,8.22,8.22,0,0,0-1.58.16l-1.4-2.08a1,1,0,0,1,0-1.12l1-1.6a8.17,8.17,0,0,0,2.1.59l-.9,1.51ZM81,106.36a.32.32,0,0,1-.11.36.3.3,0,0,1-.38,0c-.34-.17-.65-.37-1-.59a9.33,9.33,0,0,0-10.55,0A6.14,6.14,0,0,1,66,107.33a8.11,8.11,0,0,1-.86,0,5.73,5.73,0,0,1-3.34-.93l-.42-.26a9.29,9.29,0,0,0-10.57,0l-.41.25a5.76,5.76,0,0,1-3.35.94,7.92,7.92,0,0,1-.85,0,6.18,6.18,0,0,1-2.93-1.16,9.29,9.29,0,0,0-10.53,0,10.44,10.44,0,0,1-1,.59.32.32,0,0,1-.38,0,.36.36,0,0,1-.11-.38L38,86a46.11,46.11,0,0,0,10.74,2.81c1.24.16,2.47.27,3.68.33a34.66,34.66,0,0,0,3.69.19,35.91,35.91,0,0,0,12.47-2.22A47.13,47.13,0,0,0,73.92,85Zm12.89-9.67a1,1,0,0,1-.76.33l-.18,0c-8.44-1.45-13.64-8.09-16-12l-.4-1.24.76-.43.9-.4c1.61,2.89,6.16,9.76,13.8,11.71a1.38,1.38,0,0,0,.67,0l4.23-1Z"/><path class="cls-1" d="M53.66,24.78a35.62,35.62,0,0,0-13.93,3.86Z"/><path class="cls-5" d="M56.11,27.64C38.86,27.64,24.82,40.81,24.82,57a28.18,28.18,0,0,0,8,19.56,32,32,0,0,0,21.52,9.75,42.82,42.82,0,0,0,11.53-1.4,31.38,31.38,0,0,0,15-10A28,28,0,0,0,87.41,57C87.41,40.81,73.37,27.64,56.11,27.64ZM71.62,53.26a1.41,1.41,0,0,1-.5,1.93l-4.28,2.52,4.28,2.51a1.41,1.41,0,0,1,.5,1.93,1.39,1.39,0,0,1-1.21.69,1.46,1.46,0,0,1-.72-.19l-6.34-3.73a1.38,1.38,0,0,1-.7-1.21,1.41,1.41,0,0,1,.7-1.22l6.34-3.73A1.41,1.41,0,0,1,71.62,53.26ZM63.19,72.82a1.4,1.4,0,0,1-1.24.73H50.27a1.41,1.41,0,0,1-1.19-2.16l5.84-9.17a1.41,1.41,0,0,1,2.38,0l5.84,9.17A1.39,1.39,0,0,1,63.19,72.82ZM40.83,35.47a1.42,1.42,0,0,1,1.54-1.26,1.4,1.4,0,0,1,1.26,1.54c-.17,1.74.24,3.12,1,3.52C46,39.9,48.62,38.2,50.25,35a1.41,1.41,0,0,1,2.66.78c-.18,1.73.22,3.11,1,3.51,1.29.63,4-1.07,5.57-4.29a1.41,1.41,0,0,1,2.66.78c-.18,1.73.22,3.11,1,3.51,1.29.63,4-1.07,5.58-4.29a1.41,1.41,0,0,1,2.52,1.27c-2.3,4.55-6.4,7-9.34,5.54a4.38,4.38,0,0,1-2.12-2.35c-2.23,2.4-5,3.41-7.14,2.35a4.41,4.41,0,0,1-2.12-2.33,7.52,7.52,0,0,1-5.26,2.76,4.21,4.21,0,0,1-1.88-.43C41.5,40.83,40.53,38.47,40.83,35.47Zm.28,19.72a1.41,1.41,0,0,1,1.42-2.43l6.35,3.73a1.42,1.42,0,0,1,.69,1.22,1.39,1.39,0,0,1-.69,1.21l-6.35,3.73a1.42,1.42,0,0,1-1.93-.5,1.41,1.41,0,0,1,.51-1.93l4.28-2.51Z"/><path class="cls-7" d="M54.32,92.18a42.82,42.82,0,0,0,11.53-1.41,32.11,32.11,0,0,0,8.6-4.14L73.92,85a47.13,47.13,0,0,1-5.34,2.06A35.91,35.91,0,0,1,56.11,89.3a34.66,34.66,0,0,1-3.69-.19c-1.21-.06-2.44-.17-3.68-.33A46.11,46.11,0,0,1,38,86l-.22.66A32.34,32.34,0,0,0,54.32,92.18Z"/><path class="cls-8" d="M56.11,29.68c16.93,0,30.76,12.68,31.27,28.45,0-.37,0-.75,0-1.13,0-16.19-14-29.36-31.3-29.36S24.82,40.81,24.82,57c0,.35,0,.69,0,1C25.41,42.31,39.21,29.68,56.11,29.68Z"/><path class="cls-1" d="M71.62,53.26a1.41,1.41,0,0,1-.5,1.93l-4.28,2.52,4.28,2.51a1.41,1.41,0,0,1,.5,1.93,1.39,1.39,0,0,1-1.21.69,1.46,1.46,0,0,1-.72-.19l-6.34-3.73a1.38,1.38,0,0,1-.7-1.21,1.41,1.41,0,0,1,.7-1.22l6.34-3.73A1.41,1.41,0,0,1,71.62,53.26Z"/><path class="cls-1" d="M70.67,34.36a1.41,1.41,0,0,1,.63,1.89c-2.3,4.55-6.4,7-9.34,5.54a4.38,4.38,0,0,1-2.12-2.35c-2.23,2.4-5,3.41-7.14,2.35a4.41,4.41,0,0,1-2.12-2.33,7.52,7.52,0,0,1-5.26,2.76,4.21,4.21,0,0,1-1.88-.43c-1.94-1-2.91-3.32-2.61-6.32a1.42,1.42,0,0,1,1.54-1.26,1.4,1.4,0,0,1,1.26,1.54c-.17,1.74.24,3.12,1,3.52C46,39.9,48.62,38.2,50.25,35a1.41,1.41,0,0,1,2.66.78c-.18,1.73.22,3.11,1,3.51,1.29.63,4-1.07,5.57-4.29a1.41,1.41,0,0,1,2.66.78c-.18,1.73.22,3.11,1,3.51,1.29.63,4-1.07,5.58-4.29A1.4,1.4,0,0,1,70.67,34.36Z"/><path class="cls-1" d="M63.14,71.39a1.39,1.39,0,0,1,0,1.43,1.4,1.4,0,0,1-1.24.73H50.27a1.41,1.41,0,0,1-1.19-2.16l5.84-9.17a1.41,1.41,0,0,1,2.38,0Zm-3.75-.66-3.28-5.14-3.27,5.14Z"/><polygon class="cls-9" points="56.11 65.59 59.39 70.73 52.84 70.73 56.11 65.59"/><path class="cls-1" d="M48.88,56.49a1.42,1.42,0,0,1,.69,1.22,1.39,1.39,0,0,1-.69,1.21l-6.35,3.73a1.41,1.41,0,1,1-1.42-2.43l4.28-2.51-4.28-2.52a1.41,1.41,0,0,1,1.42-2.43Z"/><circle class="cls-6" cx="34.4" cy="68.07" r="3.86" transform="translate(-38.06 44.26) rotate(-45)"/><circle class="cls-6" cx="77.75" cy="68.07" r="3.86" transform="translate(-6.36 128.11) rotate(-76.72)"/><path class="cls-6" d="M56.08,83.92c9.53,0,18.15-4.25,24.81-9a31.38,31.38,0,0,1-15,10,42.82,42.82,0,0,1-11.53,1.4A32,32,0,0,1,32.8,76.56C39.43,80.61,47.48,83.92,56.08,83.92Z"/></svg>