<svg id="レイヤー_1" data-name="レイヤー 1" xmlns="http://www.w3.org/2000/svg" viewBox="0 0 111.26 127.93"><defs><style>.cls-1{fill:#f59f37;}.cls-1,.cls-2,.cls-3,.cls-4,.cls-6,.cls-8{fill-rule:evenodd;}.cls-2{fill:#eec26b;}.cls-3{fill:#d68630;}.cls-4{fill:#cf906a;}.cls-5,.cls-6{fill:#3c0000;}.cls-7{fill:#bf784c;}.cls-8{fill:#fff;}.cls-9{fill:#fd974f;}.cls-10{fill:#ffce8d;}.cls-11{fill:#ffebc8;}.cls-12{fill:#fff6ee;}.cls-13{fill:#efd3a5;}.cls-14{fill:#e2d7c2;}</style></defs><path class="cls-1" d="M102.42,44.71c0,16.73,0,31.39-13,39.51-8.08,8.89-58.35,8.89-66.43,0C10,76.1,10,61.44,10,44.71c0-2.28,1-29.09,1.34-30C13,10,15,.29,21.36,1.28A229.21,229.21,0,0,0,91,1.28c6.33-1,8.29,8.68,10,13.39.35.95,1.34,27.76,1.34,30Z"/><path class="cls-2" d="M88.56,36.92a4.19,4.19,0,1,0-4.15-4.19,4.2,4.2,0,0,0,4.15,4.19Z"/><path class="cls-2" d="M93.17,50.23A2.24,2.24,0,1,0,91,48a2.24,2.24,0,0,0,2.22,2.22Z"/><path class="cls-2" d="M91,61a1.44,1.44,0,0,0,1.42-1.43A1.41,1.41,0,0,0,91,58.11a1.44,1.44,0,0,0-1.43,1.42A1.47,1.47,0,0,0,91,61Z"/><path class="cls-2" d="M25.24,32.79a3.06,3.06,0,1,0-3.06-3.05,3.08,3.08,0,0,0,3.06,3.05Z"/><path class="cls-2" d="M17.93,38.52A1.9,1.9,0,1,0,16,36.62a1.9,1.9,0,0,0,1.89,1.9Z"/><path class="cls-2" d="M18.33,62a1.51,1.51,0,0,0,1.53-1.51,1.52,1.52,0,0,0-3,0A1.51,1.51,0,0,0,18.33,62Z"/><path class="cls-2" d="M20.78,50.9a2.83,2.83,0,0,0,2.88-2.83,2.86,2.86,0,0,0-5.71,0,2.83,2.83,0,0,0,2.83,2.83Z"/><path class="cls-3" d="M102.42,44.71c0,16.73,0,31.39-13,39.51-8.08,8.89-58.35,8.89-66.43,0-.21-.49-.21-1,.63-1,19.62,4.18,50.93,8,64.4-5.2,13.32-13,8.89-49.45,8-51.73-1.66-4.57-37.3-4-37.3-4L56.93,4A227.64,227.64,0,0,0,91,1.28c6.33-1,8.29,8.68,10,13.39.35.95,1.34,27.76,1.34,30Z"/><path class="cls-3" d="M23,84.22C10,76.1,10,61.44,10,44.71c0-2.25.92-28.18,1.3-30L21.5,19.52c-1.79.28-5.52.91-5.59,2.22-2.39,34.09,0,50.18,1.66,52.92C18.23,75.82,19.5,80,23,84.22Z"/><path class="cls-1" d="M11.2,15.37a3.12,3.12,0,0,1,.11-.7C13,10,15,.29,21.36,1.28A229.21,229.21,0,0,0,91,1.28c6.33-1,8.29,8.68,10,13.39a5,5,0,0,1,.11.88C87,24.83,19,24.16,11.2,15.37Z"/><path class="cls-4" d="M11.2,15.37a3.12,3.12,0,0,1,.11-.7C13,10,15,.29,21.36,1.28c3.13.49,6.29.91,9.46,1.26-9.63-.1-11.32-.56-14.63,8-2.88,7.53,1.66,6.86,5.31,9-5.13-1.09-8.82-2.46-10.3-4.15Z"/><path class="cls-5" d="M103.61,44.71c0,8.44,0,16.35-1.68,23.27s-5,12.94-11.78,17.15a1.61,1.61,0,0,1-.39.39C85,89.88,70.54,92.06,56.2,92.06h0c-14.38,0-28.79-2.18-33.57-6.54a3,3,0,0,1-.42-.39C15.49,80.92,12.12,75,10.43,68S8.78,53.15,8.78,44.71c0-1.33.35-15.38.7-21.71.25-4.43.53-8.22.7-8.75.29-.74.53-1.51.81-2.39C12.75,6.51,15.14-.87,21.54.08A225.17,225.17,0,0,0,56.23,2.75,224.27,224.27,0,0,0,90.85.08c6.37-.95,8.79,6.43,10.51,11.78.29.88.57,1.65.81,2.39h0a79.25,79.25,0,0,1,.74,8.75c.35,6.33.7,20.38.7,21.71Zm-4,22.71c1.58-6.61,1.58-14.38,1.58-22.71,0-1.37-.35-15.35-.7-21.57-.25-4.25-.46-7.8-.56-8h0c-.25-.7-.53-1.58-.85-2.49C97.64,8.06,95.6,1.77,91.21,2.44a230.23,230.23,0,0,1-35,2.7,231,231,0,0,1-35-2.7c-4.4-.67-6.44,5.62-8,10.16-.28.91-.56,1.79-.81,2.49-.1.28-.35,3.8-.59,8.05-.36,6.22-.67,20.2-.67,21.57,0,8.33,0,16.1,1.58,22.71S17.39,79.33,23.61,83.2l.25.21a1.45,1.45,0,0,0,.35.35c4.36,4,18.14,5.94,32,5.94h0c13.85,0,27.62-2,32-5.94a3,3,0,0,0,.38-.35l.25-.21c6.19-3.87,9.28-9.28,10.86-15.78Z"/><path class="cls-6" d="M5.47,24A5.47,5.47,0,0,1,5.47,13H105.79a5.47,5.47,0,0,1,0,10.94Z"/><rect class="cls-7" x="2.24" y="15.26" width="106.79" height="6.47" rx="3.24"/><path class="cls-6" d="M56.22,25.81a7.32,7.32,0,1,0-7.32-7.32,7.35,7.35,0,0,0,7.32,7.32Z"/><path class="cls-8" d="M59.23,13.94a5.26,5.26,0,0,1,1.33,6.78,5.19,5.19,0,0,1-6.78,2.67l.43-.43a10.23,10.23,0,0,0,2.39-4.3,15.43,15.43,0,0,1,2.63-4.72Zm-6.26,9a5.34,5.34,0,0,1-1.14-6.68,5.21,5.21,0,0,1,6.59-2.72,14.11,14.11,0,0,0-2.63,4.82,10.08,10.08,0,0,1-2.25,4.06c-.19.19-.38.33-.57.52Z"/><path class="cls-9" d="M49.38,125.11H37.89a5.92,5.92,0,0,1,11.49,0Z"/><path class="cls-9" d="M75.31,125.11H63.83a5.91,5.91,0,0,1,11.48,0Z"/><path class="cls-10" d="M81.34,110.36a.3.3,0,0,1-.38,0c-.33-.17-.65-.37-1-.59a8.7,8.7,0,0,0-5.27-1.64,8.83,8.83,0,0,0-5.28,1.63A6.21,6.21,0,0,1,66.5,111c-.28,0-.57,0-.86,0a5.73,5.73,0,0,1-3.34-.93l-.42-.26a9.29,9.29,0,0,0-10.57,0l-.4.25a5.79,5.79,0,0,1-3.35.94c-.29,0-.57,0-.86,0a6.21,6.21,0,0,1-2.92-1.17,9.31,9.31,0,0,0-10.54,0,10.44,10.44,0,0,1-1,.59.3.3,0,0,1-.37,0,.33.33,0,0,1-.11-.38L38.52,89.5l.42-1.26a35.33,35.33,0,0,0,13.3,4.38l.51.06h0a36,36,0,0,0,3.8.2,36.71,36.71,0,0,0,3.85-.2l.47-.05h0a35.5,35.5,0,0,0,13.33-4.4L74.85,90l6.6,20A.3.3,0,0,1,81.34,110.36Z"/><path class="cls-5" d="M28.1,78.17c-1.25-1.19-3.83-7.08-3.83-7.08a30.5,30.5,0,0,1-1.85-10.45c0-17.77,15.34-32.24,34.18-32.24S90.78,42.87,90.78,60.64a30.49,30.49,0,0,1-1.84,10.45c-1.21,3.33-3.39,7.34-3.28,7.51s.5,1.14.5,1.14a6.57,6.57,0,0,1,.5,2.51,6.7,6.7,0,0,1-2.07,4.84c.76,1.72,1.9,5.14.55,8a6.79,6.79,0,0,1-4.51,3.47l3.49,10.59a3.13,3.13,0,0,1-.94,3.38,3.16,3.16,0,0,1-3.51.42c-.45-.23-.83-.48-1.21-.71a6.52,6.52,0,0,0-7.55,0c-.28.18-.57.36-.88.54l1.06,5.2a8.73,8.73,0,0,1,7.21,8.58,1.41,1.41,0,0,1-1.41,1.41H62.26a1.41,1.41,0,0,1-1.41-1.41,8.67,8.67,0,0,1,2.79-6.37l-1.43-6.94a11,11,0,0,1-1.37-.71l-.46-.29a6.51,6.51,0,0,0-7.56,0l-.45.27a9.83,9.83,0,0,1-1.38.73l-1.42,6.94a8.64,8.64,0,0,1,2.79,6.37A1.41,1.41,0,0,1,51,127.93H36.32a1.41,1.41,0,0,1-1.41-1.41,8.72,8.72,0,0,1,7.21-8.58l1.07-5.2c-.32-.17-.62-.36-.91-.54a6.5,6.5,0,0,0-7.54,0c-.37.23-.76.48-1.2.7a3.16,3.16,0,0,1-4.46-3.79l3.5-10.59a6.79,6.79,0,0,1-4.51-3.47c-1.36-2.83-.21-6.25.55-8a6.7,6.7,0,0,1-2.07-4.84,6.57,6.57,0,0,1,.5-2.51Zm55-1.83A28,28,0,0,0,88,60.64C88,44.42,73.9,31.22,56.6,31.22S25.24,44.42,25.24,60.64a28,28,0,0,0,4.83,15.7A6.73,6.73,0,0,1,40,82.25a6.54,6.54,0,0,1-.68,2.93,32.57,32.57,0,0,0,13.27,4.65l.41,0a38.16,38.16,0,0,0,7.17,0l.46,0a32.57,32.57,0,0,0,13.25-4.64,6.73,6.73,0,0,1,9.26-8.85Zm.7,5.91a3.91,3.91,0,1,0-3.91,3.91A3.92,3.92,0,0,0,83.84,82.25ZM82.6,93.83c.79-1.64.12-3.89-.44-5.24a6.63,6.63,0,0,1-4.86-.15l2.45,7.42A4.19,4.19,0,0,0,82.6,93.83Zm-1.26,16.53a.3.3,0,0,0,.11-.36L74.27,88.23a35.5,35.5,0,0,1-13.33,4.4h0l-.47.05a36.71,36.71,0,0,1-3.85.2,36,36,0,0,1-3.8-.2h0l-.51-.06a35.33,35.33,0,0,1-13.3-4.38L31.76,110a.33.33,0,0,0,.11.38.3.3,0,0,0,.37,0,10.44,10.44,0,0,0,1-.59,9.31,9.31,0,0,1,10.54,0A6.21,6.21,0,0,0,46.7,111c.29,0,.57,0,.86,0a5.79,5.79,0,0,0,3.35-.94l.4-.25a9.29,9.29,0,0,1,10.57,0l.42.26a5.73,5.73,0,0,0,3.34.93c.29,0,.58,0,.86,0a6.21,6.21,0,0,0,2.91-1.17,8.83,8.83,0,0,1,5.28-1.63A8.7,8.7,0,0,1,80,109.82c.35.22.67.42,1,.59A.3.3,0,0,0,81.34,110.36ZM63.83,125.11H75.31a5.91,5.91,0,0,0-11.48,0Zm4.38-7.2-.87-4.22c-.17,0-.34.07-.53.09a11.17,11.17,0,0,1-1.17.06h-.43l1,4.65A9.93,9.93,0,0,1,68.21,117.91Zm-30.32,7.2H49.38a5.92,5.92,0,0,0-11.49,0ZM47,118.49l1-4.67-.43,0a9,9,0,0,1-1.17-.07,2.83,2.83,0,0,1-.52-.08L45,117.91A9.36,9.36,0,0,1,47,118.49ZM37.19,82.25a3.91,3.91,0,1,0-3.91,3.91A3.91,3.91,0,0,0,37.19,82.25ZM33.46,95.86l2.45-7.42a6.62,6.62,0,0,1-2.63.54,6.4,6.4,0,0,1-2.24-.4c-.6,1.47-1.18,3.7-.43,5.26A4.18,4.18,0,0,0,33.46,95.86Z"/><path class="cls-11" d="M56.6,31.22c-17.29,0-31.36,13.2-31.36,29.42a27.7,27.7,0,0,0,2.28,11,30,30,0,0,0,2.55,4.68,6.82,6.82,0,0,1,1.59-.62,6.76,6.76,0,0,1,8.32,6,5.43,5.43,0,0,1,0,.57,6.54,6.54,0,0,1-.68,2.93,32.57,32.57,0,0,0,13.27,4.65l.41,0a38.16,38.16,0,0,0,7.17,0l.46,0a32.57,32.57,0,0,0,13.25-4.64,6.76,6.76,0,0,1-.68-2.94c0-.17,0-.33,0-.49a6.73,6.73,0,0,1,6.71-6.23,6.38,6.38,0,0,1,1.81.25,6.11,6.11,0,0,1,1.4.56,28.08,28.08,0,0,0,2.25-4A27.71,27.71,0,0,0,88,60.64C88,44.42,73.9,31.22,56.6,31.22ZM50,34.73a1.41,1.41,0,0,1,1.41,1.41A8,8,0,0,0,58.1,44a5.86,5.86,0,0,1,5.07-8.78,1.41,1.41,0,0,1,0,2.82,3,3,0,0,0-1,5.89,1.43,1.43,0,0,1,.93,1.4A1.42,1.42,0,0,1,62,46.65a10.1,10.1,0,0,1-2.54.31A10.84,10.84,0,0,1,48.63,36.14,1.41,1.41,0,0,1,50,34.73Zm-.6,32.11a1.4,1.4,0,0,1,1.41,1.4,2.18,2.18,0,0,0,4.35,0,1.41,1.41,0,0,1,2.81,0,2.18,2.18,0,0,0,4.35,0,1.41,1.41,0,0,1,2.81,0,5,5,0,0,1-8.56,3.47A5,5,0,0,1,48,68.24,1.41,1.41,0,0,1,49.44,66.84Zm-10.53.26a1.41,1.41,0,0,1,.5-1.93l4.28-2.51-4.28-2.52a1.41,1.41,0,0,1,1.42-2.43l6.35,3.73a1.41,1.41,0,0,1,0,2.43L40.83,67.6a1.4,1.4,0,0,1-.71.19A1.39,1.39,0,0,1,38.91,67.1Zm34.9-1.93a1.41,1.41,0,0,1-.72,2.62,1.4,1.4,0,0,1-.71-.19L66,63.87a1.4,1.4,0,0,1,0-2.43l6.35-3.73a1.41,1.41,0,0,1,1.93.5,1.43,1.43,0,0,1-.5,1.93l-4.29,2.52Z"/><path class="cls-12" d="M40,83.7l-.06-.44a6.83,6.83,0,0,1-.6,1.92c.18.12.37.22.56.33A7.24,7.24,0,0,0,40,84.27,5.43,5.43,0,0,0,40,83.7Z"/><path class="cls-12" d="M56.6,33.24c16.94,0,30.77,12.66,31.34,28.41,0-.33,0-.67,0-1C88,44.42,73.9,31.22,56.6,31.22S25.24,44.42,25.24,60.64c0,.35,0,.7,0,1C25.82,45.91,39.66,33.24,56.6,33.24Z"/><path class="cls-12" d="M73.22,83.78c0,.16,0,.32,0,.49a6.36,6.36,0,0,0,.13,1.24l.55-.32a6.79,6.79,0,0,1-.59-2A5,5,0,0,0,73.22,83.78Z"/><path class="cls-11" d="M79.93,78.34A3.91,3.91,0,1,1,76,82.25,3.92,3.92,0,0,1,79.93,78.34Z"/><path class="cls-13" d="M82.16,88.59c.56,1.35,1.23,3.6.44,5.24a4.19,4.19,0,0,1-2.85,2L77.3,88.44a6.63,6.63,0,0,0,4.86.15Z"/><path class="cls-5" d="M74.31,58.21a1.43,1.43,0,0,1-.5,1.93l-4.29,2.52,4.29,2.51a1.41,1.41,0,0,1-.72,2.62,1.4,1.4,0,0,1-.71-.19L66,63.87a1.4,1.4,0,0,1,0-2.43l6.35-3.73A1.41,1.41,0,0,1,74.31,58.21Z"/><path class="cls-11" d="M68.21,117.91a9.93,9.93,0,0,0-2,.57l-.67-3.24-.29-1.41h.43a11.17,11.17,0,0,0,1.17-.06c.19,0,.36-.06.54-.09l.26,1.26Z"/><path class="cls-5" d="M63.76,66.84a1.4,1.4,0,0,1,1.41,1.4,5,5,0,0,1-8.56,3.47A5,5,0,0,1,48,68.24a1.41,1.41,0,0,1,2.82,0,2.18,2.18,0,0,0,4.35,0,1.41,1.41,0,0,1,2.81,0,2.18,2.18,0,0,0,4.35,0A1.4,1.4,0,0,1,63.76,66.84Z"/><path class="cls-5" d="M63.17,35.25a1.41,1.41,0,0,1,0,2.82,3,3,0,0,0-1,5.89,1.43,1.43,0,0,1,.93,1.4A1.42,1.42,0,0,1,62,46.65a10.1,10.1,0,0,1-2.54.31A10.84,10.84,0,0,1,48.63,36.14a1.41,1.41,0,0,1,2.82,0A8,8,0,0,0,58.1,44a5.86,5.86,0,0,1,5.07-8.78Z"/><path class="cls-11" d="M48,113.82l-.29,1.42L47,118.49a9.36,9.36,0,0,0-2-.58l.61-3,.26-1.27a2.83,2.83,0,0,0,.52.08,9,9,0,0,0,1.17.07Z"/><path class="cls-5" d="M47.18,61.44a1.41,1.41,0,0,1,0,2.43L40.83,67.6a1.4,1.4,0,0,1-.71.19,1.39,1.39,0,0,1-1.21-.69,1.41,1.41,0,0,1,.5-1.93l4.28-2.51-4.28-2.52a1.41,1.41,0,0,1,1.42-2.43Z"/><path class="cls-11" d="M33.28,78.34a3.91,3.91,0,1,1-3.91,3.91A3.91,3.91,0,0,1,33.28,78.34Z"/><path class="cls-13" d="M79.93,84.16a3.92,3.92,0,0,1-3.78-2.91,4.09,4.09,0,0,0-.13,1,3.91,3.91,0,1,0,7.82,0,4.09,4.09,0,0,0-.13-1A3.93,3.93,0,0,1,79.93,84.16Z"/><path class="cls-13" d="M33.28,84.16a3.93,3.93,0,0,1-3.78-2.91,4.09,4.09,0,0,0-.13,1,3.91,3.91,0,1,0,7.82,0,3.66,3.66,0,0,0-.14-1A3.91,3.91,0,0,1,33.28,84.16Z"/><path class="cls-13" d="M35.91,88.44l-2.45,7.42a4.18,4.18,0,0,1-2.85-2c-.75-1.56-.17-3.79.43-5.26a6.4,6.4,0,0,0,2.24.4A6.62,6.62,0,0,0,35.91,88.44Z"/><circle class="cls-13" cx="34.93" cy="71.71" r="3.86" transform="translate(-42.87 89.33) rotate(-76.79)"/><circle class="cls-13" cx="78.28" cy="71.71" r="3.86" transform="translate(-27.78 76.35) rotate(-45)"/><path class="cls-13" d="M31.66,75.72a6.82,6.82,0,0,0-1.59.62,30,30,0,0,1-2.55-4.68C28.8,73,30.18,74.41,31.66,75.72Z"/><path class="cls-13" d="M73.2,82.25a6.76,6.76,0,0,0,.68,2.94,32.57,32.57,0,0,1-13.25,4.64l-.46,0a38.16,38.16,0,0,1-7.17,0l-.41,0a32.57,32.57,0,0,1-13.27-4.65A6.54,6.54,0,0,0,40,82.25a5.43,5.43,0,0,0,0-.57,33.91,33.91,0,0,0,16.63,4.48,34.56,34.56,0,0,0,16.61-4.4C73.21,81.92,73.2,82.08,73.2,82.25Z"/><path class="cls-13" d="M81.74,75.78c1.29-1.11,2.5-2.27,3.65-3.43a28.08,28.08,0,0,1-2.25,4A6.11,6.11,0,0,0,81.74,75.78Z"/><path class="cls-14" d="M74.85,90A32.32,32.32,0,0,1,56.6,95.86,28.78,28.78,0,0,1,38.52,89.5l.42-1.26a35.33,35.33,0,0,0,13.3,4.38l.51.06h0a36,36,0,0,0,3.8.2,36.71,36.71,0,0,0,3.85-.2l.47-.05h0a35.5,35.5,0,0,0,13.33-4.4Z"/><path class="cls-13" d="M47.56,113.84l.43,0-.29,1.42h-.14a8.27,8.27,0,0,1-.86,0,4.64,4.64,0,0,1-1.09-.23l.26-1.27a2.83,2.83,0,0,0,.52.08A9,9,0,0,0,47.56,113.84Z"/><path class="cls-13" d="M67.61,115a5.54,5.54,0,0,1-1.11.24,8.11,8.11,0,0,1-.86,0H65.5l-.29-1.41h.43a11.17,11.17,0,0,0,1.17-.06c.19,0,.36-.06.54-.09Z"/></svg>