<svg id="レイヤー_1" data-name="レイヤー 1" xmlns="http://www.w3.org/2000/svg" viewBox="0 0 94.34 144.64"><defs><style>.cls-1{fill:#ffd5d5;}.cls-2{fill:#3d1c1f;}.cls-3{fill:#ffce8d;}.cls-4{fill:#c7ddbc;}.cls-5{fill:#dbeac5;}.cls-6{fill:#91c04f;}.cls-7{fill:#fd6161;}.cls-8{fill:#fdfdfd;}.cls-9{fill:#440e0a;}.cls-10{fill:#fde8c6;}.cls-11{fill:#fd974f;}</style></defs><path class="cls-1" d="M43.49,67.61c3.21,0,6.39,0,9.6,0a6.7,6.7,0,0,1-5.33,1.75A7.61,7.61,0,0,1,43.49,67.61Z"/><path class="cls-2" d="M30.38,110.41l-.25,0v0Z"/><path class="cls-2" d="M94.32,69.16a29,29,0,0,0-4.7-15.74,1.91,1.91,0,0,1-.41-.86c-.07-1,0-2-.18-2.93a29.35,29.35,0,0,0-5.67-14.34c-.64-.86-1.34-1.69-2.07-2.5s-1.62-1.69-2.5-2.48a36.78,36.78,0,0,0-18-8.74,10.62,10.62,0,0,0-5.33-8.82,17,17,0,0,0-9.1-2,9.58,9.58,0,0,1,1-2.52c.15-.2.45-.11.65-.17a4,4,0,0,0,3.62-4.53A4.1,4.1,0,0,0,47.37,0a5.91,5.91,0,0,0-4.46,2.8,16.61,16.61,0,0,0-2.29,9,11.09,11.09,0,0,0-6.46,6.57,20.71,20.71,0,0,0-.72,3.19A47.29,47.29,0,0,0,28.31,23a34.25,34.25,0,0,0-20,16.78A29.1,29.1,0,0,0,5.17,52.24c0,.67-.56,1.16-.86,1.72a28.09,28.09,0,0,0-3.69,9.1A38.18,38.18,0,0,0,0,71.47a7.65,7.65,0,0,0,1,3c.05,3.13,0,6.27,0,9.41l0,2.24-.08,0c.15.57.32,1.15.44,1.74h0A18.6,18.6,0,0,0,5,94.44a25.47,25.47,0,0,0,7.79,5.62c7,3.28,14.77,4.55,22.44,5.26a132.15,132.15,0,0,0,25-.12,75.32,75.32,0,0,0,18.71-4,29.12,29.12,0,0,0,8.24-4.63,17.51,17.51,0,0,0,5.64-8.45.13.13,0,0,1,0-.06c.06-.26.14-.52.2-.77v0c0-.11,0-.23,0-.34a.34.34,0,0,1,0-.14v0a5.78,5.78,0,0,1,.14-.7h0c.08-3.81,0-7.61,0-11.4.19-.52.54-1,.73-1.49A11.05,11.05,0,0,0,94.32,69.16ZM45.05,3.65a3.26,3.26,0,0,1,3.23-1.42,2,2,0,0,1,1,2.83,1.12,1.12,0,0,1-1,.69c-.3-.44-1-1-1.45-.35A10.92,10.92,0,0,0,44.12,11c-.43,0-.84,0-1.27.07C43,8.46,43.43,5.73,45.05,3.65ZM36.49,18.86a8.42,8.42,0,0,1,4.26-4.6,14.22,14.22,0,0,1,3.07-1l.13,0c0,.65-.22,1.62.56,1.92s2.13.35,2.41-.62c-.41-.44-.93-.85-.84-1.53a17.78,17.78,0,0,1,5.2.49c.23.07.47.13.69.22A8.46,8.46,0,0,1,58,19a8,8,0,0,1-2.53,9.23c-2.52,1.74-5.71,2-8.67,1.94S41,29.68,38.7,27.93A7.71,7.71,0,0,1,36,22,7,7,0,0,1,36.49,18.86ZM90.91,85.77A14.16,14.16,0,0,1,86.38,94a23.59,23.59,0,0,1-6.9,4.32,51.11,51.11,0,0,1-10,3,23.71,23.71,0,0,1-4,.67,75.86,75.86,0,0,1-7.85,1,132.69,132.69,0,0,1-25.9-.5,71.82,71.82,0,0,1-13.44-3A31.33,31.33,0,0,1,10.52,96a15.52,15.52,0,0,1-6.06-7,10.36,10.36,0,0,1-.94-3.75c0-2.7,0-5.41,0-8.13a9.9,9.9,0,0,0,6,3.08,8.55,8.55,0,0,0,4.18-1.59,4.18,4.18,0,0,1,3.93,0,5.11,5.11,0,0,1,2.5,3.12,2.45,2.45,0,0,1,0,1.42,9.08,9.08,0,0,0,1.08,6.62,20,20,0,0,0,1.34,1.56,8.17,8.17,0,0,0,3.94,1.44,7,7,0,0,0,5.54-2,7.48,7.48,0,0,0,2-5.35,4,4,0,0,1,.32-2.16A2.65,2.65,0,0,1,36.76,82a7.22,7.22,0,0,1,4.1,1.16,3.31,3.31,0,0,1,1.45,2.59A26.57,26.57,0,0,0,42.13,89a6.92,6.92,0,0,0,1.73,4.27c.36.41.84.71,1.21,1.12a9,9,0,0,0,6,.93,7.59,7.59,0,0,0,5.31-3.82,7.72,7.72,0,0,0,.62-5.15,2.49,2.49,0,0,1,.59-2.42c1.61-1.61,4-1.91,6.16-1.91a2.91,2.91,0,0,1,2.29.92c.78.78.8,2,1.12,3a6.85,6.85,0,0,0,4.72,4.81,8.45,8.45,0,0,0,2.66.19,8.55,8.55,0,0,0,5.52-3,7.49,7.49,0,0,0,1.46-6.08,4.11,4.11,0,0,1,0-2.2,5,5,0,0,1,3.67-3c1.87-.37,3.81-.31,5.71-.71C90.91,79.23,91,82.51,90.91,85.77Zm-.75-11.86a22,22,0,0,1-3.31.39,9.29,9.29,0,0,0-5.17,1.78,6.41,6.41,0,0,0-2.29,3.8c-.23,1.23.33,2.44.22,3.69a5.33,5.33,0,0,1-1.47,3.53,6.36,6.36,0,0,1-5.58,1.68,4.46,4.46,0,0,1-3.24-3c-.3-.78-.34-1.62-.58-2.42a6.58,6.58,0,0,0-1.55-2.24A5,5,0,0,0,64.58,80a12.29,12.29,0,0,0-7,1.36,7.49,7.49,0,0,0-1.72,1.46,4.81,4.81,0,0,0-.91,2.4c-.13,1.25.52,2.48.22,3.73a5.12,5.12,0,0,1-3.34,4,6.74,6.74,0,0,1-3.8.28,4.43,4.43,0,0,1-3.6-3.43c-.39-1.66.21-3.32,0-5a6,6,0,0,0-1.94-3.17A9.37,9.37,0,0,0,36.25,80a6.74,6.74,0,0,0-2.31.75,5.36,5.36,0,0,0-1.59,2.07c-.44,1-.2,2.09-.33,3.13a5.18,5.18,0,0,1-1.49,3.43,5.07,5.07,0,0,1-7.46-.69,6.87,6.87,0,0,1-.77-5.48,6,6,0,0,0-1.36-4.68,6.83,6.83,0,0,0-4.27-2.46,6.86,6.86,0,0,0-4.7,1.1,3.8,3.8,0,0,1-2.8.82,10.5,10.5,0,0,1-6.3-5.47,3.18,3.18,0,0,1-.33-1.66c0-1.71,0-3.43.16-5.14a26.26,26.26,0,0,1,5-12.29c.08-1.14.08-2.3.17-3.45a28.14,28.14,0,0,1,9.51-17.92,29.41,29.41,0,0,1,5.28-3.88,23.33,23.33,0,0,1,4.19-2.3,34.28,34.28,0,0,1,6.94-2.31,12.42,12.42,0,0,0,1,3.26l0,0a10.27,10.27,0,0,0,5.69,4.77,22.85,22.85,0,0,0,8.19,1c2.74-.15,5.65-.58,7.92-2.26a11,11,0,0,0,3.23-3.71,11.37,11.37,0,0,0,.95-3,40.66,40.66,0,0,1,10,4A31.91,31.91,0,0,1,84,41,25.63,25.63,0,0,1,86.77,52.6a3.16,3.16,0,0,0,.06,1,27.19,27.19,0,0,1,4.51,10,33.63,33.63,0,0,1,.61,8.2A2.16,2.16,0,0,1,90.16,73.91Z"/><path class="cls-2" d="M40.69,65.65a10,10,0,0,1,1.64-.11c4.37,0,8.71,0,13.07,0a.78.78,0,0,1,.73,1.08A7.37,7.37,0,0,1,52,70.8a9.91,9.91,0,0,1-6.56.19,7.92,7.92,0,0,1-4.53-3.7C40.63,66.77,40.34,66.17,40.69,65.65Zm2.8,2a7.73,7.73,0,0,0,4.27,1.77,6.72,6.72,0,0,0,5.33-1.75C49.88,67.55,46.68,67.63,43.49,67.61Z"/><path class="cls-3" d="M45.05,3.65a3.21,3.21,0,0,1,3.25-1.4,2,2,0,0,1,1,2.83,1.19,1.19,0,0,1-1,.69c-.3-.46-1-1-1.45-.35A10.93,10.93,0,0,0,44.14,11l-1.27.08C43,8.48,43.43,5.73,45.05,3.65Z"/><path class="cls-4" d="M46.08,13a18,18,0,0,1,5.22.47c.13.69.45,1.49,0,2.11a5.07,5.07,0,0,1-3,1.49,8.07,8.07,0,0,1-4.14-.2c0-1.12-1.14-1.7-2-2.11.46,0,.95,0,1.41,0,.12-.55.21-1.09.28-1.63l.13,0c.06.65-.2,1.62.56,1.92s2.13.37,2.41-.61C46.51,14.13,46,13.72,46.08,13Z"/><path class="cls-5" d="M40.73,14.24a15.61,15.61,0,0,1,3.07-1c-.07.54-.16,1.08-.27,1.63-.47,0-1,0-1.42,0a2.44,2.44,0,0,0-1.46.18c-.33,1.2.9,1.93,1.89,2.19a2,2,0,0,0,1.58-.26,8.08,8.08,0,0,0,4.14.2,5.07,5.07,0,0,0,3-1.49c.5-.62.18-1.42.05-2.11.23.08.47.13.69.22,1.36,1,3.12,1.81,3.45,3.6a9.85,9.85,0,0,1-2.55,8.3,9.44,9.44,0,0,1-6.62,2.65,11,11,0,0,1-6.85-1.85,6.38,6.38,0,0,1-2.48-3.32,13.42,13.42,0,0,1-.43-4.28A8.4,8.4,0,0,1,40.73,14.24ZM39.2,19c.24.69,1.21.67,1.66.19.74-.6,1.23-2,.26-2.65A2.3,2.3,0,0,0,39.2,19Z"/><path class="cls-5" d="M12.07,82.16a8.21,8.21,0,0,1,4-1.22,5.64,5.64,0,0,1,4.1,2.19,9,9,0,0,0,1.08,6.62c.37.57.91,1,1.34,1.56a6.23,6.23,0,0,0,5.5,4.46,7.26,7.26,0,0,0,6.2-2.59,10.83,10.83,0,0,0,2-4.52,11.06,11.06,0,0,1,.65-2.12,1.38,1.38,0,0,1,1.14-.75,4.42,4.42,0,0,1,3.47,1.59,2.65,2.65,0,0,1,.62,1.6,6.89,6.89,0,0,0,1.73,4.27c.35.43.84.71,1.21,1.12A7,7,0,0,0,50,97.78a8.87,8.87,0,0,0,6.79-1.51,8.32,8.32,0,0,0,3.65-7A10.8,10.8,0,0,1,60.55,87a1.7,1.7,0,0,1,1.75-1.25,3.11,3.11,0,0,1,2.34,1.45,9.59,9.59,0,0,1,1.64,4.2,6.92,6.92,0,0,1-1.22,5.39c-1.28,1.75-3.46,2.51-5.52,2.89a72.92,72.92,0,0,1-12.15,1.12,109.29,109.29,0,0,1-21.75-1.66,42.29,42.29,0,0,1-10.87-3.47,14.59,14.59,0,0,1-5.22-4.29,9.84,9.84,0,0,1-1.44-8.11A12.1,12.1,0,0,0,12.07,82.16Z"/><path class="cls-6" d="M52,13.73A8.49,8.49,0,0,1,58,19a8.06,8.06,0,0,1-2.53,9.23c-2.52,1.74-5.71,2-8.67,1.94s-5.8-.54-8.12-2.27A7.7,7.7,0,0,1,36,22a6.51,6.51,0,0,1,.54-3.17,14,14,0,0,0,.43,4.29,6.38,6.38,0,0,0,2.48,3.32,11,11,0,0,0,6.85,1.85,9.31,9.31,0,0,0,6.62-2.65,9.79,9.79,0,0,0,2.55-8.3C55.11,15.54,53.33,14.69,52,13.73Z"/><path class="cls-6" d="M85.24,76.67c1.88-.37,3.81-.31,5.69-.69,0,3.27,0,6.55,0,9.81A14,14,0,0,1,86.36,94a23.75,23.75,0,0,1-6.9,4.32,52.52,52.52,0,0,1-10,3,26,26,0,0,1-4,.67,6.52,6.52,0,0,1,1.13-.54c3.32-1,6.72-2,9.51-4.12a7.13,7.13,0,0,0,2.65-3.5,8.88,8.88,0,0,0,.3-2.11,17.17,17.17,0,0,1-2.16-.11c-.8-.17-1.53-.56-2.32-.73a8.51,8.51,0,0,0,5.52-3,7.49,7.49,0,0,0,1.46-6.08,4.21,4.21,0,0,1,0-2.2A5,5,0,0,1,85.24,76.67Z"/><path class="cls-6" d="M3.52,77.1a9.9,9.9,0,0,0,6,3.08,8.36,8.36,0,0,0,4.18-1.59,4.18,4.18,0,0,1,3.93,0,5.11,5.11,0,0,1,2.5,3.12,2.3,2.3,0,0,1,0,1.42A5.62,5.62,0,0,0,16,80.94a8,8,0,0,0-4,1.22,12.76,12.76,0,0,1-4,1.11,9.91,9.91,0,0,0,1.44,8.12,14.89,14.89,0,0,0,5.22,4.29A41.89,41.89,0,0,0,25.6,99.14a110.91,110.91,0,0,0,21.75,1.66,70.79,70.79,0,0,0,12.16-1.12c2.07-.39,4.23-1.13,5.52-2.89a6.89,6.89,0,0,0,1.21-5.38,9.64,9.64,0,0,0-1.64-4.2,3.17,3.17,0,0,0-2.33-1.46A1.73,1.73,0,0,0,60.51,87a11.55,11.55,0,0,0-.13,2.35,8.32,8.32,0,0,1-3.65,7,8.76,8.76,0,0,1-6.79,1.51,7,7,0,0,1-4.89-3.41,9,9,0,0,0,6.05.93,7.51,7.51,0,0,0,5.31-3.82A7.7,7.7,0,0,0,57,86.37,2.48,2.48,0,0,1,57.62,84c1.59-1.61,4-1.91,6.16-1.91a2.87,2.87,0,0,1,2.29.92c.8.8.8,2,1.12,3a6.89,6.89,0,0,0,4.72,4.81,7.92,7.92,0,0,0,2.66.19c.81.17,1.52.58,2.32.73s1.43.07,2.16.11a8.81,8.81,0,0,1-.3,2.11,7.13,7.13,0,0,1-2.65,3.5c-2.79,2.11-6.19,3.15-9.51,4.12a6.52,6.52,0,0,0-1.13.54,77.12,77.12,0,0,1-7.86,1,129.63,129.63,0,0,1-25.9-.5,71,71,0,0,1-13.44-3A32,32,0,0,1,10.5,96a15.52,15.52,0,0,1-6.06-7,10.35,10.35,0,0,1-.93-3.75C3.52,82.53,3.51,79.82,3.52,77.1Z"/><path class="cls-7" d="M34.39,83.26A2.65,2.65,0,0,1,36.76,82a7.27,7.27,0,0,1,4.1,1.16,3.28,3.28,0,0,1,1.45,2.59A31.08,31.08,0,0,0,42.13,89a2.51,2.51,0,0,0-.62-1.6A4.37,4.37,0,0,0,38,85.81a1.38,1.38,0,0,0-1.14.75,9.64,9.64,0,0,0-.65,2.12,11.09,11.09,0,0,1-2,4.52,7.32,7.32,0,0,1-6.19,2.59,6.23,6.23,0,0,1-5.51-4.46,8.17,8.17,0,0,0,3.94,1.44,7.08,7.08,0,0,0,5.54-2,7.48,7.48,0,0,0,2-5.35A4.09,4.09,0,0,1,34.39,83.26Z"/><path class="cls-8" d="M90.16,73.91a22,22,0,0,1-3.31.39,9.29,9.29,0,0,0-5.17,1.78,6.41,6.41,0,0,0-2.29,3.8c-.23,1.23.33,2.44.22,3.69a5.33,5.33,0,0,1-1.47,3.53,6.36,6.36,0,0,1-5.58,1.68,4.46,4.46,0,0,1-3.24-3c-.3-.78-.34-1.62-.58-2.42a6.58,6.58,0,0,0-1.55-2.24A5,5,0,0,0,64.58,80a12.29,12.29,0,0,0-7,1.36,7.49,7.49,0,0,0-1.72,1.46,4.81,4.81,0,0,0-.91,2.4c-.13,1.25.52,2.48.22,3.73a5.12,5.12,0,0,1-3.34,4,6.74,6.74,0,0,1-3.8.28,4.43,4.43,0,0,1-3.6-3.43c-.39-1.66.21-3.32,0-5a6,6,0,0,0-1.94-3.17A9.37,9.37,0,0,0,36.25,80a6.74,6.74,0,0,0-2.31.75,5.36,5.36,0,0,0-1.59,2.07c-.44,1-.2,2.09-.33,3.13a5.18,5.18,0,0,1-1.49,3.43,5.07,5.07,0,0,1-7.46-.69,6.87,6.87,0,0,1-.77-5.48,6,6,0,0,0-1.36-4.68,6.83,6.83,0,0,0-4.27-2.46,6.86,6.86,0,0,0-4.7,1.1,3.8,3.8,0,0,1-2.8.82,10.5,10.5,0,0,1-6.3-5.47,3.18,3.18,0,0,1-.33-1.66c0-1.71,0-3.43.16-5.14a26.26,26.26,0,0,1,5-12.29c.08-1.14.08-2.3.17-3.45a28.14,28.14,0,0,1,9.51-17.92,29.41,29.41,0,0,1,5.28-3.88,23.33,23.33,0,0,1,4.19-2.3,34.28,34.28,0,0,1,6.94-2.31,12.42,12.42,0,0,0,1,3.26l0,0a10.27,10.27,0,0,0,5.69,4.77,22.85,22.85,0,0,0,8.19,1c2.74-.15,5.65-.58,7.92-2.26a11,11,0,0,0,3.23-3.71,11.37,11.37,0,0,0,.95-3,40.66,40.66,0,0,1,10,4A31.91,31.91,0,0,1,84,41,25.63,25.63,0,0,1,86.77,52.6a3.16,3.16,0,0,0,.06,1,27.19,27.19,0,0,1,4.51,10,33.63,33.63,0,0,1,.61,8.2A2.16,2.16,0,0,1,90.16,73.91Z"/><path class="cls-9" d="M73.69,117.75q-1-3.06-2-6.12a1.64,1.64,0,0,1,.42-1.94,4.12,4.12,0,0,0,1-4.77c-.31-.94-.37-1.3,0-1.67a3.05,3.05,0,0,1,0-.41h0a3.2,3.2,0,0,1,.23-.91,13.45,13.45,0,0,1,3.88-6.78l.14-.28c.27-.44.57-.85.84-1.29,8.7-14.18,5.25-31.14-7.1-41.25a35.86,35.86,0,0,0-46.59,1.31,31.12,31.12,0,0,0-4.95,40.83,11.11,11.11,0,0,1,1,1.54,3,3,0,0,1,.79,1.2,3.13,3.13,0,0,1,.75,1.16,3,3,0,0,1,.7,1.18v0l.19.34,0,0a3.46,3.46,0,0,1,.74,1.26l.09.12a3.14,3.14,0,0,1,.32,2.47.24.24,0,0,1,0,.08,1.34,1.34,0,0,1-.07.64c-.09.29-.12.6-.22.89a3.79,3.79,0,0,0,.9,4c.33.38.67.74,1,1.15-1.49,4.53-3,9-4.42,13.47a10.06,10.06,0,0,0-.62,2.38,3.14,3.14,0,0,0,3.82,3.28,11.33,11.33,0,0,0,2-.84,6.09,6.09,0,0,1,7.4-.24,1.5,1.5,0,0,1,.8,1.79,6.24,6.24,0,0,0-.2,1.21c-.09,1.92-.91,3.24-2.91,3.66a7,7,0,0,0-1.38.61c-.62.68-1.28,1.32-1.85,2a8.42,8.42,0,0,0-1.69,4.54,1.71,1.71,0,0,0,1.73,2.05c1.43.08,2.86.08,4.29.11l7.64-.08c.61,0,1.22,0,1.83,0,1.7-.1,2.35-.89,2.06-2.61a7.67,7.67,0,0,0-1.6-3.91,3.39,3.39,0,0,1-.72-3.4,21.68,21.68,0,0,0,.6-3A3.24,3.24,0,0,1,44.37,129c3.41-2.08,6.24-2,9.28.55a2,2,0,0,1,.64,1c.24,1,.38,2,.56,3,.73,1.81.79,3.45-.71,5a6,6,0,0,0-1.26,4c0,1.29.48,1.9,1.77,2,1.52.08,3.05.1,4.58.14l5.51-.11c.92,0,1.84,0,2.76,0,2.59-.05,2.8-.25,2.83-2.77,0-.31,0-.61,0-.92l-2.51-4.24a15.7,15.7,0,0,0-3.78-2A1.48,1.48,0,0,1,63,133.29c-.1-.6-.26-1.2-.39-1.8-.46-2.2-.52-2.45,1.8-3.51a5.87,5.87,0,0,1,5.33.25c.73.38,1.41.84,2.15,1.2a2.94,2.94,0,0,0,3.43-.47,3,3,0,0,0,1-3.33C75.43,123,74.55,120.38,73.69,117.75ZM24.36,90.43a7,7,0,0,0-1.08,3c-1-.08-1.19-.76-1.5-1.25A27.88,27.88,0,0,1,26.48,56a31.46,31.46,0,0,1,26.38-8.27,30.67,30.67,0,0,1,22,13.11,27.63,27.63,0,0,1,.53,31.24,3,3,0,0,1-1.26,1.37l-1-2.55c-1.05-.86-2.22-1.7-3.6-1.32-1.59.44-2.49-.43-3.48-1.32-3.2-.53-4.4,0-5.43,2.91a1.75,1.75,0,0,1-1.39,1.34,3.38,3.38,0,0,0-.86.35,3.84,3.84,0,0,0-.07,6.77,31.71,31.71,0,0,0,3.36,1.49,11.77,11.77,0,0,1,1.62.83.52.52,0,0,1,0,.79,1.56,1.56,0,0,1-.5.35,32.87,32.87,0,0,1-28.46,0,1,1,0,0,1-.26-.16c-.14-.14-.41-.33-.38-.44a1,1,0,0,1,.41-.7c1.3-.6,2.62-1.13,3.93-1.7a4.49,4.49,0,0,0,2.15-1.65,3.9,3.9,0,0,0-1.12-5.4,9.76,9.76,0,0,0-1.7-.69,1.35,1.35,0,0,1-.78-.85c-1.36-3.42-2.26-3.9-5.74-3.12-.8,1-1.64,1.66-3.07,1.23C26.55,89.26,25.45,90,24.36,90.43Zm45,12.84c.4,1.14,1.11,2.2,1.09,3.47a1,1,0,0,1-.43.74.85.85,0,0,1-1.1-.22,3.17,3.17,0,0,1-.45-.78c-.21-.46-.38-.94-.57-1.42-.69-1.69-1.1-3.6-2.16-5s-3.23-1.59-4.87-2.39a5.06,5.06,0,0,1-1.26-.82,1.05,1.05,0,0,1-.13-.82c.05-.29.26-.54.22-.46,1.3-.33,2,.35,2.77.44a1.42,1.42,0,0,0,1.72-1.83,7.25,7.25,0,0,0-.27-.87,6.73,6.73,0,0,1-.27-.87c-.1-.52-.07-1,.49-1.29a.91.91,0,0,1,1.26.51c.23.45.39,1,.62,1.4.69,1.32,1.58,1.48,2.63.47.29-.29.5-.65.8-.92a.7.7,0,0,1,.84-.12c.38.2.72.54.58,1a25.42,25.42,0,0,1-1.12,2.5C67.52,100.32,67.69,98.61,69.32,103.27Zm-41.67-7a29,29,0,0,1-1.28-2.78.85.85,0,0,1,.54-1,.68.68,0,0,1,.84.09c.42.43.78,1,1.24,1.34a1.34,1.34,0,0,0,1.9-.31c.41-.7.7-1.47,1.11-2.18a.79.79,0,0,1,1.08-.26c.24.11.36.44.59.75-.19.67-.41,1.35-.58,2-.37,1.54.44,2.33,2,2,.59-.14,1.16-.4,1.75-.49a1,1,0,0,1,.75.41.78.78,0,0,1-.11,1.11,18,18,0,0,1-2.44,1.23c-4.51,1.92-3.3.86-5.17,5.37-.51,1.23-1,2.48-1.55,3.68a.8.8,0,0,1-1.07.3.84.84,0,0,1-.57-1c.38-1.27.84-2.52,1.31-3.77C29.48,98.86,29.58,100.1,27.65,96.24Zm12.29,45.22c-1.53,0-3.07,0-4.6,0v0c-1.22,0-2.45,0-3.67,0-.47,0-1.08.13-1.26-.53a1.57,1.57,0,0,1,.48-1.38,5.76,5.76,0,0,1,9.73.62A.78.78,0,0,1,39.94,141.46Zm-2.12-10.75c.19-.5.86-.45,1.36-.3.27.08.53.27.49,1a8.31,8.31,0,0,1-.63,2.89.8.8,0,0,1-1,.37c-.41-.1-.79-.27-.86-.73A6.61,6.61,0,0,1,37.82,130.71ZM67.1,141.38H56.5c-.41-1,.25-1.61.76-2.2a5.63,5.63,0,0,1,3.41-1.9C63.35,136.82,65.5,138.1,67.1,141.38Zm-8.7-11a.88.88,0,0,1,1,.44,6.52,6.52,0,0,1,.56,2.91c0,.59-.44.86-1,.87a.75.75,0,0,1-.86-.63c-.18-.88-.39-1.75-.55-2.64C57.41,130.78,57.76,130.41,58.4,130.39Zm14.61-4c-.58.17-1-.24-1.37-.48a9.51,9.51,0,0,0-9.93.09,10,10,0,0,1-2.2,1.09,6.33,6.33,0,0,1-5.31-.73,9.31,9.31,0,0,0-3.93-1.64A9.81,9.81,0,0,0,43.48,126a6.48,6.48,0,0,1-7.49.3,9.54,9.54,0,0,0-10.46-.42,4,4,0,0,1-.87.28.64.64,0,0,1-.26,0,1.38,1.38,0,0,1-.09-1.45q2.1-6.42,4.24-12.82a3.2,3.2,0,0,1,.89-1.57A7.49,7.49,0,0,0,31.85,107a3.61,3.61,0,0,1,2.26.3,50.61,50.61,0,0,0,28.19.24c.29-.08.58-.2.88-.28,1.74-.45,1.74-.45,2.89,1.21.17.25.29.59.53.74,1.73,1.08,2.12,2.91,2.69,4.65,1.2,3.7,2.43,7.39,3.64,11.09C73.08,125.44,73.44,125.9,73,126.4Z"/><path class="cls-10" d="M66.07,88.29c-3.2-.53-4.4,0-5.43,2.91a1.75,1.75,0,0,1-1.39,1.34,3.38,3.38,0,0,0-.86.35,3.84,3.84,0,0,0-.07,6.77,32.64,32.64,0,0,0,3.36,1.49,11.77,11.77,0,0,1,1.62.83.52.52,0,0,1,0,.79,1.56,1.56,0,0,1-.5.35,32.87,32.87,0,0,1-28.46,0,.82.82,0,0,1-.25-.16c-.15-.14-.42-.33-.39-.44a1,1,0,0,1,.41-.7c1.3-.6,2.62-1.13,3.93-1.7a4.49,4.49,0,0,0,2.15-1.65,3.9,3.9,0,0,0-1.12-5.4,9.76,9.76,0,0,0-1.7-.69,1.35,1.35,0,0,1-.78-.85c-1.36-3.42-2.26-3.9-5.74-3.12a4.71,4.71,0,0,0-.74-2.29,3.83,3.83,0,0,0-3.93-1.74,3.34,3.34,0,0,0-2.89,2.36c-.45,1.38-.49,2.83,1.08,3.71a7,7,0,0,0-1.08,3c-1-.08-1.19-.76-1.5-1.25A27.88,27.88,0,0,1,26.48,56a31.46,31.46,0,0,1,26.38-8.27,30.67,30.67,0,0,1,22,13.11,27.63,27.63,0,0,1,.53,31.24,3,3,0,0,1-1.26,1.37l-1-2.55a13.62,13.62,0,0,0,.75-2.29,3.67,3.67,0,0,0-2.29-4.14,3.71,3.71,0,0,0-4.46,1.65C66.73,86.82,66.43,87.58,66.07,88.29ZM53.6,62.24a27.18,27.18,0,0,0,2.34,1.84,5,5,0,0,0,5,.27c2.56-1.16,4.65-5.2,4.14-8a1.28,1.28,0,0,0-1.25-1.15,1.26,1.26,0,0,0-1.42.92c-.23.88-.29,1.81-.56,2.68-.63,2-2,3.32-3.32,3.13-1.74-.26-2.57-1.54-3-3.09-.26-.88-.34-1.8-.57-2.69a1.24,1.24,0,0,0-1.39-1,1.15,1.15,0,0,0-1.15.84,19.07,19.07,0,0,0-.43,2.1A5.19,5.19,0,0,1,51,60.41c-1.45,2.1-3.55,2.05-5-.1a6.14,6.14,0,0,1-1-2.87,5.71,5.71,0,0,0-.3-1.49,1.27,1.27,0,0,0-1.24-.75,1.25,1.25,0,0,0-1.22.78A10.66,10.66,0,0,0,42,57.77a5.86,5.86,0,0,1-1.34,3,2.54,2.54,0,0,1-4.2.06,5,5,0,0,1-1.24-2.43c-.13-.71-.22-1.42-.39-2.11a1.31,1.31,0,0,0-1.57-1.1,1.26,1.26,0,0,0-1.13,1.25,8.35,8.35,0,0,0,2.72,6.89,5.26,5.26,0,0,0,7,.31c.62-.46,1.17-1,1.72-1.48C47.44,65.74,49.66,65.74,53.6,62.24ZM48.75,81.79h0c-2.25,0-4.51,0-6.76,0-1.65,0-2.2.62-2.22,2.24a8.82,8.82,0,1,0,17.61-.29c-.08-1.34-.56-1.91-1.86-1.94C53.27,81.75,51,81.79,48.75,81.79Zm13.39-2.67c.3-.85,1-1.05,1.62-1.44s1.41-.82,2.08-1.29a1.4,1.4,0,0,0-1.3-2.48c-2.22,1.25-4.43,2.54-6.59,3.89a1.3,1.3,0,0,0-.12,2.11c2.24,1.42,4.54,2.74,6.83,4.08a1.17,1.17,0,0,0,1.16-.13A1.33,1.33,0,0,0,66,81.57C64.73,80.69,63.41,79.92,62.14,79.12Zm-26.93-.05c-1,.61-1.91,1.12-2.77,1.65a11,11,0,0,0-1.25.86A1.39,1.39,0,0,0,31,83.5a1.22,1.22,0,0,0,1.62.43c2.13-1.19,4.26-2.38,6.33-3.68a1.47,1.47,0,0,0,0-2.7c-2-1.25-4-2.39-6-3.57a1.44,1.44,0,0,0-.58-.17,1.28,1.28,0,0,0-1.32.55A1.31,1.31,0,0,0,31,76.05a6.09,6.09,0,0,0,1.21.91A12.36,12.36,0,0,1,35.21,79.07Z"/><path class="cls-5" d="M24.4,126.16a1.38,1.38,0,0,1-.09-1.45q2.1-6.42,4.24-12.82a3.2,3.2,0,0,1,.89-1.57A7.49,7.49,0,0,0,31.85,107a3.61,3.61,0,0,1,2.26.3,50.61,50.61,0,0,0,28.19.24c.29-.08.58-.2.88-.28,1.74-.45,1.74-.45,2.89,1.21.17.25.29.59.53.74,1.73,1.08,2.12,2.91,2.69,4.65,1.2,3.7,2.43,7.39,3.64,11.09.15.46.51.92.08,1.42-.58.17-1-.24-1.37-.48a9.51,9.51,0,0,0-9.93.09,10,10,0,0,1-2.2,1.09,6.33,6.33,0,0,1-5.31-.73,9.31,9.31,0,0,0-3.93-1.64A9.81,9.81,0,0,0,43.48,126a6.48,6.48,0,0,1-7.49.3,9.54,9.54,0,0,0-10.46-.42,4,4,0,0,1-.87.28A.64.64,0,0,1,24.4,126.16Z"/><path class="cls-10" d="M59.66,95.55c1.3-.33,2,.35,2.77.44a1.42,1.42,0,0,0,1.72-1.83,7.25,7.25,0,0,0-.27-.87,6.73,6.73,0,0,1-.27-.87c-.1-.52-.07-1,.49-1.29a.91.91,0,0,1,1.26.51c.23.45.39,1,.62,1.4.69,1.32,1.58,1.48,2.63.47.29-.29.5-.65.8-.92a.7.7,0,0,1,.84-.12c.38.2.72.54.58,1a25.42,25.42,0,0,1-1.12,2.5c-2.19,4.4-2,2.69-.39,7.35.4,1.14,1.11,2.2,1.09,3.47a1,1,0,0,1-.43.74.85.85,0,0,1-1.1-.22,3.17,3.17,0,0,1-.45-.78c-.21-.46-.38-.94-.57-1.42-.69-1.69-1.1-3.6-2.16-5s-3.23-1.59-4.87-2.39a5.06,5.06,0,0,1-1.26-.82,1.05,1.05,0,0,1-.13-.82C59.49,95.72,59.7,95.47,59.66,95.55Z"/><path class="cls-10" d="M33.67,91.9c-.19.67-.41,1.35-.58,2-.37,1.54.44,2.33,2,2,.59-.14,1.16-.4,1.75-.49a1,1,0,0,1,.75.41.78.78,0,0,1-.11,1.11,18,18,0,0,1-2.44,1.23c-4.51,1.92-3.3.86-5.17,5.37-.51,1.23-1,2.48-1.55,3.68a.8.8,0,0,1-1.07.3.84.84,0,0,1-.57-1c.38-1.27.84-2.52,1.31-3.77,1.46-3.92,1.56-2.68-.37-6.54a29,29,0,0,1-1.28-2.78.85.85,0,0,1,.54-1,.68.68,0,0,1,.84.09c.42.43.78,1,1.24,1.34a1.34,1.34,0,0,0,1.9-.31c.41-.7.7-1.47,1.11-2.18a.79.79,0,0,1,1.08-.26C33.32,91.26,33.44,91.59,33.67,91.9Z"/><path class="cls-4" d="M24.36,90.43c-1.57-.88-1.53-2.33-1.08-3.71a3.34,3.34,0,0,1,2.89-2.36A3.83,3.83,0,0,1,30.1,86.1a4.71,4.71,0,0,1,.74,2.29c-.8,1-1.64,1.66-3.07,1.23C26.55,89.26,25.45,90,24.36,90.43Z"/><path class="cls-4" d="M66.07,88.29c.36-.71.66-1.47,1.08-2.14a3.71,3.71,0,0,1,4.46-1.65,3.67,3.67,0,0,1,2.29,4.14,13.62,13.62,0,0,1-.75,2.29c-1.05-.86-2.22-1.7-3.6-1.32C68,90.05,67.06,89.18,66.07,88.29Z"/><path class="cls-6" d="M35.34,141.5c-1.22,0-2.45,0-3.67,0-.47,0-1.08.13-1.26-.53a1.57,1.57,0,0,1,.48-1.38,5.76,5.76,0,0,1,9.73.62.78.78,0,0,1-.68,1.26c-1.53,0-3.07,0-4.6,0Z"/><path class="cls-6" d="M67.1,141.38H56.5c-.41-1,.25-1.61.76-2.2a5.63,5.63,0,0,1,3.41-1.9C63.35,136.82,65.5,138.1,67.1,141.38Z"/><path class="cls-10" d="M39.67,131.4a8.31,8.31,0,0,1-.63,2.89.8.8,0,0,1-1,.37c-.41-.1-.79-.27-.86-.73a6.61,6.61,0,0,1,.66-3.22c.19-.5.86-.45,1.36-.3C39.45,130.49,39.71,130.68,39.67,131.4Z"/><path class="cls-10" d="M58.4,130.39a.88.88,0,0,1,1,.44,6.52,6.52,0,0,1,.56,2.91c0,.59-.44.86-1,.87a.75.75,0,0,1-.86-.63c-.18-.88-.39-1.75-.55-2.64C57.41,130.78,57.76,130.41,58.4,130.39Z"/><path class="cls-9" d="M53.6,62.24c-3.94,3.5-6.16,3.5-10,0-.55.48-1.1,1-1.72,1.48a5.26,5.26,0,0,1-7-.31,8.35,8.35,0,0,1-2.72-6.89,1.26,1.26,0,0,1,1.13-1.25,1.31,1.31,0,0,1,1.57,1.1c.17.69.26,1.4.39,2.11a5,5,0,0,0,1.24,2.43,2.54,2.54,0,0,0,4.2-.06,5.86,5.86,0,0,0,1.34-3A10.66,10.66,0,0,1,42.32,56a1.25,1.25,0,0,1,1.22-.78,1.27,1.27,0,0,1,1.24.75,5.71,5.71,0,0,1,.3,1.49,6.14,6.14,0,0,0,1,2.87c1.4,2.15,3.5,2.2,5,.1A5.19,5.19,0,0,0,52,58.16a19.07,19.07,0,0,1,.43-2.1,1.15,1.15,0,0,1,1.15-.84,1.24,1.24,0,0,1,1.39,1c.23.89.31,1.81.57,2.69.46,1.55,1.29,2.83,3,3.09,1.32.19,2.69-1.13,3.32-3.13.27-.87.33-1.8.56-2.68a1.26,1.26,0,0,1,1.42-.92,1.28,1.28,0,0,1,1.25,1.15c.51,2.78-1.58,6.82-4.14,8a5,5,0,0,1-5-.27A27.18,27.18,0,0,1,53.6,62.24Z"/><path class="cls-9" d="M48.75,81.79c2.26,0,4.52,0,6.77,0,1.3,0,1.78.6,1.86,1.94A8.82,8.82,0,1,1,39.77,84c0-1.62.57-2.21,2.22-2.24,2.25,0,4.51,0,6.76,0Zm-6,3a6,6,0,0,0,1.06,3,5.64,5.64,0,0,0,5.6,2.44,5.75,5.75,0,0,0,4.83-4.18c.22-.71-.1-1.26-.82-1.28C49.94,84.7,46.48,84.72,42.74,84.76Z"/><path class="cls-9" d="M62.14,79.12c1.27.8,2.59,1.57,3.83,2.45a1.33,1.33,0,0,1-.15,2.29,1.17,1.17,0,0,1-1.16.13c-2.29-1.34-4.59-2.66-6.83-4.08A1.3,1.3,0,0,1,58,77.8c2.16-1.35,4.37-2.64,6.59-3.89a1.4,1.4,0,0,1,1.3,2.48c-.67.47-1.4.84-2.08,1.29S62.44,78.27,62.14,79.12Z"/><path class="cls-9" d="M35.21,79.07a12.36,12.36,0,0,0-3-2.11A6.09,6.09,0,0,1,31,76.05,1.31,1.31,0,0,1,31,74.36a1.28,1.28,0,0,1,1.32-.55,1.44,1.44,0,0,1,.58.17c2,1.18,4.06,2.32,6,3.57a1.47,1.47,0,0,1,0,2.7c-2.07,1.3-4.2,2.49-6.33,3.68A1.22,1.22,0,0,1,31,83.5a1.39,1.39,0,0,1,.21-1.92,11,11,0,0,1,1.25-.86C33.3,80.19,34.18,79.68,35.21,79.07Z"/><path class="cls-11" d="M42.74,84.76c3.74,0,7.2-.06,10.67,0,.72,0,1,.57.82,1.28a5.75,5.75,0,0,1-4.83,4.18,5.64,5.64,0,0,1-5.6-2.44A6,6,0,0,1,42.74,84.76Z"/></svg>