<?xml version="1.0" encoding="utf-8"?>
<!-- Generator: Adobe Illustrator 25.3.0, SVG Export Plug-In . SVG Version: 6.00 Build 0)  -->
<svg version="1.1" id="レイヤー_1" xmlns="http://www.w3.org/2000/svg" xmlns:xlink="http://www.w3.org/1999/xlink" x="0px"
	 y="0px" viewBox="0 0 397.5 188.6" style="enable-background:new 0 0 397.5 188.6;" xml:space="preserve">
<style type="text/css">
	.st0{fill:#FFFDFE;stroke:#3C0000;stroke-width:1.5;stroke-miterlimit:10;}
	.st1{fill:#F59F37;}
	.st2{enable-background:new    ;}
	.st3{fill:#FFFFFF;}
</style>
<path class="st0" d="M44.7,187.7c-23.8,0-43-19.3-43.1-43.1L0.8,43.8C0.8,20,20,0.8,43.8,0.8h309.9c23.8,0,43,19.3,43.1,43.1
	l0.9,100.8c0,4.2-0.6,8.4-1.9,12.5c-0.4,1.3-0.9,2.6-1.4,3.9c-0.4,0.9-0.7,1.6-1,2.3c-0.8,1.7-1.7,3.3-2.7,4.8
	c-0.3,0.4-0.6,0.9-0.9,1.3c-0.5,0.8-1.1,1.5-1.6,2.2l-0.5,0.7c-0.8,1-1.6,1.9-2.5,2.7l-0.2,0.2c-2.3,2.3-4.9,4.3-7.6,6
	c-0.5,0.3-1,0.6-1.5,0.9c-2.7,1.5-5.5,2.7-8.4,3.6l-1.5,0.4c-2.4,0.7-4.9,1.1-7.5,1.3c-1.3,0.1-2.6,0.2-3.8,0.2L44.7,187.7z"/>
<path class="st1" d="M353.7,8.3H43.8C24.2,8.3,8.3,24.2,8.3,43.8l0.9,100.8c0,19.6,15.9,35.5,35.5,35.5c0,0,0,0,0,0h309.9
	c1.1,0,2.1-0.1,3.2-0.1c2.1-0.2,4.1-0.5,6.1-1.1l1.3-0.4c2.4-0.8,4.7-1.8,6.9-3c0.4-0.2,0.9-0.5,1.3-0.8c2.3-1.4,4.4-3.1,6.3-5
	l0.1-0.1l0.1-0.1c0.7-0.7,1.4-1.5,2.1-2.3l0.5-0.6c0.5-0.6,0.9-1.2,1.4-1.8c0.2-0.4,0.5-0.7,0.7-1.1c0.8-1.3,1.6-2.6,2.2-3.9
	c0.3-0.6,0.6-1.3,0.9-1.9c0.4-1,0.8-2.1,1.1-3.2c1-3.3,1.5-6.8,1.5-10.3l-0.9-100.8C389.2,24.2,373.3,8.3,353.7,8.3
	C353.7,8.3,353.7,8.3,353.7,8.3z"/>
<g class="st2">
	<path class="st3" d="M91.9,65.4c-0.5,0-0.9-0.2-1.3-0.5c-0.4-0.4-0.5-0.8-0.5-1.3v-1c0-0.5,0.2-0.9,0.5-1.3
		c0.4-0.4,0.8-0.5,1.3-0.5h5.5c0.2,0,0.3-0.1,0.3-0.3c0-1.1,0.1-2,0.1-2.6c0-0.5,0.2-0.9,0.5-1.3c0.4-0.4,0.8-0.5,1.3-0.5h1.4
		c0.5,0,0.9,0.2,1.3,0.5c0.4,0.4,0.5,0.8,0.5,1.3c0,0.6,0,1.5-0.1,2.6c0,0.2,0.1,0.3,0.3,0.3h9.9c0.5,0,0.9,0.2,1.3,0.5
		c0.4,0.4,0.5,0.8,0.5,1.3v2.2c0,2.7,0,5-0.1,6.9c-0.1,1.9-0.2,3.5-0.4,4.9c-0.2,1.4-0.5,2.4-0.7,3.2s-0.7,1.4-1.2,1.9
		s-1,0.7-1.5,0.9c-0.5,0.1-1.2,0.2-2,0.2c-1.5,0-3.2-0.1-5-0.3c-0.5,0-0.9-0.3-1.2-0.7c-0.3-0.4-0.5-0.8-0.4-1.3l0.1-1.1
		c0-0.5,0.3-0.9,0.6-1.2c0.4-0.3,0.8-0.5,1.3-0.4c1.2,0.1,2.2,0.2,3,0.2c0.6,0,1-0.2,1.3-0.6c0.3-0.4,0.5-1.4,0.6-2.9
		c0.2-1.5,0.2-3.9,0.2-7v-1.7c0-0.2-0.1-0.3-0.3-0.3h-6.3c-0.2,0-0.3,0.1-0.3,0.3c-0.4,4-1.3,7.2-2.5,9.8c-1.2,2.5-3,4.8-5.3,6.8
		c-0.4,0.3-0.8,0.5-1.3,0.4c-0.5,0-0.9-0.3-1.3-0.6L91,81.2c-0.3-0.4-0.5-0.8-0.4-1.3c0-0.5,0.2-0.9,0.6-1.2
		c1.8-1.6,3.1-3.3,4.1-5.3s1.6-4.5,2-7.7c0-0.2,0-0.3-0.3-0.3H91.9z"/>
	<path class="st3" d="M124.2,63.5c-0.5,0-0.9-0.2-1.3-0.5c-0.4-0.4-0.5-0.8-0.5-1.3v-1.3c0-0.5,0.2-0.9,0.5-1.3
		c0.4-0.4,0.8-0.5,1.3-0.5h21.3c0.5,0,0.9,0.2,1.3,0.5c0.4,0.4,0.5,0.8,0.5,1.3c-0.1,7-1.8,12.2-5,15.9c-3.2,3.6-8.1,5.8-14.6,6.7
		c-0.5,0.1-1-0.1-1.4-0.4c-0.4-0.3-0.7-0.7-0.8-1.2l-0.2-1.2c-0.1-0.5,0-0.9,0.3-1.3c0.3-0.4,0.7-0.6,1.2-0.7
		c4.8-0.6,8.3-2,10.7-4.3s3.8-5.6,4.3-10.1c0-0.2-0.1-0.3-0.2-0.3H124.2z"/>
	<path class="st3" d="M158.3,82.1c-0.5,0-0.9-0.2-1.3-0.5c-0.4-0.4-0.5-0.8-0.5-1.3v-0.4c0-0.5,0.2-0.9,0.5-1.3
		c0.4-0.4,0.8-0.5,1.3-0.5h5.7c0.2,0,0.3-0.1,0.3-0.3v-9.9c0-0.2-0.1-0.3-0.3-0.3h-5c-0.5,0-0.9-0.2-1.3-0.5
		c-0.4-0.4-0.5-0.8-0.5-1.3v-0.4c0-0.5,0.2-0.9,0.5-1.3c0.4-0.4,0.8-0.5,1.3-0.5h15.2c0.5,0,0.9,0.2,1.3,0.5
		c0.4,0.4,0.5,0.8,0.5,1.3v0.4c0,0.5-0.2,0.9-0.5,1.3c-0.4,0.4-0.8,0.5-1.3,0.5h-4.9c-0.2,0-0.3,0.1-0.3,0.3v9.9
		c0,0.2,0.1,0.3,0.3,0.3h5.7c0.5,0,0.9,0.2,1.3,0.5c0.4,0.4,0.5,0.8,0.5,1.3v0.4c0,0.5-0.2,0.9-0.5,1.3c-0.4,0.4-0.8,0.5-1.3,0.5
		H158.3z"/>
	<path class="st3" d="M196.9,82c-5.9,0-8.9-2-8.9-6c0-1,0.4-2.1,1.1-3c0.7-1,2-2,3.8-3.2c0.1-0.1,0.1-0.2,0-0.4
		c-1.4-1.3-2.3-2.3-2.8-3.1s-0.7-1.7-0.7-2.8c0-1.6,0.7-2.9,2.1-4c1.4-1,3.4-1.6,5.9-1.6c2.7,0,4.8,0.5,6.2,1.5
		c1.4,1,2.1,2.4,2.1,4.1c0,1.1-0.4,2.2-1.2,3.2c-0.8,1-2.2,2.1-4.1,3.3c-0.1,0.1-0.2,0.2,0,0.3l3,2.8c0,0,0.1,0.1,0.1,0
		c0.1,0,0.1-0.1,0.1-0.1V71c0-0.5,0.2-0.9,0.5-1.3c0.4-0.4,0.8-0.5,1.3-0.5h1.3c0.5,0,0.9,0.2,1.3,0.5c0.4,0.4,0.5,0.8,0.5,1.3v6.8
		c0,0.2,0.1,0.3,0.2,0.4l2.3,2.2c0.2,0.2,0.3,0.5,0.2,0.8c-0.1,0.3-0.3,0.4-0.7,0.4h-2.2c-1.2,0-2.2-0.4-3.2-1.2l-0.1-0.1
		c-0.1-0.1-0.3-0.1-0.5-0.1C201.8,81.5,199.2,82,196.9,82z M196,72.7c-1.7,1.1-2.5,2-2.5,2.9c0,1.6,1.2,2.3,3.6,2.3
		c1.3,0,2.5-0.3,3.8-0.8c0.1-0.1,0.2-0.2,0-0.3l-4.5-4.1C196.3,72.6,196.1,72.6,196,72.7z M197.5,61.8c-0.9,0-1.7,0.2-2.2,0.5
		c-0.5,0.4-0.8,0.8-0.8,1.4c0,0.5,0.1,0.9,0.4,1.4c0.3,0.4,0.9,1.1,1.8,2c0.1,0.1,0.3,0.1,0.4,0.1c1.4-0.8,2.3-1.5,2.7-1.9
		c0.4-0.4,0.6-1,0.6-1.5C200.5,62.5,199.5,61.8,197.5,61.8z"/>
	<path class="st3" d="M217.5,81.5c-0.4-0.2-0.8-0.5-0.9-1c-0.2-0.5-0.1-0.9,0.1-1.3c2.9-5.7,4.7-11.9,5.3-18.6
		c0-0.5,0.3-0.9,0.6-1.2c0.4-0.3,0.8-0.5,1.3-0.5l1.8,0.1c0.5,0,0.9,0.2,1.2,0.6c0.3,0.4,0.5,0.8,0.5,1.3
		c-0.6,7.4-2.5,14.3-5.8,20.6c-0.2,0.4-0.6,0.8-1.1,0.9c-0.5,0.2-1,0.1-1.4-0.1L217.5,81.5z M234.4,61.7c-0.1-0.2-0.4-0.8-1-1.9
		c-0.2-0.4-0.3-0.9-0.1-1.3c0.1-0.5,0.4-0.8,0.9-1.1h0c0.4-0.2,0.9-0.3,1.4-0.1c0.5,0.1,0.9,0.4,1.1,0.9c0.2,0.4,0.6,1.1,1.1,2
		c0.2,0.4,0.2,0.9,0.1,1.4c-0.2,0.5-0.5,0.8-0.9,1c-0.5,0.2-0.9,0.2-1.4,0.1C235,62.5,234.6,62.2,234.4,61.7z M238.3,65.1
		c0.5-0.1,1-0.1,1.4,0.1c0.5,0.2,0.8,0.6,0.9,1.1c1.5,4.3,2.8,9,3.9,13.9c0.1,0.5,0,0.9-0.2,1.4c-0.3,0.4-0.6,0.7-1.1,0.8l-2,0.4
		c-0.5,0.1-0.9,0-1.4-0.3c-0.4-0.3-0.7-0.7-0.8-1.2c-1.1-4.8-2.3-9.3-3.6-13.5c-0.1-0.5-0.1-0.9,0.1-1.3c0.2-0.4,0.6-0.7,1.1-0.9
		L238.3,65.1z M239.5,60.8c-0.1-0.2-0.3-0.5-0.5-1c-0.2-0.4-0.4-0.8-0.5-1c-0.2-0.4-0.3-0.9-0.1-1.4c0.1-0.5,0.4-0.8,0.9-1.1l0.1,0
		c0.4-0.2,0.9-0.3,1.4-0.1s0.9,0.4,1.1,0.9c0.7,1.3,1.1,2,1.1,2.1c0.2,0.4,0.3,0.9,0.1,1.4c-0.2,0.5-0.5,0.8-0.9,1l-0.1,0.1
		c-0.4,0.2-0.9,0.2-1.4,0.1C240.1,61.5,239.8,61.2,239.5,60.8z"/>
	<path class="st3" d="M253.8,71.9c-0.5,0-0.9-0.2-1.3-0.5c-0.4-0.4-0.5-0.8-0.5-1.3V59.1c0-0.5,0.2-0.9,0.5-1.3
		c0.4-0.4,0.8-0.5,1.3-0.5h1.8c0.5,0,0.9,0.2,1.3,0.5c0.4,0.4,0.5,0.8,0.5,1.3V70c0,0.5-0.2,0.9-0.5,1.3c-0.4,0.4-0.8,0.5-1.3,0.5
		H253.8z M271.5,57.3c0.5,0,0.9,0.2,1.3,0.5c0.4,0.4,0.5,0.8,0.5,1.3v7.2c0,5.3-1.3,9.3-3.8,12.1c-2.5,2.8-6.4,4.5-11.7,5.2
		c-0.5,0.1-1-0.1-1.4-0.4s-0.7-0.7-0.8-1.2l-0.3-1.2c-0.1-0.5,0-0.9,0.3-1.3s0.7-0.6,1.2-0.7c4.1-0.6,7-1.9,8.6-3.7
		c1.6-1.8,2.4-4.7,2.4-8.8v-7.3c0-0.5,0.2-0.9,0.5-1.3c0.4-0.4,0.8-0.5,1.3-0.5H271.5z"/>
	<path class="st3" d="M283.1,81.5l-0.6-1.1c-0.2-0.4-0.3-0.9-0.1-1.4c0.2-0.5,0.5-0.8,0.9-1.1c7.2-3.8,12.6-8.8,16.1-15
		c0,0,0-0.1,0-0.1c0-0.1-0.1-0.1-0.1-0.1h-12.9c-0.5,0-0.9-0.2-1.3-0.5c-0.4-0.4-0.5-0.8-0.5-1.3v-1.2c0-0.5,0.2-0.9,0.5-1.3
		c0.4-0.4,0.8-0.5,1.3-0.5h17.2c0.5,0,0.9,0.2,1.3,0.5c0.4,0.4,0.5,0.8,0.5,1.3V61c0,1.2-0.3,2.4-0.8,3.4c-1.3,2.5-3,4.8-4.9,7
		c-0.1,0.1-0.1,0.3,0,0.4c2.3,2.1,4.7,4.3,7.2,6.6c0.4,0.3,0.5,0.8,0.5,1.3s-0.2,0.9-0.5,1.3l-1,1c-0.4,0.4-0.8,0.5-1.3,0.5
		s-0.9-0.2-1.3-0.5c-2.3-2.2-4.6-4.4-7-6.6c-0.1-0.1-0.3-0.1-0.4,0c-3.1,2.8-6.4,5.1-10.2,6.9c-0.5,0.2-0.9,0.3-1.4,0.1
		S283.3,81.9,283.1,81.5z"/>
</g>
<g class="st2">
	<path class="st3" d="M156.5,131.8c-0.5,0-0.9-0.2-1.3-0.5c-0.4-0.4-0.5-0.8-0.5-1.3v-1c0-0.5,0.2-0.9,0.5-1.3
		c0.4-0.4,0.8-0.5,1.3-0.5h16.1c0.2,0,0.3-0.1,0.3-0.3v-13.3c0-0.2-0.1-0.3-0.3-0.3h-16.1c-0.5,0-0.9-0.2-1.3-0.5
		c-0.4-0.4-0.5-0.8-0.5-1.3v-1c0-0.5,0.2-0.9,0.5-1.3c0.4-0.4,0.8-0.5,1.3-0.5h19.7c0.5,0,0.9,0.2,1.3,0.5c0.4,0.4,0.5,0.8,0.5,1.3
		V130c0,0.5-0.2,0.9-0.5,1.3c-0.4,0.4-0.8,0.5-1.3,0.5H156.5z"/>
	<path class="st3" d="M187.2,122.8c-0.5,0-0.9-0.2-1.3-0.5c-0.4-0.4-0.5-0.8-0.5-1.3v-1.5c0-0.5,0.2-0.9,0.5-1.3
		c0.4-0.4,0.8-0.5,1.3-0.5h23c0.5,0,0.9,0.2,1.3,0.5c0.4,0.4,0.5,0.8,0.5,1.3v1.5c0,0.5-0.2,0.9-0.5,1.3c-0.4,0.4-0.8,0.5-1.3,0.5
		H187.2z"/>
	<path class="st3" d="M219.1,131.5l-0.6-1.1c-0.2-0.4-0.3-0.9-0.1-1.4c0.2-0.5,0.5-0.8,0.9-1.1c7.2-3.8,12.6-8.8,16.1-15
		c0,0,0-0.1,0-0.1c0-0.1-0.1-0.1-0.1-0.1h-12.9c-0.5,0-0.9-0.2-1.3-0.5c-0.4-0.4-0.5-0.8-0.5-1.3v-1.2c0-0.5,0.2-0.9,0.5-1.3
		c0.4-0.4,0.8-0.5,1.3-0.5h17.2c0.5,0,0.9,0.2,1.3,0.5c0.4,0.4,0.5,0.8,0.5,1.3v1.2c0,1.2-0.3,2.4-0.8,3.4c-1.3,2.5-3,4.8-4.9,7
		c-0.1,0.1-0.1,0.3,0,0.4c2.3,2.1,4.7,4.3,7.2,6.6c0.4,0.3,0.5,0.8,0.5,1.3s-0.2,0.9-0.5,1.3l-1,1c-0.4,0.4-0.8,0.5-1.3,0.5
		s-0.9-0.2-1.3-0.5c-2.3-2.2-4.6-4.4-7-6.6c-0.1-0.1-0.3-0.1-0.4,0c-3.1,2.8-6.4,5.1-10.2,6.9c-0.5,0.2-0.9,0.3-1.4,0.1
		S219.3,131.9,219.1,131.5z"/>
</g>
</svg>
