<?xml version="1.0" encoding="utf-8"?>
<!-- Generator: Adobe Illustrator 25.3.0, SVG Export Plug-In . SVG Version: 6.00 Build 0)  -->
<svg version="1.1" id="レイヤー_1" xmlns="http://www.w3.org/2000/svg" xmlns:xlink="http://www.w3.org/1999/xlink" x="0px"
	 y="0px" viewBox="0 0 397.9 188.4" style="enable-background:new 0 0 397.9 188.4;" xml:space="preserve">
<style type="text/css">
	.st0{fill:#FFFDFE;stroke:#3C0000;stroke-width:1.92;stroke-miterlimit:10;}
	.st1{fill:#EB5160;}
	.st2{enable-background:new    ;}
	.st3{fill:#FFFFFF;}
</style>
<path class="st0" d="M44,187.6c-23.7-0.1-43-19.3-43-43.1V44C1.1,20.3,20.3,1.1,44,1h309.9c23.8,0,43,19.2,43.1,43v27.2
	c-0.1,64.3-52.2,116.4-116.5,116.4H44z"/>
<path class="st1" d="M353.9,8.5H44C24.4,8.6,8.6,24.4,8.5,44v100.6c0,19.6,15.8,35.5,35.4,35.5c0,0,0,0,0,0h236.5
	c60.1,0,108.8-48.7,108.8-108.8c0,0,0,0,0-0.1V44C389.4,24.4,373.5,8.5,353.9,8.5z"/>
<g class="st2">
	<path class="st3" d="M92.5,56.4l-0.6-1.1c-0.2-0.4-0.3-0.9-0.1-1.4c0.2-0.5,0.5-0.8,0.9-1.1c7.2-3.8,12.6-8.8,16.1-15
		c0,0,0-0.1,0-0.1c0-0.1-0.1-0.1-0.1-0.1H95.7c-0.5,0-0.9-0.2-1.3-0.5c-0.4-0.4-0.5-0.8-0.5-1.3v-1.2c0-0.5,0.2-0.9,0.5-1.3
		c0.4-0.4,0.8-0.5,1.3-0.5h17.2c0.5,0,0.9,0.2,1.3,0.5c0.4,0.4,0.5,0.8,0.5,1.3v1.2c0,1.2-0.3,2.4-0.8,3.4c-1.3,2.5-3,4.8-4.9,7
		c-0.1,0.1-0.1,0.3,0,0.4c2.3,2.1,4.7,4.3,7.2,6.6c0.4,0.3,0.5,0.8,0.5,1.3s-0.2,0.9-0.5,1.3l-1,1c-0.4,0.4-0.8,0.5-1.3,0.5
		c-0.5,0-0.9-0.2-1.3-0.5c-2.3-2.2-4.6-4.4-7-6.6c-0.1-0.1-0.3-0.1-0.4,0c-3.1,2.8-6.4,5.1-10.2,6.9c-0.5,0.2-0.9,0.3-1.4,0.1
		S92.7,56.8,92.5,56.4z"/>
	<path class="st3" d="M123.3,46.4l-0.2-1.2c-0.1-0.5,0-0.9,0.3-1.3c0.3-0.4,0.7-0.6,1.2-0.8c3.9-0.7,7.6-1.9,11.2-3.6
		c3.6-1.7,6.8-3.7,9.5-6c0.4-0.3,0.8-0.5,1.3-0.4c0.5,0,0.9,0.2,1.2,0.6l0.8,0.9c0.3,0.4,0.5,0.8,0.4,1.3c0,0.5-0.3,0.9-0.6,1.3
		c-2.2,1.9-4.7,3.6-7.5,5.2c-0.2,0.1-0.3,0.2-0.3,0.4v13.8c0,0.5-0.2,0.9-0.5,1.3c-0.4,0.4-0.8,0.5-1.3,0.5h-2
		c-0.5,0-0.9-0.2-1.3-0.5c-0.4-0.4-0.5-0.8-0.5-1.3V45.4c0-0.1,0-0.1-0.1-0.2c-0.1,0-0.1-0.1-0.2,0c-3.1,1.2-6.3,2.1-9.5,2.7
		c-0.5,0.1-0.9,0-1.4-0.3S123.4,46.9,123.3,46.4z"/>
	<path class="st3" d="M156.5,47.7c-0.5,0-0.9-0.2-1.3-0.5c-0.4-0.4-0.5-0.8-0.5-1.3v-1.5c0-0.5,0.2-0.9,0.5-1.3
		c0.4-0.4,0.8-0.5,1.3-0.5h23c0.5,0,0.9,0.2,1.3,0.5c0.4,0.4,0.5,0.8,0.5,1.3v1.5c0,0.5-0.2,0.9-0.5,1.3c-0.4,0.4-0.8,0.5-1.3,0.5
		H156.5z"/>
	<path class="st3" d="M189,43.9c-0.8-3.2-1.4-5.6-1.8-7.2c-0.1-0.5-0.1-0.9,0.2-1.3c0.2-0.4,0.6-0.7,1.1-0.8l1.3-0.3
		c0.5-0.1,1,0,1.4,0.2c0.4,0.3,0.7,0.6,0.9,1.1c0.7,2.4,1.3,4.8,2,7.2c0.1,0.5,0.1,0.9-0.2,1.3c-0.3,0.4-0.6,0.7-1.1,0.8l-1.4,0.3
		c-0.5,0.1-1,0-1.4-0.2C189.4,44.7,189.1,44.3,189,43.9z M213.4,35.1c-0.2,5-0.9,9.1-2.3,12.2c-1.4,3.1-3.4,5.5-6,7.2
		c-2.7,1.7-6.2,2.8-10.7,3.4c-0.5,0.1-1-0.1-1.4-0.4c-0.4-0.3-0.7-0.7-0.8-1.2l-0.3-1.2c-0.1-0.5,0-0.9,0.3-1.3
		c0.3-0.4,0.7-0.6,1.2-0.7c3.6-0.6,6.5-1.5,8.5-2.8c2-1.3,3.6-3.1,4.5-5.6c1-2.4,1.6-5.8,1.7-9.9c0-0.5,0.2-0.9,0.6-1.2
		c0.4-0.3,0.8-0.5,1.3-0.5l1.6,0.1c0.5,0,0.9,0.2,1.3,0.6C213.3,34.1,213.5,34.5,213.4,35.1z M199.9,44.5c-0.5,0.1-0.9,0-1.4-0.2
		c-0.4-0.3-0.7-0.6-0.8-1.1c-0.7-2.9-1.4-5.4-2-7.5c-0.1-0.5-0.1-0.9,0.2-1.3c0.3-0.4,0.6-0.7,1.1-0.8l1.4-0.3c0.5-0.1,1,0,1.4,0.2
		c0.4,0.3,0.7,0.6,0.8,1.1c0.9,3.3,1.6,5.8,2,7.4c0.1,0.5,0.1,0.9-0.2,1.3c-0.3,0.4-0.6,0.7-1.1,0.8L199.9,44.5z"/>
	<path class="st3" d="M221.3,40.3c-0.5,0-0.9-0.2-1.3-0.5c-0.4-0.4-0.5-0.8-0.5-1.3v-1c0-0.5,0.2-0.9,0.5-1.3
		c0.4-0.4,0.8-0.5,1.3-0.5h5.5c0.2,0,0.3-0.1,0.3-0.3c0-1.1,0.1-2,0.1-2.6c0-0.5,0.2-0.9,0.5-1.3c0.4-0.4,0.8-0.5,1.3-0.5h1.4
		c0.5,0,0.9,0.2,1.3,0.5c0.4,0.4,0.5,0.8,0.5,1.3c0,0.6,0,1.5-0.1,2.6c0,0.2,0.1,0.3,0.3,0.3h9.9c0.5,0,0.9,0.2,1.3,0.5
		c0.4,0.4,0.5,0.8,0.5,1.3v2.2c0,2.7,0,5-0.1,6.9c-0.1,1.9-0.2,3.5-0.4,4.9c-0.2,1.4-0.5,2.4-0.7,3.2s-0.7,1.4-1.2,1.9
		s-1,0.7-1.5,0.9c-0.5,0.1-1.2,0.2-2,0.2c-1.5,0-3.2-0.1-5-0.3c-0.5,0-0.9-0.3-1.2-0.7c-0.3-0.4-0.5-0.8-0.4-1.3l0.1-1.1
		c0-0.5,0.3-0.9,0.6-1.2c0.4-0.3,0.8-0.5,1.3-0.4c1.2,0.1,2.2,0.2,3,0.2c0.6,0,1-0.2,1.3-0.6c0.3-0.4,0.5-1.4,0.6-2.9
		c0.2-1.5,0.2-3.9,0.2-7v-1.7c0-0.2-0.1-0.3-0.3-0.3H232c-0.2,0-0.3,0.1-0.3,0.3c-0.4,4-1.3,7.2-2.5,9.8c-1.2,2.5-3,4.8-5.3,6.8
		c-0.4,0.3-0.8,0.5-1.3,0.4c-0.5,0-0.9-0.3-1.3-0.6l-0.8-0.9c-0.3-0.4-0.5-0.8-0.4-1.3c0-0.5,0.2-0.9,0.6-1.2
		c1.8-1.6,3.1-3.3,4.1-5.3s1.6-4.5,2-7.7c0-0.2,0-0.3-0.3-0.3H221.3z"/>
	<path class="st3" d="M253.6,38.4c-0.5,0-0.9-0.2-1.3-0.5c-0.4-0.4-0.5-0.8-0.5-1.3v-1.3c0-0.5,0.2-0.9,0.5-1.3
		c0.4-0.4,0.8-0.5,1.3-0.5h21.3c0.5,0,0.9,0.2,1.3,0.5c0.4,0.4,0.5,0.8,0.5,1.3c-0.1,7-1.8,12.2-5,15.9c-3.2,3.6-8.1,5.8-14.6,6.7
		c-0.5,0.1-1-0.1-1.4-0.4c-0.4-0.3-0.7-0.7-0.8-1.2l-0.2-1.2c-0.1-0.5,0-0.9,0.3-1.3c0.3-0.4,0.7-0.6,1.2-0.7
		c4.8-0.6,8.3-2,10.7-4.3s3.8-5.6,4.3-10.1c0-0.2-0.1-0.3-0.2-0.3H253.6z"/>
	<path class="st3" d="M287.7,57c-0.5,0-0.9-0.2-1.3-0.5c-0.4-0.4-0.5-0.8-0.5-1.3v-0.4c0-0.5,0.2-0.9,0.5-1.3
		c0.4-0.4,0.8-0.5,1.3-0.5h5.7c0.2,0,0.3-0.1,0.3-0.3v-9.9c0-0.2-0.1-0.3-0.3-0.3h-5c-0.5,0-0.9-0.2-1.3-0.5
		c-0.4-0.4-0.5-0.8-0.5-1.3v-0.4c0-0.5,0.2-0.9,0.5-1.3c0.4-0.4,0.8-0.5,1.3-0.5h15.2c0.5,0,0.9,0.2,1.3,0.5
		c0.4,0.4,0.5,0.8,0.5,1.3v0.4c0,0.5-0.2,0.9-0.5,1.3c-0.4,0.4-0.8,0.5-1.3,0.5h-4.9c-0.2,0-0.3,0.1-0.3,0.3v9.9
		c0,0.2,0.1,0.3,0.3,0.3h5.7c0.5,0,0.9,0.2,1.3,0.5c0.4,0.4,0.5,0.8,0.5,1.3v0.4c0,0.5-0.2,0.9-0.5,1.3c-0.4,0.4-0.8,0.5-1.3,0.5
		H287.7z"/>
</g>
<g class="st2">
	<path class="st3" d="M109,96.9l-0.9-0.8c-0.4-0.3-0.6-0.7-0.6-1.2c0-0.5,0.1-0.9,0.4-1.3c2.6-3.1,4.4-6.6,5.2-10.4
		c0.1-0.5,0.4-0.9,0.8-1.2c0.4-0.3,0.8-0.5,1.4-0.4l1.4,0.1c0.5,0,0.9,0.3,1.2,0.6c0.3,0.4,0.4,0.8,0.4,1.3c0,0.1,0,0.2-0.1,0.3
		c0,0.1-0.1,0.2-0.1,0.3c0,0.2,0,0.3,0.2,0.3h11.8c0.5,0,0.9,0.2,1.3,0.5c0.4,0.4,0.5,0.8,0.5,1.3c-0.1,7-1.8,12.1-4.9,15.6
		c-3.1,3.4-8.1,5.5-14.9,6.3c-0.5,0.1-1-0.1-1.4-0.4c-0.4-0.3-0.7-0.7-0.8-1.2l-0.2-1.1c-0.1-0.5,0-0.9,0.3-1.3
		c0.3-0.4,0.7-0.6,1.1-0.7c5-0.7,8.7-2.1,10.9-4.2c2.3-2.1,3.6-5.4,4.1-9.9c0-0.2-0.1-0.3-0.2-0.3h-9.2c-0.2,0-0.3,0.1-0.4,0.3
		c-1.1,2.6-2.8,5.1-4.9,7.5c-0.3,0.4-0.8,0.6-1.3,0.6C109.8,97.4,109.3,97.2,109,96.9z"/>
	<path class="st3" d="M143.2,96.8c-0.5,0-0.9-0.2-1.3-0.5c-0.4-0.4-0.5-0.8-0.5-1.3V84c0-0.5,0.2-0.9,0.5-1.3
		c0.4-0.4,0.8-0.5,1.3-0.5h1.8c0.5,0,0.9,0.2,1.3,0.5c0.4,0.4,0.5,0.8,0.5,1.3v10.9c0,0.5-0.2,0.9-0.5,1.3c-0.4,0.4-0.8,0.5-1.3,0.5
		H143.2z M160.9,82.2c0.5,0,0.9,0.2,1.3,0.5c0.4,0.4,0.5,0.8,0.5,1.3v7.2c0,5.3-1.3,9.3-3.8,12.1c-2.5,2.8-6.4,4.5-11.7,5.2
		c-0.5,0.1-1-0.1-1.4-0.4s-0.7-0.7-0.8-1.2l-0.3-1.2c-0.1-0.5,0-0.9,0.3-1.3c0.3-0.4,0.7-0.6,1.2-0.7c4.1-0.6,7-1.9,8.6-3.7
		c1.6-1.8,2.4-4.7,2.4-8.8V84c0-0.5,0.2-0.9,0.5-1.3c0.4-0.4,0.8-0.5,1.3-0.5H160.9z"/>
	<path class="st3" d="M173.2,106.7c-0.5,0-0.9-0.2-1.3-0.5c-0.4-0.4-0.5-0.8-0.5-1.3v-1c0-0.5,0.2-0.9,0.5-1.3
		c0.4-0.4,0.8-0.5,1.3-0.5h7.9c0.2,0,0.3-0.1,0.3-0.3V88.4c0-0.2-0.1-0.3-0.3-0.3h-6.9c-0.5,0-0.9-0.2-1.3-0.5
		c-0.4-0.4-0.5-0.8-0.5-1.3v-1c0-0.5,0.2-0.9,0.5-1.3c0.4-0.4,0.8-0.5,1.3-0.5H194c0.5,0,0.9,0.2,1.3,0.5c0.4,0.4,0.5,0.8,0.5,1.3v1
		c0,0.5-0.2,0.9-0.5,1.3c-0.4,0.4-0.8,0.5-1.3,0.5h-6.9c-0.2,0-0.3,0.1-0.3,0.3v13.3c0,0.2,0.1,0.3,0.3,0.3h7.9
		c0.5,0,0.9,0.2,1.3,0.5c0.4,0.4,0.5,0.8,0.5,1.3v1c0,0.5-0.2,0.9-0.5,1.3c-0.4,0.4-0.8,0.5-1.3,0.5H173.2z"/>
	<path class="st3" d="M203.3,96.4l-0.2-1.2c-0.1-0.5,0-0.9,0.3-1.3c0.3-0.4,0.7-0.6,1.2-0.8c3.9-0.7,7.6-1.9,11.2-3.6
		c3.6-1.7,6.8-3.7,9.5-6c0.4-0.3,0.8-0.5,1.3-0.4c0.5,0,0.9,0.2,1.2,0.6l0.8,0.9c0.3,0.4,0.5,0.8,0.4,1.3c0,0.5-0.3,0.9-0.6,1.3
		c-2.2,1.9-4.7,3.6-7.5,5.2c-0.2,0.1-0.3,0.2-0.3,0.4v13.8c0,0.5-0.2,0.9-0.5,1.3c-0.4,0.4-0.8,0.5-1.3,0.5h-2
		c-0.5,0-0.9-0.2-1.3-0.5c-0.4-0.4-0.5-0.8-0.5-1.3V95.4c0-0.1,0-0.1-0.1-0.2c-0.1,0-0.1-0.1-0.2,0c-3.1,1.2-6.3,2.1-9.5,2.7
		c-0.5,0.1-0.9,0-1.4-0.3S203.4,96.9,203.3,96.4z"/>
	<path class="st3" d="M236.6,96.6l-0.8-0.7c-0.4-0.3-0.6-0.7-0.6-1.2c0-0.5,0.1-0.9,0.4-1.3c2.6-3.1,4.4-6.6,5.2-10.4
		c0.1-0.5,0.4-0.9,0.8-1.3c0.4-0.3,0.9-0.5,1.3-0.5l1.3,0.1c0.5,0,0.9,0.2,1.2,0.6c0.3,0.4,0.4,0.8,0.4,1.2c0,0.1,0,0.2-0.1,0.3
		c0,0.1-0.1,0.2-0.1,0.3c0,0.1,0,0.1,0,0.2c0.1,0.1,0.1,0.1,0.2,0.1h12.3c0.5,0,0.9,0.2,1.3,0.5c0.4,0.4,0.5,0.8,0.5,1.3
		c0,7.2-1.6,12.5-4.8,16.1c-3.1,3.5-8.1,5.7-15,6.5c-0.5,0.1-1-0.1-1.4-0.4c-0.4-0.3-0.7-0.7-0.7-1.2l-0.2-1.1
		c-0.1-0.5,0-0.9,0.3-1.3c0.3-0.4,0.7-0.6,1.2-0.7c5-0.7,8.6-2,10.8-4.1c0.1-0.1,0.1-0.2-0.1-0.3c-1.6-0.8-3.6-1.8-6-2.9
		c-0.4-0.2-0.7-0.5-0.9-1s-0.1-0.9,0.1-1.3l0.7-1.3c0.2-0.4,0.6-0.8,1.1-0.9s1-0.1,1.4,0.1c2.6,1.2,4.7,2.2,6.3,3
		c0.1,0.1,0.3,0,0.3-0.1c0.6-1.7,1-3.6,1.2-5.9c0-0.2-0.1-0.3-0.3-0.3h-9.7c-0.2,0-0.3,0.1-0.4,0.3c-1.2,2.7-2.8,5.2-4.9,7.5
		c-0.3,0.4-0.8,0.6-1.3,0.6C237.4,97.1,237,96.9,236.6,96.6z"/>
	<path class="st3" d="M268.5,97.7c-0.5,0-0.9-0.2-1.3-0.5c-0.4-0.4-0.5-0.8-0.5-1.3v-1.5c0-0.5,0.2-0.9,0.5-1.3
		c0.4-0.4,0.8-0.5,1.3-0.5h23c0.5,0,0.9,0.2,1.3,0.5c0.4,0.4,0.5,0.8,0.5,1.3v1.5c0,0.5-0.2,0.9-0.5,1.3c-0.4,0.4-0.8,0.5-1.3,0.5
		H268.5z"/>
</g>
<g class="st2">
	<path class="st3" d="M157.9,156.7c-0.5,0-0.9-0.2-1.3-0.5c-0.4-0.4-0.5-0.8-0.5-1.3v-1c0-0.5,0.2-0.9,0.5-1.3
		c0.4-0.4,0.8-0.5,1.3-0.5H174c0.2,0,0.3-0.1,0.3-0.3v-13.3c0-0.2-0.1-0.3-0.3-0.3h-16.1c-0.5,0-0.9-0.2-1.3-0.5
		c-0.4-0.4-0.5-0.8-0.5-1.3v-1c0-0.5,0.2-0.9,0.5-1.3c0.4-0.4,0.8-0.5,1.3-0.5h19.7c0.5,0,0.9,0.2,1.3,0.5c0.4,0.4,0.5,0.8,0.5,1.3
		v19.5c0,0.5-0.2,0.9-0.5,1.3c-0.4,0.4-0.8,0.5-1.3,0.5H157.9z"/>
	<path class="st3" d="M188.5,147.7c-0.5,0-0.9-0.2-1.3-0.5c-0.4-0.4-0.5-0.8-0.5-1.3v-1.5c0-0.5,0.2-0.9,0.5-1.3
		c0.4-0.4,0.8-0.5,1.3-0.5h23c0.5,0,0.9,0.2,1.3,0.5c0.4,0.4,0.5,0.8,0.5,1.3v1.5c0,0.5-0.2,0.9-0.5,1.3c-0.4,0.4-0.8,0.5-1.3,0.5
		H188.5z"/>
	<path class="st3" d="M220.5,156.4l-0.6-1.1c-0.2-0.4-0.3-0.9-0.1-1.4c0.2-0.5,0.5-0.8,0.9-1.1c7.2-3.8,12.6-8.8,16.1-15
		c0,0,0-0.1,0-0.1c0-0.1-0.1-0.1-0.1-0.1h-12.9c-0.5,0-0.9-0.2-1.3-0.5c-0.4-0.4-0.5-0.8-0.5-1.3v-1.2c0-0.5,0.2-0.9,0.5-1.3
		c0.4-0.4,0.8-0.5,1.3-0.5h17.2c0.5,0,0.9,0.2,1.3,0.5c0.4,0.4,0.5,0.8,0.5,1.3v1.2c0,1.2-0.3,2.4-0.8,3.4c-1.3,2.5-3,4.8-4.9,7
		c-0.1,0.1-0.1,0.3,0,0.4c2.3,2.1,4.7,4.3,7.2,6.6c0.4,0.3,0.5,0.8,0.5,1.3s-0.2,0.9-0.5,1.3l-1,1c-0.4,0.4-0.8,0.5-1.3,0.5
		c-0.5,0-0.9-0.2-1.3-0.5c-2.3-2.2-4.6-4.4-7-6.6c-0.1-0.1-0.3-0.1-0.4,0c-3.1,2.8-6.4,5.1-10.2,6.9c-0.5,0.2-0.9,0.3-1.4,0.1
		S220.7,156.8,220.5,156.4z"/>
</g>
</svg>
