<?xml version="1.0" encoding="utf-8"?>
<!-- Generator: Adobe Illustrator 25.3.0, SVG Export Plug-In . SVG Version: 6.00 Build 0)  -->
<svg version="1.1" id="レイヤー_1" xmlns="http://www.w3.org/2000/svg" xmlns:xlink="http://www.w3.org/1999/xlink" x="0px"
	 y="0px" viewBox="0 0 397.9 187.7" style="enable-background:new 0 0 397.9 187.7;" xml:space="preserve">
<style type="text/css">
	.st0{fill:#FFFFFF;}
	.st1{font-family:'RoundedMplus1c-ExtraBold';}
	.st2{font-size:32px;}
	.st3{fill:#FFFDFE;stroke:#3C0000;stroke-width:1.5;stroke-miterlimit:10;}
	.st4{fill:#B86A39;}
</style>
<text transform="matrix(1 0 0 1 102.96 98.39)" class="st0 st1 st2">ブーランジェ</text>
<text transform="matrix(1 0 0 1 118.96 148.39)" class="st0 st1 st2">パンコース</text>
<path class="st3" d="M44.7,187.7c-23.8,0-43-19.3-43.1-43.1L0.8,43.8c0-23.8,19.2-43,43-43h309.9c23.8,0,43,19.3,43.1,43.1
	l0.9,100.8c0,4.2-0.6,8.4-1.9,12.5c-0.4,1.3-0.9,2.6-1.4,3.9c-0.4,0.9-0.7,1.6-1,2.3c-0.8,1.7-1.7,3.3-2.7,4.8
	c-0.3,0.4-0.6,0.9-0.9,1.3c-0.5,0.8-1.1,1.5-1.6,2.2l-0.5,0.7c-0.8,1-1.6,1.9-2.5,2.7l-0.2,0.2c-2.3,2.3-4.9,4.3-7.6,6
	c-0.5,0.3-1,0.6-1.5,0.9c-2.7,1.5-5.5,2.7-8.4,3.6l-1.5,0.4c-2.4,0.7-4.9,1.1-7.5,1.3c-1.3,0.1-2.6,0.2-3.8,0.2L44.7,187.7z"/>
<path class="st4" d="M353.7,8.3H43.8C24.2,8.3,8.3,24.2,8.3,43.8l0.9,100.8c0,19.6,15.9,35.5,35.5,35.5l0,0h309.9
	c1.1,0,2.1-0.1,3.2-0.1c2.1-0.2,4.1-0.5,6.1-1.1l1.3-0.4c2.4-0.8,4.7-1.8,6.9-3c0.4-0.2,0.9-0.5,1.3-0.8c2.3-1.4,4.4-3.1,6.3-5
	l0.1-0.1l0.1-0.1c0.7-0.7,1.4-1.5,2.1-2.3l0.5-0.6c0.5-0.6,0.9-1.2,1.4-1.8c0.2-0.4,0.5-0.7,0.7-1.1c0.8-1.3,1.6-2.6,2.2-3.9
	c0.3-0.6,0.6-1.3,0.9-1.9c0.4-1,0.8-2.1,1.1-3.2c1-3.3,1.5-6.8,1.5-10.3l-0.9-100.8C389.2,24.2,373.3,8.3,353.7,8.3L353.7,8.3z"/>
<g>
	<path class="st0" d="M58.9,63.9c-0.5,0-0.9-0.2-1.3-0.5C57.2,63,57,62.5,57,62v-1.3c0-0.5,0.2-0.9,0.5-1.3c0.4-0.4,0.8-0.5,1.3-0.5
		h18c0.1,0,0.1,0,0.1-0.1c0-0.1,0-0.1,0-0.1c0-0.1-0.1-0.2-0.2-0.4c-0.1-0.1-0.1-0.3-0.2-0.4c-0.2-0.4-0.3-0.8-0.1-1.2
		s0.4-0.7,0.8-1c0.4-0.2,0.8-0.2,1.3-0.1c0.5,0.1,0.8,0.4,1,0.8c0.5,0.9,0.8,1.6,1.1,2c0.6,1.2,0.8,2.3,0.8,3.5
		c-0.3,6.5-2.1,11.5-5.3,14.9s-8,5.5-14.3,6.3c-0.5,0.1-1-0.1-1.4-0.4c-0.4-0.3-0.7-0.7-0.8-1.2l-0.3-1.2c-0.1-0.5,0-0.9,0.3-1.3
		c0.3-0.4,0.7-0.6,1.2-0.7c4.8-0.6,8.3-2,10.6-4.3c2.3-2.2,3.8-5.6,4.2-10.1c0-0.2,0-0.3-0.2-0.3H58.9z M84.6,56.1
		c0.1,0.2,0.3,0.5,0.5,0.9c0.2,0.4,0.3,0.7,0.4,0.9c0.2,0.4,0.2,0.9,0.1,1.3c-0.1,0.4-0.4,0.7-0.9,1c-0.4,0.2-0.9,0.2-1.3,0.1
		c-0.4-0.1-0.8-0.4-1-0.9c-0.2-0.4-0.5-1-0.9-1.7c-0.2-0.4-0.3-0.9-0.1-1.3c0.1-0.4,0.4-0.8,0.8-1c0.4-0.2,0.9-0.2,1.3-0.1
		C84,55.4,84.4,55.7,84.6,56.1z"/>
	<path class="st0" d="M91.1,72.9c-0.5,0-0.9-0.2-1.3-0.5c-0.4-0.4-0.5-0.8-0.5-1.3v-1.5c0-0.5,0.2-0.9,0.5-1.3
		c0.4-0.4,0.8-0.5,1.3-0.5h23.1c0.5,0,0.9,0.2,1.3,0.5c0.4,0.4,0.5,0.8,0.5,1.3V71c0,0.5-0.2,0.9-0.5,1.3c-0.4,0.4-0.8,0.5-1.3,0.5
		H91.1z"/>
	<path class="st0" d="M123.5,70.8c-0.5,0-0.9-0.2-1.3-0.5c-0.4-0.4-0.5-0.8-0.5-1.3v-1c0-0.5,0.2-0.9,0.5-1.3
		c0.4-0.4,0.8-0.5,1.3-0.5h21.9c0.5,0,0.9,0.2,1.3,0.5c0.4,0.4,0.5,0.8,0.5,1.3c-0.2,4.7-1.8,8.4-4.8,10.9c-3,2.6-7.6,4.1-13.6,4.6
		c-0.5,0-1-0.1-1.4-0.4c-0.4-0.3-0.7-0.7-0.8-1.2l-0.2-1.1c-0.1-0.5,0-0.9,0.3-1.3c0.3-0.4,0.7-0.6,1.2-0.6c3.8-0.3,6.9-1.1,9.1-2.4
		c2.2-1.2,3.7-3.1,4.4-5.4c0-0.1,0-0.2-0.2-0.2H123.5z M125.7,57.7h17.7c0.5,0,0.9,0.2,1.3,0.5c0.4,0.4,0.5,0.8,0.5,1.3v1
		c0,0.5-0.2,0.9-0.5,1.3c-0.4,0.4-0.8,0.5-1.3,0.5h-17.7c-0.5,0-0.9-0.2-1.3-0.5c-0.4-0.4-0.5-0.8-0.5-1.3v-1c0-0.5,0.2-0.9,0.5-1.3
		C124.8,57.9,125.2,57.7,125.7,57.7z"/>
	<path class="st0" d="M156.3,62.9c-0.4-0.2-0.7-0.6-0.9-1s-0.1-0.9,0.1-1.3l0.7-1.4c0.2-0.4,0.6-0.8,1.1-0.9c0.5-0.2,1-0.1,1.4,0.1
		c2.2,1,4.5,2.2,6.8,3.4c0.4,0.2,0.7,0.6,0.9,1.1c0.1,0.5,0.1,1-0.1,1.4l-0.8,1.4c-0.2,0.4-0.6,0.7-1.1,0.9
		c-0.5,0.1-0.9,0.1-1.4-0.1C160.7,65.1,158.5,63.9,156.3,62.9z M179,61.3c0.5,0.1,0.9,0.4,1.2,0.8c0.3,0.4,0.4,0.9,0.3,1.4
		c-1.3,5.6-3.7,10-7.4,13.1c-3.7,3.1-8.7,5.1-15.1,5.9c-0.5,0.1-1-0.1-1.4-0.4c-0.4-0.3-0.7-0.7-0.7-1.2l-0.2-1.5
		c-0.1-0.5,0-0.9,0.3-1.3c0.3-0.4,0.7-0.6,1.2-0.7c5.2-0.7,9.3-2.3,12.2-4.6c2.9-2.4,5-5.8,6.2-10.3c0.1-0.5,0.4-0.9,0.8-1.1
		c0.4-0.3,0.9-0.3,1.4-0.2L179,61.3z"/>
	<path class="st0" d="M187.5,69.7c-0.5-0.1-0.9-0.3-1.2-0.8c-0.3-0.4-0.4-0.9-0.3-1.4l0.2-0.9c0.1-0.5,0.4-0.9,0.8-1.2
		c0.4-0.3,0.9-0.4,1.4-0.3c1.9,0.3,4.2,0.8,7,1.4c0.5,0.1,0.9,0.4,1.2,0.8s0.4,0.9,0.3,1.4l-0.2,0.9c-0.1,0.5-0.4,0.9-0.8,1.1
		c-0.4,0.3-0.9,0.3-1.4,0.2C192.3,70.6,189.9,70.1,187.5,69.7z M210.5,62.8c0.5,0.1,0.9,0.3,1.2,0.8s0.4,0.9,0.3,1.3
		c-1.4,5.8-3.8,10.2-7.2,13c-3.5,2.8-8.5,4.7-15.1,5.4c-0.5,0.1-1-0.1-1.4-0.4c-0.4-0.3-0.7-0.7-0.7-1.2l-0.2-1.3
		c-0.1-0.5,0-0.9,0.3-1.3c0.3-0.4,0.7-0.6,1.2-0.7c5.6-0.6,9.7-2,12.4-4.2c2.7-2.1,4.6-5.6,5.8-10.2c0.1-0.5,0.4-0.9,0.8-1.2
		c0.4-0.3,0.9-0.4,1.4-0.3L210.5,62.8z M197.3,58.8c0.5,0.1,0.9,0.3,1.2,0.8c0.3,0.4,0.4,0.9,0.3,1.4l-0.2,1
		c-0.1,0.5-0.3,0.9-0.8,1.2c-0.4,0.3-0.9,0.4-1.4,0.3c-2.9-0.6-5.3-1-7.3-1.4c-0.5-0.1-0.8-0.3-1.1-0.7s-0.4-0.9-0.3-1.3l0.2-1
		c0.1-0.5,0.3-0.9,0.8-1.2c0.4-0.3,0.9-0.4,1.4-0.3C191.3,57.7,193.8,58.1,197.3,58.8z M208.1,60.8c-0.4,0.2-0.8,0.2-1.3,0.1
		s-0.8-0.4-1-0.8c-0.1-0.2-0.3-0.5-0.4-0.8c-0.2-0.4-0.3-0.7-0.4-0.8c-0.2-0.4-0.3-0.8-0.1-1.3c0.1-0.4,0.4-0.8,0.8-1
		c0.4-0.2,0.9-0.2,1.3-0.1s0.8,0.4,1,0.9c0.1,0.2,0.3,0.5,0.4,0.8c0.2,0.4,0.3,0.7,0.4,0.8c0.2,0.4,0.2,0.9,0.1,1.3
		C208.8,60.3,208.5,60.6,208.1,60.8z M213.8,59.5c-0.1,0.4-0.4,0.7-0.9,1c-0.4,0.2-0.9,0.2-1.3,0.1c-0.4-0.1-0.8-0.4-1-0.9
		c-0.2-0.4-0.5-1-0.9-1.7c-0.2-0.4-0.3-0.9-0.1-1.3c0.1-0.4,0.4-0.8,0.8-1c0.4-0.2,0.9-0.2,1.3-0.1c0.5,0.1,0.8,0.4,1,0.8
		c0.1,0.2,0.3,0.5,0.5,0.9c0.2,0.4,0.3,0.7,0.4,0.9C213.9,58.6,214,59.1,213.8,59.5z"/>
	<path class="st0" d="M222.3,82.2c-0.5,0-0.9-0.2-1.3-0.5s-0.5-0.8-0.5-1.3v-0.4c0-0.5,0.2-0.9,0.5-1.3s0.8-0.5,1.3-0.5h5.7
		c0.2,0,0.3-0.1,0.3-0.3v-9.9c0-0.2-0.1-0.3-0.3-0.3h-5c-0.5,0-0.9-0.2-1.3-0.5c-0.4-0.4-0.5-0.8-0.5-1.3v-0.4
		c0-0.5,0.2-0.9,0.5-1.3c0.4-0.4,0.8-0.5,1.3-0.5h15.2c0.5,0,0.9,0.2,1.3,0.5c0.4,0.4,0.5,0.8,0.5,1.3v0.4c0,0.5-0.2,0.9-0.5,1.3
		c-0.4,0.4-0.8,0.5-1.3,0.5h-4.9c-0.2,0-0.3,0.1-0.3,0.3v9.9c0,0.2,0.1,0.3,0.3,0.3h5.7c0.5,0,0.9,0.2,1.3,0.5s0.5,0.8,0.5,1.3v0.4
		c0,0.5-0.2,0.9-0.5,1.3s-0.8,0.5-1.3,0.5H222.3z"/>
	<path class="st0" d="M248.3,79.2l-0.2-0.4c-0.2-0.4-0.1-0.8,0.1-1.3c0.2-0.4,0.6-0.7,1.1-0.8c1.3-0.2,2.7-0.6,4.1-1c0,0,0,0,0-0.1
		h-3.1c-0.5,0-0.9-0.2-1.3-0.5c-0.4-0.4-0.5-0.8-0.5-1.3v-0.1c0-0.5,0.2-0.9,0.5-1.3s0.8-0.5,1.3-0.5h10.5c0.2,0,0.3-0.1,0.3-0.3
		c0-0.1,0-0.4,0.1-0.6c0-0.2,0-0.3-0.2-0.3h-1.3c-0.1,0-0.1,0-0.1,0.1c0,0.4-0.2,0.6-0.5,0.6h-2.2c-0.5,0-0.9-0.2-1.3-0.5
		c-0.4-0.4-0.5-0.8-0.5-1.3v-1.9c0-0.2-0.1-0.3-0.3-0.3h-0.8c-0.2,0-0.3,0.1-0.3,0.3v1.5c0,0.5-0.2,0.9-0.5,1.3
		c-0.4,0.4-0.8,0.5-1.3,0.5h-0.6c-0.5,0-0.9-0.2-1.3-0.5c-0.4-0.4-0.5-0.8-0.5-1.3v-2.5c0-0.5,0.2-0.9,0.5-1.3
		c0.4-0.4,0.8-0.5,1.3-0.5h3.5c0.2,0,0.3-0.1,0.3-0.3v-0.2c0-0.2-0.1-0.3-0.3-0.3h-4.4c-0.4,0-0.8-0.2-1.1-0.5s-0.5-0.7-0.5-1.1
		s0.2-0.8,0.5-1.1c0.3-0.3,0.7-0.5,1.1-0.5h0.9v0l-1.1-0.3c-0.4-0.1-0.8-0.4-1-0.8c-0.2-0.4-0.2-0.8-0.1-1.3
		c0.1-0.4,0.3-0.8,0.4-1.2c0.1-0.5,0.4-0.9,0.8-1.2c0.4-0.3,0.9-0.5,1.4-0.4l1.4,0.1c0.3,0,0.5,0.1,0.7,0.4c0.2,0.2,0.2,0.5,0.2,0.8
		c0,0.1,0,0.2,0.1,0.2h0.6c0.1,0,0.2-0.1,0.2-0.2c0-0.4,0.1-0.8,0.4-1c0.3-0.3,0.6-0.4,1-0.4h1.7c0.4,0,0.8,0.1,1,0.4s0.4,0.6,0.4,1
		c0,0.1,0.1,0.2,0.2,0.2h3.7c0.4,0,0.8,0.2,1.1,0.5s0.5,0.7,0.5,1.1c0,0.4-0.2,0.8-0.5,1.1s-0.7,0.4-1.1,0.4h-3.6
		c-0.2,0-0.3,0.1-0.3,0.3v0.2c0,0.2,0.1,0.3,0.3,0.3h4c0.4,0,0.8,0.2,1.1,0.5c0.3,0.3,0.4,0.7,0.4,1.1s-0.1,0.8-0.4,1.1
		s-0.7,0.5-1.1,0.5h-4c-0.2,0-0.3,0.1-0.3,0.3v0.2c0,0.2,0.1,0.3,0.3,0.3h3.4c0.5,0,0.9,0.2,1.3,0.5c0.4,0.4,0.5,0.8,0.5,1.3v1.6
		c0,0.6,0,1.1-0.1,1.4c0,0.1,0,0.3,0.2,0.4c0.7,0.3,1,0.8,1,1.6c0,0.2,0.1,0.3,0.3,0.3h9.2c0.5,0,0.9,0.2,1.3,0.5s0.5,0.8,0.5,1.3
		v0.1c0,0.5-0.2,0.9-0.5,1.3c-0.4,0.4-0.8,0.5-1.3,0.5h-1.6c0,0-0.1,0-0.1,0s0,0,0,0.1l1.1,0.5c0.4,0.2,0.6,0.5,0.7,0.9
		c0.1,0.4,0,0.8-0.4,1.1c-0.5,0.4-1,0.9-1.6,1.3c0,0-0.1,0.1,0,0.1c0,0.1,0,0.1,0.1,0.1c0.8,0.3,1.7,0.6,2.7,0.9
		c0.4,0.1,0.8,0.4,0.9,0.8c0.2,0.4,0.2,0.8,0,1.2l-0.4,0.7c-0.3,0.5-0.6,0.8-1.1,1c-0.5,0.2-1,0.2-1.5,0.1c-2.6-0.8-5.1-2-7.2-3.6
		c-0.1-0.1-0.2-0.1-0.2,0.1v0.1c0,0.5-0.1,1-0.4,1.4c-0.3,0.4-0.7,0.6-1.2,0.7c-4.5,0.7-8.9,1.2-13.2,1.5c-0.5,0-1-0.1-1.4-0.4
		c-0.4-0.3-0.6-0.7-0.7-1.2l0-0.4c0-0.5,0.1-0.9,0.4-1.3c0.3-0.4,0.7-0.6,1.2-0.6c0.4,0,1.1-0.1,2-0.1c0.9-0.1,1.4-0.1,1.5-0.1
		c0.2,0,0.3-0.1,0.3-0.3v-1.1c0-0.1,0-0.1-0.1-0.1c-0.1,0-0.1,0-0.2,0c-1,0.4-2.6,0.9-4.6,1.5c-0.5,0.1-1,0.1-1.4-0.2
		C248.8,80,248.5,79.7,248.3,79.2z M254.9,60.8v-0.2c0-0.2-0.1-0.3-0.3-0.3h-1.3c-0.2,0-0.3,0.1-0.4,0.3c0,0,0,0.1-0.1,0.1
		c0,0.1,0,0.1-0.1,0.1c0,0,0,0.1,0,0.1c0,0.1,0.1,0.1,0.1,0.1h1.7C254.8,61.1,254.9,61,254.9,60.8z M261.2,67.8L261.2,67.8
		c0-0.2-0.1-0.3-0.3-0.3h-1.1c-0.2,0-0.3,0.1-0.3,0.3v0.4c0,0.2,0.1,0.3,0.3,0.3h0.8c0.3,0,0.5,0,0.5-0.1
		C261.2,68.3,261.2,68.1,261.2,67.8z M260.5,76.6v3.1c0,0.2,0.1,0.3,0.3,0.2l4.2-0.6c0.1,0,0.2-0.1,0.1-0.2c-1-1-1.8-2.1-2.5-3.2
		c-0.1-0.2-0.2-0.3-0.4-0.3h-0.5c-0.2,0-0.3,0.1-0.5,0.2c-0.1,0-0.1,0.1-0.3,0.2c-0.1,0.1-0.2,0.1-0.2,0.2
		C260.6,76.3,260.5,76.4,260.5,76.6z M268.7,66.4h-0.6c-0.5,0-0.9-0.2-1.3-0.5c-0.4-0.4-0.5-0.8-0.5-1.3v-6.2c0-0.5,0.2-0.9,0.5-1.3
		c0.4-0.4,0.8-0.5,1.3-0.5h0.6c0.5,0,0.9,0.2,1.3,0.5s0.5,0.8,0.5,1.3v6.2c0,0.5-0.2,0.9-0.5,1.3C269.6,66.3,269.2,66.4,268.7,66.4z
		 M269.3,71.3c-0.5,0-0.9-0.2-1.3-0.6c-0.4-0.4-0.5-0.8-0.6-1.3l0-0.3c0-0.5,0.1-0.9,0.5-1.2c0.3-0.3,0.8-0.5,1.2-0.5
		c1.2,0,1.8,0.1,1.8,0.1c0.5,0,0.8-0.1,0.9-0.2c0.1-0.1,0.1-0.5,0.1-1.1v-8.6c0-0.5,0.2-0.9,0.5-1.3s0.8-0.5,1.3-0.5h1
		c0.5,0,0.9,0.2,1.3,0.5c0.4,0.4,0.5,0.8,0.5,1.3v8.1c0,1.2,0,2.1-0.1,2.7c-0.1,0.6-0.2,1.2-0.3,1.6c-0.1,0.5-0.4,0.8-0.8,1
		s-0.9,0.3-1.4,0.4c-0.5,0.1-1.2,0.1-2.2,0.1C271,71.4,270.1,71.4,269.3,71.3z M267.9,75.7c-0.1,0-0.2,0.1-0.1,0.2
		c0.6,0.6,1.1,1.1,1.6,1.5c0.1,0.1,0.3,0.1,0.4,0c0.6-0.5,1.2-1,1.8-1.5c0,0,0.1-0.1,0-0.1c0-0.1-0.1-0.1-0.1-0.1H267.9z"/>
	<path class="st0" d="M281.5,81.6c-0.4-0.2-0.8-0.5-0.9-1s-0.1-0.9,0.1-1.3c2.9-5.7,4.7-11.9,5.3-18.6c0-0.5,0.3-0.9,0.6-1.2
		c0.4-0.3,0.8-0.5,1.3-0.5l1.8,0.1c0.5,0,0.9,0.2,1.2,0.6s0.5,0.8,0.5,1.3c-0.6,7.4-2.5,14.3-5.8,20.6c-0.2,0.4-0.6,0.8-1.1,0.9
		s-1,0.1-1.4-0.1L281.5,81.6z M305.7,63.4c-0.9,0.9-2.1,1.4-3.4,1.4c-1.3,0-2.5-0.5-3.4-1.4c-0.9-0.9-1.4-2.1-1.4-3.4
		s0.5-2.5,1.4-3.4s2.1-1.4,3.4-1.4c1.3,0,2.5,0.5,3.4,1.4c0.9,0.9,1.4,2.1,1.4,3.4S306.6,62.5,305.7,63.4z M302.8,66.4
		c0.5-0.1,0.9-0.1,1.4,0.1c0.4,0.2,0.8,0.6,0.9,1.1c1.3,3.9,2.4,8.1,3.5,12.7c0.1,0.5,0,0.9-0.2,1.3c-0.3,0.4-0.6,0.7-1.1,0.8
		l-2,0.4c-0.5,0.1-1,0-1.4-0.3c-0.4-0.3-0.7-0.7-0.8-1.2c-0.9-4.1-2-8.2-3.2-12.3c-0.1-0.5-0.1-0.9,0.1-1.4c0.2-0.4,0.6-0.7,1.1-0.9
		L302.8,66.4z M303.8,58.6c-0.4-0.4-0.9-0.6-1.5-0.6s-1.1,0.2-1.5,0.6c-0.4,0.4-0.6,0.9-0.6,1.5c0,0.6,0.2,1.1,0.6,1.5
		c0.4,0.4,0.9,0.6,1.5,0.6s1.1-0.2,1.5-0.6c0.4-0.4,0.6-0.9,0.6-1.5C304.4,59.5,304.2,59,303.8,58.6z"/>
	<path class="st0" d="M316.4,62.9c-0.4-0.2-0.7-0.6-0.9-1c-0.2-0.5-0.1-0.9,0.1-1.3l0.7-1.4c0.2-0.4,0.6-0.8,1.1-0.9
		c0.5-0.2,1-0.1,1.4,0.1c2.2,1,4.5,2.2,6.8,3.4c0.4,0.2,0.7,0.6,0.9,1.1c0.1,0.5,0.1,1-0.1,1.4l-0.8,1.4c-0.2,0.4-0.6,0.7-1.1,0.9
		c-0.5,0.1-0.9,0.1-1.4-0.1C320.8,65.1,318.6,63.9,316.4,62.9z M339.1,61.3c0.5,0.1,0.9,0.4,1.2,0.8c0.3,0.4,0.4,0.9,0.3,1.4
		c-1.3,5.6-3.7,10-7.4,13.1c-3.7,3.1-8.7,5.1-15.1,5.9c-0.5,0.1-1-0.1-1.4-0.4c-0.4-0.3-0.7-0.7-0.7-1.2l-0.2-1.5
		c-0.1-0.5,0-0.9,0.3-1.3c0.3-0.4,0.7-0.6,1.2-0.7c5.2-0.7,9.3-2.3,12.2-4.6c2.9-2.4,5-5.8,6.2-10.3c0.1-0.5,0.4-0.9,0.8-1.1
		c0.4-0.3,0.9-0.3,1.4-0.2L339.1,61.3z"/>
	<path class="st0" d="M156.5,131.9c-0.5,0-0.9-0.2-1.3-0.5c-0.4-0.4-0.5-0.8-0.5-1.3v-1c0-0.5,0.2-0.9,0.5-1.3
		c0.4-0.4,0.8-0.5,1.3-0.5h16.1c0.2,0,0.3-0.1,0.3-0.3v-13.3c0-0.2-0.1-0.3-0.3-0.3h-16.1c-0.5,0-0.9-0.2-1.3-0.5
		c-0.4-0.4-0.5-0.8-0.5-1.3v-1c0-0.5,0.2-0.9,0.5-1.3c0.4-0.4,0.8-0.5,1.3-0.5h19.8c0.5,0,0.9,0.2,1.3,0.5c0.4,0.4,0.5,0.8,0.5,1.3
		V130c0,0.5-0.2,0.9-0.5,1.3c-0.4,0.4-0.8,0.5-1.3,0.5H156.5z"/>
	<path class="st0" d="M187.1,122.9c-0.5,0-0.9-0.2-1.3-0.5c-0.4-0.4-0.5-0.8-0.5-1.3v-1.5c0-0.5,0.2-0.9,0.5-1.3
		c0.4-0.4,0.8-0.5,1.3-0.5h23.1c0.5,0,0.9,0.2,1.3,0.5c0.4,0.4,0.5,0.8,0.5,1.3v1.5c0,0.5-0.2,0.9-0.5,1.3c-0.4,0.4-0.8,0.5-1.3,0.5
		H187.1z"/>
	<path class="st0" d="M219.1,131.5l-0.6-1.1c-0.2-0.4-0.3-0.9-0.1-1.4s0.5-0.8,0.9-1.1c7.2-3.8,12.6-8.8,16.1-15c0,0,0-0.1,0-0.1
		c0-0.1-0.1-0.1-0.1-0.1h-12.9c-0.5,0-0.9-0.2-1.3-0.5c-0.4-0.4-0.5-0.8-0.5-1.3v-1.2c0-0.5,0.2-0.9,0.5-1.3
		c0.4-0.4,0.8-0.5,1.3-0.5h17.2c0.5,0,0.9,0.2,1.3,0.5c0.4,0.4,0.5,0.8,0.5,1.3v1.2c0,1.2-0.3,2.4-0.8,3.4c-1.3,2.5-3,4.8-4.9,7
		c-0.1,0.1-0.1,0.3,0,0.4c2.3,2.1,4.8,4.3,7.2,6.6c0.4,0.3,0.5,0.8,0.5,1.3c0,0.5-0.2,0.9-0.5,1.3l-1,1c-0.4,0.4-0.8,0.5-1.3,0.5
		s-0.9-0.2-1.3-0.5c-2.3-2.2-4.6-4.4-7-6.6c-0.1-0.1-0.3-0.1-0.4,0c-3.1,2.8-6.4,5.1-10.2,6.9c-0.5,0.2-1,0.3-1.4,0.1
		S219.3,132,219.1,131.5z"/>
</g>
</svg>
