<?xml version="1.0" encoding="utf-8"?>
<!-- Generator: Adobe Illustrator 25.3.0, SVG Export Plug-In . SVG Version: 6.00 Build 0)  -->
<svg version="1.1" id="レイヤー_1" xmlns="http://www.w3.org/2000/svg" xmlns:xlink="http://www.w3.org/1999/xlink" x="0px"
	 y="0px" viewBox="0 0 397.9 189.5" style="enable-background:new 0 0 397.9 189.5;" xml:space="preserve">
<style type="text/css">
	.st0{fill:#FFFDFE;stroke:#3C0000;stroke-width:1.92;stroke-miterlimit:10;}
	.st1{fill:#91C04F;}
	.st2{enable-background:new    ;}
	.st3{fill:#FFFFFF;}
</style>
<path class="st0" d="M44,188.6c-23.7-0.1-43-19.3-43-43.1v-27.8C1.1,53.5,53.1,1.4,117.4,1.3h236.5c23.8,0,43,19.2,43.1,43v101.2
	c0,23.8-19.3,43.1-43.1,43.1L44,188.6z"/>
<path class="st1" d="M353.9,8.9H117.4C57.3,8.9,8.5,57.6,8.5,117.7v27.8C8.5,165.1,24.4,181,44,181c0,0,0,0,0,0h309.9
	c19.6,0,35.5-15.9,35.5-35.5V44.3C389.4,24.7,373.5,8.9,353.9,8.9z"/>
<g class="st2">
	<path class="st3" d="M122.5,82.5c-0.4-0.2-0.8-0.5-0.9-1s-0.1-0.9,0.1-1.3c2.9-5.7,4.7-11.9,5.3-18.6c0-0.5,0.3-0.9,0.6-1.2
		c0.4-0.3,0.8-0.5,1.3-0.5l1.8,0.1c0.5,0,0.9,0.2,1.2,0.6c0.3,0.4,0.5,0.8,0.5,1.3c-0.6,7.4-2.5,14.3-5.8,20.6
		c-0.2,0.4-0.6,0.8-1.1,0.9c-0.5,0.2-1,0.1-1.4-0.1L122.5,82.5z M146.7,64.3c-0.9,0.9-2.1,1.4-3.4,1.4s-2.5-0.5-3.4-1.4
		c-0.9-0.9-1.4-2.1-1.4-3.4c0-1.3,0.5-2.5,1.4-3.4c0.9-0.9,2.1-1.4,3.4-1.4s2.5,0.5,3.4,1.4c0.9,0.9,1.4,2.1,1.4,3.4
		C148.1,62.2,147.6,63.4,146.7,64.3z M143.8,67.3c0.5-0.1,0.9-0.1,1.4,0.1c0.4,0.2,0.8,0.6,0.9,1.1c1.3,3.9,2.4,8.1,3.5,12.7
		c0.1,0.5,0,0.9-0.2,1.3c-0.3,0.4-0.6,0.7-1.1,0.8l-2,0.4c-0.5,0.1-0.9,0-1.4-0.3s-0.7-0.7-0.8-1.2c-0.9-4.1-2-8.2-3.2-12.3
		c-0.1-0.5-0.1-0.9,0.1-1.4c0.2-0.4,0.6-0.7,1.1-0.9L143.8,67.3z M144.8,59.4c-0.4-0.4-0.9-0.6-1.5-0.6s-1.1,0.2-1.5,0.6
		c-0.4,0.4-0.6,0.9-0.6,1.5s0.2,1.1,0.6,1.5s0.9,0.6,1.5,0.6s1.1-0.2,1.5-0.6c0.4-0.4,0.6-0.9,0.6-1.5S145.2,59.8,144.8,59.4z"/>
	<path class="st3" d="M155.6,71.9c-0.5,0-0.9-0.2-1.3-0.5c-0.4-0.4-0.5-0.8-0.5-1.3v-1c0-0.5,0.2-0.9,0.5-1.3
		c0.4-0.4,0.8-0.5,1.3-0.5h24.2c0.5,0,0.9,0.2,1.3,0.5c0.4,0.4,0.5,0.8,0.5,1.3v1c0,0.5-0.2,0.9-0.5,1.3c-0.4,0.4-0.8,0.5-1.3,0.5
		h-8.1c-0.2,0-0.3,0.1-0.3,0.3c0,3.2-0.9,5.8-2.5,7.8c-1.6,2-4.1,3.4-7.5,4.3c-0.5,0.1-1,0.1-1.4-0.2c-0.4-0.3-0.8-0.6-0.9-1.1
		l-0.4-1.2c-0.1-0.4-0.1-0.9,0.1-1.3s0.6-0.7,1.1-0.8c2.1-0.6,3.7-1.5,4.6-2.7c0.9-1.2,1.4-2.7,1.5-4.8c0-0.2-0.1-0.3-0.3-0.3H155.6
		z M159.4,58.6H176c0.5,0,0.9,0.2,1.3,0.5c0.4,0.4,0.5,0.8,0.5,1.3v1c0,0.5-0.2,0.9-0.5,1.3c-0.4,0.4-0.8,0.5-1.3,0.5h-16.6
		c-0.5,0-0.9-0.2-1.3-0.5c-0.4-0.4-0.5-0.8-0.5-1.3v-1c0-0.5,0.2-0.9,0.5-1.3C158.5,58.8,158.9,58.6,159.4,58.6z"/>
	<path class="st3" d="M189.5,74.7l-0.1-0.6c-0.1-0.5,0-0.9,0.3-1.3c0.3-0.4,0.7-0.6,1.2-0.8c3-0.6,5.8-1.5,8.6-2.8
		c2.8-1.3,5.2-2.8,7.4-4.6c0.4-0.3,0.8-0.4,1.3-0.4s0.9,0.2,1.2,0.6l0.4,0.4c0.3,0.4,0.5,0.9,0.4,1.4s-0.3,0.9-0.6,1.2
		c-1.6,1.4-3.5,2.7-5.6,3.8c-0.1,0.1-0.2,0.2-0.2,0.4v10.4c0,0.5-0.2,0.9-0.5,1.3c-0.4,0.4-0.8,0.5-1.3,0.5h-1.2
		c-0.5,0-0.9-0.2-1.3-0.5c-0.4-0.4-0.5-0.8-0.5-1.3v-8.1c0-0.1,0-0.1-0.1-0.1s-0.1,0-0.2,0c-2.3,0.9-4.7,1.5-7,2
		c-0.5,0.1-0.9,0-1.3-0.3C189.8,75.6,189.6,75.2,189.5,74.7z"/>
	<path class="st3" d="M220.9,70.2c-0.5-0.1-0.9-0.3-1.2-0.8s-0.4-0.9-0.3-1.4l0.2-0.9c0.1-0.5,0.4-0.9,0.8-1.2s0.9-0.4,1.4-0.3
		c1.9,0.3,4.2,0.8,7,1.4c0.5,0.1,0.9,0.4,1.2,0.8c0.3,0.4,0.4,0.9,0.3,1.4l-0.2,0.9c-0.1,0.5-0.4,0.9-0.8,1.1s-0.9,0.3-1.4,0.2
		C225.7,71.1,223.3,70.7,220.9,70.2z M245.4,64.7c-1.3,6.1-3.7,10.7-7.2,13.6c-3.5,3-8.6,4.8-15.3,5.6c-0.5,0.1-1-0.1-1.4-0.4
		c-0.4-0.3-0.6-0.7-0.7-1.2l-0.2-1.3c-0.1-0.5,0-0.9,0.3-1.3c0.3-0.4,0.7-0.6,1.2-0.7c5.7-0.6,9.9-2.1,12.6-4.3
		c2.7-2.2,4.7-5.8,5.8-10.8c0.1-0.5,0.4-0.9,0.8-1.2c0.4-0.3,0.9-0.4,1.4-0.3l1.3,0.2c0.5,0.1,0.9,0.3,1.2,0.8
		S245.6,64.2,245.4,64.7z M230.7,59.4c0.5,0.1,0.9,0.3,1.2,0.8c0.3,0.4,0.4,0.9,0.3,1.4l-0.2,1c-0.1,0.5-0.3,0.9-0.8,1.2
		s-0.9,0.4-1.4,0.3c-2.9-0.6-5.3-1-7.3-1.4c-0.5-0.1-0.8-0.3-1.1-0.7c-0.3-0.4-0.4-0.9-0.3-1.3l0.2-1c0.1-0.5,0.3-0.9,0.8-1.2
		s0.9-0.4,1.4-0.3C224.7,58.2,227.2,58.7,230.7,59.4z"/>
	<path class="st3" d="M252.8,82.7c-0.5,0-0.9-0.2-1.3-0.5c-0.4-0.4-0.5-0.8-0.5-1.3v-1c0-0.5,0.2-0.9,0.5-1.3
		c0.4-0.4,0.8-0.5,1.3-0.5h7.9c0.2,0,0.3-0.1,0.3-0.3V64.5c0-0.2-0.1-0.3-0.3-0.3h-6.9c-0.5,0-0.9-0.2-1.3-0.5
		c-0.4-0.4-0.5-0.8-0.5-1.3v-1c0-0.5,0.2-0.9,0.5-1.3c0.4-0.4,0.8-0.5,1.3-0.5h19.8c0.5,0,0.9,0.2,1.3,0.5c0.4,0.4,0.5,0.8,0.5,1.3
		v1c0,0.5-0.2,0.9-0.5,1.3c-0.4,0.4-0.8,0.5-1.3,0.5h-6.9c-0.2,0-0.3,0.1-0.3,0.3v13.3c0,0.2,0.1,0.3,0.3,0.3h7.9
		c0.5,0,0.9,0.2,1.3,0.5c0.4,0.4,0.5,0.8,0.5,1.3v1c0,0.5-0.2,0.9-0.5,1.3c-0.4,0.4-0.8,0.5-1.3,0.5H252.8z"/>
</g>
<g class="st2">
	<path class="st3" d="M157.6,132.7c-0.5,0-0.9-0.2-1.3-0.5c-0.4-0.4-0.5-0.8-0.5-1.3v-1c0-0.5,0.2-0.9,0.5-1.3
		c0.4-0.4,0.8-0.5,1.3-0.5h16.1c0.2,0,0.3-0.1,0.3-0.3v-13.3c0-0.2-0.1-0.3-0.3-0.3h-16.1c-0.5,0-0.9-0.2-1.3-0.5
		c-0.4-0.4-0.5-0.8-0.5-1.3v-1c0-0.5,0.2-0.9,0.5-1.3c0.4-0.4,0.8-0.5,1.3-0.5h19.7c0.5,0,0.9,0.2,1.3,0.5c0.4,0.4,0.5,0.8,0.5,1.3
		v19.5c0,0.5-0.2,0.9-0.5,1.3c-0.4,0.4-0.8,0.5-1.3,0.5H157.6z"/>
	<path class="st3" d="M188.2,123.7c-0.5,0-0.9-0.2-1.3-0.5c-0.4-0.4-0.5-0.8-0.5-1.3v-1.5c0-0.5,0.2-0.9,0.5-1.3
		c0.4-0.4,0.8-0.5,1.3-0.5h23c0.5,0,0.9,0.2,1.3,0.5c0.4,0.4,0.5,0.8,0.5,1.3v1.5c0,0.5-0.2,0.9-0.5,1.3c-0.4,0.4-0.8,0.5-1.3,0.5
		H188.2z"/>
	<path class="st3" d="M220.1,132.4l-0.6-1.1c-0.2-0.4-0.3-0.9-0.1-1.4s0.5-0.8,0.9-1.1c7.2-3.8,12.6-8.8,16.1-15c0,0,0-0.1,0-0.1
		c0-0.1-0.1-0.1-0.1-0.1h-12.9c-0.5,0-0.9-0.2-1.3-0.5c-0.4-0.4-0.5-0.8-0.5-1.3v-1.2c0-0.5,0.2-0.9,0.5-1.3
		c0.4-0.4,0.8-0.5,1.3-0.5h17.2c0.5,0,0.9,0.2,1.3,0.5c0.4,0.4,0.5,0.8,0.5,1.3v1.2c0,1.2-0.3,2.4-0.8,3.4c-1.3,2.5-3,4.8-4.9,7
		c-0.1,0.1-0.1,0.3,0,0.4c2.3,2.1,4.7,4.3,7.2,6.6c0.4,0.3,0.5,0.8,0.5,1.3c0,0.5-0.2,0.9-0.5,1.3l-1,1c-0.4,0.4-0.8,0.5-1.3,0.5
		c-0.5,0-0.9-0.2-1.3-0.5c-2.3-2.2-4.6-4.4-7-6.6c-0.1-0.1-0.3-0.1-0.4,0c-3.1,2.8-6.4,5.1-10.2,6.9c-0.5,0.2-0.9,0.3-1.4,0.1
		S220.4,132.9,220.1,132.4z"/>
</g>
</svg>
