<svg id="Layer_1" data-name="Layer 1" xmlns="http://www.w3.org/2000/svg" viewBox="0 0 295.43 296.56"><defs><style>.cls-1{fill:#1e1e1e;}</style></defs><path class="cls-1" d="M211.35,296H84.08A84.18,84.18,0,0,1,0,211.91V84.65A84.18,84.18,0,0,1,84.08.56H211.35a84.18,84.18,0,0,1,84.08,84.09V211.91A84.18,84.18,0,0,1,211.35,296ZM84.08,25.89A58.83,58.83,0,0,0,25.32,84.65V211.91a58.83,58.83,0,0,0,58.76,58.76H211.35a58.83,58.83,0,0,0,58.76-58.76V84.65a58.83,58.83,0,0,0-58.76-58.76Z"/><path class="cls-1" d="M147.72,223.92a75.65,75.65,0,1,1,75.64-75.64A75.73,75.73,0,0,1,147.72,223.92Zm0-126A50.32,50.32,0,1,0,198,148.28,50.38,50.38,0,0,0,147.72,98Z"/><path class="cls-1" d="M244.79,68.31a18.18,18.18,0,1,1-18.18-18.18A18.18,18.18,0,0,1,244.79,68.31Z"/></svg>