<svg id="レイヤー_1" data-name="レイヤー 1" xmlns="http://www.w3.org/2000/svg" viewBox="0 0 912.28 130.35"><defs><style>.cls-1{fill:#f2fefa;stroke:#3c0000;stroke-miterlimit:10;stroke-width:1.78px;opacity:0.84;}.cls-2,.cls-3{fill:#1e1e1e;}.cls-3{font-size:40.56px;font-family:RoundedMplus1c-Medium, "Rounded Mplus 1c";font-weight:500;}.cls-4{letter-spacing:-0.02em;}.cls-5{letter-spacing:-0.01em;}.cls-6{letter-spacing:0em;}.cls-7{letter-spacing:-0.03em;}</style></defs><rect class="cls-1" x="0.89" y="0.89" width="910.5" height="128.57" rx="64.28"/><path class="cls-2" d="M346.11,97.72H315.52a20.24,20.24,0,0,1-20.21-20.21V46.92a20.24,20.24,0,0,1,20.21-20.21h30.59a20.24,20.24,0,0,1,20.21,20.21V77.51A20.24,20.24,0,0,1,346.11,97.72ZM315.52,32.8A14.13,14.13,0,0,0,301.4,46.92V77.51a14.13,14.13,0,0,0,14.12,14.12h30.59a14.13,14.13,0,0,0,14.12-14.12V46.92A14.13,14.13,0,0,0,346.11,32.8Z"/><path class="cls-2" d="M330.81,80.4A18.19,18.19,0,1,1,349,62.21,18.21,18.21,0,0,1,330.81,80.4Zm0-30.28a12.1,12.1,0,1,0,12.1,12.09A12.11,12.11,0,0,0,330.81,50.12Z"/><path class="cls-2" d="M354.14,43a4.37,4.37,0,1,1-4.36-4.37A4.36,4.36,0,0,1,354.14,43Z"/><text class="cls-3" transform="translate(381.99 78.84)">In<tspan class="cls-4" x="37.03" y="0">s</tspan><tspan class="cls-5" x="56.66" y="0">t</tspan><tspan class="cls-6" x="76.9" y="0">ag</tspan><tspan class="cls-7" x="122.25" y="0">r</tspan><tspan class="cls-6" x="139.85" y="0">am</tspan></text></svg>