<svg id="レイヤー_1" data-name="レイヤー 1" xmlns="http://www.w3.org/2000/svg" viewBox="0 0 912.28 130.35"><defs><style>.cls-1{fill:#f2fefa;stroke:#3c0000;stroke-miterlimit:10;stroke-width:1.78px;opacity:0.84;}.cls-2{font-size:40.56px;font-family:RoundedMplus1c-Medium, "Rounded Mplus 1c";font-weight:500;}.cls-2,.cls-3{fill:#1e1e1e;}</style></defs><rect class="cls-1" x="0.89" y="0.89" width="910.5" height="128.57" rx="64.28"/><text class="cls-2" transform="translate(403.99 85.04)">通販サイト</text><g id="_1436_Business_Ecommerce_Online_Shop_Shopping" data-name="1436, Business, Ecommerce, Online, Shop, Shopping"><path class="cls-3" d="M390,104.32h-8.42V56a10,10,0,0,0,5-8.69V28.87a1.74,1.74,0,0,0-1.71-1.71H317.68A1.74,1.74,0,0,0,316,28.87V47.31A10,10,0,0,0,321,56v48.32h-8.42a1.71,1.71,0,1,0,0,3.42H389.7a1.74,1.74,0,0,0,1.71-1.71A1.4,1.4,0,0,0,390,104.32Zm-11.72,0H339.67V56.79a9.85,9.85,0,0,0,11.72-3.95,10,10,0,0,0,8.42,4.47,10.29,10.29,0,0,0,8.43-4.47,9.9,9.9,0,0,0,10,4.34Zm5-57a6.72,6.72,0,0,1-13.43,0V30.59h13.43V47.31Zm-16.72,0a6.72,6.72,0,0,1-13.43,0V30.59h13.43V47.31Zm-16.86,0a6.72,6.72,0,0,1-13.43,0V30.59h13.43V47.31ZM319.52,30.59H333V47.31a6.72,6.72,0,0,1-13.43,0V30.59Zm5,26.59a9.8,9.8,0,0,0,10-4.34,25,25,0,0,0,1.71,2v49.51H324.53Z"/><path class="cls-3" d="M333,77.46a1.74,1.74,0,0,0-1.71,1.71v5a1.71,1.71,0,0,0,3.42,0v-5A1.74,1.74,0,0,0,333,77.46Z"/><path class="cls-3" d="M366.92,73l-10,10a1.68,1.68,0,0,0,0,2.37,1.67,1.67,0,0,0,2.37,0l10-10A1.68,1.68,0,1,0,366.92,73Z"/><path class="cls-3" d="M365.34,84.7l-10,10a1.67,1.67,0,0,0,2.36,2.37l10-10a1.68,1.68,0,1,0-2.37-2.37Z"/><rect class="cls-3" x="324.53" y="32.17" width="3.29" height="3.29"/><rect class="cls-3" x="324.53" y="38.88" width="3.29" height="3.29"/><rect class="cls-3" x="324.53" y="45.6" width="3.29" height="3.29"/><rect class="cls-3" x="341.38" y="32.17" width="3.29" height="3.29"/><rect class="cls-3" x="341.38" y="38.88" width="3.29" height="3.29"/><rect class="cls-3" x="341.38" y="45.6" width="3.29" height="3.29"/><rect class="cls-3" x="358.1" y="32.17" width="3.29" height="3.29"/><rect class="cls-3" x="358.1" y="38.88" width="3.29" height="3.29"/><rect class="cls-3" x="358.1" y="45.6" width="3.29" height="3.29"/><rect class="cls-3" x="374.82" y="32.17" width="3.29" height="3.29"/><rect class="cls-3" x="374.82" y="38.88" width="3.29" height="3.29"/><rect class="cls-3" x="374.82" y="45.6" width="3.29" height="3.29"/><path class="cls-3" d="M349.67,64.16a5,5,0,1,0,5,5A5,5,0,0,0,349.67,64.16Zm0,6.58A1.71,1.71,0,1,1,351.39,69,1.67,1.67,0,0,1,349.67,70.74Z"/></g></svg>