<?xml version="1.0" encoding="utf-8"?>
<!-- Generator: Adobe Illustrator 25.3.0, SVG Export Plug-In . SVG Version: 6.00 Build 0)  -->
<svg version="1.1" id="レイヤー_1" xmlns="http://www.w3.org/2000/svg" xmlns:xlink="http://www.w3.org/1999/xlink" x="0px"
	 y="0px" viewBox="0 0 458 501.9" style="enable-background:new 0 0 458 501.9;" xml:space="preserve">
<style type="text/css">
	.st0{fill:#FFFDFE;stroke:#3C0000;stroke-width:2.99;stroke-miterlimit:10;}
	.st1{fill:#F59F37;}
	.st2{fill:#F5841D;}
	.st3{fill:#3C0000;}
	.st4{fill:#F5B887;}
	.st5{fill:#FD974F;}
	.st6{fill:#FFEBC8;}
	.st7{fill:#FFCE8D;}
	.st8{fill:#EFD3A5;}
	.st9{fill:#FFF6EE;}
	.st10{fill:#FF92AB;}
	.st11{enable-background:new    ;}
	.st12{fill:#FFFFFF;}
</style>
<path class="st0" d="M68.5,452.9c-37-0.1-66.9-30-67-67V68.5c0.1-37,30-66.9,67-67h317.4c37,0.1,66.9,30,67,67v317.4
	c0,6.6-1,13.1-2.9,19.4c-0.6,2-1.3,4.1-2.1,6c-0.6,1.4-1.1,2.5-1.6,3.6c-1.2,2.6-2.6,5.1-4.2,7.5c-0.4,0.7-0.9,1.4-1.4,2
	c-0.8,1.2-1.7,2.3-2.6,3.4l-0.8,1c-1.2,1.5-2.5,2.9-3.8,4.2c-0.1,0.1-0.3,0.3-0.4,0.4c-3.6,3.5-7.6,6.7-11.8,9.4
	c-0.8,0.5-1.6,1-2.4,1.4c-4.1,2.3-8.5,4.2-13,5.6c-0.8,0.2-1.6,0.5-2.4,0.7c-3.8,1-7.7,1.7-11.6,2.1c-2,0.2-4,0.3-6,0.3L68.5,452.9z
	"/>
<path class="st1" d="M385.9,13.3H68.5C38,13.3,13.3,38,13.3,68.5v317.4c0,30.5,24.7,55.2,55.2,55.2h0h317.4c1.7,0,3.3-0.1,4.9-0.2
	c3.2-0.3,6.4-0.9,9.5-1.7c0.6-0.2,1.3-0.4,2-0.6c3.7-1.2,7.3-2.7,10.6-4.6c0.7-0.4,1.3-0.8,2-1.2c3.6-2.2,6.9-4.8,9.8-7.8l0.1-0.1
	l0.1-0.1c1.1-1.1,2.2-2.3,3.2-3.5l0.7-0.9c0.7-0.9,1.4-1.8,2.1-2.8c0.4-0.5,0.8-1.1,1.1-1.7c1.3-2,2.4-4,3.5-6.1c0.5-1,0.9-2,1.3-3
	c0.7-1.6,1.3-3.3,1.8-5c1.6-5.2,2.4-10.6,2.4-16V68.5C441.1,38,416.4,13.3,385.9,13.3z"/>
<path class="st2" d="M143.1,433.9c0,2.4,0.1,4.8,0.2,7.2h242.6c9.5,0,18.8-2.4,27.1-7.1c0.7-0.4,1.3-0.8,2-1.2
	c3.6-2.2,6.9-4.8,9.8-7.8l0.1-0.1l0.1-0.1c1.1-1.1,2.2-2.3,3.2-3.5l0.7-0.9c0.7-0.9,1.4-1.8,2.1-2.8c0.4-0.5,0.8-1.1,1.1-1.7
	c1.3-2,2.4-4,3.5-6.1c0.5-1,0.9-2,1.3-3c2.7-6.7,4.1-13.8,4.1-21v-158c-7.1-0.4-14.3-0.6-21.6-0.6
	C266.9,227.2,143.1,319.7,143.1,433.9z"/>
<g>
	<path class="st3" d="M277.9,429.8c-5.5,0-10-4.2-10-9.3v-59.3l-2.1-1.1c-17.7-9.1-20-25.3-20-38.4c-0.1-12.4,5.4-24.2,15-32.2
		c9.8-8.2,23.3-12.6,39.2-12.6c16.4,0,31.7,4.8,43.1,13.5l4.3,3.3l4.3-3.3c11.5-8.7,26.8-13.5,43.1-13.5c15.8,0,29.2,4.5,38.8,13.1
		c9.2,8.2,14.4,20.1,14.2,32.4c0,13.5-1.5,28.7-19.1,37.6l-2.1,1.1v59.3c0,5.1-4.5,9.3-10,9.3H277.9z"/>
	<path class="st1" d="M277.9,423.4c-2,0-3.7-1.3-3.7-3v-63.2l-5.5-2.8c-14.4-7.4-16.6-20.1-16.6-32.8c0-21.6,17.9-38.4,47.8-38.4
		c15,0,28.9,4.3,39.3,12.2l8.2,6.2l8.2-6.2c10.3-7.9,24.3-12.2,39.3-12.2c29.9,0,46.8,17.6,46.8,39.2c0,12.7-1.2,24.6-15.6,32
		l-5.5,2.8v63.2c0,1.6-1.6,3-3.7,3L277.9,423.4z"/>
	<path class="st4" d="M327.3,305.2c-4.8,0-4.8,7.4,0,7.4S332,305.2,327.3,305.2z"/>
	<path class="st4" d="M273.5,320.6l-0.4-1c-0.4-0.6-0.9-1.2-1.5-1.5l-0.2-0.1c-1.2-0.8-2.8-0.8-4,0l-0.2,0.1
		c-0.5,0.3-0.9,0.6-1.2,1.1c-0.4,0.4-0.6,0.9-0.8,1.5c-0.2,0.9-0.2,1.9,0.1,2.8c0.3,0.9,0.8,1.6,1.5,2.2c0.7,0.6,1.6,0.9,2.5,0.9
		c0.7,0,1.4-0.2,2.1-0.6c0.9-0.6,1.6-1.4,1.9-2.5C273.7,322.6,273.7,321.6,273.5,320.6z"/>
	<path class="st4" d="M298.7,296.6c-1.9-2-5.1-2-7.1-0.1c0,0,0,0-0.1,0.1c-2,1.9-2,5.1-0.1,7.1c0,0,0,0,0.1,0.1c1.9,2,5.1,2,7.1,0.1
		c0,0,0,0,0.1-0.1C300.7,301.8,300.7,298.6,298.7,296.6C298.7,296.6,298.7,296.6,298.7,296.6z"/>
	<path class="st4" d="M375,303.3c-0.5-0.8-1.3-1.5-2.2-1.7l-0.5-0.1c-0.7-0.2-1.3-0.2-2,0c-0.6,0.2-1.2,0.5-1.7,1
		c-1.5,1.5-1.5,3.9,0,5.4c0,0,0,0,0,0c1,1,2.4,1.4,3.7,1l0.5-0.1l0.9-0.4c0.4-0.2,0.8-0.6,1-1c0.5-0.6,0.8-1.4,0.8-2.3
		C375.5,304.5,375.3,303.9,375,303.3z"/>
	<path class="st4" d="M413.7,403.7c-3.6,0-3.6,5.6,0,5.6S417.3,403.7,413.7,403.7z"/>
	<path class="st4" d="M389.5,403.6c-0.8-0.8-1.8-1.2-2.9-1.2h-0.4c-1.1,0-2.1,0.4-2.9,1.2c-1.6,1.6-1.6,4.2,0,5.8
		c0.8,0.8,1.8,1.2,2.9,1.2h0.4c1.1,0,2.1-0.4,2.9-1.2C391.1,407.8,391.1,405.2,389.5,403.6z"/>
	<path class="st4" d="M288.8,409.3c-0.9-0.8-2-1.3-3.1-1.3c-0.1,0-0.3,0-0.4,0c-0.6,0-1.2,0.1-1.7,0.4c-0.5,0.2-1,0.5-1.4,0.9
		c-0.8,0.8-1.3,2-1.3,3.1c0,1.2,0.5,2.3,1.3,3.1l0.9,0.7c0.7,0.4,1.4,0.6,2.2,0.6c0.1,0,0.3,0,0.4,0c1.2,0,2.3-0.5,3.1-1.3
		C290.5,413.9,290.5,411.1,288.8,409.3C288.8,409.3,288.8,409.3,288.8,409.3L288.8,409.3z"/>
	<path class="st4" d="M414.8,330.1l0.1,0.3c0.7,3.3,6,3.3,6.7,0l0.1-0.3C422.9,324.4,413.6,324.4,414.8,330.1z"/>
	<path class="st4" d="M293.8,350.3c-1.1-1-2.6-1.4-4-1c-0.8,0.2-1.6,0.7-2.1,1.3c-0.4,0.4-0.7,0.8-0.9,1.3c-0.3,0.5-0.4,1-0.4,1.6
		c0,2.3,1.8,4.1,4.1,4.1c0,0,0,0,0,0l1.1-0.1c0.7-0.2,1.3-0.6,1.8-1.1c0.6-0.6,1.1-1.3,1.3-2.1C295.3,352.9,294.9,351.3,293.8,350.3
		z"/>
	<path class="st4" d="M403.4,296.4c-0.1-0.9-0.5-1.8-1.2-2.4l0,0c-1.3-1.3-3.3-1.5-4.9-0.6l0,0c-0.9,0.5-1.6,1.4-1.9,2.4l-0.1,1.1
		c0,0.7,0.2,1.4,0.6,2.1c0.9,1.7,2.9,2.5,4.8,2c0.8-0.3,1.5-0.8,2.1-1.4c0.6-0.7,0.9-1.5,0.9-2.4
		C403.5,296.9,403.5,296.6,403.4,296.4z"/>
	<path class="st4" d="M410.8,354.1c-0.5-1.7-1.9-3-3.7-3.3c-0.9-0.2-1.9-0.1-2.7,0.2c-0.8,0.3-1.5,0.9-2,1.7
		c-0.3,0.7-0.5,1.4-0.6,2.1c0,1.1,0.4,2.2,1.2,3c0.4,0.4,0.8,0.7,1.3,1c0.4,0.2,0.8,0.4,1.2,0.5c0.6,0.2,1.1,0.2,1.7,0.1
		c0.2,0,0.5,0,0.7-0.1c1-0.3,1.9-1,2.5-1.9C411,356.4,411.1,355.2,410.8,354.1z"/>
	<path class="st4" d="M353.4,405.4c-5.3,0-5.3,8.2,0,8.2S358.7,405.4,353.4,405.4z"/>
	<path class="st4" d="M393.7,318l-0.8-0.6c-0.6-0.4-1.3-0.6-2-0.6c-0.1,0-0.3,0-0.4,0c-0.5,0-1.1,0.1-1.6,0.3
		c-0.5,0.2-0.9,0.5-1.3,0.8c-1.6,1.5-1.6,4.1-0.1,5.7c0,0,0,0,0.1,0.1l0.8,0.6c0.6,0.4,1.3,0.5,2,0.5c0.1,0,0.3,0,0.4,0
		c1.1,0,2.1-0.4,2.9-1.2C395.3,322.2,395.3,319.6,393.7,318L393.7,318z"/>
	<path class="st5" d="M371.5,496.8h-20.8c1.4-5.7,7.2-9.2,12.9-7.8C367.5,489.9,370.6,492.9,371.5,496.8z"/>
	<path class="st5" d="M344.1,496.8h-20.8c1.4-5.7,7.2-9.2,12.9-7.8C340.2,489.9,343.2,492.9,344.1,496.8z"/>
	<path class="st6" d="M339.1,480.1l-2.5,3.8c-0.9-0.2-1.9-0.3-2.9-0.3c-0.5,0-1.1,0-1.6,0.1l2.7-4l0.5-0.7l-1.6-2.8
		c1.3-0.2,2.6-0.5,3.8-1.1l1.4,2.3l0.4,0.6C339.6,478.7,339.6,479.5,339.1,480.1z"/>
	<path class="st6" d="M362.7,483.6c-0.5-0.1-1.1-0.1-1.6-0.1c-1,0-1.9,0.1-2.9,0.3l-2.5-3.8c-0.4-0.6-0.4-1.4-0.1-2l0.3-0.6l1.4-2.3
		c1.2,0.5,2.5,0.9,3.8,1.1l-1.6,2.7l0.5,0.8L362.7,483.6z"/>
	<path class="st6" d="M421.1,446.5l-5.4,5.5c-0.4,0.4-0.9,0.6-1.4,0.6c-0.1,0-0.2,0-0.3,0c-15.3-2.6-24.7-14.6-29-21.8l-0.7-2.2
		c0.5-0.3,0.9-0.5,1.4-0.8l1.6-0.7c2.9,5.2,11.2,17.6,25,21.2c0.4,0.1,0.8,0.1,1.2,0L421.1,446.5z"/>
	<path class="st6" d="M309.9,430.5l-0.1,0.2c-4.3,7.1-13.7,19.1-29,21.8c-0.6,0.1-1.3-0.1-1.7-0.5l-5.4-5.5l7.6,1.8
		c0.4,0.1,0.8,0.1,1.2,0c12.4-3.2,20.4-13.6,23.9-19.4C307.6,429.4,308.8,430,309.9,430.5z"/>
	<path class="st7" d="M392.4,469.5c0.1,0.2,0,0.5-0.2,0.6c-0.2,0.2-0.5,0.2-0.7,0.1c-0.6-0.3-1.2-0.7-1.8-1.1
		c-5.8-3.9-13.3-3.9-19.1,0c-1.5,1.1-3.4,1.9-5.3,2.1c-0.5,0-1,0.1-1.5,0.1c-2.1,0.1-4.3-0.5-6-1.7c-0.3-0.1-0.5-0.3-0.8-0.5
		c-5.8-4-13.4-4-19.1,0l-0.7,0.5c-1.8,1.2-3.9,1.8-6.1,1.7c-0.5,0-1,0-1.5-0.1c-1.9-0.2-3.7-1-5.3-2.1c-5.7-3.9-13.3-3.9-19.1,0
		c-0.6,0.4-1.2,0.7-1.8,1.1c-0.2,0.1-0.5,0.1-0.7-0.1c-0.2-0.2-0.3-0.4-0.2-0.7l12.2-36.9c6.2,2.5,12.8,4.2,19.4,5.1
		c2.2,0.3,4.5,0.5,6.7,0.6c2.2,0.2,4.4,0.3,6.7,0.3c7.7,0,15.3-1.3,22.6-4c3.3-1,6.5-2.3,9.7-3.7L392.4,469.5z"/>
	<path class="st8" d="M337.5,475.1l1.4,2.3l-1,0.6l-0.7,0.5c-0.7,0.5-1.5,0.8-2.3,1.1l0.5-0.7l-1.6-2.8
		C335,476,336.3,475.7,337.5,475.1z"/>
	<path class="st8" d="M359.6,479l0.5,0.8c-0.8-0.3-1.6-0.7-2.3-1.1l-0.8-0.5l-1-0.6l1.4-2.3c1.2,0.5,2.5,0.9,3.8,1.1L359.6,479z"/>
	<path class="st3" d="M317.8,328.8c-19.2,9.9-32.3,29.2-32.3,51.3c0.1,14.8,5.9,29,16.4,39.5c0.4,0.2,0.7,0.5,0.9,0.9
		c0,0,0.1,0.1,0.2,0.2l-0.1-0.1c0.4,0.7,0.5,1.5,0.3,2.2c0,0.1,0,0.3,0,0.4c0,0.2-0.1,0.4-0.1,0.6c0,0.2,0,0.5-0.1,0.7
		c-0.1,0.3-0.2,0.6-0.4,0.9v0c-0.1,0.3-0.2,0.5-0.4,0.7c-3.1,5.1-9.9,13.9-20.2,16.8l-15.5-3.6c-1.4-0.3-2.7,0.5-3.1,1.9
		c-0.2,0.8,0.1,1.7,0.7,2.4l11.5,11.7c1.3,1.3,3.1,2.1,5,2.1c0.4,0,0.8,0,1.2-0.1c9-1.7,17.2-6.1,23.5-12.6l-7.6,23
		c-1,3,0.6,6.2,3.6,7.2c1.5,0.5,3.1,0.4,4.4-0.4c0.8-0.4,1.5-0.9,2.2-1.3c4.1-2.9,9.6-2.9,13.7,0c1.9,1.3,4,2.2,6.2,2.7l1.6,2.7
		l-5.9,8.7c-3.5,3-5.4,7.3-5.5,11.9c0,1.4,1.1,2.5,2.5,2.5H347c0.3-0.1,0.6-0.1,0.9,0h26.5c1.4,0,2.5-1.1,2.5-2.5
		c0-4.6-2-8.9-5.5-11.9l-5.9-8.7l1.6-2.7c2.2-0.5,4.3-1.4,6.1-2.6c4.1-2.9,9.6-2.9,13.7,0c0.7,0.4,1.4,0.9,2.2,1.3
		c2.8,1.5,6.3,0.3,7.7-2.5c0.7-1.4,0.8-3,0.4-4.4l-7.6-23c6.4,6.6,14.6,11,23.6,12.7c0.4,0.1,0.7,0.1,1.1,0.1c1.9,0,3.7-0.8,5-2.1
		l11.5-11.7c0.8-0.8,0.9-2,0.4-3c-0.5-1-1.7-1.5-2.8-1.2l-15.5,3.6c-12.2-3.4-19.4-15-21.5-19c5.8-8.2,9.8-15.2,9.8-15.2
		c5.3-8.7,8.1-18.7,8.1-28.9c0-32.2-27.8-58.5-62-58.5c-1.3,0-2.5,0-3.8,0.1l-5,1.2l4.3-1.2c-7.9,0.5-15.6,2.5-22.7,5.8
		 M290.8,380.1c0-29.3,25.4-53.1,56.7-53.1s56.6,23.8,56.6,53.1c0,23.5-16.4,43.5-39,50.5c-6.8,1.8-13.8,2.7-20.9,2.5
		C314.4,431.6,290.8,408.4,290.8,380.1L290.8,380.1z M280.8,452.5c-0.6,0.1-1.3-0.1-1.7-0.5l-5.4-5.5l7.6,1.8c0.4,0.1,0.8,0.1,1.2,0
		c12.4-3.2,20.4-13.6,23.9-19.4c1.1,0.6,2.2,1.2,3.4,1.7l-0.1,0.2C305.5,437.9,296.1,449.9,280.8,452.5z M323.3,496.8
		c1.4-5.7,7.2-9.2,12.9-7.8c3.9,1,6.9,4,7.8,7.8H323.3z M333.7,476.2c1.3-0.2,2.6-0.5,3.8-1.1l1.7,2.9c0.4,0.6,0.3,1.4-0.1,2
		l-2.5,3.8c-0.9-0.2-1.9-0.3-2.9-0.3c-0.5,0-1.1,0-1.6,0.1l3.2-4.7L333.7,476.2z M347.4,491.5c-1.4-2.4-3.4-4.5-5.9-5.9l1.8-2.7
		c1.5-2.3,1.6-5.2,0.2-7.5l-1.7-2.8c3.4-1.8,7.6-1.8,11,0l-1.7,2.8c-1.4,2.3-1.3,5.3,0.2,7.5l1.8,2.7
		C350.8,487,348.8,489.1,347.4,491.5L347.4,491.5z M371.5,496.8h-20.8c1.4-5.7,7.2-9.2,12.9-7.8
		C367.5,489.9,370.6,492.9,371.5,496.8z M362.7,483.6c-0.5-0.1-1.1-0.1-1.6-0.1c-1,0-1.9,0.1-2.9,0.3l-2.5-3.8
		c-0.4-0.6-0.4-1.4-0.1-2l1.7-2.9c1.2,0.5,2.5,0.9,3.8,1.1l-1.6,2.7L362.7,483.6z M392.4,469.5c0.1,0.2,0,0.5-0.2,0.6
		c-0.2,0.2-0.5,0.2-0.7,0.1c-0.6-0.3-1.2-0.7-1.8-1.1c-5.8-3.9-13.3-3.9-19.1,0c-1.5,1.1-3.4,1.9-5.3,2.1c-0.5,0-1,0.1-1.5,0.1
		c-2.1,0.1-4.3-0.5-6-1.7c-0.3-0.1-0.5-0.3-0.8-0.5c-5.8-4-13.4-4-19.1,0l-0.7,0.5c-1.8,1.2-3.9,1.8-6.1,1.7c-0.5,0-1,0-1.5-0.1
		c-1.9-0.2-3.7-1-5.3-2.1c-5.7-3.9-13.3-3.9-19.1,0c-0.6,0.4-1.2,0.7-1.8,1.1c-0.2,0.1-0.5,0.1-0.7-0.1c-0.2-0.2-0.3-0.4-0.2-0.7
		l12.2-36.9c6.2,2.5,12.8,4.2,19.4,5.1c2.2,0.3,4.5,0.5,6.7,0.6c2.2,0.2,4.4,0.3,6.7,0.3c7.7,0,15.3-1.3,22.6-4
		c3.3-1,6.5-2.3,9.7-3.7L392.4,469.5z M415.7,452c-0.4,0.4-0.9,0.6-1.4,0.6c-0.1,0-0.2,0-0.3,0c-15.3-2.6-24.7-14.6-29-21.8
		l-0.7-2.2c0.5-0.3,0.9-0.5,1.4-0.8l1.6-0.7c2.9,5.2,11.2,17.6,25,21.2c0.4,0.1,0.8,0.1,1.2,0l7.6-1.8L415.7,452z"/>
	<path class="st3" d="M343,321.8c-8.8,0.6-17.4,3-25.2,7L343,321.8z"/>
	<path class="st6" d="M347.4,326.9c-31.2,0-56.7,23.8-56.7,53.1c0,13.2,5.2,25.9,14.5,35.4c10.3,10.6,24.2,17,39,17.7
		c7,0.1,14-0.8,20.8-2.6c10.7-3.2,20.1-9.5,27.2-18.1c7.6-9.1,11.8-20.6,11.8-32.4C404,350.8,378.7,326.9,347.4,326.9z M375.5,373.3
		c0.7,1.2,0.3,2.8-0.9,3.5c0,0,0,0,0,0l-7.8,4.6l7.8,4.6c1.2,0.7,1.6,2.3,0.9,3.5c-0.5,0.8-1.3,1.2-2.2,1.2c-0.5,0-0.9-0.1-1.3-0.4
		l-11.5-6.8c-1.2-0.7-1.6-2.3-0.9-3.5c0.2-0.4,0.5-0.7,0.9-0.9l11.5-6.8C373.3,371.7,374.8,372.1,375.5,373.3L375.5,373.3z
		 M360.2,408.7c-0.5,0.8-1.3,1.3-2.2,1.3h-21.2c-1.4,0-2.5-1.1-2.6-2.5c0-0.5,0.1-1,0.4-1.4l10.6-16.6c0.8-1.2,2.4-1.5,3.5-0.8
		c0.3,0.2,0.6,0.5,0.8,0.8l10.6,16.6C360.7,406.9,360.7,407.9,360.2,408.7L360.2,408.7z M319.8,341.1c0.1-1.4,1.3-2.5,2.7-2.4
		c1.4,0.1,2.5,1.3,2.4,2.7c0,0.1,0,0.1,0,0.2c-0.3,3.1,0.4,5.6,1.9,6.4c2.3,1.1,7.1-1.9,10.1-7.8c0.6-1.3,2.2-1.8,3.4-1.1
		c0.9,0.5,1.5,1.5,1.4,2.5c-0.3,3.1,0.4,5.6,1.9,6.3c2.4,1.1,7.2-1.9,10.1-7.8c0.6-1.3,2.2-1.8,3.4-1.2c1,0.5,1.5,1.5,1.4,2.6
		c-0.3,3.1,0.4,5.6,1.9,6.3c2.3,1.1,7.2-1.9,10.1-7.8c0.6-1.3,2.2-1.8,3.4-1.1c1.3,0.6,1.8,2.2,1.1,3.4l0,0
		c-4.2,8.2-11.6,12.6-16.9,10c-1.8-0.9-3.1-2.4-3.9-4.3c-4,4.3-9,6.2-12.9,4.3c-1.8-0.9-3.1-2.4-3.8-4.2c-2.9,3.2-6.4,5-9.5,5
		c-1.2,0-2.3-0.3-3.4-0.8C321,350.8,319.2,346.5,319.8,341.1L319.8,341.1z M320.3,376.8c-1.2-0.7-1.7-2.2-1-3.5
		c0.7-1.2,2.2-1.7,3.5-1c0,0,0.1,0,0.1,0.1l11.5,6.8c1.2,0.7,1.6,2.3,0.9,3.5c-0.2,0.4-0.5,0.7-0.9,0.9l-11.5,6.8
		c-1.2,0.7-2.8,0.3-3.5-0.9c-0.7-1.2-0.3-2.8,0.9-3.5c0,0,0,0,0,0l7.8-4.6L320.3,376.8z"/>
	<path class="st7" d="M344.2,443.8c7,0.1,14.1-0.8,20.9-2.5c5.5-1.7,10.8-4.2,15.6-7.5l-1-2.9c-3.1,1.4-6.4,2.7-9.7,3.7
		c-7.2,2.7-14.9,4-22.6,4c-2.2,0-4.5-0.1-6.7-0.3c-2.2-0.1-4.4-0.3-6.7-0.6c-6.7-0.9-13.2-2.6-19.5-5.1l-0.4,1.2
		C323.1,439.8,333.5,443.2,344.2,443.8z"/>
	<path class="st9" d="M347.4,330.6c30.6,0,55.7,23,56.6,51.5c0-0.7,0-1.4,0-2c0-29.3-25.4-53.1-56.7-53.1s-56.7,23.8-56.7,53.1
		c0,0.6,0,1.2,0,1.9C291.8,353.5,316.8,330.6,347.4,330.6z"/>
	<path class="st3" d="M375.5,373.3c0.7,1.2,0.3,2.8-0.9,3.5c0,0,0,0,0,0l-7.8,4.6l7.8,4.6c1.2,0.7,1.6,2.3,0.9,3.5
		c-0.5,0.8-1.3,1.2-2.2,1.2c-0.5,0-0.9-0.1-1.3-0.4l-11.5-6.8c-1.2-0.7-1.6-2.3-0.9-3.5c0.2-0.4,0.5-0.7,0.9-0.9l11.5-6.7
		C373.3,371.7,374.8,372.1,375.5,373.3z"/>
	<path class="st3" d="M373.8,339.1c1.3,0.6,1.8,2.2,1.1,3.4c-4.2,8.2-11.6,12.6-16.9,10c-1.8-0.9-3.1-2.4-3.9-4.3
		c-4,4.3-9,6.2-12.9,4.3c-1.8-0.9-3.1-2.4-3.8-4.2c-2.9,3.2-6.4,5-9.5,5c-1.2,0-2.3-0.3-3.4-0.8c-3.5-1.8-5.3-6-4.7-11.4
		c0.1-1.4,1.3-2.5,2.7-2.4c1.4,0.1,2.5,1.3,2.4,2.7c0,0.1,0,0.1,0,0.2c-0.3,3.1,0.4,5.6,1.9,6.4c2.3,1.1,7.1-1.9,10.1-7.8
		c0.6-1.3,2.2-1.8,3.4-1.1c0.9,0.5,1.5,1.5,1.4,2.5c-0.3,3.1,0.4,5.6,1.9,6.3c2.4,1.1,7.2-1.9,10.1-7.8c0.6-1.3,2.2-1.8,3.4-1.2
		c1,0.5,1.5,1.5,1.4,2.6c-0.3,3.1,0.4,5.6,1.9,6.3c2.3,1.1,7.2-1.9,10.1-7.8C371,338.9,372.5,338.5,373.8,339.1z"/>
	<path class="st3" d="M360.2,406.1c0.5,0.8,0.5,1.8,0.1,2.6c-0.5,0.8-1.3,1.3-2.2,1.3h-21.2c-1.4,0-2.5-1.1-2.6-2.5
		c0-0.5,0.1-1,0.4-1.4l10.6-16.6c0.8-1.2,2.4-1.5,3.5-0.8c0.3,0.2,0.6,0.5,0.8,0.8L360.2,406.1z M353.4,405l-5.9-9.3l-5.9,9.3H353.4
		z"/>
	<polygon class="st10" points="347.4,395.6 353.4,405 341.5,405 	"/>
	<path class="st3" d="M334.3,379.2c1.2,0.7,1.6,2.3,0.9,3.5c-0.2,0.4-0.5,0.7-0.9,0.9l-11.5,6.8c-1.2,0.7-2.8,0.3-3.5-0.9
		c-0.7-1.2-0.3-2.8,0.9-3.5c0,0,0,0,0,0l7.8-4.6l-7.8-4.6c-1.2-0.7-1.7-2.2-1-3.5c0.7-1.2,2.2-1.7,3.5-1c0,0,0.1,0,0.1,0.1
		L334.3,379.2z"/>
	<circle class="st7" cx="308.1" cy="400.1" r="7"/>
	<circle class="st7" cx="386.6" cy="400.1" r="7"/>
	<path class="st8" d="M347.4,428.8c17.3,0,32.9-7.7,44.9-16.3c-7.1,8.6-16.6,14.9-27.2,18.1c-6.8,1.8-13.8,2.7-20.9,2.5
		c-14.8-0.7-28.7-7-39-17.7C317.2,422.8,331.8,428.8,347.4,428.8z"/>
</g>
<g class="st11">
	<path class="st12" d="M100.8,113.1c-0.2,1.3-0.5,2.5-0.5,3.9c-0.2,1.6-0.4,3.3-0.5,4.9c-0.2,2.1-0.6,5.4-0.8,7.4
		c-0.8-0.1-1.6-0.1-2.3-0.1c-0.4,0.1-0.8-0.2-1.2-0.2c-1.2-0.1-2.4-0.1-3.7-0.3c-0.6-0.1-1.2-0.1-1.9-0.2c0.2-2.4,0.7-6,0.9-8.4
		c0.2-2.4,0.4-4.8,0.6-7.1c-3.2,0-6.9-0.1-7.7-0.1c-0.4,0-0.8,0-1.2,0.1c-0.9,6-1.9,12-2.1,13.9l-1.1,5.9l-8.9-1.3
		c0-0.9,0.8-5.9,1-8.2c0.1-1.7,0.6-3,0.8-4.6c0.1-0.5,0.4-2.8,0.9-5.7c-0.5,0-1-0.1-1.6,0c-1.5,0-3,0.1-4.5,0.1c0-0.8,0-1.6-0.1-2.4
		c-0.1-0.4,0.1-0.8,0.1-1.2c-0.1-1.2-0.1-2.4-0.1-3.7c0.1-0.6-0.1-1.2,0-1.9c1.8,0,3.5,0.1,5.2,0.1c0.8,0,1.6-0.1,2.3-0.1
		c0.6-3.2,1-5.9,1-6.4c0.2-2.1,0.4-4.1,0.7-6.1c0.8,0.1,1.6,0.2,2.4,0.2c0.4,0,0.8,0.2,1.2,0.3c1.2,0.1,2.4,0.2,3.7,0.4
		c0.6,0.1,1.2,0.1,1.9,0.2c-0.3,2.4-0.6,4.7-0.9,7.1c-0.1,0.8-0.3,2.4-0.6,4.4c4.5,0,11.3,0.1,13.4,0.1c1.2,0,2.4,0,4.2,0.1
		C101.3,106.3,101.1,109.6,100.8,113.1z"/>
	<path class="st12" d="M153.4,103.3c-0.5,2.8-1.3,6.2-2,9c-0.2,1.5-0.9,2.8-1.4,4.1c-0.8,2-2.2,3.6-3.7,5.1
		c-0.7,0.6-1.2,1.5-1.9,2.1c-2.8,2.8-7.1,5.6-10.6,7.5c-0.5,0.3-1,0.6-1.6,0.9c-0.6-0.9-1.1-1.9-1.7-2.8c-1-1.6-1.9-3.4-2.9-5
		c0.5-0.4,1.1-0.7,1.7-1c0.8-0.4,1.4-0.9,2.2-1.3c1.7-1,3.9-2.2,5.4-3.6c1.6-1.8,3.3-3.3,4.5-5.3c1.1-1.8,1.5-3.8,2-5.9
		c0.2-0.5,0.3-1.1,0.3-1.7c-3.2,0.2-6.1-0.1-9.5,0c-4,0-7.4-0.1-11.3-0.5c-1.7-0.2-2.9-0.2-4.2-0.3c0.2-2.3,0.3-5.5,0.7-9
		c2.1,0.2,2.7,0.1,5.3,0.4c2.1,0.3,8.2,0.5,10.7,0.5c2.4,0,4.7,0.1,6.4,0c1.8,0,4.3,0.1,6.1,0c2.1-0.1,5.4,0,6.3,0
		C154,96.7,153.9,101.1,153.4,103.3z"/>
	<path class="st12" d="M201.6,121.9l-0.2,1.9c-0.1,1.4-0.5,5.9-0.5,5.9s-1.9-0.2-2.3-0.2c-0.5-0.1-1.1-0.1-2-0.2
		c-1.4-0.2-7.3-0.5-9-0.5c-1,0-2.5,0.1-3.8,0.1c-0.8,0-1.6,0.1-2,0.1c-0.6,0-1.1,0.1-1.7,0.1c-0.6,0.1-1.1,0.2-1.7,0.2
		c-0.9,0.1-1.2,0.1-1.7,0.2c-0.4,0.1-0.7,0.1-1.3,0.2l-0.8,0.1c0,0-0.1-2-0.2-2.5c-0.1-0.4-0.1-0.7-0.1-0.8c0-0.3-0.1-0.6-0.1-1
		c-0.1-0.5-0.3-3.6-0.3-3.6l0.7-0.1c0.9-0.1,1.7-0.2,2.6-0.2c0.6-0.1,1.1-0.1,1.9-0.2c1.2-0.1,2.7-0.2,4.7-0.2c0-0.2,0-0.5,0-0.8
		c0.1-0.7,0.1-1.5,0.1-2.2c0-0.6,0-1.2,0-1.8c0.1-0.3,0.1-0.8,0.1-1.4c-1.3,0-2.8-0.1-4.3-0.2l-1.7-0.2l0.8-7.8c0,0,1.6,0.2,2.1,0.2
		c0.6,0.1,1.1,0.1,1.7,0.1c0.5,0,1.2,0.1,1.9,0.1c1.1,0.1,2.4,0.1,3.4,0.1c1.7,0,7-0.4,8.4-0.5l0.7-0.1l0.8,7.8l-0.7,0.1
		c-1.2,0.1-3.2,0.3-5.2,0.3c-0.1,0.6-0.1,1.2-0.1,1.6c0,0.1,0.1,1.3,0.1,1.7c0,0.2,0,0.4,0,0.6c0,0.5-0.1,0.9-0.1,1.4s0,0.8,0,1.1
		c2.1,0.1,4.5,0.2,6.3,0.4c0.5,0.1,0.9,0.1,1.3,0.1c0.6,0.1,1,0.1,1.6,0.2L201.6,121.9z"/>
	<path class="st12" d="M257.1,123.4c0,0-1.1,1.4-1.7,2.1c-0.3,0.4-0.5,0.6-0.6,0.7c-0.3,0.4-0.9,1.1-1.5,1.9
		c-0.9,1.2-1.9,2.2-1.9,2.2l-0.1-0.1c-1-0.7-2.8-2.3-2.8-2.3c-2.7,2.5-6.3,3.2-6.7,3.3c-0.9,0.2-2,0.3-3.1,0.3
		c-1.4,0-2.8-0.2-4.2-0.5c-1.3-0.3-2.8-0.7-4.1-1.4c0,0-1.7-1-2.2-1.5c-0.3-0.3-0.6-0.6-0.9-0.8c-0.5-0.4-1.6-1.5-1.6-1.5
		c-0.3-0.4-0.6-0.8-0.9-1.2c-0.4-0.7-0.6-1.4-0.7-2.1c-0.1-0.4-0.4-1.9-0.4-1.9c-0.1-2.8,0.9-4.7,1.2-5.2c0.4-0.5,0.6-1,0.9-1.5
		c0.3-0.5,0.5-0.9,0.8-1.3c0.5-0.6,2.5-2.4,3-2.7c0.1-0.1,0.2-0.2,0.3-0.2c0,0-1.2-1.7-1.7-2.4c-0.5-1-0.9-1.9-1.2-2.8
		c-0.2-0.5-0.3-1-0.3-1.4c0-0.2-0.1-0.4-0.1-0.6c-0.2-1.1-0.1-2.1,0.3-3.1c0.2-1,0.7-1.9,1.3-2.8c0.1-0.2,0.5-0.9,0.7-1.1
		c0.5-0.7,2.7-2.3,4.8-3.1l0.8-0.3c0.9-0.3,1.9-0.7,2.8-0.6c0.2,0,1.1-0.1,1.4,0c0.8,0.1,1.7,0.3,2.6,0.4c1.9,0.6,3.6,1.5,4.9,2.5
		c0.2,0.2,0.3,0.3,0.4,0.5c0.2,0.3,0.4,0.5,0.6,0.7c0.5,0.5,0.6,1,0.8,1.6c0.1,0.3,0.2,0.6,0.3,0.8c0.4,0.7,0.5,1.3,0.6,2.1
		c0.4,5.3-3.6,9.3-5.9,10.9c1.1,1.1,2,2.1,2.6,2.7c0.1-0.7,0.4-2.1,0.4-2.1s2.6,0.6,4.2,0.9c1.7,0.4,4.1,0.9,4.1,0.9
		s-0.6,3.5-1.6,6.6c0.1,0.1,0.3,0.3,0.7,0.6c0.9,0.8,1.2,1.1,1.8,1.5C255.9,122.4,257.1,123.4,257.1,123.4z M235.2,116.1
		c-0.2,0.2-0.8,0.9-0.9,1c-0.1,0.2-0.4,0.8-0.5,1c-0.1,0.1-0.4,1.1,0.2,2.1c0.6,1.3,2.3,2.1,4.8,2.3c0.1,0.1,1.6,0.1,3.1-0.8
		c0,0-1.5-1.5-2.2-2.2c-1.1-1.1-2.5-2.4-3.9-4C235.5,115.7,235.3,116,235.2,116.1z M239.8,100.4c-0.3-0.5-0.9-1.1-1.7-1.2
		c-0.1,0-0.3,0-0.4,0c-0.7,0-1.4,0.3-1.7,0.9c-0.5,1.2-0.4,2.6,0.5,3.6c0.2,0.2,0.3,0.3,0.4,0.3c0.1,0.1,0.9,0.9,1.1,1
		c0.4-0.2,1.8-1,2.2-2.1C240.4,102.2,240.4,101.1,239.8,100.4z"/>
	<path class="st12" d="M278.9,97.8l8.8,2.3l-0.2,0.6c-0.9,3.4-2.2,7.9-3.3,11c-1.1,3-4,10.3-5.6,13.8c-0.2,0.4-0.4,0.8-0.6,1.2
		l-0.2,0.4l-8.5-4.1l0.2-0.3c0.2-0.5,0.7-1.4,1.1-2.4c0.8-1.7,1.7-3.5,2-4.3c0.2-0.6,0.6-1.4,0.9-2.3c0.6-1.3,1.2-2.8,1.6-4
		c0.8-2.1,2.8-9.6,3.3-11.3l0.1-0.4L278.9,97.8z M315.7,124c-1.8,2.3-3.7,4.8-5.5,7.1c-1-0.7-2.8-1.9-3.7-2.7
		c-0.5-0.5-2-2.1-3.5-3.5c-0.4-0.4-0.7-0.8-1-1.2c-0.7-0.9-1.5-1.8-2.1-2.7c-0.3-0.6-0.8-1.2-1.1-1.9c-0.4-0.7-0.8-1.2-1-2
		c-0.5-1.2-1.9-3.3-2.2-4.5c-0.2-0.8-0.7-1.5-0.8-2.4c-0.1-0.6-0.4-1.1-0.5-1.8c-0.3-1.1-0.7-2.1-0.9-3.2c-0.2-0.6-0.3-1-0.4-1.3
		c-0.1-0.2-0.1-0.7-0.3-1.8c1-0.3,3-0.8,4.8-1.1c1.4-0.3,3.1-0.7,4.1-0.9c0.2,0.7,0.4,1.6,0.5,2.3c1.1,4.7,2.1,7.2,3.1,9.3
		c0.6,1.3,2,3.6,2.8,4.8c0.8,1.2,1.8,2.4,3,3.4C312.3,121.1,313.7,122.5,315.7,124z M312.6,93.3c0,0.3,0.1,0.6,0.1,0.9
		c-0.1,0.9-0.4,1.9-0.8,2.7c-0.2,0.5-0.7,0.8-1,1.2s-0.8,0.7-1.3,0.8c-0.7,0.2-1.5,0.3-2.3,0.3c-0.3,0.1-0.7,0.1-0.9-0.1
		c-0.6-0.3-1.2-0.6-1.8-0.9c-0.3-0.2-0.7-0.4-0.9-0.7c-0.2-0.3-0.4-0.6-0.6-0.9c-0.3-0.5-0.4-1.1-0.5-1.7c-0.1-0.5,0.1-1,0.1-1.4
		c-0.1-0.4,0.2-0.7,0.3-1c0.3-0.8,0.7-1.5,1.4-2c0.3-0.3,0.7-0.4,1-0.6c0.7-0.6,1.7-0.7,2.5-0.7c0.7,0.1,1.3,0.2,1.9,0.5
		c0.2,0.1,1.2,0.8,1.5,1.2c0.4,0.5,0.9,0.8,1.1,1.4C312.5,92.6,312.6,92.9,312.6,93.3z M313.9,103c-0.2-0.2-0.3-0.2-0.4-0.3
		c-0.3-0.4-0.6-0.9-0.7-1.3c-0.1-0.3-0.1-0.6-0.1-0.9c0.1-0.3,0.1-0.6,0.2-0.8c0.3-0.3,0.5-0.7,0.8-1c0.2-0.1,0.3-0.3,0.4-0.3
		c0.4-0.1,0.7-0.2,1-0.3c0.2-0.1,0.4-0.2,0.6-0.1c0.2,0.1,0.4,0.1,0.6,0.1c0.3,0.1,0.6,0.3,0.8,0.4c0.2,0.2,0.4,0.4,0.6,0.6
		c0.2,0.2,0.2,0.4,0.3,0.5c0.2,0.4,0.3,0.9,0.3,1.3c-0.1,0.2-0.2,0.4-0.2,0.7c0,0.5-0.4,0.9-0.7,1.2c-0.3,0.2-0.6,0.4-0.9,0.5
		c-0.1,0.1-0.7,0.2-1,0.2s-0.7,0-1-0.2C314.2,103.3,314,103.2,313.9,103z"/>
	<path class="st12" d="M337.6,114.8c0,0.2-5.2,0.1-5.6,0.1c-0.3-0.1-3.7-0.1-3.7-0.1c0-2.5-0.1-2.7,0-5.2c0.2-2.6,0-5.3,0.1-7.9
		c0.2-1.6,0.1-4.7,0.1-6.3c0.9,0,1.7-0.1,2.7,0.1c0.4,0,0.9,0,1.3,0c1-0.1,2,0.1,3,0.1c0.7,0,1.4,0.1,2.1,0.1
		c-0.1,1.6-0.1,4.7-0.1,6.2c0,0.4,0.1,0.7,0.1,1.1c0.1,1.1,0,2.2,0,3.3c-0.1,0.9-0.1,1.8-0.1,2.7
		C337.6,111.7,337.6,112.1,337.6,114.8z M357.7,109.5c0.2,1.4-0.3,2.9-0.6,4.3c-0.4,2.1-1.3,4-2.4,5.8c-0.6,0.8-0.9,1.7-1.4,2.4
		c-2.2,3.4-4.9,6.4-7.8,9.1c-0.4,0.5-0.8,0.9-1.2,1.4c-0.8-0.8-1.6-1.6-2.4-2.4c-1.4-1.3-2.7-2.8-4.1-4c0.5-0.5,0.9-1,1.3-1.4
		c0.7-0.5,1.2-1.2,1.8-1.8c1.4-1.5,2.8-2.8,3.9-4.6c1.1-2,2.5-3.9,3.3-6.1c0.7-2,0.6-4,0.6-6.1c0.1-0.8,0-1.6-0.1-2.3
		c0.1-2.2,0-5.5,0-7.7c-0.1-0.7,0-1.3,0-2c0-0.5,0-0.6,0-1c0.8,0.1,1.6,0.1,2.3,0c0.6,0,1.3,0.1,1.9-0.1c0.7,0.1,1.4,0,2.1,0
		c0.9,0.1,1.9,0.1,2.8,0.1c0,1.5,0.1,1.5-0.1,3.8C357.8,99.8,357.7,106.7,357.7,109.5z"/>
	<path class="st12" d="M414.1,127c-0.3,0.3-0.5,0.5-0.8,0.7c-0.9,0.8-3.1,2.7-3.1,2.7l-1.6,1.2l-0.9,0.9c-0.4-0.6-2.1-2.2-2.5-2.8
		c-1.3-1.7-3.6-3.8-5.3-5.1c-1.2-1.2-3.3-2.8-4.6-3.7c-0.4,0.3-0.8,0.6-1.1,0.9c-0.6,0.5-1,1-1.6,1.5c-1.1,1-3.6,3.1-4.8,4.1
		c-1.3,1.2-2.7,2.1-3.5,2.8c-0.5-0.4-0.7-1-1.1-1.4c-1-0.8-1.6-1.9-2.4-2.8c-0.3-0.3-1.8-2.3-2.4-2.8c1.7-1.3,1.9-1.2,3.4-2.6
		c1.1-1.1,2.5-2.1,3.7-3.3c0.5-0.4,1-0.9,1.7-1.3c0.6-0.5,1.1-1.1,1.7-1.7c0.6-0.6,1.3-1.2,2-1.9c1.3-1.4,4.2-4.9,5.5-7
		c-1,0-1.9,0-2.8,0c-3.1,0-6.2-0.1-9.3-0.2c-1.3,0-1.9,0-3.9-0.1c0.2-2.3,0-5,0.2-9.1c1.9,0.1,3.1,0.1,5.3,0.2
		c1.4,0,2.9,0.1,4.4,0.2c1.9,0,3.7-0.1,5.6-0.1c1.3-0.1,3.8,0.2,5.2,0.2c1.3,0,2.4,0.2,3.8,0.2c1.7,0.1,2.2,0,3.9,0.1
		c0,0.8-0.1,1-0.1,1.8c0,0.2,0,0.4-0.1,0.6c0,0.3-0.2,1.4-0.2,1.6c-0.1,0.9-0.3,1.9-0.4,2.6c-0.1,0.7-0.8,1.8-1,2.4
		c-0.7,1.7-1.1,2.1-2,3.7c-0.3,0.7-0.8,1.2-1.2,1.9c-0.5,0.6-1.4,1.9-2.5,3.2c1.2,0.9,2.2,1.9,3.4,2.7c0.6,0.4,2.5,2.1,3,2.6
		c1.3,1.2,4.4,3.6,5.8,5.3l1.3,1.4L414.1,127z"/>
</g>
<g class="st11">
	<path class="st12" d="M99.9,179.9c-0.1,1.1-0.1,2.4-0.2,3.9c-0.2,3.1-0.3,6.9-0.4,9.6c-0.1,3.3-0.3,6-0.5,9.3
		c-0.1,1.5-0.1,1.2-0.3,3.4c-0.2-0.1-1,0.1-1.2,0.1c-2,0.1-2.6,0.1-5,0.2c-1.6,0.1-2.5,0.1-4.1,0.1c-2,0.1-1.4,0-3.4,0.2
		c-1.4,0.2-1.3,0.1-2.8,0.2c-1.4,0.1-3.8,0.1-5.2,0.2c-1.8,0.1-2.5,0.2-4.3,0.3c0-0.8-0.1-1.6-0.2-2.4c-0.1-0.4,0-0.8,0-1.2
		c-0.1-1.2-0.3-2.5-0.2-3.7c0-0.7-0.2-1.3-0.1-1.9c2.1-0.1,3.1-0.1,5.1-0.2c3.4-0.2,5.6-0.3,8.9-0.4c1.8-0.1,2.8-0.2,3.9-0.2
		c0-0.2,0-0.4,0.1-0.5c0.1-2,0.1-4,0.1-6.1c0-1.3,0.3-4.5,0.3-6.1c-0.4,0-0.7-0.1-1-0.1c-1.6-0.1-2.5-0.2-4.1-0.3
		c-2-0.1-3.8,0.1-5.8,0c-1.4,0-0.8-0.3-2.3-0.3c-1.4-0.1-2.6-0.3-4-0.3c-1.8-0.1-2.5-0.1-4.3-0.2c0.1-0.8,0.1-1.6,0.1-2.4
		c-0.1-0.4,0.1-0.8,0.1-1.2c0-1.2,0-2.5,0.2-3.7c0.1-0.6,0-1.2,0.1-1.9c2.1,0.1,3,0.2,5.1,0.3c3.3,0.1,6.2,0.3,9.6,0.5
		c3.3,0.2,3.9,0.2,7.2,0.4c1.4,0.1,6.5,0.2,8.7,0.4c-0.1,0.2-0.1,1.8-0.1,2C100,177.9,99.9,178.7,99.9,179.9z"/>
	<path class="st12" d="M123.8,195.5c-1.8-0.2-3-0.2-4.2-0.3c0.2-2.3,0.4-5.5,0.7-9.1c2.1,0.2,2.8,0.1,5.3,0.4
		c2.1,0.3,8.3,0.5,10.8,0.5c2.4,0,4.6,0.1,6.4,0c1.7,0,3.1-0.4,4.9-0.4c2.2,0,2.2-0.2,4.5-0.4c0,0.8,0.4,3.2,0.4,3.6
		c0.1,1.2,0.5,2.5,0.4,3.7c-0.1,0.6,0.3,1.2,0.2,1.8c-2.2,0.2-3.9,0.3-6.4,0.5c-4,0.4-7.4,0.1-11.4,0.2
		C131.1,196,127.7,195.9,123.8,195.5z"/>
	<path class="st12" d="M207,204.7c-0.3,0.3-0.5,0.5-0.8,0.7c-0.9,0.8-3.1,2.7-3.1,2.7l-1.6,1.2l-0.9,0.9c-0.4-0.6-2.1-2.2-2.5-2.8
		c-1.3-1.7-3.6-3.8-5.3-5.1c-1.2-1.2-3.3-2.8-4.6-3.7c-0.4,0.3-0.8,0.6-1.1,0.9c-0.6,0.5-1,1-1.6,1.5c-1.1,1-3.6,3.1-4.8,4.1
		c-1.3,1.2-2.7,2.1-3.5,2.8c-0.5-0.4-0.7-1-1.1-1.4c-1-0.8-1.6-1.9-2.4-2.8c-0.3-0.3-1.8-2.3-2.4-2.8c1.7-1.3,1.9-1.2,3.4-2.6
		c1.1-1.1,2.5-2.1,3.7-3.3c0.5-0.4,1-0.9,1.7-1.3c0.6-0.5,1.1-1.1,1.7-1.7c0.6-0.6,1.3-1.2,2-1.9c1.3-1.4,4.2-4.9,5.5-7
		c-1,0-1.9,0-2.8,0c-3.1,0-6.2-0.1-9.3-0.2c-1.3,0-1.9,0-3.9-0.1c0.2-2.3,0-5,0.2-9.1c1.9,0.1,3.1,0.1,5.3,0.2
		c1.4,0,2.9,0.1,4.4,0.2c1.9,0,3.7-0.1,5.6-0.1c1.3-0.1,3.8,0.2,5.2,0.2c1.3,0,2.4,0.2,3.8,0.2c1.7,0.1,2.2,0,3.9,0.1
		c0,0.8-0.1,1-0.1,1.8c0,0.2,0,0.4-0.1,0.6c0,0.3-0.2,1.4-0.2,1.6c-0.1,0.9-0.3,1.9-0.4,2.6c-0.1,0.7-0.8,1.8-1,2.4
		c-0.7,1.7-1.1,2.1-2,3.7c-0.3,0.7-0.8,1.2-1.2,1.9c-0.5,0.6-1.4,1.9-2.5,3.2c1.2,0.9,2.2,1.9,3.4,2.7c0.6,0.4,2.5,2.1,3,2.6
		c1.3,1.2,4.4,3.6,5.8,5.3l1.3,1.4L207,204.7z"/>
</g>
</svg>
