<svg id="レイヤー_1" data-name="レイヤー 1" xmlns="http://www.w3.org/2000/svg" xmlns:xlink="http://www.w3.org/1999/xlink" viewBox="0 0 1170 492"><defs><style>.cls-1{fill:none;}.cls-2{clip-path:url(#clip-path);}.cls-3{fill:#2d7a45;}.cls-4{fill:#41a863;}.cls-5{opacity:0.5;}.cls-6{fill:#8e6643;}.cls-7{fill:#006738;}.cls-8{fill:#00512a;}.cls-9{fill:#017d3e;}.cls-10{fill:#019444;}.cls-11{fill:#3ea347;}.cls-12{fill:#43be54;}.cls-13{fill:#6cb32f;}.cls-14{fill:#99ce3e;}.cls-15{fill:#02927b;}.cls-16{fill:#8e6340;}.cls-17{fill:#95c83b;}.cls-18{fill:#60e285;}.cls-19{fill:#ffbe1d;}.cls-20{fill:#b24914;}.cls-21{fill:#fff;}.cls-22{fill:#a5551b;}.cls-23{fill:#efe4dc;}.cls-24{fill:#50c975;}.cls-25{fill:#6effe3;}</style><clipPath id="clip-path"><rect class="cls-1" x="44.79" y="-11.13" width="1082.12" height="487.29"/></clipPath></defs><g class="cls-2"><path class="cls-3" d="M1344.16-1379.41l-43,835.25L1272.26-38.95l-43,473.7H789.86V269.22a19.4,19.4,0,0,1,20.33-19.39c10.42.49,18.45,9.48,18.45,19.94V306.5a15.77,15.77,0,0,0,15.76,15.79h0a15.78,15.78,0,0,0,15.76-15.79V290.75c0-8.46,6.6-15.71,15-15.87a15.35,15.35,0,0,1,15.62,15.36v38.28c0,13.61,10.57,25.2,24.15,25.69a25.09,25.09,0,0,0,26-25.09V258.93c0-12.06,9.85-22.3,21.89-22.07a21.49,21.49,0,0,1,21.07,21.51v12.87c0,8,6.24,14.82,14.2,15a14.48,14.48,0,0,0,14.74-14.48V258.37a21.51,21.51,0,0,1,21.48-21.52h0a21.51,21.51,0,0,1,21.48,21.52v43.7c0,9.5,7.29,17.68,16.77,18.12A17.63,17.63,0,0,0,1091,302.57V287.3c0-8.62,6.61-16,15.21-16.45a16,16,0,0,1,16.76,16v74.2c0,10.54,8.09,19.6,18.6,20.1a19.55,19.55,0,0,0,20.48-19.55V331.87c0-8.62,6.62-16,15.22-16.44a16,16,0,0,1,16.76,16v15.22c0,9.51,7.29,17.68,16.76,18.13a17.64,17.64,0,0,0,18.47-17.63v-44.2c0-11.88,9.62-816.38,21.48-816.38h0a21.49,21.49,0,0,1,21.48,21.51v13.35a14.48,14.48,0,0,0,14.47,14.49h0c8,0,14.47-190.53,14.47-198.53V-676a21.51,21.51,0,0,1,21.48-21.52h0c11.86,0,21.48-825.61,21.48-813.73v131.81Z"/><path class="cls-4" d="M1503.51-1762.19c-10.62.5-18.8,9.67-18.8,20.32v37.42a16.07,16.07,0,0,1-16,16.08h0a16.07,16.07,0,0,1-16.06-16.08v-16.06c0-8.61-6.73-16-15.32-16.16a15.64,15.64,0,0,0-15.92,15.64v39c0,13.86-10.76,25.67-24.59,26.16-14.52.52-26.46,206-26.46,191.59v-71.5c0-12.29-10-22.72-22.3-22.49-11.89.22-21.47,845.2-21.47,857.17V-688c0,8.13-6.34,15.1-14.46,15.25a14.75,14.75,0,0,1-15-14.76v-13.59c0-12.11-9.8,162.12-21.88,162.12h0A21.9,21.9,0,0,0,1253.3-517v44.52c0,9.68-7.42,812.87-17.08,813.33a18,18,0,0,1-18.81-18V307.29c0-8.78-6.74-16.34-15.5-16.76a16.3,16.3,0,0,0-17.07,16.3v75.58c0,10.74-8.24,20-18.94,20.48A19.92,19.92,0,0,1,1145,383V352.69c0-8.78-6.74-16.34-15.5-16.75a16.29,16.29,0,0,0-17.07,16.29v15.51c0,9.68-7.43,18-17.08,18.46a18,18,0,0,1-18.82-17.95v-45a21.89,21.89,0,0,0-21.88-21.91h0a21.89,21.89,0,0,0-21.88,21.91v13.6a14.75,14.75,0,0,1-14.74,14.76h0a14.75,14.75,0,0,1-14.74-14.76v-13.6a21.89,21.89,0,0,0-21.88-21.91h0a21.89,21.89,0,0,0-21.88,21.91v71.47c0,13.86-10.77,25.67-24.6,26.16A25.55,25.55,0,0,1,908.5,395.3V355.69A15.63,15.63,0,0,0,892.88,340h0a15.64,15.64,0,0,0-15.62,15.65v16c0,8.86-6.91,16.45-15.75,16.61a16.06,16.06,0,0,1-16.36-16.07V334.84c0-10.65-8.17-19.82-18.79-20.32a19.78,19.78,0,0,0-20.71,19.76v44.86a16.57,16.57,0,0,1-16.55,16.59h0a16.57,16.57,0,0,1-16.56-16.59V288.87a19.78,19.78,0,0,0-20.71-19.76c-10.62.51-18.79,9.67-18.79,20.32v37.42A16.07,16.07,0,0,1,717,342.93h0a16.06,16.06,0,0,1-16.05-16.08V310.28a15.63,15.63,0,0,0-15.62-15.64h0a15.63,15.63,0,0,0-15.62,15.64v39c0,13.86-10.76,25.67-24.6,26.16a25.55,25.55,0,0,1-26.46-25.55V277.82a21.89,21.89,0,0,0-21.88-21.92h0a21.9,21.9,0,0,0-21.88,21.92v13.11c0,8.12-6.35,15.1-14.46,15.24a14.75,14.75,0,0,1-15-14.75v-13.6a21.89,21.89,0,0,0-21.88-21.92h0a21.9,21.9,0,0,0-21.88,21.92v44.52c0,9.67-7.43,18-17.08,18.46a18,18,0,0,1-18.82-18V307.29c0-8.78-6.73-16.34-15.49-16.76a16.31,16.31,0,0,0-17.08,16.3v75.58c0,10.74-8.23,20-18.94,20.48A19.92,19.92,0,0,1,393.35,383V352.69c0-8.78-6.74-16.34-15.5-16.75a16.29,16.29,0,0,0-17.07,16.29v16a18,18,0,0,1-17.95,18h0a18,18,0,0,1-17.94-18v-45A21.9,21.9,0,0,0,303,301.31h0a21.9,21.9,0,0,0-21.88,21.91v13.6a14.75,14.75,0,0,1-14.74,14.76h0a14.75,14.75,0,0,1-14.73-14.76v-13.6a21.9,21.9,0,0,0-21.89-21.91h0a21.9,21.9,0,0,0-21.88,21.91V395.3a25.55,25.55,0,0,1-25.53,25.57h0a25.55,25.55,0,0,1-25.52-25.57V355.69A15.64,15.64,0,0,0,141.21,340h0a15.63,15.63,0,0,0-15.62,15.65v16c0,8.86-6.92,16.45-15.76,16.61a16.06,16.06,0,0,1-16.35-16.07V334.84c0-10.65-8.17-19.82-18.8-20.32A19.77,19.77,0,0,0,54,334.28V457.49H1217.41l35.89-473.7,43.77-505.21h29.47l43.77-835.25,51-217.14h102.85v-168.62A19.76,19.76,0,0,0,1503.51-1762.19Z"/></g><g class="cls-5"><rect class="cls-6" x="556.73" y="341.15" width="39.84" height="87.46"/><path class="cls-7" d="M680.37,292.42H472.93a24.37,24.37,0,0,0,0,48.73H680.37a24.37,24.37,0,0,0,0-48.73Z"/><path class="cls-8" d="M691.42,341.68H461.87a24.37,24.37,0,0,0,0,48.74H691.42a24.37,24.37,0,0,0,0-48.74Z"/><path class="cls-9" d="M663.85,243.68H489.44a24.37,24.37,0,0,0,0,48.74H663.85a24.37,24.37,0,0,0,0-48.74Z"/><path class="cls-10" d="M647.34,194.94H506a24.37,24.37,0,0,0,0,48.74H647.34a24.37,24.37,0,0,0,0-48.74Z"/><path class="cls-11" d="M630.82,146.21H522.47a24.37,24.37,0,0,0,0,48.73H630.82a24.37,24.37,0,0,0,0-48.73Z"/><path class="cls-12" d="M614.31,97.47H539a24.37,24.37,0,0,0,0,48.74h75.32a24.37,24.37,0,0,0,0-48.74Z"/><path class="cls-13" d="M597.79,48.74H555.51a24.37,24.37,0,0,0,0,48.73h42.28a24.37,24.37,0,0,0,0-48.73Z"/><path class="cls-14" d="M586.78,0H566.52a24.37,24.37,0,0,0,0,48.74h20.26a24.37,24.37,0,0,0,0-48.74Z"/></g><path class="cls-15" d="M547.49,387.08a11.75,11.75,0,0,1-4.64.86,12.12,12.12,0,0,1-11.63-12.26V363.84a11.54,11.54,0,0,0-11.53-11.55h0a11.54,11.54,0,0,0-11.53,11.55v29.24A18.86,18.86,0,0,1,489.31,412h0c-10.4,0-14.15-8.45-14.15-18.87V307.45A16.16,16.16,0,0,0,459,291.27h0a16.16,16.16,0,0,0-16.15,16.18v42.46A10.89,10.89,0,0,1,432,360.81h0c-6,0-15.57-4.88-15.57-10.9v-68a16.16,16.16,0,0,0-16.15-16.17h0a16.16,16.16,0,0,0-16.15,16.17v91.2a13.25,13.25,0,1,1-26.5,0V304.85a12,12,0,0,0-12.6-12,12.25,12.25,0,0,0-11.44,12.37V384a14.7,14.7,0,0,1-15.41,14.7,15,15,0,0,1-14-15.11v-55.8a12,12,0,0,0-12.61-12,12.27,12.27,0,0,0-11.44,12.37v11.48a13.26,13.26,0,0,1-13.88,13.26,13.51,13.51,0,0,1-12.61-13.63V306.35a16.16,16.16,0,0,0-16.16-16.17h0a16.16,16.16,0,0,0-16.15,16.17v10a10.89,10.89,0,0,1-11.08,10.9A11.13,11.13,0,0,1,199.56,316v-9.68a16.16,16.16,0,0,0-16.15-16.17h0a16.17,16.17,0,0,0-16.16,16.17v53.21a18.86,18.86,0,0,1-19.53,18.86c-10.21-.36-18.15-9.08-18.15-19.31V330.32A11.54,11.54,0,0,0,118,318.77h0a11.54,11.54,0,0,0-11.53,11.55v12.23a11.86,11.86,0,1,1-23.71,0V314.93a14.87,14.87,0,0,0-13.87-15,14.6,14.6,0,0,0-15.29,14.59V439H547.49Z"/><rect class="cls-16" y="460.31" width="1170" height="31.7"/><rect class="cls-17" y="428.61" width="1170" height="31.7"/><rect class="cls-18" x="429.96" y="386.5" width="1.86" height="42.11"/><path class="cls-19" d="M442.58,377.13h0a15.17,15.17,0,0,0-4-1.68,14.86,14.86,0,0,0,3.84-1.6,4.69,4.69,0,0,0,1.89-6.07,4.6,4.6,0,0,0-6.51-1.9A15.26,15.26,0,0,0,435.1,368a14.47,14.47,0,0,0,.39-3.22,4.7,4.7,0,0,0-4.21-4.79,4.61,4.61,0,0,0-5,4.6,15.56,15.56,0,0,0,.38,3.41,15.19,15.19,0,0,0-2.53-2,4.82,4.82,0,0,0-6.29,1.13,4.62,4.62,0,0,0,1.35,6.66,15.17,15.17,0,0,0,4,1.68,15.17,15.17,0,0,0-4,1.68h0a4.62,4.62,0,0,0-1.35,6.66,4.81,4.81,0,0,0,6.29,1.13,15.19,15.19,0,0,0,2.53-2,15.63,15.63,0,0,0-.38,3.41h0a4.56,4.56,0,0,0,3.15,4.39,4.62,4.62,0,0,0,6.05-4.39h0a15.05,15.05,0,0,0-.39-3.41,15.79,15.79,0,0,0,2.72,2.1h0a4.61,4.61,0,0,0,4.76-7.9Z"/><path class="cls-1" d="M442.58,377.13h0a15.17,15.17,0,0,0-4-1.68,14.86,14.86,0,0,0,3.84-1.6,4.69,4.69,0,0,0,1.89-6.07,4.6,4.6,0,0,0-6.51-1.9A15.26,15.26,0,0,0,435.1,368a14.47,14.47,0,0,0,.39-3.22,4.7,4.7,0,0,0-4.21-4.79,4.61,4.61,0,0,0-5,4.6,15.56,15.56,0,0,0,.38,3.41,15.19,15.19,0,0,0-2.53-2,4.82,4.82,0,0,0-6.29,1.13,4.62,4.62,0,0,0,1.35,6.66,15.17,15.17,0,0,0,4,1.68,15.17,15.17,0,0,0-4,1.68h0a4.62,4.62,0,0,0-1.35,6.66,4.81,4.81,0,0,0,6.29,1.13,15.19,15.19,0,0,0,2.53-2,15.63,15.63,0,0,0-.38,3.41h0a4.56,4.56,0,0,0,3.15,4.39,4.62,4.62,0,0,0,6.05-4.39h0a15.05,15.05,0,0,0-.39-3.41,15.79,15.79,0,0,0,2.72,2.1h0a4.61,4.61,0,0,0,4.76-7.9Z"/><path class="cls-20" d="M435.52,375.45a4.63,4.63,0,1,1-4.63-4.63A4.63,4.63,0,0,1,435.52,375.45Z"/><path class="cls-1" d="M435.52,375.45a4.63,4.63,0,1,1-4.63-4.63A4.63,4.63,0,0,1,435.52,375.45Z"/><rect class="cls-18" x="825.48" y="386.5" width="1.86" height="42.11"/><path class="cls-19" d="M838.09,377.13h0a15.24,15.24,0,0,0-4-1.68,15,15,0,0,0,3.84-1.6,4.69,4.69,0,0,0,1.88-6.07,4.6,4.6,0,0,0-6.51-1.9,14.84,14.84,0,0,0-2.71,2.09,15.75,15.75,0,0,0,.39-3.22,4.71,4.71,0,0,0-4.22-4.79,4.61,4.61,0,0,0-5,4.6,15,15,0,0,0,.39,3.41,14.86,14.86,0,0,0-2.54-2,4.81,4.81,0,0,0-6.28,1.13,4.61,4.61,0,0,0,1.35,6.66,15.24,15.24,0,0,0,4,1.68,15.24,15.24,0,0,0-4,1.68h0a4.61,4.61,0,0,0-1.35,6.66,4.8,4.8,0,0,0,6.28,1.13,14.86,14.86,0,0,0,2.54-2,15.05,15.05,0,0,0-.39,3.41h0a4.56,4.56,0,0,0,3.15,4.39,4.62,4.62,0,0,0,6.06-4.39h0a15.05,15.05,0,0,0-.39-3.41,15.35,15.35,0,0,0,2.71,2.1h0a4.61,4.61,0,1,0,4.76-7.9Z"/><path class="cls-1" d="M838.09,377.13h0a15.24,15.24,0,0,0-4-1.68,15,15,0,0,0,3.84-1.6,4.69,4.69,0,0,0,1.88-6.07,4.6,4.6,0,0,0-6.51-1.9,14.84,14.84,0,0,0-2.71,2.09,15.75,15.75,0,0,0,.39-3.22,4.71,4.71,0,0,0-4.22-4.79,4.61,4.61,0,0,0-5,4.6,15,15,0,0,0,.39,3.41,14.86,14.86,0,0,0-2.54-2,4.81,4.81,0,0,0-6.28,1.13,4.61,4.61,0,0,0,1.35,6.66,15.24,15.24,0,0,0,4,1.68,15.24,15.24,0,0,0-4,1.68h0a4.61,4.61,0,0,0-1.35,6.66,4.8,4.8,0,0,0,6.28,1.13,14.86,14.86,0,0,0,2.54-2,15.05,15.05,0,0,0-.39,3.41h0a4.56,4.56,0,0,0,3.15,4.39,4.62,4.62,0,0,0,6.06-4.39h0a15.05,15.05,0,0,0-.39-3.41,15.35,15.35,0,0,0,2.71,2.1h0a4.61,4.61,0,1,0,4.76-7.9Z"/><path class="cls-20" d="M831,375.45a4.63,4.63,0,1,1-4.63-4.63A4.63,4.63,0,0,1,831,375.45Z"/><path class="cls-1" d="M831,375.45a4.63,4.63,0,1,1-4.63-4.63A4.63,4.63,0,0,1,831,375.45Z"/><rect class="cls-6" x="179.65" y="373.13" width="20.49" height="44.98"/><path class="cls-7" d="M243.23,348.07H136.55a12.53,12.53,0,0,0,0,25.06H243.23a12.53,12.53,0,0,0,0-25.06Z"/><path class="cls-8" d="M248.92,373.4H130.86a12.54,12.54,0,0,0,0,25.07H248.92a12.54,12.54,0,0,0,0-25.07Z"/><path class="cls-9" d="M234.74,323H145a12.54,12.54,0,0,0,0,25.07h89.7a12.54,12.54,0,0,0,0-25.07Z"/><path class="cls-10" d="M226.25,297.94H153.53a12.53,12.53,0,0,0,0,25.06h72.72a12.53,12.53,0,0,0,0-25.06Z"/><path class="cls-11" d="M217.75,272.87H162a12.54,12.54,0,0,0,0,25.07h55.72a12.54,12.54,0,0,0,0-25.07Z"/><path class="cls-12" d="M209.26,247.81H170.52a12.53,12.53,0,0,0,0,25.06h38.74a12.53,12.53,0,0,0,0-25.06Z"/><path class="cls-13" d="M200.76,222.74H179a12.54,12.54,0,0,0,0,25.07h21.74a12.54,12.54,0,0,0,0-25.07Z"/><path class="cls-14" d="M195.1,197.68H184.68a12.53,12.53,0,0,0,0,25.06H195.1a12.53,12.53,0,0,0,0-25.06Z"/><rect class="cls-18" x="118.84" y="393.17" width="1.56" height="35.44"/><path class="cls-19" d="M129.46,385.28h0a12.35,12.35,0,0,0-3.35-1.41,12.62,12.62,0,0,0,3.24-1.35,4,4,0,0,0,1.58-5.11,3.86,3.86,0,0,0-5.47-1.6,12.67,12.67,0,0,0-2.29,1.76,12.4,12.4,0,0,0,.33-2.71,4,4,0,0,0-3.55-4,3.88,3.88,0,0,0-4.2,3.87,12.57,12.57,0,0,0,.33,2.87,12.82,12.82,0,0,0-2.14-1.67,4,4,0,0,0-5.29,1,3.89,3.89,0,0,0,1.13,5.6,13,13,0,0,0,3.35,1.42,12.62,12.62,0,0,0-3.35,1.41h0a3.89,3.89,0,0,0-1.13,5.6,4.05,4.05,0,0,0,5.29,1,13.43,13.43,0,0,0,2.14-1.68,12.57,12.57,0,0,0-.33,2.87h0a3.84,3.84,0,0,0,2.65,3.7,3.9,3.9,0,0,0,5.1-3.7h0a12.57,12.57,0,0,0-.33-2.87,12.73,12.73,0,0,0,2.29,1.77h0a3.88,3.88,0,0,0,4-6.65Z"/><path class="cls-21" d="M129.46,385.28h0a12.35,12.35,0,0,0-3.35-1.41,12.62,12.62,0,0,0,3.24-1.35,4,4,0,0,0,1.58-5.11,3.86,3.86,0,0,0-5.47-1.6,12.67,12.67,0,0,0-2.29,1.76,12.4,12.4,0,0,0,.33-2.71,4,4,0,0,0-3.55-4,3.88,3.88,0,0,0-4.2,3.87,12.57,12.57,0,0,0,.33,2.87,12.82,12.82,0,0,0-2.14-1.67,4,4,0,0,0-5.29,1,3.89,3.89,0,0,0,1.13,5.6,13,13,0,0,0,3.35,1.42,12.62,12.62,0,0,0-3.35,1.41h0a3.89,3.89,0,0,0-1.13,5.6,4.05,4.05,0,0,0,5.29,1,13.43,13.43,0,0,0,2.14-1.68,12.57,12.57,0,0,0-.33,2.87h0a3.84,3.84,0,0,0,2.65,3.7,3.9,3.9,0,0,0,5.1-3.7h0a12.57,12.57,0,0,0-.33-2.87,12.73,12.73,0,0,0,2.29,1.77h0a3.88,3.88,0,0,0,4-6.65Z"/><path class="cls-20" d="M123.52,383.87a3.9,3.9,0,1,1-3.9-3.9A3.91,3.91,0,0,1,123.52,383.87Z"/><path class="cls-19" d="M124.4,383.87a4.78,4.78,0,1,1-4.78-4.79A4.78,4.78,0,0,1,124.4,383.87Z"/><rect class="cls-6" x="1004.56" y="382.14" width="21.17" height="46.47"/><rect class="cls-6" x="900.98" y="347.96" width="32.75" height="71.9"/><path class="cls-7" d="M1002.63,307.89H832.09a20,20,0,0,0,0,40.07h170.54a20,20,0,0,0,0-40.07Z"/><path class="cls-8" d="M1011.71,348H823A20,20,0,0,0,823,388h188.71a20,20,0,0,0,0-40.06Z"/><path class="cls-9" d="M989.05,267.83H845.67a20,20,0,0,0,0,40.06H989.05a20,20,0,0,0,0-40.06Z"/><path class="cls-10" d="M975.47,227.76H859.25a20,20,0,0,0,0,40.07H975.47a20,20,0,0,0,0-40.07Z"/><path class="cls-11" d="M961.89,187.7H872.82a20,20,0,0,0,0,40.06h89.07a20,20,0,0,0,0-40.06Z"/><path class="cls-12" d="M948.32,147.63H886.4a20,20,0,0,0,0,40.07h61.92a20,20,0,0,0,0-40.07Z"/><path class="cls-13" d="M934.74,107.57H900a20,20,0,0,0,0,40.06h34.76a20,20,0,0,0,0-40.06Z"/><path class="cls-14" d="M925.69,67.5H909a20,20,0,0,0,0,40.07h16.66a20,20,0,0,0,0-40.07Z"/><rect class="cls-18" x="610.77" y="393.17" width="1.56" height="35.44"/><path class="cls-19" d="M621.39,385.28h0a12.62,12.62,0,0,0-3.35-1.41,12.71,12.71,0,0,0,3.23-1.35,4,4,0,0,0,1.59-5.11,3.87,3.87,0,0,0-5.48-1.6,12.6,12.6,0,0,0-2.28,1.76,13,13,0,0,0,.32-2.71,4,4,0,0,0-3.55-4,3.88,3.88,0,0,0-4.2,3.87,12.57,12.57,0,0,0,.33,2.87,12.82,12.82,0,0,0-2.14-1.67,4,4,0,0,0-5.29,1,3.88,3.88,0,0,0,1.14,5.6,12.7,12.7,0,0,0,3.35,1.42,12.35,12.35,0,0,0-3.35,1.41h0a3.88,3.88,0,0,0-1.14,5.6,4.05,4.05,0,0,0,5.29,1,13.43,13.43,0,0,0,2.14-1.68,12.57,12.57,0,0,0-.33,2.87h0a3.85,3.85,0,0,0,2.66,3.7,3.89,3.89,0,0,0,5.09-3.7h0a13.15,13.15,0,0,0-.32-2.87,12.66,12.66,0,0,0,2.28,1.77h0a3.88,3.88,0,0,0,4-6.65Z"/><path class="cls-21" d="M621.39,385.28h0a12.62,12.62,0,0,0-3.35-1.41,12.71,12.71,0,0,0,3.23-1.35,4,4,0,0,0,1.59-5.11,3.87,3.87,0,0,0-5.48-1.6,12.6,12.6,0,0,0-2.28,1.76,13,13,0,0,0,.32-2.71,4,4,0,0,0-3.55-4,3.88,3.88,0,0,0-4.2,3.87,12.57,12.57,0,0,0,.33,2.87,12.82,12.82,0,0,0-2.14-1.67,4,4,0,0,0-5.29,1,3.88,3.88,0,0,0,1.14,5.6,12.7,12.7,0,0,0,3.35,1.42,12.35,12.35,0,0,0-3.35,1.41h0a3.88,3.88,0,0,0-1.14,5.6,4.05,4.05,0,0,0,5.29,1,13.43,13.43,0,0,0,2.14-1.68,12.57,12.57,0,0,0-.33,2.87h0a3.85,3.85,0,0,0,2.66,3.7,3.89,3.89,0,0,0,5.09-3.7h0a13.15,13.15,0,0,0-.32-2.87,12.66,12.66,0,0,0,2.28,1.77h0a3.88,3.88,0,0,0,4-6.65Z"/><path class="cls-20" d="M615.44,383.87a3.9,3.9,0,1,1-3.89-3.9A3.9,3.9,0,0,1,615.44,383.87Z"/><path class="cls-19" d="M616.32,383.87a4.78,4.78,0,1,1-4.77-4.79A4.78,4.78,0,0,1,616.32,383.87Z"/><rect class="cls-18" x="741.96" y="402.79" width="1.14" height="25.82"/><path class="cls-19" d="M749.7,397h0a9,9,0,0,0-2.44-1,9.57,9.57,0,0,0,2.36-1,2.88,2.88,0,0,0,1.15-3.73,2.82,2.82,0,0,0-4-1.16,9,9,0,0,0-1.66,1.28,8.76,8.76,0,0,0,.23-2,2.88,2.88,0,0,0-2.58-2.94,2.82,2.82,0,0,0-3.06,2.82,9.12,9.12,0,0,0,.24,2.09,9.64,9.64,0,0,0-1.56-1.22,2.93,2.93,0,0,0-3.85.7,2.83,2.83,0,0,0,.82,4.08,9.52,9.52,0,0,0,2.44,1,9.18,9.18,0,0,0-2.44,1h0a2.83,2.83,0,0,0-.82,4.08,2.94,2.94,0,0,0,3.85.7A10.23,10.23,0,0,0,740,400.6a9.12,9.12,0,0,0-.24,2.09h0a2.8,2.8,0,0,0,1.93,2.69,2.84,2.84,0,0,0,3.72-2.69h0a9.71,9.71,0,0,0-.24-2.09,9.41,9.41,0,0,0,1.66,1.28h0A2.83,2.83,0,0,0,749.7,397Z"/><path class="cls-21" d="M749.7,397h0a9,9,0,0,0-2.44-1,9.57,9.57,0,0,0,2.36-1,2.88,2.88,0,0,0,1.15-3.73,2.82,2.82,0,0,0-4-1.16,9,9,0,0,0-1.66,1.28,8.76,8.76,0,0,0,.23-2,2.88,2.88,0,0,0-2.58-2.94,2.82,2.82,0,0,0-3.06,2.82,9.12,9.12,0,0,0,.24,2.09,9.64,9.64,0,0,0-1.56-1.22,2.93,2.93,0,0,0-3.85.7,2.83,2.83,0,0,0,.82,4.08,9.52,9.52,0,0,0,2.44,1,9.18,9.18,0,0,0-2.44,1h0a2.83,2.83,0,0,0-.82,4.08,2.94,2.94,0,0,0,3.85.7A10.23,10.23,0,0,0,740,400.6a9.12,9.12,0,0,0-.24,2.09h0a2.8,2.8,0,0,0,1.93,2.69,2.84,2.84,0,0,0,3.72-2.69h0a9.71,9.71,0,0,0-.24-2.09,9.41,9.41,0,0,0,1.66,1.28h0A2.83,2.83,0,0,0,749.7,397Z"/><path class="cls-20" d="M745.37,396a2.84,2.84,0,1,1-2.84-2.84A2.84,2.84,0,0,1,745.37,396Z"/><path class="cls-19" d="M746,396a3.48,3.48,0,1,1-3.48-3.49A3.48,3.48,0,0,1,746,396Z"/><rect class="cls-18" x="902.06" y="402.79" width="1.14" height="25.82"/><path class="cls-19" d="M909.8,397h0a9,9,0,0,0-2.44-1,9.5,9.5,0,0,0,2.35-1,2.88,2.88,0,0,0,1.16-3.73,2.82,2.82,0,0,0-4-1.16,9.37,9.37,0,0,0-1.67,1.28,9.39,9.39,0,0,0,.24-2,2.88,2.88,0,0,0-2.58-2.94,2.82,2.82,0,0,0-3.06,2.82,9.7,9.7,0,0,0,.23,2.09,9.15,9.15,0,0,0-1.55-1.22,2.94,2.94,0,0,0-3.86.7,2.84,2.84,0,0,0,.83,4.08,9.37,9.37,0,0,0,2.44,1,9,9,0,0,0-2.44,1h0a2.84,2.84,0,0,0-.83,4.08,3,3,0,0,0,3.86.7A9.69,9.69,0,0,0,900,400.6a9.7,9.7,0,0,0-.23,2.09h0a2.79,2.79,0,0,0,1.93,2.69,2.83,2.83,0,0,0,3.71-2.69h0a9.12,9.12,0,0,0-.24-2.09,9.87,9.87,0,0,0,1.67,1.28h0A2.83,2.83,0,0,0,909.8,397Z"/><path class="cls-21" d="M909.8,397h0a9,9,0,0,0-2.44-1,9.5,9.5,0,0,0,2.35-1,2.88,2.88,0,0,0,1.16-3.73,2.82,2.82,0,0,0-4-1.16,9.37,9.37,0,0,0-1.67,1.28,9.39,9.39,0,0,0,.24-2,2.88,2.88,0,0,0-2.58-2.94,2.82,2.82,0,0,0-3.06,2.82,9.7,9.7,0,0,0,.23,2.09,9.15,9.15,0,0,0-1.55-1.22,2.94,2.94,0,0,0-3.86.7,2.84,2.84,0,0,0,.83,4.08,9.37,9.37,0,0,0,2.44,1,9,9,0,0,0-2.44,1h0a2.84,2.84,0,0,0-.83,4.08,3,3,0,0,0,3.86.7A9.69,9.69,0,0,0,900,400.6a9.7,9.7,0,0,0-.23,2.09h0a2.79,2.79,0,0,0,1.93,2.69,2.83,2.83,0,0,0,3.71-2.69h0a9.12,9.12,0,0,0-.24-2.09,9.87,9.87,0,0,0,1.67,1.28h0A2.83,2.83,0,0,0,909.8,397Z"/><path class="cls-20" d="M905.47,396a2.84,2.84,0,1,1-2.84-2.84A2.84,2.84,0,0,1,905.47,396Z"/><path class="cls-19" d="M906.11,396a3.48,3.48,0,1,1-3.48-3.49A3.48,3.48,0,0,1,906.11,396Z"/><rect class="cls-18" x="938.41" y="400.01" width="1.86" height="28.6"/><path class="cls-19" d="M951,390.63h0a15.59,15.59,0,0,0-4-1.68,15.13,15.13,0,0,0,3.84-1.59,4.7,4.7,0,0,0,1.88-6.08,4.61,4.61,0,0,0-6.51-1.9,14.89,14.89,0,0,0-2.71,2.1,15.93,15.93,0,0,0,.39-3.23,4.7,4.7,0,0,0-4.22-4.78,4.61,4.61,0,0,0-5,4.59,15.14,15.14,0,0,0,.39,3.42,14.86,14.86,0,0,0-2.54-2,4.78,4.78,0,0,0-6.28,1.13,4.61,4.61,0,0,0,1.34,6.65,14.84,14.84,0,0,0,4,1.68,15.51,15.51,0,0,0-4,1.68h0a4.62,4.62,0,0,0-1.34,6.66,4.78,4.78,0,0,0,6.28,1.13,14.86,14.86,0,0,0,2.54-2,15.07,15.07,0,0,0-.39,3.42h0a4.54,4.54,0,0,0,3.15,4.38,4.62,4.62,0,0,0,6.06-4.38h0a15.07,15.07,0,0,0-.39-3.42,14.89,14.89,0,0,0,2.71,2.1h0a4.61,4.61,0,0,0,4.76-7.9Z"/><path class="cls-1" d="M951,390.63h0a15.59,15.59,0,0,0-4-1.68,15.13,15.13,0,0,0,3.84-1.59,4.7,4.7,0,0,0,1.88-6.08,4.61,4.61,0,0,0-6.51-1.9,14.89,14.89,0,0,0-2.71,2.1,15.93,15.93,0,0,0,.39-3.23,4.7,4.7,0,0,0-4.22-4.78,4.61,4.61,0,0,0-5,4.59,15.14,15.14,0,0,0,.39,3.42,14.86,14.86,0,0,0-2.54-2,4.78,4.78,0,0,0-6.28,1.13,4.61,4.61,0,0,0,1.34,6.65,14.84,14.84,0,0,0,4,1.68,15.51,15.51,0,0,0-4,1.68h0a4.62,4.62,0,0,0-1.34,6.66,4.78,4.78,0,0,0,6.28,1.13,14.86,14.86,0,0,0,2.54-2,15.07,15.07,0,0,0-.39,3.42h0a4.54,4.54,0,0,0,3.15,4.38,4.62,4.62,0,0,0,6.06-4.38h0a15.07,15.07,0,0,0-.39-3.42,14.89,14.89,0,0,0,2.71,2.1h0a4.61,4.61,0,0,0,4.76-7.9Z"/><path class="cls-20" d="M944,389a4.63,4.63,0,1,1-4.63-4.63A4.63,4.63,0,0,1,944,389Z"/><path class="cls-1" d="M944,389a4.63,4.63,0,1,1-4.63-4.63A4.63,4.63,0,0,1,944,389Z"/><rect class="cls-18" x="71.77" y="371" width="1.86" height="57.61"/><path class="cls-19" d="M84.39,361.63h0a15.17,15.17,0,0,0-4-1.68,15,15,0,0,0,3.84-1.6,4.68,4.68,0,0,0,1.88-6.07,4.59,4.59,0,0,0-6.5-1.91,15.06,15.06,0,0,0-2.72,2.1,14.62,14.62,0,0,0,.39-3.22,4.7,4.7,0,0,0-4.21-4.79,4.62,4.62,0,0,0-5,4.6,15.05,15.05,0,0,0,.39,3.41,14.86,14.86,0,0,0-2.54-2,4.8,4.8,0,0,0-6.28,1.13A4.61,4.61,0,0,0,61,358.27,15.24,15.24,0,0,0,65,360a15.24,15.24,0,0,0-4,1.68h0a4.6,4.6,0,0,0-1.35,6.65,4.8,4.8,0,0,0,6.28,1.14,14.86,14.86,0,0,0,2.54-2,15,15,0,0,0-.39,3.41h0a4.57,4.57,0,0,0,3.15,4.39,4.62,4.62,0,0,0,6.06-4.39h0a15,15,0,0,0-.39-3.41,14.57,14.57,0,0,0,2.72,2.09h0a4.61,4.61,0,0,0,4.76-7.89Z"/><path class="cls-1" d="M84.39,361.63h0a15.17,15.17,0,0,0-4-1.68,15,15,0,0,0,3.84-1.6,4.68,4.68,0,0,0,1.88-6.07,4.59,4.59,0,0,0-6.5-1.91,15.06,15.06,0,0,0-2.72,2.1,14.62,14.62,0,0,0,.39-3.22,4.7,4.7,0,0,0-4.21-4.79,4.62,4.62,0,0,0-5,4.6,15.05,15.05,0,0,0,.39,3.41,14.86,14.86,0,0,0-2.54-2,4.8,4.8,0,0,0-6.28,1.13A4.61,4.61,0,0,0,61,358.27,15.24,15.24,0,0,0,65,360a15.24,15.24,0,0,0-4,1.68h0a4.6,4.6,0,0,0-1.35,6.65,4.8,4.8,0,0,0,6.28,1.14,14.86,14.86,0,0,0,2.54-2,15,15,0,0,0-.39,3.41h0a4.57,4.57,0,0,0,3.15,4.39,4.62,4.62,0,0,0,6.06-4.39h0a15,15,0,0,0-.39-3.41,14.57,14.57,0,0,0,2.72,2.09h0a4.61,4.61,0,0,0,4.76-7.89Z"/><path class="cls-20" d="M77.32,360a4.63,4.63,0,1,1-4.62-4.63A4.62,4.62,0,0,1,77.32,360Z"/><path class="cls-1" d="M77.32,360a4.63,4.63,0,1,1-4.62-4.63A4.62,4.62,0,0,1,77.32,360Z"/><path class="cls-22" d="M207,417.33a2.35,2.35,0,0,1-2.3-2.77,15.87,15.87,0,0,1,31.27,0,2.35,2.35,0,0,1-2.3,2.77Z"/><path class="cls-23" d="M227.64,428.61h0a21.29,21.29,0,0,1-2.61-10.2v-1.08h-9.47v1.08a21.29,21.29,0,0,1-2.61,10.2h14.69Z"/><path class="cls-22" d="M48.64,422.27a1.31,1.31,0,0,1-1.29-1.55,8.91,8.91,0,0,1,17.56,0,1.31,1.31,0,0,1-1.29,1.55Z"/><path class="cls-23" d="M60.25,428.61h0a12,12,0,0,1-1.46-5.73v-.61H53.47v.61A12.08,12.08,0,0,1,52,428.61h8.24Z"/><path class="cls-22" d="M1012.46,419.55a1.89,1.89,0,0,1-1.85-2.23,12.75,12.75,0,0,1,25.12,0,1.89,1.89,0,0,1-1.85,2.23Z"/><path class="cls-23" d="M1029.07,428.61h0a17.11,17.11,0,0,1-2.09-8.19v-.87h-7.62v.87a17.11,17.11,0,0,1-2.09,8.19h11.8Z"/><path class="cls-22" d="M241.41,421.13a1.55,1.55,0,0,1-1.52-1.83,10.51,10.51,0,0,1,20.71,0,1.55,1.55,0,0,1-1.52,1.83Z"/><path class="cls-23" d="M255.11,428.61h0a14.13,14.13,0,0,1-1.73-6.76v-.72h-6.27v.72a14.13,14.13,0,0,1-1.73,6.76h9.73Z"/><rect class="cls-18" x="796.9" y="405.86" width="1" height="22.75"/><path class="cls-24" d="M797.4,407.44a2.49,2.49,0,0,1-2.46-2.11,13.37,13.37,0,0,1,.59-6.48l1-3a.9.9,0,0,1,1.69,0l1,3a13.49,13.49,0,0,1,.59,6.48,2.49,2.49,0,0,1-2.46,2.11Z"/><polygon class="cls-18" points="797.62 413.93 797.12 413.43 802.76 407.78 803.26 408.28 797.62 413.93"/><path class="cls-24" d="M802.23,408.81a1.75,1.75,0,0,1-.18-2.27,9.51,9.51,0,0,1,3.51-2.93l2-.95a.62.62,0,0,1,.83.84l-1,2A9.34,9.34,0,0,1,804.5,409a1.74,1.74,0,0,1-2.27-.18Z"/><polygon class="cls-18" points="797.62 423.69 797.12 423.19 802.76 417.54 803.26 418.04 797.62 423.69"/><path class="cls-24" d="M802.23,418.58a1.76,1.76,0,0,1-.18-2.28,9.51,9.51,0,0,1,3.51-2.93l2-.95a.63.63,0,0,1,.83.84l-1,2a9.39,9.39,0,0,1-2.92,3.51,1.75,1.75,0,0,1-2.27-.17Z"/><polygon class="cls-18" points="797.18 413.93 797.68 413.43 792.03 407.78 791.53 408.28 797.18 413.93"/><path class="cls-24" d="M792.57,408.81a1.75,1.75,0,0,0,.17-2.27,9.51,9.51,0,0,0-3.51-2.93l-2-.95a.63.63,0,0,0-.84.84l1,2a9.53,9.53,0,0,0,2.92,3.52,1.75,1.75,0,0,0,2.28-.18Z"/><polygon class="cls-18" points="797.18 423.69 797.68 423.19 792.03 417.54 791.53 418.04 797.18 423.69"/><path class="cls-24" d="M792.57,418.58a1.76,1.76,0,0,0,.17-2.28,9.51,9.51,0,0,0-3.51-2.93l-2-.95a.63.63,0,0,0-.84.84l1,2a9.58,9.58,0,0,0,2.92,3.51,1.76,1.76,0,0,0,2.28-.17Z"/><rect class="cls-18" x="969.14" y="405.86" width="1" height="22.75"/><path class="cls-24" d="M969.64,407.44a2.49,2.49,0,0,1-2.46-2.11,13.49,13.49,0,0,1,.59-6.48l1-3a.89.89,0,0,1,1.68,0l1,3a13.37,13.37,0,0,1,.59,6.48,2.49,2.49,0,0,1-2.46,2.11Z"/><polygon class="cls-18" points="969.86 413.93 969.36 413.43 975.01 407.78 975.51 408.28 969.86 413.93"/><path class="cls-24" d="M974.47,408.81a1.75,1.75,0,0,1-.17-2.27,9.43,9.43,0,0,1,3.51-2.93l2-.95a.63.63,0,0,1,.84.84l-1,2a9.53,9.53,0,0,1-2.92,3.52,1.75,1.75,0,0,1-2.28-.18Z"/><polygon class="cls-18" points="969.86 423.69 969.36 423.19 975.01 417.54 975.51 418.04 969.86 423.69"/><path class="cls-24" d="M974.47,418.58a1.76,1.76,0,0,1-.17-2.28,9.43,9.43,0,0,1,3.51-2.93l2-.95a.63.63,0,0,1,.84.84l-1,2a9.58,9.58,0,0,1-2.92,3.51,1.76,1.76,0,0,1-2.28-.17Z"/><polygon class="cls-18" points="969.42 413.93 969.92 413.43 964.27 407.78 963.77 408.28 969.42 413.93"/><path class="cls-24" d="M964.81,408.81a1.75,1.75,0,0,0,.18-2.27,9.46,9.46,0,0,0-3.52-2.93l-2-.95a.63.63,0,0,0-.84.84l1,2a9.34,9.34,0,0,0,2.92,3.52,1.74,1.74,0,0,0,2.27-.18Z"/><polygon class="cls-18" points="969.42 423.69 969.92 423.19 964.27 417.54 963.77 418.04 969.42 423.69"/><path class="cls-24" d="M964.81,418.58a1.76,1.76,0,0,0,.18-2.28,9.46,9.46,0,0,0-3.52-2.93l-2-.95a.63.63,0,0,0-.84.84l1,2a9.39,9.39,0,0,0,2.92,3.51,1.75,1.75,0,0,0,2.27-.17Z"/><rect class="cls-18" x="181.99" y="401.77" width="1.19" height="26.84"/><path class="cls-24" d="M182.58,403.64a3,3,0,0,1-2.91-2.49,16,16,0,0,1,.7-7.65l1.21-3.47a1.05,1.05,0,0,1,2,0l1.21,3.47a15.82,15.82,0,0,1,.7,7.65,2.94,2.94,0,0,1-2.9,2.49Z"/><polygon class="cls-18" points="182.84 411.3 182.25 410.71 188.91 404.04 189.5 404.63 182.84 411.3"/><path class="cls-24" d="M188.28,405.26a2.07,2.07,0,0,1-.21-2.69,11.19,11.19,0,0,1,4.14-3.45l2.33-1.12a.74.74,0,0,1,1,1l-1.13,2.33a11.18,11.18,0,0,1-3.44,4.15,2.07,2.07,0,0,1-2.68-.21Z"/><polygon class="cls-18" points="182.84 422.81 182.25 422.22 188.91 415.55 189.5 416.14 182.84 422.81"/><path class="cls-24" d="M188.28,416.78a2.07,2.07,0,0,1-.21-2.69,11.19,11.19,0,0,1,4.14-3.45l2.33-1.12a.74.74,0,0,1,1,1l-1.13,2.32A11,11,0,0,1,191,417a2.06,2.06,0,0,1-2.68-.2Z"/><polygon class="cls-18" points="182.32 411.3 182.91 410.71 176.25 404.04 175.66 404.63 182.32 411.3"/><path class="cls-24" d="M176.88,405.26a2.08,2.08,0,0,0,.21-2.69,11.14,11.14,0,0,0-4.15-3.45L170.62,398a.74.74,0,0,0-1,1l1.12,2.33a11.3,11.3,0,0,0,3.45,4.15,2.07,2.07,0,0,0,2.68-.21Z"/><polygon class="cls-18" points="182.32 422.81 182.91 422.22 176.25 415.55 175.66 416.14 182.32 422.81"/><path class="cls-24" d="M176.88,416.78a2.08,2.08,0,0,0,.21-2.69,11.14,11.14,0,0,0-4.15-3.45l-2.32-1.12a.74.74,0,0,0-1,1l1.12,2.32A11.14,11.14,0,0,0,174.2,417a2.06,2.06,0,0,0,2.68-.2Z"/><rect class="cls-18" x="96.78" y="406.66" width="0.97" height="21.95"/><path class="cls-24" d="M97.26,408.19a2.4,2.4,0,0,1-2.37-2,12.81,12.81,0,0,1,.57-6.25l1-2.84a.86.86,0,0,1,1.62,0l1,2.84a12.93,12.93,0,0,1,.58,6.25,2.4,2.4,0,0,1-2.38,2Z"/><polygon class="cls-18" points="97.47 414.45 96.99 413.97 102.44 408.51 102.92 409 97.47 414.45"/><path class="cls-24" d="M101.92,409.52a1.7,1.7,0,0,1-.17-2.2,9.1,9.1,0,0,1,3.39-2.82l1.9-.92a.61.61,0,0,1,.81.81l-.92,1.9a8.94,8.94,0,0,1-2.82,3.39,1.68,1.68,0,0,1-2.19-.16Z"/><polygon class="cls-18" points="97.47 423.87 96.99 423.39 102.44 417.93 102.92 418.41 97.47 423.87"/><path class="cls-24" d="M101.92,418.93a1.69,1.69,0,0,1-.17-2.19,9.22,9.22,0,0,1,3.39-2.83L107,413a.61.61,0,0,1,.81.81l-.92,1.9a9.1,9.1,0,0,1-2.82,3.39,1.69,1.69,0,0,1-2.19-.17Z"/><polygon class="cls-18" points="97.05 414.45 97.53 413.97 92.08 408.51 91.6 409 97.05 414.45"/><path class="cls-24" d="M92.6,409.52a1.7,1.7,0,0,0,.17-2.2,9.1,9.1,0,0,0-3.39-2.82l-1.9-.92a.61.61,0,0,0-.81.81l.92,1.9a8.94,8.94,0,0,0,2.82,3.39,1.68,1.68,0,0,0,2.19-.16Z"/><polygon class="cls-18" points="97.05 423.87 97.53 423.39 92.08 417.93 91.6 418.41 97.05 423.87"/><path class="cls-24" d="M92.6,418.93a1.69,1.69,0,0,0,.17-2.19,9.22,9.22,0,0,0-3.39-2.83l-1.9-.91a.61.61,0,0,0-.81.81l.92,1.9a9.1,9.1,0,0,0,2.82,3.39,1.69,1.69,0,0,0,2.19-.17Z"/><rect class="cls-18" x="1069.21" y="397" width="1.4" height="31.61"/><path class="cls-24" d="M1069.91,399.21a3.47,3.47,0,0,1-3.42-2.94,18.63,18.63,0,0,1,.83-9l1.42-4.09a1.24,1.24,0,0,1,2.34,0l1.43,4.09a18.62,18.62,0,0,1,.82,9,3.46,3.46,0,0,1-3.42,2.94Z"/><polygon class="cls-18" points="1070.22 408.22 1069.53 407.52 1077.37 399.67 1078.06 400.36 1070.22 408.22"/><path class="cls-24" d="M1076.62,401.11a2.43,2.43,0,0,1-.24-3.16,13,13,0,0,1,4.88-4.07l2.74-1.32a.87.87,0,0,1,1.16,1.17l-1.32,2.74a13.1,13.1,0,0,1-4.06,4.88,2.43,2.43,0,0,1-3.16-.24Z"/><polygon class="cls-18" points="1070.22 421.78 1069.53 421.09 1077.37 413.23 1078.06 413.93 1070.22 421.78"/><path class="cls-24" d="M1076.62,414.67a2.43,2.43,0,0,1-.24-3.16,13.1,13.1,0,0,1,4.88-4.06l2.74-1.33a.87.87,0,0,1,1.16,1.17l-1.32,2.74a13.21,13.21,0,0,1-4.06,4.89,2.43,2.43,0,0,1-3.16-.25Z"/><polygon class="cls-18" points="1069.61 408.22 1070.3 407.52 1062.46 399.67 1061.76 400.36 1069.61 408.22"/><path class="cls-24" d="M1063.2,401.11a2.43,2.43,0,0,0,.24-3.16,13.08,13.08,0,0,0-4.87-4.07l-2.74-1.32a.87.87,0,0,0-1.16,1.17l1.32,2.74a13,13,0,0,0,4,4.88,2.43,2.43,0,0,0,3.16-.24Z"/><polygon class="cls-18" points="1069.61 421.78 1070.3 421.09 1062.46 413.23 1061.76 413.93 1069.61 421.78"/><path class="cls-24" d="M1063.2,414.67a2.43,2.43,0,0,0,.24-3.16,13.15,13.15,0,0,0-4.87-4.06l-2.74-1.33a.87.87,0,0,0-1.16,1.17L1056,410a13.09,13.09,0,0,0,4,4.89,2.43,2.43,0,0,0,3.16-.25Z"/><rect class="cls-18" x="525.47" y="397" width="1.4" height="31.61"/><path class="cls-24" d="M526.17,399.21a3.47,3.47,0,0,1-3.43-2.94,18.63,18.63,0,0,1,.83-9l1.42-4.09a1.25,1.25,0,0,1,2.35,0l1.42,4.09a18.63,18.63,0,0,1,.83,9,3.47,3.47,0,0,1-3.42,2.94Z"/><polygon class="cls-18" points="526.47 408.22 525.78 407.52 533.62 399.67 534.32 400.36 526.47 408.22"/><path class="cls-24" d="M532.88,401.11a2.43,2.43,0,0,1-.25-3.16,13,13,0,0,1,4.88-4.07l2.74-1.32a.87.87,0,0,1,1.16,1.17l-1.32,2.74a13.1,13.1,0,0,1-4.06,4.88,2.42,2.42,0,0,1-3.15-.24Z"/><polygon class="cls-18" points="526.47 421.78 525.78 421.09 533.62 413.23 534.32 413.93 526.47 421.78"/><path class="cls-24" d="M532.88,414.67a2.43,2.43,0,0,1-.25-3.16,13.1,13.1,0,0,1,4.88-4.06l2.74-1.33a.87.87,0,0,1,1.16,1.17L540.09,410a13.21,13.21,0,0,1-4.06,4.89,2.42,2.42,0,0,1-3.15-.25Z"/><polygon class="cls-18" points="525.86 408.22 526.55 407.52 518.71 399.67 518.01 400.36 525.86 408.22"/><path class="cls-24" d="M519.46,401.11a2.44,2.44,0,0,0,.24-3.16,13,13,0,0,0-4.88-4.07l-2.74-1.32a.87.87,0,0,0-1.16,1.17l1.32,2.74a13.1,13.1,0,0,0,4.06,4.88,2.43,2.43,0,0,0,3.16-.24Z"/><polygon class="cls-18" points="525.86 421.78 526.55 421.09 518.71 413.23 518.01 413.93 525.86 421.78"/><path class="cls-24" d="M519.46,414.67a2.44,2.44,0,0,0,.24-3.16,13.1,13.1,0,0,0-4.88-4.06l-2.74-1.33a.87.87,0,0,0-1.16,1.17l1.32,2.74a13.21,13.21,0,0,0,4.06,4.89,2.43,2.43,0,0,0,3.16-.25Z"/><rect class="cls-18" x="680.28" y="392.29" width="1.6" height="36.32"/><path class="cls-24" d="M681.08,394.82a4,4,0,0,1-3.93-3.37,21.55,21.55,0,0,1,1-10.34l1.64-4.7a1.42,1.42,0,0,1,2.69,0l1.64,4.7a21.42,21.42,0,0,1,.94,10.34,4,4,0,0,1-3.93,3.37Z"/><polygon class="cls-18" points="681.44 405.18 680.64 404.38 689.65 395.36 690.45 396.16 681.44 405.18"/><path class="cls-24" d="M688.79,397a2.8,2.8,0,0,1-.27-3.63,15,15,0,0,1,5.6-4.67l3.15-1.52a1,1,0,0,1,1.33,1.34l-1.51,3.15a15.06,15.06,0,0,1-4.67,5.61,2.79,2.79,0,0,1-3.63-.28Z"/><polygon class="cls-18" points="681.44 420.77 680.64 419.97 689.65 410.94 690.45 411.74 681.44 420.77"/><path class="cls-24" d="M688.79,412.6a2.81,2.81,0,0,1-.27-3.64,15,15,0,0,1,5.6-4.67l3.15-1.52a1,1,0,0,1,1.33,1.34l-1.51,3.15a15.09,15.09,0,0,1-4.67,5.62,2.81,2.81,0,0,1-3.63-.28Z"/><polygon class="cls-18" points="680.73 405.18 681.53 404.38 672.52 395.36 671.72 396.16 680.73 405.18"/><path class="cls-24" d="M673.37,397a2.79,2.79,0,0,0,.28-3.63,15.11,15.11,0,0,0-5.6-4.67l-3.15-1.52a1,1,0,0,0-1.34,1.34l1.52,3.15a15.13,15.13,0,0,0,4.66,5.61,2.78,2.78,0,0,0,3.63-.28Z"/><polygon class="cls-18" points="680.73 420.77 681.53 419.97 672.52 410.94 671.72 411.74 680.73 420.77"/><path class="cls-24" d="M673.37,412.6a2.8,2.8,0,0,0,.28-3.64,15.11,15.11,0,0,0-5.6-4.67l-3.15-1.52a1,1,0,0,0-1.34,1.34l1.52,3.15a15.16,15.16,0,0,0,4.66,5.62,2.81,2.81,0,0,0,3.63-.28Z"/><path class="cls-22" d="M757.3,414.07a3,3,0,0,1-2.95-3.57,20.45,20.45,0,0,1,40.28,0,3,3,0,0,1-3,3.57Z"/><path class="cls-23" d="M784,428.61h0a27.32,27.32,0,0,1-3.36-13.14v-1.4H768.38v1.4A27.43,27.43,0,0,1,765,428.61H784Z"/><path class="cls-22" d="M457.64,416.25a2.57,2.57,0,0,1-2.52-3,17.38,17.38,0,0,1,34.23,0,2.56,2.56,0,0,1-2.51,3Z"/><path class="cls-23" d="M480.28,428.61h0a23.32,23.32,0,0,1-2.86-11.17v-1.19H467.05v1.19a23.31,23.31,0,0,1-2.85,11.17h16.08Z"/><path class="cls-22" d="M494.26,423.31a1.1,1.1,0,0,1-1.07-1.3,7.45,7.45,0,0,1,14.67,0,1.1,1.1,0,0,1-1.08,1.3Z"/><path class="cls-23" d="M504,428.61h0a10,10,0,0,1-1.22-4.79v-.51H498.3v.51a10,10,0,0,1-1.22,4.79H504Z"/><rect class="cls-18" x="1105.31" y="395.26" width="1.47" height="33.34"/><path class="cls-25" d="M1115.27,381.44a1.88,1.88,0,0,0-1.81-1.9,1.87,1.87,0,0,1-3.73,0,1.85,1.85,0,0,1-3.69,0,1.85,1.85,0,0,1-3.69,0,1.86,1.86,0,0,1-3.72,0,1.87,1.87,0,0,0-1.81,1.9V387a9.23,9.23,0,0,0,9.22,9.24h0a9.24,9.24,0,0,0,9.23-9.24Z"/><path class="cls-24" d="M1106.51,406.21a2.2,2.2,0,0,1-.21-2.85,11.68,11.68,0,0,1,4.38-3.65l2.46-1.19a.79.79,0,0,1,1,1.05L1113,402a11.71,11.71,0,0,1-3.65,4.39,2.19,2.19,0,0,1-2.84-.21Z"/><path class="cls-24" d="M1105.57,406.21a2.22,2.22,0,0,0,.22-2.85,11.78,11.78,0,0,0-4.39-3.65l-2.46-1.19a.78.78,0,0,0-1,1.05l1.18,2.46a11.8,11.8,0,0,0,3.65,4.39,2.19,2.19,0,0,0,2.84-.21Z"/><rect class="cls-18" x="877.55" y="404.65" width="1.06" height="23.96"/><path class="cls-25" d="M884.71,394.73a1.36,1.36,0,0,0-1.3-1.38,1.34,1.34,0,0,1-2.68,0,1.33,1.33,0,1,1-2.65,0,1.33,1.33,0,1,1-2.65,0,1.34,1.34,0,0,1-2.68,0,1.36,1.36,0,0,0-1.3,1.38v4a6.63,6.63,0,0,0,6.63,6.63h0a6.63,6.63,0,0,0,6.63-6.63Z"/><path class="cls-24" d="M878.42,412.51a1.58,1.58,0,0,1-.16-2,8.51,8.51,0,0,1,3.15-2.62l1.77-.86a.57.57,0,0,1,.75.76l-.85,1.77a8.53,8.53,0,0,1-2.62,3.15,1.57,1.57,0,0,1-2-.16Z"/><path class="cls-24" d="M877.74,412.51a1.57,1.57,0,0,0,.16-2,8.51,8.51,0,0,0-3.15-2.62L873,407a.57.57,0,0,0-.75.76l.85,1.77a8.53,8.53,0,0,0,2.62,3.15,1.57,1.57,0,0,0,2-.16Z"/><rect class="cls-18" x="560.31" y="397.17" width="1.39" height="31.44"/><path class="cls-25" d="M569.7,384.14a1.78,1.78,0,0,0-1.71-1.8,1.76,1.76,0,0,1-3.51,0,1.74,1.74,0,1,1-3.48,0,1.74,1.74,0,1,1-3.48,0,1.76,1.76,0,0,1-3.51,0,1.78,1.78,0,0,0-1.7,1.8v5.2a8.7,8.7,0,0,0,8.69,8.71h0a8.7,8.7,0,0,0,8.7-8.71Z"/><path class="cls-24" d="M561.45,407.49a2.07,2.07,0,0,1-.21-2.68,11.19,11.19,0,0,1,4.14-3.45l2.32-1.12a.74.74,0,0,1,1,1l-1.12,2.32a11,11,0,0,1-3.44,4.14,2,2,0,0,1-2.67-.2Z"/><path class="cls-24" d="M560.56,407.49a2.07,2.07,0,0,0,.2-2.68,11.15,11.15,0,0,0-4.13-3.45l-2.32-1.12a.74.74,0,0,0-1,1l1.12,2.32a11.08,11.08,0,0,0,3.44,4.14,2.06,2.06,0,0,0,2.68-.2Z"/><rect class="cls-18" x="150.98" y="400" width="1.26" height="28.61"/><path class="cls-25" d="M159.53,388.14A1.62,1.62,0,0,0,158,386.5a1.59,1.59,0,0,0-1.62,1.59,1.58,1.58,0,1,0-3.16,0,1.59,1.59,0,1,0-3.17,0,1.58,1.58,0,1,0-3.16,0,1.59,1.59,0,0,0-1.62-1.59,1.62,1.62,0,0,0-1.55,1.64v4.73a7.92,7.92,0,0,0,7.91,7.93h0a7.92,7.92,0,0,0,7.92-7.93Z"/><path class="cls-24" d="M152,409.39a1.9,1.9,0,0,1-.19-2.44,10.18,10.18,0,0,1,3.77-3.14l2.11-1a.68.68,0,0,1,.9.9l-1,2.12a10.22,10.22,0,0,1-3.13,3.76,1.88,1.88,0,0,1-2.44-.18Z"/><path class="cls-24" d="M151.21,409.39a1.9,1.9,0,0,0,.19-2.44,10.18,10.18,0,0,0-3.77-3.14l-2.11-1a.68.68,0,0,0-.9.9l1,2.12a10.22,10.22,0,0,0,3.13,3.76,1.88,1.88,0,0,0,2.44-.18Z"/><rect class="cls-18" x="269.64" y="406.59" width="0.97" height="22.02"/><path class="cls-25" d="M276.21,397.46A1.24,1.24,0,0,0,275,396.2a1.23,1.23,0,0,1-2.46,0,1.22,1.22,0,0,1-2.44,0,1.22,1.22,0,1,1-2.43,0,1.23,1.23,0,0,1-2.46,0,1.24,1.24,0,0,0-1.2,1.26v3.64a6.1,6.1,0,0,0,6.09,6.1h0a6.09,6.09,0,0,0,6.09-6.1Z"/><path class="cls-24" d="M270.43,413.81a1.46,1.46,0,0,1-.14-1.88,7.81,7.81,0,0,1,2.9-2.41l1.62-.78a.52.52,0,0,1,.69.69l-.78,1.63a7.89,7.89,0,0,1-2.41,2.9,1.45,1.45,0,0,1-1.88-.15Z"/><path class="cls-24" d="M269.81,413.81a1.44,1.44,0,0,0,.14-1.88,7.78,7.78,0,0,0-2.89-2.41l-1.63-.78a.52.52,0,0,0-.69.69l.79,1.63a7.7,7.7,0,0,0,2.41,2.9,1.43,1.43,0,0,0,1.87-.15Z"/><rect class="cls-18" x="400.04" y="403.93" width="1.09" height="24.68"/><path class="cls-25" d="M407.41,393.71a1.4,1.4,0,0,0-1.34-1.42,1.38,1.38,0,0,1-2.75,0,1.37,1.37,0,1,1-2.73,0,1.37,1.37,0,1,1-2.73,0,1.38,1.38,0,0,1-2.76,0,1.4,1.4,0,0,0-1.34,1.42v4.08a6.84,6.84,0,0,0,6.83,6.84h0a6.83,6.83,0,0,0,6.82-6.84Z"/><path class="cls-24" d="M400.94,412a1.61,1.61,0,0,1-.17-2.1,8.73,8.73,0,0,1,3.25-2.71l1.82-.88a.58.58,0,0,1,.77.78l-.87,1.82a8.8,8.8,0,0,1-2.7,3.25,1.61,1.61,0,0,1-2.1-.16Z"/><path class="cls-24" d="M400.24,412a1.62,1.62,0,0,0,.16-2.1,8.73,8.73,0,0,0-3.25-2.71l-1.82-.88a.58.58,0,0,0-.77.78l.88,1.82a8.61,8.61,0,0,0,2.7,3.25,1.61,1.61,0,0,0,2.1-.16Z"/><rect class="cls-18" x="363.13" y="398.24" width="1.34" height="30.37"/><path class="cls-19" d="M372.23,391.48h0a10.81,10.81,0,0,0-2.87-1.21,11.22,11.22,0,0,0,2.77-1.16,3.38,3.38,0,0,0,1.36-4.38,3.33,3.33,0,0,0-4.7-1.37,11,11,0,0,0-2,1.51,11.32,11.32,0,0,0,.28-2.32,3.39,3.39,0,0,0-3-3.45,3.32,3.32,0,0,0-3.61,3.31,10.68,10.68,0,0,0,.29,2.46,11.07,11.07,0,0,0-1.84-1.43,3.45,3.45,0,0,0-4.53.81,3.33,3.33,0,0,0,1,4.8,11,11,0,0,0,2.87,1.22,11,11,0,0,0-2.87,1.21h0a3.33,3.33,0,0,0-1,4.8,3.46,3.46,0,0,0,4.53.82,11.24,11.24,0,0,0,1.84-1.44,10.74,10.74,0,0,0-.29,2.46h0a3.3,3.3,0,0,0,2.28,3.17,3.33,3.33,0,0,0,4.37-3.17h0a11.32,11.32,0,0,0-.28-2.46,10.59,10.59,0,0,0,2,1.51h0a3.32,3.32,0,0,0,3.44-5.69Z"/><path class="cls-21" d="M372.23,391.48h0a10.81,10.81,0,0,0-2.87-1.21,11.22,11.22,0,0,0,2.77-1.16,3.38,3.38,0,0,0,1.36-4.38,3.33,3.33,0,0,0-4.7-1.37,11,11,0,0,0-2,1.51,11.32,11.32,0,0,0,.28-2.32,3.39,3.39,0,0,0-3-3.45,3.32,3.32,0,0,0-3.61,3.31,10.68,10.68,0,0,0,.29,2.46,11.07,11.07,0,0,0-1.84-1.43,3.45,3.45,0,0,0-4.53.81,3.33,3.33,0,0,0,1,4.8,11,11,0,0,0,2.87,1.22,11,11,0,0,0-2.87,1.21h0a3.33,3.33,0,0,0-1,4.8,3.46,3.46,0,0,0,4.53.82,11.24,11.24,0,0,0,1.84-1.44,10.74,10.74,0,0,0-.29,2.46h0a3.3,3.3,0,0,0,2.28,3.17,3.33,3.33,0,0,0,4.37-3.17h0a11.32,11.32,0,0,0-.28-2.46,10.59,10.59,0,0,0,2,1.51h0a3.32,3.32,0,0,0,3.44-5.69Z"/><ellipse class="cls-20" cx="363.8" cy="390.27" rx="3.34" ry="3.34"/><path class="cls-19" d="M367.89,390.27a4.1,4.1,0,1,1-4.09-4.1A4.09,4.09,0,0,1,367.89,390.27Z"/><rect class="cls-18" x="298.69" y="400.56" width="1.24" height="28.05"/><path class="cls-19" d="M307.1,394.31h0a10.3,10.3,0,0,0-2.65-1.12,9.89,9.89,0,0,0,2.56-1.06,3.13,3.13,0,0,0,1.25-4.05,3.06,3.06,0,0,0-4.33-1.27,10.29,10.29,0,0,0-1.81,1.4,10.28,10.28,0,0,0,.26-2.15,3.12,3.12,0,0,0-2.81-3.18,3.07,3.07,0,0,0-3.33,3.06,10.2,10.2,0,0,0,.26,2.27,10.42,10.42,0,0,0-1.69-1.33,3.19,3.19,0,0,0-4.18.76,3.07,3.07,0,0,0,.89,4.43,10,10,0,0,0,2.65,1.12,10.3,10.3,0,0,0-2.65,1.12h0a3.08,3.08,0,0,0-.89,4.44,3.19,3.19,0,0,0,4.18.75,9.85,9.85,0,0,0,1.69-1.32,10.13,10.13,0,0,0-.26,2.27h0a3.07,3.07,0,1,0,6.14,0h0a10.13,10.13,0,0,0-.26-2.27,9.78,9.78,0,0,0,1.81,1.39h0a3.07,3.07,0,0,0,3.17-5.26Z"/><path class="cls-1" d="M307.1,394.31h0a10.3,10.3,0,0,0-2.65-1.12,9.89,9.89,0,0,0,2.56-1.06,3.13,3.13,0,0,0,1.25-4.05,3.06,3.06,0,0,0-4.33-1.27,10.29,10.29,0,0,0-1.81,1.4,10.28,10.28,0,0,0,.26-2.15,3.12,3.12,0,0,0-2.81-3.18,3.07,3.07,0,0,0-3.33,3.06,10.2,10.2,0,0,0,.26,2.27,10.42,10.42,0,0,0-1.69-1.33,3.19,3.19,0,0,0-4.18.76,3.07,3.07,0,0,0,.89,4.43,10,10,0,0,0,2.65,1.12,10.3,10.3,0,0,0-2.65,1.12h0a3.08,3.08,0,0,0-.89,4.44,3.19,3.19,0,0,0,4.18.75,9.85,9.85,0,0,0,1.69-1.32,10.13,10.13,0,0,0-.26,2.27h0a3.07,3.07,0,1,0,6.14,0h0a10.13,10.13,0,0,0-.26-2.27,9.78,9.78,0,0,0,1.81,1.39h0a3.07,3.07,0,0,0,3.17-5.26Z"/><path class="cls-20" d="M302.39,393.19a3.08,3.08,0,1,1-3.08-3.08A3.08,3.08,0,0,1,302.39,393.19Z"/><path class="cls-1" d="M302.39,393.19a3.08,3.08,0,1,1-3.08-3.08A3.08,3.08,0,0,1,302.39,393.19Z"/><rect class="cls-18" x="647.28" y="400.56" width="1.24" height="28.05"/><path class="cls-19" d="M655.69,394.31h0a10.3,10.3,0,0,0-2.65-1.12,9.89,9.89,0,0,0,2.56-1.06,3.13,3.13,0,0,0,1.25-4.05,3.06,3.06,0,0,0-4.33-1.27,10.29,10.29,0,0,0-1.81,1.4,10.28,10.28,0,0,0,.26-2.15,3.12,3.12,0,0,0-2.81-3.18,3.07,3.07,0,0,0-3.33,3.06,10.2,10.2,0,0,0,.26,2.27,10.42,10.42,0,0,0-1.69-1.33,3.2,3.2,0,0,0-4.19.76,3.08,3.08,0,0,0,.9,4.43,10,10,0,0,0,2.65,1.12,10.3,10.3,0,0,0-2.65,1.12h0a3.09,3.09,0,0,0-.9,4.44,3.2,3.2,0,0,0,4.19.75,9.85,9.85,0,0,0,1.69-1.32,10.13,10.13,0,0,0-.26,2.27h0a3.07,3.07,0,1,0,6.14,0h0a10.13,10.13,0,0,0-.26-2.27,9.78,9.78,0,0,0,1.81,1.39h0a3.07,3.07,0,0,0,3.17-5.26Z"/><path class="cls-1" d="M655.69,394.31h0a10.3,10.3,0,0,0-2.65-1.12,9.89,9.89,0,0,0,2.56-1.06,3.13,3.13,0,0,0,1.25-4.05,3.06,3.06,0,0,0-4.33-1.27,10.29,10.29,0,0,0-1.81,1.4,10.28,10.28,0,0,0,.26-2.15,3.12,3.12,0,0,0-2.81-3.18,3.07,3.07,0,0,0-3.33,3.06,10.2,10.2,0,0,0,.26,2.27,10.42,10.42,0,0,0-1.69-1.33,3.2,3.2,0,0,0-4.19.76,3.08,3.08,0,0,0,.9,4.43,10,10,0,0,0,2.65,1.12,10.3,10.3,0,0,0-2.65,1.12h0a3.09,3.09,0,0,0-.9,4.44,3.2,3.2,0,0,0,4.19.75,9.85,9.85,0,0,0,1.69-1.32,10.13,10.13,0,0,0-.26,2.27h0a3.07,3.07,0,1,0,6.14,0h0a10.13,10.13,0,0,0-.26-2.27,9.78,9.78,0,0,0,1.81,1.39h0a3.07,3.07,0,0,0,3.17-5.26Z"/><path class="cls-20" d="M651,393.19a3.08,3.08,0,1,1-3.08-3.08A3.08,3.08,0,0,1,651,393.19Z"/><path class="cls-1" d="M651,393.19a3.08,3.08,0,1,1-3.08-3.08A3.08,3.08,0,0,1,651,393.19Z"/></svg>