<svg id="Layer_1" data-name="Layer 1" xmlns="http://www.w3.org/2000/svg" viewBox="0 0 295.43 296.56"><defs><style>.cls-1{fill:#1e1e1e;}</style></defs><path class="cls-1" d="M232.06,224.33c-11.71,5.57-23.54,8.25-35.58,9.94a151.48,151.48,0,0,1-62.95-4.4c-33.55-9.48-55.25-35.56-58.41-70.13-.67-7.27-.67-7.27,6.57-7.27H193.06a28.79,28.79,0,0,0-4.25,13.67c-.14,1.72-1,2.42-2.57,2.24-4.14-.47-3.08,2.56-3.08,4.69s-1,4.84,2.87,4.47c3.09-.3,2.72,1.94,2.72,3.86v37c0,6,0,6,5.61,6,5.4,0,5.4,0,5.4-6.19,0-11.88.2-23.76-.11-35.63-.11-4.26,1.33-5.57,5.28-5,1.31.18,2.7-.14,4,.06,3.73.55,4.72-.95,4.74-4.63s-1.19-5.08-4.81-4.57a10.49,10.49,0,0,1-4,0c-1.94-.5-5.11,1.83-5.65-2.06-.65-4.66,1.8-8.76,5.55-9.39a23.82,23.82,0,0,1,9.73.37c1.68.42,2.75.24,2.55-1.67-.35-3.21,1.6-3.14,3.87-3.13q28.07.06,56.13,0c9.89,0,13.72-6.77,8.63-15.33-.7-1.17-.85-1.76.39-2.38,3-1.48,5-4.1,8-7.29,5.12,44.45-5.18,83.71-34.12,116.49-40,45.36-90.77,61.26-149.54,46.94C67,280.32,35.79,253.24,14.5,212.48c21.6,3.43,38.94-.47,49-21.2,2.36,4.51,4.3,8.62,6.6,12.51,14.45,24.46,36.58,38.34,63.51,45.15,37,9.34,73.19,7.05,108.16-8.79,9.79-4.44,18.65-10.42,25.51-18.93,4.23-5.24,4.13-10.64-.17-14.23s-9.87-2.83-13.88,2.45C248.65,215.5,243,217,236,214.88c-5.76-1.77-9.45-6.61-10.22-12.77-.39-3.07.38-4.22,3.67-4.16,9.35.19,18.71-.06,28.07.13,3.16.07,4.23-1,3.95-4-.25-2.79-.11-5.6-.61-8.41-1.51-8.5-5.38-15.2-14.07-17.76-9.27-2.74-17.6-.79-24.44,6.35-10.8,11.26-10.21,34.55,1.07,45.07C225.74,221.47,228.55,222.75,232.06,224.33ZM167,219.66c-.62,7.31,4.29,4.05,7,4.62,2.54.53,3.7-.61,3.67-3.43-.13-12,.12-24-.11-36.06-.2-10.06-5.6-15.59-15.64-17.37A40.51,40.51,0,0,0,146,168c-8.83,1.95-7.11.15-7.39,9.3-.08,2.74,1,3.48,3.47,2.58a62.35,62.35,0,0,1,6.34-2,31.88,31.88,0,0,1,12.83-.3c4,.69,5.84,3.66,5.67,7.42-.19,3.95-3.64,1.93-5.58,2.23-5.56.84-11.2,1.2-16.43,3.59-8.32,3.81-12.09,11.89-9.94,21.45,2,8.67,8.67,13.63,17.84,13.42C158,225.5,162.21,223.17,167,219.66Z"/><path class="cls-1" d="M19.94,74.88C23.8,66.09,29.79,58.7,36,51.58,59.77,24.42,89.5,7.48,125.19,2.25,188.42-7,246,22.7,276.29,75.26c1.35,2.33,1.7,3.52-1.75,3.74-5.29.34-10.15,2-14,6a15.94,15.94,0,0,0,6,26.22c3.46,1.25,7.14,1.91,10.73,2.84,5.65,1.48,7.54,3.42,7.23,7.42s-3.06,5.81-8.81,6.2c-6,.41-11-1.79-15.8-5-.94-.64-1.77-1.91-3.08-1.32s-.81,2.1-.77,3.18c.08,2.64-.52,5.33.37,7.92.15.44,1.06.85.11,1.21a2.18,2.18,0,0,1-1.64-.31,1.39,1.39,0,0,1-.39-1.18c1.29-7.26-2.46-6.16-7.34-5-5.34,1.28-8.57-1.63-8.7-7.24-.21-9-.06-18.11-.2-27.16,0-2.38.88-3.11,3.13-3,3.41.13,6.83,0,10.24,0,4.59,0,2.43-3.49,2.76-5.54s.51-4.24-2.89-4-6.83-.09-10.24.08c-2.39.12-3.15-.8-3-3.08a49.76,49.76,0,0,0,0-7.12c-.14-1.81,1.13-4.6-1-5.22-2.58-.76-5.58-.34-8.37,0-1.53.16-1.17,1.83-1.18,3,0,3.12-.11,6.24,0,9.35.09,2.19-.47,3.49-2.93,3.12-3.16-.48-3.51,1.52-3.12,3.78s-1.71,5.7,2.7,5.65c2.92,0,3.4,1.24,3.37,3.75-.12,7.72,0,15.44-.07,23.16-.06,6,.74,11.77,5,17H218.67c1.47-3.38.89-7,.78-10.51-.09-3.14-2-1.74-3.3-.84-5.17,3.52-10.72,5.63-17.1,5.25a14.79,14.79,0,0,1-14.26-13.4c-.36-3,.55-3.91,3.52-3.87,9.2.14,18.41-.08,27.62.12,3.42.07,4.67-.84,4.58-4.47-.18-7.57-.86-14.89-6.25-20.78-9.06-9.89-26.29-8.22-34.72,3-7.74,10.35-9.42,34.33,5.4,45.3H168.12c2.5-3.26,1.41-7.23,1.12-10.88-.2-2.63-2.23-.93-3.28-.21a26.72,26.72,0,0,1-17.12,5.15,14.64,14.64,0,0,1-14-13.11c-.42-3.1.37-4.23,3.64-4.17,9.21.17,18.42-.09,27.62.14,3.59.09,4.88-1.1,4.43-4.57-.49-3.67-.43-7.46-1.31-11-2.24-9.08-8-14.86-17.49-15.94s-17.49,2.38-23,10.5c-7.34,10.78-8.11,33.68,6.8,44.52h-18c-9,0-8.94,0-6.77-8.86,3.31-13.52,6.51-27.07,9.92-40.57.8-3.13.57-4.4-3.2-4.23-6.4.28-6.45,0-7.79,6.35-2,9.42-3.93,18.85-5.89,28.27-.18.85-.06,1.82-1.47,2.54-3.35-11-6.89-22-9.89-33-1-3.56-2.65-4.11-5.88-4.2-3.43-.1-4.44,1.25-5.28,4.31-3.06,11.14-6.49,22.17-10.18,34.59L66.39,98C65.27,93,64.13,87.9,63,82.84c-.26-1.13-.25-2.6-1.93-2.46-4.69.38-8.49-2.39-12.74-3.53A68.94,68.94,0,0,0,20.16,75.1Z"/><path class="cls-1" d="M.49,137.7c7.71,8.81,17.53,11.21,27.2,14,3.4,1,6.77,2.1,10.12,3.27C48.36,158.62,52.9,166.08,52,178.12c-.79,10.47-7.58,18-17.9,19.67a42.08,42.08,0,0,1-13.3,0c-11.67-1.88-14.21-4.44-17-16.15A129.69,129.69,0,0,1,.56,161.51,161,161,0,0,1,.49,137.7Z"/><path class="cls-1" d="M31.9,89.83c8.19-.34,15.6,3.1,22.55,8a5,5,0,0,1,2.18,3.16Q60.23,116,64,131.11c.43,1.72.65,3.16-1.68,2.73-5.5-1-5.57,2.55-5.76,6.32-.24,4.81-.31,4.78-4.5,2.28-7.35-4.39-15.73-6-23.73-8.59-1.26-.42-2.57-.71-3.83-1.11C11.16,128.48,6.11,120,8.42,105.84,10,96,19,89.78,31.9,89.83Z"/><path class="cls-1" d="M86.54,96.68c3.81,12.45,7.25,23.73,10.72,35,.48,1.56-.06,2.2-1.65,2.2-6.07,0-12.14,0-18.21,0-2,0-1.71-1-1.34-2.29C79.44,120.35,82.81,109.11,86.54,96.68Z"/><path class="cls-1" d="M197.37,101.41c-3.4,0-6.8,0-10.2,0-2,0-2.48-1-2.23-2.78.79-5.73,6.24-10.29,12.55-10.41,7.25-.14,11.06,2.84,12.21,9.45.43,2.48.05,4-3,3.77S200.48,101.41,197.37,101.41Z"/><path class="cls-1" d="M147.29,101.41c-3.25,0-6.5,0-9.75,0-2.09,0-2.92-.67-2.57-2.9.94-6,6.32-10.3,13-10.31,7,0,10.7,3.22,11.74,10.07.35,2.3-.25,3.27-2.7,3.16C153.8,101.3,150.55,101.41,147.29,101.41Z"/><path class="cls-1" d="M238.47,189.11c-3.41,0-6.82-.07-10.23,0-2,.05-2.58-.76-2.26-2.68,1-5.78,6.81-10.42,13.26-10.39s10.29,3.43,11.42,9.64c.44,2.42-.08,3.61-2.84,3.45C244.71,189,241.59,189.11,238.47,189.11Z"/><path class="cls-1" d="M289.08,106.44c-5.84-2.46-11.68-3.19-17.23-5-3-1-5.11-2.89-5-6.47s2.38-5.11,5.49-6c6.82-2,11,0,13.35,6.49C287,98.88,288.52,102.2,289.08,106.44Z"/><path class="cls-1" d="M20.16,75.1l-.56.33c.11-.18.23-.36.34-.55Z"/><path class="cls-1" d="M167.06,202.88c0,7.87-4.64,12.65-12.63,12.66-3.84,0-7.48-.88-8.69-5.34-1.34-5,.12-8.75,4.35-11,4.71-2.48,10-2.39,15.11-3.05,1.33-.17,1.87.56,1.86,1.83C167,199.63,167.06,201.26,167.06,202.88Z"/></svg>