<?xml version="1.0" encoding="utf-8"?>
<!-- Generator: Adobe Illustrator 25.3.0, SVG Export Plug-In . SVG Version: 6.00 Build 0)  -->
<svg version="1.1" id="レイヤー_1" xmlns="http://www.w3.org/2000/svg" xmlns:xlink="http://www.w3.org/1999/xlink" x="0px"
	 y="0px" viewBox="0 0 454.4 501.4" style="enable-background:new 0 0 454.4 501.4;" xml:space="preserve">
<style type="text/css">
	.st0{fill:#FFFDFE;stroke:#3C0000;stroke-width:2.99;stroke-miterlimit:10;}
	.st1{fill:#91C04F;}
	.st2{fill:#7FAA3A;}
	.st3{fill:#FFD5D5;}
	.st4{fill:#3D1C1F;}
	.st5{fill:#FFCE8D;}
	.st6{fill:#C7DDBC;}
	.st7{fill:#DBEAC5;}
	.st8{fill:#FD6161;}
	.st9{fill:#FDFDFD;}
	.st10{fill:#440E0A;}
	.st11{fill:#FDE8C6;}
	.st12{fill:#FD974F;}
	.st13{enable-background:new    ;}
	.st14{fill:#FFFFFF;}
</style>
<path class="st0" d="M68.5,452.9c-37-0.1-66.9-30-67-67V182.6C1.5,82.8,82.8,1.5,182.6,1.5h203.3c37,0.1,66.9,30,67,67v317.4
	c-0.1,37-30,66.9-67,67L68.5,452.9z"/>
<path class="st1" d="M385.9,13.3H182.6c-93.5,0-169.4,75.8-169.4,169.4v203.3c0,30.5,24.7,55.2,55.2,55.2h0h317.4
	c30.5,0,55.2-24.7,55.2-55.2v0V68.5C441.1,38,416.4,13.3,385.9,13.3C385.9,13.3,385.9,13.3,385.9,13.3z"/>
<path class="st2" d="M441.1,385.9V227.8c-7.1-0.4-14.3-0.6-21.6-0.6c-152.7,0-276.4,92.5-276.4,206.7c0,2.4,0.1,4.8,0.2,7.2h242.6
	C416.4,441.1,441.1,416.4,441.1,385.9z"/>
<path class="st3" d="M326.7,361.9c5.8,0,11.6-0.1,17.4,0c-2.6,2.4-6.1,3.6-9.6,3.2C331.6,364.8,328.9,363.7,326.7,361.9z"/>
<path class="st4" d="M302.9,439.4l-0.5,0l0,0L302.9,439.4z"/>
<path class="st4" d="M418.7,364.7c-0.1-10.1-3-20-8.5-28.5c-0.4-0.4-0.6-1-0.7-1.5c-0.1-1.8-0.1-3.5-0.3-5.3
	c-1-9.4-4.6-18.4-10.3-26c-1.1-1.5-2.4-3.1-3.7-4.5s-2.9-3.1-4.5-4.5c-9-8.3-20.6-13.5-32.5-15.8c-0.2-6.6-3.9-12.7-9.6-16
	c-5-2.9-10.8-3.7-16.5-3.5c0.4-1.6,1-3.1,1.9-4.6c0.3-0.4,0.8-0.2,1.2-0.3c4-0.1,7.1-4.3,6.5-8.2c-0.3-3.9-4.1-6.7-7.9-6.4
	c-3.4,0.1-6.2,2.4-8.1,5.1c-3.2,4.8-4,10.7-4.1,16.3c-5.4,2.1-9.7,6.4-11.7,11.9c-0.6,1.9-1,3.8-1.3,5.8c-3.1,0.7-6.2,1.5-9.3,2.5
	c-15.4,5-28.9,16-36.2,30.4c-3.6,7-5.5,14.8-5.7,22.6c0,1.2-1,2.1-1.6,3.1c-3.2,5.1-5.4,10.6-6.7,16.5c-1.1,5-1.1,10.1-1.1,15.2
	c0,2,1.1,3.6,1.9,5.4c0.1,5.7,0,11.4,0,17c0,1.4,0,2.7,0.1,4l-0.1,0.1c0.3,1,0.6,2.1,0.8,3.1l0,0c1.3,4.4,3.5,8.4,6.5,11.9
	c4,4.3,8.8,7.7,14.1,10.2c12.7,6,26.7,8.2,40.6,9.5c15.1,1.4,30.2,1.3,45.3-0.2c11.5-1.3,23-3.2,33.9-7.3c5.4-2,10.4-4.8,14.9-8.4
	c4.8-4,8.4-9.3,10.2-15.3c0,0,0-0.1,0-0.1c0.1-0.5,0.3-0.9,0.4-1.4c0,0,0-0.1,0-0.1l0.1-0.6c0-0.1,0-0.2,0-0.3c0,0,0,0,0-0.1
	c0.1-0.4,0.1-0.8,0.3-1.3l0,0c0.1-6.9,0-13.8,0.1-20.6c0.3-1,1-1.8,1.3-2.7C419,369.6,418.6,367.1,418.7,364.7z M329.5,246.1
	c1.4-1.8,3.6-3.1,5.8-2.6c1.9,0.8,2.7,3,1.9,4.8c0,0.1-0.1,0.2-0.2,0.3c-0.3,0.7-1,1.2-1.8,1.2c-0.5-0.8-1.9-1.7-2.6-0.6
	c-2.5,2.8-4.2,6.3-4.8,10.1c-0.8,0-1.5,0.1-2.3,0.1C325.8,254.8,326.6,249.9,329.5,246.1z M314,273.6c1.4-3.7,4.2-6.6,7.7-8.3
	c1.8-0.8,3.7-1.4,5.6-1.9l0.2,0.1c0.1,1.2-0.4,2.9,1,3.5s3.9,0.6,4.4-1.1c-0.8-0.8-1.7-1.6-1.5-2.8c3.2-0.2,6.3,0.1,9.4,0.9
	c0.4,0.1,0.8,0.2,1.2,0.4c5,1.1,9.2,4.8,11,9.6c2.2,5.8,0.5,13.1-4.6,16.7c-4.5,3.1-10.3,3.5-15.7,3.5c-5.1-0.1-10.5-1-14.7-4.1
	c-3.3-2.5-4.8-6.6-5-10.7C312.9,277.5,313.2,275.5,314,273.6z M412.5,394.8c-1,5.8-3.9,11-8.2,14.9c-3.7,3.3-7.9,6-12.5,7.8
	c-5.8,2.4-11.9,4.3-18.1,5.5c-2.4,0.6-4.8,1-7.3,1.2c-4.7,0.8-9.4,1.5-14.2,1.8c-15.6,1.2-31.3,0.9-46.9-0.9
	c-8.3-1-16.4-2.8-24.4-5.3c-4.9-1.5-9.6-3.7-14-6.5c-4.9-3-8.7-7.5-11-12.7c-1-2.1-1.5-4.4-1.7-6.8c0-4.9,0-9.8,0-14.7
	c2.8,3.1,6.7,5,10.8,5.6c2.8,0,5.2-1.5,7.6-2.9c2.2-1.2,4.9-1.2,7.1,0c2.2,1.2,3.8,3.2,4.5,5.6c0.3,0.8,0.3,1.7,0,2.6
	c-0.7,4-0.4,8.5,2,12c0.8,1,1.6,1.9,2.4,2.8c2.1,1.5,4.6,2.4,7.1,2.6c3.7,0.3,7.4-1,10-3.6c2.6-2.5,3.6-6.2,3.7-9.7
	c0.1-1.3-0.2-2.8,0.6-3.9c0.9-1.5,2.6-2.3,4.3-2.2c2.6-0.1,5.2,0.7,7.4,2.1c1.6,1.1,2.5,2.8,2.6,4.7c-0.2,1.9-0.3,3.9-0.3,5.8
	c0.1,2.9,1.2,5.6,3.1,7.7c0.6,0.7,1.5,1.3,2.2,2c3.3,1.8,7.2,2.4,10.9,1.7c4.1-0.7,7.6-3.3,9.6-6.9c1.4-2.9,1.8-6.2,1.1-9.3
	c-0.4-1.6,0-3.2,1.1-4.4c2.9-2.9,7.2-3.4,11.1-3.4c1.6-0.1,3.1,0.5,4.1,1.6c1.4,1.4,1.5,3.6,2,5.4c1.1,4.2,4.4,7.5,8.5,8.7
	c1.6,0.4,3.2,0.5,4.8,0.3c3.9-0.5,7.5-2.4,10-5.4c2.4-3.1,3.4-7.1,2.6-11c-0.2-1.3-0.5-2.7,0-4c1.2-2.8,3.7-4.8,6.6-5.4
	c3.4-0.7,6.9-0.6,10.3-1.3C412.5,382.9,412.6,388.9,412.5,394.8L412.5,394.8z M411.2,373.3c-2,0.4-4,0.6-6,0.7
	c-3.3,0.3-6.7,1-9.4,3.2c-2.2,1.7-3.6,4.2-4.2,6.9c-0.4,2.2,0.6,4.4,0.4,6.7c-0.1,2.4-1,4.7-2.7,6.4c-2.7,2.6-6.4,3.7-10.1,3
	c-2.8-0.6-5-2.7-5.9-5.4c-0.5-1.4-0.6-2.9-1-4.4c-0.6-1.5-1.6-2.9-2.8-4.1c-1.3-1.1-3-1.8-4.7-2c-4.3-0.2-9,0.1-12.7,2.5
	c-1.2,0.7-2.2,1.6-3.1,2.6c-0.9,1.3-1.5,2.8-1.6,4.4c-0.2,2.3,1,4.5,0.4,6.8c-0.5,3.3-2.8,6.1-6,7.3c-2.2,0.8-4.6,1-6.9,0.5
	c-3.2-0.5-5.8-3-6.5-6.2c-0.7-3,0.4-6,0-9c-0.3-2.3-2-4.1-3.5-5.7c-3.3-2.3-7.3-3.4-11.3-3c-1.5,0.2-2.9,0.7-4.2,1.4
	c-1.3,1-2.2,2.3-2.9,3.8c-0.8,1.8-0.4,3.8-0.6,5.7c-0.1,2.3-1.1,4.6-2.7,6.2c-3.7,3.6-10.6,3-13.5-1.2c-2.1-2.8-2.1-6.6-1.4-9.9
	c0.7-3-0.7-6-2.5-8.5c-3.9-5-11-6.1-16.2-2.5c-1.5,0.9-3.2,2-5.1,1.5c-5-1.6-9.1-5.2-11.4-9.9c-0.5-0.9-0.7-2-0.6-3
	c0-3.1,0-6.2,0.3-9.3c1-8.1,4.1-15.7,9-22.2c0.1-2.1,0.1-4.1,0.3-6.2c1.2-12.5,7.9-24.1,17.2-32.5c2.9-2.7,6.1-5,9.5-7
	c2.4-1.6,4.9-3,7.6-4.1c4-1.8,8.2-3.3,12.6-4.2c0.3,2.1,1,4,1.9,5.9V288c2.2,4.1,5.9,7.2,10.3,8.6c4.7,1.6,9.8,1.9,14.8,1.8
	s10.2-1,14.4-4.1c2.4-1.8,4.4-4.1,5.8-6.7c0.8-1.7,1.4-3.5,1.7-5.4c6.3,1.6,12.5,4,18.2,7.2c10.2,5.5,18.5,13.9,23.8,24.2
	c3.3,6.5,5,13.7,5,21c-0.1,0.6,0,1.2,0.1,1.9c3.9,5.4,6.7,11.6,8.2,18.1c1.2,4.9,1.1,9.9,1.1,14.9C414.4,371.4,413,373,411.2,373.3
	L411.2,373.3z"/>
<path class="st4" d="M321.6,358.4c1-0.2,2-0.2,3-0.2c7.9,0,15.8,0,23.7,0c0.8,0,1.4,0.6,1.4,1.4c0,0.2,0,0.4-0.1,0.6
	c-1.3,3.5-4.1,6.2-7.5,7.6c-3.8,1.5-8,1.6-11.9,0.3c-3.5-1.1-6.4-3.5-8.2-6.7C321.5,360.4,321,359.3,321.6,358.4z M326.7,361.9
	c2.2,1.8,4.9,3,7.7,3.2c3.5,0.4,7-0.8,9.6-3.2C338.2,361.8,332.5,361.9,326.7,361.9L326.7,361.9z"/>
<path class="st5" d="M329.5,246.1c1.3-1.9,3.6-2.9,5.9-2.5c1.9,0.8,2.7,3,1.9,4.8c0,0.1-0.1,0.2-0.2,0.3c-0.3,0.7-1,1.2-1.8,1.2
	c-0.5-0.8-1.9-1.8-2.6-0.6c-2.5,2.8-4.2,6.3-4.8,10.1c-0.8,0-1.5,0.1-2.3,0.1C325.8,254.9,326.6,249.9,329.5,246.1z"/>
<path class="st6" d="M331.4,263.1c3.2-0.2,6.4,0.1,9.5,0.8c0.2,1.2,0.8,2.7-0.1,3.8c-1.4,1.5-3.3,2.4-5.4,2.7
	c-2.5,0.5-5.1,0.4-7.5-0.4c-0.1-2-2.1-3.1-3.6-3.8c0.8,0.1,1.7,0.1,2.6,0.1c0.2-1,0.4-2,0.5-2.9l0.2,0.1c0.1,1.2-0.4,2.9,1,3.5
	s3.9,0.7,4.4-1.1C332.1,265.1,331.2,264.3,331.4,263.1z"/>
<path class="st7" d="M321.7,265.3c1.8-0.8,3.7-1.4,5.6-1.9c-0.1,1-0.3,2-0.5,2.9c-0.8,0-1.7,0-2.6-0.1c-0.9-0.2-1.8,0-2.6,0.3
	c-0.6,2.2,1.6,3.5,3.4,4c1,0.3,2,0.1,2.9-0.5c2.4,0.8,5,0.9,7.5,0.4c2-0.3,3.9-1.2,5.4-2.7c0.9-1.1,0.3-2.6,0.1-3.8
	c0.4,0.1,0.8,0.2,1.2,0.4c2.5,1.7,5.6,3.3,6.2,6.5c0.9,5.4-0.8,11-4.6,15c-3,3.3-7.6,4.6-12,4.8s-8.8-0.7-12.4-3.3
	c-2.1-1.4-3.7-3.6-4.5-6c-0.7-2.5-0.9-5.2-0.8-7.8C315.4,269.9,318.2,267,321.7,265.3z M318.9,274c0.4,1.2,2.2,1.2,3,0.3
	c1.4-1.1,2.2-3.6,0.5-4.8C320.2,269.9,318.7,271.8,318.9,274z"/>
<path class="st7" d="M269.8,388.2c2.3-1.1,4.6-2.3,7.2-2.2c3,0,5.5,1.8,7.4,4c-0.7,4-0.4,8.5,2,12c0.7,1,1.6,1.9,2.4,2.8
	c1.3,4.5,5.3,7.7,10,8.1c4.3,0.3,8.4-1.4,11.1-4.7c1.8-2.4,3-5.2,3.6-8.2c0.3-1.3,0.6-2.6,1.2-3.9c0.4-0.8,1.2-1.3,2.1-1.4
	c2.4,0,4.7,1,6.3,2.9c0.7,0.8,1.1,1.8,1.1,2.9c0.1,2.9,1.2,5.6,3.1,7.7c0.6,0.8,1.5,1.3,2.2,2c1.9,3.3,5.1,5.5,8.8,6.2
	c4.3,0.8,8.7-0.2,12.3-2.7c4.2-2.8,6.7-7.6,6.6-12.6c-0.1-1.4,0-2.9,0.2-4.3c0.4-1.4,1.7-2.4,3.2-2.3c1.8,0,3.2,1.3,4.2,2.6
	c1.6,2.3,2.6,4.9,3,7.6c0.5,3.4,0,7.1-2.2,9.8c-2.3,3.2-6.3,4.6-10,5.2c-7.3,1.3-14.6,2-22,2c-13.2,0.1-26.4-0.5-39.4-3
	c-6.8-1.4-13.5-3.1-19.7-6.3c-3.7-1.8-6.9-4.5-9.5-7.8c-3-4.3-3.9-9.6-2.6-14.7C265.1,389.9,267.5,389.3,269.8,388.2z"/>
<path class="st1" d="M342.1,264.4c5,1.2,9.1,4.7,10.9,9.6c2.2,5.8,0.5,13.1-4.6,16.7c-4.6,3.1-10.3,3.5-15.7,3.5
	c-5.1-0.1-10.5-1-14.7-4.1c-3.3-2.5-4.8-6.7-5-10.7c-0.2-2,0.2-3.9,1-5.7c-0.2,2.6,0.1,5.2,0.8,7.8c0.8,2.4,2.4,4.6,4.5,6
	c3.5,2.6,8.1,3.5,12.4,3.3s8.9-1.5,12-4.8c3.8-4,5.5-9.6,4.6-15C347.7,267.6,344.5,266.1,342.1,264.4z"/>
<path class="st1" d="M402.3,378.3c3.4-0.7,6.9-0.6,10.3-1.2c-0.1,5.9,0,11.9-0.1,17.8c-0.9,5.8-3.8,11-8.2,14.9
	c-3.7,3.3-7.9,6-12.5,7.8c-5.8,2.4-11.9,4.3-18.1,5.5c-2.4,0.6-4.8,1-7.3,1.2c0.7-0.4,1.3-0.7,2.1-1c6-1.7,12.2-3.6,17.2-7.5
	c2.2-1.6,3.9-3.8,4.8-6.4c0.3-1.2,0.5-2.5,0.5-3.8c-1.3,0-2.6-0.1-3.9-0.2c-1.5-0.3-2.8-1-4.2-1.3c3.9-0.5,7.5-2.4,10-5.4
	c2.4-3.1,3.4-7.1,2.6-11c-0.2-1.3-0.5-2.7,0-4C396.7,380.9,399.3,378.9,402.3,378.3z"/>
<path class="st1" d="M254.3,379.1c2.8,3.1,6.7,5,10.8,5.6c2.8,0,5.2-1.5,7.6-2.9c2.2-1.2,4.9-1.2,7.1,0c2.2,1.2,3.8,3.2,4.5,5.6
	c0.3,0.8,0.3,1.7,0,2.6c-1.9-2.1-4.5-4-7.4-4c-2.6-0.1-5,1-7.2,2.2c-2.3,1.1-4.7,1.7-7.2,2c-1.3,5-0.4,10.4,2.6,14.7
	c2.5,3.3,5.7,5.9,9.5,7.8c6.2,3.1,12.9,4.9,19.7,6.3c13,2.5,26.2,3.1,39.4,3c7.4,0,14.7-0.7,22-2c3.7-0.7,7.7-2.1,10-5.2
	c2.2-2.7,2.7-6.4,2.2-9.8c-0.4-2.7-1.4-5.3-3-7.6c-0.9-1.5-2.5-2.4-4.2-2.6c-1.4,0-2.7,0.9-3.1,2.3c-0.2,1.4-0.3,2.8-0.2,4.3
	c0,5-2.4,9.8-6.6,12.6c-3.5,2.6-8,3.6-12.3,2.7c-3.7-0.6-7-2.9-8.9-6.2c3.3,1.8,7.2,2.4,10.9,1.7c4.1-0.7,7.6-3.3,9.6-6.9
	c1.4-2.9,1.8-6.2,1.1-9.3c-0.4-1.5,0-3.2,1.1-4.4c2.9-2.9,7.2-3.5,11.1-3.5c1.6-0.1,3.1,0.5,4.1,1.7c1.5,1.5,1.5,3.6,2,5.4
	c1.1,4.2,4.4,7.5,8.5,8.7c1.6,0.4,3.2,0.5,4.8,0.3c1.5,0.3,2.7,1,4.2,1.3c1.3,0.1,2.6,0.2,3.9,0.2c0,1.3-0.2,2.6-0.5,3.8
	c-0.9,2.6-2.6,4.8-4.8,6.4c-5.1,3.8-11.2,5.7-17.2,7.5c-0.7,0.3-1.4,0.6-2.1,1c-4.7,0.9-9.5,1.4-14.2,1.8c-15.6,1.3-31.3,1-46.9-0.9
	c-8.3-1-16.4-2.8-24.3-5.3c-4.9-1.5-9.6-3.7-14-6.5c-4.9-3-8.7-7.4-11-12.7c-1-2.1-1.6-4.4-1.7-6.8
	C254.3,388.9,254.3,384,254.3,379.1z"/>
<path class="st8" d="M310.2,390.2c0.9-1.5,2.6-2.3,4.3-2.2c2.6-0.1,5.2,0.7,7.4,2.1c1.6,1,2.6,2.8,2.6,4.7c-0.2,1.9-0.3,3.9-0.3,5.8
	c0-1.1-0.4-2.1-1.1-2.9c-1.6-1.9-3.9-2.9-6.3-2.9c-0.9,0.1-1.7,0.6-2.1,1.4c-0.5,1.2-0.9,2.5-1.2,3.9c-0.6,3-1.8,5.8-3.6,8.2
	c-2.8,3.3-6.9,5-11.2,4.7c-4.7-0.3-8.6-3.6-10-8.1c2.1,1.5,4.6,2.4,7.1,2.6c3.7,0.3,7.3-1,10-3.6c2.6-2.5,3.6-6.2,3.7-9.7
	C309.7,392.8,309.4,391.4,310.2,390.2z"/>
<path class="st9" d="M411.2,373.3c-2,0.4-4,0.6-6,0.7c-3.3,0.3-6.7,1-9.4,3.2c-2.2,1.7-3.6,4.2-4.2,6.9c-0.4,2.2,0.6,4.4,0.4,6.7
	c-0.1,2.4-1,4.7-2.7,6.4c-2.7,2.6-6.4,3.7-10.1,3c-2.8-0.6-5-2.7-5.9-5.4c-0.5-1.4-0.6-2.9-1-4.4c-0.6-1.5-1.6-2.9-2.8-4.1
	c-1.3-1.1-3-1.8-4.7-2c-4.3-0.2-9,0.1-12.7,2.5c-1.2,0.7-2.2,1.6-3.1,2.6c-0.9,1.3-1.5,2.8-1.6,4.4c-0.2,2.3,1,4.5,0.4,6.8
	c-0.5,3.3-2.8,6.1-6,7.3c-2.2,0.8-4.6,1-6.9,0.5c-3.2-0.5-5.8-3-6.5-6.2c-0.7-3,0.4-6,0-9c-0.3-2.3-2-4.1-3.5-5.7
	c-3.3-2.3-7.3-3.4-11.3-3c-1.5,0.2-2.9,0.7-4.2,1.4c-1.3,1-2.2,2.3-2.9,3.8c-0.8,1.8-0.4,3.8-0.6,5.7c-0.1,2.3-1.1,4.6-2.7,6.2
	c-3.7,3.6-10.6,3-13.5-1.2c-2.1-2.8-2.1-6.6-1.4-9.9c0.7-3-0.7-6-2.5-8.5c-3.9-5-11-6.1-16.2-2.5c-1.5,0.9-3.2,2-5.1,1.5
	c-5-1.6-9.1-5.2-11.4-9.9c-0.5-0.9-0.7-2-0.6-3c0-3.1,0-6.2,0.3-9.3c1-8.1,4.1-15.7,9-22.2c0.1-2.1,0.1-4.1,0.3-6.2
	c1.2-12.5,7.9-24.1,17.2-32.5c2.9-2.7,6.1-5,9.5-7c2.4-1.6,4.9-3,7.6-4.1c4-1.8,8.2-3.3,12.6-4.2c0.3,2,1,4,1.9,5.9V288
	c2.2,4.1,5.9,7.2,10.3,8.6c4.7,1.6,9.8,1.9,14.8,1.8s10.2-1,14.4-4.1c2.4-1.8,4.4-4.1,5.8-6.7c0.8-1.7,1.4-3.5,1.7-5.4
	c6.3,1.6,12.5,4,18.2,7.2c10.2,5.5,18.5,13.9,23.8,24.2c3.3,6.5,5,13.7,5,21c-0.1,0.6,0,1.2,0.1,1.9c3.9,5.4,6.7,11.6,8.2,18.1
	c1.2,4.9,1.1,9.9,1.1,14.9C414.4,371.4,413,373,411.2,373.3z"/>
<path class="st10" d="M381.4,452.7c-1.2-3.7-2.4-7.4-3.7-11.1c-0.6-1.2-0.2-2.6,0.8-3.5c2.6-2.4,3-5.3,1.9-8.6
	c-0.5-1.7-0.7-2.4-0.1-3c0-0.2,0.1-0.5,0.1-0.7l0,0c0.1-0.6,0.2-1.1,0.4-1.6c1.3-4.7,3.4-9.1,7-12.3c0.1-0.2,0.2-0.3,0.2-0.5
	c0.5-0.8,1-1.5,1.5-2.3c15.8-25.7,9.5-56.4-12.9-74.7c-24.5-20.1-61-19.1-84.3,2.4c-22.1,20.3-24.3,51.5-9,73.9
	c0.7,0.9,1.3,1.8,1.8,2.8c0.9,1.4,1.9,2.8,2.8,4.3c0.6,0.6,1,1.3,1.3,2.1l0,0c0.1,0.2,0.2,0.4,0.4,0.6l0.1,0.1
	c0.6,0.7,1.1,1.4,1.3,2.3c0.1,0.1,0.1,0.1,0.2,0.2c0.8,1.3,1,3,0.6,4.5c0,0,0,0.1,0,0.1c0,0.4,0,0.8-0.1,1.1
	c-0.2,0.5-0.2,1.1-0.4,1.6c-0.9,2.5-0.3,5.3,1.6,7.2c0.6,0.7,1.2,1.4,1.9,2.1c-2.7,8.2-5.4,16.3-8,24.4c-0.5,1.4-0.9,2.8-1.1,4.3
	c-0.2,3.1,2.1,5.8,5.3,6.1c0.6,0,1.1,0,1.6-0.1c1.2-0.4,2.4-0.9,3.6-1.5c4.4-3.3,8.8-3.2,13.4-0.4c1.2,0.6,1.8,2,1.4,3.2
	c-0.2,0.7-0.3,1.4-0.4,2.2c-0.2,3.5-1.6,5.9-5.3,6.6c-0.9,0.3-1.7,0.6-2.5,1.1c-1.1,1.2-2.3,2.4-3.4,3.7c-1.8,2.4-2.8,5.2-3,8.2
	c-0.3,1.7,0.7,3.3,2.4,3.7c0.2,0.1,0.5,0.1,0.7,0.1c2.6,0.1,5.2,0.1,7.8,0.2l13.8-0.1c1.1,0,2.2,0,3.3,0c3.1-0.2,4.2-1.6,3.7-4.7
	c-0.3-2.6-1.3-5-2.9-7.1c-1.5-1.7-2-4-1.3-6.1c0.5-1.8,0.9-3.6,1.1-5.4c0.2-2,1.4-3.8,3.2-4.8c6.2-3.8,11.3-3.6,16.8,1
	c0.6,0.5,1,1.1,1.2,1.8c0.4,1.8,0.7,3.6,1,5.4c1.3,3.3,1.4,6.2-1.3,9.1c-1.8,1.9-2.2,4.6-2.3,7.3c-0.1,2.3,0.9,3.4,3.2,3.6
	c2.8,0.1,5.5,0.2,8.3,0.2c3.3-0.1,6.6-0.1,10-0.2c1.7,0,3.3,0,5,0c4.7-0.1,5.1-0.5,5.1-5c0-0.5,0-1.1,0-1.7l-4.5-7.7
	c-2.2-1.3-4.3-3-6.9-3.6c-1.1-0.3-1.9-1.2-2-2.4c-0.2-1.1-0.5-2.2-0.7-3.3c-0.8-4-0.9-4.4,3.3-6.4c3.1-1.4,6.7-1.2,9.7,0.5
	c1.3,0.7,2.5,1.5,3.9,2.2c2,1.1,4.5,0.8,6.2-0.9c1.8-1.4,2.5-3.8,1.8-6C384.5,462.2,382.9,457.4,381.4,452.7z M292,403.2
	c-1,1.6-1.7,3.4-1.9,5.4c-1.9-0.1-2.2-1.4-2.7-2.2c-13.7-20.9-10.1-48.7,8.6-65.3c13.5-12.4,29.6-17.3,47.7-15
	c16.7,2.1,30.2,10,39.9,23.7c12.3,17.4,12,39.4,1,56.6c-0.5,1-1.3,1.9-2.3,2.5c-0.6-1.5-1.2-3.1-1.8-4.6c-1.9-1.6-4-3.1-6.5-2.4
	c-2.9,0.8-4.5-0.8-6.3-2.4c-5.8-1-8,0.1-9.8,5.3c-0.3,1.2-1.3,2.1-2.6,2.4c-0.5,0.1-1.1,0.3-1.5,0.6c-3.4,1.8-4.7,6.1-2.9,9.5
	c0.6,1.2,1.6,2.1,2.7,2.8c2,1,4,1.9,6.1,2.7c1,0.4,2,0.9,2.9,1.5c0.4,0.3,0.4,0.9,0.1,1.3c0,0-0.1,0.1-0.1,0.1
	c-0.3,0.3-0.6,0.5-0.9,0.6c-17.2,7.8-34.4,7.8-51.5,0c-0.2-0.1-0.3-0.2-0.5-0.3c-0.3-0.3-0.7-0.6-0.7-0.8c0.1-0.5,0.3-1,0.7-1.3
	c2.4-1.1,4.8-2,7.1-3.1c1.6-0.6,2.9-1.6,3.9-3c2.1-3.2,1.3-7.6-2-9.8c0,0,0,0,0,0c-1-0.5-2-0.9-3.1-1.3c-0.7-0.3-1.2-0.8-1.4-1.5
	c-2.5-6.2-4.1-7.1-10.4-5.7c-1.5,1.7-3,3-5.6,2.2C296,401.1,294,402.4,292,403.2z M373.4,426.5c0.7,2.1,2,4,2,6.3
	c0,0.5-0.3,1-0.8,1.4c-0.7,0.4-1.5,0.2-2-0.4c-0.3-0.4-0.6-0.9-0.8-1.4c-0.4-0.9-0.7-1.7-1-2.6c-1.2-3.1-2-6.5-3.9-9.1
	s-5.9-2.9-8.8-4.3c-0.8-0.4-1.6-0.9-2.3-1.5c-0.3-0.4-0.4-1-0.2-1.5c0.1-0.3,0.2-0.6,0.4-0.8c2.4-0.6,3.6,0.6,5,0.8
	c2.2,0.3,3.5-1.1,3.1-3.3c-0.1-0.5-0.3-1.1-0.5-1.6c-0.2-0.5-0.4-1-0.5-1.6c-0.2-0.9-0.1-1.9,0.9-2.3c0.8-0.4,1.8-0.1,2.2,0.8
	c0,0,0,0.1,0.1,0.1c0.4,0.8,0.7,1.7,1.1,2.5c1.2,2.4,2.9,2.7,4.8,0.9c0.5-0.5,0.9-1.2,1.5-1.7c0.4-0.4,1-0.5,1.5-0.2
	c0.7,0.4,1.3,1,1,1.7c-0.6,1.5-1.2,3-2,4.5C370.2,421.1,370.5,418,373.4,426.5L373.4,426.5z M298,413.7c-0.9-1.6-1.6-3.3-2.3-5
	c-0.2-0.8,0.3-1.5,1-1.8c0.5-0.3,1.1-0.3,1.5,0.1c0.7,0.8,1.5,1.7,2.2,2.4c1.1,0.8,2.6,0.6,3.4-0.5c0,0,0-0.1,0.1-0.1
	c0.7-1.3,1.3-2.7,2-3.9c0.4-0.7,1.3-0.9,2-0.5c0.4,0.2,0.6,0.8,1.1,1.4c-0.4,1.2-0.7,2.4-1,3.7c-0.7,2.8,0.8,4.2,3.7,3.6
	c1.1-0.2,2.1-0.7,3.2-0.9c0.5,0,1,0.3,1.4,0.7c0.5,0.6,0.4,1.5-0.1,2c0,0,0,0,0,0c-1.4,0.9-2.9,1.6-4.4,2.2c-8.2,3.5-6,1.5-9.4,9.7
	c-0.9,2.2-1.8,4.5-2.8,6.6c-0.4,0.7-1.3,0.9-2,0.5c-0.7-0.3-1.2-1-1-1.8c0.7-2.3,1.5-4.6,2.4-6.8C301.3,418.5,301.5,420.7,298,413.7
	z M320.2,495.6c-2.8,0-5.5,0-8.3,0l0,0c-2.2,0-4.4,0-6.6,0c-0.9,0-2,0.2-2.3-1c-0.1-0.9,0.2-1.9,0.9-2.5c4.8-6.2,13.9-5.6,17.6,1.1
	c0.5,0.6,0.5,1.5-0.1,2C321.1,495.5,320.7,495.7,320.2,495.6z M316.4,476.1c0.3-0.9,1.5-0.8,2.5-0.5c0.5,0.1,1,0.5,0.9,1.8
	c-0.1,1.8-0.5,3.6-1.1,5.2c-0.3,0.7-1.2,1-1.9,0.7c-0.7-0.2-1.4-0.5-1.5-1.3C314.9,479.9,315.7,478,316.4,476.1L316.4,476.1z
	 M369.4,495.5h-19.2c-0.7-1.8,0.5-2.9,1.4-4c1.6-1.8,3.8-3.1,6.2-3.4C362.6,487.2,366.5,489.5,369.4,495.5L369.4,495.5z
	 M353.7,475.6c0.7-0.2,1.4,0.2,1.7,0.8c0.7,1.7,1.1,3.5,1,5.3c0,1.1-0.8,1.5-1.8,1.6c-0.7,0.1-1.4-0.4-1.5-1.2
	c-0.3-1.6-0.7-3.2-1-4.8C351.9,476.3,352.5,475.6,353.7,475.6L353.7,475.6z M380.1,468.3c-1,0.3-1.7-0.4-2.5-0.9
	c-5.5-3.3-12.5-3.3-18,0.2c-1.2,0.8-2.6,1.5-4,2c-3.2,1-6.8,0.5-9.6-1.3c-2.1-1.5-4.5-2.6-7.1-3c-4.4-0.5-8.5-0.1-12.3,2.4
	c-1.5,1.1-3.2,1.9-5,2.2c-3,0.5-6-0.1-8.5-1.7c-6.1-4-12.5-4.3-18.9-0.8c-0.5,0.2-1,0.4-1.6,0.5c-0.1,0-0.3,0-0.5-0.1
	c-0.5-0.8-0.6-1.8-0.2-2.6c2.5-7.7,5.1-15.5,7.7-23.2c0.2-1.1,0.8-2.1,1.6-2.8c2-1.6,3.5-3.6,4.4-6c1.7-0.5,2.9,0.2,4.1,0.5
	c16.6,5,34.3,5.1,51,0.4c0.5-0.1,1-0.4,1.6-0.5c3.2-0.8,3.2-0.8,5.2,2.2c0.3,0.5,0.5,1.1,1,1.3c3.1,2,3.8,5.3,4.9,8.4
	c2.2,6.7,4.4,13.4,6.6,20.1C380.2,466.6,380.9,467.4,380.1,468.3L380.1,468.3z"/>
<path class="st11" d="M367.5,399.4c-5.8-1-8,0.1-9.8,5.3c-0.3,1.2-1.3,2.2-2.5,2.4c-0.5,0.1-1.1,0.3-1.5,0.6
	c-3.4,1.8-4.7,6.1-2.9,9.5c0.6,1.2,1.6,2.1,2.7,2.8c2,1,4,1.9,6.1,2.7c1,0.4,2,0.9,2.9,1.5c0.4,0.3,0.4,0.9,0.1,1.3
	c0,0-0.1,0.1-0.1,0.1c-0.3,0.3-0.6,0.5-0.9,0.6c-17.2,7.8-34.4,7.8-51.5,0c-0.2-0.1-0.3-0.2-0.5-0.3c-0.3-0.3-0.7-0.6-0.7-0.8
	c0.1-0.5,0.3-1,0.7-1.3c2.4-1.1,4.8-2,7.1-3.1c1.6-0.6,2.9-1.6,3.9-3c2.1-3.2,1.3-7.6-2-9.8c0,0,0,0,0,0c-1-0.5-2-0.9-3.1-1.3
	c-0.7-0.3-1.2-0.8-1.4-1.5c-2.5-6.2-4.1-7.1-10.4-5.7c-0.1-1.5-0.5-2.9-1.3-4.1c-1.5-2.4-4.3-3.7-7.1-3.1c-2.5,0.2-4.5,1.9-5.2,4.3
	c-0.8,2.5-0.9,5.1,1.9,6.7c-1,1.6-1.7,3.4-1.9,5.4c-1.9-0.1-2.2-1.4-2.7-2.2c-13.7-20.9-10.1-48.6,8.5-65.3
	c13.5-12.4,29.6-17.3,47.7-15c16.7,2.1,30.2,10,39.9,23.7c12.3,17.4,12,39.4,1,56.6c-0.5,1-1.3,1.9-2.3,2.5
	c-0.6-1.5-1.2-3.1-1.8-4.6c0.6-1.3,1-2.7,1.4-4.1c0.7-3.6-1.6-7-5.1-7.8c-2.8-0.6-5.7,0.7-7.1,3.3
	C368.8,396.7,368.2,398,367.5,399.4z M345,352.2c1.4,1.2,2.8,2.3,4.2,3.3c2.7,1.7,6.1,1.9,9,0.5c4.6-2.1,8.4-9.4,7.5-14.4
	c-0.1-1.2-1.1-2.1-2.3-2.1c-1.1-0.2-2.3,0.5-2.6,1.6c-0.4,1.6-0.5,3.3-1,4.9c-1.1,3.6-3.6,6-6,5.7c-3.2-0.5-4.7-2.8-5.5-5.6
	c-0.5-1.6-0.6-3.3-1-4.9c-0.3-1.1-1.4-1.9-2.5-1.7c-1,0-1.8,0.6-2.1,1.5c-0.3,1.3-0.6,2.5-0.8,3.8c-0.2,1.5-0.8,2.9-1.7,4.1
	c-2.6,3.8-6.4,3.7-9-0.2c-1-1.6-1.6-3.3-1.8-5.2c0-0.9-0.2-1.8-0.5-2.7c-0.6-1.2-2.1-1.7-3.3-1.1c-0.5,0.2-0.9,0.6-1.1,1.1
	c-0.3,1.1-0.5,2.2-0.6,3.2c-0.3,2-1.1,3.9-2.4,5.5c-2.4,2.7-5.3,2.8-7.6,0.1c-1.1-1.2-1.9-2.8-2.2-4.4c-0.2-1.3-0.4-2.6-0.7-3.8
	c-0.2-1.3-1.4-2.2-2.6-2c-0.1,0-0.1,0-0.2,0c-1.1,0.1-2,1.1-2,2.3c-0.4,4.7,1.4,9.4,4.9,12.5c3.5,3.4,9,3.6,12.7,0.5
	c1.1-0.8,2.1-1.8,3.1-2.7C333.8,358.5,337.9,358.5,345,352.2z M336.2,387.6L336.2,387.6c-4.1,0-8.2-0.1-12.2,0c-3,0.1-4,1.1-4,4
	c-0.6,8.8,6,16.5,14.9,17.1s16.5-6,17.1-14.9c0.1-0.9,0-1.8,0-2.7c-0.1-2.4-1-3.5-3.4-3.5C344.4,387.5,340.3,387.6,336.2,387.6
	L336.2,387.6z M360.5,382.7c0.5-1.5,1.9-1.9,2.9-2.6c1.2-0.8,2.6-1.5,3.8-2.3c1.2-0.7,1.6-2.3,0.8-3.5c-0.7-1.1-2-1.5-3.2-1
	c-4,2.3-8,4.6-11.9,7c-1.1,0.7-1.4,2.1-0.7,3.2c0.1,0.2,0.3,0.4,0.5,0.6c4.1,2.6,8.2,5,12.4,7.4c0.7,0.3,1.5,0.2,2.1-0.2
	c1.2-0.6,1.7-2,1.1-3.2c-0.2-0.4-0.5-0.7-0.8-0.9C365.1,385.6,362.7,384.2,360.5,382.7L360.5,382.7z M311.7,382.6
	c-1.9,1.1-3.4,2-5,3c-0.8,0.5-1.6,1-2.3,1.6c-1,0.9-1.2,2.4-0.4,3.5c0.6,1,1.9,1.3,2.9,0.8c3.9-2.2,7.7-4.3,11.5-6.7
	c2.1-1.3,2.1-3.5-0.1-4.9c-3.6-2.3-7.3-4.3-10.9-6.5c-0.3-0.2-0.6-0.3-1-0.3c-0.9-0.2-1.9,0.2-2.4,1c-0.7,0.9-0.7,2.2,0.1,3.1
	c0.7,0.6,1.4,1.2,2.2,1.6C307.9,380,309.9,380.6,311.7,382.6L311.7,382.6z"/>
<path class="st7" d="M292.1,467.9c-0.5-0.8-0.6-1.8-0.2-2.6c2.5-7.7,5.1-15.5,7.7-23.2c0.2-1.1,0.8-2.1,1.6-2.8c2-1.6,3.5-3.6,4.4-6
	c1.7-0.5,2.9,0.2,4.1,0.5c16.6,5,34.3,5.1,51,0.4c0.5-0.1,1-0.4,1.6-0.5c3.2-0.8,3.2-0.8,5.2,2.2c0.3,0.5,0.5,1.1,1,1.3
	c3.1,2,3.8,5.3,4.9,8.4c2.2,6.7,4.4,13.4,6.6,20.1c0.3,0.8,0.9,1.7,0.2,2.6c-1,0.3-1.7-0.4-2.5-0.9c-5.5-3.3-12.5-3.3-18,0.2
	c-1.2,0.8-2.6,1.5-4,2c-3.2,1-6.8,0.5-9.6-1.3c-2.1-1.5-4.5-2.6-7.1-3c-4.4-0.5-8.5-0.1-12.3,2.4c-1.5,1.1-3.2,1.9-5,2.2
	c-3,0.5-6-0.1-8.5-1.7c-6.1-4-12.5-4.3-18.9-0.8c-0.5,0.2-1,0.4-1.6,0.5C292.5,468,292.3,467.9,292.1,467.9z"/>
<path class="st11" d="M355.9,412.5c2.4-0.6,3.6,0.6,5,0.8c2.2,0.3,3.5-1.1,3.1-3.3c-0.1-0.5-0.3-1.1-0.5-1.6c-0.2-0.5-0.4-1-0.5-1.6
	c-0.2-0.9-0.1-1.9,0.9-2.3c0.8-0.4,1.8-0.1,2.2,0.8c0,0,0,0.1,0.1,0.1c0.4,0.8,0.7,1.7,1.1,2.5c1.2,2.4,2.9,2.7,4.8,0.9
	c0.5-0.5,0.9-1.2,1.5-1.7c0.4-0.4,1-0.5,1.5-0.2c0.7,0.4,1.3,1,1,1.7c-0.6,1.5-1.2,3-2,4.5c-4,8-3.6,4.9-0.7,13.3c0.7,2.1,2,4,2,6.3
	c0,0.5-0.3,1-0.8,1.4c-0.7,0.4-1.5,0.2-2-0.4c-0.3-0.4-0.6-0.9-0.8-1.4c-0.4-0.9-0.7-1.7-1-2.6c-1.2-3.1-2-6.5-3.9-9.1
	s-5.9-2.9-8.8-4.3c-0.8-0.4-1.6-0.9-2.3-1.5c-0.3-0.4-0.4-1-0.2-1.5C355.6,413,355.8,412.7,355.9,412.5z"/>
<path class="st11" d="M308.9,405.9c-0.4,1.2-0.7,2.4-1,3.7c-0.7,2.8,0.8,4.2,3.7,3.6c1.1-0.2,2.1-0.7,3.2-0.9c0.5,0,1,0.3,1.4,0.7
	c0.5,0.6,0.4,1.5-0.1,2c0,0,0,0,0,0c-1.4,0.9-2.9,1.6-4.4,2.2c-8.2,3.5-6,1.5-9.4,9.7c-0.9,2.2-1.8,4.5-2.8,6.6
	c-0.4,0.7-1.3,0.9-2,0.5c-0.7-0.3-1.2-1-1-1.8c0.7-2.3,1.5-4.6,2.4-6.8c2.6-7.1,2.8-4.9-0.7-11.9c-0.9-1.6-1.6-3.3-2.3-5
	c-0.2-0.8,0.3-1.5,1-1.8c0.5-0.3,1.1-0.3,1.5,0.1c0.7,0.8,1.5,1.7,2.2,2.4c1.1,0.8,2.6,0.6,3.4-0.5c0,0,0-0.1,0.1-0.1
	c0.7-1.3,1.3-2.7,2-3.9c0.4-0.7,1.3-0.9,2-0.5C308.3,404.7,308.5,405.3,308.9,405.9z"/>
<path class="st6" d="M292,403.2c-2.8-1.6-2.8-4.2-1.9-6.7c0.7-2.4,2.8-4.1,5.2-4.3c2.8-0.5,5.6,0.7,7.1,3.1c0.8,1.2,1.3,2.7,1.3,4.1
	c-1.5,1.7-3,3-5.6,2.2C296,401.1,294,402.4,292,403.2z"/>
<path class="st6" d="M367.5,399.4c0.6-1.3,1.2-2.7,2-3.9c1.8-3.2,5.8-4.3,9-2.5c2.5,1.4,3.7,4.2,3.2,7c-0.3,1.4-0.8,2.8-1.4,4.1
	c-1.9-1.6-4-3.1-6.5-2.4C371,402.5,369.3,401,367.5,399.4z"/>
<path class="st1" d="M311.9,495.7c-2.2,0-4.4,0-6.6,0c-0.9,0-2,0.2-2.3-1c-0.1-0.9,0.2-1.9,0.9-2.5c4.8-6.2,13.9-5.6,17.6,1.1
	c0.5,0.6,0.4,1.5-0.2,2c-0.3,0.2-0.6,0.3-1,0.3C317.5,495.6,314.7,495.6,311.9,495.7L311.9,495.7z"/>
<path class="st1" d="M369.4,495.5h-19.2c-0.7-1.8,0.5-2.9,1.4-4c1.6-1.8,3.8-3.1,6.2-3.4C362.6,487.2,366.5,489.5,369.4,495.5z"/>
<path class="st11" d="M319.8,477.4c-0.1,1.8-0.5,3.6-1.1,5.2c-0.3,0.7-1.2,1-1.9,0.7c-0.7-0.2-1.4-0.5-1.5-1.3
	c-0.3-2.1,0.5-4,1.2-5.8c0.3-0.9,1.5-0.8,2.5-0.5C319.4,475.7,319.8,476.1,319.8,477.4z"/>
<path class="st11" d="M353.7,475.6c0.7-0.2,1.4,0.2,1.7,0.8c0.7,1.7,1.1,3.5,1,5.3c0,1.1-0.8,1.5-1.8,1.6c-0.7,0.1-1.4-0.4-1.5-1.2
	c-0.3-1.6-0.7-3.2-1-4.8C351.9,476.3,352.5,475.6,353.7,475.6z"/>
<path class="st10" d="M345,352.2c-7.1,6.3-11.1,6.3-18.1,0c-1,0.9-2,1.9-3.1,2.7c-3.8,3.1-9.2,2.8-12.7-0.5
	c-3.5-3.2-5.3-7.8-4.9-12.5c0-1.1,0.9-2.1,2-2.3c1.3-0.3,2.5,0.5,2.8,1.8c0,0.1,0,0.1,0,0.2c0.3,1.3,0.5,2.5,0.7,3.8
	c0.3,1.6,1.1,3.2,2.2,4.4c2.4,2.6,5.3,2.6,7.6-0.1c1.3-1.6,2.2-3.5,2.4-5.5c0.1-1.1,0.3-2.2,0.6-3.2c0.6-1.2,2.1-1.7,3.3-1.1
	c0.5,0.2,0.9,0.6,1.1,1.1c0.3,0.9,0.5,1.8,0.5,2.7c0.2,1.9,0.8,3.6,1.8,5.2c2.5,3.9,6.3,4,9,0.2c0.9-1.2,1.4-2.6,1.7-4.1
	c0.2-1.3,0.4-2.6,0.8-3.8c0.3-0.9,1.1-1.6,2.1-1.5c1.2-0.2,2.3,0.6,2.5,1.7c0.4,1.6,0.5,3.3,1,4.9c0.8,2.8,2.3,5.1,5.5,5.6
	c2.4,0.4,4.9-2,6-5.7c0.5-1.6,0.6-3.3,1-4.9c0.3-1.1,1.4-1.8,2.6-1.6c1.2,0,2.1,0.9,2.3,2.1c0.9,5-2.9,12.3-7.5,14.4
	c-2.9,1.4-6.3,1.2-9-0.5C347.8,354.5,346.3,353.4,345,352.2z"/>
<path class="st10" d="M336.2,387.6c4.1,0,8.2-0.1,12.2,0c2.4,0,3.2,1.1,3.4,3.5c0.9,8.8-5.5,16.6-14.3,17.5s-16.6-5.5-17.5-14.3
	c-0.1-0.9-0.1-1.8,0-2.7c0-2.9,1-4,4-4C328,387.5,332.1,387.6,336.2,387.6L336.2,387.6z M325.3,393c0.1,2,0.8,3.9,1.9,5.5
	c2.6,3.4,6,5.1,10.1,4.4c4.2-0.5,7.6-3.5,8.7-7.6c0.4-1.3-0.2-2.3-1.5-2.3C338.4,392.9,332.1,392.9,325.3,393z"/>
<path class="st10" d="M360.4,382.7c2.3,1.5,4.7,2.8,6.9,4.4c1.1,0.7,1.4,2.2,0.6,3.3c-0.2,0.3-0.5,0.6-0.9,0.8
	c-0.6,0.5-1.4,0.5-2.1,0.2c-4.1-2.4-8.3-4.8-12.4-7.4c-1-0.8-1.2-2.3-0.4-3.3c0.2-0.2,0.4-0.4,0.6-0.5c3.9-2.4,7.9-4.8,11.9-7
	c1.3-0.6,2.8,0,3.3,1.3c0.5,1.2,0.1,2.5-1,3.2c-1.2,0.9-2.5,1.5-3.8,2.3C362.3,380.8,361,381.2,360.4,382.7z"/>
<path class="st10" d="M311.7,382.6c-1.8-2-3.8-2.6-5.4-3.8c-0.8-0.5-1.5-1-2.2-1.6c-0.8-0.9-0.8-2.2-0.1-3.1c0.5-0.8,1.5-1.2,2.4-1
	c0.4,0,0.7,0.1,1,0.3c3.7,2.1,7.4,4.2,10.9,6.5c2.1,1.4,2.2,3.6,0.1,4.9c-3.8,2.3-7.6,4.5-11.5,6.7c-1,0.5-2.3,0.2-2.9-0.8
	c-0.8-1.1-0.7-2.6,0.4-3.5c0.7-0.6,1.5-1.1,2.3-1.6C308.2,384.7,309.8,383.8,311.7,382.6z"/>
<path class="st12" d="M325.3,393c6.8-0.1,13-0.1,19.3,0c1.3,0,1.9,1,1.5,2.3c-1.1,4.1-4.6,7-8.7,7.6c-4.2,0.7-7.6-1.1-10.1-4.4
	C326.1,396.8,325.5,395,325.3,393z"/>
<g class="st13">
	<path class="st14" d="M108.3,97.8l8.8,2.3l-0.2,0.6c-0.9,3.4-2.2,7.9-3.3,11c-1.1,3-4,10.3-5.6,13.8c-0.2,0.4-0.4,0.8-0.6,1.2
		l-0.2,0.4l-8.5-4.1l0.2-0.3c0.2-0.5,0.7-1.4,1.1-2.4c0.8-1.7,1.7-3.5,2-4.3c0.2-0.6,0.6-1.4,0.9-2.3c0.6-1.3,1.2-2.8,1.6-4
		c0.8-2.1,2.8-9.6,3.3-11.3l0.1-0.4L108.3,97.8z M145.1,124c-1.8,2.3-3.7,4.8-5.5,7.1c-1-0.7-2.8-1.9-3.7-2.7
		c-0.5-0.5-2-2.1-3.5-3.5c-0.4-0.4-0.7-0.8-1-1.2c-0.7-0.9-1.5-1.8-2.1-2.7c-0.3-0.6-0.8-1.2-1.1-1.9c-0.4-0.7-0.8-1.2-1-2
		c-0.5-1.2-1.9-3.3-2.2-4.5c-0.2-0.8-0.7-1.5-0.8-2.4c-0.1-0.6-0.4-1.1-0.5-1.8c-0.3-1.1-0.7-2.1-0.9-3.2c-0.2-0.6-0.3-1-0.4-1.3
		c-0.1-0.2-0.1-0.7-0.3-1.8c1-0.3,3-0.8,4.8-1.1c1.4-0.3,3.1-0.7,4.1-0.9c0.2,0.7,0.4,1.6,0.5,2.3c1.1,4.7,2.1,7.2,3.1,9.3
		c0.6,1.3,2,3.6,2.8,4.8c0.8,1.2,1.8,2.4,3,3.4C141.7,121.1,143.1,122.5,145.1,124z M143.8,90.1c0.8,0.4,1.6,0.6,2.3,1.1
		c0.8,0.5,1.3,1.3,1.9,2.1c0.5,0.7,0.5,1.6,0.8,2.4c0.2,0.4,0.1,0.7,0.1,1.1c0,0.4,0.1,0.8,0,1.3c0,0.3-0.3,0.6-0.3,0.9
		c-0.2,0.7-0.2,1.6-0.7,2.1c-0.4,0.5-0.6,1.1-1.1,1.4c-0.4,0.3-0.7,0.6-1,0.8c-0.4,0.3-0.7,0.7-1.2,0.8c-0.5,0.2-1,0.3-1.5,0.5
		c-0.3,0.1-0.6,0.3-1,0.3c-0.6,0-1.3,0.1-1.9-0.1c-1-0.1-1.9-0.4-2.7-0.9c-0.6-0.5-1.2-0.9-1.9-1.3c-0.7-0.6-1.3-1.4-1.5-2.3
		c-0.2-0.6-0.4-1.1-0.5-1.7c-0.1-0.5-0.2-1-0.1-1.4c0.1-0.6,0.2-1.2,0.4-1.9c0.2-0.8,0.8-1.4,1-2.2c0.5-0.9,1.2-1.7,2.1-2.1
		c0.7-0.2,1.1-0.6,1.8-0.8c0.8-0.4,1.7-0.3,2.5-0.5c0.5-0.1,0.9,0.1,1.3,0.2S143.4,89.9,143.8,90.1z M142.2,94.5
		c-0.3-0.2-0.7-0.3-1-0.2c-0.3,0.1-0.7,0.1-0.9,0.3c-0.3,0.2-0.6,0.2-0.9,0.4c-0.5,0.4-0.7,1-0.9,1.5c-0.1,0.5-0.1,0.9,0,1.3
		c0.2,0.6,0.4,1.2,0.9,1.5c0.6,0.4,1.2,0.8,2,0.8c0.7-0.2,1.5-0.4,2.1-0.8c0.5-0.6,0.7-1.3,0.8-2.1c0.1-0.8-0.3-1.5-0.9-2.1
		C143,94.8,142.5,94.7,142.2,94.5z"/>
	<path class="st14" d="M189.8,118c-2.2,0-2.8-0.1-5.5-0.1c-1.7,0-2.8-0.1-4.6-0.1c-0.7,0-1.5,0-2.2,0c-0.2,1-0.6,2-0.7,3
		c-0.2,0.8-0.7,2.8-1,3.7c-0.5,1.9-1,3.7-1.7,5.6c-0.2,0.6-0.3,1.1-0.5,1.7c-0.6-0.2-1.7-0.6-2.5-0.8c-2.1-0.6-4.5-1.4-6.2-1.9
		c0.2-0.8,0.6-1.6,0.8-2.5c0.4-1.3,1.1-3.2,1.4-4.6c0.2-0.8,0.7-2.1,0.9-2.9c0.1-0.5,0.2-0.9,0.3-1.3c-0.9-0.1-1.8-0.1-2.3-0.1
		c-1.6,0-4.1-0.2-5.7-0.2c-2,0-2.7,0.1-4.8,0.1c0-0.8,0-1.6-0.1-2.4c-0.1-0.4,0.1-0.8,0.1-1.2c0-1.2-0.1-2.4,0.1-3.7
		c0-0.6-0.1-1.2,0-1.9c2.3,0,3.4,0.1,5.7,0.1c3.7-0.1,10.7,0,14.5,0c3.7,0.1,6.7,0.2,10.4,0.2c1.7,0.1,1.4,0.1,3.9,0.2
		C189.7,111.2,190,113.9,189.8,118z M161.4,103c-1.7-0.2-2.7-0.4-3.9-0.6c0.3-2.3,0.6-5.5,1.2-9c2,0.4,2.6,0.3,4.9,0.7
		c2,0.4,7.6,1,9.8,1.1c2.3,0.2,3.2,0.1,4.8,0.2c1.7,0.1,3-0.2,4.6-0.2c2.1,0.1,2.1-0.1,4.2-0.2c-0.1,0.8,0.2,3.2,0.2,3.6
		c-0.1,1.2,0.3,2.5,0.1,3.7c-0.1,0.6,0.2,1.2,0.1,1.8c-2.1,0.1-3.7,0.1-6.1,0.2c-3.8,0.2-5.7-0.1-9.5-0.3
		C168.1,103.8,165,103.5,161.4,103z"/>
	<path class="st14" d="M238.4,108.7c0,0-1,0.9-1.2,1.1l-0.3,0.3c-1.6,1.6-3.1,2.9-4.5,4c-0.1,0.2-0.3,0.3-0.5,0.4
		c-0.6,0.5-1.9,1.4-2.4,1.8c0,0.4,0,0.9,0,1.3c0.1,0.6,0,1.1-0.1,1.7c0,0.5-0.1,5,0,5.5l0.1,1.8c0.1,1.3,0.1,4.4,0.1,4.4l-7.9,0.1
		V128c-0.1-1.1-0.1-2.3-0.1-3.2c-0.1-1.4-0.1-3-0.1-4.6c-0.3,0.1-0.6,0.2-0.9,0.3c-0.6,0.2-2,0.6-2.7,0.7c-1.2,0.3-4.3,1-4.3,1
		c-0.3,0.1-1.6,0.4-1.6,0.4s-0.9-3.9-1-4.6c-0.2-0.8-0.7-3-0.7-3s5.2-1.1,5.7-1.2c0.3-0.1,0.7-0.2,1-0.3c0.4-0.1,0.8-0.2,1-0.3
		c1.1-0.3,1.6-0.5,2.6-0.9c0.4-0.2,0.8-0.4,1.2-0.7c0.5-0.3,0.9-0.6,1.4-0.8c0.9-0.4,1.9-1,2.8-1.8c0.5-0.5,1.1-0.9,1.7-1.3
		c0.2-0.1,2.7-2.5,3.1-2.8c0.4-0.5,0.8-0.8,1.2-1.2l0.6-0.6L238.4,108.7z"/>
	<path class="st14" d="M271.3,117c-0.8,0-1.3-0.1-2.2-0.1c-1.1,0-2.1,0.1-3.2,0.2c-0.8,0.1-1.3-0.1-2.1-0.1
		c-0.7,0.1-1.3-0.2-2.1-0.1c-1,0.1-1.3,0.1-2.3,0.1c0-0.8,0-1.6-0.1-2.3c0-0.4,0.1-0.8,0.1-1.2c-0.1-1.2-0.1-2.4,0-3.7
		c0-0.6-0.1-1.2,0-1.9c1.1,0.1,1.6,0.1,2.7,0.1c1.8-0.1,3.2-0.1,5-0.1c1.8,0,3.2,0.1,4.9,0.1c0.8,0.1,0.7,0.1,1.9,0.1
		c-0.1,2.3,0.1,5,0,9.1C272.9,117,272.6,117,271.3,117z M263.6,102.1c-0.8-0.2-0.7-0.2-2-0.6c0.7-2.2,1.2-4.9,2.3-8.8
		c1.1,0.3,1.5,0.4,2.8,0.8c0.9,0.2,1.5,0.4,2.4,0.7c1.1,0.3,2.3,0.5,3.5,0.8c0.8,0.2,1.5,0.5,2.3,0.7s1.4,0.5,2.3,0.7
		c1,0.3,1.5,0.4,2.5,0.6c-0.2,0.7-0.4,1.5-0.6,2.3c-0.1,0.4-0.3,0.8-0.4,1.2c-0.3,1.2-0.5,2.4-0.9,3.6c-0.2,0.6-0.3,1.2-0.5,1.8
		c-1.2-0.3-1.7-0.5-2.9-0.8c-2-0.5-3.6-0.9-5.5-1.3C267.1,103.2,265.6,102.7,263.6,102.1z M294.5,119.3c-0.8,0.2-2.1,0.8-2.8,1.2
		c-0.9,0.4-1.8,0.7-2.6,1.1c-1.9,1-3.8,2.7-5.4,4.1c-0.8,0.6-1.6,1.2-2.2,2c-1,1.1-2,2.2-2.8,3.4c-0.3,0.4-0.5,0.6-0.9,1.1
		c-0.8-0.6-1.7-1-2.5-1.6c-0.4-0.4-0.9-0.6-1.4-0.9c-1-0.7-2.9-1.9-3.7-2.5c0.5-1,1.4-2.4,2.1-3.5c0.4-0.6,0.9-1.1,1.4-1.6
		c1.2-1.3,2.7-2.5,4.1-3.7c0.5-0.5,1.2-0.9,1.8-1.3c1.5-1,3.8-3.2,5.5-3.8c0.8-0.4,1.5-0.7,2.2-1.1c0.7-0.4,1.4-0.5,2.1-0.7
		c0.8-0.3,1.5-0.7,2.2-0.9c0.1,0,0.9,2.5,0.9,2.7c0,0.2,0.5,1.7,0.6,1.9c0.1,0.2-0.1,0.3,0.1,0.4c0.2,0.3,0.5,0.7,0.6,1.1
		C293.9,117.5,294.3,118.4,294.5,119.3z"/>
	<path class="st14" d="M346.7,119.9c-0.2,2.3-0.4,5.5-0.7,9.1c-2.1-0.3-2.7-0.2-5.2-0.4c-2.1-0.2-10.5-0.7-12.9-0.7
		c-2.4,0-6.6,0.2-8.3,0.2c-1.7,0.1-3.1,0.4-4.8,0.4c-2.2,0.1-2.2,0.2-4.5,0.4c0-0.8-0.4-3.2-0.4-3.6c-0.1-1.2-0.5-2.4-0.4-3.7
		c0-0.6-0.3-1.2-0.2-1.8c2.2-0.3,3.8-0.3,6.3-0.6c2.3-0.2,5-0.3,7.7-0.3c0-0.5,0-1,0.1-2.1c0.2-2,0-3.9,0.1-5.9
		c0.1-0.7,0.1-2,0.1-3.1c-2.4,0-4.9-0.1-7.1-0.3c-0.5-0.1-1-0.1-1.5-0.2l0.9-9.1c1.5,0.1,2.8,0.4,4.4,0.4c1.7,0,5.2,0.2,7.6,0.2
		c2.4,0,10.1-0.5,12.2-0.7h0.1l0.9,9.1c-2.6,0.2-5.6,0.4-8.4,0.5c0,1.1,0,2.4-0.1,3.2c0,0.3,0.1,0.5,0.1,0.8
		c0.1,0.8-0.1,1.7-0.1,2.4c0,0.7,0,1.3-0.1,2c0,1.3,0.1,1.9,0.1,2.6c3.3,0.1,7.1,0.3,9.9,0.6C344.2,119.7,345.4,119.7,346.7,119.9z"
		/>
</g>
<g class="st13">
	<path class="st14" d="M136.4,179.8c-0.1,1.1-0.1,2.4-0.2,3.9c-0.2,3.1-0.3,6.9-0.4,9.6c-0.1,3.3-0.3,6-0.5,9.3
		c-0.1,1.5-0.1,1.2-0.3,3.4c-0.2-0.1-1,0.1-1.2,0.1c-2,0.1-2.6,0.1-5,0.2c-1.6,0.1-2.5,0.1-4.1,0.1c-2,0.1-1.4,0-3.4,0.2
		c-1.4,0.2-1.3,0.1-2.8,0.2c-1.4,0.1-3.8,0.1-5.2,0.2c-1.8,0.1-2.5,0.2-4.3,0.3c0-0.8-0.1-1.6-0.2-2.4c-0.1-0.4,0-0.8,0-1.2
		c-0.1-1.2-0.3-2.5-0.2-3.7c0-0.7-0.2-1.3-0.1-1.9c2.1-0.1,3.1-0.1,5.1-0.2c3.4-0.2,5.6-0.3,8.9-0.4c1.8-0.1,2.8-0.2,3.9-0.2
		c0-0.2,0-0.4,0.1-0.5c0.1-2,0.1-4,0.1-6.1c0-1.3,0.3-4.5,0.3-6.1c-0.4,0-0.7-0.1-1-0.1c-1.6-0.1-2.5-0.2-4.1-0.3
		c-2-0.1-3.8,0.1-5.8,0c-1.4,0-0.8-0.3-2.3-0.3c-1.4-0.1-2.6-0.3-4-0.3c-1.8-0.1-2.5-0.1-4.3-0.2c0.1-0.8,0.1-1.6,0.1-2.4
		c-0.1-0.4,0.1-0.8,0.1-1.2c0-1.2,0-2.5,0.2-3.7c0.1-0.6,0-1.2,0.1-1.9c2.1,0.1,3,0.2,5.1,0.3c3.3,0.1,6.2,0.3,9.6,0.5
		c3.3,0.2,3.9,0.2,7.2,0.4c1.4,0.1,6.5,0.2,8.7,0.4c-0.1,0.2-0.1,1.8-0.1,2C136.6,177.9,136.5,178.7,136.4,179.8z"/>
	<path class="st14" d="M160.3,195.5c-1.8-0.2-3-0.2-4.2-0.3c0.2-2.3,0.4-5.5,0.7-9.1c2.1,0.2,2.8,0.1,5.3,0.4
		c2.1,0.3,8.3,0.5,10.8,0.5c2.4,0,4.6,0.1,6.4,0c1.7,0,3.1-0.4,4.9-0.4c2.2,0,2.2-0.2,4.5-0.4c0,0.8,0.4,3.2,0.4,3.6
		c0.1,1.2,0.5,2.5,0.4,3.7c-0.1,0.6,0.3,1.2,0.2,1.8c-2.2,0.2-3.9,0.3-6.4,0.5c-4,0.4-7.4,0.1-11.4,0.2
		C167.6,195.9,164.2,195.8,160.3,195.5z"/>
	<path class="st14" d="M243.5,204.7c-0.3,0.3-0.5,0.5-0.8,0.7c-0.9,0.8-3.1,2.7-3.1,2.7l-1.6,1.2l-0.9,0.9c-0.4-0.6-2.1-2.2-2.5-2.8
		c-1.3-1.7-3.6-3.8-5.3-5.1c-1.2-1.2-3.3-2.8-4.6-3.7c-0.4,0.3-0.8,0.6-1.1,0.9c-0.6,0.5-1,1-1.6,1.5c-1.1,1-3.6,3.1-4.8,4.1
		c-1.3,1.2-2.7,2.1-3.5,2.8c-0.5-0.4-0.7-1-1.1-1.4c-1-0.8-1.6-1.9-2.4-2.8c-0.3-0.3-1.8-2.3-2.4-2.8c1.7-1.3,1.9-1.2,3.4-2.6
		c1.1-1.1,2.5-2.1,3.7-3.3c0.5-0.4,1-0.9,1.7-1.3c0.6-0.5,1.1-1.1,1.7-1.7c0.6-0.6,1.3-1.2,2-1.9c1.3-1.4,4.2-4.9,5.5-7
		c-1,0-1.9,0-2.8,0c-3.1,0-6.2-0.1-9.3-0.2c-1.3,0-1.9,0-3.9-0.1c0.2-2.3,0-5,0.2-9.1c1.9,0.1,3.1,0.1,5.3,0.2
		c1.4,0,2.9,0.1,4.4,0.2c1.9,0,3.7-0.1,5.6-0.1c1.3-0.1,3.8,0.2,5.2,0.2c1.3,0,2.4,0.2,3.8,0.2c1.7,0.1,2.2,0,3.9,0.1
		c0,0.8-0.1,1-0.1,1.8c0,0.2,0,0.4-0.1,0.6c0,0.3-0.2,1.4-0.2,1.6c-0.1,0.9-0.3,1.9-0.4,2.6c-0.1,0.7-0.8,1.8-1,2.4
		c-0.7,1.7-1.1,2.1-2,3.7c-0.3,0.7-0.8,1.2-1.2,1.9c-0.5,0.6-1.4,1.9-2.5,3.2c1.2,0.9,2.2,1.9,3.4,2.7c0.6,0.4,2.5,2.1,3,2.6
		c1.3,1.2,4.4,3.6,5.8,5.3l1.3,1.4L243.5,204.7z"/>
</g>
</svg>
