<?xml version="1.0" encoding="utf-8"?>
<!-- Generator: Adobe Illustrator 25.3.0, SVG Export Plug-In . SVG Version: 6.00 Build 0)  -->
<svg version="1.1" id="レイヤー_1" xmlns="http://www.w3.org/2000/svg" xmlns:xlink="http://www.w3.org/1999/xlink" x="0px"
	 y="0px" viewBox="0 0 454.4 502" style="enable-background:new 0 0 454.4 502;" xml:space="preserve">
<style type="text/css">
	.st0{fill:#FFFDFE;stroke:#3C0000;stroke-width:2.99;stroke-miterlimit:10;}
	.st1{fill:#B86A39;}
	.st2{fill:#A35428;}
	.st3{fill-rule:evenodd;clip-rule:evenodd;fill:#B86A39;}
	.st4{fill-rule:evenodd;clip-rule:evenodd;fill:#EEC26B;}
	.st5{fill-rule:evenodd;clip-rule:evenodd;fill:#B0602E;}
	.st6{fill-rule:evenodd;clip-rule:evenodd;fill:#BF774A;}
	.st7{fill-rule:evenodd;clip-rule:evenodd;fill:#BF784C;}
	.st8{fill-rule:evenodd;clip-rule:evenodd;fill:#CF906A;}
	.st9{fill:#3C0000;}
	.st10{fill-rule:evenodd;clip-rule:evenodd;fill:#3C0000;}
	.st11{fill:#EEC26B;}
	.st12{fill-rule:evenodd;clip-rule:evenodd;fill:#FFFFFF;}
	.st13{fill:#8C533D;}
	.st14{fill:#EFD3A5;}
	.st15{fill:#FFEBC8;}
	.st16{fill:#FFF6EE;}
	.st17{fill:#E2D7C2;}
	.st18{enable-background:new    ;}
	.st19{fill:#FFFFFF;}
</style>
<path class="st0" d="M68.5,452.9c-37-0.1-66.9-30-67-67V68.5c0.1-37,30-66.9,67-67h317.4c37,0.1,66.9,30,67,67v317.4
	c0,6.6-1,13.1-2.9,19.4c-0.6,2-1.3,4.1-2.1,6c-0.6,1.4-1.1,2.5-1.6,3.6c-1.2,2.6-2.6,5.1-4.2,7.4c-0.4,0.7-0.9,1.3-1.4,2
	c-0.9,1.2-1.7,2.3-2.6,3.4c-0.3,0.4-0.6,0.7-0.9,1c-0.9,1-1.8,2-2.8,3.1c-3.9,4.1-8.4,7.8-13.2,10.8c-0.8,0.5-1.6,1-2.4,1.4
	c-10.1,5.7-21.4,8.7-33,8.7L68.5,452.9z"/>
<path class="st1" d="M385.9,13.3H68.5C38,13.3,13.3,38,13.3,68.5v317.4c0,30.5,24.7,55.2,55.2,55.2h0h317.4c9.5,0,18.8-2.5,27.1-7.1
	c0.7-0.4,1.3-0.8,2-1.2c4-2.5,7.7-5.5,10.9-8.9c0.8-0.8,1.6-1.7,2.3-2.6l0.7-0.9c0.7-0.9,1.4-1.8,2.1-2.8c0.4-0.5,0.8-1.1,1.1-1.7
	c1.3-2,2.4-4,3.5-6.1c0.5-1,0.9-2,1.3-3c0.7-1.6,1.3-3.3,1.8-5c1.6-5.2,2.4-10.6,2.4-16V68.5C441.1,38,416.4,13.3,385.9,13.3z"/>
<path class="st2" d="M143.1,433.9c0,2.4,0.1,4.8,0.2,7.2h242.6c9.5,0,18.8-2.5,27.1-7.1c0.7-0.4,1.3-0.8,2-1.2
	c4-2.5,7.7-5.5,10.9-8.9c0.8-0.8,1.6-1.7,2.3-2.6l0.7-0.9c0.7-0.9,1.4-1.8,2.1-2.8c0.4-0.5,0.8-1.1,1.1-1.7c1.3-2,2.4-4,3.5-6.1
	c0.5-1,0.9-2,1.3-3c2.7-6.7,4.1-13.8,4.1-21v-158c-7.1-0.4-14.3-0.6-21.6-0.6C266.9,227.2,143.1,319.7,143.1,433.9z"/>
<path class="st3" d="M413.1,351.4c0,30.3,0,56.8-23.5,71.5c-14.6,16.1-105.6,16.1-120.3,0c-23.6-14.7-23.6-41.2-23.6-71.5
	c0-4.1,1.8-52.7,2.4-54.4c3.1-8.5,6.7-26,18.2-24.2c41.8,6.4,84.3,6.4,126.1,0c11.5-1.8,15,15.7,18.2,24.2
	C411.3,298.7,413.1,347.2,413.1,351.4L413.1,351.4z"/>
<path class="st4" d="M388,337.2c4.2,0,7.6-3.3,7.7-7.5c0-4.2-3.3-7.6-7.5-7.7c-4.2,0-7.6,3.3-7.7,7.5c0,0,0,0.1,0,0.1
	C380.5,333.8,383.8,337.2,388,337.2z"/>
<path class="st4" d="M396.4,361.3c2.2,0,4.1-1.8,4.1-4c0-2.2-1.8-4.1-4-4.1c-2.2,0-4.1,1.8-4.1,4c0,0,0,0.1,0,0.1
	C392.4,359.5,394.2,361.3,396.4,361.3z"/>
<path class="st4" d="M392.3,380.8c1.4,0,2.6-1.2,2.6-2.6c0-1.4-1.1-2.6-2.5-2.6c0,0,0,0,0,0c-1.4,0-2.6,1.2-2.6,2.6
	C389.8,379.6,390.9,380.7,392.3,380.8z"/>
<path class="st4" d="M273.4,329.8c3.1,0,5.5-2.5,5.5-5.5s-2.5-5.5-5.5-5.5c-3.1,0-5.5,2.5-5.5,5.5c0,0,0,0,0,0
	C267.9,327.3,270.3,329.8,273.4,329.8z"/>
<path class="st4" d="M260.2,340.1c1.9,0,3.5-1.5,3.5-3.4c0,0,0,0,0-0.1c0-1.9-1.5-3.5-3.5-3.5c-1.9,0-3.5,1.5-3.5,3.5
	C256.7,338.6,258.2,340.1,260.2,340.1C260.1,340.1,260.1,340.1,260.2,340.1L260.2,340.1z"/>
<path class="st4" d="M260.9,382.7c1.5,0,2.7-1.2,2.8-2.7c0,0,0,0,0,0c-0.1-1.5-1.4-2.7-2.9-2.6c-1.4,0.1-2.5,1.2-2.6,2.6
	C258.2,381.4,259.4,382.7,260.9,382.7L260.9,382.7z"/>
<path class="st4" d="M265.3,362.5c2.8,0,5.2-2.2,5.2-5c0,0,0-0.1,0-0.1c0-2.9-2.3-5.2-5.2-5.2c-2.9,0-5.2,2.3-5.2,5.2
	C260.2,360.3,262.5,362.5,265.3,362.5C265.3,362.5,265.3,362.5,265.3,362.5z"/>
<path class="st5" d="M413.1,351.4c0,30.3,0,56.8-23.5,71.5c-14.6,16.1-105.6,16.1-120.3,0c-0.4-0.9-0.4-1.8,1.1-1.8
	c35.5,7.6,92.2,14.5,116.6-9.4c24.1-23.6,16.1-89.5,14.6-93.6c-3-8.3-67.5-7.3-67.5-7.3l-3.3-33.1c20.7-0.1,41.3-1.7,61.7-4.8
	c11.5-1.8,15,15.7,18.2,24.2C411.3,298.7,413.1,347.2,413.1,351.4L413.1,351.4z"/>
<path class="st6" d="M269.3,422.9c-23.6-14.7-23.6-41.2-23.6-71.5c0-4.1,1.7-51,2.4-54.3l18.5,8.6c-3.2,0.5-10,1.7-10.1,4
	c-4.3,61.7,0,90.9,3,95.8C260.7,407.6,263,415.2,269.3,422.9L269.3,422.9z"/>
<path class="st7" d="M248,298.2c0-0.4,0.1-0.9,0.2-1.3c3.1-8.5,6.7-26,18.2-24.2c41.8,6.4,84.3,6.4,126.1,0
	c11.5-1.8,15,15.7,18.2,24.2c0.1,0.5,0.2,1.1,0.2,1.6C385.1,315.4,262,314.1,248,298.2z"/>
<path class="st8" d="M248,298.2c0-0.4,0.1-0.9,0.2-1.3c3.1-8.5,6.7-26,18.2-24.2c5.7,0.9,11.4,1.6,17.1,2.3
	c-17.4-0.2-20.5-1-26.5,14.4c-5.2,13.6,3,12.4,9.6,16.3C257.4,303.7,250.6,301.3,248,298.2L248,298.2z"/>
<path class="st9" d="M415.3,351.4c0,15.3,0,29.6-3.1,42.1c-3,12.7-9.1,23.4-21.3,31c-0.2,0.3-0.4,0.5-0.7,0.7
	c-8.7,7.9-34.8,11.8-60.8,11.8l0,0c-26,0-52.1-4-60.8-11.8c-0.3-0.2-0.5-0.5-0.8-0.7c-12.1-7.6-18.3-18.4-21.3-31s-3-26.9-3-42.1
	c0-2.4,0.6-27.9,1.3-39.3c0.4-8,0.9-14.9,1.3-15.8c0.5-1.3,1-2.7,1.5-4.3c3.2-9.7,7.5-23,19.1-21.3c20.8,3.2,41.8,4.8,62.8,4.8
	c21,0,41.9-1.6,62.7-4.8c11.5-1.7,15.9,11.6,19,21.3c0.5,1.6,1,3,1.5,4.3l0,0c0.4,1,0.9,7.8,1.3,15.8
	C414.6,323.5,415.2,348.9,415.3,351.4L415.3,351.4z M408.1,392.5c2.9-12,2.9-26,2.9-41.1c0-2.5-0.6-27.8-1.3-39
	c-0.5-7.7-0.8-14.1-1-14.6l0,0c-0.4-1.3-1-2.9-1.5-4.5c-2.7-8.2-6.4-19.6-14.3-18.4c-21,3.2-42.1,4.9-63.3,4.9
	c-21.2,0-42.4-1.7-63.4-4.9c-8-1.2-11.6,10.2-14.4,18.4c-0.5,1.6-1,3.2-1.5,4.5c-0.2,0.5-0.6,6.9-1.1,14.6
	c-0.6,11.3-1.2,36.6-1.2,39c0,15.1,0,29.1,2.9,41.1c2.8,11.8,8.4,21.6,19.7,28.6l0.4,0.4c0.2,0.2,0.4,0.5,0.6,0.6
	c7.9,7.2,32.8,10.8,57.9,10.8l0,0c25.1,0,50-3.6,57.9-10.8c0.2-0.2,0.5-0.4,0.7-0.6l0.5-0.4C399.6,414,405.2,404.2,408.1,392.5
	L408.1,392.5z"/>
<path class="st10" d="M237.6,313.8c-5.5,0-9.9-4.4-9.9-9.9c0-5.5,4.4-9.9,9.9-9.9h181.6c5.5,0,9.9,4.4,9.9,9.9
	c0,5.5-4.4,9.9-9.9,9.9H237.6z"/>
<path class="st11" d="M237.6,298h181.6c3.2,0,5.9,2.6,5.9,5.9v0c0,3.2-2.6,5.9-5.9,5.9H237.6c-3.2,0-5.9-2.6-5.9-5.9v0
	C231.7,300.6,234.4,298,237.6,298z"/>
<path class="st10" d="M329.5,317.1c7.3,0,13.3-5.9,13.3-13.3s-5.9-13.3-13.3-13.3c-7.3,0-13.3,5.9-13.3,13.3c0,0,0,0,0,0
	C316.2,311.2,322.2,317.1,329.5,317.1z"/>
<path class="st12" d="M334.9,295.6c3.6,2.5,4.8,7.8,2.4,12.3c-2.4,4.8-8,7-12.3,4.8l0.8-0.8c1.7-1.6,3.1-4.1,4.3-7.8
	C331.2,301.1,332.8,298.2,334.9,295.6L334.9,295.6z M323.6,311.9c-3.4-2.7-4.3-7.7-2.1-12.1c2.4-4.7,7.6-6.8,11.9-4.9
	c-2.1,2.6-3.7,5.5-4.8,8.7c-1.2,3.5-2.5,5.8-4.1,7.3C324.3,311.3,323.9,311.5,323.6,311.9L323.6,311.9z"/>
<path class="st13" d="M317.1,496.9h-20.8c1.4-5.7,7.2-9.3,12.9-7.9C313.1,490,316.1,493,317.1,496.9L317.1,496.9z"/>
<path class="st13" d="M364,496.9h-20.8c1.4-5.7,7.2-9.3,12.9-7.9C360,490,363.1,493,364,496.9L364,496.9z"/>
<path class="st14" d="M375,470.2c-0.2,0.2-0.5,0.2-0.7,0.1c-0.6-0.3-1.2-0.7-1.8-1.1c-5.7-4-13.3-4-19.1,0c-1.5,1.1-3.4,1.9-5.3,2.1
	c-0.5,0-1,0.1-1.5,0.1c-2.1,0.1-4.3-0.5-6.1-1.7l-0.8-0.5c-5.8-4-13.4-4-19.1,0l-0.7,0.5c-1.8,1.2-3.9,1.8-6.1,1.7
	c-0.5,0-1,0-1.5-0.1c-1.9-0.2-3.7-1-5.3-2.1c-5.7-4-13.3-4-19.1,0c-0.6,0.4-1.2,0.8-1.8,1.1c-0.2,0.1-0.5,0.1-0.7-0.1
	c-0.2-0.2-0.3-0.4-0.2-0.7l12.2-37.1l0.8-2.3c7.4,4.2,15.6,6.9,24.1,7.9l0.9,0.1h0.1c2.3,0.2,4.6,0.4,6.9,0.4c2.3,0,4.7-0.1,7-0.4
	l0.9-0.1l0,0c8.5-1,16.7-3.8,24.1-8l1,3.2l12,36.2C375.3,469.7,375.2,470,375,470.2z"/>
<path class="st9" d="M278.6,411.9c-2.3-2.1-7-12.8-7-12.8c-2.2-6.1-3.3-12.5-3.3-18.9c0-32.2,27.8-58.4,61.9-58.4S392,348,392,380.2
	c0,6.5-1.1,12.9-3.3,18.9c-2.2,6-6.1,13.3-5.9,13.6s0.9,2.1,0.9,2.1c0.6,1.4,0.9,3,0.9,4.5c0,3.3-1.4,6.5-3.8,8.8
	c1.4,3.1,3.5,9.3,1,14.4c-1.5,3-4.2,5.1-8.2,6.3L380,468c0.7,2.2,0.1,4.6-1.7,6.1c-1.8,1.5-4.3,1.8-6.4,0.8
	c-0.8-0.4-1.5-0.9-2.2-1.3c-4.1-2.9-9.6-2.9-13.7,0c-0.5,0.3-1,0.6-1.6,1l1.9,9.4c7.5,1.4,13,7.9,13,15.5c0,1.4-1.1,2.5-2.5,2.5
	c0,0,0,0,0,0h-26.5c-1.4,0-2.5-1.1-2.5-2.5c0,0,0,0,0,0c0-4.4,1.8-8.6,5-11.5l-2.6-12.6c-0.9-0.4-1.7-0.8-2.5-1.3l-0.8-0.5
	c-4.1-2.9-9.6-2.9-13.7,0l-0.8,0.5c-0.8,0.5-1.6,0.9-2.5,1.3l-2.6,12.6c3.2,3,5,7.2,5,11.5c0,1.4-1.1,2.5-2.5,2.5c0,0,0,0,0,0h-26.5
	c-1.4,0-2.5-1.1-2.5-2.5c0-7.7,5.6-14.4,13.2-15.6l1.9-9.4c-0.6-0.3-1.1-0.7-1.6-1c-4.1-2.9-9.6-2.9-13.7,0
	c-0.7,0.4-1.4,0.9-2.2,1.3c-2.8,1.5-6.3,0.4-7.7-2.5c-0.7-1.4-0.8-3-0.4-4.4l6.3-19.2c-3.9-1.2-6.7-3.2-8.1-6.3
	c-2.5-5.1-0.4-11.3,1-14.4c-2.4-2.3-3.8-5.5-3.8-8.8c0-1.6,0.3-3.1,0.9-4.5L278.6,411.9z M378.2,408.6c5.7-8.4,8.7-18.3,8.7-28.4
	c0-29.4-25.5-53.3-56.8-53.3s-56.8,23.9-56.8,53.3c0,10.1,3.1,20,8.8,28.4c5.9-3.2,13.3-1,16.5,4.9c1,1.8,1.5,3.8,1.5,5.8
	c0,1.8-0.4,3.7-1.2,5.3c7.3,4.5,15.5,7.4,24,8.4l0.7,0.1c4.3,0.4,8.7,0.4,13,0l0.9-0.1c8.5-1,16.7-3.9,24-8.4
	c-2.9-6.1-0.4-13.3,5.7-16.3C370.7,406.7,374.8,406.8,378.2,408.6L378.2,408.6z M379.5,419.3c0-3.9-3.2-7.1-7.1-7.1
	c-3.9,0-7.1,3.2-7.1,7.1c0,3.9,3.2,7.1,7.1,7.1C376.3,426.4,379.5,423.2,379.5,419.3C379.5,419.3,379.5,419.3,379.5,419.3
	L379.5,419.3z M377.2,440.3c1.4-3,0.2-7-0.8-9.5c-2.9,1-6,0.9-8.8-0.3l4.4,13.4C374.7,443.2,376.4,442,377.2,440.3L377.2,440.3z
	 M375,470.2c0.2-0.1,0.3-0.4,0.2-0.6l-13-39.4c-7.4,4.2-15.6,7-24.1,8l0,0l-0.9,0.1c-2.3,0.2-4.7,0.4-7,0.4c-2.3,0-4.6-0.1-6.9-0.4
	h-0.1l-0.9-0.1c-8.5-1-16.7-3.7-24.1-7.9l-13,39.4c-0.1,0.2,0,0.5,0.2,0.7c0.2,0.2,0.5,0.2,0.7,0.1c0.6-0.3,1.2-0.7,1.8-1.1
	c5.7-4,13.3-4,19.1,0c1.6,1.1,3.4,1.9,5.3,2.1c0.5,0,1,0.1,1.5,0.1c2.2,0.1,4.3-0.5,6.1-1.7l0.7-0.5c5.8-4,13.4-4,19.1,0l0.8,0.5
	c1.8,1.2,3.9,1.8,6.1,1.7c0.5,0,1,0,1.5-0.1c1.9-0.2,3.7-1,5.3-2.1c5.7-4,13.3-4,19.1,0c0.6,0.4,1.2,0.8,1.8,1.1
	C374.5,470.4,374.8,470.4,375,470.2z M343.3,496.9H364c-1.4-5.7-7.2-9.3-12.9-7.9C347.2,490,344.2,493,343.3,496.9L343.3,496.9z
	 M351.2,483.9l-1.6-7.6c-0.3,0-0.6,0.1-1,0.1c-0.7,0.1-1.4,0.1-2.1,0.1c-0.3,0-0.5,0-0.8,0l1.7,8.4
	C348.7,484.5,349.9,484.1,351.2,483.9L351.2,483.9z M296.3,496.9h20.8c-1.4-5.7-7.2-9.3-12.9-7.9C300.3,490,297.3,493,296.3,496.9z
	 M312.9,484.9l1.7-8.5c-0.3,0-0.5,0-0.8,0c-0.7,0-1.4,0-2.1-0.1c-0.3,0-0.7-0.1-1-0.1l-1.6,7.6C310.4,484,311.7,484.4,312.9,484.9
	L312.9,484.9z M295,419.3c0-3.9-3.2-7.1-7.1-7.1c-3.9,0-7.1,3.2-7.1,7.1c0,3.9,3.2,7.1,7.1,7.1C291.8,426.4,295,423.2,295,419.3
	C295,419.3,295,419.3,295,419.3z M288.2,443.9l4.4-13.4c-1.5,0.6-3.1,1-4.8,1c-1.4,0-2.8-0.2-4.1-0.7c-1.1,2.7-2.1,6.7-0.8,9.5
	C283.9,442,285.7,443.2,288.2,443.9L288.2,443.9z"/>
<path class="st15" d="M330.1,326.9c-31.3,0-56.8,23.9-56.8,53.3c0,6.9,1.4,13.6,4.1,19.9c1.3,3,2.8,5.8,4.6,8.5
	c0.9-0.5,1.9-0.9,2.9-1.1c1-0.2,1.9-0.4,2.9-0.4c6.3,0,11.6,4.8,12.1,11.1c0,0.3,0.1,0.7,0,1c0,1.8-0.4,3.7-1.2,5.3
	c7.3,4.5,15.5,7.4,24,8.4l0.7,0.1c4.3,0.4,8.7,0.4,13,0l0.9-0.1c8.5-1,16.7-3.9,24-8.4c-0.8-1.7-1.2-3.5-1.2-5.3c0-0.3,0-0.6,0-0.9
	c0.5-6.4,5.8-11.3,12.1-11.3c1.1,0,2.2,0.1,3.3,0.5c0.9,0.2,1.7,0.6,2.5,1c1.6-2.3,2.9-4.7,4.1-7.2c3.1-6.6,4.7-13.9,4.7-21.2
	C386.9,350.8,361.5,326.9,330.1,326.9z M318.3,333.3c1.4,0,2.5,1.1,2.5,2.5c0,7,5.1,13.1,12,14.3c-2.9-5.1-1.2-11.5,3.9-14.5
	c1.6-0.9,3.4-1.4,5.3-1.4c1.4,0,2.6,1.1,2.6,2.5c0,1.4-1.1,2.6-2.6,2.6l0,0c-3,0-5.5,2.5-5.5,5.5c0,2.3,1.5,4.4,3.7,5.2
	c1.3,0.5,2,1.9,1.5,3.3c-0.3,0.8-1,1.4-1.8,1.6c-1.5,0.4-3,0.6-4.6,0.6c-10.8,0-19.6-8.8-19.6-19.6
	C315.7,334.4,316.8,333.3,318.3,333.3C318.3,333.3,318.3,333.3,318.3,333.3z M317.2,391.4c1.4,0,2.5,1.1,2.5,2.5c0,0,0,0,0,0
	c0.1,2.2,2,3.8,4.1,3.7c2-0.1,3.6-1.7,3.7-3.7c0-1.4,1.1-2.6,2.5-2.6c1.4,0,2.6,1.1,2.6,2.6c0,2.2,1.8,3.9,3.9,3.9
	c2.2,0,3.9-1.8,3.9-3.9c-0.1-1.4,1-2.6,2.4-2.7c1.4-0.1,2.6,1,2.7,2.4c0,0.1,0,0.2,0,0.3c0,5-4,9-9,9c-2.5,0-4.8-1-6.5-2.8
	c-3.4,3.6-9.1,3.7-12.7,0.3c-1.8-1.7-2.8-4.1-2.8-6.5C314.6,392.6,315.7,391.4,317.2,391.4C317.2,391.4,317.2,391.4,317.2,391.4z
	 M298.1,391.9c-0.7-1.2-0.3-2.8,0.9-3.5l7.8-4.6l-7.8-4.6c-1.2-0.7-1.6-2.3-0.9-3.5s2.3-1.6,3.5-0.9l0,0l11.5,6.8
	c0.8,0.5,1.2,1.3,1.2,2.2c0,0.9-0.5,1.7-1.2,2.2l-11.5,6.8C300.4,393.5,298.8,393.1,298.1,391.9L298.1,391.9z M361.3,388.4
	c1.2,0.7,1.6,2.3,0.9,3.5c-0.5,0.8-1.3,1.3-2.2,1.3c-0.5,0-0.9-0.1-1.3-0.3l-11.5-6.8c-0.8-0.4-1.3-1.3-1.3-2.2
	c0-0.9,0.5-1.7,1.3-2.2l11.5-6.8c1.2-0.8,2.8-0.4,3.5,0.8c0.8,1.2,0.4,2.8-0.8,3.5c0,0-0.1,0.1-0.1,0.1l-7.8,4.6L361.3,388.4z"/>
<path class="st16" d="M300.1,421.9c0-0.3-0.1-0.5-0.1-0.8c-0.2,1.2-0.5,2.4-1.1,3.5l1,0.6c0.1-0.7,0.2-1.5,0.2-2.2
	C300.1,422.6,300.1,422.3,300.1,421.9z"/>
<path class="st16" d="M330.1,330.6c30.7,0,55.7,22.9,56.7,51.4c0-0.6,0-1.2,0-1.8c0-29.4-25.5-53.3-56.8-53.3s-56.8,23.9-56.8,53.3
	c0,0.6,0,1.2,0,1.9C274.4,353.5,299.5,330.6,330.1,330.6z"/>
<path class="st16" d="M360.2,422.1c0,0.3,0,0.6,0,0.9c0,0.8,0.1,1.5,0.2,2.2c0.3-0.2,0.7-0.4,1-0.6c-0.5-1.1-0.9-2.3-1.1-3.5
	C360.3,421.4,360.3,421.7,360.2,422.1z"/>
<path class="st15" d="M372.4,412.2c3.9,0,7.1,3.2,7.1,7.1c0,3.9-3.2,7.1-7.1,7.1c-3.9,0-7.1-3.2-7.1-7.1c0,0,0,0,0,0
	C365.3,415.4,368.5,412.2,372.4,412.2z"/>
<path class="st14" d="M376.4,430.8c1,2.5,2.2,6.5,0.8,9.5c-0.8,1.7-2.6,3-5.1,3.7l-4.4-13.4C370.4,431.7,373.6,431.8,376.4,430.8
	L376.4,430.8z"/>
<path class="st9" d="M362.2,375.8c0.7,1.2,0.3,2.8-0.9,3.5l-7.8,4.6l7.8,4.6c1.2,0.7,1.6,2.3,0.9,3.5c-0.5,0.8-1.3,1.3-2.2,1.3
	c-0.5,0-0.9-0.1-1.3-0.3l-11.5-6.8c-0.8-0.4-1.3-1.3-1.3-2.2c0-0.9,0.5-1.7,1.3-2.2l11.5-6.8C359.9,374.1,361.5,374.6,362.2,375.8
	C362.2,375.8,362.2,375.8,362.2,375.8z"/>
<path class="st15" d="M351.2,483.9c-1.3,0.2-2.5,0.5-3.7,1l-1.2-5.9l-0.5-2.6c0.3,0,0.5,0,0.8,0c0.7,0,1.4,0,2.1-0.1
	c0.4,0,0.6-0.1,1-0.1l0.5,2.3L351.2,483.9z"/>
<path class="st9" d="M343.1,391.4c1.4,0,2.5,1.1,2.5,2.5c0,0,0,0,0,0c0,5-4,9-9,9c-2.5,0-4.8-1-6.5-2.8c-3.4,3.6-9.1,3.7-12.7,0.3
	c-1.8-1.7-2.8-4.1-2.8-6.5c0-1.4,1.1-2.5,2.6-2.5c1.4,0,2.5,1.1,2.5,2.5c0.1,2.2,2,3.8,4.1,3.7c2-0.1,3.6-1.7,3.7-3.7
	c0-1.4,1.1-2.5,2.5-2.5c1.4,0,2.6,1.1,2.6,2.5c0,2.2,1.8,3.9,3.9,3.9c2.2,0,3.9-1.8,3.9-3.9C340.5,392.6,341.7,391.4,343.1,391.4
	C343.1,391.4,343.1,391.4,343.1,391.4z"/>
<path class="st9" d="M342,334.2c1.4,0,2.5,1.1,2.5,2.6c0,1.4-1.1,2.5-2.5,2.5c-3,0-5.5,2.4-5.5,5.5c0,2.3,1.5,4.4,3.7,5.2
	c1.3,0.5,2,1.9,1.5,3.3c-0.3,0.8-1,1.4-1.8,1.6c-1.5,0.4-3,0.6-4.6,0.6c-10.8,0-19.6-8.8-19.6-19.6c0-1.4,1.1-2.6,2.5-2.6
	c1.4,0,2.6,1.1,2.6,2.6c0,7,5.1,13.1,12,14.3c-2.9-5.1-1.2-11.5,3.9-14.5C338.3,334.7,340.1,334.2,342,334.2L342,334.2z"/>
<path class="st15" d="M314.6,476.5l-0.5,2.6l-1.2,5.9c-1.2-0.5-2.4-0.8-3.7-1l1.1-5.4l0.5-2.3c0.3,0.1,0.7,0.1,1,0.1
	c0.7,0.1,1.4,0.1,2.1,0.1C314.1,476.5,314.3,476.5,314.6,476.5z"/>
<path class="st9" d="M313.1,381.6c0.8,0.5,1.2,1.3,1.2,2.2c0,0.9-0.5,1.7-1.2,2.2l-11.5,6.8c-1.2,0.7-2.8,0.2-3.4-1.1
	c-0.6-1.2-0.2-2.6,0.9-3.3l7.8-4.6l-7.8-4.6c-1.2-0.7-1.6-2.3-0.9-3.5s2.3-1.6,3.5-0.9l0,0L313.1,381.6z"/>
<path class="st15" d="M287.9,412.2c3.9,0,7.1,3.2,7.1,7.1c0,3.9-3.2,7.1-7.1,7.1c-3.9,0-7.1-3.2-7.1-7.1c0,0,0,0,0,0
	C280.9,415.4,284,412.2,287.9,412.2z"/>
<path class="st14" d="M372.4,422.8c-3.2,0-6-2.2-6.8-5.3c-0.2,0.6-0.2,1.2-0.2,1.8c0,3.9,3.2,7.1,7.1,7.1c3.9,0,7.1-3.2,7.1-7.1
	c0-0.6-0.1-1.2-0.2-1.8C378.4,420.6,375.6,422.8,372.4,422.8z"/>
<path class="st14" d="M287.9,422.8c-3.2,0-6-2.2-6.8-5.3c-0.2,0.6-0.2,1.2-0.2,1.8c0,3.9,3.2,7.1,7.1,7.1c3.9,0,7.1-3.2,7.1-7.1
	c0-0.6-0.1-1.2-0.2-1.8C294,420.6,291.1,422.8,287.9,422.8z"/>
<path class="st14" d="M292.7,430.5l-4.4,13.4c-2.6-0.7-4.3-1.9-5.2-3.6c-1.4-2.8-0.3-6.9,0.8-9.5c1.3,0.5,2.7,0.7,4.1,0.7
	C289.6,431.5,291.2,431.2,292.7,430.5z"/>
<circle class="st14" cx="290.9" cy="400.2" r="7"/>
<circle class="st14" cx="369.4" cy="400.2" r="7"/>
<path class="st14" d="M285,407.5c-1,0.2-2,0.6-2.9,1.1c-1.8-2.7-3.3-5.5-4.6-8.5C279.8,402.6,282.3,405.1,285,407.5z"/>
<path class="st14" d="M360.2,419.3c0,1.8,0.4,3.7,1.2,5.3c-7.3,4.5-15.5,7.4-24,8.4l-0.9,0.1c-4.3,0.4-8.7,0.4-13,0l-0.7-0.1
	c-8.5-1-16.7-3.9-24-8.4c0.8-1.7,1.2-3.5,1.2-5.3c0-0.3,0-0.7,0-1c9.2,5.2,19.5,8,30.1,8.1c10.5-0.1,20.9-2.8,30.1-8
	C360.2,418.7,360.2,419,360.2,419.3z"/>
<path class="st14" d="M375.7,407.6c2.3-2,4.5-4.1,6.6-6.2c-1.2,2.5-2.5,4.9-4.1,7.2C377.4,408.2,376.6,407.8,375.7,407.6z"/>
<path class="st17" d="M363.2,433.3c-9.7,6.8-21.2,10.5-33,10.6c-11.9,0-23.5-4-32.7-11.5l0.8-2.3c7.4,4.2,15.6,6.9,24.1,7.9l0.9,0.1
	h0.1c2.3,0.2,4.6,0.4,6.9,0.4c2.3,0,4.7-0.1,7-0.4l0.9-0.1l0,0c8.5-1,16.7-3.8,24.1-8L363.2,433.3z"/>
<path class="st14" d="M313.8,476.5c0.3,0,0.5,0,0.8,0l-0.5,2.6h-0.3c-0.5,0-1,0-1.5-0.1c-0.7-0.1-1.4-0.2-2-0.4l0.5-2.3
	c0.3,0.1,0.7,0.1,1,0.1C312.4,476.5,313.1,476.5,313.8,476.5z"/>
<path class="st14" d="M350.1,478.5c-0.6,0.2-1.3,0.4-2,0.4c-0.5,0-1,0.1-1.5,0.1h-0.3l-0.5-2.6c0.3,0,0.5,0,0.8,0
	c0.7,0,1.4,0,2.1-0.1c0.4,0,0.6-0.1,1-0.1L350.1,478.5z"/>
<g class="st18">
	<path class="st19" d="M106,105.2c-0.5,2.8-1.3,6.2-2,9c-0.2,1.5-0.9,2.8-1.5,4.1c-0.8,2-2.2,3.6-3.7,5.1c-0.7,0.6-1.2,1.5-1.9,2.1
		c-2.8,2.8-6.4,5.2-9.9,7.1c-0.5,0.3-1,0.6-1.6,0.9c-0.6-0.9-1.1-1.9-1.7-2.9c-1-1.6-1.9-3.4-2.9-5c0.5-0.4,1.1-0.7,1.7-1
		c0.8-0.4,1.4-0.9,2.2-1.3c1.7-1,3.3-1.9,4.7-3.3c1.6-1.8,3.3-3.3,4.5-5.3c1.1-1.8,1.5-3.8,2-5.9c0.2-0.5,0.3-1.1,0.3-1.7
		c-3.2,0.2-6.1-0.1-9.5,0c-4,0-7.5-0.1-11.4-0.5c-1.7-0.2-2.9-0.2-4.2-0.3c0.2-2.3,0.3-5.5,0.7-9.1c2.1,0.2,2.7,0.1,5.3,0.4
		c2.1,0.3,8.3,0.5,10.7,0.5c2.4,0,4.7,0.1,6.4,0c1.8,0,4.3,0.1,6.1,0c2.1-0.1,5.5,0,6.4,0C106.6,98.6,106.5,103,106,105.2z
		 M110.2,88.9c0,0.3,0.1,0.6,0.1,0.8c-0.1,1-0.4,1.9-0.8,2.7c-0.2,0.5-0.7,0.8-1,1.1c-0.4,0.4-0.8,0.7-1.3,0.8
		c-0.8,0.1-1.6,0.2-2.3,0.3c-0.4,0-0.7,0-1-0.2c-0.6-0.3-1.2-0.6-1.8-0.9c-0.3-0.2-0.7-0.4-0.8-0.7c-0.2-0.3-0.5-0.5-0.6-0.9
		c-0.2-0.5-0.4-1.1-0.5-1.7c-0.1-0.5,0.1-0.9,0.1-1.4c-0.1-0.4,0.2-0.7,0.3-1c0.3-0.8,0.7-1.5,1.4-2c0.3-0.3,0.7-0.4,1-0.6
		c0.7-0.6,1.7-0.7,2.5-0.7c0.7,0.1,1.3,0.2,1.9,0.5c0.2,0.1,1.2,0.8,1.6,1.2c0.4,0.5,0.9,0.9,1.1,1.4
		C110.1,88.1,110.3,88.5,110.2,88.9z M111.5,98.6c-0.1-0.1-0.3-0.2-0.4-0.3c-0.4-0.4-0.6-0.8-0.8-1.3c-0.1-0.3,0-0.6-0.1-0.8
		c0.1-0.3,0.1-0.6,0.2-0.8c0.3-0.4,0.5-0.7,0.8-1c0.2-0.2,0.3-0.3,0.5-0.4c0.3-0.1,0.7-0.2,1-0.3c0.2-0.1,0.4-0.1,0.6-0.1
		c0.2,0.1,0.4,0.1,0.6,0.1c0.3,0.1,0.6,0.3,0.8,0.5c0.2,0.2,0.4,0.4,0.6,0.6c0.2,0.1,0.2,0.3,0.3,0.5c0.2,0.4,0.3,0.8,0.3,1.2
		c-0.1,0.3-0.2,0.5-0.2,0.7c0,0.5-0.4,0.9-0.7,1.2c-0.3,0.3-0.6,0.5-0.9,0.6c-0.1,0-0.8,0.2-1.1,0.1c-0.3-0.1-0.7,0-1-0.1
		C111.9,98.8,111.7,98.7,111.5,98.6z"/>
	<path class="st19" d="M128.1,119.7c-1.8-0.2-3-0.2-4.2-0.3c0.2-2.3,0.4-5.5,0.7-9.1c2.1,0.2,2.8,0.1,5.3,0.4
		c2.1,0.3,8.3,0.5,10.8,0.5c2.4,0,4.6,0.1,6.4,0c1.7,0,3.1-0.4,4.9-0.4c2.2,0,2.2-0.2,4.5-0.4c0,0.8,0.4,3.2,0.4,3.6
		c0.1,1.2,0.5,2.5,0.4,3.7c-0.1,0.6,0.3,1.2,0.2,1.8c-2.2,0.2-3.9,0.3-6.4,0.5c-4,0.4-7.4,0.1-11.4,0.2
		C135.5,120.1,132.1,120,128.1,119.7z"/>
	<path class="st19" d="M209,114.6c0,0-0.8,2.5-1,3.1c-0.4,0.7-0.7,1.5-0.9,2.3c-0.5,1.8-4.2,7-7.1,9.8c-0.5,0.5-1,1.1-1.6,1.6
		c-1.5,1.1-1.4,1.4-4.7,3.6l-5.5-7.5c2.6-1.7,3.3-2.7,4-3.4c1.6-1.2,4-3.1,5.8-6.5c-2.6-0.1-5.5-0.1-5.9-0.1
		c-1.7-0.1-2.4,0.1-4.1,0.1c-1.2,0.1-2.4-0.2-3.6-0.2c-1.2,0-4.6-0.3-5.8-0.3c-1.5,0-2.4-0.1-4-0.1c0.1-0.8,0.1-1.6,0-2.4
		c0-0.4,0.1-0.8,0.1-1.2c0-1.2-0.1-2.4,0.1-3.7c0.1-0.6,0-1.2,0.1-1.9c1.8,0.1,3,0.2,4.7,0.2c2.8,0,7.8,0.1,10.7,0.2
		c2.8,0.1,11.9,0.3,14.7,0.4c1.2,0.1,3,0.1,4.8,0.1C209.6,109.2,209.7,111.3,209,114.6z M189.4,103.3c-2.5-0.1-4.7-0.2-6.9-0.5
		l0.9-9.1c2.4,0.3,5.7,0.6,7.4,0.6c2.2,0.1,3,0.1,4.5,0.1s2.8-0.3,4.3-0.3c2,0.1,2-0.2,4-0.3c0,0.8,0.3,3.2,0.3,3.6
		c0,1.2,0.3,2.5,0.2,3.7c0,0.6,0.3,1.2,0.2,1.8c-2,0.2-3.5,0.2-5.7,0.3C194.8,103.6,193,103.4,189.4,103.3z"/>
	<path class="st19" d="M233.7,115.2c-1-0.5-2-1-2.9-1.6c-0.4-0.3-0.9-0.6-1.1-1c-0.4-0.7-1-1.2-1.3-2c-0.3-0.7-0.5-1.4-0.7-2.1
		c-0.1-0.2-0.2-1.1-0.2-1.3c0-0.9,0.1-1.7,0.1-2.6c0.6-1.9,1.3-3.8,3-5c0.6-0.6,1.5-0.8,2.2-1.3c1-0.9,2.3-1.1,3.6-1.2
		c1.5-0.2,3,0.2,4.4,0.7c0.3,0.1,1.2,0.8,1.4,1c0.4,0.4,0.8,0.6,1.2,0.9c0.8,1.1,2,1.9,2.5,3.2c0.3,0.7,0.5,1.4,0.4,2.2
		c0.1,0.8,0.3,1.6,0.1,2.3c-0.3,1.8-0.9,3.6-2,5.1c-0.9,0.9-1.8,1.9-2.9,2.5c-0.5,0.3-1,0.3-1.6,0.4c-1.4,0.3-3,0.4-4.5,0.4
		C234.9,115.8,234.3,115.4,233.7,115.2z M261.5,122.1c-1.4,0.6-1.8,0.8-3.5,1.5c-1.1,0.5-1.8,0.8-2.9,1.2c-1.4,0.6-6.1,2.8-7.5,3.5
		c-0.9,0.5-3.4,1.4-4.4,1.9s-1.9,0.7-2.8,1.1c-1.2,0.6-1.7,0.8-3,1.4c-0.3-0.7-0.6-1.4-1-2.1c-0.2-0.4-0.3-0.8-0.4-1.1
		c-0.6-1.1-1.1-2.2-1.6-3.4c-0.2-0.6-0.5-1.1-0.7-1.7c1.4-0.7,2.1-0.9,3.6-1.6c2.3-1.1,5.9-2.7,8.2-3.7c2.3-1,7.6-3.3,9.9-4.3
		c1-0.5,0.9-0.4,2.4-1C258.6,115.9,259.9,118.3,261.5,122.1z"/>
	<path class="st19" d="M290.9,118.9c-0.8,0-1.3-0.1-2.2-0.1c-1.1,0-2.1,0.1-3.2,0.2c-0.8,0.1-1.3-0.1-2.1-0.1
		c-0.7,0.1-1.3-0.2-2.1-0.1c-1,0.1-1.3,0.1-2.3,0.1c0-0.8,0-1.6-0.1-2.3c0-0.4,0.1-0.8,0.1-1.2c-0.1-1.2-0.1-2.4,0-3.7
		c0-0.6-0.1-1.2,0-1.9c1.1,0.1,1.6,0.1,2.7,0.1c1.8-0.1,3.2-0.1,5-0.1c1.8,0,3.2,0.1,4.9,0.1c0.8,0.1,0.7,0.1,1.9,0.1
		c-0.1,2.3,0.1,5,0,9.1C292.5,118.9,292.2,118.9,290.9,118.9z M283.3,104c-0.8-0.2-0.7-0.2-2-0.6c0.7-2.2,1.2-4.9,2.3-8.8
		c1.1,0.3,1.5,0.4,2.8,0.8c0.9,0.2,1.5,0.4,2.4,0.7c1.1,0.3,2.3,0.5,3.5,0.8c0.8,0.2,1.5,0.5,2.3,0.7s1.4,0.5,2.3,0.7
		c1,0.3,1.5,0.4,2.5,0.6c-0.2,0.7-0.4,1.5-0.6,2.3c-0.1,0.4-0.3,0.8-0.4,1.2c-0.3,1.2-0.5,2.4-0.9,3.6c-0.2,0.6-0.3,1.2-0.5,1.8
		c-1.2-0.3-1.7-0.5-2.9-0.8c-2-0.5-3.6-0.9-5.5-1.3C286.7,105,285.2,104.6,283.3,104z M314.2,121.2c-0.8,0.2-2.1,0.8-2.8,1.2
		c-0.9,0.4-1.8,0.7-2.6,1.1c-1.9,1-3.8,2.7-5.4,4.1c-0.8,0.6-1.6,1.2-2.2,2c-1,1.1-2,2.2-2.8,3.4c-0.3,0.4-0.5,0.6-0.9,1.1
		c-0.8-0.6-1.7-1-2.5-1.6c-0.4-0.4-0.9-0.6-1.4-0.9c-1-0.7-2.9-1.9-3.7-2.5c0.5-1,1.4-2.4,2.1-3.5c0.4-0.6,0.9-1.1,1.4-1.6
		c1.2-1.3,2.7-2.5,4.1-3.7c0.5-0.5,1.2-0.9,1.8-1.3c1.5-1,3.8-3.2,5.5-3.8c0.8-0.4,1.5-0.7,2.2-1.1c0.7-0.4,1.4-0.5,2.1-0.7
		c0.8-0.3,1.5-0.7,2.2-0.9c0.1,0,0.9,2.5,0.9,2.7c0,0.2,0.5,1.7,0.6,1.9c0.1,0.2-0.1,0.3,0.1,0.4c0.2,0.3,0.5,0.7,0.6,1.1
		C313.5,119.4,313.9,120.2,314.2,121.2z M314.4,99.7c0,0.3,0.1,0.6,0.1,0.9c-0.1,0.9-0.3,1.9-0.8,2.7c-0.2,0.5-0.6,0.8-1,1.2
		c-0.4,0.4-0.8,0.7-1.3,0.8c-0.8,0.2-1.6,0.3-2.3,0.3c-0.4,0.1-0.7,0.1-1-0.1c-0.6-0.3-1.2-0.6-1.8-0.9c-0.3-0.2-0.7-0.4-0.8-0.7
		c-0.2-0.3-0.5-0.6-0.6-0.9c-0.2-0.5-0.4-1.1-0.5-1.7c-0.1-0.5,0.1-1,0.1-1.4c-0.1-0.4,0.2-0.7,0.3-1c0.3-0.8,0.7-1.5,1.4-2
		c0.3-0.3,0.7-0.4,1-0.6c0.7-0.6,1.7-0.7,2.6-0.7c0.6,0.1,1.2,0.2,1.9,0.5c0.1,0.1,1.2,0.8,1.5,1.2c0.4,0.5,0.9,0.8,1.1,1.5
		C314.3,99,314.4,99.3,314.4,99.7z M315.7,109.4c-0.1-0.1-0.3-0.2-0.4-0.3c-0.4-0.4-0.6-0.9-0.7-1.3c-0.1-0.3-0.1-0.6-0.1-0.9
		c0.1-0.3,0.1-0.6,0.3-0.8c0.2-0.3,0.5-0.7,0.8-1c0.1-0.1,0.2-0.3,0.4-0.3c0.3-0.1,0.7-0.2,1-0.3c0.2-0.1,0.4-0.2,0.6-0.1
		c0.2,0.1,0.4,0.1,0.6,0.1c0.3,0.1,0.6,0.3,0.8,0.4c0.2,0.2,0.4,0.4,0.6,0.6c0.2,0.1,0.2,0.3,0.3,0.5c0.2,0.4,0.3,0.9,0.2,1.3
		c-0.1,0.2-0.2,0.4-0.2,0.7c-0.1,0.5-0.4,0.9-0.7,1.2c-0.3,0.2-0.6,0.4-0.9,0.6c-0.1,0-0.8,0.2-1.1,0.1s-0.6,0-0.9-0.1
		C316,109.7,315.8,109.6,315.7,109.4z"/>
	<path class="st19" d="M361.3,123.8l-0.2,1.9c-0.1,1.4-0.5,5.9-0.5,5.9s-1.9-0.2-2.3-0.2c-0.5-0.1-1.1-0.1-2-0.2
		c-1.4-0.2-7.3-0.5-9-0.5c-1,0-2.5,0.1-3.8,0.1c-0.8,0-1.6,0.1-2,0.1c-0.6,0-1.1,0.1-1.7,0.1c-0.6,0.1-1.1,0.2-1.7,0.2
		c-0.9,0.1-1.2,0.1-1.7,0.2c-0.4,0.1-0.7,0.1-1.3,0.2l-0.8,0.1c0,0-0.1-2-0.2-2.5c-0.1-0.4-0.1-0.7-0.1-0.8c0-0.3-0.1-0.6-0.1-1
		c-0.1-0.5-0.3-3.6-0.3-3.6l0.7-0.1c0.9-0.1,1.7-0.2,2.6-0.2c0.6-0.1,1.1-0.1,1.9-0.2c1.2-0.1,2.7-0.2,4.7-0.2c0-0.2,0-0.5,0-0.8
		c0.1-0.7,0.1-1.5,0.1-2.2c0-0.6,0-1.2,0-1.8c0.1-0.3,0.1-0.8,0.1-1.4c-1.3,0-2.8-0.1-4.3-0.2l-1.7-0.2l0.8-7.8c0,0,1.6,0.2,2.1,0.2
		c0.6,0.1,1.1,0.1,1.7,0.1c0.5,0,1.2,0.1,1.9,0.1c1.1,0.1,2.4,0.1,3.4,0.1c1.7,0,7-0.4,8.4-0.5l0.7-0.1l0.8,7.8l-0.7,0.1
		c-1.2,0.1-3.2,0.3-5.2,0.3c-0.1,0.6-0.1,1.2-0.1,1.6c0,0.1,0.1,1.3,0.1,1.7c0,0.2,0,0.4,0,0.6c0,0.5-0.1,0.9-0.1,1.4s0,0.8,0,1.1
		c2.1,0.1,4.5,0.2,6.3,0.4c0.5,0.1,0.9,0.1,1.3,0.1c0.6,0.1,1,0.1,1.6,0.2L361.3,123.8z"/>
</g>
<g class="st18">
	<path class="st19" d="M76.2,177.3l8.8,2.3l-0.2,0.6c-0.9,3.4-2.2,7.9-3.3,11c-1.1,3-4,10.3-5.6,13.8c-0.2,0.4-0.4,0.8-0.6,1.2
		l-0.2,0.4l-8.5-4.1l0.2-0.3c0.2-0.5,0.7-1.4,1.1-2.4c0.8-1.7,1.7-3.5,2-4.3c0.2-0.6,0.6-1.4,0.9-2.3c0.6-1.3,1.2-2.8,1.6-4
		c0.8-2.1,2.8-9.6,3.3-11.3l0.1-0.4L76.2,177.3z M113,203.6c-1.8,2.3-3.7,4.8-5.5,7.1c-1-0.7-2.8-1.9-3.7-2.7
		c-0.5-0.5-2-2.1-3.5-3.5c-0.4-0.4-0.7-0.8-1-1.2c-0.7-0.9-1.5-1.8-2.1-2.7c-0.3-0.6-0.8-1.2-1.1-1.9c-0.4-0.7-0.8-1.2-1-2
		c-0.5-1.2-1.9-3.3-2.2-4.5c-0.2-0.8-0.7-1.5-0.8-2.4c-0.1-0.6-0.4-1.1-0.5-1.8c-0.3-1.1-0.7-2.1-0.9-3.2c-0.2-0.6-0.3-1-0.4-1.3
		c-0.1-0.2-0.1-0.7-0.3-1.8c1-0.3,3-0.8,4.8-1.1c1.4-0.3,3.1-0.7,4.1-0.9c0.2,0.7,0.4,1.6,0.5,2.3c1.1,4.7,2.1,7.2,3.1,9.3
		c0.6,1.3,2,3.6,2.8,4.8c0.8,1.2,1.8,2.4,3,3.4C109.5,200.6,111,202,113,203.6z M111.6,169.7c0.8,0.4,1.6,0.6,2.3,1.1
		c0.8,0.5,1.3,1.3,1.9,2.1c0.5,0.7,0.5,1.6,0.8,2.4c0.2,0.4,0.1,0.7,0.1,1.1c0,0.4,0.1,0.8,0,1.3c0,0.3-0.3,0.6-0.3,0.9
		c-0.2,0.7-0.2,1.6-0.7,2.1c-0.4,0.5-0.6,1.1-1.1,1.4c-0.4,0.3-0.7,0.6-1,0.8c-0.4,0.3-0.7,0.7-1.2,0.8c-0.5,0.2-1,0.3-1.5,0.5
		c-0.3,0.1-0.6,0.3-1,0.3c-0.6,0-1.3,0.1-1.9-0.1c-1-0.1-1.9-0.4-2.7-0.9c-0.6-0.5-1.2-0.9-1.9-1.3c-0.7-0.6-1.3-1.4-1.5-2.3
		c-0.2-0.6-0.4-1.1-0.5-1.7c-0.1-0.5-0.2-1-0.1-1.4c0.1-0.6,0.2-1.2,0.4-1.9c0.2-0.8,0.8-1.4,1-2.2c0.5-0.9,1.2-1.7,2.1-2.1
		c0.7-0.2,1.1-0.6,1.8-0.8c0.8-0.4,1.7-0.3,2.5-0.5c0.5-0.1,0.9,0.1,1.3,0.2S111.2,169.4,111.6,169.7z M110,174.1
		c-0.3-0.2-0.7-0.3-1-0.2c-0.3,0.1-0.7,0.1-0.9,0.3c-0.3,0.2-0.6,0.2-0.9,0.4c-0.5,0.4-0.7,1-0.9,1.5c-0.1,0.5-0.1,0.9,0,1.3
		c0.2,0.6,0.4,1.2,0.9,1.5c0.6,0.4,1.2,0.8,2,0.8c0.7-0.2,1.5-0.4,2.1-0.8c0.5-0.6,0.7-1.3,0.8-2.1c0.1-0.8-0.3-1.5-0.9-2.1
		C110.8,174.4,110.4,174.2,110,174.1z"/>
	<path class="st19" d="M130.1,192.8c-1-0.5-2-1-2.9-1.6c-0.4-0.3-0.9-0.6-1.1-1c-0.4-0.7-1-1.2-1.3-2c-0.3-0.7-0.5-1.4-0.7-2.1
		c-0.1-0.2-0.2-1.1-0.2-1.3c0-0.9,0.1-1.7,0.1-2.6c0.6-1.9,1.3-3.8,3-5c0.6-0.6,1.5-0.8,2.2-1.3c1-0.9,2.3-1.1,3.6-1.2
		c1.5-0.2,3,0.2,4.4,0.7c0.3,0.1,1.2,0.8,1.4,1c0.4,0.4,0.8,0.6,1.2,0.9c0.8,1.1,2,1.9,2.5,3.2c0.3,0.7,0.5,1.4,0.4,2.2
		c0.1,0.8,0.3,1.6,0.1,2.3c-0.3,1.8-0.9,3.6-2,5.1c-0.9,0.9-1.8,1.9-2.9,2.5c-0.5,0.3-1,0.3-1.6,0.4c-1.4,0.3-3,0.4-4.5,0.4
		C131.3,193.5,130.7,193.1,130.1,192.8z M157.9,199.7c-1.4,0.6-1.8,0.8-3.5,1.5c-1.1,0.5-1.8,0.8-2.9,1.2c-1.4,0.6-6.1,2.8-7.5,3.5
		c-0.9,0.5-3.4,1.4-4.4,1.9c-1,0.5-1.9,0.7-2.8,1.1c-1.2,0.6-1.7,0.8-3,1.4c-0.3-0.7-0.6-1.4-1-2.1c-0.2-0.4-0.3-0.8-0.4-1.1
		c-0.6-1.1-1.1-2.2-1.6-3.4c-0.2-0.6-0.5-1.1-0.7-1.7c1.4-0.7,2.1-0.9,3.6-1.6c2.3-1.1,5.9-2.7,8.2-3.7c2.3-1,7.6-3.3,9.9-4.3
		c1-0.5,0.9-0.4,2.4-1C155.1,193.6,156.3,196,157.9,199.7z"/>
	<path class="st19" d="M207.8,181.7c-0.1,1.1-0.1,2.4-0.2,3.9c-0.2,3.1-0.3,6.9-0.4,9.6c-0.1,3.3-0.3,6-0.5,9.3
		c-0.1,1.5-0.1,1.2-0.3,3.4c-0.2-0.1-1,0.1-1.2,0.1c-2,0.1-2.6,0.1-5,0.2c-1.6,0.1-2.5,0.1-4.1,0.1c-2,0.1-1.4,0-3.4,0.2
		c-1.4,0.2-1.3,0.1-2.8,0.2c-1.4,0.1-3.8,0.1-5.2,0.2c-1.8,0.1-2.5,0.2-4.3,0.3c0-0.8-0.1-1.6-0.2-2.4c-0.1-0.4,0-0.8,0-1.2
		c-0.1-1.2-0.3-2.5-0.2-3.7c0-0.7-0.2-1.3-0.1-1.9c2.1-0.1,3.1-0.1,5.1-0.2c3.4-0.2,5.6-0.3,8.9-0.4c1.8-0.1,2.8-0.2,3.9-0.2
		c0-0.2,0-0.4,0.1-0.5c0.1-2,0.1-4,0.1-6.1c0-1.3,0.3-4.5,0.3-6.1c-0.4,0-0.7-0.1-1-0.1c-1.6-0.1-2.5-0.2-4.1-0.3
		c-2-0.1-3.8,0.1-5.8,0c-1.4,0-0.8-0.3-2.3-0.3c-1.4-0.1-2.6-0.3-4-0.3c-1.8-0.1-2.5-0.1-4.3-0.2c0.1-0.8,0.1-1.6,0.1-2.4
		c-0.1-0.4,0.1-0.8,0.1-1.2c0-1.2,0-2.5,0.2-3.7c0.1-0.6,0-1.2,0.1-1.9c2.1,0.1,3,0.2,5.1,0.3c3.3,0.1,6.2,0.3,9.6,0.5
		c3.3,0.2,3.9,0.2,7.2,0.4c1.4,0.1,6.5,0.2,8.7,0.4c-0.1,0.2-0.1,1.8-0.1,2C208,179.7,207.9,180.6,207.8,181.7z"/>
	<path class="st19" d="M231.7,197.3c-1.8-0.2-3-0.2-4.2-0.3c0.2-2.3,0.4-5.5,0.7-9.1c2.1,0.2,2.8,0.1,5.3,0.4
		c2.1,0.3,8.3,0.5,10.8,0.5c2.4,0,4.6,0.1,6.4,0c1.7,0,3.1-0.4,4.9-0.4c2.2,0,2.2-0.2,4.5-0.4c0,0.8,0.4,3.2,0.4,3.6
		c0.1,1.2,0.5,2.5,0.4,3.7c-0.1,0.6,0.3,1.2,0.2,1.8c-2.2,0.2-3.9,0.3-6.4,0.5c-4,0.4-7.4,0.1-11.4,0.2
		C239,197.8,235.6,197.7,231.7,197.3z"/>
	<path class="st19" d="M314.9,206.6c-0.3,0.3-0.5,0.5-0.8,0.7c-0.9,0.8-3.1,2.7-3.1,2.7l-1.6,1.2l-0.9,0.9c-0.4-0.6-2.1-2.2-2.5-2.8
		c-1.3-1.7-3.6-3.8-5.3-5.1c-1.2-1.2-3.3-2.8-4.6-3.7c-0.4,0.3-0.8,0.6-1.1,0.9c-0.6,0.5-1,1-1.6,1.5c-1.1,1-3.6,3.1-4.8,4.1
		c-1.3,1.2-2.7,2.1-3.5,2.8c-0.5-0.4-0.7-1-1.1-1.4c-1-0.8-1.6-1.9-2.4-2.8c-0.3-0.3-1.8-2.3-2.4-2.8c1.7-1.3,1.9-1.2,3.4-2.6
		c1.1-1.1,2.5-2.1,3.7-3.3c0.5-0.4,1-0.9,1.7-1.3c0.6-0.5,1.1-1.1,1.7-1.7c0.6-0.6,1.3-1.2,2-1.9c1.3-1.4,4.2-4.9,5.5-7
		c-1,0-1.9,0-2.8,0c-3.1,0-6.2-0.1-9.3-0.2c-1.3,0-1.9,0-3.9-0.1c0.2-2.3,0-5,0.2-9.1c1.9,0.1,3.1,0.1,5.3,0.2
		c1.4,0,2.9,0.1,4.4,0.2c1.9,0,3.7-0.1,5.6-0.1c1.3-0.1,3.8,0.2,5.2,0.2c1.3,0,2.4,0.2,3.8,0.2c1.7,0.1,2.2,0,3.9,0.1
		c0,0.8-0.1,1-0.1,1.8c0,0.2,0,0.4-0.1,0.6c0,0.3-0.2,1.4-0.2,1.6c-0.1,0.9-0.3,1.9-0.4,2.6c-0.1,0.7-0.8,1.8-1,2.4
		c-0.7,1.7-1.1,2.1-2,3.7c-0.3,0.7-0.8,1.2-1.2,1.9c-0.5,0.6-1.4,1.9-2.5,3.2c1.2,0.9,2.2,1.9,3.4,2.7c0.6,0.4,2.5,2.1,3,2.6
		c1.3,1.2,4.4,3.6,5.8,5.3l1.3,1.4L314.9,206.6z"/>
</g>
</svg>
