<svg id="Layer_1" data-name="Layer 1" xmlns="http://www.w3.org/2000/svg" viewBox="0 0 358.15 296.56"><path d="M2.11,63.16c0-35.29,17.43-52.72,52.72-52.72h45.7V31.52H54.83C33.6,31.52,23.2,41.93,23.2,63.16S33.6,94.79,54.83,94.79h45.7v21.09H54.83C19.54,115.88,2.11,98.45,2.11,63.16Z"/><path d="M180,135.81V111.2c0-20.24-11.38-31.63-31.63-31.63S116.7,91,116.7,111.2s11.39,31.64,31.63,31.64h52.72v21.09H148.33c-31.92,0-52.72-20.81-52.72-52.73s20.8-52.72,52.72-52.72,52.72,20.81,52.72,52.72v24.61Z"/><path d="M154.67,195.35c0-35.29,17.44-52.72,52.72-52.72h45.7v21.09h-45.7c-21.23,0-31.63,10.4-31.63,31.63S186.16,227,207.39,227h45.7v21.08h-45.7C172.11,248.07,154.67,230.64,154.67,195.35Z"/><path d="M268,129.21h-16.2v-8.68h41.07v8.68h-16.2v34.71H268Z"/><path d="M296.6,129.21H280.4v-8.68h41.07v8.68h-16.2v34.71H296.6Z"/><path d="M358.15,120.53v8.68H321.47v-8.68ZM321.47,132.1h8.68v5.79h21.06v8.67H330.15v8.68h28v8.68H321.47Z"/><path d="M131.39,10.63c5.93,7.31,6.55,13.63,2.12,19.24-3.66,4.64-5.64,9-2.49,14.72.46.82-.43,2.38-.81,4.06C124,43,123.19,36.37,128,30.2c3.66-4.67,5.54-9.06,2.42-14.7C130,14.67,130.87,13.1,131.39,10.63Z"/><path d="M152.26,0c6,7,6.35,13.33,1.24,19.61-3.44,4.21-4.39,8.3-2.18,13.33.51,1.17-.32,2.92-.69,5.49-6.11-7.72-6.62-13.6-1.83-19.6,3.56-4.47,5.46-8.71,2.44-14.22C150.75,3.71,151.78,2,152.26,0Z"/><path d="M171.23,49c-5.78-6.46-6.48-13.15-2.07-18.71,3.65-4.58,5.93-8.91,2.6-14.64-.47-.81.37-2.39.7-4.14,5.91,5.33,6.93,12.41,2.49,18.1-3.74,4.78-6.16,9.24-2.71,15.17C172.67,45.46,171.75,47,171.23,49Z"/><path d="M313.27,176.39a7.21,7.21,0,0,0-.49-9h0c-8.17,7.22-10.85,16.62-11.09,27.11l-1.21-.2q-.66-2.38-1.31-4.79c-4,1-7.07,5.16-7.26,9.85a11.72,11.72,0,0,0,22.3,5.49,11.23,11.23,0,0,0-3.58-14.19c-2.08-1.43-2.17-2.75-1.66-4.85A24.85,24.85,0,0,1,313.27,176.39Z"/><path d="M286.81,192.67c-23.77,5.3-38.6,24.26-38.6,51.16,0,31.92,20.81,52.73,52.73,52.73h52.72V275.47H300.94c-20.25,0-31.64-11.39-31.64-31.64,0-16.42,7.5-27,21.14-30.43a18.31,18.31,0,0,1-5.34-13.73A18.63,18.63,0,0,1,286.81,192.67Z"/><path d="M353.66,268.44V243.83c0-24.53-12.33-42.45-32.52-49.45a18.46,18.46,0,0,1-5.73,20.32c11.1,4.38,17.16,14.4,17.16,29.13v24.61Z"/><path d="M2.11,294.31v-5.22H17.54a1.21,1.21,0,0,0,1.21-1.22v-7.39a1.22,1.22,0,0,0-1.21-1.22H3.36V274H23.94v20.27Z"/><path d="M57.81,294.31v-5.22H73.24a1.22,1.22,0,0,0,1.22-1.22v-7.39a1.22,1.22,0,0,0-1.22-1.22H59.06V274H79.64v20.27Z"/><path d="M114.17,294.31V291h11.26a1.22,1.22,0,0,0,1.22-1.22v-8.41H130v12.93Zm6.24-8.22v-7.56h2.24v7.56Zm-6.24,0v-7.56h2.24v7.56Z"/><path d="M161.13,294.31V272.45h5.22v4.61a1.21,1.21,0,0,0,.94,1.18l10.41,2.45V286l-9.85-2.32-.28,0a1.25,1.25,0,0,0-.76.26,1.23,1.23,0,0,0-.46,1v9.41Z"/></svg>