<?xml version="1.0" encoding="utf-8"?>
<!-- Generator: Adobe Illustrator 25.3.0, SVG Export Plug-In . SVG Version: 6.00 Build 0)  -->
<svg version="1.1" id="レイヤー_1" xmlns="http://www.w3.org/2000/svg" xmlns:xlink="http://www.w3.org/1999/xlink" x="0px"
	 y="0px" viewBox="0 0 472.5 512.2" style="enable-background:new 0 0 472.5 512.2;" xml:space="preserve">
<style type="text/css">
	.st0{fill:#FFFDFE;stroke:#3C0000;stroke-width:2.99;stroke-miterlimit:10;}
	.st1{fill:#EB5160;}
	.st2{fill:#CE4559;}
	.st3{fill:#D0D1D3;stroke:#232020;stroke-width:0.91;stroke-miterlimit:10;}
	.st4{fill:none;stroke:#3C0000;stroke-width:3.64;stroke-linecap:round;stroke-miterlimit:10;}
	.st5{fill:#EB5160;stroke:#232020;stroke-width:0.91;stroke-miterlimit:10;}
	.st6{fill:#D0D1D3;}
	.st7{fill:#EAECED;}
	.st8{fill:#DD8793;stroke:#232020;stroke-width:0.75;stroke-miterlimit:10;}
	.st9{fill:none;stroke:#3C0000;stroke-width:5.36;stroke-miterlimit:10;}
	.st10{fill:none;stroke:#232020;stroke-width:3.64;stroke-linecap:round;stroke-miterlimit:10;}
	.st11{fill:#FFEBC8;}
	.st12{fill:#EFD3A5;}
	.st13{fill:#FF92AB;}
	.st14{fill:#FFFEFD;}
	.st15{fill:#FFF6EE;}
	.st16{fill:#3C0000;}
	.st17{enable-background:new    ;}
	.st18{fill:#FFFFFF;}
</style>
<path class="st0" d="M68.5,452.9c-37-0.1-66.9-30-67-67V68.5c0.1-37,30-66.9,67-67h317.4c37,0.1,66.9,30,67,67v203.2
	c0,99.9-81.3,181.1-181.1,181.1L68.5,452.9z"/>
<path class="st1" d="M385.9,13.3H68.5C38,13.3,13.3,38,13.3,68.5v317.4c0,30.5,24.7,55.2,55.2,55.2h0h203.3
	c93.5,0,169.3-75.8,169.3-169.4V68.5C441.1,38,416.4,13.3,385.9,13.3z"/>
<path class="st2" d="M143.1,433.9c0,2.4,0.1,4.8,0.2,7.2h128.4c93.5,0,169.3-75.8,169.3-169.4v-43.9c-7.1-0.4-14.3-0.6-21.6-0.6
	C266.9,227.2,143.1,319.7,143.1,433.9z"/>
<path class="st3" d="M411.1,296.5c0,0,0.4-12.3,2.6-13.9s19.1-0.6,21.4,0.4s2.9,13.4,2.9,13.4H411.1z"/>
<path class="st4" d="M410.3,295.9c0,0,0.4-10.4,2.4-12.3s16.5-2,21.2-0.9s3.2,13.4,3.2,13.4"/>
<path class="st5" d="M464.6,426.4c-1.2,3.1-2.6,6-4.3,8.8c-2.2,3.5-76.2,13-76.2,13c-87.4,7-73.7-3.2-87.8-7.4c-3.4-1-5-1.7-5-1.7
	c-22.5-21.7-6.9-113.4-6.9-113.4c2.6-29,16.9-28.1,16.9-28.1l143.9-1.7c24.2,8.2,22.5,58.8,24.7,89.1
	C471.2,404.4,467.8,418.1,464.6,426.4z"/>
<path class="st6" d="M290.1,323.2c0,0,65.7-4.6,110.5-3.5s62.1,2.9,62.1,2.9s0-28.6-23.7-27.1s-102.1,0.9-102.1,0.9
	s-37.5,1.1-42.5,4.3s-8.1,16.2-8.4,22.7L290.1,323.2z"/>
<path class="st3" d="M311.9,296.5c0,0,0.4-12.3,2.6-13.9s19.1-0.6,21.4,0.4s2.8,13.4,2.8,13.4H311.9z"/>
<path class="st5" d="M364.8,303c0,0,11.5-1.9,13.4-0.7s2.6,10.7,2.5,12s-10,3.2-13.3,2.2s-5.9-4.3-5.9-4.3L364.8,303z"/>
<path class="st7" d="M293.5,322.9c0,0,1.4-9,8.1-15.3s130.1-5.2,139.1-5.5s12.7,7.2,13.6,9.8c0.8,3.2,1.5,6.5,2,9.8l6.4,0.9
	c0,0-0.9-26-23.7-27.1s-137.6,2-137.6,2s-11.8,5.5-12.1,9.5s-3.2,17.6-3.2,17.6L293.5,322.9z"/>
<path class="st8" d="M449.9,322.7c0,0,6.9,48.4-0.9,82.2s-30.8,29.9-46.8,29.9s42.9,6.1,54.1-2.2s11.3-15.6,11.3-15.6
	s5.5-57.1-5-94.3l-13.4-1.3L449.9,322.7z"/>
<path class="st9" d="M286.9,313.1c0,0-18.2,99.5,0.9,122.9s152.5,13.4,172-0.9s5.6-110.4-0.4-126s-16.5-13-37.2-13.9
	s-102.3,1.3-111.4,1.7S291.7,296.2,286.9,313.1z"/>
<path class="st4" d="M291.7,323.3c39.8-3.2,73.9-2.8,73.9-2.8"/>
<path class="st9" d="M363.5,303.6c0,0-1.7,5.7-0.4,9.6s15.1,2.2,17,1.1s0.4-9.4-0.9-11.4S365.7,301.6,363.5,303.6z"/>
<path class="st4" d="M311.2,295.9c0,0,0.4-10.4,2.4-12.3s16.5-2,21.2-0.9s3.2,13.4,3.2,13.4"/>
<path class="st4" d="M377.9,320.9c0,0,36.4-1.3,71.5,0.9"/>
<line class="st10" x1="293.4" y1="339.2" x2="301.5" y2="339.3"/>
<line class="st10" x1="291.4" y1="349.9" x2="302.1" y2="349.6"/>
<line class="st10" x1="290.8" y1="361.1" x2="301.8" y2="361.4"/>
<line class="st10" x1="289.9" y1="401.3" x2="300.9" y2="401.6"/>
<line class="st10" x1="292.5" y1="413.2" x2="303.5" y2="413.5"/>
<line class="st10" x1="296.9" y1="423.6" x2="304.4" y2="423.9"/>
<line class="st10" x1="290.2" y1="375.6" x2="300.9" y2="375.6"/>
<line class="st10" x1="290.8" y1="388.9" x2="301.5" y2="388.9"/>
<line class="st10" x1="457.6" y1="340.3" x2="449.5" y2="340.5"/>
<line class="st10" x1="459.6" y1="351" x2="448.9" y2="350.7"/>
<line class="st10" x1="460.2" y1="362.3" x2="449.2" y2="362.6"/>
<line class="st10" x1="461.1" y1="402.5" x2="450.1" y2="402.8"/>
<line class="st10" x1="458.5" y1="414.3" x2="447.5" y2="414.6"/>
<line class="st10" x1="454.1" y1="424.7" x2="446.5" y2="425"/>
<line class="st10" x1="460.8" y1="375.6" x2="450.1" y2="375.6"/>
<line class="st10" x1="460.2" y1="390.1" x2="449.5" y2="390.1"/>
<path class="st1" d="M403.7,504.7c1.2-4.8,5.4-8.1,10.3-8.1h0.1c4.9,0,9.2,3.4,10.4,8.1L403.7,504.7z"/>
<path class="st1" d="M352.4,495.6c3.9,3,5.2,8.3,3.2,12.8l-16.4-12.7C343.1,492.6,348.5,492.6,352.4,495.6L352.4,495.6z"/>
<path class="st11" d="M357.1,483.9c-1.1,2.2-2.3,4.3-3.8,6.2c-1.2-0.6-2.4-1.1-3.7-1.4c1.5-1.9,2.8-4,3.9-6.1
	C354.7,483.2,355.9,483.6,357.1,483.9z"/>
<path class="st11" d="M409.2,479.2c1.4,4,2.2,8.2,2.3,12.5c-1.3,0.2-2.6,0.6-3.8,1.1c0-4.4-0.7-8.7-2.2-12.8
	C406.6,479.5,407.9,479.2,409.2,479.2z"/>
<path class="st8" d="M422.2,477.3c0.1,0.2,0,0.5-0.2,0.6c-0.2,0.2-0.5,0.2-0.7,0.1c-0.6-0.3-1.2-0.7-1.8-1.1
	c-2.5-1.8-5.4-2.8-8.4-2.9c-0.1,0-0.2,0-0.3,0c-0.3,0-0.6,0-0.9,0c-3.3-0.1-6.5,0.9-9.2,2.8l0,0l-0.3,0.2c-2,1.5-4.4,2.2-6.8,2.2
	c-2.5,0.1-4.9-0.7-6.8-2.2c-5.7-3.9-13.3-3.9-19.1,0c-2,1.5-4.4,2.2-6.8,2.2c-2.5,0.1-4.9-0.7-6.8-2.2l-0.2-0.1c0,0,0,0,0,0
	c-5.7-3.8-13.2-3.7-18.8,0.2c-0.6,0.4-1.2,0.8-1.8,1.1c-0.2,0.1-0.5,0.1-0.7-0.1c-0.2-0.2-0.3-0.4-0.2-0.7l12.8-38.7
	c1.1,0.4,2.1,0.9,3.2,1.3c-1.2,0.8-2.2,1.9-2.7,3.2c-1.5,3.6,0.2,7.7,3.8,9.2c0.2,0.1,0.5,0.2,0.7,0.2c5.8,1.7,11.9,2.6,18,2.6
	c10.2,0,19.2-2.5,26.8-7.5c2.7-1.8,5.3-4,7.5-6.4l1.2-0.4c0,0,0.1,0,0.1,0c0.1,0,0.2-0.1,0.3-0.1h0.1c1.8-0.6,3.6-1.4,5.5-2.1
	L422.2,477.3z"/>
<path class="st12" d="M410.3,482.8c-0.3-1.2-0.7-2.5-1.1-3.6c-1.3,0.1-2.6,0.3-3.8,0.9c0.4,1,0.7,2.1,1,3.1c1.2-0.2,2.4-0.4,3.6-0.3
	H410.3z"/>
<path class="st12" d="M352.3,484.7c0.5,0.3,1,0.6,1.4,0.9c0,0,0,0,0,0l0.2,0.1c0.5,0.3,1,0.7,1.6,0.9c0.5-0.9,1.1-1.9,1.5-2.8
	c-1.3-0.3-2.5-0.7-3.6-1.3C353.1,483.3,352.7,484,352.3,484.7z"/>
<path class="st11" d="M415.7,441.1c10.9-1.1,20.7-7.3,26.5-16.6c0.5-0.8,0.5-1.9,0-2.8c-0.6-0.9-0.9-1.9-0.9-2.9
	c-0.2-3.3,2.4-6.2,5.7-6.3c3.3-0.2,6.2,2.4,6.3,5.7c0.2,3.2-2.2,6-5.5,6.3c-0.8,0.1-1.5,0.5-1.9,1.2c-6.2,10.5-16.9,17.5-29,19
	L415.7,441.1z"/>
<path class="st11" d="M404.1,430.5c-1,1.6-2.1,3.1-3.2,4.6c-0.4,0.4-0.7,0.9-1.1,1.3c-0.2,0.3-0.4,0.5-0.7,0.8c-2.1,2.3-4.4,4.3-7,6
	c-6.7,4.5-14.8,6.7-24,6.7c-5.6,0-11.1-0.8-16.5-2.4c-0.5-0.2-1-0.5-1.2-1c-0.2-0.5-0.2-1.1,0-1.6c0.3-0.7,1-1.2,1.8-1.2
	c0.2,0,0.4,0,0.5,0.1c5.3,1.5,15.8,3.7,26.3,1.1h0.1c8.9-2.2,16.6-7.9,21.4-15.7c0.5-0.8,0.5-1.9,0-2.8c-0.6-0.9-0.9-1.9-0.9-2.9
	c-0.1-3.4,2.5-6.2,5.9-6.3l0,0c1.6-0.1,3.2,0.6,4.4,1.7c2.4,2.3,2.6,6,0.3,8.5c-1.1,1.1-2.5,1.8-4.1,1.9
	C405.2,429.4,404.5,429.9,404.1,430.5z"/>
<path class="st13" d="M366.6,402h21.3c-0.3,5.9-5.3,10.4-11.2,10.1C371.3,411.8,366.9,407.4,366.6,402z"/>
<path class="st11" d="M377.3,334.7c-31.3,0-56.8,23.9-56.8,53.3c0,12.9,5,25.4,13.8,34.8c3.4,3.7,7.2,6.8,11.4,9.5
	c2.1,1.3,4.3,2.5,6.5,3.5c7.2,2.4,14.6,3.8,22.2,4c0.5,0,1,0,1.4,0h1.5h0.6c4.4-1.1,8.5-3.3,12-6.3c2-1.7,3.8-3.7,5.3-5.9
	c-2.5-5.6,0.1-12.2,5.7-14.7c4.2-1.9,9.1-1,12.3,2.2c2.2,2.1,3.4,5,3.4,8c0,0.5,0,1.1-0.1,1.6c-0.1,0.7-0.3,1.3-0.5,2
	c1.5-1.3,2.9-2.7,4.2-4.1c8.8-9.5,13.8-21.9,13.9-34.9C434,358.6,408.6,334.7,377.3,334.7z M347.5,383.2c3.3,0,6.1,2.7,6.1,6
	c0,3.3-2.7,6.1-6,6.1c-3.3,0-6.1-2.7-6.1-6c0,0,0,0,0,0C341.5,385.9,344.2,383.2,347.5,383.2C347.5,383.2,347.5,383.2,347.5,383.2
	L347.5,383.2z M393,401.5c-0.2,8.7-7.5,15.6-16.2,15.4c-8.4-0.2-15.2-7-15.4-15.4v-2.1c0-1.4,1.1-2.5,2.5-2.5h26.4
	c1.4,0,2.5,1.1,2.5,2.5V401.5z M395.4,366.2c-3.7,0-6.9-2.2-9-5.6c-2.1,3.4-5.4,5.6-9.1,5.6s-7-2.2-9.1-5.6c-2.1,3.4-5.4,5.6-9,5.6
	c-6.4,0-11.6-6.7-11.6-15c-0.1-1.4,1-2.6,2.4-2.7c1.4-0.1,2.6,1,2.7,2.4c0,0.1,0,0.2,0,0.3c0,5.3,3,9.9,6.5,9.9s6.5-4.5,6.5-9.9
	c0-1.4,1.1-2.5,2.5-2.5c1.4,0,2.6,1.1,2.6,2.5c0,5.3,3,9.9,6.5,9.9s6.5-4.5,6.5-9.9c-0.1-1.4,1-2.6,2.4-2.7c1.4-0.1,2.6,1,2.7,2.4
	c0,0.1,0,0.2,0,0.3c0,5.3,3,9.9,6.5,9.9s6.5-4.5,6.5-9.9c0-1.4,1.1-2.5,2.5-2.5c1.4,0,2.6,1.1,2.6,2.5
	C407.1,359.5,401.8,366.2,395.4,366.2L395.4,366.2z M407,395.3c-3.3,0-6.1-2.7-6.1-6s2.7-6.1,6-6.1c3.3,0,6.1,2.7,6.1,6c0,0,0,0,0,0
	C413,392.6,410.3,395.3,407,395.3z"/>
<path class="st14" d="M416,426.9l0.6-0.5c0-0.4-0.1-0.8-0.1-1.2C416.3,425.8,416.2,426.3,416,426.9z"/>
<path class="st14" d="M394.3,427.5c0,0.4,0.1,0.9,0.1,1.3c0.3-0.4,0.5-0.7,0.8-1c-0.4-0.8-0.6-1.7-0.8-2.6
	C394.3,426,394.3,426.8,394.3,427.5z"/>
<path class="st15" d="M377.3,338.4c30.7,0,55.8,23,56.7,51.5c0-0.6,0-1.3,0-1.9c0-29.4-25.5-53.3-56.8-53.3s-56.8,23.9-56.8,53.3
	c0,0.6,0,1.3,0,1.9C321.5,361.3,346.6,338.4,377.3,338.4z"/>
<path class="st16" d="M455,410.5c-2.1-2.1-5.1-3.2-8.1-3.1h-0.2c-11.5,1.9-10.5,13.1-10.5,13.1c0.2,0.9,0.4,1.7,0.8,2.5
	c-5.1,7.4-13.2,12.2-22.1,13.1l13.5-15.2c7-9.5,10.7-21,10.7-32.9c0-32.2-27.8-58.4-61.9-58.4s-61.9,26.2-61.9,58.4
	c0,11.8,3.8,23.3,10.7,32.8l0,0c4.8,7.3,14.7,14.5,14.7,14.5l-0.4,1.1l-13,39.3c-1,3,0.7,6.2,3.7,7.2c1.5,0.5,3,0.3,4.4-0.4
	c0.8-0.4,1.5-0.9,2.2-1.3c2-1.5,4.4-2.2,6.8-2.2c1.6-0.1,3.1,0.3,4.6,0.9c-1.6,3.1-3.6,6-6,8.5c-3.9,0.7-7.4,2.8-9.8,5.9
	c-0.9,1.1-0.7,2.7,0.5,3.6l21,16.2c0.4,0.3,1,0.5,1.5,0.5h0.3c0.7-0.1,1.3-0.5,1.7-1c4.8-6.1,4.3-14.8-1-20.5c2.1-2.8,3.8-5.8,5.2-9
	c2.8-0.2,5.5-1.2,7.8-2.9c4.1-2.9,9.6-2.9,13.7,0c2.8,2,6.1,3.1,9.5,3c2.5,0.1,5-0.5,7.3-1.7c1.5,4.5,2,9.3,1.4,14
	c-2.6,2.9-4.1,6.7-4.1,10.6c0,1.4,1.1,2.5,2.5,2.5h26.5c1.4,0,2.5-1.1,2.5-2.5c0-7.7-5.6-14.3-13.3-15.6c-0.1-3.9-0.7-7.8-1.7-11.5
	c0.7,0.3,1.3,0.7,2,1.2s1.4,0.9,2.2,1.3c2.8,1.5,6.3,0.3,7.7-2.5c0.7-1.4,0.8-3,0.4-4.4l-8.6-26.1c12.8-1.8,24.2-9.2,31.1-20.2
	c6-1.3,9.8-7.2,8.5-13.3C457.6,414,456.6,412,455,410.5z M333.7,422.1c-8.4-9.4-13.1-21.5-13.2-34.1c0-29.4,25.5-53.3,56.8-53.3
	s56.8,23.9,56.8,53.3c-0.1,15-6.7,29.2-18,38.9c0.4-1.2,0.6-2.4,0.6-3.6c0-3-1.2-5.9-3.4-8c-4.4-4.3-11.4-4.3-15.8,0.1
	c-3.2,3.3-4.1,8.1-2.2,12.3c-1.1,1.5-2.2,3-3.5,4.3c-3.8,3.8-8.5,6.6-13.7,7.9h-0.6h-1.5c-0.4,0-0.9,0-1.4,0c-7.5-0.2-15-1.6-22.2-4
	c-2.2-1-4.4-2.2-6.5-3.5C341.2,429.6,337.2,426.1,333.7,422.1z M400.4,426.5c-0.6-0.9-0.9-1.9-0.9-2.9c-0.1-3.4,2.5-6.2,5.9-6.3l0,0
	c1.6-0.1,3.2,0.6,4.4,1.7c2.4,2.3,2.5,6.1,0.3,8.5c-1,1.1-2.4,1.8-3.9,1.9c-0.8,0.1-1.5,0.5-2,1.2c-0.7,1.1-1.4,2.2-2.2,3.3
	c-0.3,0.5-0.7,0.9-1,1.3s-0.7,0.9-1.1,1.3c-0.2,0.3-0.4,0.5-0.7,0.8c-2.1,2.3-4.4,4.3-7,6c-6.7,4.5-14.8,6.7-24,6.7
	c-5.6,0-11.1-0.8-16.5-2.4c-0.5-0.2-1-0.5-1.2-1c-0.2-0.5-0.2-1.1,0-1.6c0.3-0.7,1-1.2,1.8-1.2c0.2,0,0.4,0,0.5,0.1
	c5.3,1.5,15.8,3.7,26.3,1.1h0.1c7.4-1.8,13.9-6,18.6-11.9c1-1.2,1.9-2.5,2.7-3.8C400.9,428.4,400.9,427.4,400.4,426.5L400.4,426.5z
	 M355.6,508.4l-16.4-12.7c3.9-3.1,9.3-3.1,13.2-0.1C356.3,498.6,357.6,503.9,355.6,508.4L355.6,508.4z M353.4,490.1
	c-1.2-0.6-2.4-1.1-3.7-1.4c1.5-1.9,2.8-4,3.9-6.1c1.1,0.6,2.4,1,3.6,1.3C356.1,486.1,354.8,488.2,353.4,490.1L353.4,490.1z
	 M424.4,504.7h-20.8c1.2-4.8,5.4-8.1,10.3-8.1h0.1C419,496.6,423.3,499.9,424.4,504.7z M405.4,480c1.2-0.5,2.5-0.8,3.8-0.9
	c1.4,4,2.2,8.2,2.3,12.5c-1.3,0.2-2.6,0.6-3.8,1.1C407.7,488.4,406.9,484.1,405.4,480L405.4,480z M422.3,477.3
	c0.1,0.2,0,0.5-0.2,0.6c-0.2,0.2-0.5,0.2-0.7,0.1c-0.6-0.3-1.2-0.7-1.8-1.1c-2.5-1.8-5.4-2.8-8.4-2.9c-0.1,0-0.2,0-0.3,0
	c-0.3,0-0.6,0-0.9,0c-3.3-0.1-6.5,0.9-9.2,2.8l0,0l-0.3,0.2c-2,1.5-4.4,2.2-6.8,2.2c-2.5,0.1-4.9-0.7-6.8-2.2
	c-5.7-3.9-13.3-3.9-19.1,0c-2,1.5-4.4,2.2-6.8,2.2c-2.5,0.1-4.9-0.7-6.8-2.2l-0.2-0.1c0,0,0,0,0,0c-5.7-3.8-13.2-3.7-18.8,0.2
	c-0.6,0.4-1.2,0.8-1.8,1.1c-0.2,0.1-0.5,0.1-0.7-0.1c-0.2-0.2-0.3-0.4-0.2-0.7l12.8-38.7c1.1,0.4,2.1,0.9,3.2,1.3
	c-1.2,0.8-2.2,1.9-2.7,3.2c-1.5,3.6,0.2,7.7,3.8,9.2c0.2,0.1,0.5,0.2,0.7,0.2c5.8,1.7,11.9,2.6,18,2.6c10.2,0,19.2-2.5,26.8-7.5
	c2.7-1.8,5.3-4,7.5-6.4l1.2-0.4c0,0,0.1,0,0.1,0c0.1,0,0.2-0.1,0.3-0.1h0.1c1.8-0.6,3.6-1.4,5.5-2.1L422.3,477.3z M447.9,424.5
	c-0.8,0.1-1.5,0.5-1.9,1.2c-6.2,10.5-16.9,17.5-29,19l-1.2-3.6c10.9-1.1,20.7-7.3,26.5-16.6c0.5-0.8,0.5-1.9,0-2.8
	c-0.6-0.9-0.9-1.9-0.9-2.9c-0.2-3.3,2.4-6.2,5.7-6.3c3.3-0.2,6.2,2.4,6.3,5.7C453.5,421.4,451.1,424.2,447.9,424.5L447.9,424.5z"/>
<circle class="st16" cx="407" cy="389.2" r="6"/>
<path class="st16" d="M404.5,348.7c1.4,0,2.5,1.1,2.5,2.5c0,8.2-5.2,15-11.6,15c-3.7,0-6.9-2.2-9-5.6c-2.1,3.4-5.4,5.6-9.1,5.6
	s-7-2.2-9.1-5.6c-2.1,3.4-5.4,5.6-9,5.6c-6.4,0-11.6-6.7-11.6-15c-0.1-1.4,1-2.6,2.4-2.7c1.4-0.1,2.6,1,2.7,2.4c0,0.1,0,0.2,0,0.3
	c0,5.3,3,9.9,6.5,9.9s6.5-4.5,6.5-9.9c0-1.4,1.1-2.6,2.6-2.6c1.4,0,2.5,1.1,2.5,2.6c0,5.3,3,9.9,6.5,9.9s6.5-4.5,6.5-9.9
	c-0.1-1.4,1-2.6,2.4-2.7c1.4-0.1,2.6,1,2.7,2.4c0,0.1,0,0.2,0,0.3c0,5.3,3,9.9,6.5,9.9s6.5-4.5,6.5-9.9
	C402,349.9,403.1,348.7,404.5,348.7z"/>
<path class="st16" d="M393,399.4v2.1c-0.2,8.7-7.5,15.6-16.2,15.4c-8.4-0.2-15.2-7-15.4-15.4v-2.1c0-1.4,1.1-2.5,2.5-2.5h26.4
	C391.9,396.9,393,398,393,399.4z M387.9,402h-21.3c0.3,5.9,5.3,10.4,11.2,10.1C383.3,411.8,387.6,407.4,387.9,402L387.9,402z"/>
<circle class="st16" cx="347.5" cy="389.2" r="6"/>
<path class="st12" d="M416,426.9c1.5-1.3,2.9-2.7,4.2-4.1c-1.2,0.7-2.5,1.4-3.7,2.1C416.4,425.6,416.2,426.3,416,426.9z"/>
<path class="st12" d="M334.3,422.8c3.4,3.7,7.2,6.8,11.4,9.5c2.1,1.3,4.3,2.5,6.5,3.5c7.2,2.4,14.6,3.8,22.2,4c0.5,0,1,0,1.4,0h1.5
	h0.6c4.4-1.1,8.5-3.3,12-6.3c-4.2,0.6-8.5,0.9-12.7,0.9C362.2,434.6,347.3,430.6,334.3,422.8z"/>
<circle class="st8" cx="338" cy="408" r="7"/>
<circle class="st8" cx="416.5" cy="408" r="7"/>
<path class="st16" d="M447,407.4c0,0-11.1,1.4-10.7,13.1"/>
<g class="st17">
	<path class="st18" d="M89.5,127c-0.3,0.3-0.5,0.5-0.8,0.7c-0.9,0.8-3.1,2.7-3.1,2.7l-1.6,1.2l-0.9,0.9c-0.4-0.6-2.1-2.2-2.5-2.8
		c-1.3-1.7-3.6-3.8-5.3-5.1c-1.2-1.2-3.3-2.8-4.6-3.7c-0.4,0.3-0.8,0.6-1.1,0.9c-0.6,0.5-1,1-1.6,1.5c-1.1,1-3.6,3.1-4.8,4.1
		c-1.3,1.2-2.7,2.1-3.5,2.8c-0.5-0.4-0.7-1-1.1-1.4c-1-0.8-1.6-1.9-2.4-2.8c-0.3-0.3-1.8-2.3-2.4-2.8c1.7-1.3,1.9-1.2,3.4-2.6
		c1.1-1.1,2.5-2.1,3.7-3.3c0.5-0.4,1-0.9,1.7-1.3c0.6-0.5,1.1-1.1,1.7-1.7c0.6-0.6,1.3-1.2,2-1.9c1.3-1.4,4.2-4.9,5.5-7
		c-1,0-1.9,0-2.8,0c-3.1,0-6.2-0.1-9.3-0.2c-1.3,0-1.9,0-3.9-0.1c0.2-2.3,0-5,0.2-9.1c1.9,0.1,3.1,0.1,5.3,0.2
		c1.4,0,2.9,0.1,4.4,0.2c1.9,0,3.7-0.1,5.6-0.1c1.3-0.1,3.8,0.2,5.2,0.2c1.3,0,2.4,0.2,3.8,0.2c1.7,0.1,2.2,0,3.9,0.1
		c0,0.8-0.1,1-0.1,1.8c0,0.2,0,0.4-0.1,0.6c0,0.3-0.2,1.4-0.2,1.6c-0.1,0.9-0.3,1.9-0.4,2.6c-0.1,0.7-0.8,1.8-1,2.4
		c-0.7,1.7-1.1,2.1-2,3.7c-0.3,0.7-0.8,1.2-1.2,1.9c-0.5,0.6-1.4,1.9-2.5,3.2c1.2,0.9,2.2,1.9,3.4,2.7c0.6,0.4,2.5,2.1,3,2.6
		c1.3,1.2,4.4,3.6,5.8,5.3l1.3,1.4L89.5,127z"/>
	<path class="st18" d="M141.3,100c-0.5,0.5-0.9,0.8-1.4,1.2c-2,2-4.1,4-6.3,5.8c-0.2,0.2-0.5,0.4-0.7,0.6c-0.9,0.7-3,2.1-3.6,2.6
		l-0.2,0.2c-0.1,0.8-0.1,1.7-0.1,2.5c0.1,1.7-0.2,2.7-0.1,4.3c0.1,1.6-0.1,4.4,0,6c0.1,2.1,0.2,5.8,0.3,7.8c-0.8,0-1.6,0-2.4,0.1
		c-0.4,0.1-0.8-0.1-1.2-0.1c-1.2,0.1-2.5,0.2-3.7,0.1c-0.6,0-1.2,0.1-1.9,0.1c-0.1-2.3-0.1-5.8-0.1-8.2c-0.1-2.4-0.1-5.2-0.2-7.9
		c-0.9,0.3-1.8,0.5-2.6,0.8c-0.8,0.3-2.8,0.8-3.8,1c-1.9,0.5-3.8,0.9-5.6,1.3c-0.6,0.2-1.2,0.4-1.8,0.5c-0.2-0.6-0.3-1.7-0.5-2.5
		c-0.5-2.1-0.9-4.7-1.3-6.4c0.8-0.2,1.6-0.3,2.5-0.5c1.3-0.4,3.3-0.6,4.7-1c0.8-0.3,2.2-0.5,3-0.7c1.5-0.5,2.2-0.7,3.8-1.3
		c1.3-0.6,2.6-1.6,3.9-2.2c1.4-0.7,3-1.7,4.2-2.7c0.7-0.6,1.5-1.2,2.3-1.8c0.7-0.5,1.2-1.1,1.9-1.7c1.1-0.9,1.6-1.6,2.7-2.5
		c0.5-0.7,1.2-1.2,1.8-1.8c1.2,1.3,3.1,3.1,4.6,4.7C140,98.8,140.8,99.5,141.3,100z"/>
	<path class="st18" d="M161.6,117.8c-1.8-0.2-3-0.2-4.2-0.3c0.2-2.3,0.4-5.5,0.7-9.1c2.1,0.2,2.8,0.1,5.3,0.4
		c2.1,0.3,8.3,0.5,10.8,0.5c2.4,0,4.6,0.1,6.4,0c1.7,0,3.1-0.4,4.9-0.4c2.2,0,2.2-0.2,4.5-0.4c0,0.8,0.4,3.2,0.4,3.6
		c0.1,1.2,0.5,2.5,0.4,3.7c-0.1,0.6,0.3,1.2,0.2,1.8c-2.2,0.2-3.9,0.3-6.4,0.5c-4,0.4-7.4,0.1-11.4,0.2
		C169,118.3,165.6,118.2,161.6,117.8z"/>
	<path class="st18" d="M215.8,111.9c0.2,1.2,0.3,1.7,0.5,2.9c-0.8,0.1-1.6,0.2-2.3,0.4c-0.4,0.1-0.8,0.1-1.2,0.1
		c-1.2,0.2-2.4,0.4-3.7,0.5c-0.6,0.1-1.2,0.3-1.9,0.3c-0.2-1.4-0.2-2.1-0.4-3.5c-0.4-2.2-0.6-4.1-0.9-6.3c-0.3-2.3-0.1-0.7-0.3-3
		c-0.1-1-0.1-0.9-0.2-2.3c2.3-0.2,4.9-0.7,9-1.2c0.2,1.3,0.7,5.4,1,6.8c0.2,0.9,0.1,1.7,0.3,2.6
		C215.7,110.1,215.6,110.9,215.8,111.9z M221.3,113.7c-0.6,0-1.2,0.1-1.9,0.1c-0.1-1.4-0.1-2.1-0.1-3.5c-0.1-2.3-0.2-4.1-0.3-6.4
		c-0.1-2.3-0.1-2.3-0.1-4.5c0-1,0-0.9,0-2.4c2.3,0,5-0.2,9.1-0.3c0.1,1.3,0.2,3.3,0.2,4.3c0.1,1.4,0.2,2.7,0.3,4.1
		c0.1,0.9-0.1,1.7-0.1,2.6c0.1,1-0.1,1.8,0,2.7c0.1,1.2,0.1,1.7,0.1,2.9c-0.8,0.1-1.6,0.1-2.3,0.1c-0.4,0.1-0.8,0-1.2,0
		C223.7,113.7,222.5,113.8,221.3,113.7z M246.3,111.1c-0.3,1.1-1.1,1.9-1.6,3.2c-0.2,0.7-0.7,1.2-1,1.8c-0.9,1.6-2.5,3.3-3.6,4.8
		c-0.4,0.6-1,1.1-1.5,1.7c-1.3,1.3-5.2,5-6.8,6c-0.7,0.5-1.3,1-1.9,1.6c-0.6,0.5-0.6,0.4-1.2,0.8c-0.7,0.3-1.1,0.8-1.8,1.1l-6.2-7.2
		c0.7-0.4,2.6-1.5,3.3-2c0.8-0.5,1.6-1,2.3-1.6c1.7-1.3,5.6-4.8,6.9-6.5c0.6-0.8,1.3-1.5,1.8-2.4c0.7-1.2,1-1.3,1.6-2.6
		c0.2-0.4,0.7-1.3,1-1.9c0.9,0.4,1.9,0.7,2.8,1.1c0.5,0.3,1,0.4,1.5,0.6C243,109.8,245.3,110.7,246.3,111.1z"/>
	<path class="st18" d="M294,113c-0.2,1.3-0.5,2.5-0.5,3.9c-0.2,1.6-0.4,3.3-0.5,4.9c-0.2,2.1-0.6,5.4-0.8,7.4
		c-0.8-0.1-1.6-0.1-2.3-0.1c-0.4,0.1-0.8-0.2-1.2-0.2c-1.2-0.1-2.4-0.1-3.7-0.3c-0.6-0.1-1.2-0.1-1.9-0.2c0.2-2.4,0.7-6,0.9-8.4
		c0.2-2.4,0.4-4.8,0.6-7.1c-3.2,0-6.9-0.1-7.7-0.1c-0.4,0-0.8,0-1.2,0.1c-0.9,6-1.9,12-2.1,13.9l-1.1,5.9l-8.9-1.3
		c0-0.9,0.8-5.9,1-8.2c0.1-1.7,0.6-3,0.8-4.6c0.1-0.5,0.4-2.8,0.9-5.7c-0.5,0-1-0.1-1.6,0c-1.5,0-3,0.1-4.5,0.1c0-0.8,0-1.6-0.1-2.4
		c-0.1-0.4,0.1-0.8,0.1-1.2c-0.1-1.2-0.1-2.4-0.1-3.7c0.1-0.6-0.1-1.2,0-1.9c1.8,0,3.5,0.1,5.2,0.1c0.8,0,1.6-0.1,2.3-0.1
		c0.6-3.2,1-5.9,1-6.4c0.2-2.1,0.4-4.1,0.7-6.1c0.8,0.1,1.6,0.2,2.4,0.2c0.4,0,0.8,0.2,1.2,0.3c1.2,0.1,2.4,0.2,3.7,0.4
		c0.6,0.1,1.2,0.1,1.9,0.2c-0.3,2.4-0.6,4.7-0.9,7.1c-0.1,0.8-0.3,2.4-0.6,4.4c4.5,0,11.3,0.1,13.4,0.1c1.2,0,2.4,0,4.2,0.1
		C294.5,106.3,294.3,109.6,294,113z"/>
	<path class="st18" d="M346.6,103.3c-0.5,2.8-1.3,6.2-2,9c-0.2,1.5-0.9,2.8-1.5,4.1c-0.8,2-2.2,3.6-3.7,5.1
		c-0.7,0.6-1.2,1.5-1.9,2.1c-2.8,2.8-7.1,5.6-10.6,7.5c-0.5,0.3-1,0.6-1.6,0.9c-0.6-0.9-1.1-1.9-1.7-2.8c-1-1.6-1.9-3.4-2.9-5
		c0.5-0.4,1.1-0.7,1.7-1c0.8-0.4,1.5-0.9,2.2-1.3c1.7-1,3.9-2.2,5.4-3.6c1.6-1.8,3.3-3.3,4.5-5.3c1.1-1.8,1.5-3.8,2-5.9
		c0.2-0.5,0.3-1.1,0.3-1.7c-3.2,0.2-6.1-0.1-9.5,0c-4,0-7.4-0.1-11.3-0.5c-1.7-0.2-2.9-0.2-4.2-0.3c0.2-2.3,0.3-5.5,0.7-9
		c2.1,0.2,2.7,0.1,5.3,0.4c2.1,0.3,8.2,0.5,10.7,0.5s4.7,0.1,6.4,0c1.8,0,4.3,0.1,6.1,0c2.1-0.1,5.4,0,6.3,0
		C347.3,96.7,347.1,101.1,346.6,103.3z"/>
	<path class="st18" d="M394.8,121.9l-0.2,1.9c-0.1,1.4-0.5,5.9-0.5,5.9s-1.9-0.2-2.3-0.2c-0.5-0.1-1.1-0.1-2-0.2
		c-1.5-0.2-7.3-0.5-9-0.5c-1,0-2.5,0.1-3.8,0.1c-0.8,0-1.6,0.1-2,0.1c-0.6,0-1.1,0.1-1.7,0.1c-0.6,0.1-1.1,0.2-1.7,0.2
		c-0.9,0.1-1.2,0.1-1.7,0.2c-0.4,0.1-0.7,0.1-1.3,0.2l-0.8,0.1c0,0-0.1-2-0.2-2.5c-0.1-0.4-0.1-0.7-0.1-0.8c0-0.3-0.1-0.6-0.1-1
		c-0.1-0.5-0.3-3.6-0.3-3.6l0.7-0.1c0.9-0.1,1.7-0.2,2.6-0.2c0.6-0.1,1.1-0.1,1.9-0.2c1.2-0.1,2.7-0.2,4.7-0.2c0-0.2,0-0.5,0-0.8
		c0.1-0.7,0.1-1.5,0.1-2.2c0-0.6,0-1.2,0-1.8c0.1-0.3,0.1-0.8,0.1-1.4c-1.3,0-2.8-0.1-4.3-0.2l-1.7-0.2l0.8-7.8c0,0,1.6,0.2,2.1,0.2
		c0.6,0.1,1.1,0.1,1.7,0.1c0.5,0,1.2,0.1,1.9,0.1c1.1,0.1,2.4,0.1,3.4,0.1c1.7,0,7-0.4,8.4-0.5l0.7-0.1l0.8,7.8l-0.7,0.1
		c-1.2,0.1-3.2,0.3-5.2,0.3c-0.1,0.6-0.1,1.2-0.1,1.6c0,0.1,0.1,1.3,0.1,1.7c0,0.2,0,0.4,0,0.6c0,0.5-0.1,0.9-0.1,1.4s0,0.8,0,1.1
		c2.1,0.1,4.5,0.2,6.3,0.4c0.5,0.1,0.9,0.1,1.3,0.1c0.6,0.1,1,0.1,1.6,0.2L394.8,121.9z"/>
</g>
<g class="st17">
	<path class="st18" d="M88.4,182.6c-0.3,1.2-0.8,2.3-1.2,3.5c-0.1,0.3-0.3,0.6-0.5,0.9c-1.2,2.9-2.7,6.1-4,8.8
		c-1.8,3.4-3.7,7.3-5.7,10.5c-1.3,2-1.8,3-3,4.8c-0.6-0.2-0.9-0.8-1.5-1c-1.1-0.5-2.1-1.3-3.2-1.9c-0.3-0.2-2.3-1.6-3-2
		c1.1-1.8,1.1-1.4,2-3.2c0.8-1.4,1.7-2.4,2.5-3.9c0.8-1.4,2.4-4.3,3.5-6.3c0.7-1.3,2.2-4.7,3.3-7.4c-3.1-0.8-7.9-2.2-11.3-3.2
		c-0.6,1-1.2,2-1.7,3c-1,1.8-3.9,6.9-4.9,8.7c-0.7-0.4-1.3-0.8-2.1-1c-0.4-0.2-0.7-0.5-1-0.7c-1.1-0.6-2.2-1.1-3.3-1.8
		c-0.6-0.3-1.1-0.5-1.7-0.9c1.2-2.1,4.2-7.4,5.4-9.5c1.8-3.4,3.4-6.2,5.3-9.5l1.6-2.7l7.7,4.6c-0.2,0.4-0.5,1-0.8,1.8
		c0.3,0.1,0.5,0.2,0.8,0.2c1.6,0.4,10.1,2.9,11.7,3.3c2,0.5,4,1,6,1.6C89.2,180.2,88.5,182.2,88.4,182.6z"/>
	<path class="st18" d="M116.6,192.5c0,0.2-5.2,0.1-5.6,0.1c-0.3-0.1-3.7-0.1-3.7-0.1c0-2.5-0.1-2.7,0-5.2c0.2-2.6,0-5.3,0.1-7.9
		c0.2-1.6,0.1-4.7,0.1-6.3c0.9,0,1.7-0.1,2.7,0.1c0.4,0,0.9,0,1.3,0c1-0.1,2,0.1,3,0.1c0.7,0,1.4,0.1,2.1,0.1
		c-0.1,1.6-0.1,4.7-0.1,6.2c0,0.4,0.1,0.7,0.1,1.1c0.1,1.1,0,2.2,0,3.3c-0.1,0.9-0.1,1.8-0.1,2.7
		C116.5,189.3,116.6,189.7,116.6,192.5z M136.7,187.2c0.2,1.4-0.3,2.9-0.6,4.3c-0.4,2.1-1.3,4-2.4,5.8c-0.6,0.8-0.9,1.7-1.4,2.4
		c-2.2,3.4-4.9,6.4-7.8,9.1c-0.4,0.5-0.8,0.9-1.2,1.4c-0.8-0.8-1.6-1.6-2.4-2.4c-1.4-1.3-2.7-2.8-4.1-4c0.5-0.5,0.9-1,1.3-1.4
		c0.7-0.5,1.2-1.2,1.8-1.8c1.4-1.5,2.8-2.8,3.9-4.6c1.1-2,2.5-3.9,3.3-6.1c0.7-2,0.6-4,0.6-6.1c0.1-0.8,0-1.6-0.1-2.3
		c0.1-2.2,0-5.5,0-7.7c-0.1-0.7,0-1.3,0-2c0-0.5,0-0.6,0-1c0.8,0.1,1.6,0.1,2.3,0c0.6,0,1.3,0.1,1.9-0.1c0.7,0.1,1.4,0,2.1,0
		c0.9,0.1,1.9,0.1,2.8,0.1c0,1.5,0.1,1.5-0.1,3.8C136.8,177.4,136.7,184.3,136.7,187.2z"/>
	<path class="st18" d="M192.7,197.6c-0.2,2.3-0.4,5.5-0.7,9.1c-2.1-0.3-2.7-0.2-5.2-0.4c-2.1-0.2-10.5-0.7-12.9-0.7
		c-2.4,0-6.6,0.2-8.3,0.2c-1.7,0.1-3.1,0.4-4.8,0.4c-2.2,0.1-2.2,0.2-4.5,0.4c0-0.8-0.4-3.2-0.4-3.6c-0.1-1.2-0.5-2.4-0.4-3.7
		c0-0.6-0.3-1.2-0.2-1.8c2.2-0.3,3.8-0.3,6.3-0.6c2.3-0.2,5-0.3,7.7-0.3c0-0.5,0-1,0.1-2.1c0.2-2,0-3.9,0.1-5.9
		c0.1-0.7,0.1-2,0.1-3.1c-2.4,0-4.9-0.1-7.1-0.3c-0.5-0.1-1-0.1-1.4-0.2l0.9-9.1c1.5,0.1,2.8,0.4,4.4,0.4c1.7,0,5.2,0.2,7.6,0.2
		c2.4,0,10.1-0.5,12.2-0.7h0.1l0.9,9.1c-2.6,0.2-5.6,0.4-8.4,0.5c0,1.1,0,2.4-0.1,3.2c0,0.3,0.1,0.5,0.1,0.8
		c0.1,0.8-0.1,1.7-0.1,2.4c0,0.7,0,1.3-0.1,2c0,1.3,0.1,1.9,0.1,2.6c3.3,0.1,7.1,0.3,9.9,0.6C190.2,197.3,191.4,197.4,192.7,197.6z"
		/>
	<path class="st18" d="M244.8,177.7c-0.5,0.5-0.9,0.8-1.4,1.2c-2,2-4.1,4-6.3,5.8c-0.2,0.2-0.5,0.4-0.7,0.6c-0.9,0.7-3,2.1-3.6,2.6
		l-0.2,0.2c-0.1,0.8-0.1,1.7-0.1,2.5c0.1,1.7-0.2,2.7-0.1,4.3c0.1,1.6-0.1,4.4,0,6c0.1,2.1,0.2,5.8,0.3,7.8c-0.8,0-1.6,0-2.4,0.1
		c-0.4,0.1-0.8-0.1-1.2-0.1c-1.2,0.1-2.5,0.2-3.7,0.1c-0.6,0-1.2,0.1-1.9,0.1c-0.1-2.3-0.1-5.8-0.1-8.2c-0.1-2.4-0.1-5.2-0.2-7.9
		c-0.9,0.3-1.8,0.5-2.6,0.8c-0.8,0.3-2.8,0.8-3.8,1c-1.9,0.5-3.8,0.9-5.6,1.3c-0.6,0.2-1.2,0.4-1.8,0.5c-0.2-0.6-0.3-1.7-0.5-2.5
		c-0.5-2.1-0.9-4.7-1.3-6.4c0.8-0.2,1.6-0.3,2.5-0.5c1.3-0.4,3.3-0.6,4.7-1c0.8-0.3,2.2-0.5,3-0.7c1.5-0.5,2.2-0.7,3.8-1.3
		c1.3-0.6,2.6-1.6,3.9-2.2c1.4-0.7,3-1.7,4.2-2.7c0.7-0.6,1.5-1.2,2.3-1.8c0.7-0.5,1.2-1.1,1.9-1.7c1.1-0.9,1.6-1.6,2.7-2.5
		c0.5-0.7,1.2-1.2,1.8-1.8c1.2,1.3,3.1,3.1,4.6,4.7C243.6,176.4,244.4,177.2,244.8,177.7z"/>
	<path class="st18" d="M295.1,179.9c-0.1,0.4-0.3,1.8-0.4,2.2c-0.3,1.1-0.5,2.4-0.8,3.5c-0.3,1.4-0.8,3.9-0.9,4
		c-0.3,1.5-0.7,3-1.2,4.3c-0.7,1.6-1.2,3-2.1,4.6c-0.6,1.2-1.2,2.3-1.8,3.4c-0.4,0.7-1.5,2.5-2.1,3.3c-1,1.7-2.1,3.2-3.3,4.8
		c-0.3,0.5-0.6,1-1,1.5c-0.5-0.3-1.4-1-2.1-1.5c-1.8-1.2-3.8-2.8-5.3-3.8c0.5-0.7,1-1.2,1.6-2.1c0.7-1.2,2-2.7,2.7-3.9
		c0.3-0.5,0.6-1,1-1.6c-1.8-0.7-4.2-1.6-5.5-2l-3.5-1.3l3.3-8.4c0.9,0.2,4.1,1.6,6.3,2.3c1.2,0.4,2.2,0.8,3.4,1.2l0.4-0.8
		c0.5-1.3,0.7-2.8,1-4.2c-3.1-0.8-8-2.3-11.5-3.3c-1.9,3.6-4,7.6-6.3,11c-0.3,0.5-0.5,0.8-0.8,1.2l-7.6-5.1c0.8-1.3,1.7-2.3,2.4-3.7
		c0.8-1.5,2.6-4.5,3.7-6.6c1.1-2.1,4.3-9.1,5.1-11.1c0,0,0,0,0-0.1l8.4,3.5c-0.3,0.8-0.7,1.7-1.1,2.5c0.4,0.2,0.7,0.3,1.1,0.4
		c1.6,0.4,10.1,2.9,11.7,3.3c2,0.5,3.3,0.9,5.2,1.5C295.1,179.6,295.2,179.1,295.1,179.9z"/>
	<path class="st18" d="M317,195.5c-1.8-0.2-3-0.2-4.2-0.3c0.2-2.3,0.4-5.5,0.7-9.1c2.1,0.2,2.8,0.1,5.3,0.4
		c2.1,0.3,8.3,0.5,10.8,0.5s4.6,0.1,6.4,0c1.7,0,3.1-0.4,4.9-0.4c2.2,0,2.2-0.2,4.5-0.4c0,0.8,0.4,3.2,0.4,3.6
		c0.1,1.2,0.5,2.5,0.4,3.7c-0.1,0.6,0.3,1.2,0.2,1.8c-2.2,0.2-3.9,0.3-6.4,0.5c-4,0.4-7.4,0.1-11.4,0.2
		C324.3,195.9,320.9,195.8,317,195.5z"/>
</g>
<g class="st17">
	<path class="st18" d="M86,257.5c-0.1,1.1-0.1,2.4-0.2,3.9c-0.2,3.1-0.3,6.9-0.4,9.6c-0.1,3.3-0.3,6-0.5,9.3
		c-0.1,1.5-0.1,1.2-0.3,3.4c-0.2-0.1-1,0.1-1.2,0.1c-2,0.1-2.6,0.1-5,0.2c-1.6,0.1-2.5,0.1-4.1,0.1c-2,0.1-1.4,0-3.4,0.2
		c-1.4,0.2-1.3,0.1-2.8,0.2c-1.4,0.1-3.8,0.1-5.2,0.2c-1.8,0.1-2.5,0.2-4.3,0.3c0-0.8-0.1-1.6-0.2-2.4c-0.1-0.4,0-0.8,0-1.2
		c-0.1-1.2-0.3-2.5-0.2-3.7c0-0.7-0.2-1.3-0.1-1.9c2.1-0.1,3.1-0.1,5.1-0.2c3.4-0.2,5.6-0.3,8.9-0.4c1.8-0.1,2.8-0.2,3.9-0.2
		c0-0.2,0-0.4,0.1-0.5c0.1-2,0.1-4,0.1-6.1c0-1.3,0.3-4.5,0.3-6.1c-0.4,0-0.7-0.1-1-0.1c-1.6-0.1-2.5-0.2-4.1-0.3
		c-2-0.1-3.8,0.1-5.8,0c-1.4,0-0.8-0.3-2.3-0.3c-1.4-0.1-2.6-0.3-4-0.3c-1.8-0.1-2.5-0.1-4.3-0.2c0.1-0.8,0.1-1.6,0.1-2.4
		c-0.1-0.4,0.1-0.8,0.1-1.2c0-1.2,0-2.5,0.2-3.7c0.1-0.6,0-1.2,0.1-1.9c2.1,0.1,3,0.2,5.1,0.3c3.3,0.1,6.2,0.3,9.6,0.5
		c3.3,0.2,3.9,0.2,7.2,0.4c1.4,0.1,6.5,0.2,8.7,0.4c-0.1,0.2-0.1,1.8-0.1,2C86.1,255.5,86,256.4,86,257.5z"/>
	<path class="st18" d="M109.8,273.1c-1.8-0.2-3-0.2-4.2-0.3c0.2-2.3,0.4-5.5,0.7-9.1c2.1,0.2,2.8,0.1,5.3,0.4
		c2.1,0.3,8.3,0.5,10.8,0.5c2.4,0,4.6,0.1,6.4,0c1.7,0,3.1-0.4,4.9-0.4c2.2,0,2.2-0.2,4.5-0.4c0,0.8,0.4,3.2,0.4,3.6
		c0.1,1.2,0.5,2.5,0.4,3.7c-0.1,0.6,0.3,1.2,0.2,1.8c-2.2,0.2-3.9,0.3-6.4,0.5c-4,0.4-7.4,0.1-11.4,0.2
		C117.2,273.6,113.8,273.5,109.8,273.1z"/>
	<path class="st18" d="M193.1,282.4c-0.3,0.3-0.5,0.5-0.8,0.7c-0.9,0.8-3.1,2.7-3.1,2.7l-1.6,1.2l-0.9,0.9c-0.4-0.6-2.1-2.2-2.5-2.8
		c-1.3-1.7-3.6-3.8-5.3-5.1c-1.2-1.2-3.3-2.8-4.6-3.7c-0.4,0.3-0.8,0.6-1.1,0.9c-0.6,0.5-1,1-1.6,1.5c-1.1,1-3.6,3.1-4.8,4.1
		c-1.3,1.2-2.7,2.1-3.5,2.8c-0.5-0.4-0.7-1-1.1-1.4c-1-0.8-1.6-1.9-2.4-2.8c-0.3-0.3-1.8-2.3-2.4-2.8c1.7-1.3,1.9-1.2,3.4-2.6
		c1.1-1.1,2.5-2.1,3.7-3.3c0.5-0.4,1-0.9,1.7-1.3c0.6-0.5,1.1-1.1,1.7-1.7c0.6-0.6,1.3-1.2,2-1.9c1.3-1.4,4.2-4.9,5.5-7
		c-1,0-1.9,0-2.8,0c-3.1,0-6.2-0.1-9.3-0.2c-1.3,0-1.9,0-3.9-0.1c0.2-2.3,0-5,0.2-9.1c1.9,0.1,3.1,0.1,5.3,0.2
		c1.4,0,2.9,0.1,4.4,0.2c1.9,0,3.7-0.1,5.6-0.1c1.3-0.1,3.8,0.2,5.2,0.2c1.3,0,2.4,0.2,3.8,0.2c1.7,0.1,2.2,0,3.9,0.1
		c0,0.8-0.1,1-0.1,1.8c0,0.2,0,0.4-0.1,0.6c0,0.3-0.2,1.4-0.2,1.6c-0.1,0.9-0.3,1.9-0.4,2.6c-0.1,0.7-0.8,1.8-1,2.4
		c-0.7,1.7-1.1,2.1-2,3.7c-0.3,0.7-0.8,1.2-1.2,1.9c-0.5,0.6-1.4,1.9-2.5,3.2c1.2,0.9,2.2,1.9,3.4,2.7c0.6,0.4,2.5,2.1,3,2.6
		c1.3,1.2,4.4,3.6,5.8,5.3l1.3,1.4L193.1,282.4z"/>
</g>
</svg>
