<?xml version="1.0" encoding="utf-8"?>
<!-- Generator: Adobe Illustrator 25.3.0, SVG Export Plug-In . SVG Version: 6.00 Build 0)  -->
<svg version="1.1" id="レイヤー_1" xmlns="http://www.w3.org/2000/svg" xmlns:xlink="http://www.w3.org/1999/xlink" x="0px"
	 y="0px" viewBox="0 0 192 142.1" style="enable-background:new 0 0 192 142.1;" xml:space="preserve">
<style type="text/css">
	.st0{fill:#FFFDFE;stroke:#3C0000;stroke-width:2.28;stroke-miterlimit:10;}
	.st1{fill:#F59F37;}
	.st2{enable-background:new    ;}
	.st3{fill:#FFFFFF;}
</style>
<g>
	<g id="レイヤー_1_2_">
		<path class="st0" d="M27.4,7.7h141.9c8.3,0,15,6.7,15,15v61.8c0,8.3-6.7,15-15,15H27.4c-8.3,0-15-6.7-15-15V22.7
			C12.4,14.4,19.1,7.7,27.4,7.7z"/>
		<path class="st1" d="M32.5,13.8h131.6c8.3,0,15,6.7,15,15v48.8c0,8.3-6.7,15-15,15H32.5c-8.3,0-15-6.7-15-15V28.8
			C17.5,20.5,24.2,13.8,32.5,13.8z"/>
		<g class="st2">
			<path class="st3" d="M76.3,31.3c-0.1,0.5-0.2,0.9-0.2,1.4c-0.1,0.6-0.2,1.2-0.2,1.8c-0.1,0.8-0.2,2-0.3,2.7c-0.3,0-0.6,0-0.8,0
				c-0.2,0-0.3-0.1-0.5-0.1c-0.5,0-0.9,0-1.3-0.1c-0.2,0-0.5,0-0.7-0.1c0.1-0.9,0.3-2.2,0.3-3c0.1-0.9,0.2-1.7,0.2-2.6
				c-1.1,0-2.5,0-2.8,0c-0.2,0-0.3,0-0.5,0c-0.3,2.2-0.7,4.4-0.8,5.1l-0.4,2.1L65.2,38c0-0.3,0.3-2.1,0.4-3c0-0.6,0.2-1.1,0.3-1.7
				c0-0.2,0.2-1,0.3-2.1c-0.2,0-0.4,0-0.6,0c-0.5,0-1.1,0-1.6,0c0-0.3,0-0.6,0-0.9c0-0.2,0-0.3,0-0.5c0-0.4,0-0.9,0-1.3
				c0-0.2,0-0.5,0-0.7c0.6,0,1.3,0,1.9,0c0.3,0,0.6,0,0.8,0c0.2-1.2,0.4-2.1,0.4-2.3c0.1-0.8,0.2-1.5,0.2-2.2c0.3,0,0.6,0.1,0.9,0.1
				c0.2,0,0.3,0.1,0.4,0.1c0.5,0,0.9,0.1,1.3,0.2c0.2,0,0.5,0,0.7,0.1c-0.1,0.9-0.2,1.7-0.3,2.6c0,0.3-0.1,0.9-0.2,1.6
				c1.6,0,4.1,0,4.9,0c0.5,0,0.9,0,1.5,0C76.5,28.9,76.4,30.1,76.3,31.3z"/>
			<path class="st3" d="M95.4,27.8c-0.2,1-0.5,2.3-0.7,3.3c-0.1,0.5-0.3,1-0.5,1.5c-0.3,0.7-0.8,1.3-1.3,1.8
				c-0.3,0.2-0.4,0.5-0.7,0.8c-1,1-2.6,2-3.8,2.7c-0.2,0.1-0.4,0.2-0.6,0.3c-0.2-0.3-0.4-0.7-0.6-1c-0.4-0.6-0.7-1.2-1.1-1.8
				c0.2-0.1,0.4-0.3,0.6-0.4c0.3-0.1,0.5-0.3,0.8-0.5c0.6-0.4,1.4-0.8,2-1.3c0.6-0.6,1.2-1.2,1.6-1.9c0.4-0.6,0.5-1.4,0.7-2.1
				c0.1-0.2,0.1-0.4,0.1-0.6c-1.2,0.1-2.2,0-3.5,0c-1.4,0-2.7,0-4.1-0.2c-0.6-0.1-1.1-0.1-1.5-0.1c0.1-0.8,0.1-2,0.3-3.3
				c0.8,0.1,1,0,1.9,0.1c0.8,0.1,3,0.2,3.9,0.2s1.7,0,2.3,0c0.6,0,1.6,0,2.2,0c0.8,0,2,0,2.3,0C95.6,25.4,95.6,27,95.4,27.8z"/>
			<path class="st3" d="M112.9,34.5l-0.1,0.7c0,0.5-0.2,2.1-0.2,2.1s-0.7-0.1-0.8-0.1c-0.2,0-0.4,0-0.7-0.1
				c-0.5-0.1-2.6-0.2-3.2-0.2c-0.4,0-0.9,0-1.4,0c-0.3,0-0.6,0-0.7,0c-0.2,0-0.4,0-0.6,0s-0.4,0.1-0.6,0.1c-0.3,0-0.5,0-0.6,0.1
				c-0.1,0-0.3,0-0.5,0.1h-0.3c0,0,0-0.7-0.1-0.9c0-0.1,0-0.2,0-0.3s0-0.2,0-0.4s-0.1-1.3-0.1-1.3h0.2c0.3,0,0.6-0.1,0.9-0.1
				c0.2,0,0.4,0,0.7-0.1c0.5,0,1-0.1,1.7-0.1c0-0.1,0-0.2,0-0.3c0-0.3,0-0.5,0-0.8c0-0.2,0-0.4,0-0.7c0-0.1,0-0.3,0-0.5
				c-0.5,0-1,0-1.6-0.1l-0.6-0.1l0.3-2.8c0,0,0.6,0.1,0.8,0.1c0.2,0,0.4,0,0.6,0s0.4,0,0.7,0c0.4,0,0.9,0,1.2,0
				c0.6,0,2.5-0.1,3.1-0.2h0.3l0.3,2.8h-0.3c-0.5,0-1.1,0.1-1.9,0.1c0,0.2,0,0.4,0,0.6c0,0,0,0.5,0,0.6s0,0.2,0,0.2
				c0,0.2,0,0.3,0,0.5s0,0.3,0,0.4c0.8,0,1.6,0.1,2.3,0.1c0.2,0,0.3,0,0.5,0s0.4,0,0.6,0.1L112.9,34.5z"/>
			<path class="st3" d="M133,35.1c0,0-0.4,0.5-0.6,0.8c-0.1,0.1-0.2,0.2-0.2,0.3c-0.1,0.1-0.3,0.4-0.5,0.7c-0.3,0.4-0.7,0.8-0.7,0.8
				l0,0c-0.4-0.3-1-0.8-1-0.8c-1,0.9-2.3,1.2-2.4,1.2c-0.3,0.1-0.7,0.1-1.1,0.1c-0.5,0-1-0.1-1.5-0.2c-0.5-0.1-1-0.2-1.5-0.5
				c0,0-0.6-0.4-0.8-0.5c-0.1-0.1-0.2-0.2-0.3-0.3c-0.2-0.1-0.6-0.5-0.6-0.5c-0.1-0.2-0.2-0.3-0.3-0.5c-0.1-0.2-0.2-0.5-0.3-0.8
				c0-0.1-0.1-0.7-0.1-0.7c0-1,0.3-1.7,0.5-1.9c0.1-0.2,0.2-0.4,0.3-0.5c0.1-0.2,0.2-0.3,0.3-0.5c0.2-0.2,0.9-0.9,1.1-1l0.1-0.1
				c0,0-0.5-0.6-0.6-0.9c-0.2-0.4-0.3-0.7-0.4-1c-0.1-0.2-0.1-0.4-0.1-0.5s0-0.2,0-0.2c-0.1-0.4,0-0.8,0.1-1.1
				c0.1-0.4,0.3-0.7,0.5-1c0-0.1,0.2-0.3,0.2-0.4c0.2-0.2,1-0.8,1.7-1.1l0.3-0.1c0.3-0.1,0.7-0.2,1-0.2c0.1,0,0.4,0,0.5,0
				c0.3,0,0.6,0.1,0.9,0.2c0.7,0.2,1.3,0.5,1.8,0.9c0.1,0.1,0.1,0.1,0.2,0.2c0.1,0.1,0.1,0.2,0.2,0.3c0.2,0.2,0.2,0.4,0.3,0.6
				c0,0.1,0.1,0.2,0.1,0.3c0.1,0.2,0.2,0.5,0.2,0.8c0.2,1.9-1.3,3.4-2.1,4c0.4,0.4,0.7,0.8,0.9,1c0-0.3,0.2-0.8,0.2-0.8
				s1,0.2,1.5,0.3c0.6,0.1,1.5,0.3,1.5,0.3s-0.2,1.3-0.6,2.4c0,0,0.1,0.1,0.2,0.2c0.3,0.3,0.5,0.4,0.7,0.5
				C132.5,34.7,133,35.1,133,35.1z M125,32.4c-0.1,0.1-0.3,0.3-0.3,0.4c0,0.1-0.1,0.3-0.2,0.4c0,0-0.1,0.4,0.1,0.8
				c0.2,0.5,0.8,0.8,1.7,0.8c0,0,0.6,0,1.1-0.3c0,0-0.5-0.5-0.8-0.8c-0.4-0.4-0.9-0.9-1.4-1.4C125.1,32.3,125.1,32.4,125,32.4z
				 M126.7,26.7c-0.1-0.2-0.3-0.4-0.6-0.4c0,0-0.1,0-0.2,0c-0.2,0-0.5,0.1-0.6,0.3c-0.2,0.5-0.1,1,0.2,1.3c0.1,0.1,0.1,0.1,0.1,0.1
				s0.3,0.3,0.4,0.4c0.1-0.1,0.6-0.4,0.8-0.8C126.9,27.4,126.9,27,126.7,26.7z"/>
			<path class="st3" d="M65.8,48.3l3.2,0.8l-0.1,0.2c-0.3,1.2-0.8,2.9-1.2,4c-0.4,1.1-1.4,3.7-2,5c-0.1,0.2-0.2,0.3-0.2,0.4
				l-0.1,0.1l-3.1-1.5l0.1-0.1c0.1-0.2,0.2-0.5,0.4-0.9c0.3-0.6,0.6-1.3,0.7-1.6c0.1-0.2,0.2-0.5,0.3-0.8c0.2-0.5,0.4-1,0.6-1.5
				c0.3-0.8,1-3.5,1.2-4.1v-0.1L65.8,48.3z M79.1,57.8c-0.6,0.8-1.4,1.7-2,2.6c-0.4-0.2-1-0.7-1.4-1c-0.2-0.2-0.7-0.8-1.3-1.3
				c-0.2-0.1-0.2-0.3-0.4-0.4c-0.2-0.3-0.5-0.6-0.8-1c-0.1-0.2-0.3-0.5-0.4-0.7s-0.3-0.5-0.4-0.7c-0.2-0.4-0.7-1.2-0.8-1.6
				c-0.1-0.3-0.3-0.5-0.3-0.9c0-0.2-0.1-0.4-0.2-0.6c-0.1-0.4-0.2-0.8-0.3-1.2c-0.1-0.2-0.1-0.4-0.1-0.5s0-0.2-0.1-0.6
				c0.4-0.1,1.1-0.3,1.7-0.4c0.5-0.1,1.1-0.3,1.5-0.3c0.1,0.3,0.1,0.6,0.2,0.8c0.4,1.7,0.8,2.6,1.1,3.4c0.2,0.5,0.7,1.3,1,1.7
				c0.3,0.5,0.7,0.9,1.1,1.2C77.9,56.8,78.4,57.3,79.1,57.8z M78,46.7c0,0.1,0,0.2,0,0.3c0,0.3-0.1,0.7-0.3,1
				c-0.1,0.2-0.2,0.3-0.4,0.4c-0.1,0.1-0.3,0.3-0.5,0.3c-0.3,0.1-0.5,0.1-0.8,0.1c-0.1,0-0.2,0-0.3,0c-0.2-0.1-0.4-0.2-0.6-0.3
				c-0.1-0.1-0.2-0.1-0.3-0.3c-0.1-0.1-0.2-0.2-0.2-0.3c-0.1-0.2-0.1-0.4-0.2-0.6c0-0.2,0-0.4,0-0.5s0.1-0.3,0.1-0.4
				c0.1-0.3,0.3-0.5,0.5-0.7c0.1-0.1,0.3-0.1,0.4-0.2c0.2-0.2,0.6-0.3,0.9-0.3c0.2,0,0.5,0.1,0.7,0.2c0.1,0,0.4,0.3,0.5,0.4
				c0.2,0.2,0.3,0.3,0.4,0.5C77.9,46.4,78,46.6,78,46.7z M78.5,50.2c-0.1-0.1-0.1-0.1-0.2-0.1c-0.1-0.2-0.2-0.3-0.3-0.5
				c0-0.1,0-0.2,0-0.3s0-0.2,0.1-0.3s0.2-0.2,0.3-0.4c0.1,0,0.1-0.1,0.2-0.1s0.2-0.1,0.4-0.1c0.1,0,0.2-0.1,0.2,0c0.1,0,0.1,0,0.2,0
				s0.2,0.1,0.3,0.2c0.1,0.1,0.1,0.2,0.2,0.2C80,48.9,80,48.9,80,49c0.1,0.2,0.1,0.3,0.1,0.5c0,0.1-0.1,0.2-0.1,0.2
				c0,0.2-0.1,0.3-0.2,0.5c-0.1,0.1-0.2,0.1-0.3,0.2c0,0-0.3,0.1-0.4,0.1s-0.2,0-0.4-0.1C78.6,50.3,78.5,50.3,78.5,50.2z"/>
			<path class="st3" d="M87.1,54.5c0,0.1-1.9,0-2,0s-1.3,0-1.3,0c0-0.9,0-1,0-1.9c0.1-1,0-1.9,0-2.9c0.1-0.6,0-1.7,0-2.3
				c0.3,0,0.6,0,1,0c0.2,0,0.3,0,0.5,0c0.4,0,0.7,0,1.1,0c0.3,0,0.5,0,0.8,0c0,0.6,0,1.7,0,2.3c0,0.1,0,0.3,0,0.4c0,0.4,0,0.8,0,1.2
				c0,0.3,0,0.6,0,1C87,53.3,87.1,53.5,87.1,54.5z M94.3,52.6c0.1,0.5-0.1,1.1-0.2,1.6c-0.1,0.8-0.5,1.4-0.9,2.1
				c-0.2,0.3-0.3,0.6-0.5,0.9c-0.8,1.2-1.8,2.3-2.8,3.3c-0.2,0.2-0.3,0.3-0.5,0.5c-0.3-0.3-0.6-0.6-0.9-0.9c-0.5-0.5-1-1-1.5-1.5
				c0.2-0.2,0.3-0.4,0.5-0.5c0.2-0.2,0.4-0.4,0.6-0.7c0.5-0.5,1-1,1.4-1.7s0.9-1.4,1.2-2.2c0.2-0.7,0.2-1.5,0.2-2.2
				c0-0.3,0-0.6,0-0.8c0-0.8,0-2,0-2.8c0-0.2,0-0.5,0-0.7s0-0.2,0-0.4c0.3,0,0.6,0,0.8,0c0.2,0,0.5,0,0.7,0s0.5,0,0.8,0s0.7,0,1,0
				c0,0.5,0,0.5,0,1.4C94.4,49,94.4,51.5,94.3,52.6z"/>
			<path class="st3" d="M114.8,58.9c-0.1,0.1-0.2,0.2-0.3,0.3c-0.3,0.3-1.1,1-1.1,1l-0.6,0.4l-0.3,0.3c-0.2-0.2-0.8-0.8-0.9-1
				c-0.5-0.6-1.3-1.4-1.9-1.8c-0.4-0.4-1.2-1-1.7-1.4c-0.1,0.1-0.3,0.2-0.4,0.3c-0.2,0.2-0.4,0.4-0.6,0.5c-0.4,0.4-1.3,1.1-1.7,1.5
				c-0.5,0.4-1,0.8-1.3,1c-0.2-0.1-0.3-0.4-0.4-0.5c-0.4-0.3-0.6-0.7-0.9-1c-0.1-0.1-0.7-0.8-0.9-1c0.6-0.5,0.7-0.4,1.2-1
				c0.4-0.4,0.9-0.8,1.4-1.2c0.2-0.2,0.4-0.3,0.6-0.5s0.4-0.4,0.6-0.6c0.2-0.2,0.5-0.5,0.7-0.7c0.5-0.5,1.5-1.8,2-2.5
				c-0.4,0-0.7,0-1,0c-1.1,0-2.3,0-3.4-0.1c-0.5,0-0.7,0-1.4,0c0.1-0.8,0-1.8,0.1-3.3c0.7,0,1.1,0,1.9,0.1c0.5,0,1.1,0,1.6,0.1
				c0.7,0,1.4,0,2,0c0.5,0,1.4,0.1,1.9,0.1s0.9,0.1,1.4,0.1c0.6,0,0.8,0,1.4,0c0,0.3,0,0.4,0,0.7c0,0.1,0,0.2,0,0.2
				c0,0.1-0.1,0.5-0.1,0.6c0,0.3-0.1,0.7-0.2,1c0,0.2-0.3,0.6-0.4,0.9c-0.2,0.6-0.4,0.8-0.7,1.4c-0.1,0.2-0.3,0.5-0.4,0.7
				c-0.2,0.2-0.5,0.7-0.9,1.1c0.4,0.3,0.8,0.7,1.2,1c0.2,0.2,0.9,0.8,1.1,1c0.5,0.5,1.6,1.3,2.1,1.9L115,59L114.8,58.9z"/>
			<path class="st3" d="M133,49.9c0,0.1-0.1,0.7-0.1,0.8c-0.1,0.4-0.2,0.9-0.3,1.3c-0.1,0.5-0.3,1.4-0.3,1.5
				c-0.1,0.5-0.3,1.1-0.4,1.6c-0.3,0.6-0.5,1.1-0.8,1.7c-0.2,0.4-0.5,0.8-0.7,1.2c-0.2,0.3-0.5,0.9-0.8,1.2
				c-0.4,0.6-0.8,1.2-1.2,1.7c-0.1,0.2-0.2,0.4-0.4,0.5c-0.2-0.1-0.5-0.4-0.8-0.5c-0.7-0.5-1.4-1-1.9-1.4c0.2-0.2,0.4-0.5,0.6-0.8
				c0.3-0.4,0.7-1,1-1.4c0.1-0.2,0.2-0.4,0.4-0.6c-0.7-0.2-1.5-0.6-2-0.7l-1.3-0.5l1.2-3c0.3,0.1,1.5,0.6,2.3,0.8
				c0.5,0.1,0.8,0.3,1.2,0.4l0.1-0.3c0.2-0.5,0.3-1,0.4-1.5c-1.1-0.3-2.9-0.8-4.2-1.2c-0.7,1.3-1.5,2.8-2.3,4
				c-0.1,0.2-0.2,0.3-0.3,0.5l-2.7-1.9c0.3-0.5,0.6-0.8,0.9-1.3s0.9-1.6,1.4-2.4c0.4-0.8,1.6-3.3,1.9-4l0,0l3.1,1.3
				c-0.1,0.3-0.3,0.6-0.4,0.9c0.1,0.1,0.3,0.1,0.4,0.1c0.6,0.2,3.7,1.1,4.2,1.2c0.7,0.2,1.2,0.3,1.9,0.5
				C133,49.8,133.1,49.6,133,49.9z"/>
			<path class="st3" d="M85.3,72.4c0,0.4,0,0.9-0.1,1.4c-0.1,1.1-0.1,2.5-0.2,3.5c0,1.2-0.1,2.2-0.2,3.4c0,0.5,0,0.4-0.1,1.2
				c-0.1,0-0.4,0-0.5,0c-0.7,0-0.9,0-1.8,0.1c-0.6,0-0.9,0-1.5,0c-0.7,0-0.5,0-1.2,0.1c-0.5,0.1-0.5,0-1,0.1c-0.5,0-1.4,0-1.9,0.1
				c-0.7,0-0.9,0.1-1.6,0.1c0-0.3,0-0.6-0.1-0.9c0-0.2,0-0.3,0-0.4c0-0.4-0.1-0.9-0.1-1.3c0-0.2-0.1-0.5,0-0.7c0.8,0,1.1,0,1.9-0.1
				c1.2-0.1,2-0.1,3.2-0.2c0.7,0,1-0.1,1.4-0.1c0-0.1,0-0.1,0-0.2c0-0.7,0-1.5,0-2.2c0-0.5,0.1-1.6,0.1-2.2c-0.1,0-0.3,0-0.4,0
				c-0.6,0-0.9-0.1-1.5-0.1c-0.7,0-1.4,0-2.1,0c-0.5,0-0.3-0.1-0.8-0.1s-0.9-0.1-1.4-0.1c-0.7,0-0.9,0-1.6-0.1c0-0.3,0-0.6,0-0.9
				c0-0.2,0-0.3,0-0.4c0-0.5,0-0.9,0.1-1.4c0-0.2,0-0.5,0-0.7c0.8,0,1.1,0.1,1.9,0.1c1.2,0,2.3,0.1,3.5,0.2s1.4,0.1,2.6,0.1
				c0.5,0,2.4,0.1,3.2,0.1c0,0.1,0,0.7,0,0.7C85.4,71.7,85.4,72,85.3,72.4z"/>
			<path class="st3" d="M94,78.1C93.4,78,92.9,78,92.5,78c0.1-0.8,0.1-2,0.3-3.3c0.8,0.1,1,0,1.9,0.1c0.8,0.1,3,0.2,3.9,0.2
				s1.7,0,2.3,0c0.6,0,1.1-0.1,1.8-0.2c0.8,0,0.8-0.1,1.6-0.2c0,0.3,0.2,1.1,0.2,1.3c0,0.5,0.2,0.9,0.1,1.4c0,0.2,0.1,0.4,0.1,0.7
				c-0.8,0.1-1.4,0.1-2.3,0.2c-1.5,0.1-2.7,0-4.2,0.1C96.7,78.3,95.4,78.2,94,78.1z"/>
			<path class="st3" d="M124.2,81.5c-0.1,0.1-0.2,0.2-0.3,0.3c-0.3,0.3-1.1,1-1.1,1l-0.6,0.4l-0.3,0.3c-0.2-0.2-0.8-0.8-0.9-1
				c-0.5-0.6-1.3-1.4-1.9-1.8c-0.4-0.4-1.2-1-1.7-1.4c-0.1,0.1-0.3,0.2-0.4,0.3c-0.2,0.2-0.4,0.4-0.6,0.5c-0.4,0.4-1.3,1.1-1.7,1.5
				c-0.5,0.4-1,0.8-1.3,1c-0.2-0.1-0.3-0.4-0.4-0.5c-0.4-0.3-0.6-0.7-0.9-1c-0.1-0.1-0.7-0.8-0.9-1c0.6-0.5,0.7-0.4,1.2-1
				c0.4-0.4,0.9-0.8,1.4-1.2c0.2-0.2,0.4-0.3,0.6-0.5s0.4-0.4,0.6-0.6s0.5-0.5,0.7-0.7c0.5-0.5,1.5-1.8,2-2.5c-0.4,0-0.7,0-1,0
				c-1.1,0-2.3,0-3.4-0.1c-0.5,0-0.7,0-1.4,0c0.1-0.8,0-1.8,0.1-3.3c0.7,0,1.1,0,1.9,0.1c0.5,0,1.1,0,1.6,0.1c0.7,0,1.4,0,2,0
				c0.5,0,1.4,0.1,1.9,0.1s0.9,0.1,1.4,0.1c0.6,0,0.8,0,1.4,0c0,0.3,0,0.4,0,0.7c0,0.1,0,0.2,0,0.2c0,0.1-0.1,0.5-0.1,0.6
				c0,0.3-0.1,0.7-0.2,1c0,0.2-0.3,0.6-0.4,0.9c-0.2,0.6-0.4,0.8-0.7,1.4c-0.1,0.2-0.3,0.4-0.4,0.7c-0.2,0.2-0.5,0.7-0.9,1.1
				c0.4,0.3,0.8,0.7,1.2,1c0.2,0.2,0.9,0.8,1.1,1c0.5,0.5,1.6,1.3,2.1,1.9l0.5,0.5L124.2,81.5z"/>
		</g>
		<polygon class="st1" points="98.3,124.1 112.3,99.9 84.4,99.9 		"/>
	</g>
</g>
</svg>
