<?xml version="1.0" encoding="utf-8"?>
<!-- Generator: Adobe Illustrator 25.3.0, SVG Export Plug-In . SVG Version: 6.00 Build 0)  -->
<svg version="1.1" id="レイヤー_1" xmlns="http://www.w3.org/2000/svg" xmlns:xlink="http://www.w3.org/1999/xlink" x="0px"
	 y="0px" viewBox="0 0 192 142.1" style="enable-background:new 0 0 192 142.1;" xml:space="preserve">
<style type="text/css">
	.st0{fill:#FFFDFE;stroke:#3C0000;stroke-width:2.28;stroke-miterlimit:10;}
	.st1{fill:#91C04F;}
	.st2{enable-background:new    ;}
	.st3{fill:#FFFFFF;}
</style>
<g>
	<g id="レイヤー_1_1_">
		<path class="st0" d="M27.4,7.7h141.9c8.3,0,15,6.7,15,15v61.8c0,8.3-6.7,15-15,15H27.4c-8.3,0-15-6.7-15-15V22.7
			C12.4,14.4,19.1,7.7,27.4,7.7z"/>
		<path class="st1" d="M32.5,13.8h131.6c8.3,0,15,6.7,15,15v48.8c0,8.3-6.7,15-15,15H32.5c-8.3,0-15-6.7-15-15V28.8
			C17.5,20.5,24.2,13.8,32.5,13.8z"/>
		<g class="st2">
			<path class="st3" d="M52.9,35.7l3.4,0.9l-0.1,0.2c-0.4,1.3-0.9,3.1-1.3,4.3c-0.4,1.2-1.6,4-2.2,5.4c-0.1,0.2-0.2,0.3-0.2,0.5
				l-0.1,0.1l-3.3-1.6l0.1-0.1c0.1-0.2,0.3-0.5,0.4-1c0.3-0.7,0.7-1.4,0.8-1.7c0.1-0.2,0.2-0.5,0.4-0.9c0.2-0.5,0.5-1.1,0.6-1.6
				c0.3-0.8,1.1-3.8,1.3-4.5v-0.2L52.9,35.7z M67.3,46c-0.7,0.9-1.5,1.9-2.2,2.8c-0.4-0.3-1.1-0.7-1.5-1.1c-0.2-0.2-0.8-0.8-1.4-1.4
				c-0.2-0.1-0.3-0.3-0.4-0.5c-0.3-0.4-0.6-0.7-0.8-1.1c-0.1-0.2-0.3-0.5-0.4-0.7c-0.1-0.3-0.3-0.5-0.4-0.8
				c-0.2-0.5-0.7-1.3-0.9-1.8c-0.1-0.3-0.3-0.6-0.3-0.9c0-0.2-0.1-0.4-0.2-0.7c-0.1-0.4-0.3-0.8-0.4-1.3c-0.1-0.2-0.1-0.4-0.1-0.5
				s0-0.3-0.1-0.7c0.4-0.1,1.2-0.3,1.9-0.4c0.5-0.1,1.2-0.3,1.6-0.4c0.1,0.3,0.1,0.6,0.2,0.9c0.4,1.8,0.8,2.8,1.2,3.7
				c0.2,0.5,0.8,1.4,1.1,1.9s0.7,1,1.2,1.3C66,44.9,66.6,45.4,67.3,46z M66.8,32.7c0.3,0.1,0.6,0.2,0.9,0.4s0.5,0.5,0.7,0.8
				s0.2,0.6,0.3,0.9c0.1,0.1,0,0.3,0,0.4c0,0.2,0,0.3,0,0.5c0,0.1-0.1,0.2-0.1,0.4c-0.1,0.3-0.1,0.6-0.3,0.8
				c-0.1,0.2-0.2,0.4-0.4,0.6c-0.1,0.1-0.3,0.2-0.4,0.3c-0.2,0.1-0.3,0.3-0.5,0.3c-0.2,0.1-0.4,0.1-0.6,0.2c-0.1,0-0.2,0.1-0.4,0.1
				c-0.2,0-0.5,0-0.8,0c-0.4,0-0.8-0.1-1.1-0.4c-0.2-0.2-0.5-0.4-0.7-0.5c-0.3-0.2-0.5-0.5-0.6-0.9c-0.1-0.2-0.2-0.4-0.2-0.7
				c0-0.2-0.1-0.4,0-0.6c0-0.2,0.1-0.5,0.1-0.7c0.1-0.3,0.3-0.6,0.4-0.9c0.2-0.4,0.5-0.7,0.8-0.8s0.4-0.2,0.7-0.3s0.7-0.1,1-0.2
				c0.2,0,0.3,0,0.5,0.1C66.5,32.6,66.7,32.6,66.8,32.7z M66.2,34.4c-0.1-0.1-0.3-0.1-0.4-0.1s-0.3,0-0.4,0.1s-0.2,0.1-0.3,0.2
				c-0.2,0.2-0.3,0.4-0.4,0.6c0,0.2,0,0.4,0,0.5c0.1,0.2,0.2,0.5,0.4,0.6c0.2,0.1,0.5,0.3,0.8,0.3c0.3-0.1,0.6-0.1,0.8-0.3
				c0.2-0.2,0.3-0.5,0.3-0.8s-0.1-0.6-0.3-0.8C66.5,34.6,66.3,34.5,66.2,34.4z"/>
			<path class="st3" d="M84.9,43.6c-0.9,0-1.1,0-2.2,0c-0.7,0-1.1,0-1.8,0c-0.3,0-0.6,0-0.9,0c-0.1,0.4-0.2,0.8-0.3,1.2
				c-0.1,0.3-0.3,1.1-0.4,1.5c-0.2,0.7-0.4,1.5-0.7,2.2c-0.1,0.2-0.1,0.4-0.2,0.7c-0.2-0.1-0.7-0.2-1-0.3c-0.8-0.2-1.8-0.6-2.4-0.8
				c0.1-0.3,0.2-0.6,0.3-1c0.1-0.5,0.4-1.3,0.5-1.8c0.1-0.3,0.3-0.8,0.3-1.1c0-0.2,0.1-0.4,0.1-0.5c-0.4,0-0.7,0-0.9,0
				c-0.6,0-1.6-0.1-2.3-0.1c-0.8,0-1.1,0-1.9,0c0-0.3,0-0.6,0-0.9c0-0.2,0-0.3,0-0.5c0-0.5,0-1,0-1.4c0-0.2,0-0.5,0-0.7
				c0.9,0,1.3,0,2.2,0c1.5,0,4.2,0,5.7,0c1.4,0,2.6,0.1,4.1,0.1c0.7,0,0.6,0,1.5,0.1C84.9,41,85,42.1,84.9,43.6z M73.7,37.8
				c-0.7-0.1-1.1-0.1-1.5-0.2c0.1-0.9,0.2-2.2,0.5-3.5c0.8,0.1,1,0.1,1.9,0.3c0.8,0.1,3,0.4,3.9,0.4c0.9,0.1,1.2,0,1.9,0.1
				c0.7,0,1.2-0.1,1.8-0.1c0.8,0,0.8,0,1.7-0.1c0,0.3,0.1,1.3,0.1,1.4c0,0.5,0.1,1,0,1.5c0,0.2,0.1,0.5,0,0.7c-0.8,0-1.4,0-2.4,0.1
				c-1.5,0.1-2.2,0-3.7-0.1C76.4,38.1,75.2,38,73.7,37.8z"/>
			<path class="st3" d="M104,40c0,0-0.4,0.4-0.5,0.4l-0.1,0.1c-0.6,0.6-1.2,1.1-1.7,1.6c0,0.1-0.1,0.1-0.2,0.2
				c-0.2,0.2-0.7,0.5-1,0.7c0,0.2,0,0.3,0,0.5s0,0.4,0,0.7c0,0.2,0,2,0,2.2v0.7c0,0.5,0,1.7,0,1.7h-3.1v-1.3c0-0.4,0-0.9,0-1.2
				c0-0.5,0-1.2,0-1.8c-0.1,0-0.2,0.1-0.4,0.1c-0.2,0.1-0.8,0.2-1.1,0.3c-0.5,0.1-1.7,0.4-1.7,0.4c-0.1,0-0.6,0.1-0.6,0.1
				s-0.3-1.5-0.4-1.8s-0.3-1.2-0.3-1.2s2.1-0.4,2.2-0.5c0.1,0,0.3-0.1,0.4-0.1s0.3-0.1,0.4-0.1c0.4-0.1,0.6-0.2,1-0.4
				c0.1-0.1,0.3-0.2,0.5-0.3s0.4-0.2,0.5-0.3c0.3-0.2,0.7-0.4,1.1-0.7c0.2-0.2,0.4-0.4,0.7-0.5c0.1,0,1.1-1,1.2-1.1
				c0.2-0.2,0.3-0.3,0.5-0.5l0.2-0.2L104,40z"/>
			<path class="st3" d="M116.9,43.3c-0.3,0-0.5,0-0.9,0s-0.8,0-1.3,0.1c-0.3,0-0.5,0-0.8,0s-0.5-0.1-0.8,0c-0.4,0-0.5,0-0.9,0
				c0-0.3,0-0.6,0-0.9c0-0.2,0-0.3,0-0.5c0-0.5,0-1,0-1.4c0-0.2,0-0.5,0-0.8c0.4,0,0.6,0,1.1,0c0.7,0,1.3,0,2,0s1.2,0,1.9,0
				c0.3,0,0.3,0,0.7,0c0,0.9,0,2,0,3.6C117.5,43.3,117.4,43.3,116.9,43.3z M113.9,37.4c-0.3-0.1-0.3-0.1-0.8-0.2
				c0.3-0.9,0.5-1.9,0.9-3.4c0.4,0.1,0.6,0.2,1.1,0.3c0.4,0.1,0.6,0.2,0.9,0.3c0.4,0.1,0.9,0.2,1.4,0.3c0.3,0.1,0.6,0.2,0.9,0.3
				s0.6,0.2,0.9,0.3c0.4,0.1,0.6,0.1,1,0.2c-0.1,0.3-0.2,0.6-0.2,0.9c0,0.2-0.1,0.3-0.1,0.5c-0.1,0.5-0.2,0.9-0.3,1.4
				c-0.1,0.2-0.1,0.5-0.2,0.7c-0.5-0.1-0.7-0.2-1.1-0.3c-0.8-0.2-1.4-0.3-2.2-0.5C115.2,37.8,114.6,37.6,113.9,37.4z M126,44.2
				c-0.3,0.1-0.8,0.3-1.1,0.5c-0.3,0.1-0.7,0.3-1,0.4c-0.8,0.4-1.5,1.1-2.1,1.6c-0.3,0.2-0.6,0.5-0.9,0.8c-0.4,0.4-0.8,0.9-1.1,1.3
				c-0.1,0.1-0.2,0.2-0.3,0.4c-0.3-0.2-0.7-0.4-1-0.6c-0.2-0.1-0.4-0.2-0.5-0.3c-0.4-0.3-1.1-0.8-1.5-1c0.2-0.4,0.5-0.9,0.8-1.4
				c0.1-0.2,0.4-0.4,0.5-0.6c0.5-0.5,1.1-1,1.6-1.5c0.2-0.2,0.5-0.3,0.7-0.5c0.6-0.4,1.5-1.2,2.2-1.5c0.3-0.1,0.6-0.3,0.9-0.4
				c0.3-0.1,0.5-0.2,0.8-0.3s0.6-0.3,0.9-0.3c0,0,0.3,1,0.3,1.1s0.2,0.7,0.2,0.7c0,0.1,0,0.1,0,0.1c0.1,0.1,0.2,0.3,0.2,0.4
				C125.8,43.5,125.9,43.8,126,44.2z"/>
			<path class="st3" d="M146.5,44.4c-0.1,0.9-0.1,2.2-0.3,3.6c-0.8-0.1-1.1-0.1-2.1-0.2c-0.8-0.1-4.1-0.3-5.1-0.3
				c-0.9,0-2.6,0.1-3.3,0.1s-1.2,0.2-1.9,0.2c-0.9,0-0.9,0.1-1.7,0.2c0-0.3-0.1-1.2-0.1-1.4c0-0.5-0.2-1-0.1-1.4
				c0-0.2-0.1-0.5-0.1-0.7c0.9-0.1,1.5-0.1,2.5-0.2c0.9-0.1,2-0.1,3-0.1c0-0.2,0-0.4,0-0.8c0.1-0.8,0-1.5,0-2.3c0-0.3,0-0.8,0-1.2
				c-0.9,0-1.9,0-2.8-0.1c-0.2,0-0.4,0-0.6-0.1l0.4-3.6c0.6,0,1.1,0.1,1.7,0.2c0.7,0,2,0.1,3,0.1s4-0.2,4.8-0.3l0,0l0.4,3.6
				c-1,0.1-2.2,0.2-3.3,0.2c0,0.4,0,0.9,0,1.2c0,0.1,0,0.2,0,0.3c0,0.3,0,0.7,0,1s0,0.5,0,0.8c0,0.5,0,0.7,0,1
				c1.3,0,2.8,0.1,3.9,0.2C145.5,44.3,146,44.3,146.5,44.4z"/>
			<path class="st3" d="M84.3,61.8c0,0.4,0,1-0.1,1.5c-0.1,1.2-0.1,2.7-0.2,3.8c0,1.3-0.1,2.4-0.2,3.7c0,0.6,0,0.5-0.1,1.3
				c-0.1,0-0.4,0-0.5,0c-0.8,0-1,0-2,0.1c-0.6,0-1,0-1.6,0c-0.8,0-0.5,0-1.3,0.1c-0.5,0.1-0.5,0-1.1,0.1c-0.6,0-1.5,0-2,0.1
				c-0.7,0-1,0.1-1.7,0.1c0-0.3,0-0.6-0.1-0.9c0-0.2,0-0.3,0-0.5c0-0.5-0.1-1-0.1-1.4c0-0.3-0.1-0.5,0-0.8c0.8,0,1.2,0,2-0.1
				c1.3-0.1,2.2-0.1,3.5-0.2c0.7,0,1.1-0.1,1.5-0.1c0-0.1,0-0.1,0-0.2c0-0.8,0-1.6,0-2.4c0-0.5,0.1-1.8,0.1-2.4c-0.1,0-0.3,0-0.4,0
				c-0.6,0-1-0.1-1.6-0.1c-0.8,0-1.5,0-2.3,0c-0.6,0-0.3-0.1-0.9-0.1c-0.5,0-1-0.1-1.6-0.1c-0.7,0-1,0-1.7-0.1c0-0.3,0-0.6,0-0.9
				c0-0.2,0-0.3,0-0.5c0-0.5,0-1,0.1-1.5c0-0.2,0-0.5,0-0.7c0.8,0,1.2,0.1,2,0.1c1.3,0,2.4,0.1,3.8,0.2c1.3,0.1,1.5,0.1,2.8,0.1
				c0.6,0,2.6,0.1,3.4,0.1c0,0.1,0,0.7,0,0.8C84.3,61.1,84.3,61.4,84.3,61.8z"/>
			<path class="st3" d="M93.6,68c-0.7-0.1-1.2-0.1-1.7-0.1c0.1-0.9,0.1-2.2,0.3-3.6c0.8,0.1,1.1,0,2.1,0.1c0.8,0.1,3.3,0.2,4.2,0.2
				s1.8,0,2.5,0s1.2-0.1,1.9-0.2c0.9,0,0.9-0.1,1.7-0.2c0,0.3,0.2,1.2,0.2,1.4c0,0.5,0.2,1,0.1,1.5c0,0.2,0.1,0.5,0.1,0.7
				c-0.9,0.1-1.5,0.1-2.5,0.2c-1.6,0.1-2.9,0-4.5,0.1C96.5,68.2,95.2,68.1,93.6,68z"/>
			<path class="st3" d="M126.3,71.6c-0.1,0.1-0.2,0.2-0.3,0.3c-0.4,0.3-1.2,1.1-1.2,1.1l-0.6,0.5l-0.4,0.3c-0.2-0.2-0.8-0.9-1-1.1
				c-0.5-0.7-1.4-1.5-2.1-2c-0.5-0.5-1.3-1.1-1.8-1.5c-0.1,0.1-0.3,0.2-0.4,0.3c-0.2,0.2-0.4,0.4-0.6,0.6c-0.4,0.4-1.4,1.2-1.9,1.6
				c-0.5,0.5-1.1,0.8-1.4,1.1c-0.2-0.1-0.3-0.4-0.4-0.5c-0.4-0.3-0.6-0.8-1-1.1c-0.1-0.1-0.7-0.9-0.9-1.1c0.7-0.5,0.8-0.5,1.3-1
				c0.4-0.4,1-0.8,1.5-1.3c0.2-0.2,0.4-0.4,0.7-0.5c0.2-0.2,0.4-0.4,0.7-0.7c0.2-0.2,0.5-0.5,0.8-0.8c0.5-0.6,1.7-1.9,2.2-2.7
				c-0.4,0-0.8,0-1.1,0c-1.2,0-2.4,0-3.6-0.1c-0.5,0-0.7,0-1.5,0c0.1-0.9,0-2,0.1-3.6c0.7,0,1.2,0,2.1,0.1c0.6,0,1.1,0,1.7,0.1
				c0.7,0,1.5,0,2.2,0c0.5,0,1.5,0.1,2,0.1s1,0.1,1.5,0.1c0.7,0,0.9,0,1.5,0c0,0.3,0,0.4,0,0.7c0,0.1,0,0.2,0,0.2
				c0,0.1-0.1,0.5-0.1,0.6c0,0.4-0.1,0.8-0.2,1c0,0.3-0.3,0.7-0.4,1c-0.3,0.7-0.4,0.8-0.8,1.5c-0.1,0.3-0.3,0.5-0.5,0.7
				s-0.5,0.7-1,1.2c0.5,0.3,0.9,0.7,1.3,1.1c0.2,0.2,1,0.8,1.2,1c0.5,0.5,1.7,1.4,2.3,2.1l0.5,0.5L126.3,71.6z"/>
		</g>
		<polygon class="st1" points="98.3,124.1 112.3,99.9 84.4,99.9 		"/>
	</g>
</g>
</svg>
