<?xml version="1.0" encoding="utf-8"?>
<!-- Generator: Adobe Illustrator 25.3.0, SVG Export Plug-In . SVG Version: 6.00 Build 0)  -->
<svg version="1.1" id="Layer_1" xmlns="http://www.w3.org/2000/svg" xmlns:xlink="http://www.w3.org/1999/xlink" x="0px" y="0px"
	 viewBox="0 0 66.3 89.4" style="enable-background:new 0 0 66.3 89.4;" xml:space="preserve">
<style type="text/css">
	.st0{fill:#FFB8C8;stroke:#3C0000;stroke-width:1.0905;stroke-miterlimit:10;}
	.st1{fill:#D26088;stroke:#3C0000;stroke-width:0.74;stroke-miterlimit:10;}
	.st2{fill:#69A62C;stroke:#3C0000;stroke-width:0.74;stroke-miterlimit:10;}
	.st3{fill:#D26088;}
</style>
<path class="st0" d="M33.2,80.5h-7.1l0.9,6.8c0.1,0.9,0.8,1.6,1.7,1.7H38c1-0.1,1.7-0.9,1.7-1.8l0.5-6.7H33.2z"/>
<rect x="39.5" y="69.6" class="st1" width="0.6" height="11.5"/>
<rect x="37.8" y="69.6" class="st1" width="0.6" height="11.5"/>
<rect x="28" y="70.1" class="st1" width="0.6" height="11.5"/>
<rect x="26.2" y="70.1" class="st1" width="0.6" height="11.5"/>
<rect x="26.3" y="80.5" class="st0" width="13.8" height="1.8"/>
<path class="st2" d="M0.4,28c0,4.2,1.1,8.2,3.2,11.8l0,0L3.6,40l0.2,0.3c0.1,0.2,0.2,0.4,0.4,0.6l0.2,0.3l0.2,0.3l0.2,0.3l0.2,0.3
	c0.1,0.1,0.1,0.2,0.2,0.3l0,0l0.2,0.3c0.1,0.1,0.2,0.2,0.3,0.4s0.2,0.3,0.3,0.4H5.8L6.4,44l17.3,19.1l2.2,2.5h14.5l2.2-2.5
	l17.3-19.1l0.6-0.6h-0.1l0.3-0.4c0.1-0.1,0.2-0.2,0.3-0.3l0.1-0.2l0,0c0.2-0.2,0.3-0.4,0.5-0.7l0.2-0.2l0.2-0.4l0.2-0.3l0.4-0.7
	l0.2-0.3c0-0.1,0.1-0.1,0.1-0.2C64.9,36.2,66,32.2,66,28c0-1.5-0.1-3-0.4-4.4c-0.1-0.3-0.1-0.6-0.2-1c0-0.1-0.1-0.3-0.1-0.4
	c-1.5-5.4-4.6-10.2-8.9-13.7c-6.5-5.3-14.8-8.2-23.2-8.1C17.4,0.4,4.2,9.7,1.1,22.2c0,0.1-0.1,0.3-0.1,0.4s-0.1,0.5-0.2,0.8
	C0.5,24.9,0.4,26.5,0.4,28z"/>
<path class="st0" d="M66,28c0,1.1-0.1,2.1-0.2,3.2c-0.3,2-0.8,4-1.6,5.8c-0.4,1-0.9,1.9-1.4,2.8c0,0.1-0.1,0.1-0.1,0.2
	c-0.1,0.1-0.1,0.2-0.2,0.3L62.1,41l-0.2,0.3l-0.2,0.4l-0.2,0.2c-0.2,0.2-0.3,0.5-0.5,0.7l0,0v0.1c0,0,0,0.1-0.1,0.1L60.7,43
	l-0.3,0.4h0.1L60,44l-1.4,1.5l-16,17.6l-2.2,2.5H25.9l-2.2-2.5l-16-17.6L6.4,44l-0.6-0.6h0.1c-0.1-0.1-0.2-0.3-0.3-0.4l-0.3-0.4l0,0
	l-0.2-0.2l-0.2-0.3c-0.1-0.1-0.1-0.2-0.2-0.3l-0.2-0.3l-0.2-0.3l-0.2-0.3c-0.1-0.2-0.2-0.4-0.4-0.6s-0.1-0.2-0.2-0.3l-0.1-0.2
	C3,38.9,2.5,38,2.1,37c-0.8-1.9-1.3-3.8-1.6-5.8c-0.1-1.1-0.2-2.1-0.2-3.2c0-1.6,0.2-3.1,0.4-4.6c0.1-0.3,0.1-0.5,0.2-0.8
	C1,22.4,1,22.4,1.1,22.2c1.2-4.4,3.5-8.4,6.7-11.7c1-1.1,2.1-2,3.3-2.9c6.4-4.8,14.2-7.4,22.2-7.3c8-0.1,15.8,2.5,22.2,7.3
	c0.3,0.3,0.7,0.5,1,0.8c0.8,0.7,1.5,1.4,2.2,2.1c3.2,3.2,5.5,7.2,6.6,11.6c0,0.1,0.1,0.3,0.1,0.4c0.1,0.3,0.1,0.6,0.2,0.9
	C65.8,25,66,26.5,66,28z"/>
<path class="st0" d="M26.3,65.6h13.8c0.2,0,0.4,0.2,0.4,0.4v4.3c0,0.2-0.2,0.4-0.4,0.4H26.3c-0.2,0-0.4-0.2-0.4-0.4V66
	C25.9,65.8,26.1,65.6,26.3,65.6z"/>
<g>
	<path class="st3" d="M32.5,40.8l-0.3,0.3c-0.1,0.1-0.3,0.2-0.5,0.4c-0.2,0.2-0.4,0.4-0.6,0.5c-2.3,2.2-4.1,3.6-5.2,4.4
		c-1.2,0.8-2.2,1.2-3.1,1.2c-1.2,0-2.2-0.4-3-1.1c-0.8-0.7-1.2-1.7-1.2-2.8c0-1.3,0.5-2.4,1.6-3.5c0.3-0.3,1-0.9,2.2-1.8
		c1.9-1.4,3.1-2.5,3.9-3.2c0.8-0.8,1.5-1.6,2.2-2.4c-0.8-1.8-1.7-3.5-2.5-4.9c-0.5-0.9-1-1.7-1.5-2.4c-0.7-1-1.3-1.8-2-2.4
		s-1.3-1.2-1.9-1.6c-0.8-0.5-1.2-0.9-1.2-1.3c0-0.4,0.4-0.7,1.2-1s1.8-0.4,2.9-0.4c2.7,0,5,0.7,7,2.1c0.5,0.4,1,0.7,1.4,1
		s0.9,0.7,1.4,1.3c0.6,0.6,1.2,1.1,1.8,1.8c1.6-2.1,3.2-3.8,4.8-4.9c1.6-1.1,3-1.7,4.2-1.7c0.9,0,1.7,0.2,2.4,0.5
		c0.8,0.3,1.2,0.7,1.2,1c0,0.8-0.3,1.7-1,2.7c-0.7,1.1-1.7,2.5-3.3,4.2c-1.2,1.5-2,2.4-2.2,2.7c-0.3,0.3-0.7,1-1.5,2.2l7.3,11.6
		c0.4,0.7,0.6,1.3,0.6,1.7c0,0.8-0.7,1.6-2,2.3c-1.3,0.7-2.7,1.1-4.3,1.1c-2.8,0-4.9-1-6.4-3C34.4,44.2,33.5,42.8,32.5,40.8z"/>
</g>
</svg>
