<?xml version="1.0" encoding="utf-8"?>
<!-- Generator: Adobe Illustrator 25.3.0, SVG Export Plug-In . SVG Version: 6.00 Build 0)  -->
<svg version="1.1" id="レイヤー_1" xmlns="http://www.w3.org/2000/svg" xmlns:xlink="http://www.w3.org/1999/xlink" x="0px"
	 y="0px" viewBox="0 0 179.1 121.6" style="enable-background:new 0 0 179.1 121.6;" xml:space="preserve">
<style type="text/css">
	.st0{fill:#FFFDFE;stroke:#3C0000;stroke-width:2.28;stroke-miterlimit:10;}
	.st1{fill:#EB5160;}
	.st2{enable-background:new    ;}
	.st3{fill:#FFFFFF;}
</style>
<g>
	<g id="レイヤー_1_1_">
		<path class="st0" d="M20.3,1.1h141.9c8.3,0,15,6.7,15,15v61.8c0,8.3-6.7,15-15,15H20.3c-8.3,0-15-6.7-15-15V16.1
			C5.3,7.9,12,1.1,20.3,1.1z"/>
		<path class="st1" d="M25.4,7.3H157c8.3,0,15,6.7,15,15v48.8c0,8.3-6.7,15-15,15H25.4c-8.3,0-15-6.7-15-15V22.3
			C10.4,14,17.1,7.3,25.4,7.3z"/>
		<polygon class="st1" points="91.2,117.6 105.2,93.4 77.3,93.4 		"/>
		<g class="st2">
			<path class="st3" d="M44,31.6c-0.1,0.1-0.2,0.2-0.3,0.3c-0.3,0.3-1.1,0.9-1.1,0.9l-0.5,0.4l-0.3,0.3c-0.1-0.2-0.7-0.8-0.9-1
				c-0.5-0.6-1.2-1.3-1.8-1.8c-0.4-0.4-1.1-1-1.6-1.3c-0.1,0.1-0.3,0.2-0.4,0.3c-0.2,0.2-0.4,0.4-0.6,0.5c-0.4,0.3-1.3,1.1-1.7,1.4
				c-0.5,0.4-0.9,0.7-1.2,1c-0.2-0.1-0.3-0.3-0.4-0.5c-0.3-0.3-0.5-0.7-0.8-1c-0.1-0.1-0.6-0.8-0.8-1c0.6-0.5,0.7-0.4,1.2-0.9
				c0.4-0.4,0.9-0.7,1.3-1.2c0.2-0.1,0.4-0.3,0.6-0.5c0.2-0.2,0.4-0.4,0.6-0.6c0.2-0.2,0.5-0.4,0.7-0.7c0.5-0.5,1.5-1.7,1.9-2.4
				c-0.3,0-0.7,0-1,0c-1.1,0-2.2,0-3.2-0.1c-0.5,0-0.6,0-1.4,0c0.1-0.8,0-1.7,0.1-3.2c0.6,0,1.1,0,1.9,0.1c0.5,0,1,0,1.5,0.1
				c0.6,0,1.3,0,1.9,0c0.5,0,1.3,0.1,1.8,0.1s0.8,0.1,1.3,0.1c0.6,0,0.8,0,1.4,0c0,0.3,0,0.4,0,0.6c0,0.1,0,0.1,0,0.2
				s-0.1,0.5-0.1,0.5c0,0.3-0.1,0.7-0.1,0.9c0,0.2-0.3,0.6-0.4,0.8c-0.2,0.6-0.4,0.7-0.7,1.3c-0.1,0.2-0.3,0.4-0.4,0.6
				c-0.2,0.2-0.5,0.6-0.9,1.1c0.4,0.3,0.8,0.6,1.2,1c0.2,0.1,0.9,0.7,1,0.9c0.5,0.4,1.5,1.3,2,1.9l0.5,0.5L44,31.6z"/>
			<path class="st3" d="M62,22.2c-0.2,0.2-0.3,0.3-0.5,0.4c-0.7,0.7-1.4,1.4-2.2,2c-0.1,0.1-0.2,0.1-0.2,0.2c-0.3,0.2-1,0.7-1.3,0.9
				l-0.1,0.1c0,0.3,0,0.6,0,0.9c0,0.6-0.1,0.9,0,1.5c0,0.6,0,1.5,0,2.1c0,0.7,0.1,2,0.1,2.7c-0.3,0-0.6,0-0.8,0c-0.1,0-0.3,0-0.4,0
				c-0.4,0-0.9,0.1-1.3,0c-0.2,0-0.4,0-0.6,0c0-0.8,0-2,0-2.8s0-1.8-0.1-2.7c-0.3,0.1-0.6,0.2-0.9,0.3c-0.3,0.1-1,0.3-1.3,0.3
				c-0.6,0.2-1.3,0.3-2,0.5c-0.2,0.1-0.4,0.1-0.6,0.2c-0.1-0.2-0.1-0.6-0.2-0.9c-0.2-0.7-0.3-1.6-0.5-2.2c0.3-0.1,0.6-0.1,0.9-0.2
				c0.5-0.1,1.2-0.2,1.6-0.4c0.3-0.1,0.8-0.2,1-0.3c0.5-0.2,0.8-0.3,1.3-0.5s0.9-0.6,1.4-0.8c0.5-0.2,1-0.6,1.5-0.9
				c0.3-0.2,0.5-0.4,0.8-0.6c0.2-0.2,0.4-0.4,0.7-0.6c0.4-0.3,0.6-0.6,0.9-0.9c0.2-0.2,0.4-0.4,0.6-0.6c0.4,0.5,1.1,1.1,1.6,1.6
				C61.6,21.8,61.8,22.1,62,22.2z"/>
			<path class="st3" d="M69.1,28.4c-0.6-0.1-1-0.1-1.5-0.1c0.1-0.8,0.1-1.9,0.3-3.2c0.7,0.1,1,0,1.8,0.1c0.7,0.1,2.9,0.2,3.7,0.2
				s1.6,0,2.2,0s1.1-0.1,1.7-0.1c0.8,0,0.8-0.1,1.5-0.1c0,0.3,0.1,1.1,0.1,1.2c0,0.4,0.2,0.9,0.1,1.3c0,0.2,0.1,0.4,0.1,0.6
				c-0.8,0.1-1.4,0.1-2.2,0.2c-1.4,0.1-2.6,0-4,0.1C71.6,28.6,70.4,28.5,69.1,28.4z"/>
			<path class="st3" d="M87.9,26.4c0.1,0.4,0.1,0.6,0.2,1c-0.3,0-0.6,0.1-0.8,0.1c-0.1,0-0.3,0-0.4,0c-0.4,0.1-0.8,0.1-1.3,0.2
				c-0.2,0-0.4,0.1-0.6,0.1c-0.1-0.5-0.1-0.7-0.1-1.2c-0.1-0.8-0.2-1.4-0.3-2.2c-0.1-0.8,0-0.2-0.1-1c0-0.3,0-0.3-0.1-0.8
				c0.8-0.1,1.7-0.3,3.1-0.4c0.1,0.5,0.3,1.9,0.3,2.4c0.1,0.3,0,0.6,0.1,0.9C87.9,25.7,87.8,26,87.9,26.4z M89.8,27
				c-0.2,0-0.4,0-0.6,0c0-0.5,0-0.7,0-1.2c0-0.8-0.1-1.4-0.1-2.2c0-0.8,0-0.8,0-1.6c0-0.3,0-0.3,0-0.8c0.8,0,1.7-0.1,3.2-0.1
				c0,0.5,0.1,1.1,0.1,1.5c0,0.5,0.1,1,0.1,1.4c0,0.3,0,0.6,0,0.9s0,0.6,0,1s0,0.6,0,1c-0.3,0-0.5,0-0.8,0c-0.1,0-0.3,0-0.4,0
				C90.6,27,90.2,27,89.8,27z M98.5,26.1c-0.1,0.4-0.4,0.7-0.5,1.1c-0.1,0.2-0.2,0.4-0.4,0.6c-0.3,0.6-0.9,1.1-1.2,1.7
				c-0.1,0.2-0.4,0.4-0.5,0.6c-0.5,0.5-1.8,1.7-2.4,2.1c-0.2,0.2-0.5,0.3-0.7,0.5s-0.2,0.1-0.4,0.3c-0.2,0.1-0.4,0.3-0.6,0.4
				l-2.2-2.5c0.2-0.1,0.9-0.5,1.1-0.7c0.3-0.2,0.5-0.3,0.8-0.6c0.6-0.4,1.9-1.7,2.4-2.2c0.2-0.3,0.5-0.5,0.6-0.8
				c0.3-0.4,0.3-0.5,0.6-0.9c0.1-0.1,0.2-0.5,0.3-0.7c0.3,0.1,0.6,0.2,1,0.4c0.2,0.1,0.3,0.1,0.5,0.2C97.3,25.6,98.2,25.9,98.5,26.1
				z"/>
			<path class="st3" d="M115.1,26.8c-0.1,0.5-0.2,0.9-0.2,1.3c-0.1,0.6-0.1,1.1-0.2,1.7c-0.1,0.7-0.2,1.9-0.3,2.6
				c-0.3,0-0.5,0-0.8,0c-0.1,0-0.3-0.1-0.4-0.1c-0.4,0-0.8,0-1.3-0.1c-0.2,0-0.4,0-0.6-0.1c0.1-0.8,0.3-2.1,0.3-2.9
				c0.1-0.8,0.1-1.7,0.2-2.5c-1.1,0-2.4,0-2.7,0c-0.1,0-0.3,0-0.4,0c-0.3,2.1-0.6,4.2-0.7,4.8l-0.4,2l-3.1-0.5
				c0-0.3,0.3-2.1,0.4-2.8c0-0.6,0.2-1,0.3-1.6c0-0.2,0.1-1,0.3-2c-0.2,0-0.4,0-0.5,0c-0.5,0-1,0-1.6,0c0-0.3,0-0.6,0-0.8
				c0-0.1,0-0.3,0-0.4c0-0.4,0-0.8,0-1.3c0-0.2,0-0.4,0-0.6c0.6,0,1.2,0,1.8,0c0.3,0,0.5,0,0.8,0c0.2-1.1,0.3-2,0.4-2.2
				c0.1-0.7,0.1-1.4,0.2-2.1c0.3,0,0.5,0.1,0.8,0.1c0.1,0,0.3,0.1,0.4,0.1c0.4,0,0.8,0.1,1.3,0.1c0.2,0,0.4,0,0.6,0.1
				c-0.1,0.8-0.2,1.6-0.3,2.5c0,0.3-0.1,0.8-0.2,1.5c1.5,0,3.9,0,4.7,0c0.4,0,0.8,0,1.5,0C115.3,24.4,115.2,25.6,115.1,26.8z"/>
			<path class="st3" d="M133.4,23.4c-0.2,1-0.5,2.2-0.7,3.1c-0.1,0.5-0.3,1-0.5,1.4c-0.3,0.7-0.8,1.2-1.3,1.8
				c-0.3,0.2-0.4,0.5-0.7,0.7c-1,1-2.5,1.9-3.7,2.6c-0.2,0.1-0.4,0.2-0.6,0.3c-0.2-0.3-0.4-0.6-0.6-1c-0.3-0.6-0.6-1.2-1-1.7
				c0.2-0.1,0.4-0.3,0.6-0.3c0.3-0.1,0.5-0.3,0.8-0.5c0.6-0.4,1.4-0.8,1.9-1.3c0.5-0.6,1.1-1.2,1.6-1.8c0.4-0.6,0.5-1.3,0.7-2
				c0.1-0.2,0.1-0.4,0.1-0.6c-1.1,0.1-2.1,0-3.3,0c-1.4,0-2.6,0-3.9-0.2c-0.6-0.1-1-0.1-1.5-0.1c0.1-0.8,0.1-1.9,0.3-3.1
				c0.7,0.1,1,0,1.8,0.1c0.7,0.1,2.9,0.2,3.7,0.2s1.6,0,2.2,0s1.5,0,2.1,0c0.7,0,1.9,0,2.2,0C133.6,21.1,133.6,22.6,133.4,23.4z"/>
			<path class="st3" d="M150.1,29.8l-0.1,0.7c0,0.5-0.2,2-0.2,2s-0.6-0.1-0.8-0.1s-0.4,0-0.7-0.1c-0.5-0.1-2.5-0.2-3.1-0.2
				c-0.4,0-0.9,0-1.3,0c-0.3,0-0.5,0-0.7,0s-0.4,0-0.6,0c-0.2,0-0.4,0.1-0.6,0.1c-0.3,0-0.4,0-0.6,0.1c-0.1,0-0.3,0-0.5,0.1h-0.3
				c0,0,0-0.7-0.1-0.9c0-0.1,0-0.2,0-0.3c0-0.1,0-0.2,0-0.3c0-0.2-0.1-1.2-0.1-1.2h0.2c0.3,0,0.6-0.1,0.9-0.1c0.2,0,0.4,0,0.6-0.1
				c0.4,0,1-0.1,1.6-0.1c0-0.1,0-0.2,0-0.3c0-0.3,0-0.5,0-0.8c0-0.2,0-0.4,0-0.6c0-0.1,0-0.3,0-0.5c-0.4,0-1,0-1.5-0.1l-0.6-0.1
				l0.3-2.7c0,0,0.6,0.1,0.7,0.1c0.2,0,0.4,0,0.6,0c0.2,0,0.4,0,0.7,0c0.4,0,0.8,0,1.2,0c0.6,0,2.4-0.1,2.9-0.2h0.3l0.3,2.7h-0.3
				c-0.4,0-1.1,0.1-1.8,0.1c0,0.2,0,0.4,0,0.5c0,0,0,0.5,0,0.6s0,0.1,0,0.2c0,0.2,0,0.3,0,0.5s0,0.3,0,0.4c0.7,0,1.5,0.1,2.2,0.1
				c0.2,0,0.3,0,0.5,0s0.4,0,0.5,0.1L150.1,29.8z"/>
		</g>
		<g class="st2">
			<path class="st3" d="M52.6,45.8c-0.1,0.4-0.3,0.8-0.4,1.2c0,0.1-0.1,0.2-0.2,0.3c-0.4,1-0.9,2.1-1.4,3c-0.6,1.2-1.3,2.5-2,3.7
				c-0.5,0.7-0.6,1-1,1.7c-0.2-0.1-0.3-0.3-0.5-0.4c-0.4-0.2-0.7-0.5-1.1-0.7c-0.1-0.1-0.8-0.6-1-0.7c0.4-0.6,0.4-0.5,0.7-1.1
				c0.3-0.5,0.6-0.8,0.9-1.3c0.3-0.5,0.8-1.5,1.2-2.2c0.2-0.5,0.8-1.6,1.2-2.6c-1.1-0.3-2.8-0.8-3.9-1.1c-0.2,0.3-0.4,0.7-0.6,1
				c-0.3,0.6-1.4,2.4-1.7,3c-0.2-0.1-0.5-0.3-0.7-0.4C42,49.1,41.9,49,41.7,49c-0.4-0.2-0.8-0.4-1.1-0.6c-0.2-0.1-0.4-0.2-0.6-0.3
				c0.4-0.7,1.5-2.6,1.9-3.3c0.6-1.2,1.2-2.1,1.8-3.3l0.6-1l2.7,1.6c-0.1,0.1-0.2,0.3-0.3,0.6c0.1,0,0.2,0.1,0.3,0.1
				c0.5,0.1,3.5,1,4.1,1.2c0.7,0.2,1.4,0.4,2.1,0.6C52.9,45,52.7,45.7,52.6,45.8z"/>
			<path class="st3" d="M62.4,49.2c0,0.1-1.8,0-1.9,0c-0.1,0-1.3,0-1.3,0c0-0.9,0-0.9,0-1.8c0.1-0.9,0-1.8,0-2.8
				c0.1-0.6,0-1.6,0-2.2c0.3,0,0.6,0,1,0c0.1,0,0.3,0,0.4,0c0.4,0,0.7,0,1,0s0.5,0,0.7,0c0,0.5,0,1.6,0,2.2c0,0.1,0,0.3,0,0.4
				c0,0.4,0,0.8,0,1.2c0,0.3,0,0.6,0,0.9C62.4,48.1,62.4,48.3,62.4,49.2z M69.4,47.4c0.1,0.5-0.1,1-0.2,1.5c-0.1,0.7-0.5,1.4-0.8,2
				c-0.2,0.3-0.3,0.6-0.5,0.8c-0.8,1.2-1.7,2.2-2.7,3.2c-0.1,0.2-0.3,0.3-0.4,0.5c-0.3-0.3-0.6-0.6-0.8-0.8c-0.5-0.5-0.9-1-1.4-1.4
				c0.2-0.2,0.3-0.3,0.5-0.5s0.4-0.4,0.6-0.6c0.5-0.5,1-1,1.4-1.6c0.4-0.7,0.9-1.4,1.1-2.1c0.2-0.7,0.2-1.4,0.2-2.1
				c0-0.3,0-0.5,0-0.8c0-0.8,0-1.9,0-2.7c0-0.2,0-0.5,0-0.7s0-0.2,0-0.3c0.3,0,0.6,0,0.8,0c0.2,0,0.5,0,0.7,0s0.5,0,0.7,0
				c0.3,0,0.6,0,1,0c0,0.5,0,0.5,0,1.3C69.4,44,69.4,46.4,69.4,47.4z"/>
			<path class="st3" d="M88.9,51c-0.1,0.8-0.1,1.9-0.3,3.2c-0.7-0.1-1-0.1-1.8-0.1c-0.7-0.1-3.6-0.3-4.5-0.3c-0.8,0-2.3,0.1-2.9,0.1
				S78.3,54,77.7,54c-0.8,0-0.8,0.1-1.5,0.1c0-0.3-0.1-1.1-0.1-1.2c0-0.4-0.2-0.8-0.1-1.3c0-0.2-0.1-0.4-0.1-0.6
				c0.8-0.1,1.3-0.1,2.2-0.2c0.8-0.1,1.7-0.1,2.7-0.1c0-0.2,0-0.4,0-0.7c0.1-0.7,0-1.4,0-2c0-0.3,0-0.7,0-1.1c-0.8,0-1.7,0-2.5-0.1
				c-0.2,0-0.3,0-0.5-0.1l0.3-3.2c0.5,0,1,0.1,1.5,0.1c0.6,0,1.8,0.1,2.6,0.1c0.8,0,3.5-0.2,4.2-0.3l0,0l0.3,3.2
				c-0.9,0.1-1.9,0.1-2.9,0.2c0,0.4,0,0.8,0,1.1c0,0.1,0,0.2,0,0.3c0,0.3,0,0.6,0,0.8s0,0.5,0,0.7c0,0.5,0,0.6,0,0.9
				c1.2,0,2.5,0.1,3.4,0.2C88,50.9,88.4,51,88.9,51z"/>
			<path class="st3" d="M107,44.1c-0.2,0.2-0.3,0.3-0.5,0.4c-0.7,0.7-1.4,1.4-2.2,2c-0.1,0.1-0.2,0.1-0.2,0.2
				c-0.3,0.2-1,0.7-1.3,0.9l-0.1,0.1c0,0.3,0,0.6,0,0.9c0,0.6-0.1,0.9,0,1.5c0,0.6,0,1.5,0,2.1c0,0.7,0.1,2,0.1,2.7
				c-0.3,0-0.6,0-0.8,0c-0.1,0-0.3,0-0.4,0c-0.4,0-0.9,0.1-1.3,0c-0.2,0-0.4,0-0.6,0c0-0.8,0-2,0-2.8s0-1.8-0.1-2.7
				c-0.3,0.1-0.6,0.2-0.9,0.3s-1,0.3-1.3,0.3c-0.6,0.2-1.3,0.3-2,0.5c-0.2,0.1-0.4,0.1-0.6,0.2c-0.1-0.2-0.1-0.6-0.2-0.9
				c-0.2-0.7-0.3-1.6-0.5-2.2c0.3-0.1,0.6-0.1,0.9-0.2c0.5-0.1,1.2-0.2,1.6-0.4c0.3-0.1,0.8-0.2,1-0.3c0.5-0.2,0.8-0.3,1.3-0.5
				s0.9-0.6,1.4-0.8s1-0.6,1.5-0.9c0.3-0.2,0.5-0.4,0.8-0.6c0.2-0.2,0.4-0.4,0.7-0.6c0.4-0.3,0.6-0.6,0.9-0.9
				c0.2-0.2,0.4-0.4,0.6-0.6c0.4,0.5,1.1,1.1,1.6,1.6C106.6,43.7,106.8,43.9,107,44.1z"/>
			<path class="st3" d="M124.5,44.9c0,0.1-0.1,0.6-0.1,0.8c-0.1,0.4-0.2,0.8-0.3,1.2c-0.1,0.5-0.3,1.4-0.3,1.4
				c-0.1,0.5-0.3,1-0.4,1.5c-0.3,0.6-0.4,1-0.7,1.6c-0.2,0.4-0.4,0.8-0.6,1.2c-0.1,0.3-0.5,0.9-0.7,1.1c-0.4,0.6-0.7,1.1-1.2,1.7
				c-0.1,0.2-0.2,0.4-0.3,0.5c-0.2-0.1-0.5-0.3-0.7-0.5c-0.6-0.4-1.3-1-1.9-1.3c0.2-0.2,0.4-0.4,0.5-0.7c0.3-0.4,0.7-1,1-1.4
				c0.1-0.2,0.2-0.4,0.3-0.5c-0.6-0.2-1.5-0.5-1.9-0.7l-1.2-0.5l1.1-2.9c0.3,0.1,1.4,0.5,2.2,0.8c0.4,0.1,0.8,0.3,1.2,0.4l0.1-0.3
				c0.2-0.5,0.3-1,0.3-1.5c-1.1-0.3-2.8-0.8-4-1.1c-0.7,1.2-1.4,2.6-2.2,3.8c-0.1,0.2-0.2,0.3-0.3,0.4l-2.6-1.8
				c0.3-0.5,0.6-0.8,0.8-1.3c0.3-0.5,0.9-1.5,1.3-2.3c0.4-0.7,1.5-3.2,1.8-3.9l0,0l2.9,1.2c-0.1,0.3-0.3,0.6-0.4,0.9
				c0.1,0.1,0.3,0.1,0.4,0.1c0.5,0.1,3.5,1,4.1,1.2c0.7,0.2,1.1,0.3,1.8,0.5C124.5,44.8,124.5,44.6,124.5,44.9z"/>
			<path class="st3" d="M132.1,50.3c-0.6-0.1-1-0.1-1.5-0.1c0.1-0.8,0.1-1.9,0.3-3.2c0.7,0.1,1,0,1.8,0.1c0.7,0.1,2.9,0.2,3.7,0.2
				s1.6,0,2.2,0c0.6,0,1.1-0.1,1.7-0.1c0.8,0,0.8-0.1,1.5-0.1c0,0.3,0.1,1.1,0.1,1.2c0,0.4,0.2,0.9,0.1,1.3c0,0.2,0.1,0.4,0.1,0.6
				c-0.8,0.1-1.4,0.1-2.2,0.2c-1.4,0.1-2.6,0-4,0.1C134.6,50.5,133.4,50.4,132.1,50.3z"/>
			<path class="st3" d="M78.8,66.5c0,0.4,0,0.8-0.1,1.4c-0.1,1.1-0.1,2.4-0.1,3.3c0,1.2-0.1,2.1-0.2,3.2c0,0.5,0,0.4-0.1,1.2
				c-0.1,0-0.4,0-0.4,0c-0.7,0-0.9,0-1.7,0.1c-0.6,0-0.9,0-1.4,0c-0.7,0-0.5,0-1.2,0.1c-0.5,0.1-0.5,0-1,0.1c-0.5,0-1.3,0-1.8,0.1
				c-0.6,0-0.9,0.1-1.5,0.1c0-0.3,0-0.6-0.1-0.8c0-0.1,0-0.3,0-0.4c0-0.4-0.1-0.9-0.1-1.3c0-0.2-0.1-0.4,0-0.7c0.7,0,1.1,0,1.8-0.1
				c1.2-0.1,1.9-0.1,3.1-0.1c0.6,0,1-0.1,1.4-0.1c0-0.1,0-0.1,0-0.2c0-0.7,0-1.4,0-2.1c0-0.5,0.1-1.6,0.1-2.1c-0.1,0-0.3,0-0.4,0
				c-0.5,0-0.9-0.1-1.4-0.1c-0.7,0-1.3,0-2,0c-0.5,0-0.3-0.1-0.8-0.1s-0.9-0.1-1.4-0.1c-0.6,0-0.9,0-1.5-0.1c0-0.3,0-0.6,0-0.8
				c0-0.1,0-0.3,0-0.4c0-0.4,0-0.9,0.1-1.3c0-0.2,0-0.4,0-0.6c0.7,0,1,0.1,1.8,0.1c1.2,0,2.2,0.1,3.3,0.2c1.2,0.1,1.4,0.1,2.5,0.1
				c0.5,0,2.3,0.1,3,0.1c0,0.1,0,0.6,0,0.7C78.8,65.8,78.8,66.1,78.8,66.5z"/>
			<path class="st3" d="M87.1,71.9c-0.6-0.1-1-0.1-1.5-0.1c0.1-0.8,0.1-1.9,0.3-3.2c0.7,0.1,1,0,1.8,0.1c0.7,0.1,2.9,0.2,3.7,0.2
				s1.6,0,2.2,0s1.1-0.1,1.7-0.1c0.8,0,0.8-0.1,1.5-0.1c0,0.3,0.1,1.1,0.1,1.2c0,0.4,0.2,0.9,0.1,1.3c0,0.2,0.1,0.4,0.1,0.6
				c-0.8,0.1-1.4,0.1-2.2,0.2c-1.4,0.1-2.6,0-4,0.1C89.6,72.1,88.4,72,87.1,71.9z"/>
			<path class="st3" d="M116,75.1c-0.1,0.1-0.2,0.2-0.3,0.3c-0.3,0.3-1.1,0.9-1.1,0.9l-0.5,0.4l-0.3,0.3c-0.1-0.2-0.7-0.8-0.9-1
				c-0.5-0.6-1.2-1.3-1.8-1.8c-0.4-0.4-1.1-1-1.6-1.3c-0.1,0.1-0.3,0.2-0.4,0.3c-0.2,0.2-0.4,0.4-0.6,0.5c-0.4,0.3-1.3,1.1-1.7,1.4
				c-0.5,0.4-0.9,0.7-1.2,1c-0.2-0.1-0.3-0.3-0.4-0.5c-0.3-0.3-0.5-0.7-0.8-1c-0.1-0.1-0.6-0.8-0.8-1c0.6-0.5,0.7-0.4,1.2-0.9
				c0.4-0.4,0.9-0.7,1.3-1.2c0.2-0.1,0.4-0.3,0.6-0.5s0.4-0.4,0.6-0.6s0.5-0.4,0.7-0.7c0.5-0.5,1.5-1.7,1.9-2.4c-0.3,0-0.7,0-1,0
				c-1.1,0-2.2,0-3.2-0.1c-0.5,0-0.6,0-1.4,0c0.1-0.8,0-1.7,0.1-3.2c0.6,0,1.1,0,1.9,0.1c0.5,0,1,0,1.5,0.1c0.6,0,1.3,0,1.9,0
				c0.5,0,1.3,0.1,1.8,0.1s0.8,0.1,1.3,0.1c0.6,0,0.8,0,1.4,0c0,0.3,0,0.4,0,0.6c0,0.1,0,0.1,0,0.2s-0.1,0.5-0.1,0.5
				c0,0.3-0.1,0.7-0.1,0.9c0,0.2-0.3,0.6-0.4,0.8c-0.2,0.6-0.4,0.7-0.7,1.3c-0.1,0.2-0.3,0.4-0.4,0.6c-0.2,0.2-0.5,0.6-0.9,1.1
				c0.4,0.3,0.8,0.6,1.2,1c0.2,0.1,0.9,0.7,1,0.9c0.5,0.4,1.5,1.3,2,1.9l0.5,0.5L116,75.1z"/>
		</g>
	</g>
</g>
</svg>
