<?xml version="1.0" encoding="utf-8"?>
<!-- Generator: Adobe Illustrator 25.3.0, SVG Export Plug-In . SVG Version: 6.00 Build 0)  -->
<svg version="1.1" id="レイヤー_1" xmlns="http://www.w3.org/2000/svg" xmlns:xlink="http://www.w3.org/1999/xlink" x="0px"
	 y="0px" viewBox="0 0 192 142.1" style="enable-background:new 0 0 192 142.1;" xml:space="preserve">
<style type="text/css">
	.st0{fill:#FFFDFE;stroke:#3C0000;stroke-width:2.28;stroke-miterlimit:10;}
	.st1{fill:#B86A39;}
	.st2{enable-background:new    ;}
	.st3{fill:#FFFFFF;}
</style>
<g id="レイヤー_1_2_">
	<path class="st0" d="M26.35,7.71h141.9c8.3,0,15,6.7,15,15v61.8c0,8.3-6.7,15-15,15H26.35c-8.3,0-15-6.7-15-15v-61.8
		C11.35,14.41,18.05,7.71,26.35,7.71z"/>
	<path class="st1" d="M31.45,13.81h131.6c8.3,0,15,6.7,15,15v48.8c0,8.3-6.7,15-15,15H31.45c-8.3,0-15-6.7-15-15v-48.8
		C16.45,20.51,23.15,13.81,31.45,13.81z"/>
	<g class="st2">
		<path class="st3" d="M53.35,37.91c-0.2,1.1-0.5,2.4-0.8,3.5c-0.1,0.6-0.4,1.1-0.6,1.6c-0.3,0.8-0.9,1.4-1.4,2
			c-0.3,0.2-0.5,0.6-0.8,0.8c-1.1,1.1-2.5,2-3.9,2.8c-0.2,0.1-0.4,0.2-0.6,0.4c-0.2-0.3-0.4-0.8-0.7-1.1c-0.4-0.6-0.7-1.3-1.1-2
			c0.2-0.1,0.4-0.3,0.7-0.4c0.3-0.1,0.6-0.3,0.9-0.5c0.7-0.4,1.3-0.7,1.8-1.3c0.6-0.7,1.3-1.3,1.8-2.1c0.4-0.7,0.6-1.5,0.8-2.3
			c0.1-0.2,0.1-0.4,0.1-0.7c-1.3,0.1-2.4,0-3.7,0c-1.6,0-2.9,0-4.5-0.2c-0.7-0.1-1.1-0.1-1.6-0.1c0.1-0.9,0.1-2.2,0.3-3.6
			c0.8,0.1,1.1,0,2.1,0.1c0.8,0.1,3.3,0.2,4.2,0.2s1.8,0,2.5,0s1.7,0,2.4,0c0.8,0,2.2,0,2.5,0C53.65,35.31,53.65,37.01,53.35,37.91z
			 M55.05,31.51c0,0.1,0,0.2,0,0.3c0,0.4-0.1,0.8-0.3,1.1c-0.1,0.2-0.3,0.3-0.4,0.4c-0.2,0.1-0.3,0.3-0.5,0.3
			c-0.3,0-0.6,0.1-0.9,0.1c-0.1,0-0.3,0-0.4-0.1c-0.2-0.1-0.5-0.2-0.7-0.3c-0.1-0.1-0.3-0.1-0.3-0.3c-0.1-0.1-0.2-0.2-0.2-0.3
			c-0.1-0.2-0.1-0.4-0.2-0.7c0-0.2,0-0.4,0-0.6c0-0.1,0.1-0.3,0.1-0.4c0.1-0.3,0.3-0.6,0.5-0.8c0.1-0.1,0.3-0.1,0.4-0.2
			c0.3-0.2,0.7-0.3,1-0.3s0.5,0.1,0.7,0.2c0.1,0,0.5,0.3,0.6,0.5s0.3,0.3,0.4,0.6C55.05,31.21,55.05,31.31,55.05,31.51z
			 M55.55,35.31l-0.1-0.1c-0.1-0.2-0.2-0.3-0.3-0.5c0-0.1,0-0.2,0-0.3s0-0.2,0.1-0.3s0.2-0.3,0.3-0.4c0.1-0.1,0.1-0.1,0.2-0.1
			c0.1,0,0.3-0.1,0.4-0.1c0.1,0,0.2,0,0.2,0c0.1,0,0.1,0,0.2,0c0.1,0,0.2,0.1,0.3,0.2c0.1,0.1,0.1,0.1,0.2,0.2
			c0.1,0,0.1,0.1,0.1,0.2c0.1,0.1,0.1,0.3,0.1,0.5c0,0.1-0.1,0.2-0.1,0.3c0,0.2-0.1,0.4-0.3,0.5c-0.1,0.1-0.2,0.2-0.3,0.2
			c0,0-0.3,0.1-0.4,0c-0.1,0-0.3,0-0.4,0C55.75,35.41,55.65,35.41,55.55,35.31z"/>
		<path class="st3" d="M62.05,43.61c-0.7-0.1-1.2-0.1-1.7-0.1c0.1-0.9,0.1-2.2,0.3-3.6c0.8,0.1,1.1,0,2.1,0.1
			c0.8,0.1,3.3,0.2,4.2,0.2c1,0,1.8,0,2.5,0s1.2-0.1,1.9-0.2c0.9,0,0.9-0.1,1.7-0.2c0,0.3,0.2,1.2,0.2,1.4c0,0.5,0.2,1,0.1,1.5
			c0,0.2,0.1,0.5,0.1,0.7c-0.9,0.1-1.5,0.1-2.5,0.2c-1.6,0.1-2.9,0-4.5,0.1C64.95,43.81,63.65,43.71,62.05,43.61z"/>
		<path class="st3" d="M93.85,41.61c0,0-0.3,1-0.4,1.2c-0.1,0.3-0.3,0.6-0.4,0.9c-0.2,0.7-1.6,2.8-2.8,3.8c-0.2,0.2-0.4,0.4-0.6,0.6
			c-0.6,0.4-0.5,0.6-1.8,1.4l-2.2-2.9c1-0.7,1.3-1.1,1.6-1.3c0.6-0.5,1.6-1.2,2.3-2.5c-1,0-2.2,0-2.3,0c-0.7,0-0.9,0-1.6,0
			c-0.5,0-0.9-0.1-1.4-0.1s-1.8-0.1-2.3-0.1c-0.6,0-1,0-1.6,0c0-0.3,0-0.6,0-0.9c0-0.2,0-0.3,0-0.5c0-0.5,0-1,0-1.4
			c0-0.2,0-0.5,0-0.7c0.7,0,1.2,0.1,1.8,0.1c1.1,0,3.1,0,4.2,0.1c1.1,0,4.7,0.1,5.8,0.2c0.5,0,1.2,0,1.9,0
			C94.05,39.51,94.15,40.31,93.85,41.61z M86.15,37.11c-1,0-1.8-0.1-2.7-0.2l0.4-3.6c0.9,0.1,2.3,0.2,2.9,0.2c0.9,0,1.2,0,1.8,0
			c0.6,0,1.1-0.1,1.7-0.1c0.8,0,0.8-0.1,1.6-0.1c0,0.3,0.1,1.2,0.1,1.4c0,0.5,0.1,1,0.1,1.5c0,0.2,0.1,0.5,0.1,0.7
			c-0.8,0.1-1.4,0.1-2.2,0.1C88.25,37.31,87.55,37.21,86.15,37.11z"/>
		<path class="st3" d="M103.55,41.81c-0.4-0.2-0.8-0.4-1.1-0.6c-0.2-0.1-0.3-0.2-0.4-0.4c-0.1-0.3-0.4-0.5-0.5-0.8s-0.2-0.5-0.3-0.8
			c0-0.1-0.1-0.4-0.1-0.5c0-0.3,0-0.7,0-1c0.2-0.7,0.5-1.5,1.2-2c0.2-0.2,0.6-0.3,0.9-0.5c0.4-0.3,0.9-0.4,1.4-0.5
			c0.6-0.1,1.2,0.1,1.7,0.3c0.1,0,0.5,0.3,0.5,0.4c0.1,0.1,0.3,0.2,0.5,0.4c0.3,0.4,0.8,0.8,1,1.3c0.1,0.3,0.2,0.5,0.2,0.9
			c0,0.3,0.1,0.6,0,0.9c-0.1,0.7-0.3,1.4-0.8,2c-0.4,0.3-0.7,0.7-1.1,1c-0.2,0.1-0.4,0.1-0.6,0.2c-0.6,0.1-1.2,0.2-1.7,0.2
			C104.05,42.11,103.75,41.91,103.55,41.81z M114.45,44.51c-0.5,0.2-0.7,0.3-1.4,0.6c-0.4,0.2-0.7,0.3-1.1,0.5
			c-0.5,0.2-2.4,1.1-2.9,1.4c-0.4,0.2-1.3,0.6-1.7,0.8c-0.4,0.2-0.7,0.3-1.1,0.4c-0.5,0.2-0.7,0.3-1.2,0.5c-0.1-0.3-0.2-0.6-0.4-0.8
			c-0.1-0.1-0.1-0.3-0.2-0.4c-0.2-0.4-0.4-0.9-0.6-1.3c-0.1-0.2-0.2-0.4-0.3-0.7c0.6-0.3,0.8-0.4,1.4-0.6c0.9-0.4,2.3-1.1,3.2-1.5
			c0.9-0.4,3-1.3,3.9-1.7c0.4-0.2,0.4-0.2,1-0.4C113.35,42.11,113.85,43.11,114.45,44.51z"/>
		<path class="st3" d="M126.05,43.31c-0.3,0-0.5,0-0.9,0s-0.8,0-1.3,0.1c-0.3,0-0.5,0-0.8,0s-0.5-0.1-0.8,0c-0.4,0-0.5,0-0.9,0
			c0-0.3,0-0.6,0-0.9c0-0.2,0-0.3,0-0.5c0-0.5,0-1,0-1.4c0-0.2,0-0.5,0-0.8c0.4,0,0.6,0,1.1,0c0.7,0,1.3,0,2,0s1.2,0,1.9,0
			c0.3,0,0.3,0,0.7,0c0,0.9,0,2,0,3.6C126.65,43.31,126.55,43.31,126.05,43.31z M122.95,37.41c-0.3-0.1-0.3-0.1-0.8-0.2
			c0.3-0.9,0.5-1.9,0.9-3.4c0.4,0.1,0.6,0.2,1.1,0.3c0.4,0.1,0.6,0.2,0.9,0.3c0.4,0.1,0.9,0.2,1.4,0.3c0.3,0.1,0.6,0.2,0.9,0.3
			c0.3,0.1,0.6,0.2,0.9,0.3c0.4,0.1,0.6,0.1,1,0.2c-0.1,0.3-0.2,0.6-0.2,0.9c0,0.2-0.1,0.3-0.1,0.5c-0.1,0.5-0.2,0.9-0.3,1.4
			c-0.1,0.2-0.1,0.5-0.2,0.7c-0.5-0.1-0.7-0.2-1.1-0.3c-0.8-0.2-1.4-0.3-2.2-0.5C124.35,37.81,123.75,37.61,122.95,37.41z
			 M135.15,44.21c-0.3,0.1-0.8,0.3-1.1,0.5c-0.3,0.1-0.7,0.3-1,0.4c-0.8,0.4-1.5,1.1-2.1,1.6c-0.3,0.2-0.6,0.5-0.9,0.8
			c-0.4,0.4-0.8,0.9-1.1,1.3c-0.1,0.1-0.2,0.2-0.3,0.4c-0.3-0.2-0.7-0.4-1-0.6c-0.2-0.1-0.4-0.2-0.5-0.3c-0.4-0.3-1.1-0.8-1.5-1
			c0.2-0.4,0.5-0.9,0.8-1.4c0.1-0.2,0.4-0.4,0.5-0.6c0.5-0.5,1.1-1,1.6-1.5c0.2-0.2,0.5-0.3,0.7-0.5c0.6-0.4,1.5-1.2,2.2-1.5
			c0.3-0.1,0.6-0.3,0.9-0.4c0.3-0.1,0.5-0.2,0.8-0.3s0.6-0.3,0.9-0.3c0,0,0.3,1,0.3,1.1s0.2,0.7,0.2,0.7c0,0.1,0,0.1,0,0.1
			c0.1,0.1,0.2,0.3,0.2,0.4C134.85,43.51,135.05,43.81,135.15,44.21z M135.25,35.81c0,0.1,0,0.2,0,0.3c0,0.4-0.1,0.7-0.3,1.1
			c-0.1,0.2-0.2,0.3-0.4,0.5c-0.2,0.1-0.3,0.3-0.5,0.3c-0.3,0.1-0.6,0.1-0.9,0.1c-0.1,0-0.3,0-0.4,0c-0.2-0.1-0.5-0.2-0.7-0.3
			c-0.1-0.1-0.3-0.1-0.3-0.3c-0.1-0.1-0.2-0.2-0.2-0.3c-0.1-0.2-0.1-0.4-0.2-0.7c0-0.2,0-0.4,0-0.6c0-0.1,0.1-0.3,0.1-0.4
			c0.1-0.3,0.3-0.6,0.5-0.8c0.1-0.1,0.3-0.1,0.4-0.2c0.3-0.2,0.7-0.3,1-0.3c0.2,0,0.5,0.1,0.7,0.2c0,0,0.5,0.3,0.6,0.5
			s0.3,0.3,0.4,0.6C135.15,35.51,135.25,35.61,135.25,35.81z M135.75,39.61l-0.1-0.1c-0.1-0.2-0.2-0.3-0.3-0.5c0-0.1,0-0.2,0-0.3
			s0-0.2,0.1-0.3s0.2-0.3,0.3-0.4c0,0,0.1-0.1,0.2-0.1c0.1,0,0.3-0.1,0.4-0.1c0.1,0,0.2-0.1,0.2,0c0.1,0,0.1,0,0.2,0
			c0.1,0,0.2,0.1,0.3,0.2c0.1,0.1,0.1,0.2,0.2,0.2c0.1,0,0.1,0.1,0.1,0.2c0.1,0.2,0.1,0.3,0.1,0.5c0,0.1-0.1,0.2-0.1,0.3
			c0,0.2-0.2,0.3-0.3,0.5c-0.1,0.1-0.2,0.2-0.3,0.2c0,0-0.3,0.1-0.4,0c-0.1,0-0.2,0-0.4,0C135.85,39.71,135.75,39.61,135.75,39.61z"
			/>
		<path class="st3" d="M153.65,45.21l-0.1,0.8c0,0.6-0.2,2.3-0.2,2.3s-0.7-0.1-0.9-0.1s-0.4,0-0.8-0.1c-0.6-0.1-2.9-0.2-3.5-0.2
			c-0.4,0-1,0-1.5,0c-0.3,0-0.6,0-0.8,0s-0.4,0-0.7,0c-0.2,0-0.4,0.1-0.7,0.1s-0.5,0-0.7,0.1c-0.1,0-0.3,0-0.5,0.1h-0.3
			c0,0,0-0.8-0.1-1c0-0.1,0-0.3,0-0.3c0-0.1,0-0.2,0-0.4s-0.1-1.4-0.1-1.4h0.3c0.4,0,0.7-0.1,1-0.1c0.2,0,0.4,0,0.7-0.1
			c0.5,0,1.1-0.1,1.8-0.1c0-0.1,0-0.2,0-0.3c0-0.3,0-0.6,0-0.9c0-0.2,0-0.5,0-0.7c0-0.1,0-0.3,0-0.5c-0.5,0-1.1,0-1.7-0.1l-0.7-0.1
			l0.3-3c0,0,0.6,0.1,0.8,0.1s0.4,0,0.7,0c0.2,0,0.5,0,0.8,0c0.4,0,0.9,0,1.3,0c0.7,0,2.7-0.1,3.3-0.2h0.3l0.3,3.1h-0.3
			c-0.5,0-1.2,0.1-2,0.1c0,0.2,0,0.5,0,0.6c0,0,0,0.5,0,0.7c0,0.1,0,0.2,0,0.2c0,0.2,0,0.4,0,0.5c0,0.2,0,0.3,0,0.4
			c0.8,0,1.7,0.1,2.5,0.1c0.2,0,0.4,0,0.5,0c0.2,0,0.4,0,0.6,0.1L153.65,45.21z"/>
		<path class="st3" d="M51.85,60.11l3.4,0.9l-0.1,0.2c-0.4,1.3-0.9,3.1-1.3,4.3c-0.4,1.2-1.6,4-2.2,5.4c-0.1,0.2-0.2,0.3-0.2,0.5
			l-0.1,0.1l-3.2-1.5l0.1-0.1c0.1-0.2,0.3-0.5,0.4-1c0.3-0.7,0.7-1.4,0.8-1.7c0.1-0.2,0.2-0.5,0.4-0.9c0.2-0.5,0.5-1.1,0.6-1.6
			c0.3-0.8,1.1-3.8,1.3-4.5v-0.2L51.85,60.11z M66.25,70.41c-0.7,0.9-1.5,1.9-2.2,2.8c-0.4-0.3-1.1-0.7-1.5-1.1
			c-0.2-0.2-0.8-0.8-1.4-1.4c-0.2-0.1-0.3-0.3-0.4-0.5c-0.3-0.4-0.6-0.7-0.8-1.1c-0.1-0.2-0.3-0.5-0.4-0.7c-0.1-0.3-0.3-0.5-0.4-0.8
			c-0.2-0.5-0.7-1.3-0.9-1.8c-0.1-0.3-0.3-0.6-0.3-0.9c0-0.2-0.1-0.4-0.2-0.7c-0.1-0.4-0.3-0.8-0.4-1.3c-0.1-0.2-0.1-0.4-0.1-0.5
			s0-0.3-0.1-0.7c0.4-0.1,1.2-0.3,1.9-0.4c0.5-0.1,1.2-0.3,1.6-0.4c0.1,0.3,0.1,0.6,0.2,0.9c0.4,1.8,0.8,2.8,1.2,3.7
			c0.2,0.5,0.8,1.4,1.1,1.9s0.7,1,1.2,1.3C64.95,69.31,65.55,69.81,66.25,70.41z M65.75,57.11c0.3,0.1,0.6,0.2,0.9,0.4
			s0.5,0.5,0.7,0.8s0.2,0.6,0.3,0.9c0.1,0.1,0,0.3,0,0.4c0,0.2,0,0.3,0,0.5c0,0.1-0.1,0.2-0.1,0.4c-0.1,0.3-0.1,0.6-0.3,0.8
			c-0.1,0.2-0.2,0.4-0.4,0.6c-0.1,0.1-0.3,0.2-0.4,0.3c-0.2,0.1-0.3,0.3-0.5,0.3c-0.2,0.1-0.4,0.1-0.6,0.2c-0.1,0-0.2,0.1-0.4,0.1
			c-0.2,0-0.5,0-0.8,0c-0.4,0-0.8-0.1-1.1-0.4c-0.2-0.2-0.5-0.4-0.7-0.5c-0.3-0.2-0.5-0.5-0.6-0.9c-0.1-0.2-0.2-0.4-0.2-0.7
			c0-0.2-0.1-0.4,0-0.6c0-0.2,0.1-0.5,0.1-0.7c0.1-0.3,0.3-0.6,0.4-0.9c0.2-0.4,0.5-0.7,0.8-0.8s0.4-0.2,0.7-0.3s0.7-0.1,1-0.2
			c0.2,0,0.3,0,0.5,0.1S65.65,57.01,65.75,57.11z M65.15,58.81c-0.1-0.1-0.3-0.1-0.4-0.1s-0.3,0-0.4,0.1s-0.2,0.1-0.3,0.2
			c-0.2,0.2-0.3,0.4-0.4,0.6c0,0.2,0,0.4,0,0.5c0.1,0.2,0.2,0.5,0.4,0.6c0.2,0.1,0.5,0.3,0.8,0.3c0.3-0.1,0.6-0.1,0.8-0.3
			c0.2-0.2,0.3-0.5,0.3-0.8s-0.1-0.6-0.3-0.8C65.45,59.01,65.25,58.91,65.15,58.81z"/>
		<path class="st3" d="M73.05,66.21c-0.4-0.2-0.8-0.4-1.1-0.6c-0.2-0.1-0.3-0.2-0.4-0.4c-0.1-0.3-0.4-0.5-0.5-0.8s-0.2-0.5-0.3-0.8
			c0-0.1-0.1-0.4-0.1-0.5c0-0.3,0-0.7,0-1c0.2-0.7,0.5-1.5,1.2-2c0.2-0.2,0.6-0.3,0.9-0.5c0.4-0.3,0.9-0.4,1.4-0.5
			c0.6-0.1,1.2,0.1,1.7,0.3c0.1,0,0.5,0.3,0.5,0.4c0.1,0.1,0.3,0.2,0.5,0.4c0.3,0.4,0.8,0.8,1,1.3c0.1,0.3,0.2,0.5,0.2,0.9
			c0,0.3,0.1,0.6,0,0.9c-0.1,0.7-0.3,1.4-0.8,2c-0.4,0.3-0.7,0.7-1.1,1c-0.2,0.1-0.4,0.1-0.6,0.2c-0.6,0.1-1.2,0.2-1.7,0.2
			C73.55,66.51,73.25,66.31,73.05,66.21z M83.95,68.91c-0.5,0.2-0.7,0.3-1.4,0.6c-0.4,0.2-0.7,0.3-1.1,0.5c-0.5,0.2-2.4,1.1-2.9,1.4
			c-0.4,0.2-1.3,0.6-1.7,0.8c-0.4,0.2-0.7,0.3-1.1,0.4c-0.5,0.2-0.7,0.3-1.2,0.5c-0.1-0.3-0.2-0.6-0.4-0.8c-0.1-0.2-0.2-0.3-0.2-0.5
			c-0.2-0.4-0.4-0.9-0.6-1.3c-0.1-0.2-0.2-0.4-0.3-0.7c0.6-0.3,0.8-0.4,1.4-0.6c0.9-0.4,2.3-1.1,3.2-1.5c0.9-0.4,3-1.3,3.9-1.7
			c0.4-0.2,0.4-0.2,1-0.4C82.85,66.51,83.35,67.51,83.95,68.91z"/>
		<path class="st3" d="M103.55,61.81c0,0.4,0,1-0.1,1.5c-0.1,1.2-0.1,2.7-0.2,3.8c0,1.3-0.1,2.4-0.2,3.7c0,0.6,0,0.5-0.1,1.3
			c-0.1,0-0.4,0-0.5,0c-0.8,0-1,0-2,0.1c-0.6,0-1,0-1.6,0c-0.8,0-0.5,0-1.3,0.1c-0.5,0.1-0.5,0-1.1,0.1c-0.6,0-1.5,0-2,0.1
			c-0.7,0-1,0.1-1.7,0.1c0-0.3,0-0.6-0.1-0.9c0-0.2,0-0.3,0-0.5c0-0.5-0.1-1-0.1-1.4c0-0.3-0.1-0.5,0-0.8c0.8,0,1.2,0,2-0.1
			c1.3-0.1,2.2-0.1,3.5-0.2c0.7,0,1.1-0.1,1.5-0.1c0-0.1,0-0.1,0-0.2c0-0.8,0-1.6,0-2.4c0-0.5,0.1-1.8,0.1-2.4c-0.1,0-0.3,0-0.4,0
			c-0.6,0-1-0.1-1.6-0.1c-0.8,0-1.5,0-2.3,0c-0.6,0-0.3-0.1-0.9-0.1c-0.5,0-1-0.1-1.6-0.1c-0.7,0-1,0-1.7-0.1c0-0.3,0-0.6,0-0.9
			c0-0.2,0-0.3,0-0.5c0-0.5,0-1,0.1-1.5c0-0.2,0-0.5,0-0.7c0.8,0,1.2,0.1,2,0.1c1.3,0,2.4,0.1,3.8,0.2c1.3,0.1,1.5,0.1,2.8,0.1
			c0.6,0,2.6,0.1,3.4,0.1c0,0.1,0,0.7,0,0.8C103.55,61.11,103.55,61.41,103.55,61.81z"/>
		<path class="st3" d="M112.95,68.01c-0.7-0.1-1.2-0.1-1.7-0.1c0.1-0.9,0.1-2.2,0.3-3.6c0.8,0.1,1.1,0,2.1,0.1
			c0.8,0.1,3.3,0.2,4.2,0.2s1.8,0,2.5,0s1.2-0.1,1.9-0.2c0.9,0,0.9-0.1,1.7-0.2c0,0.3,0.2,1.2,0.2,1.4c0,0.5,0.2,1,0.1,1.5
			c0,0.2,0.1,0.5,0.1,0.7c-0.9,0.1-1.5,0.1-2.5,0.2c-1.6,0.1-2.9,0-4.5,0.1C115.75,68.21,114.45,68.11,112.95,68.01z"/>
		<path class="st3" d="M145.55,71.61c-0.1,0.1-0.2,0.2-0.3,0.3c-0.4,0.3-1.2,1.1-1.2,1.1l-0.6,0.5l-0.4,0.3c-0.2-0.2-0.8-0.9-1-1.1
			c-0.5-0.7-1.4-1.5-2.1-2c-0.5-0.5-1.3-1.1-1.8-1.5c-0.1,0.1-0.3,0.2-0.4,0.3c-0.2,0.2-0.4,0.4-0.6,0.6c-0.4,0.4-1.4,1.2-1.9,1.6
			c-0.5,0.5-1.1,0.8-1.4,1.1c-0.2-0.1-0.3-0.4-0.4-0.5c-0.4-0.3-0.6-0.8-1-1.1c-0.1-0.1-0.7-0.9-0.9-1.1c0.7-0.5,0.8-0.5,1.3-1
			c0.4-0.4,1-0.8,1.5-1.3c0.2-0.2,0.4-0.4,0.7-0.5c0.2-0.2,0.4-0.4,0.7-0.7c0.2-0.2,0.5-0.5,0.8-0.8c0.5-0.6,1.7-1.9,2.2-2.7
			c-0.4,0-0.8,0-1.1,0c-1.2,0-2.4,0-3.6-0.1c-0.5,0-0.7,0-1.5,0c0.1-0.9,0-2,0.1-3.6c0.7,0,1.2,0,2.1,0.1c0.6,0,1.1,0,1.7,0.1
			c0.7,0,1.5,0,2.2,0c0.5,0,1.5,0.1,2,0.1s1,0.1,1.5,0.1c0.7,0,0.9,0,1.5,0c0,0.3,0,0.4,0,0.7c0,0.1,0,0.2,0,0.2
			c0,0.1-0.1,0.5-0.1,0.6c0,0.4-0.1,0.8-0.2,1c0,0.3-0.3,0.7-0.4,1c-0.3,0.7-0.4,0.8-0.8,1.5c-0.1,0.3-0.3,0.5-0.5,0.7
			s-0.5,0.7-1,1.2c0.5,0.3,0.9,0.7,1.3,1.1c0.2,0.2,1,0.8,1.2,1c0.5,0.5,1.7,1.4,2.3,2.1l0.5,0.5L145.55,71.61z"/>
	</g>
	<polygon class="st1" points="97.25,124.11 111.25,99.91 83.35,99.91 	"/>
</g>
</svg>
