<svg id="レイヤー_1" data-name="レイヤー 1" xmlns="http://www.w3.org/2000/svg" xmlns:xlink="http://www.w3.org/1999/xlink" viewBox="0 0 1170 1539.66"><defs><style>.cls-1{fill:url(#名称未設定グラデーション_3);}.cls-2{fill:#fffdfe;opacity:0.4;}.cls-3,.cls-9{fill:#1d1d1b;}.cls-16,.cls-3{opacity:0.1;}.cls-4{opacity:0.5;}.cls-5,.cls-56{fill:#fff;}.cls-6{fill:#9d9d9c;}.cls-7{fill:#41a863;}.cls-8{fill:#dadada;}.cls-9{opacity:0.2;}.cls-10{fill:#47383a;}.cls-11{fill:#a45940;}.cls-12{fill:#5e4a4c;}.cls-13{fill:#f6af49;}.cls-14{fill:#a7c2b9;}.cls-15{fill:#7d9894;}.cls-17,.cls-20,.cls-54{fill:#3c0000;}.cls-17,.cls-18,.cls-19,.cls-22,.cls-27{stroke:#3c0000;}.cls-17,.cls-18,.cls-19,.cls-21,.cls-22,.cls-23,.cls-26,.cls-27,.cls-28{stroke-miterlimit:10;}.cls-17,.cls-18,.cls-19{stroke-width:1.66px;}.cls-18{fill:#6d6d6d;}.cls-19{fill:#ad5151;}.cls-21,.cls-24{fill:#d0d1d3;}.cls-21,.cls-23,.cls-26,.cls-28{stroke:#232020;}.cls-21,.cls-23{stroke-width:0.41px;}.cls-22,.cls-27,.cls-28{fill:none;}.cls-22,.cls-28{stroke-linecap:round;stroke-width:1.62px;}.cls-23,.cls-29{fill:#eb5160;}.cls-25{fill:#eaeced;}.cls-26{fill:#dd8793;stroke-width:0.33px;}.cls-27{stroke-width:2.39px;}.cls-30{fill:#ffebc8;}.cls-31{fill:#efd3a5;}.cls-32{fill:#ff92ab;}.cls-33{fill:#fffefd;}.cls-34{fill:#fff6ee;}.cls-35{fill:#f59f37;}.cls-36{fill:#f5b887;}.cls-37{fill:#fd974f;}.cls-38{fill:#ffce8d;}.cls-39{fill:#ffd5d5;}.cls-40{fill:#3d1c1f;}.cls-41{fill:#c7ddbc;}.cls-42{fill:#dbeac5;}.cls-43{fill:#91c04f;}.cls-44{fill:#fd6161;}.cls-45{fill:#fdfdfd;}.cls-46{fill:#440e0a;}.cls-47{fill:#fde8c6;}.cls-48{fill:#b86a39;}.cls-48,.cls-49,.cls-50,.cls-51,.cls-52,.cls-53,.cls-54,.cls-56{fill-rule:evenodd;}.cls-49,.cls-55{fill:#eec26b;}.cls-50{fill:#b0602e;}.cls-51{fill:#bf774a;}.cls-52{fill:#bf784c;}.cls-53{fill:#cf906a;}.cls-57{fill:#8c533d;}.cls-58{fill:#e2d7c2;}</style><linearGradient id="名称未設定グラデーション_3" x1="585" y1="-64.72" x2="585" y2="1335.27" gradientUnits="userSpaceOnUse"><stop offset="0" stop-color="#9ed9ff"/><stop offset="0.21" stop-color="#a2d8fc"/><stop offset="0.41" stop-color="#aed5f5"/><stop offset="0.61" stop-color="#c1d0e8"/><stop offset="0.81" stop-color="#ddc9d6"/><stop offset="1" stop-color="#ffc1bf"/></linearGradient></defs><rect class="cls-1" width="1170" height="1264.62"/><path class="cls-2" d="M100.12,811.26c15.37-5.6,26.9-18.29,40.42-27.5,5.51-3.75,11.62-7,18.26-7.61s13.9,2,17.29,7.77c2.09,3.55,2.69,8.11,5.83,10.78,5.42,4.6,13.63.34,19.1-4.21,8-6.68,15.9-14.22,25.88-17.36s22.91-.12,26.92,9.55c1.84,4.41,1.71,9.8,5,13.3,3.46,3.72,9.19,3.74,14.15,4.87s10.39,5.49,8.68,10.27Z"/><path class="cls-3" d="M1169.83,977.71v286.91H.68v-266H88.24v15.07H93v5.27h5.25v5.88h8.18l17.25,10.54v15h11V984.08h66.64v75.8l21.41-8.56,25.15,10.07v-29.13h20.84v-5.2h2V1006.8h57.94v-.75h1.79V989.28l3.46-2.59h60.46l3.45,2.59v58.47l5.64-2.71,22.63-10.67,6.23,3v-2.26l2.76,1.45v2.09l10.68,5,10.68-5v-2.11l2.78-1.43v2.26l6.2-3L488.22,1045l5.53,2.79v-29.78H492V985.79h1.79V957.87l3.46-2.59h60.46l3.53,2.59v16.8H563v.73h57.86v51.66h2v5.2h20.84v27.9l46.55-.23V883.73h66.65v166.61h11v-15l17.25-10.54h8.21v-5.88h5.22v-5.27h4.86V967.79h74.65v129.27h26v-40.65l-1.24-.87c.72-.51,1.48-1,2.23-1.39.93-.57,1.69-1,2.52-1.43A55.12,55.12,0,0,1,928,1047.1s.39,0,.65,0a5.39,5.39,0,0,1,.6,0h.28a35.76,35.76,0,0,1,4.11-.15c11.92,0,22.78,3,30.63,8.31h-.68l-.07,2.51v39.25l12.62,7.28,2.5-64.2h11.3v-15.67h5.25v-3.16H1000v-1.33h41v1.33H1046v3.16h5.25V1075h44.58v-1.28h2.7V1075h13l9.3,7.28V977.71Z"/><g class="cls-4"><rect class="cls-5" x="69.75" y="1008.47" width="8.44" height="8.16"/><rect class="cls-5" x="280.63" y="1016.63" width="8.44" height="8.16"/><rect class="cls-5" x="293.4" y="1083.69" width="8.44" height="8.16"/><rect class="cls-5" x="307.04" y="1083.69" width="8.44" height="8.16"/><rect class="cls-5" x="311.26" y="1042.26" width="8.44" height="8.16"/><rect class="cls-5" x="525.07" y="993.3" width="8.44" height="8.16"/><rect class="cls-5" x="525.07" y="1038.18" width="8.44" height="8.16"/><rect class="cls-5" x="340.93" y="1043.31" width="8.44" height="8.16"/><rect class="cls-5" x="602.15" y="985.04" width="8.44" height="8.16"/><rect class="cls-5" x="597.92" y="1024.63" width="8.44" height="8.16"/><rect class="cls-5" x="602.15" y="1079.61" width="8.44" height="8.16"/><rect class="cls-5" x="586.73" y="985.04" width="8.44" height="8.16"/><rect class="cls-5" x="571.32" y="1004.39" width="8.44" height="8.16"/><rect class="cls-5" x="555.91" y="985.04" width="8.44" height="8.16"/><rect class="cls-5" x="555.91" y="1061.51" width="8.44" height="8.16"/><rect class="cls-5" x="833.7" y="1086.61" width="8.44" height="8.16"/><rect class="cls-5" x="926.8" y="1119.78" width="8.44" height="8.16"/><rect class="cls-5" x="1026.18" y="1119.78" width="8.44" height="8.16"/><rect class="cls-5" x="1055.73" y="1094.98" width="8.44" height="8.16"/><rect class="cls-5" x="1086.26" y="1109.11" width="8.44" height="8.16"/><rect class="cls-5" x="1101.52" y="1094.98" width="8.44" height="8.16"/><rect class="cls-5" x="943.36" y="1087.77" width="8.44" height="8.16"/><rect class="cls-5" x="985.1" y="1087.77" width="8.44" height="8.16"/><rect class="cls-5" x="813.35" y="1086.61" width="8.44" height="8.16"/><rect class="cls-5" x="24.71" y="1044.25" width="6.5" height="6.28"/><rect class="cls-5" x="86.2" y="1050.52" width="5.2" height="10.88"/><rect class="cls-5" x="68.02" y="1037.55" width="5.95" height="4.6"/><rect class="cls-5" x="78.19" y="1117.37" width="5.95" height="4.6"/><rect class="cls-5" x="39.87" y="1091.95" width="5.63" height="9.62"/><rect class="cls-5" x="21.9" y="1114.86" width="5.63" height="9.62"/><rect class="cls-5" x="144.66" y="993.2" width="5.2" height="8.37"/><rect class="cls-5" x="155.49" y="993.2" width="5.2" height="8.37"/><rect class="cls-5" x="360.74" y="993.2" width="5.2" height="8.37"/><rect class="cls-5" x="382.82" y="1043.2" width="5.2" height="8.37"/><rect class="cls-5" x="374.16" y="1115.49" width="5.2" height="8.37"/><rect class="cls-5" x="371.56" y="993.2" width="5.2" height="8.37"/><rect class="cls-5" x="695.46" y="892.35" width="5.2" height="8.37"/><rect class="cls-5" x="719.71" y="892.35" width="5.2" height="8.37"/><rect class="cls-5" x="707.59" y="908.88" width="5.2" height="8.37"/><rect class="cls-5" x="695.46" y="925.41" width="5.2" height="8.37"/><rect class="cls-5" x="719.71" y="925.41" width="5.2" height="8.37"/><rect class="cls-5" x="743.96" y="925.41" width="5.2" height="8.37"/><rect class="cls-5" x="731.83" y="941.94" width="5.2" height="8.37"/><rect class="cls-5" x="743.96" y="941.94" width="5.2" height="8.37"/><rect class="cls-5" x="695.46" y="958.47" width="5.2" height="8.37"/><rect class="cls-5" x="812.38" y="974.99" width="5.2" height="8.37"/><rect class="cls-5" x="825.15" y="993.2" width="5.2" height="8.37"/><rect class="cls-5" x="863.47" y="993.2" width="5.2" height="8.37"/><rect class="cls-5" x="837.92" y="974.99" width="5.2" height="8.37"/><rect class="cls-5" x="997.92" y="1028.76" width="5.2" height="8.37"/><rect class="cls-5" x="1011.56" y="1028.6" width="5.2" height="8.37"/><rect class="cls-5" x="1011.56" y="1043.2" width="5.2" height="8.37"/><rect class="cls-5" x="1011.56" y="1083.58" width="5.2" height="8.37"/><rect class="cls-5" x="1011.56" y="1117.37" width="5.2" height="8.37"/><rect class="cls-5" x="1038.84" y="1062.08" width="5.2" height="8.37"/><rect class="cls-5" x="1025.2" y="1043.99" width="5.2" height="8.37"/><rect class="cls-5" x="860.87" y="1113.19" width="5.2" height="8.37"/><rect class="cls-5" x="914.5" y="1087.77" width="5.2" height="8.37"/><rect class="cls-5" x="914.5" y="1062.08" width="5.2" height="8.37"/><rect class="cls-5" x="982.5" y="1061.4" width="5.2" height="8.37"/><rect class="cls-5" x="863.47" y="974.99" width="5.2" height="8.37"/><rect class="cls-5" x="850.7" y="1010.35" width="5.2" height="8.37"/><rect class="cls-5" x="863.47" y="1038.08" width="5.2" height="8.37"/><rect class="cls-5" x="775.79" y="1039.02" width="5.2" height="8.37"/><rect class="cls-5" x="793.97" y="1028.76" width="5.2" height="8.37"/><rect class="cls-5" x="822.55" y="1053.03" width="5.2" height="8.37"/><rect class="cls-5" x="707.59" y="958.47" width="5.2" height="8.37"/><rect class="cls-5" x="719.71" y="958.47" width="5.2" height="8.37"/><rect class="cls-5" x="1139.31" y="987.34" width="5.2" height="8.37"/><rect class="cls-5" x="1154.03" y="987.34" width="5.2" height="8.37"/><rect class="cls-5" x="1129.78" y="1006.17" width="5.2" height="8.37"/><rect class="cls-5" x="1154.03" y="1006.17" width="5.2" height="8.37"/><rect class="cls-5" x="1154.03" y="1025" width="5.2" height="8.37"/><rect class="cls-5" x="1129.78" y="1062.66" width="5.2" height="8.37"/><rect class="cls-5" x="1154.03" y="1081.49" width="5.2" height="8.37"/><rect class="cls-5" x="1141.9" y="1100.32" width="5.2" height="8.37"/><rect class="cls-5" x="1154.03" y="1100.32" width="5.2" height="8.37"/><rect class="cls-5" x="1129.78" y="1119.15" width="5.2" height="8.37"/><rect class="cls-5" x="731.83" y="974.99" width="5.2" height="8.37"/><rect class="cls-5" x="695.46" y="991.52" width="5.2" height="8.37"/><rect class="cls-5" x="731.83" y="1008.05" width="5.2" height="8.37"/><rect class="cls-5" x="743.96" y="1008.05" width="5.2" height="8.37"/><rect class="cls-5" x="707.59" y="1024.58" width="5.2" height="8.37"/><rect class="cls-5" x="731.83" y="1024.58" width="5.2" height="8.37"/><rect class="cls-5" x="695.46" y="1041.11" width="5.2" height="8.37"/><rect class="cls-5" x="743.96" y="1041.11" width="5.2" height="8.37"/><rect class="cls-5" x="695.46" y="1057.64" width="5.2" height="8.37"/><rect class="cls-5" x="743.96" y="1057.64" width="5.2" height="8.37"/><rect class="cls-5" x="719.71" y="1074.17" width="5.2" height="8.37"/><rect class="cls-5" x="743.96" y="1074.17" width="5.2" height="8.37"/><rect class="cls-5" x="695.46" y="1090.69" width="5.2" height="8.37"/><rect class="cls-5" x="519.87" y="970.18" width="5.2" height="8.37"/><rect class="cls-5" x="651.16" y="1071.13" width="5.2" height="8.37"/><rect class="cls-5" x="631.59" y="1042.16" width="5.2" height="8.37"/><rect class="cls-5" x="301.85" y="1042.16" width="5.2" height="8.37"/><rect class="cls-5" x="172.81" y="1037.97" width="5.2" height="8.37"/><rect class="cls-5" x="172.81" y="1083.58" width="5.2" height="8.37"/><rect class="cls-5" x="333.13" y="1083.58" width="5.2" height="8.37"/><rect class="cls-5" x="474.19" y="1075.32" width="5.2" height="8.37"/><rect class="cls-5" x="458.6" y="1043.2" width="5.2" height="8.37"/><rect class="cls-5" x="507.53" y="970.18" width="5.2" height="8.37"/><rect class="cls-5" x="217.41" y="1057.22" width="5.2" height="8.37"/><rect class="cls-5" x="338.33" y="993.2" width="5.2" height="8.37"/><rect class="cls-5" x="349.37" y="1014.54" width="5.2" height="8.37"/><rect class="cls-5" x="422.66" y="1065.59" width="5.2" height="8.37"/><rect class="cls-5" x="144.66" y="1037.97" width="5.2" height="8.37"/><rect class="cls-5" x="181.03" y="1008.37" width="5.2" height="8.37"/><rect class="cls-5" x="155.49" y="1008.37" width="5.2" height="8.37"/><rect class="cls-5" x="160.68" y="1083.58" width="5.2" height="8.37"/><rect class="cls-5" x="256.38" y="1043.2" width="5.2" height="8.37"/><rect class="cls-5" x="410.53" y="1050.42" width="5.2" height="8.37"/></g><rect class="cls-6" x="0.52" y="1259.55" width="1169.48" height="205.7"/><polygon class="cls-7" points="1170 1412.54 1170 1455.14 658.31 1455.14 690.3 1441.66 759.38 1412.54 1170 1412.54"/><polygon class="cls-5" points="1170 1410.03 1170 1415.05 762.19 1415.05 697.84 1441.66 684.59 1441.66 761.07 1410.03 1170 1410.03"/><polygon class="cls-8" points="1169.83 1414.37 1169.83 1419.39 763.26 1419.39 685.85 1452.2 672.64 1452.2 762.15 1414.37 1169.83 1414.37"/><rect class="cls-7" x="0.52" y="1444.91" width="1169.48" height="93.22"/><rect class="cls-5" x="0.52" y="1441.62" width="686.1" height="4.15"/><rect class="cls-5" x="0.52" y="1535.9" width="1169.48" height="4.15"/><polygon class="cls-8" points="685.89 1452.2 0.52 1452.2 0.52 1445.06 694.73 1445.06 685.89 1452.2"/><path class="cls-9" d="M1150.16,1259.55v7.53H1096.1a6.56,6.56,0,0,1-6.58-6.57,6.22,6.22,0,0,1,.08-1Z"/><path class="cls-9" d="M669.37,1365.33c0,4.13-5.36,7.48-12,7.48H214.6c-6.61,0-12-3.35-12-7.48h0c0-4.13,5.36-7.48,12-7.48H657.4c6.61,0,12,3.35,12,7.48Z"/><rect class="cls-10" x="473.73" y="1127.17" width="7.07" height="204.62"/><rect class="cls-10" x="367.5" y="1127.17" width="7.07" height="204.62"/><rect class="cls-11" x="267.98" y="1279.81" width="312.82" height="8.38"/><rect class="cls-10" x="252.48" y="1127.17" width="15.78" height="204.62"/><rect class="cls-10" x="580.8" y="1127.17" width="15.78" height="204.62"/><rect class="cls-12" x="225.81" y="1113.21" width="397.42" height="13.96"/><path class="cls-13" d="M596.37,1086.07H252.68a26.87,26.87,0,0,0-26.87,26.87v.27H623.24v-.27A26.87,26.87,0,0,0,596.37,1086.07Z"/><rect class="cls-14" x="274.28" y="1131.42" width="87.79" height="143.99"/><rect class="cls-14" x="380.51" y="1131.42" width="87.79" height="143.99"/><rect class="cls-14" x="486.8" y="1131.42" width="87.79" height="143.99"/><rect class="cls-12" x="367.5" y="1086.07" width="7.07" height="33.51"/><rect class="cls-12" x="260.37" y="1084.74" width="7.07" height="34.84"/><rect class="cls-12" x="473.73" y="1086.07" width="7.07" height="33.51"/><rect class="cls-12" x="580.8" y="1084.74" width="7.07" height="34.84"/><rect class="cls-15" x="293.89" y="1127.17" width="4.86" height="7.89"/><rect class="cls-15" x="337.6" y="1127.17" width="4.86" height="7.89"/><rect class="cls-15" x="400.24" y="1127.17" width="4.86" height="7.89"/><rect class="cls-15" x="443.95" y="1127.17" width="4.86" height="7.89"/><rect class="cls-15" x="506.42" y="1127.17" width="4.86" height="7.89"/><rect class="cls-15" x="550.12" y="1127.17" width="4.86" height="7.89"/><rect class="cls-15" x="293.89" y="1271.46" width="4.86" height="7.89"/><rect class="cls-15" x="337.6" y="1271.46" width="4.86" height="7.89"/><rect class="cls-15" x="400.24" y="1271.46" width="4.86" height="7.89"/><rect class="cls-15" x="443.95" y="1271.46" width="4.86" height="7.89"/><rect class="cls-15" x="506.42" y="1271.46" width="4.86" height="7.89"/><rect class="cls-15" x="550.12" y="1271.46" width="4.86" height="7.89"/><g class="cls-4"><polygon class="cls-5" points="539.18 1136.88 505.41 1268.29 538.27 1268.29 572.58 1136.88 539.18 1136.88"/><polygon class="cls-5" points="527.13 1136.88 493.78 1268.29 502.15 1268.29 535.66 1136.88 527.13 1136.88"/></g><g class="cls-4"><polygon class="cls-5" points="431.42 1136.88 397.65 1268.29 430.51 1268.29 464.81 1136.88 431.42 1136.88"/><polygon class="cls-5" points="419.36 1136.88 386.01 1268.29 394.38 1268.29 427.89 1136.88 419.36 1136.88"/></g><g class="cls-4"><polygon class="cls-5" points="323.65 1136.88 289.88 1268.29 322.74 1268.29 357.05 1136.88 323.65 1136.88"/><polygon class="cls-5" points="311.6 1136.88 278.24 1268.29 286.62 1268.29 320.13 1136.88 311.6 1136.88"/></g><path class="cls-16" d="M565.4,1330.22v-32.9s0,32.9,6.39,34.12l-6.37.35Z"/><path class="cls-16" d="M596.33,1330.22v-32.9s.86,33.59-11.19,34.12l11.18.35Z"/><rect class="cls-17" x="97.6" y="1299.64" width="9.37" height="55.67"/><path class="cls-18" d="M121,1354.43H83.63a2.5,2.5,0,0,0-2.5,2.44l-.1,3.39h42.41l.09-3.25A2.51,2.51,0,0,0,121,1354.43Z"/><path class="cls-19" d="M94.88,1226.28h14.81A23.68,23.68,0,0,1,133.37,1250v58.78a0,0,0,0,1,0,0H71.19a0,0,0,0,1,0,0V1250A23.68,23.68,0,0,1,94.88,1226.28Z"/><rect class="cls-5" x="77.31" y="1248.95" width="49.95" height="28.58"/><path class="cls-20" d="M127.26,1278.57H77.31a1,1,0,0,1-1-1V1249a1,1,0,0,1,1-1h50a1,1,0,0,1,1,1v28.58A1,1,0,0,1,127.26,1278.57Zm-48.91-2.08h47.87V1250H78.35Z"/><rect class="cls-20" x="77.31" y="1271.23" width="49.95" height="6.3"/><path class="cls-5" d="M86.3,1234.12H84.49a.86.86,0,0,0-.88.82v7.17a.88.88,0,0,0,1.76,0v-2.51h.93a2.76,2.76,0,1,0,0-5.48Zm0,3.85h-.93v-2.22h.93a1.24,1.24,0,0,1,1.34,1.12A1.23,1.23,0,0,1,86.3,1238Z"/><path class="cls-5" d="M95.06,1234.39h0a3.07,3.07,0,0,0-1.51-.4,3.15,3.15,0,0,0-1.53.4,5.14,5.14,0,0,0,0,8.22,3.05,3.05,0,0,0,3,0,5.12,5.12,0,0,0,0-8.21Zm-1,6.83a1,1,0,0,1-.56.16,1.1,1.1,0,0,1-.59-.17,3.18,3.18,0,0,1-1.25-2.71,3.43,3.43,0,0,1,1.25-2.71,1.53,1.53,0,0,1,.59-.17,1.49,1.49,0,0,1,.58.17,3.42,3.42,0,0,1,1.24,2.71,3.16,3.16,0,0,1-1.24,2.71Z"/><path class="cls-5" d="M101.33,1237.52h0c-1-.28-1.55-.54-1.55-1a.7.7,0,0,1,.23-.51,1.32,1.32,0,0,1,.95-.34H101a1.13,1.13,0,0,1,1.15.71s0,.06,0,.1v0a.88.88,0,0,0,0,.34l0,.06a.81.81,0,0,0,.83.56.84.84,0,0,0,.88-.81,3,3,0,0,0-5.92-.16c0,1.78,1.8,2.3,2.77,2.58.53.14,1.77.56,1.77,1.32s-.69,1-1.33,1a1.59,1.59,0,0,1-.85-.2h0a1,1,0,0,1-.55-.7v-.07s0,0,0-.06,0-.07,0-.12a.13.13,0,0,1,0-.06v0a.81.81,0,0,0-.86-.77.86.86,0,0,0-.88.82c0,1.66,1.32,2.82,3.22,2.82s3.07-1.08,3.07-2.63C104.33,1239.07,103.32,1238.1,101.33,1237.52Z"/><path class="cls-5" d="M109.88,1234.21h-4.33a.82.82,0,1,0,0,1.63h1.28v6.22a.88.88,0,0,0,1.76,0v-6.22h1.29a.82.82,0,1,0,0-1.63Z"/><path class="cls-5" d="M115.66,1239.18h-5.57a.6.6,0,0,1-.61-.6h0a.6.6,0,0,1,.61-.6h5.57a.6.6,0,0,1,.61.6h0A.6.6,0,0,1,115.66,1239.18Z"/><rect class="cls-5" x="111.45" y="1234.65" width="3.79" height="1.25" rx="0.6"/><rect class="cls-5" x="111.18" y="1241.03" width="9.77" height="1.47" rx="0.6"/><path class="cls-21" d="M624.13,1270.74s.19-5.51,1.16-6.19,8.51-.29,9.57.19,1.26,6,1.26,6Z"/><path class="cls-22" d="M623.78,1270.51s.19-4.64,1.06-5.51,7.36-.87,9.48-.38,1.45,6,1.45,6"/><path class="cls-23" d="M648,1328.78a23.14,23.14,0,0,1-1.92,3.92c-1,1.55-34,5.8-34,5.8-39,3.13-32.93-1.44-39.2-3.32a22.94,22.94,0,0,1-2.21-.74c-10.06-9.67-3.1-50.64-3.1-50.64,1.16-13,7.54-12.58,7.54-12.58l64.24-.77c10.84,3.68,10.06,26.27,11,39.81C651,1319,649.45,1325.09,648,1328.78Z"/><path class="cls-24" d="M570.07,1282.7s29.35-2.06,49.34-1.55,27.73,1.29,27.73,1.29,0-12.76-10.58-12.12-45.6.39-45.6.39-16.77.51-19,1.93-3.61,7.22-3.74,10.13Z"/><path class="cls-21" d="M579.83,1270.74s.2-5.51,1.16-6.19,8.51-.29,9.58.19,1.26,6,1.26,6Z"/><path class="cls-23" d="M603.44,1273.67s5.16-.83,6-.32,1.16,4.77,1.09,5.35-4.44,1.42-5.93,1a6.32,6.32,0,0,1-2.64-1.93Z"/><path class="cls-25" d="M571.61,1282.57a13.5,13.5,0,0,1,3.61-6.83c3-2.84,58.12-2.32,62.12-2.45a6.27,6.27,0,0,1,6.06,4.38c.38,1.16.9,4.39.9,4.39l2.84.38s-.39-11.6-10.58-12.12-61.47.9-61.47.9-5.28,2.45-5.41,4.26-1.42,7.87-1.42,7.87Z"/><path class="cls-26" d="M641.46,1282.44s3.1,21.63-.38,36.72-13.74,13.35-20.89,13.35,19.14,2.71,24.17-1,5-7,5-7,2.45-25.5-2.25-42.14l-6-.58Z"/><path class="cls-27" d="M568.65,1278.16s-8.12,44.45.39,54.9,68.11,6,76.81-.39,2.52-49.29-.19-56.26-7.35-5.8-16.63-6.19-45.68.58-49.74.78S570.78,1270.61,568.65,1278.16Z"/><path class="cls-22" d="M570.78,1282.75c17.76-1.42,33-1.26,33-1.26"/><path class="cls-27" d="M602.87,1273.92a8.52,8.52,0,0,0-.2,4.3c.59,1.76,6.74,1,7.62.49s.19-4.2-.39-5.08S603.84,1273,602.87,1273.92Z"/><path class="cls-22" d="M579.49,1270.51s.19-4.64,1.06-5.51,7.35-.87,9.48-.38,1.45,6,1.45,6"/><path class="cls-22" d="M609.3,1281.64s16.24-.58,31.91.38"/><line class="cls-28" x1="571.56" y1="1289.83" x2="575.17" y2="1289.89"/><line class="cls-28" x1="570.65" y1="1294.6" x2="575.42" y2="1294.47"/><line class="cls-28" x1="570.39" y1="1299.63" x2="575.29" y2="1299.75"/><line class="cls-28" x1="570.01" y1="1317.58" x2="574.91" y2="1317.71"/><line class="cls-28" x1="571.17" y1="1322.87" x2="576.07" y2="1323"/><line class="cls-28" x1="573.1" y1="1327.51" x2="576.49" y2="1327.64"/><line class="cls-28" x1="570.14" y1="1306.11" x2="574.91" y2="1306.11"/><line class="cls-28" x1="570.39" y1="1312.04" x2="575.17" y2="1312.04"/><line class="cls-28" x1="644.89" y1="1290.34" x2="641.28" y2="1290.41"/><line class="cls-28" x1="645.79" y1="1295.11" x2="641.02" y2="1294.98"/><line class="cls-28" x1="646.05" y1="1300.14" x2="641.15" y2="1300.27"/><line class="cls-28" x1="646.43" y1="1318.1" x2="641.53" y2="1318.23"/><line class="cls-28" x1="645.27" y1="1323.38" x2="640.37" y2="1323.51"/><line class="cls-28" x1="643.34" y1="1328.03" x2="639.95" y2="1328.15"/><line class="cls-28" x1="646.31" y1="1306.11" x2="641.53" y2="1306.11"/><line class="cls-28" x1="646.05" y1="1312.55" x2="641.28" y2="1312.55"/><path class="cls-29" d="M620.8,1363.74a4.77,4.77,0,0,1,4.6-3.63h.05a4.79,4.79,0,0,1,4.63,3.64Z"/><path class="cls-29" d="M597.91,1359.67a4.78,4.78,0,0,1,1.44,5.72l-7.34-5.68a4.78,4.78,0,0,1,5.9,0Z"/><path class="cls-30" d="M600,1354.45a17.72,17.72,0,0,1-1.69,2.79,6.76,6.76,0,0,0-1.65-.63,18,18,0,0,0,1.72-2.75A6.52,6.52,0,0,0,600,1354.45Z"/><path class="cls-30" d="M623.27,1352.34a18.32,18.32,0,0,1,1,5.59,6.61,6.61,0,0,0-1.71.5,16.57,16.57,0,0,0-1-5.71A4.68,4.68,0,0,1,623.27,1352.34Z"/><path class="cls-26" d="M629.1,1351.52a.25.25,0,0,1-.08.29.24.24,0,0,1-.31,0c-.27-.14-.53-.3-.81-.47a7.1,7.1,0,0,0-3.73-1.31H624l-.39,0a6.93,6.93,0,0,0-4.11,1.23h0l-.13.09a4.92,4.92,0,0,1-3,1,4.86,4.86,0,0,1-3.05-1,7.07,7.07,0,0,0-4.26-1.32,7,7,0,0,0-4.26,1.33,5,5,0,0,1-3,1,4.87,4.87,0,0,1-3.06-1l-.1-.06,0,0a7.51,7.51,0,0,0-8.4.09c-.27.17-.53.33-.81.47a.24.24,0,0,1-.3,0,.3.3,0,0,1-.09-.31l5.72-17.3c.47.2,1,.39,1.43.57a3.05,3.05,0,0,0-1.22,1.45,3.14,3.14,0,0,0,2,4.2,28.21,28.21,0,0,0,8,1.18,21.31,21.31,0,0,0,12-3.37,19.37,19.37,0,0,0,3.37-2.84l.53-.17h0l.14-.06h0c.82-.28,1.63-.61,2.43-.94Z"/><path class="cls-31" d="M623.75,1354c-.14-.55-.29-1.1-.48-1.63a4.68,4.68,0,0,0-1.68.38c.17.46.31.93.44,1.4a7.59,7.59,0,0,1,1.6-.16Z"/><path class="cls-31" d="M597.87,1354.82l.65.38,0,0,.1.06.7.42a13.87,13.87,0,0,0,.68-1.25,6.52,6.52,0,0,1-1.62-.59C598.24,1354.19,598.06,1354.51,597.87,1354.82Z"/><path class="cls-30" d="M626.16,1335.34a15.87,15.87,0,0,0,11.85-7.42,1.12,1.12,0,0,0,0-1.23,2.68,2.68,0,0,1-.43-1.31,2.75,2.75,0,0,1,.74-2,2.7,2.7,0,0,1,1.89-.87,2.7,2.7,0,0,1,2.78,2.7,2.68,2.68,0,0,1-2.45,2.69,1.14,1.14,0,0,0-.87.54,17.55,17.55,0,0,1-13,8.48Z"/><path class="cls-30" d="M621,1330.63a21.25,21.25,0,0,1-1.44,2.06l-.51.6a4.57,4.57,0,0,1-.31.34,16.15,16.15,0,0,1-3.15,2.71,19.08,19.08,0,0,1-10.71,3,26.19,26.19,0,0,1-7.37-1.09.85.85,0,0,1-.54-1.16.83.83,0,0,1,.79-.53,1.07,1.07,0,0,1,.25,0,23.38,23.38,0,0,0,11.73.5h0a15.62,15.62,0,0,0,9.55-7,1.16,1.16,0,0,0,0-1.23,2.62,2.62,0,0,1-.43-1.31,2.69,2.69,0,0,1,.74-2,2.64,2.64,0,0,1,1.88-.87h0a2.64,2.64,0,0,1,2,.75,2.73,2.73,0,0,1,.81,1.94,2.68,2.68,0,0,1-2.44,2.69A1.13,1.13,0,0,0,621,1330.63Z"/><path class="cls-32" d="M604.25,1317.87h9.52a4.76,4.76,0,0,1-9.52,0Z"/><path class="cls-30" d="M609,1287.82c-14,0-25.36,10.68-25.36,23.8a22.91,22.91,0,0,0,6.17,15.56,25.4,25.4,0,0,0,5.11,4.24,24.66,24.66,0,0,0,2.91,1.58,35.06,35.06,0,0,0,9.89,1.81l.63,0h1a12.86,12.86,0,0,0,5.35-2.8,13.94,13.94,0,0,0,2.35-2.64,4.92,4.92,0,0,1-.41-1.74A5,5,0,0,1,618,1324a5,5,0,0,1,8.61,3.37,4.52,4.52,0,0,1-.06.74,4.25,4.25,0,0,1-.21.87c.66-.58,1.29-1.19,1.88-1.82a22.92,22.92,0,0,0,6.18-15.57C634.37,1298.5,623,1287.82,609,1287.82Zm-13.29,21.66a2.7,2.7,0,1,1-2.7,2.7A2.7,2.7,0,0,1,595.72,1309.48Zm20.33,8.18a7,7,0,0,1-14.08,0v-.93a1.14,1.14,0,0,1,1.14-1.13h11.81a1.13,1.13,0,0,1,1.13,1.13Zm1.07-15.76a4.85,4.85,0,0,1-4-2.49,4.56,4.56,0,0,1-8.13,0,4.88,4.88,0,0,1-4,2.49c-2.87,0-5.2-3-5.2-6.68a1.14,1.14,0,0,1,2.28,0c0,2.39,1.33,4.41,2.92,4.41s2.92-2,2.92-4.41a1.14,1.14,0,0,1,2.27,0c0,2.39,1.33,4.41,2.91,4.41s2.92-2,2.92-4.41a1.14,1.14,0,0,1,2.27,0c0,2.39,1.34,4.41,2.92,4.41s2.92-2,2.92-4.41a1.14,1.14,0,0,1,2.28,0C622.32,1298.91,620,1301.9,617.12,1301.9Zm5.18,13a2.7,2.7,0,1,1,2.7-2.7A2.7,2.7,0,0,1,622.3,1314.88Z"/><path class="cls-33" d="M626.31,1329l.26-.23a5,5,0,0,0-.06-.56A5.08,5.08,0,0,1,626.31,1329Z"/><path class="cls-33" d="M616.63,1329.29a3.7,3.7,0,0,0,.07.57c.11-.15.23-.3.34-.47a5,5,0,0,1-.34-1.16A4.73,4.73,0,0,0,616.63,1329.29Z"/><path class="cls-34" d="M609,1289.46c13.71,0,24.9,10.26,25.34,23,0-.29,0-.58,0-.87,0-13.12-11.37-23.8-25.36-23.8s-25.36,10.68-25.36,23.8c0,.29,0,.58,0,.87C584.11,1299.72,595.3,1289.46,609,1289.46Z"/><path class="cls-20" d="M643.74,1321.68a4.91,4.91,0,0,0-3.6-1.41h-.07a5.41,5.41,0,0,0-4.7,5.83,5.77,5.77,0,0,0,.35,1.14,13.44,13.44,0,0,1-9.88,5.84l6-6.8a25.05,25.05,0,0,0,4.79-14.67c0-14.38-12.4-26.08-27.64-26.08s-27.63,11.7-27.63,26.08a25.07,25.07,0,0,0,4.78,14.67h0a32,32,0,0,0,6.56,6.47l-.17.5-5.79,17.55a2.55,2.55,0,0,0,3.6,3.06c.36-.18.67-.38,1-.56a4.89,4.89,0,0,1,3-1,4.71,4.71,0,0,1,2,.4,15.31,15.31,0,0,1-2.67,3.78,7,7,0,0,0-4.35,2.62,1.14,1.14,0,0,0,.2,1.6L599,1368a1.18,1.18,0,0,0,.7.24h.14a1.12,1.12,0,0,0,.75-.44,7,7,0,0,0-.43-9.13,20.11,20.11,0,0,0,2.32-4,7,7,0,0,0,3.5-1.29,5.3,5.3,0,0,1,6.11,0,7,7,0,0,0,4.26,1.33,6.72,6.72,0,0,0,3.26-.75,14.83,14.83,0,0,1,.64,6.26,7.09,7.09,0,0,0-1.83,4.74,1.14,1.14,0,0,0,1.13,1.14h11.84a1.14,1.14,0,0,0,1.14-1.14,7,7,0,0,0-5.92-7,20.87,20.87,0,0,0-.78-5.14,8.21,8.21,0,0,1,.89.52c.3.18.61.38,1,.57a2.56,2.56,0,0,0,2.84-.34,2.52,2.52,0,0,0,.76-2.73l-3.84-11.66a19.69,19.69,0,0,0,13.9-9,5,5,0,0,0,2.42-8.44Zm-54.2,5.19a22.92,22.92,0,0,1-5.89-15.25c0-13.12,11.38-23.8,25.36-23.8s25.36,10.68,25.36,23.8a23.1,23.1,0,0,1-8.06,17.39,5,5,0,0,0,.27-1.61,4.91,4.91,0,0,0-1.51-3.57,5,5,0,0,0-8.44,3.82,4.92,4.92,0,0,0,.41,1.74,14.17,14.17,0,0,1-1.58,1.92,13,13,0,0,1-6.12,3.52h-1l-.63,0a35.06,35.06,0,0,1-9.89-1.81,24.66,24.66,0,0,1-2.91-1.58A25.34,25.34,0,0,1,589.54,1326.87Zm29.79,2a2.62,2.62,0,0,1-.43-1.31,2.69,2.69,0,0,1,.74-2,2.64,2.64,0,0,1,1.88-.87h0a2.64,2.64,0,0,1,2,.75,2.73,2.73,0,0,1,.81,1.94,2.68,2.68,0,0,1-2.44,2.69,1.13,1.13,0,0,0-.87.54c-.3.49-.63,1-1,1.46l-.46.6-.51.6a4.57,4.57,0,0,1-.31.34,16.15,16.15,0,0,1-3.15,2.71,19.08,19.08,0,0,1-10.71,3,26.19,26.19,0,0,1-7.37-1.09.85.85,0,0,1-.54-1.16.83.83,0,0,1,.79-.53,1.07,1.07,0,0,1,.25,0,23.38,23.38,0,0,0,11.73.5h0a15.36,15.36,0,0,0,8.33-5.32,17.78,17.78,0,0,0,1.22-1.69A1.16,1.16,0,0,0,619.33,1328.84Zm-20,36.55-7.34-5.68a4.78,4.78,0,0,1,7.34,5.68Zm-1-8.15a6.76,6.76,0,0,0-1.65-.63,18,18,0,0,0,1.72-2.75,6.52,6.52,0,0,0,1.62.59A17.72,17.72,0,0,1,598.33,1357.24Zm31.75,6.5H620.8a4.77,4.77,0,0,1,4.6-3.63h.05A4.79,4.79,0,0,1,630.08,1363.74Zm-8.49-11a4.68,4.68,0,0,1,1.68-.38,18.32,18.32,0,0,1,1,5.59,6.61,6.61,0,0,0-1.71.5A16.57,16.57,0,0,0,621.59,1352.72Zm7.51-1.2a.25.25,0,0,1-.08.29.24.24,0,0,1-.31,0c-.27-.14-.53-.3-.81-.47a7.1,7.1,0,0,0-3.73-1.31H624l-.39,0a6.93,6.93,0,0,0-4.11,1.23h0l-.13.09a4.92,4.92,0,0,1-3,1,4.86,4.86,0,0,1-3.05-1,7.07,7.07,0,0,0-4.26-1.32,7,7,0,0,0-4.26,1.33,5,5,0,0,1-3,1,4.87,4.87,0,0,1-3.06-1l-.1-.06,0,0a7.51,7.51,0,0,0-8.4.09c-.27.17-.53.33-.81.47a.24.24,0,0,1-.3,0,.29.29,0,0,1-.09-.31l5.72-17.3c.47.2,1,.39,1.43.57a3.05,3.05,0,0,0-1.22,1.45,3.14,3.14,0,0,0,2,4.2,28.21,28.21,0,0,0,8,1.18,21.31,21.31,0,0,0,12-3.37,19.37,19.37,0,0,0,3.37-2.84l.53-.17h0l.14-.06h0c.82-.28,1.63-.61,2.43-.94Zm11.43-23.58a1.14,1.14,0,0,0-.87.54,17.55,17.55,0,0,1-13,8.48l-.54-1.62a15.87,15.87,0,0,0,11.85-7.42,1.12,1.12,0,0,0,0-1.23,2.68,2.68,0,0,1-.43-1.31,2.75,2.75,0,0,1,.74-2,2.7,2.7,0,0,1,1.89-.87,2.7,2.7,0,0,1,2.78,2.7A2.68,2.68,0,0,1,640.53,1327.94Z"/><circle class="cls-20" cx="622.3" cy="1312.18" r="2.7" transform="translate(-798.07 1614.85) rotate(-76.66)"/><path class="cls-20" d="M621.18,1294.09a1.13,1.13,0,0,1,1.14,1.13c0,3.69-2.33,6.68-5.2,6.68a4.85,4.85,0,0,1-4-2.49,4.56,4.56,0,0,1-8.13,0,4.88,4.88,0,0,1-4,2.49c-2.87,0-5.2-3-5.2-6.68a1.14,1.14,0,0,1,2.28,0c0,2.39,1.33,4.41,2.92,4.41s2.92-2,2.92-4.41a1.14,1.14,0,0,1,2.27,0c0,2.39,1.33,4.41,2.91,4.41s2.92-2,2.92-4.41a1.14,1.14,0,0,1,2.27,0c0,2.39,1.34,4.41,2.92,4.41s2.92-2,2.92-4.41A1.13,1.13,0,0,1,621.18,1294.09Z"/><path class="cls-20" d="M616.05,1316.73v.93a7,7,0,0,1-14.08,0v-.93a1.14,1.14,0,0,1,1.14-1.13h11.81A1.13,1.13,0,0,1,616.05,1316.73Zm-2.28,1.14h-9.52a4.76,4.76,0,0,0,9.52,0Z"/><circle class="cls-20" cx="595.72" cy="1312.18" r="2.7" transform="translate(-818.52 1588.99) rotate(-76.66)"/><path class="cls-31" d="M626.31,1329c.66-.58,1.29-1.19,1.88-1.82-.54.33-1.1.65-1.67,1A4.25,4.25,0,0,1,626.31,1329Z"/><path class="cls-31" d="M589.82,1327.18a25.4,25.4,0,0,0,5.11,4.24,24.66,24.66,0,0,0,2.91,1.58,35.06,35.06,0,0,0,9.89,1.81l.63,0h1a12.86,12.86,0,0,0,5.35-2.8,37.87,37.87,0,0,1-5.68.42A37,37,0,0,1,589.82,1327.18Z"/><circle class="cls-26" cx="591.49" cy="1320.56" r="3.12" transform="translate(-829.98 1591.08) rotate(-76.65)"/><circle class="cls-26" cx="626.54" cy="1320.56" r="3.12" transform="translate(-803.02 1625.18) rotate(-76.65)"/><path class="cls-20" d="M640.14,1320.27a5.5,5.5,0,0,0-4.77,5.84"/><path class="cls-20" d="M342.25,1333.66a4.33,4.33,0,0,1-4.47-4.16V1303l-.92-.47c-7.93-4.06-8.95-11.31-8.95-17.17a18.46,18.46,0,0,1,6.68-14.36c4.38-3.68,10.43-5.62,17.5-5.62a31.85,31.85,0,0,1,19.27,6l1.93,1.47,1.93-1.47a31.81,31.81,0,0,1,19.27-6c7,0,13,2,17.34,5.85a19.09,19.09,0,0,1,6.4,14.48c0,6-.66,12.8-8.52,16.82l-.91.47v26.5a4.34,4.34,0,0,1-4.48,4.16Z"/><path class="cls-35" d="M342.25,1330.82a1.5,1.5,0,0,1-1.63-1.32v-28.24l-2.47-1.26c-6.42-3.28-7.4-9-7.4-14.64,0-9.65,8-17.14,21.34-17.14a28.94,28.94,0,0,1,17.54,5.47l3.66,2.78,3.65-2.78a29,29,0,0,1,17.55-5.47c13.34,0,20.9,7.85,20.9,17.49,0,5.67-.55,11-7,14.29l-2.46,1.26v28.24a1.51,1.51,0,0,1-1.64,1.32Z"/><path class="cls-36" d="M364.29,1278a1.66,1.66,0,0,0,0,3.31A1.66,1.66,0,0,0,364.29,1278Z"/><path class="cls-36" d="M340.27,1284.91c-.06-.15-.12-.31-.19-.46a1.93,1.93,0,0,0-.68-.68l-.08-.06a1.68,1.68,0,0,0-1.78,0l-.08.06a1.39,1.39,0,0,0-.53.49,1.4,1.4,0,0,0-.34.65,2.35,2.35,0,0,0,.05,1.26,1.9,1.9,0,0,0,.66,1,1.74,1.74,0,0,0,1.13.4,2.19,2.19,0,0,0,.94-.25,1.93,1.93,0,0,0,.85-1.11A2.09,2.09,0,0,0,340.27,1284.91Z"/><path class="cls-36" d="M351.52,1274.16a2.26,2.26,0,0,0-3.19,0,2.26,2.26,0,0,0,3.19,3.19,2.27,2.27,0,0,0,.66-1.59A2.31,2.31,0,0,0,351.52,1274.16Z"/><path class="cls-36" d="M385.61,1277.17a1.68,1.68,0,0,0-1-.77l-.21,0a1.76,1.76,0,0,0-.91,0,1.59,1.59,0,0,0-.75.44,1.74,1.74,0,0,0-.5,1.2,1.76,1.76,0,0,0,.5,1.21,1.66,1.66,0,0,0,.75.43,1.57,1.57,0,0,0,.91,0l.21,0,.4-.17a1.22,1.22,0,0,0,.47-.43,1.6,1.6,0,0,0,.36-1A2,2,0,0,0,385.61,1277.17Z"/><path class="cls-36" d="M402.88,1322a1.26,1.26,0,0,0,0,2.51A1.26,1.26,0,0,0,402.88,1322Z"/><path class="cls-36" d="M392.08,1322a1.87,1.87,0,0,0-1.3-.54h-.17a1.84,1.84,0,0,0-1.3,3.14,1.91,1.91,0,0,0,1.3.54h.17a1.91,1.91,0,0,0,1.3-.54,1.83,1.83,0,0,0,0-2.6Z"/><path class="cls-36" d="M347.09,1324.53a2.18,2.18,0,0,0-1.41-.58h-.17a2.21,2.21,0,0,0-1.4.58,2,2,0,0,0-.58,1.4,2,2,0,0,0,.58,1.4l.4.31a2,2,0,0,0,1,.27h.17a2.13,2.13,0,0,0,1.41-.58,2.06,2.06,0,0,0,.58-1.41A2,2,0,0,0,347.09,1324.53Z"/><path class="cls-36" d="M403.38,1289.16l0,.13a1.56,1.56,0,0,0,3,0l0-.13C407,1286.61,402.83,1286.6,403.38,1289.16Z"/><path class="cls-36" d="M349.35,1298.15a1.88,1.88,0,0,0-1.78-.47,1.91,1.91,0,0,0-.95.6,1.28,1.28,0,0,0-.38.59,1.33,1.33,0,0,0-.16.71,1.84,1.84,0,0,0,1.84,1.84l.49-.07a1.75,1.75,0,0,0,.81-.47,1.9,1.9,0,0,0,.59-1A1.85,1.85,0,0,0,349.35,1298.15Z"/><path class="cls-36" d="M398.29,1274.1a1.78,1.78,0,0,0-.52-1.07v0a1.86,1.86,0,0,0-2.19-.28h0a1.87,1.87,0,0,0-.84,1.09l-.06.48a1.74,1.74,0,0,0,.25.92,1.81,1.81,0,0,0,.69.71,1.84,1.84,0,0,0,1.43.18,2,2,0,0,0,.92-.64,1.67,1.67,0,0,0,.38-1.07A1.55,1.55,0,0,0,398.29,1274.1Z"/><path class="cls-36" d="M401.6,1299.87a2.16,2.16,0,0,0-1.64-1.49,2,2,0,0,0-1.23.1,1.72,1.72,0,0,0-.89.77,2.2,2.2,0,0,0-.26.94,1.88,1.88,0,0,0,.55,1.33,3.6,3.6,0,0,0,.58.45,3,3,0,0,0,.52.21,1.51,1.51,0,0,0,.76,0,.94.94,0,0,0,.3,0,2,2,0,0,0,1.12-.86A2,2,0,0,0,401.6,1299.87Z"/><path class="cls-36" d="M376,1322.79a1.84,1.84,0,0,0,0,3.68A1.84,1.84,0,0,0,376,1322.79Z"/><path class="cls-36" d="M394,1283.76l-.37-.28a1.73,1.73,0,0,0-.91-.25.49.49,0,0,0-.17,0,1.41,1.41,0,0,0-.7.15,1.31,1.31,0,0,0-.58.38,1.83,1.83,0,0,0-.53,1.27,1.79,1.79,0,0,0,.53,1.28l.37.28a1.71,1.71,0,0,0,.91.25h.17a2,2,0,0,0,1.28-.53,1.88,1.88,0,0,0,.53-1.29A1.81,1.81,0,0,0,394,1283.76Z"/><path class="cls-37" d="M384,1363.6h-9.28a4.78,4.78,0,0,1,9.28,0Z"/><path class="cls-37" d="M371.81,1363.6h-9.28a4.78,4.78,0,0,1,9.28,0Z"/><path class="cls-30" d="M369.58,1356.13l-1.13,1.68a6.69,6.69,0,0,0-1.28-.13c-.24,0-.48,0-.72,0l1.19-1.76.23-.33-.73-1.23a6.4,6.4,0,0,0,1.7-.47l.61,1,.16.26A.83.83,0,0,1,369.58,1356.13Z"/><path class="cls-30" d="M380.12,1357.72a5.79,5.79,0,0,0-.72,0,6.69,6.69,0,0,0-1.28.13l-1.13-1.68a.83.83,0,0,1,0-.91l.15-.25.62-1a6.24,6.24,0,0,0,1.7.47l-.73,1.23.23.34Z"/><path class="cls-30" d="M406.2,1341.12l-2.4,2.44a.87.87,0,0,1-.62.26H403c-6.82-1.17-11-6.54-13-9.71l-.33-1,.62-.35.72-.32c1.31,2.34,5,7.88,11.16,9.47a1.23,1.23,0,0,0,.54,0Z"/><path class="cls-30" d="M356.53,1334l0,.1c-1.93,3.17-6.14,8.55-12.95,9.72a.91.91,0,0,1-.77-.24l-2.41-2.45,3.42.79a1.23,1.23,0,0,0,.54,0c5.54-1.43,9.08-6.06,10.68-8.66C355.51,1333.5,356,1333.75,356.53,1334Z"/><path class="cls-38" d="M393.37,1351.38a.28.28,0,0,1-.39.33c-.27-.14-.53-.3-.81-.48a7.55,7.55,0,0,0-8.53,0,5,5,0,0,1-2.36.94c-.22,0-.46,0-.69,0a4.6,4.6,0,0,1-2.7-.76l-.34-.21a7.54,7.54,0,0,0-8.55,0l-.33.2a4.61,4.61,0,0,1-2.7.77c-.24,0-.46,0-.69,0a5,5,0,0,1-2.37-.94,7.53,7.53,0,0,0-8.52,0,7.49,7.49,0,0,1-.81.48.24.24,0,0,1-.3,0,.29.29,0,0,1-.09-.31l5.45-16.48a37.27,37.27,0,0,0,8.69,2.27c1,.13,2,.22,3,.27a26.79,26.79,0,0,0,3,.16,28.88,28.88,0,0,0,10.08-1.8,36.38,36.38,0,0,0,4.32-1.67Z"/><path class="cls-31" d="M368.84,1353.93l.61,1-.45.28-.33.21a5.2,5.2,0,0,1-1,.51l.23-.33-.73-1.23A6.4,6.4,0,0,0,368.84,1353.93Z"/><path class="cls-31" d="M378.7,1355.63l.23.34a5.3,5.3,0,0,1-1-.51l-.34-.22-.44-.27.62-1a6.24,6.24,0,0,0,1.7.47Z"/><path class="cls-20" d="M360,1288.54a26,26,0,0,0-14.44,22.93,25.19,25.19,0,0,0,7.31,17.65,1.27,1.27,0,0,1,.41.42l.07.07,0,0a1.37,1.37,0,0,1,.14,1,1.41,1.41,0,0,1,0,.2,1.67,1.67,0,0,1-.06.29,1.76,1.76,0,0,1,0,.31,1.74,1.74,0,0,1-.15.4l0,0a1.41,1.41,0,0,1-.17.32c-1.4,2.27-4.41,6.2-9,7.51l-6.94-1.61a1.13,1.13,0,0,0-1.24.55,1.15,1.15,0,0,0,.17,1.36l5.15,5.23a3.07,3.07,0,0,0,2.23.94c.16,0,.33,0,.53,0a19.58,19.58,0,0,0,10.49-5.64L351,1350.66a2.55,2.55,0,0,0,3.6,3.07,10.81,10.81,0,0,0,1-.57,5,5,0,0,1,3-1,4.86,4.86,0,0,1,3.05,1,7.56,7.56,0,0,0,2.76,1.19l.71,1.2-2.62,3.87a7,7,0,0,0-2.43,5.32,1.14,1.14,0,0,0,1.13,1.13h11.83l.2,0,.2,0h11.83a1.14,1.14,0,0,0,1.14-1.13,7,7,0,0,0-2.43-5.32l-2.62-3.87.72-1.21a7.3,7.3,0,0,0,2.73-1.18,4.86,4.86,0,0,1,3-1,5,5,0,0,1,3.06,1c.3.19.61.39,1,.58a2.57,2.57,0,0,0,2.84-.34,2.54,2.54,0,0,0,.76-2.74l-3.38-10.26a19.62,19.62,0,0,0,10.53,5.66,4.21,4.21,0,0,0,.5,0,3.11,3.11,0,0,0,2.24-.94l5.14-5.23a1.14,1.14,0,0,0-1.07-1.91l-6.94,1.61c-5.45-1.54-8.64-6.72-9.59-8.49,2.62-3.65,4.38-6.76,4.38-6.76a24.83,24.83,0,0,0,3.63-12.91c0-14.4-12.42-26.12-27.69-26.12-.56,0-1.13,0-1.69.05l-2.23.56,1.94-.54a28.55,28.55,0,0,0-10.15,2.58M348,1311.47c0-13.09,11.35-23.74,25.3-23.74s25.31,10.65,25.31,23.74c0,10.52-7.32,19.45-17.44,22.56a34.24,34.24,0,0,1-9.31,1.14C358.55,1334.46,348,1324.1,348,1311.47Zm-4.43,32.34a.91.91,0,0,1-.77-.24l-2.41-2.45,3.42.79a1.23,1.23,0,0,0,.54,0c5.54-1.43,9.08-6.06,10.68-8.66.5.26,1,.51,1.52.75l0,.1C354.57,1337.26,350.36,1342.64,343.55,1343.81Zm19,19.79a4.78,4.78,0,0,1,9.28,0Zm4.61-9.2a6.4,6.4,0,0,0,1.7-.47l.77,1.29a.83.83,0,0,1,0,.91l-1.13,1.68a6.69,6.69,0,0,0-1.28-.13c-.24,0-.48,0-.72,0l1.42-2.09Zm6.14,6.83a7,7,0,0,0-2.62-2.62l.81-1.2a3.14,3.14,0,0,0,.1-3.36l-.75-1.25a4.47,4.47,0,0,1,2.46-.62,4.62,4.62,0,0,1,2.47.62l-.75,1.25a3.14,3.14,0,0,0,.1,3.36l.81,1.2A7.11,7.11,0,0,0,373.28,1361.23ZM384,1363.6h-9.28a4.78,4.78,0,0,1,9.28,0Zm-3.92-5.88a5.79,5.79,0,0,0-.72,0,6.69,6.69,0,0,0-1.28.13l-1.13-1.68a.83.83,0,0,1,0-.91l.77-1.29a6.24,6.24,0,0,0,1.7.47l-.73,1.23Zm13.25-6.34a.28.28,0,0,1-.39.33c-.27-.14-.53-.3-.81-.48a7.55,7.55,0,0,0-8.53,0,5,5,0,0,1-2.36.94c-.22,0-.46,0-.69,0a4.6,4.6,0,0,1-2.7-.76l-.34-.21a7.54,7.54,0,0,0-8.55,0l-.33.2a4.61,4.61,0,0,1-2.7.77c-.24,0-.46,0-.69,0a5,5,0,0,1-2.37-.94,7.53,7.53,0,0,0-8.52,0,7.49,7.49,0,0,1-.81.48.24.24,0,0,1-.3,0,.29.29,0,0,1-.09-.31l5.45-16.48a37.27,37.27,0,0,0,8.69,2.27c1,.13,2,.22,3,.27a26.79,26.79,0,0,0,3,.16,28.88,28.88,0,0,0,10.08-1.8,36.38,36.38,0,0,0,4.32-1.67Zm10.43-7.82a.87.87,0,0,1-.62.26H403c-6.82-1.17-11-6.54-13-9.71l-.33-1,.62-.35.72-.32c1.31,2.34,5,7.88,11.16,9.47a1.23,1.23,0,0,0,.54,0l3.42-.79Z"/><path class="cls-20" d="M371.3,1285.42a28.64,28.64,0,0,0-11.26,3.12Z"/><path class="cls-30" d="M373.28,1287.73c-13.95,0-25.3,10.65-25.3,23.74a22.77,22.77,0,0,0,6.45,15.81,25.89,25.89,0,0,0,17.41,7.89,34.24,34.24,0,0,0,9.31-1.14,25.41,25.41,0,0,0,12.17-8.09,22.61,22.61,0,0,0,5.27-14.47C398.59,1298.38,387.24,1287.73,373.28,1287.73Zm12.55,20.72a1.14,1.14,0,0,1-.41,1.55l-3.46,2,3.46,2a1.14,1.14,0,0,1,.41,1.55,1.16,1.16,0,0,1-1,.56,1.18,1.18,0,0,1-.57-.15l-5.14-3a1.13,1.13,0,0,1-.56-1,1.12,1.12,0,0,1,.56-1l5.14-3A1.14,1.14,0,0,1,385.83,1308.45ZM379,1324.26a1.14,1.14,0,0,1-1,.59h-9.45a1.11,1.11,0,0,1-1-.59,1.12,1.12,0,0,1,0-1.16l4.72-7.41a1.14,1.14,0,0,1,1.93,0l4.72,7.41A1.15,1.15,0,0,1,379,1324.26Zm-18.08-30.2a1.14,1.14,0,1,1,2.26.23c-.14,1.4.19,2.52.85,2.84,1,.51,3.19-.86,4.5-3.47a1.17,1.17,0,0,1,1.35-.58,1.15,1.15,0,0,1,.8,1.22c-.14,1.4.18,2.51.84,2.83,1,.51,3.19-.86,4.5-3.47a1.17,1.17,0,0,1,1.35-.58,1.15,1.15,0,0,1,.8,1.22c-.14,1.4.18,2.51.83,2.83,1.05.51,3.2-.86,4.52-3.47a1.14,1.14,0,1,1,2,1c-1.86,3.68-5.17,5.65-7.55,4.48a3.61,3.61,0,0,1-1.72-1.9c-1.79,1.94-4,2.76-5.77,1.9a3.57,3.57,0,0,1-1.71-1.89,6.07,6.07,0,0,1-4.26,2.24,3.31,3.31,0,0,1-1.51-.35C361.47,1298.39,360.69,1296.49,360.93,1294.06Zm.22,15.94a1.14,1.14,0,0,1,1.15-2l5.14,3a1.12,1.12,0,0,1,.56,1,1.13,1.13,0,0,1-.56,1l-5.14,3a1.16,1.16,0,0,1-1.56-.41,1.14,1.14,0,0,1,.41-1.55l3.47-2Z"/><path class="cls-38" d="M371.84,1339.91a34.24,34.24,0,0,0,9.31-1.14,25.45,25.45,0,0,0,7-3.35l-.43-1.3a36.38,36.38,0,0,1-4.32,1.67,28.88,28.88,0,0,1-10.08,1.8,26.79,26.79,0,0,1-3-.16c-1,0-2-.14-3-.27a37.27,37.27,0,0,1-8.69-2.27l-.18.54A26.16,26.16,0,0,0,371.84,1339.91Z"/><path class="cls-34" d="M373.28,1289.38c13.69,0,24.87,10.25,25.29,23,0-.3,0-.6,0-.91,0-13.09-11.35-23.74-25.31-23.74s-25.3,10.65-25.3,23.74c0,.28,0,.56,0,.84C348.46,1299.59,359.62,1289.38,373.28,1289.38Z"/><path class="cls-20" d="M385.83,1308.45a1.14,1.14,0,0,1-.41,1.55l-3.46,2,3.46,2a1.14,1.14,0,0,1,.41,1.55,1.16,1.16,0,0,1-1,.56,1.18,1.18,0,0,1-.57-.15l-5.14-3a1.13,1.13,0,0,1-.56-1,1.12,1.12,0,0,1,.56-1l5.14-3A1.14,1.14,0,0,1,385.83,1308.45Z"/><path class="cls-20" d="M385.06,1293.16a1.14,1.14,0,0,1,.5,1.53c-1.86,3.68-5.17,5.65-7.55,4.48a3.61,3.61,0,0,1-1.72-1.9c-1.79,1.94-4,2.76-5.77,1.9a3.57,3.57,0,0,1-1.71-1.89,6.07,6.07,0,0,1-4.26,2.24,3.31,3.31,0,0,1-1.51-.35c-1.57-.78-2.35-2.68-2.11-5.11a1.14,1.14,0,1,1,2.26.23c-.14,1.4.19,2.52.85,2.84,1,.51,3.19-.86,4.5-3.47a1.17,1.17,0,0,1,1.35-.58,1.15,1.15,0,0,1,.8,1.22c-.14,1.4.18,2.51.84,2.83,1,.51,3.19-.86,4.5-3.47a1.17,1.17,0,0,1,1.35-.58,1.15,1.15,0,0,1,.8,1.22c-.14,1.4.18,2.51.83,2.83,1.05.51,3.2-.86,4.52-3.47A1.14,1.14,0,0,1,385.06,1293.16Z"/><path class="cls-20" d="M379,1323.1a1.14,1.14,0,0,1-1,1.75h-9.45a1.11,1.11,0,0,1-1-.59,1.12,1.12,0,0,1,0-1.16l4.72-7.41a1.14,1.14,0,0,1,1.93,0Zm-3-.53-2.66-4.15-2.64,4.15Z"/><polygon class="cls-32" points="373.28 1318.42 375.94 1322.57 370.64 1322.57 373.28 1318.42"/><path class="cls-20" d="M367.44,1311.06a1.12,1.12,0,0,1,.56,1,1.13,1.13,0,0,1-.56,1l-5.14,3a1.16,1.16,0,0,1-1.56-.41,1.14,1.14,0,0,1,.41-1.55l3.47-2-3.47-2a1.14,1.14,0,0,1,1.15-2Z"/><circle class="cls-38" cx="355.73" cy="1320.42" r="3.12"/><circle class="cls-38" cx="390.78" cy="1320.42" r="3.12" transform="translate(-984.1 1397.38) rotate(-76.72)"/><path class="cls-31" d="M373.26,1333.24c7.71,0,14.67-3.44,20.06-7.3a25.41,25.41,0,0,1-12.17,8.09,34.24,34.24,0,0,1-9.31,1.14,25.89,25.89,0,0,1-17.41-7.89C359.79,1330.56,366.3,1333.24,373.26,1333.24Z"/><path class="cls-39" d="M258.44,1303.93c2.59,0,5.17,0,7.76,0a5.4,5.4,0,0,1-4.31,1.41A6.11,6.11,0,0,1,258.44,1303.93Z"/><path class="cls-40" d="M247.84,1338.54l-.21,0v0Z"/><path class="cls-40" d="M299.54,1305.18a23.57,23.57,0,0,0-3.8-12.72,1.38,1.38,0,0,1-.33-.7c-.06-.8-.05-1.58-.15-2.36a23.62,23.62,0,0,0-4.59-11.6c-.51-.69-1.08-1.37-1.67-2s-1.31-1.37-2-2a29.72,29.72,0,0,0-14.52-7.08,8.6,8.6,0,0,0-4.31-7.13,13.92,13.92,0,0,0-7.36-1.58,8.06,8.06,0,0,1,.84-2c.12-.16.36-.09.53-.13a3.27,3.27,0,0,0,2.92-3.67,3.31,3.31,0,0,0-3.51-2.88,4.77,4.77,0,0,0-3.6,2.27,13.46,13.46,0,0,0-1.86,7.28,8.93,8.93,0,0,0-5.21,5.31,15.41,15.41,0,0,0-.59,2.57,42.33,42.33,0,0,0-4.15,1.12A27.72,27.72,0,0,0,230,1281.39a23.54,23.54,0,0,0-2.55,10.12c0,.54-.45.93-.69,1.38a22.7,22.7,0,0,0-3,7.36,31,31,0,0,0-.5,6.8,6.12,6.12,0,0,0,.85,2.4c0,2.53,0,5.08,0,7.61,0,.61,0,1.21,0,1.81l-.06,0c.12.46.26.93.35,1.4h0a15.35,15.35,0,0,0,2.87,5.32,20.82,20.82,0,0,0,6.3,4.54c5.69,2.65,11.94,3.68,18.14,4.25a106.71,106.71,0,0,0,20.22-.09,61,61,0,0,0,15.12-3.27,23.68,23.68,0,0,0,6.67-3.74,14.23,14.23,0,0,0,4.56-6.83v-.06c.06-.21.12-.41.17-.62v0l0-.27a.49.49,0,0,1,0-.12v0a5,5,0,0,1,.11-.56h0c.06-3.07,0-6.15,0-9.21.15-.42.44-.78.59-1.21A8.94,8.94,0,0,0,299.54,1305.18Zm-39.84-53a2.64,2.64,0,0,1,2.61-1.14,1.63,1.63,0,0,1,.78,2.29.89.89,0,0,1-.81.56c-.24-.36-.83-.77-1.18-.29a8.89,8.89,0,0,0-2.15,4.49l-1,.06A10.57,10.57,0,0,1,259.7,1252.21Zm-6.92,12.31a6.83,6.83,0,0,1,3.44-3.73,12.34,12.34,0,0,1,2.49-.83l.1,0c0,.53-.18,1.32.45,1.56s1.72.28,1.95-.5c-.33-.36-.75-.69-.68-1.24a14.15,14.15,0,0,1,4.21.4c.18.06.38.1.56.18a6.84,6.84,0,0,1,4.88,4.26,6.51,6.51,0,0,1-2.05,7.47c-2,1.4-4.61,1.58-7,1.57a11.27,11.27,0,0,1-6.56-1.84,6.22,6.22,0,0,1-2.22-4.77A5.49,5.49,0,0,1,252.78,1264.52Zm44,54.1a11.44,11.44,0,0,1-3.66,6.65,19.09,19.09,0,0,1-5.58,3.5,42.2,42.2,0,0,1-8.07,2.45,20,20,0,0,1-3.26.55,63.68,63.68,0,0,1-6.35.81,106.22,106.22,0,0,1-20.94-.41,57.79,57.79,0,0,1-10.87-2.38,25.74,25.74,0,0,1-6.27-2.91,12.61,12.61,0,0,1-4.9-5.67,8.35,8.35,0,0,1-.76-3c0-2.19,0-4.37,0-6.57a8,8,0,0,0,4.84,2.48,6.87,6.87,0,0,0,3.38-1.28,3.38,3.38,0,0,1,3.18,0,4.14,4.14,0,0,1,2,2.52,2,2,0,0,1,0,1.15,7.3,7.3,0,0,0,.87,5.35,14.6,14.6,0,0,0,1.09,1.27,6.64,6.64,0,0,0,3.18,1.16,5.63,5.63,0,0,0,4.48-1.6,6,6,0,0,0,1.64-4.33,3.25,3.25,0,0,1,.26-1.75,2.14,2.14,0,0,1,1.91-1,5.79,5.79,0,0,1,3.32.94,2.66,2.66,0,0,1,1.18,2.09,20.62,20.62,0,0,0-.16,2.6,5.65,5.65,0,0,0,1.41,3.45c.28.33.68.57,1,.9a7.25,7.25,0,0,0,4.88.76,6.12,6.12,0,0,0,4.3-3.09,6.24,6.24,0,0,0,.5-4.16,2,2,0,0,1,.48-2c1.3-1.3,3.23-1.54,5-1.54a2.31,2.31,0,0,1,1.85.74,5.3,5.3,0,0,1,.9,2.41,5.58,5.58,0,0,0,3.82,3.89,7.07,7.07,0,0,0,2.16.15,6.91,6.91,0,0,0,4.46-2.41,6.05,6.05,0,0,0,1.18-4.92,3.26,3.26,0,0,1,0-1.78,4,4,0,0,1,3-2.41c1.5-.3,3.07-.26,4.61-.57C296.78,1313.33,296.81,1316,296.78,1318.62Zm-.6-9.59a19,19,0,0,1-2.69.32,7.4,7.4,0,0,0-4.17,1.43,5.21,5.21,0,0,0-1.86,3.07c-.18,1,.27,2,.18,3a4.29,4.29,0,0,1-1.19,2.85,5.16,5.16,0,0,1-4.51,1.36,3.65,3.65,0,0,1-2.62-2.43c-.24-.64-.27-1.31-.47-2a5.07,5.07,0,0,0-1.25-1.81,4.06,4.06,0,0,0-2.11-.89,9.91,9.91,0,0,0-5.69,1.1,5.54,5.54,0,0,0-1.38,1.18,3.83,3.83,0,0,0-.74,1.94c-.11,1,.42,2,.18,3a4.17,4.17,0,0,1-2.7,3.24,5.39,5.39,0,0,1-3.08.22,3.57,3.57,0,0,1-2.91-2.77c-.31-1.34.17-2.68,0-4a4.84,4.84,0,0,0-1.57-2.56,7.55,7.55,0,0,0-5-1.34,5.47,5.47,0,0,0-1.87.6,4.32,4.32,0,0,0-1.29,1.68,8.51,8.51,0,0,0-.27,2.53,4.18,4.18,0,0,1-1.2,2.77,4.12,4.12,0,0,1-6-.55,5.6,5.6,0,0,1-.61-4.44,4.93,4.93,0,0,0-1.1-3.78,5.37,5.37,0,0,0-7.26-1.1,3.07,3.07,0,0,1-2.26.66,8.42,8.42,0,0,1-5.09-4.42,2.59,2.59,0,0,1-.28-1.34,41.3,41.3,0,0,1,.14-4.16,21.14,21.14,0,0,1,4-9.94c.06-.92.06-1.85.13-2.79a22.8,22.8,0,0,1,7.69-14.49,23.78,23.78,0,0,1,4.27-3.13,18.58,18.58,0,0,1,3.39-1.86,27.38,27.38,0,0,1,5.61-1.87,10.56,10.56,0,0,0,.84,2.64l0,0a8.3,8.3,0,0,0,4.6,3.86,18.48,18.48,0,0,0,6.62.8,11.74,11.74,0,0,0,6.41-1.82,8.9,8.9,0,0,0,2.61-3,9.41,9.41,0,0,0,.77-2.39,33.05,33.05,0,0,1,8.11,3.21,25.93,25.93,0,0,1,10.65,10.81,20.84,20.84,0,0,1,2.21,9.39,2.53,2.53,0,0,0,.05.83,22.12,22.12,0,0,1,3.65,8.09,27.27,27.27,0,0,1,.49,6.63A1.75,1.75,0,0,1,296.18,1309Z"/><path class="cls-40" d="M256.17,1302.35a7.44,7.44,0,0,1,1.33-.09h10.57a.63.63,0,0,1,.59.87,5.94,5.94,0,0,1-3.36,3.38,8.06,8.06,0,0,1-5.31.15,6.43,6.43,0,0,1-3.67-3C256.13,1303.25,255.89,1302.77,256.17,1302.35Zm2.27,1.58a6.16,6.16,0,0,0,3.45,1.43,5.41,5.41,0,0,0,4.31-1.41C263.61,1303.89,261,1304,258.44,1303.93Z"/><path class="cls-38" d="M259.7,1252.21a2.61,2.61,0,0,1,2.63-1.13,1.63,1.63,0,0,1,.78,2.29,1,1,0,0,1-.81.56c-.25-.37-.83-.78-1.18-.28a8.86,8.86,0,0,0-2.16,4.49l-1,.06A10.46,10.46,0,0,1,259.7,1252.21Z"/><path class="cls-41" d="M260.53,1259.81a14.23,14.23,0,0,1,4.22.38c.11.56.37,1.21,0,1.7a4.07,4.07,0,0,1-2.4,1.21,6.35,6.35,0,0,1-3.35-.17c0-.9-.92-1.37-1.63-1.7.38,0,.77,0,1.15,0,.09-.44.17-.87.23-1.31l.1,0c.05.53-.16,1.31.45,1.55s1.72.3,1.95-.5C260.88,1260.69,260.47,1260.36,260.53,1259.81Z"/><path class="cls-42" d="M256.2,1260.78a11.94,11.94,0,0,1,2.49-.83c-.06.44-.13.87-.22,1.31-.38,0-.77,0-1.15,0a2.08,2.08,0,0,0-1.18.15c-.27,1,.73,1.55,1.53,1.77a1.58,1.58,0,0,0,1.28-.22,6.35,6.35,0,0,0,3.35.17,4.08,4.08,0,0,0,2.39-1.21c.41-.49.15-1.14.05-1.7.18.06.38.11.56.18,1.1.77,2.51,1.46,2.79,2.91A8,8,0,0,1,266,1270a7.63,7.63,0,0,1-5.35,2.14,9,9,0,0,1-5.54-1.49,5.19,5.19,0,0,1-2-2.68,11,11,0,0,1-.35-3.47A6.79,6.79,0,0,1,256.2,1260.78Zm-1.23,3.87a.8.8,0,0,0,1.34.15c.6-.48,1-1.62.21-2.14A1.86,1.86,0,0,0,255,1264.65Z"/><path class="cls-42" d="M233,1315.69a6.74,6.74,0,0,1,3.23-1,4.58,4.58,0,0,1,3.31,1.77,7.24,7.24,0,0,0,.88,5.35c.3.47.74.83,1.08,1.27a5,5,0,0,0,4.45,3.6,5.85,5.85,0,0,0,5-2.1,8.73,8.73,0,0,0,1.61-3.64,8.18,8.18,0,0,1,.53-1.72,1.11,1.11,0,0,1,.92-.61,3.58,3.58,0,0,1,2.8,1.28,2.12,2.12,0,0,1,.5,1.3,5.59,5.59,0,0,0,1.4,3.45c.29.35.68.58,1,.91a5.66,5.66,0,0,0,3.95,2.76,7.19,7.19,0,0,0,5.49-1.22,6.73,6.73,0,0,0,3-5.63,8.62,8.62,0,0,1,.1-1.9,1.39,1.39,0,0,1,1.42-1,2.5,2.5,0,0,1,1.88,1.18,7.53,7.53,0,0,1,1.33,3.39,5.57,5.57,0,0,1-1,4.36,6.89,6.89,0,0,1-4.46,2.34,59,59,0,0,1-9.83.9A88.52,88.52,0,0,1,244,1329.4a33.41,33.41,0,0,1-8.79-2.81,11.75,11.75,0,0,1-4.23-3.46,8,8,0,0,1-1.16-6.56A9.54,9.54,0,0,0,233,1315.69Z"/><path class="cls-43" d="M265.31,1260.37a6.89,6.89,0,0,1,4.89,4.27,6.53,6.53,0,0,1-2.05,7.46c-2,1.4-4.62,1.59-7,1.57a11.3,11.3,0,0,1-6.55-1.84,6.18,6.18,0,0,1-2.22-4.76,5,5,0,0,1,.44-2.57,11.26,11.26,0,0,0,.34,3.47,5.08,5.08,0,0,0,2,2.68,8.93,8.93,0,0,0,5.53,1.5A7.51,7.51,0,0,0,266,1270a7.91,7.91,0,0,0,2.07-6.71C267.83,1261.83,266.4,1261.14,265.31,1260.37Z"/><path class="cls-43" d="M292.2,1311.26c1.52-.3,3.07-.26,4.59-.56,0,2.64,0,5.29,0,7.93a11.28,11.28,0,0,1-3.66,6.65,19,19,0,0,1-5.58,3.5,42.73,42.73,0,0,1-8.07,2.46,22.26,22.26,0,0,1-3.25.54,6,6,0,0,1,.92-.44,22.73,22.73,0,0,0,7.69-3.33,5.82,5.82,0,0,0,2.14-2.83,7.58,7.58,0,0,0,.24-1.71,12.66,12.66,0,0,1-1.75-.09c-.65-.13-1.24-.45-1.87-.59a6.84,6.84,0,0,0,4.46-2.41,6,6,0,0,0,1.18-4.91,3.36,3.36,0,0,1,0-1.78A4,4,0,0,1,292.2,1311.26Z"/><path class="cls-43" d="M226.12,1311.61a8,8,0,0,0,4.84,2.48,6.69,6.69,0,0,0,3.38-1.28,3.38,3.38,0,0,1,3.18,0,4.14,4.14,0,0,1,2,2.52,1.88,1.88,0,0,1,0,1.15,4.6,4.6,0,0,0-3.32-1.77,6.56,6.56,0,0,0-3.23,1,10.19,10.19,0,0,1-3.21.91,8,8,0,0,0,1.16,6.56,11.91,11.91,0,0,0,4.22,3.46,33.6,33.6,0,0,0,8.8,2.81,90,90,0,0,0,17.58,1.34,58.82,58.82,0,0,0,9.83-.9,6.91,6.91,0,0,0,4.46-2.34,5.57,5.57,0,0,0,1-4.36,7.62,7.62,0,0,0-1.33-3.39,2.59,2.59,0,0,0-1.88-1.18,1.4,1.4,0,0,0-1.42,1,8.62,8.62,0,0,0-.1,1.9,6.73,6.73,0,0,1-3,5.63,7.08,7.08,0,0,1-5.49,1.22,5.66,5.66,0,0,1-3.95-2.76,7.23,7.23,0,0,0,4.89.75,6,6,0,0,0,4.29-3.09,6.16,6.16,0,0,0,.5-4.16,2.06,2.06,0,0,1,.48-2c1.29-1.3,3.23-1.54,5-1.54a2.33,2.33,0,0,1,1.86.74,5.43,5.43,0,0,1,.9,2.41,5.55,5.55,0,0,0,3.81,3.89,6.28,6.28,0,0,0,2.16.15c.65.14,1.22.47,1.87.59a16.8,16.8,0,0,0,1.75.09,7.5,7.5,0,0,1-.24,1.71,5.82,5.82,0,0,1-2.14,2.83,23.13,23.13,0,0,1-7.69,3.33,6,6,0,0,0-.92.44c-2.1.42-4.22.6-6.35.82a104.69,104.69,0,0,1-20.94-.41,57.11,57.11,0,0,1-10.88-2.38,26.48,26.48,0,0,1-6.27-2.91,12.66,12.66,0,0,1-4.9-5.67,8.44,8.44,0,0,1-.75-3C226.12,1316,226.11,1313.81,226.12,1311.61Z"/><path class="cls-44" d="M251.08,1316.58a2.14,2.14,0,0,1,1.91-1,5.81,5.81,0,0,1,3.32.94,2.63,2.63,0,0,1,1.18,2.09,24.86,24.86,0,0,0-.16,2.6,2.05,2.05,0,0,0-.49-1.3,3.56,3.56,0,0,0-2.81-1.28,1.08,1.08,0,0,0-.92.6,7.94,7.94,0,0,0-.52,1.72,9,9,0,0,1-1.62,3.65,5.89,5.89,0,0,1-5,2.1,5,5,0,0,1-4.45-3.61,6.53,6.53,0,0,0,3.18,1.16,5.65,5.65,0,0,0,4.48-1.6,6,6,0,0,0,1.64-4.32A3.3,3.3,0,0,1,251.08,1316.58Z"/><path class="cls-45" d="M296.18,1309a19,19,0,0,1-2.69.32,7.4,7.4,0,0,0-4.17,1.43,5.21,5.21,0,0,0-1.86,3.07c-.18,1,.27,2,.18,3a4.29,4.29,0,0,1-1.19,2.85,5.16,5.16,0,0,1-4.51,1.36,3.65,3.65,0,0,1-2.62-2.43c-.24-.64-.27-1.31-.47-2a5.07,5.07,0,0,0-1.25-1.81,4.06,4.06,0,0,0-2.11-.89,9.91,9.91,0,0,0-5.69,1.1,5.54,5.54,0,0,0-1.38,1.18,3.83,3.83,0,0,0-.74,1.94c-.11,1,.42,2,.18,3a4.17,4.17,0,0,1-2.7,3.24,5.39,5.39,0,0,1-3.08.22,3.57,3.57,0,0,1-2.91-2.77c-.31-1.34.17-2.68,0-4a4.84,4.84,0,0,0-1.57-2.56,7.55,7.55,0,0,0-5-1.34,5.47,5.47,0,0,0-1.87.6,4.32,4.32,0,0,0-1.29,1.68,8.51,8.51,0,0,0-.27,2.53,4.18,4.18,0,0,1-1.2,2.77,4.12,4.12,0,0,1-6-.55,5.6,5.6,0,0,1-.61-4.44,4.93,4.93,0,0,0-1.1-3.78,5.37,5.37,0,0,0-7.26-1.1,3.07,3.07,0,0,1-2.26.66,8.42,8.42,0,0,1-5.09-4.42,2.59,2.59,0,0,1-.28-1.34,41.3,41.3,0,0,1,.14-4.16,21.14,21.14,0,0,1,4-9.94c.06-.92.06-1.85.13-2.79a22.8,22.8,0,0,1,7.69-14.49,23.78,23.78,0,0,1,4.27-3.13,18.58,18.58,0,0,1,3.39-1.86,27.38,27.38,0,0,1,5.61-1.87,10.56,10.56,0,0,0,.84,2.64l0,0a8.3,8.3,0,0,0,4.6,3.86,18.48,18.48,0,0,0,6.62.8,11.74,11.74,0,0,0,6.41-1.82,8.9,8.9,0,0,0,2.61-3,9.41,9.41,0,0,0,.77-2.39,33.05,33.05,0,0,1,8.11,3.21,25.93,25.93,0,0,1,10.65,10.81,20.84,20.84,0,0,1,2.21,9.39,2.53,2.53,0,0,0,.05.83,22.12,22.12,0,0,1,3.65,8.09,27.27,27.27,0,0,1,.49,6.63A1.75,1.75,0,0,1,296.18,1309Z"/><path class="cls-46" d="M282.85,1344.47q-.81-2.48-1.64-4.94a1.35,1.35,0,0,1,.35-1.58,3.33,3.33,0,0,0,.83-3.85c-.25-.76-.31-1.06,0-1.35,0-.11,0-.22,0-.33h0a2.69,2.69,0,0,1,.19-.74,10.81,10.81,0,0,1,3.14-5.48,2.26,2.26,0,0,1,.11-.22c.21-.36.46-.69.68-1,7-11.47,4.24-25.17-5.75-33.35a29,29,0,0,0-37.67,1.06,25.18,25.18,0,0,0-4,33,7.61,7.61,0,0,1,.81,1.24,2.36,2.36,0,0,1,.64,1,25.86,25.86,0,0,1,1.17,1.89v0c0,.1.11.19.16.28l0,0a2.74,2.74,0,0,1,.59,1l.08.11a2.51,2.51,0,0,1,.26,2,.64.64,0,0,0,0,.07,1.16,1.16,0,0,1-.05.51c-.08.24-.1.49-.18.72a3.07,3.07,0,0,0,.72,3.22c.27.31.55.6.84.93-1.2,3.66-2.39,7.28-3.57,10.9a8.16,8.16,0,0,0-.5,1.91,2.55,2.55,0,0,0,3.09,2.66,9.16,9.16,0,0,0,1.59-.68,4.92,4.92,0,0,1,6-.19,1.2,1.2,0,0,1,.65,1.44,5.41,5.41,0,0,0-.16,1,2.79,2.79,0,0,1-2.35,3,6.92,6.92,0,0,0-1.12.49c-.5.55-1,1.07-1.5,1.65a6.9,6.9,0,0,0-1.36,3.67,1.37,1.37,0,0,0,1.4,1.66c1.15.07,2.31.07,3.47.09l6.17-.07c.5,0,1,0,1.48,0,1.38-.08,1.9-.72,1.66-2.11a6.09,6.09,0,0,0-1.29-3.17,2.74,2.74,0,0,1-.58-2.74,16.71,16.71,0,0,0,.48-2.42,2.64,2.64,0,0,1,1.44-2.13c2.76-1.69,5.05-1.59,7.5.44a1.58,1.58,0,0,1,.52.8c.2.79.31,1.6.45,2.41a3.45,3.45,0,0,1-.57,4.08,4.77,4.77,0,0,0-1,3.24c0,1,.39,1.54,1.43,1.6,1.23.06,2.47.07,3.7.1l4.46-.09c.74,0,1.49,0,2.23,0,2.1,0,2.27-.21,2.29-2.24,0-.25,0-.5,0-.74-.67-1.15-1.35-2.29-2-3.43a12.79,12.79,0,0,0-3.06-1.61,1.21,1.21,0,0,1-.91-1.06c-.08-.49-.21-1-.31-1.46-.38-1.77-.42-2,1.45-2.84a4.75,4.75,0,0,1,4.31.21c.59.3,1.15.68,1.74,1a2.36,2.36,0,0,0,2.77-.39,2.41,2.41,0,0,0,.81-2.69C284.26,1348.72,283.55,1346.6,282.85,1344.47ZM243,1322.39a5.41,5.41,0,0,0-.87,2.39c-.82-.07-1-.62-1.22-1a22.56,22.56,0,0,1,3.81-29.2,25.41,25.41,0,0,1,21.32-6.69,24.82,24.82,0,0,1,17.82,10.6,22.32,22.32,0,0,1,.43,25.26,2.37,2.37,0,0,1-1,1.11c-.27-.69-.55-1.38-.82-2.06-.85-.7-1.8-1.38-2.91-1.07-1.29.36-2-.35-2.82-1.06-2.59-.44-3.55,0-4.38,2.35a1.45,1.45,0,0,1-1.13,1.08,2.78,2.78,0,0,0-.69.28,3.11,3.11,0,0,0-.06,5.48,27.49,27.49,0,0,0,2.71,1.2,8.5,8.5,0,0,1,1.31.67.42.42,0,0,1,0,.64,1.28,1.28,0,0,1-.4.29,26.63,26.63,0,0,1-23,0,1.48,1.48,0,0,1-.21-.13c-.11-.12-.33-.27-.31-.36a.93.93,0,0,1,.33-.57c1-.48,2.13-.91,3.19-1.36a3.69,3.69,0,0,0,1.73-1.34,3.15,3.15,0,0,0-.91-4.37,7.56,7.56,0,0,0-1.37-.56,1.07,1.07,0,0,1-.63-.68c-1.1-2.77-1.83-3.15-4.64-2.53a2.17,2.17,0,0,1-2.48,1C244.74,1321.44,243.85,1322,243,1322.39Zm36.35,10.37a8.08,8.08,0,0,1,.88,2.81.8.8,0,0,1-.34.6.68.68,0,0,1-.89-.18,2.48,2.48,0,0,1-.37-.63c-.17-.37-.3-.76-.46-1.14a18.35,18.35,0,0,0-1.74-4.07c-.89-1.18-2.62-1.28-3.94-1.93a4.35,4.35,0,0,1-1-.66.85.85,0,0,1-.11-.66.76.76,0,0,1,.18-.38c1.05-.26,1.59.29,2.24.36a1.15,1.15,0,0,0,1.39-1.48c-.05-.24-.14-.47-.21-.71a4.41,4.41,0,0,1-.23-.7c-.07-.42-.05-.85.41-1a.73.73,0,0,1,1,.41c.19.37.31.77.5,1.13.56,1.07,1.28,1.2,2.13.38.23-.23.4-.52.64-.74a.57.57,0,0,1,.68-.1c.31.17.59.44.47.77a20.34,20.34,0,0,1-.9,2C277.86,1330.38,278,1329,279.32,1332.76Zm-33.69-5.68a24,24,0,0,1-1-2.25c-.13-.32.11-.63.43-.79a.54.54,0,0,1,.68.06c.34.36.63.77,1,1.09a1.09,1.09,0,0,0,1.54-.26c.33-.56.56-1.18.89-1.75a.65.65,0,0,1,.88-.22c.19.09.29.36.48.61-.16.55-.33,1.09-.47,1.65-.3,1.24.36,1.88,1.64,1.59.48-.11.94-.32,1.42-.39a.82.82,0,0,1,.6.33.61.61,0,0,1-.09.89,14,14,0,0,1-2,1c-3.65,1.56-2.67.7-4.18,4.34-.41,1-.79,2-1.25,3a.66.66,0,0,1-.87.24.68.68,0,0,1-.46-.78c.31-1,.68-2,1.06-3.05C247.11,1329.2,247.19,1330.2,245.63,1327.08Zm9.93,36.56c-1.23,0-2.47,0-3.71,0v0c-1,0-2,0-3,0-.38,0-.87.1-1-.43a1.29,1.29,0,0,1,.39-1.12,4.66,4.66,0,0,1,7.87.5A.63.63,0,0,1,255.56,1363.64Zm-1.7-8.69c.15-.4.69-.37,1.09-.24.22.07.43.21.4.8a6.7,6.7,0,0,1-.51,2.33.66.66,0,0,1-.83.31c-.32-.08-.64-.22-.69-.59A5.22,5.22,0,0,1,253.86,1355Zm23.67,8.63H269c-.34-.81.2-1.3.61-1.78a4.56,4.56,0,0,1,2.76-1.54C274.5,1359.89,276.23,1360.93,277.53,1363.58Zm-7-8.89a.72.72,0,0,1,.78.36,5.32,5.32,0,0,1,.45,2.36c0,.47-.35.69-.81.7a.61.61,0,0,1-.69-.52c-.14-.71-.32-1.41-.44-2.13C269.69,1355,270,1354.71,270.49,1354.69Zm11.82-3.23c-.47.14-.77-.19-1.12-.38a7.67,7.67,0,0,0-8,.07,7.76,7.76,0,0,1-1.78.88,5.13,5.13,0,0,1-4.29-.58,7.4,7.4,0,0,0-3.18-1.33,7.94,7.94,0,0,0-5.49,1.05,5.23,5.23,0,0,1-6.06.25,7.74,7.74,0,0,0-8.46-.35,3.21,3.21,0,0,1-.7.24c-.06,0-.14,0-.21,0a1.1,1.1,0,0,1-.07-1.17q1.69-5.19,3.43-10.37a2.59,2.59,0,0,1,.71-1.27,6,6,0,0,0,2-2.66,3,3,0,0,1,1.82.24,40.8,40.8,0,0,0,22.79.2c.24-.06.47-.16.71-.22,1.42-.37,1.42-.37,2.34,1,.14.21.24.48.43.6,1.4.88,1.72,2.36,2.17,3.76,1,3,2,6,2.95,9C282.36,1350.69,282.65,1351.06,282.31,1351.46Z"/><path class="cls-47" d="M276.69,1320.66c-2.59-.44-3.55,0-4.38,2.35a1.45,1.45,0,0,1-1.13,1.08,2.78,2.78,0,0,0-.69.28,3.11,3.11,0,0,0-.06,5.48,27.49,27.49,0,0,0,2.71,1.2,8.5,8.5,0,0,1,1.31.67.42.42,0,0,1,0,.64,1.28,1.28,0,0,1-.4.29,26.63,26.63,0,0,1-23,0,1.48,1.48,0,0,1-.21-.13c-.11-.12-.33-.27-.31-.36a.93.93,0,0,1,.33-.57c1-.48,2.13-.91,3.19-1.36a3.69,3.69,0,0,0,1.73-1.34,3.15,3.15,0,0,0-.91-4.37,7.56,7.56,0,0,0-1.37-.56,1.07,1.07,0,0,1-.63-.68c-1.1-2.77-1.83-3.15-4.64-2.53a3.86,3.86,0,0,0-.6-1.85,3.1,3.1,0,0,0-3.17-1.4,2.67,2.67,0,0,0-2.34,1.91c-.37,1.11-.4,2.28.87,3a5.41,5.41,0,0,0-.87,2.39c-.82-.07-1-.62-1.22-1a22.56,22.56,0,0,1,3.81-29.2,25.41,25.41,0,0,1,21.32-6.69,24.82,24.82,0,0,1,17.82,10.6,22.32,22.32,0,0,1,.43,25.26,2.37,2.37,0,0,1-1,1.11c-.27-.69-.55-1.38-.82-2.06a12.91,12.91,0,0,0,.61-1.85,2.95,2.95,0,0,0-5.46-2C277.23,1319.47,277,1320.08,276.69,1320.66Zm-10.08-21.07a22.07,22.07,0,0,0,1.9,1.49,4.08,4.08,0,0,0,4,.22,6.79,6.79,0,0,0,3.34-6.45,1.11,1.11,0,0,0-2.15-.19c-.19.71-.24,1.46-.46,2.17-.5,1.61-1.62,2.68-2.68,2.52a3,3,0,0,1-2.45-2.49c-.21-.71-.27-1.46-.46-2.18a1,1,0,0,0-1.13-.76.94.94,0,0,0-.93.67,16.49,16.49,0,0,0-.34,1.7,4.2,4.2,0,0,1-.75,1.82c-1.17,1.7-2.86,1.66-4-.08a4.94,4.94,0,0,1-.81-2.32,4.34,4.34,0,0,0-.24-1.2,1,1,0,0,0-1-.61,1,1,0,0,0-1,.63,7.72,7.72,0,0,0-.26,1.45,4.78,4.78,0,0,1-1.09,2.46,2.06,2.06,0,0,1-3.4,0,4.21,4.21,0,0,1-1-2c-.11-.57-.18-1.14-.31-1.7a1.06,1.06,0,0,0-1.27-.89,1,1,0,0,0-.92,1,6.76,6.76,0,0,0,2.2,5.57,4.25,4.25,0,0,0,5.68.25c.5-.37.94-.8,1.39-1.19C261.63,1302.42,263.42,1302.42,266.61,1299.59Zm-3.92,15.81h0c-1.82,0-3.64,0-5.47,0-1.33,0-1.77.51-1.79,1.81a7.13,7.13,0,1,0,14.24-.23c-.07-1.08-.45-1.54-1.5-1.57C266.34,1315.37,264.52,1315.4,262.69,1315.4Zm10.83-2.16c.24-.69.84-.85,1.3-1.16s1.15-.67,1.68-1a1.13,1.13,0,0,0-1.05-2c-1.79,1-3.57,2-5.32,3.14a1.05,1.05,0,0,0-.1,1.71c1.82,1.14,3.67,2.22,5.53,3.29a.9.9,0,0,0,.93-.1,1.07,1.07,0,0,0,.13-1.85C275.61,1314.51,274.54,1313.89,273.52,1313.24Zm-21.78,0-2.24,1.33a9.05,9.05,0,0,0-1,.7,1.13,1.13,0,0,0-.17,1.55,1,1,0,0,0,1.31.35c1.72-1,3.45-1.93,5.12-3a1.19,1.19,0,0,0,0-2.18c-1.6-1-3.25-1.94-4.89-2.89a1.23,1.23,0,0,0-.46-.14,1.07,1.07,0,0,0-1.08.45,1.08,1.08,0,0,0,.05,1.37,4.81,4.81,0,0,0,1,.73A10,10,0,0,1,251.74,1313.2Z"/><path class="cls-42" d="M243,1351.27a1.1,1.1,0,0,1-.07-1.17q1.69-5.19,3.43-10.37a2.59,2.59,0,0,1,.71-1.27,6,6,0,0,0,2-2.66,3,3,0,0,1,1.82.24,40.8,40.8,0,0,0,22.79.2c.24-.06.47-.16.71-.22,1.42-.37,1.42-.37,2.34,1,.14.21.24.48.43.6,1.4.88,1.72,2.36,2.17,3.76,1,3,2,6,2.95,9,.12.37.41.74.07,1.14-.47.14-.77-.19-1.12-.38a7.67,7.67,0,0,0-8,.07,7.76,7.76,0,0,1-1.78.88,5.13,5.13,0,0,1-4.29-.58,7.4,7.4,0,0,0-3.18-1.33,7.94,7.94,0,0,0-5.49,1.05,5.23,5.23,0,0,1-6.06.25,7.72,7.72,0,0,0-8.46-.34,3.83,3.83,0,0,1-.7.23C243.15,1351.33,243.07,1351.29,243,1351.27Z"/><path class="cls-47" d="M271.51,1326.52c1.05-.26,1.59.29,2.24.36a1.15,1.15,0,0,0,1.39-1.48c-.05-.24-.14-.47-.21-.71a4.41,4.41,0,0,1-.23-.7c-.07-.42-.05-.85.41-1a.73.73,0,0,1,1,.41c.19.37.31.77.5,1.13.56,1.07,1.28,1.2,2.13.38.23-.23.4-.52.64-.74a.57.57,0,0,1,.68-.1c.31.17.59.44.47.77a20.34,20.34,0,0,1-.9,2c-1.78,3.56-1.63,2.18-.32,5.94a8.08,8.08,0,0,1,.88,2.81.8.8,0,0,1-.34.6.68.68,0,0,1-.89-.18,2.48,2.48,0,0,1-.37-.63c-.17-.37-.3-.76-.46-1.14a18.35,18.35,0,0,0-1.74-4.07c-.89-1.18-2.62-1.28-3.94-1.93a4.35,4.35,0,0,1-1-.66.85.85,0,0,1-.11-.66A.76.76,0,0,1,271.51,1326.52Z"/><path class="cls-47" d="M250.5,1323.57c-.16.55-.33,1.09-.47,1.65-.3,1.24.36,1.88,1.64,1.59.48-.11.94-.32,1.42-.39a.82.82,0,0,1,.6.33.61.61,0,0,1-.09.89,14,14,0,0,1-2,1c-3.65,1.56-2.67.7-4.18,4.34-.41,1-.79,2-1.25,3a.66.66,0,0,1-.87.24.67.67,0,0,1-.46-.78c.31-1,.68-2,1.06-3.05,1.18-3.17,1.26-2.17-.3-5.29a24,24,0,0,1-1-2.25c-.13-.32.11-.63.43-.79a.54.54,0,0,1,.68.06c.34.36.63.77,1,1.09a1.09,1.09,0,0,0,1.54-.25c.33-.57.56-1.19.89-1.76a.65.65,0,0,1,.88-.22C250.21,1323.05,250.31,1323.33,250.5,1323.57Z"/><path class="cls-41" d="M243,1322.39c-1.27-.72-1.24-1.89-.87-3a2.67,2.67,0,0,1,2.34-1.91,3.1,3.1,0,0,1,3.17,1.4,3.86,3.86,0,0,1,.6,1.85,2.17,2.17,0,0,1-2.48,1C244.74,1321.44,243.85,1322,243,1322.39Z"/><path class="cls-41" d="M276.69,1320.66c.29-.58.54-1.19.88-1.74a2.95,2.95,0,0,1,5.46,2,12.91,12.91,0,0,1-.61,1.85c-.85-.7-1.8-1.38-2.91-1.07C278.22,1322.08,277.49,1321.37,276.69,1320.66Z"/><path class="cls-43" d="M251.85,1363.67c-1,0-2,0-3,0-.38,0-.87.1-1-.43a1.29,1.29,0,0,1,.39-1.12,4.66,4.66,0,0,1,7.87.5.63.63,0,0,1-.56,1c-1.23,0-2.47,0-3.71,0Z"/><path class="cls-43" d="M277.53,1363.58H269c-.34-.81.2-1.3.61-1.78a4.56,4.56,0,0,1,2.76-1.54C274.5,1359.89,276.23,1360.93,277.53,1363.58Z"/><path class="cls-47" d="M255.35,1355.51a6.7,6.7,0,0,1-.51,2.33.66.66,0,0,1-.83.31c-.32-.08-.64-.22-.69-.59a5.22,5.22,0,0,1,.54-2.61c.15-.4.69-.37,1.09-.24C255.17,1354.78,255.38,1354.92,255.35,1355.51Z"/><path class="cls-47" d="M270.49,1354.69a.72.72,0,0,1,.78.36,5.32,5.32,0,0,1,.45,2.36c0,.47-.35.69-.81.7a.61.61,0,0,1-.69-.52c-.14-.71-.32-1.41-.44-2.13C269.69,1355,270,1354.71,270.49,1354.69Z"/><path class="cls-46" d="M266.61,1299.59c-3.19,2.83-5,2.83-8.1,0-.45.39-.89.82-1.39,1.19a4.25,4.25,0,0,1-5.68-.25,6.76,6.76,0,0,1-2.2-5.57,1,1,0,0,1,.92-1,1.06,1.06,0,0,1,1.27.89c.13.56.2,1.13.31,1.7a4.21,4.21,0,0,0,1,2,2.06,2.06,0,0,0,3.4,0,4.78,4.78,0,0,0,1.09-2.46,7.72,7.72,0,0,1,.26-1.45,1,1,0,0,1,1-.63,1,1,0,0,1,1,.61,4.34,4.34,0,0,1,.24,1.2,4.94,4.94,0,0,0,.81,2.32c1.14,1.74,2.83,1.78,4,.08a4.2,4.2,0,0,0,.75-1.82,16.49,16.49,0,0,1,.34-1.7.94.94,0,0,1,.93-.67,1,1,0,0,1,1.13.76c.19.72.25,1.47.46,2.18a3,3,0,0,0,2.45,2.49c1.06.16,2.18-.91,2.68-2.52.22-.71.27-1.46.46-2.17a1.11,1.11,0,0,1,2.15.19,6.79,6.79,0,0,1-3.34,6.45,4.08,4.08,0,0,1-4-.22A22.07,22.07,0,0,1,266.61,1299.59Z"/><path class="cls-46" d="M262.69,1315.4c1.83,0,3.65,0,5.48,0,1.05,0,1.43.49,1.5,1.57a7.13,7.13,0,1,1-14.24.23c0-1.3.46-1.78,1.79-1.81,1.83,0,3.65,0,5.47,0Zm-4.86,2.4a4.78,4.78,0,0,0,.86,2.45,4.55,4.55,0,0,0,4.53,2,4.63,4.63,0,0,0,3.9-3.38c.18-.57-.08-1-.66-1C263.66,1317.75,260.85,1317.77,257.83,1317.8Z"/><path class="cls-46" d="M273.52,1313.24c1,.65,2.09,1.27,3.1,2a1.07,1.07,0,0,1-.13,1.85.9.9,0,0,1-.93.1c-1.86-1.07-3.71-2.15-5.53-3.29a1.05,1.05,0,0,1,.1-1.71c1.75-1.09,3.53-2.13,5.32-3.14a1.13,1.13,0,0,1,1.05,2c-.53.38-1.13.68-1.68,1S273.76,1312.55,273.52,1313.24Z"/><path class="cls-46" d="M251.74,1313.2a10,10,0,0,0-2.42-1.71,4.81,4.81,0,0,1-1-.73,1.08,1.08,0,0,1-.05-1.37,1.07,1.07,0,0,1,1.08-.45,1.23,1.23,0,0,1,.46.14c1.64,1,3.29,1.88,4.89,2.89a1.19,1.19,0,0,1,0,2.18c-1.67,1-3.4,2-5.12,3a1,1,0,0,1-1.31-.35,1.13,1.13,0,0,1,.17-1.55,9.05,9.05,0,0,1,1-.7Z"/><path class="cls-37" d="M257.83,1317.8c3,0,5.83,0,8.63,0,.58,0,.84.46.66,1a4.63,4.63,0,0,1-3.9,3.38,4.55,4.55,0,0,1-4.53-2A4.78,4.78,0,0,1,257.83,1317.8Z"/><path class="cls-48" d="M526.52,1301.69c0,13.53,0,25.38-10.51,32-6.54,7.19-47.18,7.19-53.72,0-10.52-6.57-10.52-18.42-10.52-32,0-1.85.8-23.52,1.08-24.29,1.4-3.81,3-11.62,8.13-10.83a185.34,185.34,0,0,0,56.33,0c5.12-.79,6.71,7,8.13,10.83.29.77,1.08,22.44,1.08,24.29Z"/><path class="cls-49" d="M515.32,1295.39A3.39,3.39,0,1,0,512,1292a3.39,3.39,0,0,0,3.36,3.39Z"/><path class="cls-49" d="M519,1306.15a1.81,1.81,0,1,0-1.79-1.79,1.81,1.81,0,0,0,1.79,1.79Z"/><path class="cls-49" d="M517.25,1314.83a1.17,1.17,0,0,0,1.15-1.16,1.14,1.14,0,0,0-1.15-1.15,1.16,1.16,0,0,0-1.15,1.15,1.19,1.19,0,0,0,1.15,1.16Z"/><path class="cls-49" d="M464.12,1292.06a2.48,2.48,0,1,0-2.48-2.48,2.49,2.49,0,0,0,2.48,2.48Z"/><path class="cls-49" d="M458.21,1296.68a1.53,1.53,0,1,0-1.53-1.53,1.54,1.54,0,0,0,1.53,1.53Z"/><path class="cls-49" d="M458.54,1315.67a1.21,1.21,0,0,0,1.23-1.21,1.23,1.23,0,0,0-2.45,0,1.21,1.21,0,0,0,1.22,1.21Z"/><path class="cls-49" d="M460.51,1306.69a2.29,2.29,0,0,0,2.33-2.28,2.31,2.31,0,0,0-4.61,0,2.27,2.27,0,0,0,2.28,2.28Z"/><path class="cls-50" d="M526.52,1301.69c0,13.53,0,25.38-10.51,32-6.54,7.19-47.18,7.19-53.72,0-.17-.4-.17-.8.51-.83,15.86,3.38,41.18,6.48,52.07-4.2s7.19-40,6.51-41.83c-1.34-3.7-30.16-3.27-30.16-3.27l-1.47-14.78a184.09,184.09,0,0,0,27.56-2.16c5.12-.79,6.71,7,8.13,10.83.29.77,1.08,22.44,1.08,24.29Z"/><path class="cls-51" d="M462.29,1333.64c-10.52-6.57-10.52-18.42-10.52-32,0-1.82.74-22.78,1.06-24.23l8.27,3.86c-1.45.23-4.46.74-4.52,1.79-1.93,27.57,0,40.58,1.33,42.8a32.46,32.46,0,0,0,4.38,7.73Z"/><path class="cls-52" d="M452.77,1278a4,4,0,0,1,.08-.57c1.4-3.81,3-11.62,8.13-10.83a185.34,185.34,0,0,0,56.33,0c5.12-.79,6.71,7,8.13,10.83a3.93,3.93,0,0,1,.09.71c-11.51,7.5-66.48,7-72.76-.14Z"/><path class="cls-53" d="M452.77,1278a4,4,0,0,1,.08-.57c1.4-3.81,3-11.62,8.13-10.83,2.53.4,5.09.74,7.65,1-7.79-.09-9.15-.46-11.82,6.45-2.33,6.08,1.33,5.54,4.29,7.27-4.15-.88-7.14-2-8.33-3.35Z"/><path class="cls-20" d="M527.49,1301.69c0,6.82,0,13.22-1.37,18.82s-4.06,10.46-9.52,13.87a1.82,1.82,0,0,1-.31.31c-3.89,3.52-15.55,5.28-27.14,5.28h0c-11.63,0-23.28-1.76-27.14-5.28a3.28,3.28,0,0,1-.34-.31c-5.43-3.41-8.16-8.22-9.53-13.87s-1.33-12-1.33-18.82c0-1.08.28-12.44.57-17.55.2-3.58.42-6.65.57-7.08.22-.6.42-1.22.65-1.93,1.42-4.32,3.35-10.29,8.53-9.52a182.82,182.82,0,0,0,56,0c5.15-.77,7.11,5.2,8.5,9.52.23.71.45,1.33.65,1.93h0a63.5,63.5,0,0,1,.6,7.08c.28,5.11.57,16.47.57,17.55Zm-3.21,18.36c1.28-5.34,1.28-11.62,1.28-18.36,0-1.11-.29-12.41-.57-17.44-.2-3.44-.37-6.31-.46-6.51h0c-.2-.57-.42-1.28-.68-2-1.19-3.66-2.84-8.75-6.39-8.21a184.08,184.08,0,0,1-56.62,0c-3.55-.54-5.2,4.55-6.42,8.21-.23.74-.46,1.45-.66,2-.08.23-.28,3.07-.48,6.51-.28,5-.54,16.33-.54,17.44,0,6.74,0,13,1.28,18.36s3.75,9.64,8.78,12.76l.2.17a1.33,1.33,0,0,0,.29.29c3.52,3.21,14.66,4.8,25.86,4.8h0c11.2,0,22.34-1.59,25.83-4.8a2.8,2.8,0,0,0,.32-.29l.19-.17c5-3.12,7.51-7.5,8.79-12.76Z"/><path class="cls-54" d="M448.13,1284.91a4.42,4.42,0,1,1,0-8.84h81.12a4.42,4.42,0,0,1,0,8.84Z"/><rect class="cls-55" x="445.52" y="1277.87" width="86.35" height="5.23" rx="2.62"/><path class="cls-54" d="M489.17,1286.41a5.92,5.92,0,1,0-5.92-5.92,6,6,0,0,0,5.92,5.92Z"/><path class="cls-56" d="M491.6,1276.81a4.25,4.25,0,0,1,1.08,5.48,4.19,4.19,0,0,1-5.48,2.16l.34-.35a8.29,8.29,0,0,0,1.94-3.47,12.22,12.22,0,0,1,2.12-3.82Zm-5.06,7.26a4.34,4.34,0,0,1-.92-5.41,4.21,4.21,0,0,1,5.32-2.2,11.63,11.63,0,0,0-2.12,3.9,8.28,8.28,0,0,1-1.81,3.28c-.16.16-.31.27-.47.43Z"/><path class="cls-57" d="M483.64,1366.7h-9.29a4.78,4.78,0,0,1,9.29,0Z"/><path class="cls-57" d="M504.6,1366.7h-9.28a4.78,4.78,0,0,1,9.28,0Z"/><path class="cls-31" d="M509.48,1354.77a.24.24,0,0,1-.31,0c-.27-.14-.53-.3-.8-.47a7.53,7.53,0,0,0-8.53,0,5,5,0,0,1-2.36.94c-.23,0-.46,0-.69,0a4.63,4.63,0,0,1-2.71-.76l-.33-.21a7.54,7.54,0,0,0-8.55,0l-.33.21a4.73,4.73,0,0,1-2.71.76c-.23,0-.46,0-.69,0a4.92,4.92,0,0,1-2.36-.94,7.51,7.51,0,0,0-8.52,0c-.28.17-.54.33-.81.47a.24.24,0,0,1-.3,0,.27.27,0,0,1-.09-.31l5.47-16.56.34-1a28.61,28.61,0,0,0,10.75,3.55l.41,0h0a30.6,30.6,0,0,0,3.07.16,28.38,28.38,0,0,0,3.12-.17l.38,0h0a28.76,28.76,0,0,0,10.77-3.55l.47,1.41,5.34,16.19A.24.24,0,0,1,509.48,1354.77Z"/><path class="cls-20" d="M466.44,1328.74c-1-1-3.11-5.72-3.11-5.72a24.61,24.61,0,0,1-1.49-8.45c0-14.37,12.4-26.07,27.63-26.07s27.64,11.7,27.64,26.07a24.6,24.6,0,0,1-1.48,8.45c-1,2.69-2.75,5.94-2.66,6.07s.41.93.41.93a5.2,5.2,0,0,1,.4,2,5.43,5.43,0,0,1-1.68,3.92c.62,1.38,1.55,4.15.45,6.44a5.53,5.53,0,0,1-3.64,2.81l2.82,8.56a2.56,2.56,0,0,1-3.6,3.07c-.36-.19-.67-.39-1-.58a5.3,5.3,0,0,0-6.11,0c-.22.14-.46.29-.71.43l.86,4.21a7.06,7.06,0,0,1,5.83,6.94,1.14,1.14,0,0,1-1.14,1.14H494.05a1.14,1.14,0,0,1-1.14-1.14,7,7,0,0,1,2.25-5.16l-1.15-5.61a9.6,9.6,0,0,1-1.11-.57l-.37-.24a5.3,5.3,0,0,0-6.11,0l-.37.23a8.16,8.16,0,0,1-1.11.58l-1.14,5.61a7.06,7.06,0,0,1,2.25,5.16,1.14,1.14,0,0,1-1.14,1.14H473.07a1.14,1.14,0,0,1-1.13-1.14,7.06,7.06,0,0,1,5.83-6.94l.86-4.2c-.26-.14-.5-.3-.73-.44a5.28,5.28,0,0,0-6.1,0,10.81,10.81,0,0,1-1,.57,2.54,2.54,0,0,1-2.83-.32,2.56,2.56,0,0,1-.78-2.74l2.83-8.56a5.51,5.51,0,0,1-3.64-2.81c-1.1-2.29-.18-5.06.45-6.44a5.43,5.43,0,0,1-1.68-3.92,5.29,5.29,0,0,1,.4-2Zm44.49-1.48a22.53,22.53,0,0,0,3.91-12.69c0-13.11-11.38-23.79-25.37-23.79s-25.35,10.68-25.35,23.79a22.56,22.56,0,0,0,3.91,12.69,5.38,5.38,0,0,1,2.59-.65,5.44,5.44,0,0,1,5.44,5.43,5.24,5.24,0,0,1-.56,2.37,26.45,26.45,0,0,0,10.74,3.77l.32,0a30.37,30.37,0,0,0,5.8,0l.37,0a26.34,26.34,0,0,0,10.72-3.75,5.44,5.44,0,0,1,7.48-7.16Zm.57,4.78a3.17,3.17,0,1,0-3.16,3.16A3.17,3.17,0,0,0,511.5,1332Zm-1,9.37c.65-1.33.1-3.15-.35-4.24a5.41,5.41,0,0,1-3.92-.12l2,6A3.38,3.38,0,0,0,510.49,1341.41Zm-1,13.36a.24.24,0,0,0,.09-.29l-5.81-17.6a28.76,28.76,0,0,1-10.77,3.55h0l-.38,0a28.38,28.38,0,0,1-3.12.17,30.6,30.6,0,0,1-3.07-.16h0l-.41,0a28.61,28.61,0,0,1-10.75-3.55l-5.81,17.59a.27.27,0,0,0,.09.31.24.24,0,0,0,.3,0c.27-.14.53-.3.81-.47a7.51,7.51,0,0,1,8.52,0,4.92,4.92,0,0,0,2.36.94c.23,0,.46,0,.69,0a4.73,4.73,0,0,0,2.71-.76l.33-.21a7.54,7.54,0,0,1,8.55,0l.33.21a4.63,4.63,0,0,0,2.71.76c.23,0,.46,0,.69,0a5,5,0,0,0,2.36-.94,7.53,7.53,0,0,1,8.53,0c.27.17.53.33.8.47A.24.24,0,0,0,509.48,1354.77Zm-14.16,11.93h9.28a4.78,4.78,0,0,0-9.28,0Zm3.54-5.82-.7-3.41c-.14,0-.28,0-.43.06a7.42,7.42,0,0,1-.94.06l-.35,0,.77,3.77A7.22,7.22,0,0,1,498.86,1360.88Zm-24.51,5.82h9.29a4.78,4.78,0,0,0-9.29,0Zm7.4-5.35.76-3.78-.35,0a7.19,7.19,0,0,1-.94-.06l-.42-.06-.7,3.41A6.77,6.77,0,0,1,481.75,1361.35Zm-8-29.31a3.16,3.16,0,1,0-3.16,3.16A3.17,3.17,0,0,0,473.78,1332Zm-3,11,2-6a5.35,5.35,0,0,1-2.12.43,5.18,5.18,0,0,1-1.81-.32c-.49,1.19-1,3-.35,4.25A3.42,3.42,0,0,0,470.76,1343.05Z"/><path class="cls-30" d="M489.47,1290.78c-14,0-25.35,10.68-25.35,23.79a22.66,22.66,0,0,0,3.91,12.69,5.53,5.53,0,0,1,2.59-.65,5.42,5.42,0,0,1,5.41,5,3.29,3.29,0,0,1,0,.45,5.24,5.24,0,0,1-.56,2.37,26.45,26.45,0,0,0,10.74,3.77l.32,0a30.37,30.37,0,0,0,5.8,0l.37,0a26.34,26.34,0,0,0,10.72-3.75,5.44,5.44,0,0,1-.55-2.38c0-.14,0-.27,0-.4a5.45,5.45,0,0,1,5.43-5,5.55,5.55,0,0,1,1.47.2,5.46,5.46,0,0,1,1.12.45,21.89,21.89,0,0,0,1.82-3.23,22.4,22.4,0,0,0,2.09-9.46C514.84,1301.46,503.46,1290.78,489.47,1290.78Zm-5.3,2.84a1.14,1.14,0,0,1,1.14,1.14,6.5,6.5,0,0,0,5.38,6.38,4.69,4.69,0,0,1-.64-2.36,4.74,4.74,0,0,1,4.74-4.74,1.14,1.14,0,0,1,0,2.28,2.46,2.46,0,0,0-.84,4.77,1.14,1.14,0,0,1-.11,2.17,8.67,8.67,0,0,1-2.06.25,8.77,8.77,0,0,1-8.75-8.75A1.14,1.14,0,0,1,484.17,1293.62Zm-.48,26a1.14,1.14,0,0,1,1.14,1.14,1.76,1.76,0,0,0,3.51,0,1.14,1.14,0,1,1,2.28,0,1.76,1.76,0,0,0,3.51,0,1.14,1.14,0,1,1,2.27,0,4,4,0,0,1-6.92,2.8,4,4,0,0,1-6.93-2.8A1.14,1.14,0,0,1,483.69,1319.58Zm-8.52.21a1.13,1.13,0,0,1,.4-1.55l3.47-2-3.47-2a1.14,1.14,0,0,1,1.15-2l5.14,3a1.16,1.16,0,0,1,.56,1,1.14,1.14,0,0,1-.56,1l-5.14,3a1.14,1.14,0,0,1-1.55-.41Zm28.22-1.55a1.13,1.13,0,0,1-.58,2.11,1.19,1.19,0,0,1-.58-.15l-5.13-3a1.14,1.14,0,0,1-.56-1,1.16,1.16,0,0,1,.56-1l5.13-3a1.14,1.14,0,1,1,1.16,2l-3.47,2Z"/><path class="cls-34" d="M476,1333.22c0-.12,0-.24,0-.36a5.4,5.4,0,0,1-.49,1.55l.45.27a4.81,4.81,0,0,0,.11-1A3.4,3.4,0,0,0,476,1333.22Z"/><path class="cls-34" d="M489.47,1292.41c13.7,0,24.88,10.24,25.34,23,0-.27,0-.54,0-.82,0-13.11-11.38-23.79-25.37-23.79s-25.35,10.68-25.35,23.79c0,.28,0,.56,0,.84C464.59,1302.66,475.78,1292.41,489.47,1292.41Z"/><path class="cls-34" d="M502.91,1333.28c0,.13,0,.26,0,.39a5.58,5.58,0,0,0,.1,1l.45-.26a5.3,5.3,0,0,1-.48-1.57C502.94,1333,502.93,1333.13,502.91,1333.28Z"/><path class="cls-30" d="M508.34,1328.88a3.16,3.16,0,1,1-3.17,3.16A3.17,3.17,0,0,1,508.34,1328.88Z"/><path class="cls-31" d="M510.14,1337.17c.45,1.09,1,2.91.35,4.24a3.38,3.38,0,0,1-2.29,1.64l-2-6a5.41,5.41,0,0,0,3.92.12Z"/><path class="cls-20" d="M503.79,1312.6a1.14,1.14,0,0,1-.4,1.56l-3.47,2,3.47,2a1.13,1.13,0,0,1-.58,2.11,1.19,1.19,0,0,1-.58-.15l-5.13-3a1.14,1.14,0,0,1-.56-1,1.16,1.16,0,0,1,.56-1l5.13-3A1.14,1.14,0,0,1,503.79,1312.6Z"/><path class="cls-30" d="M498.86,1360.88a7.22,7.22,0,0,0-1.65.46l-.54-2.62-.23-1.15.35,0a7.42,7.42,0,0,0,.94-.06c.15,0,.29,0,.43-.06l.21,1Z"/><path class="cls-20" d="M495.27,1319.58a1.13,1.13,0,0,1,1.13,1.14,4,4,0,0,1-6.92,2.8,4,4,0,0,1-6.93-2.8,1.14,1.14,0,1,1,2.28,0,1.76,1.76,0,0,0,3.51,0,1.14,1.14,0,1,1,2.28,0,1.76,1.76,0,0,0,3.51,0A1.14,1.14,0,0,1,495.27,1319.58Z"/><path class="cls-20" d="M494.79,1294a1.14,1.14,0,0,1,0,2.28,2.46,2.46,0,0,0-.84,4.77,1.14,1.14,0,0,1-.11,2.17,8.67,8.67,0,0,1-2.06.25,8.77,8.77,0,0,1-8.75-8.75,1.14,1.14,0,1,1,2.28,0,6.5,6.5,0,0,0,5.38,6.38,4.69,4.69,0,0,1-.64-2.36A4.74,4.74,0,0,1,494.79,1294Z"/><path class="cls-30" d="M482.51,1357.57l-.23,1.15-.53,2.63a6.77,6.77,0,0,0-1.65-.47l.49-2.39.21-1,.42.06a7.19,7.19,0,0,0,.94.06Z"/><path class="cls-20" d="M481.86,1315.21a1.16,1.16,0,0,1,.56,1,1.14,1.14,0,0,1-.56,1l-5.14,3a1.14,1.14,0,0,1-1.15-2l3.47-2-3.47-2a1.14,1.14,0,0,1,1.15-2Z"/><path class="cls-30" d="M470.62,1328.88a3.16,3.16,0,1,1-3.16,3.16A3.17,3.17,0,0,1,470.62,1328.88Z"/><path class="cls-31" d="M508.34,1333.58a3.17,3.17,0,0,1-3.06-2.35,3.1,3.1,0,0,0-.11.81,3.17,3.17,0,0,0,6.33,0,3.1,3.1,0,0,0-.11-.81A3.16,3.16,0,0,1,508.34,1333.58Z"/><path class="cls-31" d="M470.62,1333.58a3.16,3.16,0,0,1-3.05-2.35,3.1,3.1,0,0,0-.11.81,3.16,3.16,0,1,0,6.32,0,3.1,3.1,0,0,0-.11-.81A3.16,3.16,0,0,1,470.62,1333.58Z"/><path class="cls-31" d="M472.74,1337.05l-2,6a3.42,3.42,0,0,1-2.3-1.64c-.61-1.26-.14-3.06.35-4.25a5.18,5.18,0,0,0,1.81.32A5.35,5.35,0,0,0,472.74,1337.05Z"/><circle class="cls-31" cx="471.95" cy="1323.52" r="3.12" transform="translate(-924.41 1480.47) rotate(-76.79)"/><circle class="cls-31" cx="507" cy="1323.52" r="3.12"/><path class="cls-31" d="M469.31,1326.77a5.21,5.21,0,0,0-1.28.49,22.48,22.48,0,0,1-2.07-3.78C467,1324.6,468.11,1325.7,469.31,1326.77Z"/><path class="cls-31" d="M502.9,1332a5.44,5.44,0,0,0,.55,2.38,26.34,26.34,0,0,1-10.72,3.75l-.37,0a30.37,30.37,0,0,1-5.8,0l-.32,0a26.45,26.45,0,0,1-10.74-3.77,5.24,5.24,0,0,0,.56-2.37,3.29,3.29,0,0,0,0-.45,27.56,27.56,0,0,0,13.45,3.61,27.85,27.85,0,0,0,13.43-3.56C502.9,1331.77,502.9,1331.9,502.9,1332Z"/><path class="cls-31" d="M509.81,1326.81c1-.9,2-1.83,2.94-2.78a21.89,21.89,0,0,1-1.82,3.23A5.46,5.46,0,0,0,509.81,1326.81Z"/><path class="cls-58" d="M504.23,1338.29a26.11,26.11,0,0,1-14.76,4.76,23.25,23.25,0,0,1-14.61-5.14l.34-1a28.61,28.61,0,0,0,10.75,3.55l.41,0h0a30.6,30.6,0,0,0,3.07.16,28.38,28.38,0,0,0,3.12-.17l.38,0h0a28.76,28.76,0,0,0,10.77-3.55Z"/><path class="cls-31" d="M482.16,1357.59l.35,0-.23,1.15h-.12c-.23,0-.46,0-.69,0a4.11,4.11,0,0,1-.88-.19l.21-1,.42.06A7.19,7.19,0,0,0,482.16,1357.59Z"/><path class="cls-31" d="M498.37,1358.48a3.65,3.65,0,0,1-.89.2c-.23,0-.46,0-.69,0h-.12l-.23-1.15.35,0a7.42,7.42,0,0,0,.94-.06c.15,0,.29,0,.43-.06Z"/></svg>