<?xml version="1.0" encoding="utf-8"?>
<!-- Generator: Adobe Illustrator 25.3.0, SVG Export Plug-In . SVG Version: 6.00 Build 0)  -->
<svg version="1.1" id="レイヤー_1" xmlns="http://www.w3.org/2000/svg" xmlns:xlink="http://www.w3.org/1999/xlink" x="0px"
	 y="0px" viewBox="0 0 1170 1508.7" style="enable-background:new 0 0 1170 1508.7;" xml:space="preserve">
<style type="text/css">
	.st0{fill:url(#SVGID_1_);}
	.st1{clip-path:url(#SVGID_4_);}
	.st2{clip-path:url(#SVGID_5_);}
	.st3{fill:#DD8BA0;stroke:#3C0000;stroke-width:2.4097;stroke-miterlimit:10;}
	.st4{fill:none;stroke:#3C0000;stroke-width:2.364;stroke-miterlimit:10;}
	.st5{fill:#45387D;stroke:#3C0000;stroke-width:2.364;stroke-miterlimit:10;}
	.st6{fill:#4E4C8F;stroke:#3C0000;stroke-width:2.364;stroke-miterlimit:10;}
	.st7{fill:#FFFFFF;stroke:#3C0000;stroke-width:2.364;stroke-miterlimit:10;}
	.st8{fill:#2A2C4E;stroke:#3C0000;stroke-width:2.364;stroke-miterlimit:10;}
	.st9{fill:#6E76B5;}
	.st10{clip-path:url(#SVGID_7_);}
	.st11{clip-path:url(#SVGID_9_);}
	.st12{fill:#6E76B5;stroke:#3C0000;stroke-width:2.364;stroke-miterlimit:10;}
	.st13{fill:#969AD9;stroke:#3C0000;stroke-width:2.364;stroke-miterlimit:10;}
	.st14{fill:#FFB8C8;stroke:#3C0000;stroke-width:2.364;stroke-miterlimit:10;}
	.st15{fill:#DD8BA0;stroke:#3C0000;stroke-width:2.364;stroke-miterlimit:10;}
	.st16{opacity:0.6;fill:#45387D;enable-background:new    ;}
	.st17{fill:#D5DEF0;stroke:#3C0000;stroke-width:2.364;stroke-miterlimit:10;}
	.st18{fill:#969AD9;}
	.st19{fill:#D26088;stroke:#3C0000;stroke-width:2.364;stroke-miterlimit:10;}
	.st20{fill:#B7BFEB;stroke:#3C0000;stroke-width:2.364;stroke-miterlimit:10;}
	.st21{opacity:0.4;fill:#45387D;stroke:#3C0000;stroke-width:2.364;stroke-miterlimit:10;enable-background:new    ;}
	.st22{fill:#B7BFEB;}
	.st23{clip-path:url(#SVGID_11_);}
	.st24{fill:#DD8BA0;}
	.st25{fill-rule:evenodd;clip-rule:evenodd;fill:#B86A39;}
	.st26{fill-rule:evenodd;clip-rule:evenodd;fill:#EEC26B;}
	.st27{fill-rule:evenodd;clip-rule:evenodd;fill:#B0602E;}
	.st28{fill-rule:evenodd;clip-rule:evenodd;fill:#BF774A;}
	.st29{fill-rule:evenodd;clip-rule:evenodd;fill:#BF784C;}
	.st30{fill-rule:evenodd;clip-rule:evenodd;fill:#CF906A;}
	.st31{fill:#3C0000;}
	.st32{fill-rule:evenodd;clip-rule:evenodd;fill:#3C0000;}
	.st33{fill:#EEC26B;}
	.st34{fill-rule:evenodd;clip-rule:evenodd;fill:#FFFFFF;}
	.st35{fill:#8C533D;}
	.st36{fill:#EFD3A5;}
	.st37{fill:#FFEBC8;}
	.st38{fill:#FFF6EE;}
	.st39{fill:#E2D7C2;}
</style>
<g>
	<g id="レイヤー_1_1_">
		
			<linearGradient id="SVGID_1_" gradientUnits="userSpaceOnUse" x1="585" y1="1585.21" x2="585" y2="-84.9499" gradientTransform="matrix(1 0 0 -1 0 1508)">
			<stop  offset="0" style="stop-color:#9ED9FF"/>
			<stop  offset="0.21" style="stop-color:#A2D8FC"/>
			<stop  offset="0.41" style="stop-color:#AED5F5"/>
			<stop  offset="0.61" style="stop-color:#C1D0E8"/>
			<stop  offset="0.81" style="stop-color:#DDC9D6"/>
			<stop  offset="1" style="stop-color:#FFC1BF"/>
		</linearGradient>
		<rect class="st0" width="1170" height="1508.7"/>
		<g>
			<defs>
				<rect id="SVGID_2_" x="-113.9" y="668.9" width="1339" height="840.4"/>
			</defs>
			<defs>
				<rect id="SVGID_3_" y="668.9" width="1170" height="840.4"/>
			</defs>
			<clipPath id="SVGID_4_">
				<use xlink:href="#SVGID_2_"  style="overflow:visible;"/>
			</clipPath>
			<clipPath id="SVGID_5_" class="st1">
				<use xlink:href="#SVGID_3_"  style="overflow:visible;"/>
			</clipPath>
			<g class="st2">
				<path class="st3" d="M1142.7,1336.5c0.4-4.4,0.2-8.9-0.6-13.3c-4.9-27.1-30.9-45.1-58-40.1c-23.7,4.3-40.9,25-40.9,49.1
					c0,1.7,0.1,3.4,0.3,5c1.4,13.3-1,26.7-6.9,38.8c-15.2,31.2-2.4,68.8,28.8,84s68.8,2.4,84-28.8c8.6-17.5,8.5-38-0.1-55.5
					C1143.2,1363.6,1141.5,1350,1142.7,1336.5z"/>
				<line class="st4" x1="1094.7" y1="1383.6" x2="1116.2" y2="1362.2"/>
				<line class="st4" x1="1091.2" y1="1414.4" x2="1069.8" y2="1393"/>
				<line class="st4" x1="1093" y1="1336.2" x2="1093" y2="1532"/>
				<path class="st5" d="M1014.3,1426.3l-12.4-171.6c-0.4-4.3,0.7-8.6,2.9-12.2c-8.3,0.7-15.3,6.5-17.5,14.6l-47.8,165.2
					c-10.8,37.2,10.7,76.1,47.9,86.9c6.3,1.8,12.9,2.8,19.5,2.8l0,0c20.6,0.1,40.2-9,53.4-24.7
					C1034.3,1477.9,1016.2,1454,1014.3,1426.3z"/>
				<polygon class="st6" points="500,700.3 500,911.5 723.8,911.5 				"/>
				<rect x="302.4" y="911.5" class="st7" width="197.6" height="600.5"/>
				<rect x="500" y="911.5" class="st5" width="197.6" height="600.5"/>
				<polygon class="st8" points="697.6,1040.3 671.5,1286.8 698.2,1286.8 				"/>
				<polygon class="st9" points="500,700.3 500,911.5 276.3,911.5 				"/>
				<g>
					<defs>
						<polygon id="SVGID_6_" points="500,700.3 500,911.5 276.3,911.5 						"/>
					</defs>
					<clipPath id="SVGID_7_">
						<use xlink:href="#SVGID_6_"  style="overflow:visible;"/>
					</clipPath>
					<g class="st10">
						<line class="st4" x1="294.6" y1="725" x2="530.4" y2="725"/>
						<line class="st4" x1="294.6" y1="746.7" x2="530.4" y2="746.7"/>
						<line class="st4" x1="294.6" y1="768.5" x2="530.4" y2="768.5"/>
						<line class="st4" x1="294.6" y1="790.2" x2="530.4" y2="790.2"/>
						<line class="st4" x1="294.6" y1="811.9" x2="530.4" y2="811.9"/>
						<line class="st4" x1="294.6" y1="833.6" x2="530.4" y2="833.6"/>
						<line class="st4" x1="294.6" y1="855.3" x2="530.4" y2="855.3"/>
						<line class="st4" x1="294.6" y1="877" x2="530.4" y2="877"/>
					</g>
				</g>
				<polygon class="st4" points="500,700.3 500,911.5 276.3,911.5 				"/>
				<g>
					<defs>
						<polygon id="SVGID_8_" points="500,700.3 500,911.5 723.8,911.5 						"/>
					</defs>
					<clipPath id="SVGID_9_">
						<use xlink:href="#SVGID_8_"  style="overflow:visible;"/>
					</clipPath>
					<g class="st11">
						<line class="st4" x1="705.5" y1="725" x2="469.6" y2="725"/>
						<line class="st4" x1="705.5" y1="746.7" x2="469.6" y2="746.7"/>
						<line class="st4" x1="705.5" y1="768.5" x2="469.6" y2="768.5"/>
						<line class="st4" x1="705.5" y1="790.2" x2="469.6" y2="790.2"/>
						<line class="st4" x1="705.5" y1="811.9" x2="469.6" y2="811.9"/>
						<line class="st4" x1="705.5" y1="833.6" x2="469.6" y2="833.6"/>
						<line class="st4" x1="705.5" y1="855.3" x2="469.6" y2="855.3"/>
						<line class="st4" x1="705.5" y1="877" x2="469.6" y2="877"/>
					</g>
				</g>
				<polygon class="st4" points="500,700.3 500,911.5 723.8,911.5 				"/>
				<rect x="500" y="896.5" class="st12" width="223.3" height="30"/>
				<rect x="500" y="908.1" class="st6" width="223.3" height="6.8"/>
				<rect x="276.8" y="896.5" class="st13" width="223.3" height="30"/>
				<rect x="276.8" y="908.1" class="st12" width="223.3" height="6.8"/>
				<rect x="542.7" y="953.1" class="st8" width="44.6" height="44.6"/>
				<rect x="542.7" y="997.7" class="st8" width="44.6" height="44.6"/>
				<rect x="630.5" y="953.1" class="st8" width="44.6" height="44.6"/>
				<rect x="630.5" y="997.7" class="st8" width="44.6" height="44.6"/>
				<rect x="542.7" y="1082.4" class="st8" width="44.6" height="44.6"/>
				<rect x="542.7" y="1127" class="st8" width="44.6" height="44.6"/>
				<rect x="630.5" y="1082.4" class="st8" width="44.6" height="44.6"/>
				<rect x="630.5" y="1127" class="st8" width="44.6" height="44.6"/>
				<rect x="342.3" y="953.1" class="st14" width="44.6" height="44.6"/>
				<rect x="342.3" y="997.7" class="st14" width="44.6" height="44.6"/>
				<rect x="430.2" y="953.1" class="st14" width="44.6" height="44.6"/>
				<rect x="430.2" y="997.7" class="st14" width="44.6" height="44.6"/>
				<rect x="342.3" y="1082.4" class="st15" width="44.6" height="44.6"/>
				<rect x="342.3" y="1127" class="st8" width="44.6" height="44.6"/>
				<rect x="430.2" y="1082.4" class="st14" width="44.6" height="44.6"/>
				<rect x="430.2" y="1127" class="st14" width="44.6" height="44.6"/>
				<polyline class="st16" points="676.3,1512 302.4,897.4 302.4,1512 				"/>
				<rect x="807.8" y="959.9" class="st12" width="190" height="59.9"/>
				<rect x="813" y="965.1" class="st17" width="179.6" height="49.5"/>
				<rect x="846.5" y="973.1" class="st18" width="125.4" height="5.2"/>
				<rect x="822.3" y="986.1" class="st18" width="151.8" height="5.2"/>
				<rect x="836.4" y="999" class="st18" width="136.3" height="5.2"/>
				<rect x="822.4" y="1019.8" class="st12" width="6.6" height="21.2"/>
				<rect x="968.6" y="1019.8" class="st12" width="6.6" height="21.2"/>
				<rect x="801.3" y="1033.3" class="st6" width="191.3" height="7"/>
				<polygon class="st6" points="781.9,1032.2 760.7,1032.2 762.5,1040.3 780.1,1040.3 				"/>
				<rect x="760.4" y="1032.2" class="st12" width="21.8" height="1.9"/>
				<line class="st4" x1="771.3" y1="1001.6" x2="771.3" y2="1032.2"/>
				<path class="st19" d="M754,999c0,9.5,7.7,17.3,17.3,17.3c9.5,0,17.3-7.7,17.3-17.3c0-9.5-7.7-17.3-17.3-17.3c0,0,0,0,0,0
					C761.8,981.7,754,989.5,754,999C754,999,754,999,754,999z"/>
				<line class="st4" x1="771.3" y1="1026.4" x2="777" y2="1020.7"/>
				<rect x="861.3" y="1070.3" class="st6" width="197.6" height="441.7"/>
				<rect x="936.7" y="1390.7" class="st13" width="84.5" height="126.6"/>
				<rect x="942.5" y="1396.5" class="st8" width="72.9" height="115"/>
				<polygon class="st5" points="942.5,1458.3 1015.4,1396.5 942.5,1396.5 				"/>
				<rect x="861.3" y="1092.8" class="st5" width="182.2" height="30"/>
				<rect x="727.7" y="1040.3" class="st13" width="133.6" height="30"/>
				<rect x="861.3" y="1040.3" class="st8" width="197.6" height="30"/>
				<line class="st4" x1="1035.6" y1="1040.8" x2="1035.6" y2="1004"/>
				<circle class="st8" cx="1035.6" cy="1001.6" r="9.8"/>
				<rect x="861.3" y="1150" class="st5" width="182.2" height="30"/>
				<rect x="861.3" y="1207.9" class="st5" width="182.2" height="30"/>
				<rect x="861.3" y="1265.7" class="st5" width="182.2" height="30"/>
				<rect x="861.3" y="1323.6" class="st5" width="182.2" height="30"/>
				<rect x="727.7" y="1070.3" class="st7" width="133.6" height="441.7"/>
				<rect x="817.7" y="1092.8" class="st20" width="30" height="30"/>
				<rect x="778" y="1092.8" class="st6" width="30" height="30"/>
				<rect x="738.3" y="1092.8" class="st13" width="30" height="30"/>
				<rect x="817.7" y="1149.8" class="st6" width="30" height="30"/>
				<rect x="778" y="1149.8" class="st14" width="30" height="30"/>
				<rect x="738.3" y="1149.8" class="st5" width="30" height="30"/>
				<rect x="817.7" y="1206.6" class="st13" width="30" height="30"/>
				<rect x="817.7" y="1323.6" class="st13" width="30" height="30"/>
				<rect x="817.7" y="1263.5" class="st14" width="30" height="30"/>
				<rect x="778" y="1206.6" class="st20" width="30" height="30"/>
				<polygon class="st21" points="800.4,1512 847.8,1512 800.4,1273.7 				"/>
				<polygon class="st12" points="733.9,1273.7 266.1,1070.3 266.1,1512 733.9,1512 				"/>
				<polygon class="st13" points="295.2,1482.9 295.2,1114.6 704.9,1292.8 704.9,1482.9 				"/>
				<polygon class="st22" points="426.8,1171.9 295.2,1303.5 295.2,1247.9 388,1155 				"/>
				<polygon class="st22" points="638.8,1264.1 419.9,1482.9 364.4,1482.9 600.1,1247.2 				"/>
				<polygon class="st22" points="501.9,1204.5 295.2,1411.2 295.2,1389.1 486.5,1197.8 				"/>
				<polygon class="st22" points="530.2,1216.8 295.2,1451.9 295.2,1429.8 514.8,1210.1 				"/>
				<polygon class="st22" points="704.9,1292.8 704.9,1309.3 531.2,1482.9 509.1,1482.9 701,1291.1 				"/>
				<polygon class="st8" points="295.2,1114.6 295.2,1122.8 697.1,1297.5 697.1,1482.9 704.9,1482.9 704.9,1292.8 				"/>
				<g>
					<defs>
						<polygon id="SVGID_10_" points="295.2,1482.9 295.2,1114.6 704.9,1292.8 704.9,1482.9 						"/>
					</defs>
					<clipPath id="SVGID_11_">
						<use xlink:href="#SVGID_10_"  style="overflow:visible;"/>
					</clipPath>
					<g class="st23">
						<line class="st4" x1="288.4" y1="1102.1" x2="288.4" y2="1482.9"/>
						<line class="st4" x1="368.6" y1="1102.1" x2="368.6" y2="1482.9"/>
						<line class="st4" x1="457.7" y1="1102.1" x2="457.7" y2="1482.9"/>
						<line class="st4" x1="546.8" y1="1102.1" x2="546.8" y2="1482.9"/>
						<line class="st4" x1="635.9" y1="1102.1" x2="635.9" y2="1482.9"/>
						<line class="st4" x1="733.9" y1="1102.1" x2="733.9" y2="1482.9"/>
						<line class="st4" x1="731.2" y1="1056.8" x2="260.3" y2="1056.8"/>
						<line class="st4" x1="731.2" y1="1145.9" x2="260.3" y2="1145.9"/>
						<line class="st4" x1="731.2" y1="1191.4" x2="260.3" y2="1191.4"/>
						<line class="st4" x1="731.2" y1="1235" x2="260.3" y2="1235"/>
						<line class="st4" x1="731.2" y1="1279.5" x2="260.3" y2="1279.5"/>
						<line class="st4" x1="731.2" y1="1324.1" x2="260.3" y2="1324.1"/>
						<line class="st4" x1="731.2" y1="1413.2" x2="260.3" y2="1413.2"/>
						<line class="st4" x1="731.2" y1="1457.9" x2="260.3" y2="1457.9"/>
						<line class="st4" x1="731.2" y1="1368.8" x2="260.3" y2="1368.8"/>
					</g>
				</g>
				<polygon class="st4" points="295.2,1482.9 295.2,1114.6 704.9,1292.8 704.9,1482.9 				"/>
				<rect x="42.4" y="1070.3" class="st7" width="223.7" height="441.7"/>
				<rect x="71.4" y="1329.4" class="st14" width="165.6" height="153.5"/>
				<rect x="71.4" y="1099.4" class="st14" width="165.6" height="217"/>
				<polygon class="st24" points="213.2,1099.4 71.4,1241.2 71.4,1198.2 170.2,1099.4 				"/>
				<polygon class="st24" points="234.3,1329.4 80.7,1482.9 71.4,1482.9 71.4,1460.6 202.6,1329.4 				"/>
				<polygon class="st24" points="237.1,1233.6 237.1,1270.9 191.6,1316.4 154.3,1316.4 				"/>
				<polygon class="st24" points="237.1,1101.9 237.1,1184.6 105.3,1316.4 71.4,1316.4 71.4,1267.5 				"/>
				<polygon class="st24" points="237.1,1345.7 237.1,1428.4 182.5,1482.9 99.8,1482.9 				"/>
				<polygon class="st8" points="80.2,1108.1 237.1,1108.1 237.1,1099.4 71.4,1099.4 71.4,1316.3 80.2,1316.3 				"/>
				<polygon class="st8" points="80.2,1338.1 237.1,1338.1 237.1,1329.4 71.4,1329.4 71.4,1482.9 80.2,1482.9 				"/>
				<line class="st4" x1="71.4" y1="1145.9" x2="116" y2="1145.9"/>
				<line class="st4" x1="116" y1="1102.3" x2="116" y2="1146.8"/>
				<line class="st4" x1="71.4" y1="1190.4" x2="116" y2="1190.4"/>
				<line class="st4" x1="116" y1="1146.8" x2="116" y2="1191.4"/>
				<line class="st4" x1="71.4" y1="1235" x2="116" y2="1235"/>
				<line class="st4" x1="116" y1="1191.4" x2="116" y2="1236"/>
				<line class="st4" x1="71.4" y1="1279.5" x2="116" y2="1279.5"/>
				<line class="st4" x1="116" y1="1236" x2="116" y2="1280.5"/>
				<line class="st4" x1="116" y1="1280.5" x2="116" y2="1316.3"/>
				<line class="st4" x1="116" y1="1145.9" x2="160.5" y2="1145.9"/>
				<line class="st4" x1="160.5" y1="1102.3" x2="160.5" y2="1146.8"/>
				<line class="st4" x1="116" y1="1190.4" x2="160.5" y2="1190.4"/>
				<line class="st4" x1="160.5" y1="1146.8" x2="160.5" y2="1191.4"/>
				<line class="st4" x1="116" y1="1235" x2="160.5" y2="1235"/>
				<line class="st4" x1="160.5" y1="1191.4" x2="160.5" y2="1236"/>
				<line class="st4" x1="116" y1="1279.5" x2="160.5" y2="1279.5"/>
				<line class="st4" x1="160.5" y1="1236" x2="160.5" y2="1280.5"/>
				<line class="st4" x1="160.5" y1="1280.5" x2="160.5" y2="1316.3"/>
				<line class="st4" x1="160.5" y1="1145.9" x2="205.1" y2="1145.9"/>
				<line class="st4" x1="205.1" y1="1102.3" x2="205.1" y2="1146.8"/>
				<line class="st4" x1="160.5" y1="1190.4" x2="205.1" y2="1190.4"/>
				<line class="st4" x1="205.1" y1="1146.8" x2="205.1" y2="1191.4"/>
				<line class="st4" x1="160.5" y1="1235" x2="205.1" y2="1235"/>
				<line class="st4" x1="205.1" y1="1191.4" x2="205.1" y2="1236"/>
				<line class="st4" x1="160.5" y1="1279.5" x2="205.1" y2="1279.5"/>
				<line class="st4" x1="205.1" y1="1236" x2="205.1" y2="1280.5"/>
				<line class="st4" x1="205.1" y1="1280.5" x2="205.1" y2="1316.3"/>
				<line class="st4" x1="205.1" y1="1145.9" x2="237.1" y2="1145.9"/>
				<line class="st4" x1="205.1" y1="1190.4" x2="237.1" y2="1190.4"/>
				<line class="st4" x1="205.1" y1="1235" x2="237.1" y2="1235"/>
				<line class="st4" x1="205.1" y1="1279.5" x2="237.1" y2="1279.5"/>
				<line class="st4" x1="71.4" y1="1368.8" x2="116" y2="1368.8"/>
				<line class="st4" x1="116" y1="1329.4" x2="116" y2="1369.8"/>
				<line class="st4" x1="71.4" y1="1413.3" x2="116" y2="1413.3"/>
				<line class="st4" x1="116" y1="1369.8" x2="116" y2="1414.3"/>
				<line class="st4" x1="71.4" y1="1457.9" x2="116" y2="1457.9"/>
				<line class="st4" x1="116" y1="1414.3" x2="116" y2="1458.9"/>
				<line class="st4" x1="116" y1="1458.9" x2="116" y2="1482.9"/>
				<line class="st4" x1="116" y1="1368.8" x2="160.5" y2="1368.8"/>
				<line class="st4" x1="160.5" y1="1329.4" x2="160.5" y2="1369.8"/>
				<line class="st4" x1="116" y1="1413.3" x2="160.5" y2="1413.3"/>
				<line class="st4" x1="160.5" y1="1369.8" x2="160.5" y2="1414.3"/>
				<line class="st4" x1="116" y1="1457.9" x2="160.5" y2="1457.9"/>
				<line class="st4" x1="160.5" y1="1414.3" x2="160.5" y2="1458.9"/>
				<line class="st4" x1="160.5" y1="1458.9" x2="160.5" y2="1482.9"/>
				<line class="st4" x1="160.5" y1="1368.8" x2="205.1" y2="1368.8"/>
				<line class="st4" x1="205.1" y1="1329.4" x2="205.1" y2="1369.8"/>
				<line class="st4" x1="160.5" y1="1413.3" x2="205.1" y2="1413.3"/>
				<line class="st4" x1="205.1" y1="1369.8" x2="205.1" y2="1414.3"/>
				<line class="st4" x1="160.5" y1="1457.9" x2="205.1" y2="1457.9"/>
				<line class="st4" x1="205.1" y1="1414.3" x2="205.1" y2="1458.9"/>
				<line class="st4" x1="205.1" y1="1458.9" x2="205.1" y2="1482.9"/>
				<line class="st4" x1="205.1" y1="1368.8" x2="237.1" y2="1368.8"/>
				<line class="st4" x1="205.1" y1="1413.3" x2="237.1" y2="1413.3"/>
				<line class="st4" x1="205.1" y1="1457.9" x2="237.1" y2="1457.9"/>
				<rect x="133.4" y="1032.5" class="st12" width="114.8" height="37.8"/>
				<rect x="96.9" y="1032.5" class="st17" width="114.8" height="37.8"/>
				<circle class="st12" cx="123.8" cy="1052.9" r="9.4"/>
				<circle class="st12" cx="179.7" cy="1052.9" r="9.4"/>
			</g>
		</g>
		<path class="st25" d="M999.2,925.9c0,21.1,0,39.6-16.4,49.8c-10.2,11.2-73.6,11.2-83.8,0c-16.4-10.3-16.4-28.7-16.4-49.8
			c0-2.9,1.2-36.7,1.7-37.9c2.2-5.9,4.7-18.1,12.7-16.9c29.1,4.5,58.7,4.5,87.9,0c8-1.2,10.5,11,12.7,16.9
			C997.9,889.2,999.2,923,999.2,925.9L999.2,925.9z"/>
		<path class="st26" d="M981.6,916.1c2.9,0,5.3-2.3,5.3-5.2s-2.3-5.3-5.2-5.3c-2.9,0-5.3,2.3-5.3,5.2c0,0,0,0,0,0.1
			C976.4,913.7,978.7,916.1,981.6,916.1z"/>
		<path class="st26" d="M987.4,932.9c1.6,0,2.8-1.2,2.9-2.8c0-1.6-1.2-2.8-2.8-2.9c-1.6,0-2.8,1.2-2.9,2.8c0,0,0,0,0,0.1
			C984.7,931.6,985.9,932.9,987.4,932.9z"/>
		<path class="st26" d="M984.7,946.4c1,0,1.8-0.8,1.8-1.8c0-1-0.8-1.8-1.7-1.8c0,0,0,0,0,0c-1,0-1.8,0.8-1.8,1.8
			C982.9,945.6,983.7,946.4,984.7,946.4z"/>
		<path class="st26" d="M901.8,910.9c2.1,0,3.9-1.7,3.9-3.8c0-2.1-1.7-3.9-3.8-3.9c-2.1,0-3.9,1.7-3.9,3.8c0,0,0,0,0,0
			C897.9,909.2,899.7,910.9,901.8,910.9z"/>
		<path class="st26" d="M892.6,918.1c1.3,0,2.4-1,2.4-2.3c0,0,0,0,0,0c-0.1-1.3-1.2-2.3-2.6-2.2c-1.2,0.1-2.2,1-2.2,2.2
			C890.2,917,891.2,918.1,892.6,918.1C892.6,918.1,892.6,918.1,892.6,918.1z"/>
		<path class="st26" d="M893.1,947.7c1,0,1.9-0.8,1.9-1.9c0,0,0,0,0,0c-0.1-1.1-1-1.8-2.1-1.8c-0.9,0.1-1.7,0.8-1.8,1.8
			C891.2,946.9,892,947.7,893.1,947.7z"/>
		<path class="st26" d="M896.2,933.7c2,0,3.6-1.6,3.6-3.6c0-2-1.6-3.6-3.6-3.6c-2,0-3.6,1.6-3.6,3.6c0,0,0,0,0,0
			C892.6,932.1,894.2,933.7,896.2,933.7z"/>
		<path class="st27" d="M999.2,925.9c0,21.1,0,39.6-16.4,49.8c-10.2,11.2-73.6,11.2-83.8,0c-0.3-0.6-0.3-1.2,0.8-1.3
			c24.7,5.3,64.2,10.1,81.2-6.6c16.8-16.4,11.2-62.4,10.2-65.2c-2.1-5.8-47-5.1-47-5.1l-2.3-23c14.4-0.1,28.8-1.2,43-3.4
			c8-1.2,10.5,11,12.7,16.9C997.9,889.1,999.2,923,999.2,925.9L999.2,925.9z"/>
		<path class="st28" d="M898.9,975.8c-16.4-10.3-16.4-28.7-16.4-49.8c0-2.8,1.1-35.5,1.6-37.8l12.9,6c-2.3,0.4-7,1.1-7,2.8
			c-3,43,0,63.3,2.1,66.8C892.9,965.2,894.5,970.4,898.9,975.8L898.9,975.8z"/>
		<path class="st29" d="M884.1,888.9c0-0.3,0.1-0.6,0.1-0.9c2.2-5.9,4.7-18.1,12.7-16.9c29.1,4.5,58.7,4.5,87.9,0
			c8-1.2,10.5,11,12.7,16.9c0.1,0.4,0.1,0.8,0.1,1.1C979.6,900.9,893.9,900,884.1,888.9L884.1,888.9z"/>
		<path class="st30" d="M884.1,888.9c0-0.3,0.1-0.6,0.1-0.9c2.2-5.9,4.7-18.1,12.7-16.9c4,0.6,7.9,1.1,11.9,1.6
			c-12.2-0.1-14.3-0.7-18.4,10.1c-3.6,9.5,2.1,8.6,6.7,11.3C890.6,892.8,885.9,891.1,884.1,888.9L884.1,888.9z"/>
		<path class="st31" d="M1000.6,925.9c0,10.6,0,20.6-2.1,29.3c-2.1,8.8-6.3,16.3-14.8,21.6c-0.1,0.2-0.3,0.4-0.5,0.5
			c-6.1,5.5-24.2,8.2-42.3,8.2l0,0c-18.1,0-36.3-2.8-42.3-8.2c-0.2-0.2-0.4-0.3-0.5-0.5c-8.5-5.3-12.7-12.8-14.8-21.6
			c-2.1-8.8-2.1-18.7-2.1-29.3c0-1.7,0.4-19.4,0.9-27.4c0.3-5.6,0.7-10.4,0.9-11c0.4-0.9,0.7-1.9,1-3c2.2-6.7,5.2-16,13.3-14.8
			c29,4.5,58.5,4.5,87.4,0c8-1.1,11.1,8.1,13.2,14.8c0.4,1.1,0.7,2.1,1,3l0,0c0.5,3.7,0.8,7.3,0.9,11
			C1000.2,906.5,1000.6,924.2,1000.6,925.9L1000.6,925.9z M995.6,954.6c2-8.3,2-18.1,2-28.6c0-1.7-0.4-19.4-0.9-27.2
			c-0.3-5.4-0.6-9.8-0.7-10.2l0,0c-0.3-0.9-0.7-2-1.1-3.1c-1.9-5.7-4.4-13.7-10-12.8c-29.3,4.6-59,4.6-88.3,0
			c-5.5-0.8-8.1,7.1-10,12.8c-0.4,1.1-0.7,2.3-1,3.1c-0.1,0.4-0.4,4.8-0.8,10.2c-0.4,7.8-0.8,25.5-0.8,27.2c0,10.5,0,20.3,2,28.6
			c2,8.3,5.9,15,13.7,19.9l0.3,0.3c0.1,0.2,0.3,0.3,0.4,0.4c5.5,5,22.8,7.5,40.3,7.5l0,0c17.5,0,34.8-2.5,40.3-7.5
			c0.2-0.1,0.3-0.3,0.5-0.4l0.3-0.3C989.7,969.6,993.6,962.8,995.6,954.6L995.6,954.6z"/>
		<path class="st32" d="M876.8,899.8c-3.8,0-6.9-3.1-6.9-6.9c0-3.8,3.1-6.9,6.9-6.9h126.5c3.8,0,6.9,3.1,6.9,6.9
			c0,3.8-3.1,6.9-6.9,6.9l0,0H876.8z"/>
		<path class="st33" d="M876.8,888.8h126.5c2.3,0,4.1,1.8,4.1,4.1v0c0,2.3-1.8,4.1-4.1,4.1H876.8c-2.3,0-4.1-1.8-4.1-4.1v0
			C872.8,890.6,874.6,888.8,876.8,888.8z"/>
		<path class="st32" d="M940.9,902.1c5.1,0,9.2-4.1,9.2-9.2s-4.1-9.2-9.2-9.2s-9.2,4.1-9.2,9.2c0,0,0,0,0,0
			C931.7,897.9,935.8,902.1,940.9,902.1z"/>
		<path class="st34" d="M944.6,887.1c2.6,2,3.3,5.7,1.7,8.6c-1.7,3.4-5.5,4.9-8.5,3.4l0.5-0.5c1.4-1.5,2.5-3.4,3-5.4
			C942.1,890.9,943.2,888.9,944.6,887.1L944.6,887.1z M936.8,898.4c-2.4-2.1-3-5.6-1.4-8.4c1.4-3.2,5.1-4.7,8.3-3.4
			c-1.5,1.8-2.6,3.9-3.3,6.1c-0.5,1.9-1.5,3.7-2.8,5.1C937.2,898,937,898.2,936.8,898.4L936.8,898.4z"/>
		<path class="st35" d="M932.2,1027.3h-14.5c1-4,5-6.4,9-5.5C929.5,1022.5,931.6,1024.6,932.2,1027.3z"/>
		<path class="st35" d="M964.9,1027.3h-14.4c1-4,5-6.4,9-5.5C962.2,1022.5,964.3,1024.6,964.9,1027.3L964.9,1027.3z"/>
		<path class="st36" d="M972.5,1008.8c-0.1,0.1-0.3,0.1-0.5,0c-0.4-0.2-0.8-0.5-1.3-0.7c-4-2.7-9.3-2.7-13.3,0
			c-1.1,0.8-2.3,1.3-3.7,1.5c-0.4,0-0.7,0.1-1.1,0.1c-1.5,0.1-3-0.3-4.2-1.1l-0.5-0.3c-4-2.8-9.3-2.8-13.3,0l-0.5,0.3
			c-1.3,0.8-2.7,1.2-4.2,1.1c-0.4,0-0.7,0-1.1-0.1c-1.3-0.2-2.6-0.7-3.7-1.5c-4-2.7-9.3-2.7-13.3,0c-0.4,0.3-0.8,0.5-1.3,0.7
			c-0.1,0.1-0.3,0.1-0.5,0c-0.2-0.1-0.2-0.3-0.1-0.5l8.5-25.8l0.5-1.6c5.2,2.9,10.9,4.8,16.8,5.5c0.2,0,0.4,0.1,0.7,0.1l0,0
			c1.6,0.2,3.2,0.3,4.8,0.3c1.6,0,3.2-0.1,4.9-0.3h0.6l0,0c5.9-0.7,11.6-2.6,16.8-5.6l0.7,2.2l8.3,25.2
			C972.7,1008.5,972.6,1008.6,972.5,1008.8z"/>
		<path class="st31" d="M905.4,968.1c-1.6-1.5-4.8-8.9-4.8-8.9c-1.5-4.2-2.3-8.7-2.3-13.2c0-22.4,19.3-40.7,43.1-40.7
			c23.8,0,43.1,18.3,43.1,40.7c0,4.5-0.8,9-2.3,13.2c-1.5,4.2-4.3,9.3-4.1,9.5s0.6,1.5,0.6,1.5c0.4,1,0.6,2.1,0.6,3.2
			c0,2.3-0.9,4.5-2.6,6.1c0.9,2.2,2.4,6.5,0.7,10c-1.2,2.2-3.3,3.8-5.7,4.4l4.4,13.4c0.5,1.5,0.1,3.2-1.1,4.3
			c-1.2,1.1-3,1.3-4.4,0.5c-0.6-0.3-1-0.6-1.5-0.9c-2.8-2-6.7-2-9.5,0c-0.4,0.2-0.7,0.5-1.1,0.7l1.3,6.6c5.3,0.9,9.1,5.5,9.1,10.8
			c0,1-0.8,1.8-1.8,1.8c0,0,0,0,0,0h-18.5c-1,0-1.8-0.8-1.8-1.8l0,0c0-3,1.3-5.9,3.5-8l-1.8-8.7c-0.6-0.3-1.2-0.6-1.7-0.9l-0.6-0.4
			c-2.9-2-6.7-2-9.5,0l-0.6,0.3c-0.6,0.4-1.1,0.7-1.7,0.9l-1.8,8.7c2.2,2.1,3.5,5,3.5,8c0,1-0.8,1.8-1.8,1.8h-18.4
			c-1,0-1.8-0.8-1.8-1.8c0-5.3,3.9-9.9,9.1-10.8l1.3-6.6c-0.4-0.2-0.8-0.5-1.1-0.7c-2.8-2-6.7-2-9.5,0c-0.5,0.3-1,0.6-1.5,0.9
			c-2,1-4.4,0.2-5.4-1.7c-0.5-1-0.6-2.1-0.2-3.1l4.4-13.4c-2.5-0.6-4.5-2.2-5.7-4.4c-1.7-3.6-0.3-7.9,0.7-10c-2.5-2.4-3.3-6.1-2-9.3
			L905.4,968.1z M974.8,965.8c4-5.8,6.1-12.7,6.1-19.8c0-20.5-17.7-37.1-39.6-37.1c-21.8,0-39.6,16.7-39.6,37.1
			c0,7.1,2.1,14,6.1,19.8c4.1-2.2,9.3-0.7,11.5,3.4c1.3,2.4,1.4,5.3,0.2,7.8c5.1,3.1,10.8,5.1,16.7,5.9h0.5c3,0.3,6,0.3,9,0h0.6
			c5.9-0.7,11.6-2.7,16.7-5.8c-0.6-1.2-0.9-2.4-0.9-3.7c0-4.7,3.8-8.5,8.5-8.5C972.2,964.8,973.6,965.1,974.8,965.8L974.8,965.8z
			 M975.7,973.3c0-2.7-2.2-4.9-4.9-4.9c-2.7,0-4.9,2.2-4.9,4.9c0,2.7,2.2,4.9,4.9,4.9h0C973.5,978.2,975.7,976,975.7,973.3
			L975.7,973.3z M974.1,987.9c1-2.1,0.1-4.9-0.6-6.6c-2,0.7-4.2,0.6-6.1-0.2l3.1,9.4C972,990.2,973.4,989.2,974.1,987.9L974.1,987.9
			z M972.5,1008.8c0.1-0.1,0.2-0.3,0.1-0.5l-9.1-27.4c-5.2,2.9-10.9,4.8-16.8,5.6l0,0h-0.6c-1.6,0.2-3.2,0.3-4.9,0.3
			c-1.6,0-3.2-0.1-4.8-0.3l0,0c-0.2,0-0.4,0-0.7-0.1c-5.9-0.7-11.6-2.6-16.8-5.5l-9.1,27.4c-0.1,0.2,0,0.4,0.1,0.5
			c0.1,0.1,0.3,0.1,0.5,0c0.4-0.2,0.9-0.5,1.3-0.7c4-2.7,9.3-2.7,13.3,0c1.1,0.8,2.4,1.3,3.7,1.5c0.4,0,0.7,0.1,1.1,0.1
			c1.5,0.1,3-0.3,4.2-1.1l0.5-0.3c4-2.8,9.3-2.8,13.3,0l0.5,0.3c1.3,0.8,2.7,1.2,4.2,1.1c0.4,0,0.7,0,1.1-0.1
			c1.3-0.2,2.6-0.7,3.7-1.5c4-2.7,9.3-2.7,13.3,0c0.4,0.3,0.8,0.5,1.3,0.7C972.3,1008.8,972.4,1008.8,972.5,1008.8z M950.5,1027.4
			h14.4c-1-4-5-6.4-9-5.5C953.2,1022.5,951.1,1024.7,950.5,1027.4L950.5,1027.4z M956,1018.2l-1.1-5.3c-0.2,0-0.4,0.1-0.7,0.1
			c-0.5,0.1-1,0.1-1.5,0.1h-0.5l1.2,5.9C954.2,1018.6,955.1,1018.4,956,1018.2L956,1018.2z M917.7,1027.4h14.5c-1-4-5-6.4-9-5.5
			C920.5,1022.6,918.4,1024.7,917.7,1027.4z M929.3,1019l1.2-5.9h-0.5c-0.5,0-1,0-1.5-0.1c-0.2,0-0.5-0.1-0.7-0.1l-1.1,5.3
			C927.5,1018.4,928.4,1018.6,929.3,1019L929.3,1019z M916.9,973.3c0-2.7-2.2-4.9-4.9-4.9c-2.7,0-4.9,2.2-4.9,4.9
			c0,2.7,2.2,4.9,4.9,4.9c0,0,0,0,0,0C914.7,978.2,916.9,976,916.9,973.3C916.9,973.3,916.9,973.3,916.9,973.3L916.9,973.3z
			 M912.1,990.5l3.1-9.4c-1,0.4-2.2,0.7-3.3,0.7c-1,0-1.9-0.2-2.8-0.5c-0.8,1.9-1.5,4.7-0.5,6.6
			C909.3,989.2,910.6,990.2,912.1,990.5L912.1,990.5z"/>
		<path class="st37" d="M941.3,908.9c-21.8,0-39.6,16.7-39.6,37.1c0,4.8,1,9.5,2.9,13.9c0.9,2.1,2,4,3.2,5.9c0.6-0.3,1.3-0.6,2-0.8
			c0.7-0.2,1.4-0.3,2-0.3c4.4,0,8.1,3.4,8.4,7.8c0,0.2,0,0.5,0,0.7c0,1.3-0.3,2.5-0.9,3.7c5.1,3.1,10.8,5.1,16.7,5.9h0.5
			c3,0.3,6,0.3,9,0h0.6c5.9-0.7,11.6-2.7,16.7-5.8c-0.6-1.2-0.9-2.4-0.9-3.7c0-0.2,0-0.4,0-0.6c0.3-4.7,4.4-8.2,9.1-7.8
			c0.6,0,1.1,0.1,1.7,0.3c0.6,0.2,1.2,0.4,1.7,0.7c1.1-1.6,2-3.3,2.8-5c2.1-4.6,3.3-9.7,3.3-14.8
			C980.9,925.6,963.1,908.9,941.3,908.9z M933.1,913.3c1,0,1.8,0.8,1.8,1.8c0,0,0,0,0,0c0,4.9,3.5,9.1,8.4,10
			c-2-3.5-0.8-8.1,2.7-10.1c1.1-0.6,2.4-1,3.7-1c1,0,1.8,0.8,1.8,1.8c0,1-0.8,1.8-1.8,1.8c-2.1,0-3.8,1.7-3.8,3.8
			c0,1.6,1,3.1,2.5,3.6c0.7,0.3,1.2,1,1.1,1.8c0,0.8-0.6,1.4-1.3,1.6c-1.1,0.3-2.1,0.4-3.2,0.4c-7.5,0-13.6-6.2-13.6-13.7
			C931.3,914.1,932.1,913.3,933.1,913.3C933,913.3,933.1,913.3,933.1,913.3z M932.3,953.8c1,0,1.8,0.8,1.8,1.8c0,0,0,0,0,0
			c0,1.5,1.2,2.7,2.7,2.7c1.5,0,2.7-1.2,2.7-2.7c0.1-1,0.9-1.7,1.9-1.6c0.9,0.1,1.6,0.8,1.6,1.6c0.1,1.5,1.4,2.7,2.9,2.6
			c1.4-0.1,2.5-1.2,2.6-2.6c0.1-1,0.9-1.7,1.9-1.6c0.9,0.1,1.6,0.8,1.6,1.6c-5.1,2-10.2,4.1-15.3,6.3c-3.5,0-6.3-2.8-6.3-6.3
			C930.5,954.6,931.3,953.8,932.3,953.8C932.3,953.8,932.3,953.8,932.3,953.8z M919,954.1c-0.5-0.8-0.2-1.9,0.6-2.4c0,0,0,0,0,0
			l5.4-3.2l-5.4-3.2c-0.8-0.5-1.1-1.6-0.6-2.4s1.6-1.1,2.4-0.6l8,4.7c0.5,0.3,0.9,0.9,0.9,1.5c0,0.6-0.3,1.2-0.9,1.5l-8,4.7
			c-0.3,0.2-0.6,0.2-0.9,0.2C919.9,955,919.3,954.7,919,954.1L919,954.1z M963,951.7c0.8,0.5,1.1,1.6,0.6,2.4
			c-0.3,0.5-0.9,0.9-1.5,0.9c-0.3,0-0.6-0.1-0.9-0.2l-8-4.7c-0.5-0.3-0.9-0.9-0.9-1.5c0-0.6,0.3-1.2,0.9-1.5l8-4.7
			c0.8-0.6,1.9-0.4,2.5,0.4c0.6,0.8,0.4,1.9-0.4,2.5c-0.1,0.1-0.2,0.1-0.2,0.1l-5.4,3.2L963,951.7z"/>
		<path class="st38" d="M920.4,975.1c0-0.2,0-0.4-0.1-0.6c-0.1,0.8-0.4,1.7-0.7,2.4l0.7,0.4c0.1-0.5,0.2-1,0.2-1.6
			C920.4,975.6,920.4,975.3,920.4,975.1z"/>
		<path class="st38" d="M941.3,911.4c21.4,0,38.8,16,39.5,35.8c0-0.4,0-0.8,0-1.3c0-20.5-17.7-37.1-39.6-37.1
			c-21.8,0-39.6,16.7-39.6,37.1c0,0.4,0,0.9,0,1.3C902.5,927.4,920,911.4,941.3,911.4z"/>
		<path class="st38" d="M962.3,975.2c0,0.2,0,0.4,0,0.6c0,0.5,0.1,1,0.2,1.6l0.7-0.4c-0.4-0.8-0.6-1.6-0.8-2.5
			C962.3,974.7,962.3,975,962.3,975.2z"/>
		<path class="st37" d="M970.8,968.3c2.7,0,4.9,2.2,4.9,4.9c0,2.7-2.2,4.9-4.9,4.9s-4.9-2.2-4.9-4.9l0,0
			C965.8,970.5,968,968.3,970.8,968.3z"/>
		<path class="st36" d="M973.6,981.3c0.7,1.7,1.6,4.6,0.6,6.6c-0.8,1.3-2.1,2.3-3.6,2.6l-3.1-9.4C969.4,981.9,971.6,982,973.6,981.3
			L973.6,981.3z"/>
		<path class="st31" d="M963.7,942.9c0.5,0.8,0.2,1.9-0.6,2.4c0,0,0,0,0,0l-5.4,3.2l5.4,3.2c0.8,0.5,1.1,1.6,0.6,2.4
			c-0.3,0.5-0.9,0.9-1.5,0.9c-0.3,0-0.6-0.1-0.9-0.2l-8-4.7c-0.5-0.3-0.9-0.9-0.9-1.5c0-0.6,0.3-1.2,0.9-1.5l8-4.7
			C962.1,941.8,963.2,942.1,963.7,942.9C963.7,942.9,963.7,942.9,963.7,942.9z"/>
		<path class="st37" d="M956,1018.2c-0.9,0.1-1.7,0.4-2.6,0.7l-0.8-4.1l-0.4-1.8h0.5c0.5,0,1,0,1.5-0.1c0.2,0,0.5-0.1,0.7-0.1
			l0.3,1.6L956,1018.2z"/>
		<path class="st31" d="M950.4,953.8c1,0,1.8,0.8,1.8,1.7c0,0,0,0,0,0c-5.1,2-10.2,4.1-15.3,6.3c-3.5,0-6.3-2.8-6.3-6.3
			c0.1-1,0.9-1.7,1.9-1.6c0.9,0.1,1.6,0.8,1.6,1.6c0,1.5,1.2,2.7,2.7,2.7c1.5,0,2.7-1.2,2.7-2.7c0.1-1,0.9-1.7,1.9-1.6
			c0.9,0.1,1.6,0.8,1.6,1.6c0.1,1.5,1.4,2.7,2.9,2.6c1.4-0.1,2.5-1.2,2.6-2.6C948.6,954.6,949.4,953.8,950.4,953.8
			C950.4,953.8,950.4,953.8,950.4,953.8z"/>
		<path class="st31" d="M949.6,914c1,0,1.8,0.8,1.8,1.8c0,1-0.8,1.8-1.8,1.8c-2.1,0-3.8,1.7-3.8,3.8c0,1.6,1,3.1,2.5,3.6
			c0.7,0.3,1.2,1,1.1,1.8c0,0.8-0.6,1.4-1.3,1.6c-1.1,0.3-2.1,0.4-3.2,0.4c-7.5,0-13.6-6.2-13.6-13.7c0.1-1,0.9-1.7,1.9-1.6
			c0.9,0.1,1.6,0.8,1.6,1.6c0,4.9,3.5,9.1,8.4,10c-2-3.5-0.8-8.1,2.7-10.1C947,914.3,948.3,913.9,949.6,914L949.6,914z"/>
		<path class="st37" d="M930.5,1013.1l-0.4,1.8l-0.8,4.1c-0.8-0.3-1.7-0.6-2.6-0.7l0.8-3.7l0.3-1.6c0.2,0,0.4,0.1,0.7,0.1
			c0.5,0.1,1,0.1,1.5,0.1L930.5,1013.1z"/>
		<path class="st31" d="M929.5,947c0.5,0.3,0.9,0.9,0.9,1.5c0,0.6-0.3,1.2-0.9,1.5l-8,4.7c-0.3,0.2-0.6,0.2-0.9,0.2
			c-1,0-1.8-0.8-1.8-1.8c0-0.6,0.3-1.2,0.9-1.5l5.4-3.2l-5.4-3.2c-0.8-0.5-1.1-1.6-0.6-2.4c0.5-0.8,1.6-1.1,2.4-0.6L929.5,947z"/>
		<path class="st37" d="M911.9,968.3c2.7,0,4.9,2.2,4.9,4.9c0,2.7-2.2,4.9-4.9,4.9c-2.7,0-4.9-2.2-4.9-4.9l0,0
			C907,970.5,909.2,968.3,911.9,968.3z"/>
		<path class="st36" d="M970.8,975.6c-2.2,0-4.2-1.5-4.8-3.7c-0.1,0.4-0.2,0.8-0.2,1.3c0,2.7,2.2,4.9,4.9,4.9s4.9-2.2,4.9-4.9
			c0-0.4-0.1-0.9-0.2-1.3C974.9,974.1,973,975.6,970.8,975.6z"/>
		<path class="st36" d="M911.9,975.6c-2.2,0-4.2-1.5-4.8-3.7c-0.1,0.4-0.2,0.8-0.2,1.3c-0.1,2.7,2,5,4.7,5.2c2.7,0.1,5-2,5.2-4.7
			c0-0.2,0-0.3,0-0.5c0-0.4-0.1-0.9-0.2-1.3C916.1,974.1,914.2,975.6,911.9,975.6z"/>
		<path class="st36" d="M915.2,981.1l-3.1,9.4c-1.5-0.3-2.8-1.2-3.6-2.5c-0.9-2-0.2-4.8,0.5-6.6c0.9,0.3,1.9,0.5,2.8,0.5
			C913.1,981.7,914.2,981.5,915.2,981.1z"/>
		<circle class="st36" cx="914" cy="959.9" r="4.9"/>
		<circle class="st36" cx="968.7" cy="960" r="4.9"/>
		<path class="st36" d="M909.9,965c-0.7,0.2-1.4,0.4-2,0.8c-1.3-1.9-2.3-3.8-3.2-5.9C906.3,961.7,908,963.4,909.9,965z"/>
		<path class="st36" d="M962.3,973.3c0,1.3,0.3,2.6,0.9,3.7c-5.1,3.1-10.8,5.1-16.7,5.8h-0.6c-3,0.3-6,0.3-9,0h-0.5
			c-5.9-0.7-11.6-2.7-16.7-5.9c0.6-1.2,0.9-2.4,0.9-3.7c0-0.2,0-0.5,0-0.7c6.4,3.7,13.6,5.6,21,5.7c7.3-0.1,14.6-2,21-5.6
			C962.3,972.8,962.3,973,962.3,973.3z"/>
		<path class="st36" d="M973,965.1c1.6-1.4,3.1-2.9,4.6-4.3c-0.8,1.8-1.8,3.4-2.8,5C974.2,965.5,973.6,965.3,973,965.1z"/>
		<path class="st39" d="M964.3,983c-6.7,4.7-14.8,7.3-23,7.4c-8.3,0-16.4-2.8-22.8-8l0.5-1.6c5.2,2.9,10.9,4.8,16.8,5.5
			c0.2,0,0.4,0.1,0.7,0.1l0,0c1.6,0.2,3.2,0.3,4.8,0.3c1.6,0,3.2-0.1,4.9-0.3h0.6l0,0c5.9-0.7,11.6-2.6,16.8-5.6L964.3,983z"/>
		<path class="st36" d="M929.9,1013.1h0.5l-0.4,1.8h-0.2c-0.4,0-0.7,0-1.1,0c-0.5,0-0.9-0.1-1.4-0.3l0.3-1.6c0.2,0,0.4,0.1,0.7,0.1
			C929,1013.1,929.4,1013.1,929.9,1013.1z"/>
		<path class="st36" d="M955.2,1014.5c-0.5,0.2-0.9,0.3-1.4,0.3c-0.4,0-0.7,0-1.1,0h-0.2l-0.4-1.8h0.5c0.5,0,1,0,1.5-0.1
			c0.2,0,0.5-0.1,0.7-0.1L955.2,1014.5z"/>
	</g>
</g>
</svg>
