<?xml version="1.0" encoding="utf-8"?>
<!-- Generator: Adobe Illustrator 25.3.0, SVG Export Plug-In . SVG Version: 6.00 Build 0)  -->
<svg version="1.1" id="レイヤー_1" xmlns="http://www.w3.org/2000/svg" xmlns:xlink="http://www.w3.org/1999/xlink" x="0px"
	 y="0px" viewBox="0 0 391.5 229.9" style="enable-background:new 0 0 391.5 229.9;" xml:space="preserve">
<style type="text/css">
	.st0{fill:#FFFDFE;stroke:#3C0000;stroke-width:1.5;stroke-miterlimit:10;}
	.st1{fill:#B86A39;}
	.st2{fill:#3C0000;}
	.st3{fill:#FFFFFF;}
</style>
<path class="st0" d="M25.5,0.8h340.1c13.9,0,25.1,11.3,25.1,25.1v156.6c0,13.9-11.3,25.1-25.1,25.1H25.5
	c-13.9,0-25.1-11.3-25.1-25.1V25.9C0.4,12,11.6,0.8,25.5,0.8z"/>
<path class="st1" d="M35,9.5h321.1c13.9,0,25.1,11.3,25.1,25.2v137.5c0,13.9-11.3,25.1-25.1,25.1H35c-13.9,0-25.1-11.3-25.1-25.1
	V34.7C9.9,20.8,21.1,9.5,35,9.5z"/>
<polygon class="st2" points="195.2,229.9 208.1,207.6 182.3,207.6 "/>
<g>
	<path class="st3" d="M109.7,86c4.3,3.7,8.8,7.8,13.6,12.3c0.7,0.7,1.1,1.5,1.1,2.5c0,1-0.3,1.8-1,2.6l-3.2,3.2
		c-0.7,0.7-1.6,1.1-2.6,1.1c-1,0-1.9-0.3-2.6-1c-4.3-4-8.8-8.1-13.4-12.3c-0.3-0.3-0.6-0.3-0.9-0.1c-6.1,5.4-12.7,9.8-19.8,13.3
		c-0.9,0.4-1.9,0.5-2.9,0.2c-1-0.3-1.7-0.9-2.2-1.8l-2-3.6c-0.5-0.9-0.5-1.8-0.2-2.7c0.3-0.9,0.9-1.6,1.8-2.1
		c13.3-6.8,23.5-16.2,30.7-28.1c0.1-0.1,0.1-0.2,0-0.3c-0.1-0.1-0.2-0.2-0.3-0.2H81.6c-1,0-1.8-0.4-2.6-1.1
		c-0.7-0.7-1.1-1.6-1.1-2.6v-3.9c0-1,0.4-1.8,1.1-2.6c0.7-0.7,1.6-1.1,2.6-1.1h35.1c1,0,1.8,0.4,2.6,1.1c0.7,0.7,1.1,1.6,1.1,2.6
		v3.9c0,2.6-0.6,4.9-1.7,6.9c-2.6,4.7-5.6,9-8.9,13C109.5,85.5,109.5,85.7,109.7,86z"/>
	<path class="st3" d="M183.6,60.4c1,0,1.8,0.4,2.6,1.1c0.7,0.7,1.1,1.6,1.1,2.6c0,14.8-3.2,25.8-9.6,33
		c-6.3,7.2-16.5,11.5-30.4,13.1c-1,0.1-1.9-0.1-2.8-0.8c-0.8-0.6-1.3-1.5-1.5-2.5l-0.6-3.7c-0.2-1,0-1.9,0.6-2.7
		c0.6-0.8,1.4-1.3,2.3-1.4c8.7-1.2,15.2-3.4,19.4-6.5c0.3-0.2,0.2-0.4-0.1-0.6c-3.6-1.8-6.8-3.4-9.6-4.7c-0.9-0.4-1.5-1.1-1.8-2.1
		c-0.3-0.9-0.2-1.8,0.2-2.7l2.3-4.2c0.5-0.9,1.2-1.5,2.2-1.8c1-0.3,1.9-0.3,2.9,0.2c4.1,1.9,7.6,3.7,10.7,5.2
		c0.3,0.2,0.6,0.1,0.7-0.3c0.9-3,1.6-6.2,1.9-9.8c0-0.4-0.2-0.6-0.4-0.6h-17.5c-0.4,0-0.6,0.2-0.8,0.5c-2.3,5.1-5.5,9.9-9.8,14.5
		c-0.7,0.8-1.5,1.2-2.6,1.2c-1,0-1.9-0.3-2.7-1l-3-2.5c-0.7-0.6-1.1-1.5-1.2-2.5c0-1,0.3-1.9,0.9-2.7c5.1-6.1,8.6-13,10.4-20.7
		c0.2-1,0.7-1.9,1.5-2.5c0.8-0.6,1.7-0.9,2.8-0.9l4.2,0.3c1,0.1,1.9,0.5,2.5,1.2c0.6,0.7,0.9,1.6,0.7,2.5c0,0.1-0.1,0.3-0.1,0.5
		c0,0.2-0.1,0.4-0.1,0.5c-0.1,0.4,0.1,0.6,0.4,0.6H183.6z"/>
	<path class="st3" d="M250.4,76.8c1,0,1.8,0.4,2.6,1.1c0.7,0.7,1.1,1.6,1.1,2.6v4.9c0,1-0.4,1.8-1.1,2.6c-0.7,0.7-1.6,1.1-2.6,1.1
		h-46.6c-1,0-1.8-0.4-2.6-1.1c-0.7-0.7-1.1-1.6-1.1-2.6v-4.9c0-1,0.4-1.8,1.1-2.6c0.7-0.7,1.6-1.1,2.6-1.1H250.4z"/>
	<path class="st3" d="M315.5,82.3c0.9,0.3,1.6,0.9,2.1,1.8c0.4,0.9,0.5,1.9,0.2,2.9l-1.5,4.6c-0.3,0.9-0.9,1.6-1.8,2.1
		c-0.9,0.4-1.8,0.5-2.8,0.2c-8.6-3-17.4-5.7-26.3-8c-0.1,0-0.2,0-0.3,0.1c-0.1,0.1-0.1,0.2-0.1,0.4v19.8c0,1-0.4,1.8-1.1,2.6
		c-0.7,0.7-1.6,1.1-2.6,1.1h-5.5c-1,0-1.8-0.4-2.6-1.1c-0.7-0.7-1.1-1.6-1.1-2.6V59.5c0-1,0.4-1.8,1.1-2.6c0.7-0.7,1.6-1.1,2.6-1.1
		h5.5c1,0,1.8,0.4,2.6,1.1c0.7,0.7,1.1,1.6,1.1,2.6v13.1c0,0.4,0.2,0.6,0.5,0.7C296,76,306,79,315.5,82.3z"/>
	<path class="st3" d="M124.6,152.7c-3.4,0-5.8-0.9-7.1-2.6c-1.3-1.7-2-4.8-2-9.4c0-3.5,0.1-7.7,0.3-12.5c0-0.5,0.2-0.9,0.6-1.2
		c0.3-0.3,0.8-0.5,1.2-0.5c0.5,0,0.9,0.2,1.2,0.5c0.3,0.3,0.5,0.7,0.4,1.2c-0.2,4.7-0.3,8.9-0.3,12.4c0,1.8,0.1,3.4,0.3,4.5
		c0.2,1.2,0.6,2.1,1.1,2.7c0.5,0.6,1.1,1.1,1.8,1.3c0.7,0.2,1.5,0.3,2.6,0.3c3.9,0,7.1-2.7,9.5-8c0.2-0.4,0.5-0.7,0.9-0.9
		c0.4-0.2,0.8-0.2,1.2,0c0.4,0.2,0.7,0.5,0.9,0.9c0.2,0.4,0.2,0.8,0,1.2c-1.4,3.3-3.2,5.8-5.3,7.5
		C129.7,151.9,127.3,152.7,124.6,152.7z"/>
	<path class="st3" d="M145.9,131.9c-0.4,0-0.7-0.1-1-0.4c-0.3-0.3-0.4-0.6-0.4-1c0-0.4,0.1-0.7,0.4-1c0.3-0.3,0.6-0.4,1-0.4H157
		c0.2,0,0.3-0.1,0.3-0.3v-1.4c0-0.4,0.2-0.8,0.5-1.1c0.3-0.3,0.7-0.5,1.1-0.5c0.4,0,0.8,0.2,1.1,0.5c0.3,0.3,0.5,0.7,0.5,1.1v1.4
		c0,0.2,0.1,0.3,0.3,0.3h6.6c0.4,0,0.7,0.1,1,0.4c0.3,0.3,0.4,0.6,0.4,1c0,0.4-0.1,0.7-0.4,1c-0.3,0.3-0.6,0.4-1,0.4h-6.6
		c-0.2,0-0.3,0.1-0.3,0.3v2.9c0,0.2,0.1,0.3,0.3,0.3h5.5c0.4,0,0.7,0.1,1,0.4c0.3,0.3,0.4,0.6,0.4,1c0,0.4-0.1,0.7-0.4,1
		c-0.3,0.3-0.6,0.4-1,0.4h-5.5c-0.2,0-0.3,0.1-0.3,0.3v5.2c0,0.2,0.1,0.3,0.2,0.4c2,1.2,4.1,2.7,6.3,4.5c0.3,0.3,0.5,0.6,0.5,1
		c0,0.4-0.1,0.8-0.4,1.1c-0.3,0.3-0.6,0.5-1,0.5c-0.4,0-0.8-0.1-1.1-0.4c-1.6-1.4-3.1-2.5-4.4-3.4c-0.1-0.1-0.2-0.1-0.3,0.1
		c-0.3,1.8-0.9,3.2-2.1,4c-1.1,0.8-2.8,1.2-5.1,1.2c-2.1,0-3.8-0.5-5.1-1.5c-1.2-1-1.9-2.4-1.9-4.2c0-1.5,0.6-2.8,1.7-3.8
		c1.1-1,2.9-1.5,5.3-1.5c1.3,0,2.5,0.2,3.8,0.6c0.2,0,0.3,0,0.3-0.2v-3.7c0-0.2-0.1-0.3-0.3-0.3h-10c-0.4,0-0.7-0.1-1-0.4
		c-0.3-0.3-0.4-0.6-0.4-1c0-0.4,0.1-0.7,0.4-1c0.3-0.3,0.6-0.4,1-0.4h10c0.2,0,0.3-0.1,0.3-0.3v-2.9c0-0.2-0.1-0.3-0.3-0.3H145.9z
		 M153.2,149.8c1.6,0,2.6-0.3,3.2-0.9c0.6-0.6,0.9-1.7,0.9-3.2c0-0.2-0.1-0.3-0.3-0.4c-1.2-0.5-2.4-0.8-3.5-0.8
		c-1.4,0-2.4,0.2-3,0.6c-0.6,0.4-0.9,1-0.9,1.8c0,0.9,0.3,1.6,0.9,2.1C151.1,149.6,152,149.8,153.2,149.8z"/>
	<path class="st3" d="M187.7,152.7c-3.4,0-5.8-0.9-7.1-2.6c-1.3-1.7-2-4.8-2-9.4c0-3.5,0.1-7.7,0.3-12.5c0-0.5,0.2-0.9,0.6-1.2
		c0.3-0.3,0.8-0.5,1.2-0.5c0.5,0,0.9,0.2,1.2,0.5c0.3,0.3,0.5,0.7,0.4,1.2c-0.2,4.7-0.3,8.9-0.3,12.4c0,1.8,0.1,3.4,0.3,4.5
		c0.2,1.2,0.6,2.1,1.1,2.7c0.5,0.6,1.1,1.1,1.8,1.3c0.7,0.2,1.5,0.3,2.6,0.3c3.9,0,7.1-2.7,9.5-8c0.2-0.4,0.5-0.7,0.9-0.9
		s0.8-0.2,1.2,0c0.4,0.2,0.7,0.5,0.9,0.9c0.2,0.4,0.2,0.8,0,1.2c-1.4,3.3-3.2,5.8-5.3,7.5C192.7,151.9,190.3,152.7,187.7,152.7z"/>
	<path class="st3" d="M216,152.7c-2.1,0-3.7-0.5-4.8-1.4c-1.1-0.9-1.6-2.2-1.6-3.7c0-1.5,0.5-2.7,1.6-3.6c1.1-0.9,2.7-1.3,4.7-1.3
		c0.9,0,1.6,0.1,2.1,0.2c0.2,0,0.3,0,0.3-0.2v-10c0-0.4,0.2-0.8,0.5-1.1c0.3-0.3,0.7-0.5,1.1-0.5c0.4,0,0.8,0.2,1.1,0.5
		c0.3,0.3,0.5,0.7,0.5,1.1v2.3c0,0.2,0.1,0.3,0.3,0.3h6.1c0.4,0,0.7,0.1,0.9,0.4s0.4,0.6,0.4,0.9s-0.1,0.7-0.4,0.9
		c-0.3,0.3-0.6,0.4-0.9,0.4h-6.1c-0.2,0-0.3,0.1-0.3,0.3v5.5c0,0.2,0.1,0.3,0.2,0.3c1.9,0.9,4.1,2.3,6.7,4.3c0.3,0.3,0.5,0.6,0.6,1
		c0,0.4-0.1,0.8-0.3,1.1c-0.3,0.3-0.6,0.5-1,0.5c-0.4,0-0.8-0.1-1.1-0.3c-1.7-1.4-3.4-2.5-4.8-3.4c0,0-0.1,0-0.1,0
		c-0.1,0-0.1,0.1-0.1,0.1c-0.1,1.8-0.5,3.2-1.4,4C219.2,152.2,217.8,152.7,216,152.7z M216,145.5c-2.2,0-3.2,0.7-3.2,2.1
		c0,1.6,1.1,2.4,3.2,2.4c0.9,0,1.5-0.2,1.8-0.7c0.4-0.5,0.6-1.3,0.6-2.4V146c0-0.2-0.1-0.3-0.3-0.3
		C217.4,145.5,216.7,145.5,216,145.5z"/>
	<path class="st3" d="M241.6,139c-0.4,0.1-0.8,0-1.1-0.2c-0.3-0.2-0.6-0.5-0.7-0.9c-0.1-0.4,0-0.8,0.2-1.1c0.2-0.3,0.5-0.6,0.9-0.7
		c5-1.1,9.3-1.7,12.7-1.7c3.3,0,5.7,0.6,7.2,1.8c1.5,1.2,2.3,2.8,2.3,4.8c0,3-1.3,5.5-4,7.4c-2.7,2-6.6,3.2-11.7,3.8
		c-0.4,0-0.9-0.1-1.2-0.3c-0.4-0.3-0.6-0.6-0.7-1c-0.1-0.4,0-0.8,0.2-1.1c0.2-0.3,0.5-0.5,0.9-0.6c4.4-0.6,7.8-1.6,10-3
		c2.2-1.4,3.3-3.1,3.3-5c0-2.5-2.1-3.8-6.3-3.8C250.6,137.4,246.6,137.9,241.6,139z M245.7,126.7c4.3,0.5,8.1,0.9,11.4,0.9
		c0.4,0,0.8,0.2,1.1,0.5c0.3,0.3,0.4,0.6,0.4,1c0,0.4-0.1,0.8-0.4,1.1c-0.3,0.3-0.6,0.4-1,0.4c-3.9-0.1-7.8-0.4-11.8-0.9
		c-0.4,0-0.7-0.2-1-0.6c-0.2-0.3-0.3-0.7-0.3-1.1c0-0.4,0.2-0.7,0.6-1C244.9,126.8,245.3,126.7,245.7,126.7z"/>
	<path class="st3" d="M283.8,143.9c-0.3,0.3-0.7,0.5-1.1,0.5c-0.4,0-0.8-0.2-1.1-0.5c-0.3-0.3-0.5-0.7-0.5-1.1l-0.4-13
		c0-0.5,0.1-0.9,0.5-1.3c0.3-0.4,0.8-0.5,1.2-0.5h0.5c0.5,0,0.9,0.2,1.2,0.5c0.3,0.4,0.5,0.8,0.5,1.3l-0.4,13
		C284.3,143.2,284.1,143.6,283.8,143.9z M282.8,146.9c0.5,0,0.9,0.2,1.3,0.5c0.4,0.4,0.5,0.8,0.5,1.3v0.5c0,0.5-0.2,0.9-0.5,1.3
		c-0.4,0.4-0.8,0.5-1.3,0.5h-0.2c-0.5,0-0.9-0.2-1.3-0.5c-0.4-0.4-0.5-0.8-0.5-1.3v-0.5c0-0.5,0.2-0.9,0.5-1.3
		c0.4-0.4,0.8-0.5,1.3-0.5H282.8z"/>
</g>
</svg>
