<svg id="レイヤー_1" data-name="レイヤー 1" xmlns="http://www.w3.org/2000/svg" viewBox="0 0 35.47 44.3"><defs><style>.cls-1{fill:#fff;}</style></defs><path class="cls-1" d="M3,41.65c.71,0,1.33,0,2,0s.9-.22.9-.83q0-1.73,0-3.45c0-.53-.26-.77-.79-.77H3V33.1c.66,0,1.3,0,1.94,0s.94-.21.93-.86c0-1.07,0-2.15,0-3.22,0-.61-.28-.87-.87-.85H3V24.69c.66,0,1.32,0,2,0s.87-.24.87-.84c0-1.13,0-2.25,0-3.38,0-.56-.25-.82-.81-.81s-1.35,0-2.07,0v-3.5c.7,0,1.39,0,2.08,0s.79-.23.79-.76V11.89c0-.55-.29-.75-.8-.75H3V7.63c.66,0,1.32,0,2,0s.91-.24.9-.89c0-1,0-2.1,0-3.14,0-.61-.26-.87-.86-.85s-1.24,0-1.86,0A2.81,2.81,0,0,1,5.78.07C7.32,0,8.87,0,10.42,0c7.07,0,14.14.06,21.21,0a3.6,3.6,0,0,1,3.84,3.86c0,12.24,0,24.48,0,36.73,0,2.39-1.29,3.7-3.71,3.7H6.47a3.25,3.25,0,0,1-3.19-1.81A6,6,0,0,1,3,41.65ZM19,15.23c-4.15.7-6.54,3.08-7.18,7.22H10.65c-.54,0-.78.32-.67.84.57,2.69,2.3,4,4.74,4,3.24-.05,6.49,0,9.74,0a4.46,4.46,0,0,0,4.68-4c.1-.57-.13-.86-.72-.86H27.33c-.66-4.19-3.09-6.54-7.18-7.22,0-.59,0-1.14,0-1.69s-.1-.79-.57-.8-.61.35-.6.78S19,14.66,19,15.23ZM12.16,6.8l.18.06c0,.79,0,1.58,0,2.37,0,.44,0,.92.6.92s.62-.45.62-.9c0-1.5,0-3,0-4.5a3.1,3.1,0,0,0-.46-1,3.63,3.63,0,0,0-.86.66c-.53.76-1,1.58-1.52,2.45-.56-.93-1-1.77-1.55-2.54C9,4.08,8.6,4,8.31,3.78a2.82,2.82,0,0,0-.41.93c0,1.52,0,3,0,4.56,0,.43,0,.86.56.88s.64-.43.64-.88c0-.83,0-1.66,0-2.49a11.82,11.82,0,0,1,1.08,1.48c.35.52.77.51,1.12,0S11.87,7.28,12.16,6.8Zm8.07,23.44h0c-2.79,0-5.59,0-8.39,0-.28,0-.55.35-.82.55.26.21.51.42.78.62,0,0,.15,0,.22,0H28.36c.44,0,.92,0,.94-.59s-.45-.61-.89-.61ZM24.56,7.75c-.31-.36-.48-.53-.62-.72-.75-1-1.48-1.94-2.26-2.88A1,1,0,0,0,21,3.81a.74.74,0,0,0-.45.58c0,1.72,0,3.44,0,5.16,0,.21.39.41.6.61a2.84,2.84,0,0,0,.56-.65,2,2,0,0,0,0-.74V6.35a2.12,2.12,0,0,1,.72.66c.74.94,1.45,1.9,2.21,2.82a.85.85,0,0,0,.69.29.75.75,0,0,0,.42-.59c0-1.72,0-3.45,0-5.17,0-.2-.34-.4-.52-.61a2.8,2.8,0,0,0-.62.62,1.82,1.82,0,0,0,0,.74ZM19.26,35H15.37c-1.18,0-2.35,0-3.52,0-.29,0-.76.32-.79.55-.08.49.37.62.81.63h14.6a1.58,1.58,0,0,0,.73-.09.73.73,0,0,0,.35-.57.77.77,0,0,0-.44-.5,1.59,1.59,0,0,0-.66,0Zm9.3-29.17a6.64,6.64,0,0,0,0-1.34c-.06-.27-.35-.49-.54-.74-.2.24-.56.46-.58.71a23.71,23.71,0,0,0,0,2.92,3,3,0,0,0,2.68,2.78,2.87,2.87,0,0,0,3.26-2.32,16.32,16.32,0,0,0,.13-3.28,1,1,0,0,0-.58-.77c-.51-.08-.61.36-.61.81,0,.8,0,1.59,0,2.39a1.87,1.87,0,1,1-3.74,0C28.55,6.63,28.56,6.23,28.56,5.83ZM16.4,4.91a12.39,12.39,0,0,0,1.73,0c.27,0,.49-.36.73-.55-.24-.2-.46-.55-.72-.57a11.15,11.15,0,0,0-2.31,0,.94.94,0,0,0-.61.63c-.06,1.7,0,3.39,0,5.09,0,.51.28.7.76.69.7,0,1.4,0,2.1,0,.41,0,.79-.05.8-.55S18.49,9,18,9H16.4V7.55a11.12,11.12,0,0,0,1.74,0c.26,0,.48-.37.72-.56-.24-.19-.46-.51-.72-.55a12.52,12.52,0,0,0-1.74,0Zm1,36h5.48c.41,0,.86,0,.87-.58s-.45-.64-.9-.64H12c-.45,0-.93.05-1,.59s.52.63,1,.63Z"/><path class="cls-1" d="M4.65,20.84v2.58H.05V20.84Z"/><path class="cls-1" d="M.08,37.79H4.62v2.58H.08Z"/><path class="cls-1" d="M4.62,14.94H0c0-.78,0-1.54,0-2.3a.5.5,0,0,1,.37-.32c1.39,0,2.78,0,4.23,0Z"/><path class="cls-1" d="M4.65,29.38v2.47H.05V29.38Z"/><path class="cls-1" d="M0,6.43V4H4.64V6.43Z"/><path d="M19,15.23c0-.57,0-1.14,0-1.71s.13-.79.6-.78.58.39.57.8,0,1.1,0,1.69c4.09.68,6.52,3,7.18,7.22h1.09c.59,0,.82.29.72.86a4.46,4.46,0,0,1-4.68,4c-3.25,0-6.5,0-9.74,0-2.44,0-4.17-1.31-4.74-4-.11-.52.13-.82.67-.84H11.8C12.44,18.31,14.83,15.93,19,15.23ZM13.14,22.4H26c.16-2.95-3-5.88-6.29-5.94S13.05,19.32,13.14,22.4Zm-1.73,1.27a2.9,2.9,0,0,0,2.69,2.41c1,.06,2,0,3.07,0,2.5,0,5,0,7.49,0a2.94,2.94,0,0,0,3.06-2.43Z"/><path d="M12.16,6.8c-.29.48-.57,1-.88,1.45s-.77.53-1.12,0A11.82,11.82,0,0,0,9.08,6.78c0,.83,0,1.66,0,2.49,0,.45,0,.91-.64.88s-.56-.45-.56-.88c0-1.52,0-3,0-4.56a2.82,2.82,0,0,1,.41-.93c.29.18.67.3.84.56.54.77,1,1.61,1.55,2.54.53-.87,1-1.69,1.52-2.45a3.63,3.63,0,0,1,.86-.66,3.1,3.1,0,0,1,.46,1c.05,1.5,0,3,0,4.5,0,.45-.05.9-.62.9s-.6-.48-.6-.92c0-.79,0-1.58,0-2.37Z"/><path d="M20.23,30.24h8.18c.44,0,.92,0,.89.61s-.5.59-.94.59H12c-.07,0-.17,0-.22,0-.27-.2-.52-.41-.78-.62.27-.2.54-.55.82-.55,2.8,0,5.6,0,8.39,0Z"/><path d="M24.56,7.75V5.11a1.82,1.82,0,0,1,0-.74,2.8,2.8,0,0,1,.62-.62c.18.21.51.41.52.61,0,1.72,0,3.45,0,5.17a.75.75,0,0,1-.42.59.85.85,0,0,1-.69-.29C23.86,8.91,23.15,8,22.41,7a2.12,2.12,0,0,0-.72-.66V8.77a2,2,0,0,1,0,.74,2.84,2.84,0,0,1-.56.65c-.21-.2-.6-.4-.6-.61-.05-1.72-.05-3.44,0-5.16A.74.74,0,0,1,21,3.81a1,1,0,0,1,.73.34c.78.94,1.51,1.92,2.26,2.88C24.08,7.22,24.25,7.39,24.56,7.75Z"/><path d="M19.26,35h7.19a1.59,1.59,0,0,1,.66,0,.77.77,0,0,1,.44.5.73.73,0,0,1-.35.57,1.58,1.58,0,0,1-.73.09H11.87c-.44,0-.89-.14-.81-.63,0-.23.5-.53.79-.55,1.17-.06,2.34,0,3.52,0Z"/><path d="M28.56,5.83c0,.4,0,.8,0,1.2A1.87,1.87,0,1,0,32.3,7c0-.8,0-1.59,0-2.39,0-.45.1-.89.61-.81a1,1,0,0,1,.58.77,16.32,16.32,0,0,1-.13,3.28,2.87,2.87,0,0,1-3.26,2.32A3,3,0,0,1,27.4,7.38a23.71,23.71,0,0,1,0-2.92c0-.25.38-.47.58-.71.19.25.48.47.54.74A6.64,6.64,0,0,1,28.56,5.83Z"/><path d="M16.4,4.91V6.39a12.52,12.52,0,0,1,1.74,0c.26,0,.48.36.72.55-.24.19-.46.52-.72.56a11.12,11.12,0,0,1-1.74,0V9H18c.46,0,.83.13.81.65s-.39.56-.8.55c-.7,0-1.4,0-2.1,0-.48,0-.76-.18-.76-.69,0-1.7,0-3.39,0-5.09a.94.94,0,0,1,.61-.63,11.15,11.15,0,0,1,2.31,0c.26,0,.48.37.72.57-.24.19-.46.51-.73.55A12.39,12.39,0,0,1,16.4,4.91Z"/><path d="M17.41,41H12c-.46,0-1,0-1-.63s.5-.59,1-.59H22.86c.45,0,.91.05.9.64s-.46.58-.87.58H17.41Z"/><path class="cls-1" d="M13.14,22.4c-.09-3.08,3.16-6,6.55-5.94s6.45,3,6.29,5.94Z"/><path class="cls-1" d="M11.41,23.67H27.72a2.94,2.94,0,0,1-3.06,2.43c-2.5,0-5,0-7.49,0-1,0-2.05,0-3.07,0A2.9,2.9,0,0,1,11.41,23.67Z"/></svg>