<svg id="レイヤー_1" data-name="レイヤー 1" xmlns="http://www.w3.org/2000/svg" viewBox="0 0 41.97 46.63"><defs><style>.cls-1{fill:#f8fbfc;stroke:#f8fbfc;stroke-miterlimit:10;stroke-width:2.63px;}</style></defs><path class="cls-1" d="M16.09,10.16C8.64,12.92,4.58,18.61,4.56,25.71A16.75,16.75,0,0,0,15.09,41.16a16.76,16.76,0,0,0,18.43-4.67c2.14-2.44,3.06-5.42,3.79-8.48.29-1.18.33-2.91,2.12-2.51s1.18,2,1.07,3.24c-.82,8.94-9.45,16.46-19,16.57-10.14.12-18.85-7-20-16.28C.3,19.27,4.52,11.38,13.45,7.5c2.17-1,3-2,2.73-4.18S16.82.81,18.6,1.89C21,3.34,23.39,4.77,25.86,6.1c2.21,1.19,1.73,2-.15,3a56.8,56.8,0,0,0-5.61,3.25C17.52,14.14,15.63,14.78,16.09,10.16Z"/></svg>