<svg id="レイヤー_1" data-name="レイヤー 1" xmlns="http://www.w3.org/2000/svg" viewBox="0 0 88.5 105.17"><defs><style>.cls-1{fill:#fffdfe;stroke:#3c0000;stroke-miterlimit:10;stroke-width:1.94px;}.cls-2{fill:#f59f37;}.cls-3{fill:#ffce8d;}.cls-4{fill:#fff;}.cls-5{fill:#3c0000;}</style></defs><rect class="cls-1" x="0.97" y="10.76" width="86.55" height="75.6"/><rect class="cls-1" x="0.97" y="0.97" width="86.55" height="9.79"/><rect class="cls-2" x="5.57" y="15.18" width="76.97" height="66.76"/><rect class="cls-3" x="5.57" y="3.32" width="76.97" height="4.56"/><path class="cls-4" d="M44.17,43.24V38.8H29.8V32.71a5.36,5.36,0,0,1,5.34-5.34H51.86a5.36,5.36,0,0,1,5.34,5.34v10.9a5.43,5.43,0,0,1-3.09,4.86l-5.24,2.46-.43,5.45H37L36.21,47ZM37,58.41H48.39V68.77H37Z"/><polygon class="cls-5" points="44.25 105.17 55.11 86.36 33.39 86.36 44.25 105.17"/></svg>