<?xml version="1.0" encoding="utf-8"?>
<!-- Generator: Adobe Illustrator 25.3.0, SVG Export Plug-In . SVG Version: 6.00 Build 0)  -->
<svg version="1.1" id="レイヤー_1" xmlns="http://www.w3.org/2000/svg" xmlns:xlink="http://www.w3.org/1999/xlink" x="0px"
	 y="0px" viewBox="0 0 687.4 211.2" style="enable-background:new 0 0 687.4 211.2;" xml:space="preserve">
<style type="text/css">
	.st0{fill:#FFFDFE;stroke:#3C0000;stroke-width:1.5;stroke-miterlimit:10;}
	.st1{fill:#D26088;}
</style>
<path class="st0" d="M25.7,0.8h635.6c13.9,0,25.2,11.3,25.2,25.1v159.5c0,13.9-11.3,25.1-25.2,25.1H25.7
	c-13.9,0-25.1-11.3-25.1-25.1V25.9C0.6,12,11.8,0.8,25.7,0.8z"/>
<path class="st1" d="M651.8,201.4H35.2c-13.9,0-25.2-11.3-25.2-25.1V35c0-13.9,11.3-25.2,25.2-25.2h616.6C665.7,9.9,677,21.2,677,35
	v141.2C677,190.1,665.7,201.4,651.8,201.4z"/>
</svg>
