<svg id="レイヤー_1" data-name="レイヤー 1" xmlns="http://www.w3.org/2000/svg" xmlns:xlink="http://www.w3.org/1999/xlink" viewBox="0 0 730.05 839.52"><defs><style>.cls-1{fill:none;}.cls-2{fill:url(#名称未設定グラデーション_2);}.cls-3{clip-path:url(#clip-path);}.cls-4{fill:#edefec;}.cls-5{fill:#fccbb9;}.cls-6{fill:#bfa388;}.cls-7{fill:#c1a488;}.cls-8{fill:#bac4c1;}.cls-9{fill:#fefefe;}.cls-10{fill:#255268;}.cls-11{fill:#fcfefd;}.cls-12{fill:#c0a388;}.cls-13{fill:#b9c4c2;}.cls-14{fill:#ea6f6b;}.cls-15{fill:#fcc9b6;}.cls-16{fill:#245267;}.cls-17{fill:#245368;}.cls-18{fill:#b8c3c0;}.cls-19{fill:#b8c1bf;}.cls-20{fill:#bbc5c2;}.cls-21{fill:#f7fafa;}.cls-22{fill:#804d37;}.cls-23{fill:#9b7554;}.cls-24{fill:#f8fafb;}.cls-25{fill:#f8fbf9;}.cls-26{fill:#255367;}.cls-27{fill:#7b4730;}.cls-28{fill:#946d51;}.cls-29{fill:#976f52;}.cls-30{fill:#997357;}.cls-31{fill:#bec7c3;}.cls-32{fill:#b4886b;}.cls-33{fill:#fcb0a3;}.cls-34{fill:#fcb0a4;}.cls-35{fill:#f5857d;}.cls-36{fill:#fcfbf9;}.cls-37{fill:#f5837b;}.cls-38{fill:#e6766b;}.cls-39{fill:#e17a71;}.cls-40{fill:#e97973;}.cls-41{fill:#de645d;}.cls-42{fill:#e1625d;}.cls-43{fill:#e5786f;}.cls-44{fill:#e1796f;}.cls-45{fill:#e17a6e;}.cls-46{fill:#f3897f;}.cls-47{fill:#f5867f;}.cls-48{fill:#f9f9f5;}.cls-49{fill:#e27a6f;}.cls-50{fill:#e08f80;}.cls-51{fill:#fbcab8;}.cls-52{fill:#fdc9b7;}.cls-53{fill:#fdcab7;}.cls-54{fill:#e87971;}.cls-55{fill:#fbfcfb;}.cls-56{fill:#fbf8f2;}.cls-57{fill:#926b4f;}.cls-58{fill:#905d42;}.cls-59{fill:#a27255;}.cls-60{fill:#aa7d62;}.cls-61{fill:#aa8465;}.cls-62{fill:#a37254;}.cls-63{fill:#925f43;}.cls-64{fill:#fcc8b7;}.cls-65{fill:#d3c7b8;}.cls-66{fill:#ddd0c4;}.cls-67{fill:#d9cfc2;}.cls-68{fill:#9e7e62;}.cls-69{fill:#d56b5e;}.cls-70{fill:#a37f63;}.cls-71{fill:#9f7c5e;}.cls-72{fill:#c2a489;}.cls-73{fill:#e99584;}.cls-74{fill:#e18073;}.cls-75{fill:#c3a083;}.cls-76{fill:#a48065;}.cls-77{fill:#a48164;}.cls-78{fill:#a38164;}.cls-79{fill:#747872;}.cls-80{fill:#6f7772;}.cls-81{fill:#f4d1be;}.cls-82{fill:#24221d;}.cls-83{fill:#484632;}.cls-84{fill:#25201d;}.cls-85{fill:#a6bec9;}.cls-86{fill:#a9c4ce;}.cls-87{fill:#9cbdc6;}.cls-88{fill:#9cbbc6;}.cls-89{fill:#99bac4;}.cls-90{fill:#95b7c3;}.cls-91{fill:#9fbcc7;}.cls-92{fill:#c3d1d7;}.cls-93{fill:#bcd2df;}</style><linearGradient id="名称未設定グラデーション_2" x1="365.02" y1="61.56" x2="365.02" y2="584.15" gradientTransform="translate(784.78 54.74) rotate(90)" gradientUnits="userSpaceOnUse"><stop offset="0" stop-color="#9ed9ff"/><stop offset="0.24" stop-color="#a1d8fd"/><stop offset="0.43" stop-color="#acd6f6"/><stop offset="0.61" stop-color="#bdd1eb"/><stop offset="0.79" stop-color="#d5cbdb"/><stop offset="0.95" stop-color="#f4c4c6"/><stop offset="1" stop-color="#ffc1bf"/></linearGradient><clipPath id="clip-path"><rect class="cls-1" x="-54.74" y="54.74" width="839.52" height="730.05" rx="365.02" transform="translate(-54.74 784.78) rotate(-90)"/></clipPath></defs><rect class="cls-2" x="-54.74" y="54.74" width="839.52" height="730.05" rx="365.02" transform="translate(-54.74 784.78) rotate(-90)"/><g class="cls-3"><path class="cls-4" d="M259.89,562s19.23-26.2,23.05-29.43l74.34,65.62-14,13.4-20.49,12.85s-5.49,5-8.23,7.25-8,3.82-8.12,6.13-6.51,3.58-6.51,3.58L294,637.58s-15.44-11.33-19-16-12.61-16.73-12.61-16.73L258,587Z"/><path class="cls-5" d="M302.25,472.36c-6.47-4.8-14-7.73-20.66-12.27-11.51-7.88-18.85-18.5-21.76-32.19-.77-3.6-2.1-7.09-3-10.67-.58-2.26-2.16-2.25-4-2.36-4.79-.27-9.49,0-14.36-1.3a41.07,41.07,0,0,1-17.22-9.83c-17.35-15.93-21.51-35.87-16.19-58,2.13-8.85,8.06-15.68,16.28-20.21,1.54-.84,3.73-.94,4.26-3.17,6.84,1.15,12.14,6.14,13.15,12.47,1.08,6.77,1.48,13.66,3.51,20.28a2.66,2.66,0,0,1-.28,1.92c-1.15,1.23-1.91.08-2.61-.55-1.38-1.23-2.62-2.6-3.92-3.93-3.71-3.81-7.94-6.6-13.38-4.22s-8.44,7-8.86,13.06a51.41,51.41,0,0,0,0,7.13c.89,10.76,5.84,18.92,15.56,23.87a20.64,20.64,0,0,0,14.35,1.67,8.09,8.09,0,0,1,1.82-.27c5-.38,5.13-.5,3.93-5.15-1.26-4.89-2.11-9.87-3.7-14.68-.46-1.39-.83-2.83.06-4.23,2.37-1,2.77,1.37,3.89,2.4s2.26,2.51,4.07,1.8,1.3-2.44,1.38-3.84a46.73,46.73,0,0,0-.77-9.51c-1.84-12.6-4.26-25.15-4-38a144.23,144.23,0,0,1,2.82-22.87c.82-4.43,1.62-8.85,2.07-13.34,1.6-7.49,2.49-15.1,3.82-22.63.7-3.93.86-7.87,1.19-11.81.55-6.61,2.82-12.91,3.25-19.52a38.44,38.44,0,0,1,8.21-12.55c3.18-1.71,6.38-.93,9.65-.23,8.55,1.85,16.69,5.21,25.36,6.66a80.92,80.92,0,0,0,27.29.09,64.75,64.75,0,0,0,37.1-20,26.46,26.46,0,0,1,5.28-4.8c7.05-2.41,14.22-3.89,21.72-2.8,4.85.7,9.64,1.6,13.73,4.58a2.52,2.52,0,0,1,1,.77c.57,3.94,2.52,4.16,5.8,2.59,12.15-5.82,21-4,28.45,4.09a47.77,47.77,0,0,1,12.06,23.84,23,23,0,0,0,.66,2.29c-.77,1.48.39,3-.07,4.48.59,12.82.93,25.67,4.3,38.17a20.43,20.43,0,0,1,1.13,5.84,43.24,43.24,0,0,0,1,11.84c3.33,15.09,5.14,30.21,2.58,45.72-1.42,8.58-1.7,17.35-3.32,25.93a8.66,8.66,0,0,0,0,3.17c.4,2.26,1.47,3.07,3.54,1.55,1.27-.93,2.38-2.15,4.13-2.17,2.09,1.35,1.16,3.23.77,4.92-1,4.47-2.13,8.92-2.81,13.46-.32,2.12.09,3.66,2.51,4a9.24,9.24,0,0,1,1.18.29c13.7,2.5,25.81-4.49,30-17.59,1.61-5,3.24-10.12,2.19-15.55-.94-2.59-1.39-5.37-3.08-7.69-4.84-6.64-12-7.49-18.19-2.06a63.11,63.11,0,0,0-4.81,4.73c-.79.85-1.51,2.51-3.13,1-.92-3.39.79-6.5,1.26-9.71.55-3.79,1.58-7.57,1.62-11.37.08-5.58,3-8.79,7.65-10.93,1.88-.86,3.58-2.37,5.9-1.86,13.65,6.17,20.55,17,22.48,31.64A57.23,57.23,0,0,1,512.06,385a48.62,48.62,0,0,1-23.81,25.32c-6.4,3.19-13.3,5.23-20.63,4.54-2.95-.28-4.15.84-4.86,3.67-2,8.19-3,16.8-7.4,24.16a49.38,49.38,0,0,1-12.15,14.36,162.22,162.22,0,0,1-17.42,11.5c-2,1.2-2.2,2.49-2.31,4.42-.23,4,.9,8.19-.69,12.16-2.28-2.65-1-5.84-1.3-8.79-.3-3.28-.58-3.56-3.56-2.15a136.71,136.71,0,0,1-30.1,10.29c-25.49,5.37-50.43,3.51-74.53-6.78C309.54,476.1,305.41,475.21,302.25,472.36Z"/><path class="cls-6" d="M452.29,848.28l-125.58,0c-16.74,0-33.49-.09-50.23-.14-1.69-2.05-1.22-4.58-1.39-6.89-1.64-22-3.25-43.93-4.63-65.91-.61-9.76-.38-19.63-2.74-29.23-.43-2.16,1.17-2.44,2.62-2.6,13.89-1.54,25.56-8.4,37-15.61,4.63-2.92,7.08-7.42,7.71-12.88.4-3.43-1-6.18-3.17-8.69-1-1.2-2.5-2-2.92-3.7a3.59,3.59,0,0,1,.9-2.78c4.34-.73,6.66-3.68,7.49-7.63.94-4.44,1.12-8.9-2.76-12.45-1.79-1.63-4.43-2.56-4.9-5.4a3,3,0,0,1,1.74-2.2c4.81-3.52,5.16-8.41,4.3-13.74-.45-2.85-2.45-5.2-2.49-8.16,1.87-1,3,.41,4.2,1.34,3.89,3,7.7,6.14,11.45,9.32,9.06,7.69,19.07,14,29.36,19.82,3,1.73,5.5,1.52,8.52-.18a204.23,204.23,0,0,0,50.62-39.71,212.7,212.7,0,0,0,29.78-41.27c9.7-17.63,16.38-36.29,21.11-55.75a9.31,9.31,0,0,1,.8-2.66c1-1.77,2.13-1.89,3.17,0,1.31,7.46.06,14.86-.49,22.26-.88,11.66-1.31,23.35-2.12,35-.92,13.38-1.91,26.77-2.78,40.16-.68,10.47-1.29,21-2.09,31.41-1.07,14.18-1.87,28.37-2.84,42.55-.68,10.07-1.28,20.15-1.91,30.23-1,15.64-1.77,31.29-3,46.92-.27,3.3.29,6.67-.77,9.9a2.26,2.26,0,0,1-1.43,1.25c-1.33.42-3.18-.36-3.94,1.28-1,2.19-.88,4.64-1,7-.06,1.08.78,1.59,1.68,2,1.35.58,2.67,1.2,3.21,2.75,1.4,8.45-.43,16.81-.85,25.2C453.74,842.16,454.47,845.52,452.29,848.28Z"/><path class="cls-7" d="M148.07,588.8c7.52-8.4,16.69-14.38,26.73-19.41,18.25-9.16,37.27-16.35,56.43-23.24a15.67,15.67,0,0,1,1.54-.36c1.59,1.3,1.85,3.18,1.94,5,.3,5.79,1,11.54,1.59,17.29.19,1.84.23,3.7-1.05,5.27-3,1.45-4.25-1.34-5.8-2.7-4.53-4-9.5-5.4-15.35-3.91-3.14.79-5.59,2.26-6.64,5.5-.84,2.53-.27,5,.24,7.48,2.31,11.34,4.15,22.7,3.19,34.37a200.58,200.58,0,0,1-3.49,24.82c-3.12,14.94-6.1,29.92-9.62,44.77a23.74,23.74,0,0,1-7.28,11.69c-2.88,2.7-4.46,5.44-3.45,9.36-1.81,3.42-5,5.39-8.09,7.36-7.75,5-15.92,9.41-23.31,15-1,.79-2.18,1.61-3.63.86-1.31-1.3-.86-3.29-2.35-5.62a39.88,39.88,0,0,0,3.66,15.55c11.28,25.11,30.23,41.38,56.64,49,1.64.47,4,.17,4.12,2.87a9.61,9.61,0,0,1-2.2,3.73c-8.91,11.36-17.37,23.06-26.2,34.48-4.37,5.66-8.62,11.42-13.09,17a9,9,0,0,1-3.53,3.11l-67.78.14c-18.2,0-36.39,0-54.59.19-2.85,0-3.82-1.9-4.41-3.76A60,60,0,0,1,41,811.07c3.44-13.57,9.54-26,15.6-38.42,6.31-13,12.27-26.13,18.44-39.18,4.52-9.58,9.15-19.1,13.72-28.66,9.46-19.78,18.87-39.59,28.39-59.35,7.65-15.87,14.23-32.28,23.82-47.18a60.24,60.24,0,0,1,6.49-8.5c1.35,1.12,1.56,2.74,1.81,4.31,5.46,34.26,10.66,68.57,16.63,102.75.27,1.54.06,3.17,1,5a6.86,6.86,0,0,0,.38-4.69c-3.44-19.24-6.51-38.54-9.76-57.81-2.55-15.07-4.85-30.19-8-45.15A54.69,54.69,0,0,0,148.07,588.8Z"/><path class="cls-6" d="M553.64,848.24l-78.24,0c-1.22-4.16-.67-8.42-.38-12.59.43-6.31,1.25-12.6,1.58-18.93a1.59,1.59,0,0,1,.47-.61c1.6-1.13,5,.75,5-3,0-3.47,1-7.33-3.47-9.1-.36-.15-.54-.57-.75-.92-1.09-5.84.13-11.63.51-17.41.7-10.45,1.49-20.9,2-31.37.52-10.07,1.49-20.11,2-30.18s1.38-19.86,2-29.79c.81-13.65,2-27.27,2.85-40.91.62-10.33,1.15-20.66,2-31,1.08-13.89,1.7-27.81,2.92-41.69.84-9.52.86-19.09,1.88-28.6.2-1.83.1-3.79,2.12-4.83,13.47,5.71,27.05,11.16,40.38,17.19s26.16,12.64,36.47,23.29a18.4,18.4,0,0,1,1.41,1.85c-3.33,20.71-5.79,41.56-9.23,62.24-2.87,17.16-4.18,34.55-7.84,51.59-2.41,28.51-1.07,57.1-2,85.64-.56,17.53-.17,35.08-.31,52.61C555,844,555.34,846.34,553.64,848.24Z"/><path class="cls-6" d="M575.19,591.24c8.54,10.49,13,23,17.53,35.46,9.75,27.07,18.31,54.53,26.75,82,8.13,26.43,15.53,53.09,23,79.71,3.55,12.58,7.37,25.14,8.81,38.21.69,6.21.89,12.4-1,18.52a4.34,4.34,0,0,1-4.75,3.36c-16.06-.67-32.13-.1-48.19-.24-11.92-.1-23.85,0-35.77,0a5.78,5.78,0,0,1-1.37-4.43c.47-14-1.17-28-.84-42a18.6,18.6,0,0,1,.85-6.25c2.62-7.18,5.73-14.19,7.47-21.67,5.39-14.35,7.44-29.38,9.39-44.46-6.82,2.27-8,8.41-10.18,13.8-1.74,4.28-2.93,8.78-5.12,12.89-.8.52-1.6,1-2.36-.05a7.35,7.35,0,0,1-.77-3.87c.18-15.79-.46-31.59.05-47.39,4.25-34.75,10.08-69.29,14.76-104C573.89,597.62,572.8,594.09,575.19,591.24Z"/><path class="cls-8" d="M270.93,220.86q-3.56,5.55-7.1,11.12a6.23,6.23,0,0,1-1.52,2.76c-8.3,7.55-14.26,17.18-22.36,24.9A45.72,45.72,0,0,1,225.23,269c-2.5,1-5.09,1.64-7.62,0-8.56-2.7-14.62-12.89-12.28-21.63a27,27,0,0,0,0-14.63c-2.26-8.43,3.62-15.27,12.29-14.88,4.31,0,8.46,1.6,13,.33a41.07,41.07,0,0,0,16.69-8.91c10.79-9.65,21.24-19.72,33.6-27.46,20.72-13,43.09-21.11,67.53-23.48a128.45,128.45,0,0,1,36.09,1.27c12.72,2.36,24.47,11.62,30.83,23.81-4.87-13.44-14-21.08-26.49-24.9A89.29,89.29,0,0,0,364.42,155c-28.59-.62-54.88,7.09-79.48,21.21a127.21,127.21,0,0,0-26.79,20.6,117.25,117.25,0,0,1-19.41,15.86c-2.17,1.4-4.51,3-7.38,1.64,1.85-6.52,5.18-12.18,9.06-17.76,2.64-3.81,6-6.91,8.65-10.76,2.36-3.5,6-6.28,9.11-9.34,4.93-4.87,10.33-9.53,16.5-12.7,5.16-2.66,10.29-5.66,15.14-8.58,10.1-6.07,21-8.87,32-11.72A139.85,139.85,0,0,1,353,139.28a107.72,107.72,0,0,1,34.32,4.14c7.34,2.2,13.82,5.84,20.17,10,5.36,3.5,9.83,7.72,12.55,13.49,4.08,8.63,4.48,17.25-.66,25.76-2.25,3.71-4.13,7.65-6.18,11.49-2-4.73-3.67-9.59-7.51-13.4-5.78-5.73-12.57-7.66-20.43-6.47-8.25,1.25-15.77,4.73-23.4,7.82-16.5,6.67-33.58,10.24-51.4,9.2a93.18,93.18,0,0,0-26.86,2c-11,2.56-19.42,9-26.9,17-1.63,1.74-3.09,3.66-4.91,5.39,4.46-2.68,7.83-6.5,11.66-9.75,8.64-7.36,18.71-10.8,29.82-12.12,9.45-1.13,18.82.33,28.25.12A111.36,111.36,0,0,0,361.74,195c8.48-3.49,16.88-7.2,26-9,11.94-2.36,20.76,6.93,24.14,15.38a2.45,2.45,0,0,1-.25,2.64c-1.16,1-2.12,0-2.8-.56-2.38-1.91-5.35-1.88-8-2.84-7.16-2.64-13.89.46-20.8.46-1.23,0-2.46.91-3.69,1.4-2.64-.59-4.11,1.53-5.84,2.75A126.26,126.26,0,0,1,348,217.84c-14.59,6.33-29.66,6.2-44.91,3.7-4.57-.75-9.12-1.71-13.61-2.9-7.05-1.88-13.92-.84-20.75,1.39-.47-.09.06.6.06.07,0-.08.13,0,.4,0A2.34,2.34,0,0,1,270.93,220.86Z"/><path class="cls-6" d="M258.26,536.32c5.63-2.18,11.28-4.31,16.88-6.56,1.84-.74,3.48-1.37,4.71.84,3,3.71,3.79,8.41,5.47,12.69,8.64,22,19.22,42.87,33.17,62,11.39,15.59,25.46,28.42,41.33,39.33,1.43,1.11,2.95,1.72,4.73.77a169.29,169.29,0,0,0,35.72-30.94c20-22.46,32.44-49,43-76.74,1-2.67.78-5.89,3.4-7.86.77-1,1.45-1.58,2.94-.93,5.92,2.6,11.92,5,17.89,7.48,1.21,1.8.42,3.66,0,5.41a244.55,244.55,0,0,1-15.92,46.7,187.51,187.51,0,0,1-23.1,37.64c-13.91,17.58-29.82,33.21-48.83,45.44-4.13,2.66-8.54,4.87-12.55,7.74-2.76,2-5.44,1.93-8.49.16A230.69,230.69,0,0,1,319.22,651c-2.76-2.49-5.71-4.77-7.92-7.82a14.55,14.55,0,0,1-1.06-4.59c-1.26-7.88-6.13-12.48-13.42-14.93-1.11-.38-2.33-.52-3-1.68-1.1-3.78-3.58-6.8-5.59-10-13.65-22.11-22.95-46-29.66-71C258.17,539.42,257.54,537.92,258.26,536.32Z"/><path class="cls-9" d="M446.66,529.81a260.11,260.11,0,0,1-23.89,54.87,179.89,179.89,0,0,1-40,48.57c-5.72,4.85-11.3,10-18.34,13.1-1.33-1.26-1-2.93-1.15-4.49-.59-7.55,0-15.12.1-22.65.17-9.14-.23-18.27-.13-27.4.11-10.73.18-21.48-.41-32.21,2-11.55,9.08-20.08,18-26.54,11.09-8,22.43-15.61,32.87-24.47a42.55,42.55,0,0,0,7.56-7.61c.52-.73.94-1.66,2.1-1.56,1.88-1.54,3.36-.91,4.42,1,5.23,9.27,10.29,18.65,17.66,26.51C446.16,527.62,446.29,528.83,446.66,529.81Z"/><path class="cls-10" d="M496.08,547.36c-1.38,3.95-1.24,8.14-1.45,12.18-1.41,27.14-3.66,54.22-5.5,81.33-1.26,18.5-2.22,37-3.42,55.53-1.23,18.9-2.63,37.78-3.89,56.67-1.12,16.82-2.14,33.64-3.2,50.45a2.66,2.66,0,0,1-2.49,1,147.18,147.18,0,0,1-18.78-2.91,2.74,2.74,0,0,1-1.87-1.35c.28-17.11,1.77-34.15,3-51.2.68-9.26,1.11-18.53,1.71-27.8q2.28-35.33,4.63-70.64c.79-12,1.65-24.07,2.4-36.11q2.14-34.5,4.17-69a49.59,49.59,0,0,0-.22-5.16c-.89-1-1.31-1.87.28-2.57C479.81,540.6,488.25,543.18,496.08,547.36Z"/><path class="cls-11" d="M359.66,645.54c-21-13.56-37.67-31.27-50.78-52.4a301.83,301.83,0,0,1-28.68-60.59,12.63,12.63,0,0,1-.35-1.95,15.14,15.14,0,0,1,5.48-9.32c3.11-2.63,4.41-6.09,6.23-9.22,1.63-2.81,3.26-5.71,4.74-8.66,2-3.95,3.7-4.06,6.67-.71,2.83.16,4.36,2.45,6.22,4,12.36,10.47,25.68,19.64,38.77,29.15,6.5,4.72,10.4,11.6,13.79,18.72,1.05,2.2.48,4.72.87,7.08.19,26.15.11,52.29,0,78.43C362.6,642.1,364,645.55,359.66,645.54Z"/><path class="cls-12" d="M253.64,848.16c-7.87,0-15.74.07-23.61.07q-16.59,0-33.19,0c.34-5.78.21-11.58.45-17.36-.09-3.24,1.67-5.75,3.18-8.42,5.9-10.37,12.06-20.61,17.36-31.32,1.27-2.58,1.08-4-2.15-4-7-1.4-13.82-3.24-20.09-6.75-1.47-.81-3.2-1.36-3.72-3.25,4.41-5.61,9.77-10.34,14.39-15.78,2.71-3.2,5-6.75,8.07-9.65-7.93,8-14.62,17-22.43,25a11.44,11.44,0,0,1-10.38-7.17c6.58-6.41,13.11-12.88,19.68-19.3,2.35-2.29,4.84-4.45,6.29-7.53a4.41,4.41,0,0,1,3-2.38c2.09,0,3.4,1.52,4.53,2.84,2.88,3.33,7.5,4.89,9.33,9.25-2.33,5.4-6.27,9.75-9.83,14.27-2.95,3.73-5.86,7.47-7.59,10,3-4.84,8.25-10,13-15.62,2.14-2.55,4.21-5.1,4.65-8.56a6.09,6.09,0,0,0,3.74-2.7c2.88.28,3.86,3.34,6.45,4.28,4.07,1.49,4.75,1.24,4.46-2.92-.09-1.46-.4-3,1-4,2.2-.66,4.41-1.54,6.57.11,1.52,3.66,1.11,7.59,1.47,11.38,1.59,16.64,2.41,33.33,3.51,50,.78,11.78,1.83,23.54,2.42,35.33C254.31,845.38,254.68,846.87,253.64,848.16Z"/><path class="cls-13" d="M419.18,202c5.89-14.82,23.9-20.51,37.8-12.75,11.74,6.55,21,15.16,27,27.12,2.89,5.71,8.07,9.44,12,14.25,9.62,11.75,12.26,25.29,11,39.89-.23,2.79-.6,5.46-.05,8.25.95,4.76-1.4,6.94-6.05,5.59-7.83-2.27-13.75-7.19-18.6-13.61-7.5-9.94-10.74-21.77-14.91-33.2-4.39-12-9.58-23.56-20.2-31.69-7.92-6.07-16.5-7.3-25.86-4.24C420.68,201.88,420.05,202.65,419.18,202Z"/><path class="cls-14" d="M302.25,472.36c3.9-.05,7,2.36,10.29,3.81a123.51,123.51,0,0,0,92.94,1.7c4.79-1.89,9.67-3.54,14.2-6,2.67-1.47,3.14-.38,3.07,2.12-.1,3.72,0,7.44,0,11.16l-.12.79A15.12,15.12,0,0,1,420,492c-13.91,17.6-32.07,26.11-54.47,25.34-11.05-.38-21-4.72-30.35-10.05A127.3,127.3,0,0,1,306,484.64c-1.87-2-3.39-4-3.73-6.8C302.28,476,302.27,474.19,302.25,472.36Z"/><path class="cls-15" d="M302.3,477.84c3.92,6.8,10,11.5,15.94,16.33,11,9,23,16.42,36.92,20.32a54.5,54.5,0,0,0,24.75.77c11.13-2,21.44-6,29.7-14.08,4.8-4.67,9.81-9.23,13.06-15.26,0,4.52,1.32,8.95.75,13.5-2.7,5.72-7.92,9-12.51,12.93a276.17,276.17,0,0,1-30.11,21.84c-5.69,3.64-8.75,9.76-12.85,14.91a22.92,22.92,0,0,0-4.23,9.55c-1.21-.25-1,1.77-2.28,1.41-.88-9.78-6.65-17-13.64-22.78-9.07-7.52-19.12-13.84-28.54-21-5.64-4.26-10.87-9.07-16.29-13.63C302.84,494.4,303.41,486.1,302.3,477.84Z"/><path class="cls-16" d="M253.64,848.16c-1.61-10-1.58-20.07-2.45-30.1-1.82-20.86-2.44-41.8-4.57-62.64-.28-2.76-.06-5.56-.07-8.35a3.12,3.12,0,0,1,2.32-1.34c5.08-.93,10.23-1.22,15.36-1.66a4.09,4.09,0,0,1,3.65,1.17c2.65.51,2.08,2.85,2.19,4.44,1.74,25.56,3.34,51.12,5.05,76.68.48,7.24,1.45,14.46,1.36,21.75Z"/><path class="cls-17" d="M234.38,573.76c1.75-4.47-.15-8.89-.25-13.34-.11-4.88-.88-9.75-1.36-14.63a168.42,168.42,0,0,1,22.34-8.24c1.92.39,1.82,2,1.89,3.36a13.91,13.91,0,0,0,.66,4.2c2.74,19.29,3.1,38.79,5.16,58.14.62,5.79,1.4,11.57,1.2,17.41a4.26,4.26,0,0,1-2.51,2.83c-4.54,2.07-8.53,5-12.79,7.59a15.66,15.66,0,0,1-2.52.69c-4.83.72-6.95-.88-7.51-5.66-.72-6.23-.16-12.45.32-18.66.8-10.18.5-20.16-4.27-29.52C234.07,576.61,233.57,575.23,234.38,573.76Z"/><path class="cls-18" d="M473.05,371.82a17.44,17.44,0,0,0-4.18,3.58c-2,2.07-4.71,1.17-5.37-1.66a5.72,5.72,0,0,1-.09-2c.82-6.37,1.34-12.81,2.63-19.08.89-4.33.31-8.67,1.2-13a74.81,74.81,0,0,0,1-17.39c-.27-7.95-2-15.7-3.56-23.42a55.43,55.43,0,0,1-1.15-13.38c1.5-.05,2,1.16,2.57,2.16,3.41,6,7.71,11.13,13.26,14.32-7.6-8-12.39-18-15.71-29.12-2.92-9.74-3.77-19.72-5.24-29.65-.12-.78-.34-1.57.25-2.27.22-1.31-.44-2.77.67-3.93,3.84,14.68,6.3,29.78,13.77,43.34,5.85,10.62,13.75,18.76,25.57,22.43,2.3.71,3.14,1.83,3.12,4.22a17.68,17.68,0,0,1-4.89,12.6c-1.1,1.15-2.12,2.35-3.18,3.54-2.84,2.11-6.17,3.4-9.17,5.28a4.66,4.66,0,0,0-2.55,3.54c-.89,8.08-1.91,16.13-4.13,24a5.3,5.3,0,0,0,.06,1.58c1.88,3.24-.72,6.06-.85,9.11C476.18,368.71,475.35,370.83,473.05,371.82Z"/><path class="cls-19" d="M255.86,286.36c-.46,3.65-.71,7.34-1.4,10.95-2.72,14.44-4.29,28.76-2.15,43.59,1.46,10.13,4,20.22,3.58,30.6-.06,1.44.84,3.56-1.31,4.07s-4.45.73-5.94-1.78a27.42,27.42,0,0,0-3.07-3.61.82.82,0,0,1-1.15-.05c-2-4-3.59-8.12-2.94-12.75-2.7-8.71-3-17.85-4.68-26.74-.24-1.27-.93-1.65-1.89-2.22-3.18-1.87-6.59-3.42-9.3-6-4.73-4.13-7.32-9.22-7.26-15.62,0-2.7,1-3.23,3.44-2.37,1.46.52,2.91,1.36,4.59,1a4.83,4.83,0,0,1,3.35-1c9.76-.05,16.15-5.67,21.58-13C252.66,289.64,253.13,287,255.86,286.36Z"/><path class="cls-20" d="M226.38,303.28a13.62,13.62,0,0,1-1.56-.22c-11.38-2.9-14.21-10.65-7.59-20.8a4.34,4.34,0,0,0,.37-4.8c-.93-1.77-1.44-3.7,0-5.54,1.07-1,2.42-1,3.74-1.09,10.68-1.09,19-6.29,25.44-14.7,2.73-3.58,5.95-6.81,7.86-11,.47-1,1.3-2.34,2.7-1.7,1.14.51.92,1.86.61,2.87-3.65,12-6.38,24.49-15.23,34.22-3,3.34-6.86,5.65-11.2,8.29a8.72,8.72,0,0,0,6.22-1.48c5.74-3.19,9.84-8,13.13-13.57,1-1.63,1.92-4.76,3.78-3.95,2.26,1,.5,3.76,0,5.7-1.89,7.71-4.87,14.9-10.43,20.76a25.6,25.6,0,0,1-13.71,7.57C229.11,304.16,227.66,304.34,226.38,303.28Z"/><path class="cls-21" d="M231.36,214.31c7.33-1.32,12.29-6.52,17.71-10.92,7.32-5.93,13.55-13.1,21.11-18.77a157.48,157.48,0,0,1,54.52-26.08A143.29,143.29,0,0,1,369.58,154c13.41.69,26.37,3.29,36.62,12.93,5.43,5.09,9.81,11,9.84,19-2.6-3.13-4.24-6.85-6.8-10-8.09-9.95-18.78-14.89-31.25-16.35a142.11,142.11,0,0,0-60.37,6.27,153.32,153.32,0,0,0-56.73,32.74c-6.74,6.09-12.76,13.26-21.13,17.35-7.07,3.45-14.35,6.44-22.18,1.91-.67-2.66,1.44-1.59,2.37-1.6C223.86,216.15,227.74,216.09,231.36,214.31Z"/><path class="cls-22" d="M559.87,704.64q.07,25.92.14,51.84a11.32,11.32,0,0,1,.49,5.47c-.35,2.77.9,4.83,2,7.28,1.77,4,2.72,8.67.72,13-1,2.14-1.66,4-.88,6.36.69,2.07-1,4-.73,6.19-1.71,7.86-1,15.83-.51,23.7.55,9.93.4,19.84.49,29.76l-7.94,0c0-18.31,0-36.63.09-54.94.17-21.91.32-43.83.91-65.74.22-8.15.17-16.38,1.47-24.49C558.19,701.6,559.09,703,559.87,704.64Z"/><path class="cls-23" d="M471.48,537.72c-.09.86-.18,1.72-.28,2.57a1.37,1.37,0,0,0-1.35,1.19,197.89,197.89,0,0,1-9.93,33.9A226.37,226.37,0,0,1,449,598.75c-11.9,22.6-28,41.89-47,58.71a195.7,195.7,0,0,1-37,25.34c-2.06,1.11-3.66.79-5.55-.22A204.17,204.17,0,0,1,324.67,659c-3.63-3-6.88-6.61-11.24-8.71a4.52,4.52,0,0,1-3.72-4c.3-1.29.08-2.9,2-3.23,3.26,1.61,5.33,4.62,7.95,7a230.88,230.88,0,0,0,41,29.28,3.79,3.79,0,0,0,4.33,0c21.94-12.56,41.32-28.09,57.47-47.75a221.49,221.49,0,0,0,22.15-31.92c10.34-18.37,17.14-38.08,22-58.51.36-1.54.6-3.11.9-4.67C468.72,537.09,470.44,536.4,471.48,537.72Z"/><path class="cls-24" d="M411.59,204.07c-3.11-8.95-8.41-15.55-18.42-17.09-4.22-.64-8.18.61-12,2-9.84,3.54-19.47,7.64-29.36,11-16,5.46-32.44,5.35-49.13,4.55-13.57-.64-26.59,2.34-37.51,11.47-5.15,4.31-9.79,9.27-15.72,12.7-1-1.29,0-2.15.59-2.86,10.43-13.21,23-23.19,40.26-25.47,9.2-1.21,18.52-.24,27.79-.24,15,0,29.35-3.59,43.24-9.18,7.87-3.16,15.67-6.5,24.11-8.08,13.2-2.49,27.19,8.13,27.72,21.27l-.83,0A4.55,4.55,0,0,1,411.59,204.07Z"/><path class="cls-25" d="M226.38,303.28c12.65-.61,20.64-9,25.43-21.78a71.53,71.53,0,0,0,2.82-11.14c-3.22,4.87-6.12,9.91-10.48,13.89a33.31,33.31,0,0,1-9.05,5.68c-2.06.92-4.1.74-6.42-1.15,20.14-8.38,23.35-27.17,28.37-44.88-2.7,5.16-6.45,9.57-10.13,14-7.59,9.11-17.06,14.54-29.3,14,0-1,0-2,0-3,12.45-.32,20.49-8.09,27.8-16.81,5.87-7,11.58-14.08,18.42-20.15,1,4.43-1.1,8.47-1.63,12.71-1.29,10.17-2.5,20.34-3.93,30.49-.53,3.77-1.59,7.46-2.41,11.18-5.14,8.64-10.88,16.55-21.59,18.81a31.15,31.15,0,0,1-7.89.24Z"/><path class="cls-26" d="M477.08,816.43c1.66,4.19.27,8.39-.2,12.51-.74,6.44.07,13-1.48,19.33H452.29c.1-11.68,1.88-23.28,1.73-35,1-1.39,2.48-1.42,3.9-1.25,5.47.66,10.86,1.81,16.33,2.49A3.42,3.42,0,0,1,477.08,816.43Z"/><path class="cls-27" d="M216,786.11c5.34,0,5.44.15,3,4.95-5.61,11.25-11.87,22.14-18.26,33-1.07,1.8-2.38,3.53-2.48,5.77-1.75,6.28-6,11.17-9.23,16.65-1.12,1.9-3.43,1-5,1.88l-15-.2q10.63-14.05,21.28-28.12c5-6.62,10-13.27,15-19.86,2.63-3.45,5.41-6.79,8.12-10.18C214.31,788.66,214,786.62,216,786.11Z"/><path class="cls-28" d="M148.07,588.8c2,.18,2.12,1.74,2.41,3.16,5.47,27.48,9.35,55.23,14.35,82.79,1.37,7.54,2.7,15.09,3.87,22.67.41,2.66,1.2,5.68-2.45,7.39-2.25-2.89-1.42-6.53-2-9.73-3.9-22.39-7.53-44.82-11.13-67.26-2-12.66-3.82-25.36-5.71-38Z"/><path class="cls-29" d="M559.87,704.64c-1.13-.82-2.14-1.93-3.76-1.57,2.45-12.56,3.69-25.3,5.53-38,2.76-18.92,5.91-37.79,8.58-56.72.77-5.5,1.64-11,2.49-16.45.17-1.09.16-2.17,1.63-2.25l.85,1.55c.39,8.8-1.66,17.35-2.77,26-1.61,12.56-3.45,25.09-5.28,37.63-1.64,11.23-3.43,22.44-5.09,33.67C561.26,693.9,560.59,699.27,559.87,704.64Z"/><path class="cls-30" d="M256.62,545.09c-1.76-2.26.63-5.35-1.52-7.53,1-.66,1.87-1.44,3.16-1.24,3.3,10.85,6.53,21.71,10.38,32.4,6.22,17.3,14.7,33.4,24.43,48.91.73,1.16,2.74,2.13,1.12,4-1.71,1.07-2.82,0-3.95-1.08-14.22-19-23.06-40.68-30.3-63.06a67.48,67.48,0,0,1-2.88-17.87C256.59,541.43,258.3,543.33,256.62,545.09Z"/><path class="cls-31" d="M474.9,268.85c6.28,9.59,15.52,14.75,25.85,18.39,3.27,1.16,5.8,8.46,3.84,11.3-1.21,1.75-3,1.3-4.67.69-9-3.25-14.94-9.83-19.67-17.72A44.92,44.92,0,0,1,474.9,268.85Z"/><path class="cls-32" d="M184.1,848.31c5.38-1.27,6.16-6.67,9-10.2a82.72,82.72,0,0,0,5.23-8.33c0,4.88,0,9.76.14,14.64a4.07,4.07,0,0,1-1.62,3.77Z"/><path class="cls-33" d="M289.41,393.34c-4.33-1-8.79-.91-13.05-2.79-9.44-4.14-13.46-12.85-12.45-23.33.92-9.42,6.53-14.94,16.39-17.12,13.9-3.08,23.09,6.42,22.71,18.58-.09,2.65,0,5.3,0,8,0,1.27-.34,2.78,1.58,3.11.35,1.59-1,2.05-1.92,2.58-4.39,2.5-8.29,5.49-11,9.85C291.18,392.91,290.55,393.73,289.41,393.34Z"/><path class="cls-34" d="M416.3,379.68c1-1.59.7-3.2.4-5-1.42-8.36,0-16.27,7-21.52,6.65-5,14.35-5.26,21.79-1.11,12.55,7,13.89,25.72,2.68,34.7-4.09,3.27-8.17,5.87-13.71,4.52-1.62-.4-2,.85-2.25,2.11a1.53,1.53,0,0,1-1.75-.55c-3.4-5.19-8.57-8.34-13.42-11.85A1.92,1.92,0,0,1,416.3,379.68Z"/><path class="cls-35" d="M507.29,360.67c2.06,3.35.48,6.84-.13,10-2.33,12.15-8.44,21.44-21.3,24.46-3.94.92-8.06,1.3-12.05-.23a3.4,3.4,0,0,1,2.87-1.07c5.93-.13,9.18-3.81,11-8.82,1.88-5.28,1.63-10.37-2.86-14.63-3.54-3.36-3.49-3.51-.37-7.48,2.38-3,4.17-6.46,6.68-9.37s4.1-3.07,7.28-1.27a17.47,17.47,0,0,1,6.89,7.48C505.66,360.53,505.82,362.16,507.29,360.67Z"/><path class="cls-36" d="M270.93,220.86l-5.44.64c2.87-3,6.73-3.67,10.53-4.57,8.41-2,16.29,1.08,24.19,2.82,22.53,5,43.37,1.76,62.75-11,3.75-2.47,7.57-4.86,11.17-7.52,2.45-1.81,1.68.56,2.22,1.29-5,4.17-8.91,9.39-14.23,13.19a71.31,71.31,0,0,1-32.81,12.56c-12.1,1.6-23.69-.36-35.18-3.46-6.56-1.76-12.85-4.6-19.8-4.66C273.15,220.15,271.92,219.93,270.93,220.86Z"/><path class="cls-37" d="M243.21,395c-7.05,2.24-13.53.26-19.05-3.8a28.4,28.4,0,0,1-12.11-22.65c1.17-5.18,2.42-10.27,6.31-14.3s6.69-4.28,10.67-.16c3.06,3.17,5.06,7.12,7.69,10.61,1.86,2.47-.46,4.07-2.06,5.64-4.76,4.68-6,9.6-3.49,15a16.37,16.37,0,0,0,9.27,8.26C241.4,394,242.56,394,243.21,395Z"/><path class="cls-38" d="M410.79,414.15c-3,6.49-9.3,7.37-15.12,8.63-17.81,3.87-35.91,2.64-53.92,2.31A77.4,77.4,0,0,1,319.56,421a15.25,15.25,0,0,1-9.93-8.7c-3.14,4.18-2.78,8.46-2.49,12.72.05.65.55,1.3.48,1.91-.17,1.45,2,3.58-.21,4.17-2.55.68-2.45-2.16-2.88-3.78a28.12,28.12,0,0,1,1.12-17.54,11.67,11.67,0,0,1,3.21-4.49c1.16-1.06,2.46-2,3.78-.62s-.47,2.08-1.19,2.77c-1.72,1.65-1.34,2.67.41,4.1,6.3,5.11,13.9,6.22,21.52,7.34a205.63,205.63,0,0,0,40.89,1.38c10.48-.56,21.19-.87,31-5.58,1.88-.9,3.64-2.06,5.46-3.1A2.24,2.24,0,0,1,410.79,414.15Z"/><path class="cls-39" d="M341.2,370.24c.44-13.2,3.94-24.35,6.79-35.61,1.44-5.64,2.93-11.29,4.78-16.8,1.38-4.11,1.06-8.4,2-12.53.35-1.51.18-3.7,2.26-3.46,1.8.22,1.76,2.34,1.81,3.94.19,6.31-1.28,12.38-3,18.35-3.26,11.59-6.73,23.12-8.64,35-1,6.38-2.07,12.79.8,19.12,2.58,5.69,8.44,10.25,16.25,6.3,1.32-.67,3.4-3.13,4.69-.53s-1.05,4-3.17,5.08c-9,4.62-19,.7-22.68-9C341.74,376.47,340.91,372.72,341.2,370.24Z"/><path class="cls-40" d="M362.84,238.42c15.64.62,32.09,1.83,47.93,7.23a26.78,26.78,0,0,1,7.78,3.89c.85.65,2,1.25,1.44,2.49-.66,1.43-1.81.56-2.73.17-5.89-2.46-12.1-3.81-18.28-5.3a125.21,125.21,0,0,0-23.51-3.42c-23.94-1.11-47.68,0-70.56,8.33-1.44.52-3.79,2.26-4.6.46s1.76-2.88,3.34-3.67c8.52-4.27,17.82-5.95,27.06-7.58C341,239.2,351.46,238.66,362.84,238.42Z"/><path class="cls-41" d="M243.21,395c-9,.31-17.55-10.79-13.46-20.82,1-2.51,3.43-4,5.36-5.81.89-.82,2.35-1.63,1.13-2.81-3.85-3.72-5.56-9.06-9.76-12.51-1.58-1.29-2.91-1.57-4.62-.36-3.86,2.71-6.05,6.51-7.55,10.85-.6,1.73-.76,3.68-2.26,5-.53-6.88-.29-13.46,5.36-18.65,5-4.63,11.66-5,16.77-.28,2.61,2.39,4.88,5.16,7.31,7.75a91.64,91.64,0,0,1,3.32,12.76c.13,2.42-2,2-3.28,2.53-2.72,1.2-6,1.66-6.65,5.44-.75,4.21.92,7.49,5,9.27,1.69.74,3.57,1.17,4.85,2.6,1.43,1.58,2.55,3.25,0,4.9Z"/><path class="cls-42" d="M507.29,360.67v3.2c-1.85,0-2-1.26-2.44-2.33a17.23,17.23,0,0,0-7.28-8.61c-2.25-1.38-3.89-1-5.46,1-3,3.85-5.18,8.29-8.65,11.8-1.08,1.09-.37,1.64.52,2.49,8,7.7,7.76,17.1-.4,24.59-3,2.75-6.41,1.93-9.77,2.13h0c-1.61-3.92,1.55-5.16,3.94-6.48,2.9-1.61,5.27-3.47,6.27-6.76,1.15-3.75.58-5.62-2.93-7.54-2.92-1.59-4.7-3.76-4.92-7.11-.46-3.36,1.72-6.25,1.74-9.53,2.77-3.66,5.63-7.35,9.85-9.37,7.86-3.76,15.93-.05,18.57,8.32C506.75,357.82,507,359.26,507.29,360.67Z"/><path class="cls-43" d="M412.94,265.13c-.35,1.9-1.74,1.37-3,.91a76.67,76.67,0,0,0-13.82-3.57,171.64,171.64,0,0,0-28-2.56c-17.93-.07-35.76.43-53.24,5-1.4.37-2.79.81-4.18,1.24-1.16.35-2.6.86-3.1-.58s1.14-1.56,2-2a57.85,57.85,0,0,1,16.66-5,211.54,211.54,0,0,1,47.55-2.31c11.57.69,23.29,1.14,34.33,5.49C411.44,263,412.81,263.91,412.94,265.13Z"/><path class="cls-44" d="M289.41,393.34c3.64-6.11,9.18-10.1,15.17-13.59,1.17-.33,2.46-1.64,3.47.12.77,1.33-.53,2.18-1.1,3.16-.84,1.45-2.39,2.11-3.73,2.89-9.19,5.4-13.22,13.66-13.81,24-.7,12.33,2,23.93,7.24,35,.45,1,.83,2,1.21,2.94a1.78,1.78,0,0,1-.64,2.45c-1.06.63-1.85-.1-2.32-.87a48.79,48.79,0,0,1-4.08-7.28C284.55,426.11,281.62,409.87,289.41,393.34Z"/><path class="cls-45" d="M416.3,379.68a41.73,41.73,0,0,1,15.92,13.73c8.73,19.36,3.62,37.42-5.19,55.13-.49,1-1,2.55-2.56,1.71s-1-2.25-.47-3.52a146.44,146.44,0,0,0,6.07-17.65c2.11-8.56,3.24-17.16,1.37-25.92-1.46-6.87-5.44-12-11.09-15.9-2.06-1.44-4.13-2.87-6.12-4.41a2.08,2.08,0,0,1-.71-2.83C414.25,378.74,415.31,379.29,416.3,379.68Z"/><path class="cls-46" d="M476.16,367c1.54,3.79,4.77,5.66,8,7.76,2.61,1.66,2,7.27-.72,10.78a10.9,10.9,0,0,1-5,3.73c-2.6.94-4.62,2.52-4.71,5.62-5.09.07-5.5-.42-4.46-5.36q1.86-8.87,3.71-17.74Z"/><path class="cls-47" d="M244.74,394.88c1.91-3.92-1-4.94-3.7-5.76-4-1.22-7-3.24-7.46-7.65-.64-6.15,2.51-9.74,9-10.25,1.07-.08,1.74-.17,2.22-1.08l.76,0q2.28,9.13,4.57,18.25C251.8,395.07,251.8,395.07,244.74,394.88Z"/><path class="cls-48" d="M458.63,240.92c1.94,11.19,3.1,22.54,6.55,33.42,3.15,10,7.47,19.28,15,26.76a29.24,29.24,0,0,1,2.93,2.63c-6.14-.09-11.4-5.16-19.64-18.25-.77-5.59-3.1-10.84-3.44-16.55-.29-5.1-1-10.18-1.35-15.27a71.26,71.26,0,0,0-.75-8.24C457.69,244,457.31,242.25,458.63,240.92Z"/><path class="cls-49" d="M410.79,414.15c0-.85-.05-1.7-.07-2.55,1.52-2.56-1.06-3.42-2.06-4.92-.37-.55-1.05-1.12-.56-1.7a2.31,2.31,0,0,1,1.79-.5c2.56.28,3.89,2.24,4.9,4.23A29.55,29.55,0,0,1,417,429.53c-.27,1.15-.86,2.14-2.09,1.94-1.45-.23-1.06-1.6-1.06-2.61,0-5.54.49-11.13-1.7-16.64Z"/><path class="cls-50" d="M377.42,366c5.38,2.29,7,10.13,3.36,13.57-.33.31-1,.63-1.34.48-.91-.41-.67-1.34-.45-2.05C380.2,374.06,379.73,370.28,377.42,366Z"/><path class="cls-51" d="M234.38,573.76c8.26,14.16,6.19,29.58,5.28,44.8a43.81,43.81,0,0,0,.4,9.05c.49,3.33,3.15,4.22,6.32,3,1,1.52,0,2.81-.56,4.11-3.29,8.1-1.48,14.54,5.77,19.37,2.37,1.58,3.2,3.3,2.34,6-1.72,5.35-.54,10.2,2.68,14.7,2.63,3.67,2.37,11.78-.37,15.2a4.27,4.27,0,0,1-3.21,1.34c-1.55.16-3.15,0-4.8.76,8.57-2.09,11,5.61,15.66,9.59,1.21,1,.61,2.72.3,4.17-2.36,10.81,3.16,19.21,14.1,20.69a35.48,35.48,0,0,1,14.38,4.91c.57,0,.33,0,.1-.21-4.26-4.49-9.9-5.77-15.66-7a14.26,14.26,0,0,1-10.46-8.44c-2.49-5.57-1-11.2,4.61-13.37,11-4.25,22.42-6.8,34.2-2.65,1.48.52,3.13.86,3.85,2.55,2.66,2.33,5.53,4.48,6.52,8.16,1.93,7.12-2.05,15.93-9.6,19.41-4.21,1.94-7.66,4.93-11.78,7a71.78,71.78,0,0,1-24.8,7.66,6.87,6.87,0,0,0-1.77.68l-21.33,1.83a17.57,17.57,0,0,1-6.53.55,86,86,0,0,1-9.44,1.31c-1.2.12-2.4,0-3.2,1.16-2.39.65-3.13-1.26-4.2-2.68-3.77-5.91-8-11.48-12.35-17a144.06,144.06,0,0,1-14.76-22.57,19.22,19.22,0,0,0-6.6-7.14c7.91-7.28,11-16.93,13.28-27,.85-3.76,1.45-7.56,2.19-11.33,2.28-11.72,5.58-23.23,7.3-35.06,2.43-16.8,3-33.53-2-50.07a15.49,15.49,0,0,0-3.78-6c3.68-6.85,14.44-8.63,21.48-3.4A82.54,82.54,0,0,1,234.38,573.76Z"/><path class="cls-52" d="M310.15,646.29l3.28,4c4.9,7,5.22,14.36,1,21.11-.68,1.1-1.22,2.07-2.72,1.42-3.5-.6-6.47-2.58-10.15-3.09-7.85-1.09-15,.84-22.15,3.38a37.12,37.12,0,0,1-13.6,2.37c-5.7-.15-9.07-2.63-10-8.18-.74-4.38-.14-8.95,3.23-11.83,10-8.59,21.13-15.19,35-15,5.41.07,10.27,2.37,15.21,4.25C309.86,645.07,310.32,645.51,310.15,646.29Z"/><path class="cls-53" d="M310.1,674.48a33.7,33.7,0,0,0,3,2.46c8.85,5.57,7,18.2.3,23.39-1.55,1.19-2.26.61-3.23-.38-3.18.17-5.68-1.93-8.65-2.59-9.28-2.05-18.18-.45-27.06,2.1-5.15,1.47-9.77.71-13.3-3.65a10.52,10.52,0,0,1,4.13-16.57,121.86,121.86,0,0,1,33.5-8.29C302.79,670.58,307.14,670.79,310.1,674.48Z"/><path class="cls-54" d="M310.1,674.48c-9.45-4.5-18.71-1.34-28,.78a127.44,127.44,0,0,0-14.81,4.5c-5.45,2-8.88,7.54-7.14,12.34,1.95,5.39,8.07,8,13.69,6.26,9.57-3,19.26-4.65,29.28-2a20.49,20.49,0,0,1,7,3.54,2.62,2.62,0,0,1-.9,2.39c-11.64-5.39-23.28-3.25-34.95-.07-4.06,1.1-7.16,3.46-7.76,7.6-.57,4,1.44,7.43,4.45,10.13s6.84,3.56,10.6,4.09c4,.56,7.35,1.71,10,5,1,1.27,2.78,1.94,4.38,3-2.14,1.06-4.34.95-5.85-.39-3.67-3.29-8.19-3.41-12.59-3.89-9.06-1-18.66-10.6-14.24-22.83.59-1.66.55-2.78-1.13-3.61a4.28,4.28,0,0,1-1.57-1.2c-3.32-4.75-7.2-8.3-13.65-6.84a1.58,1.58,0,0,1-1.87-1.16c-.22-1.1.85-1.12,1.57-1.36.38-.12.81-.4,1.14-.31,8.14,2.08,8.3-4.52,10.19-9.29.72-1.83-.19-2.94-1.26-4.24-4.41-5.34-6.45-11.19-3.56-18a2.14,2.14,0,0,0-.85-3c-10.33-7.22-11.73-12.82-6.24-24.16a6.27,6.27,0,0,0,.3-1.15l2.34-.24c1.23,1.74,0,3.34-.43,4.9a11.65,11.65,0,0,0,1.64,10.25c3.22,4.8,5.93,5.36,11,2.65,6.18-3.32,11.84-7.81,18.91-9.17,9.17-1.76,18.21-1.38,26.73,3,1.44.75,3.28,1.43,3.11,3.67-1.94,0-3.55-1-5.24-1.75-10.08-4.29-19.77-2.41-29.1,2.12a63.59,63.59,0,0,0-14.65,9.43c-4.61,4.1-5.3,12.28-1.24,16.84,1.8,2,4.13,2,6.56,2.09,6.12.32,11.66-1.88,17.18-3.9,6.93-2.53,14-2.65,21.11-1.78a11.1,11.1,0,0,1,7.47,4.09C311.19,673.36,310.64,673.92,310.1,674.48Z"/><path class="cls-55" d="M477.08,816.43c-7.69-1-15.22-3.24-23.07-3.12-1-.31-2-.64-2.95-.93-.5-.14-1.27,0-1.49-.32-2.58-3.55-.29-7.25,0-10.82.21-2.65,2.65-1.69,4.41-1.27.49.12,1,.16,1.51.24l23.14,3.31c4.09,0,5.6,2.09,4.83,6a13,13,0,0,0-.07,2C483.18,817.8,483.05,817.91,477.08,816.43Z"/><path class="cls-56" d="M224,747a7.91,7.91,0,0,0,3.28,3c.29-.19.49-.13.59.21.31.89,1.48,1.81.47,2.7-1.16,1-2.35-.26-3.55-.4-.36.42-.61.36-.75-.17l-13.46-12-.55,0c-3.05-1.26-4.23-4.37-6.44-6.47a11.22,11.22,0,0,1-1-1.27c-1.58-2.21-3.15-4.42-4.69-6.65-.64-.86-1.32-1.69-1.92-2.57-1.56-2.37-2.88-4.89-4.53-7.2a11.82,11.82,0,0,1-1-1.92c-1-3-3-5.49-3.79-8.52,0-.18,0-.37,0-.55-2.13-4-1.53-7,2.23-10.14a24.57,24.57,0,0,0,8.47-14.85c3.27-16.87,7.2-33.61,10.52-50.47,3.44-17.39,2.44-34.74-1.73-51.92-.55-2.29-.73-4.43.4-6.56,2.82-.5,3.78,1.46,4.42,3.55,4.26,13.86,5,27.94,3.76,42.4-1.44,17.11-6.52,33.43-9.48,50.19a132.07,132.07,0,0,1-5.61,21c-1.95,5.51-5.75,9.24-9.7,13.06a11.41,11.41,0,0,1,2.76,3.84c6.92,14,16.45,26.16,27.46,37.19A38.65,38.65,0,0,1,224,747Z"/><path class="cls-57" d="M216,786.11c-.92,1.23-1.08,3-2.53,3.84-.05-.69-.19-1.27-1-1.44-16.2-3.25-29.94-11.33-41.52-22.72-11.19-11-19.4-24-22.22-39.91,0-.13-.08-.25-.11-.38-.54-1.93-.2-4.6,1.29-4.87,2.37-.43,1.2,2.58,2,3.91.49.81.24,2.07.32,3.12.65.67,1.55,1.13,1.81,2.14,1,2.59,1.77,5.23,2.9,7.76a10.83,10.83,0,0,0,1.45,2.83,64,64,0,0,0,5.53,9.1,14.93,14.93,0,0,1,.9,1.34c1.72,3.41,4.58,5.95,6.86,8.92.62.65,1.23,1.28,1.87,1.9,2.64,2.37,5.57,4.41,7.93,7.1.06.17.13.34.2.51a19.18,19.18,0,0,0,10.4,7.2l0,0c5.85,4.9,13,6.8,20.16,8.69Z"/><path class="cls-58" d="M74.63,761.71a37.38,37.38,0,0,1,17.13-8.93,37,37,0,0,1,18,.49c.9.25,1.92.33,2.07,1.48.13,1-.71,1.32-1.34,1.79a39.48,39.48,0,0,0-6.94,5.9c-1.32,1.56-3.14,1.43-4.79,1.1-6.75-1.34-13.55-.79-20.34-.85A19.28,19.28,0,0,1,74.63,761.71Z"/><path class="cls-59" d="M77.61,815a32.42,32.42,0,0,1,.22-23.82A40.71,40.71,0,0,1,92.23,773c.68,1.11.58,1.52-.45,4C87,788.22,82,799.41,78.86,811.29,78.52,812.55,78,813.77,77.61,815Z"/><path class="cls-60" d="M57,833.43c-2.53-5.74-2-10.54-1.2-15a47.19,47.19,0,0,1,13.59-25.78c.82-.8,1.77-2.3,2.92-1.49,1.52,1.08-.36,2-.83,2.91-5.19,9.64-8.29,20-10.57,30.62C60.29,827.44,57.83,829.45,57,833.43Z"/><path class="cls-61" d="M153.11,730.23l-.9-2.57c5.5-2.09,9.28-6.79,14.49-9.42,7.08-3.58,13.46-8.34,19.88-13l0,.06c1.06,2-.29,3.2-1.58,4.4-6.15,5.75-13.67,9.62-20.24,14.78-1.67,1.31-3.41,2.53-5.06,3.86C157.81,729.88,155.69,730.94,153.11,730.23Z"/><path class="cls-62" d="M561.56,755.68c3.72-10.53,4.83-22.51,16.94-29.58-1.78,16.85-3.94,32.75-9.76,47.95-2.58-1.47-1.94-4-1-5.67,1.56-2.83.43-4.41-1.51-6.07-1.5-1.28-2.89-2.8-1.13-4.64,1.2-1.26,1.22-2.14.09-3.18-1.59-1.48-1.47,1.08-2.48,1.13C562.32,755.63,562,755.86,561.56,755.68Z"/><path class="cls-63" d="M561.56,755.68c1.45-1.28,1.87-3.59,4.24-4.09.83.86-1.12,2.66,1.16,3.35,2.66.8,1.84,1.75-.21,2.64-1.86.8-2.67,1.62-.37,3.47s6.18,3.83,2,7.91c-.8.79.16,3.35.31,5.09-1.35,7.27-4.53,13.91-7.14,20.75-1.15-1-.8-2.1-.39-3.25a4.31,4.31,0,0,0-.53-4.47c-1.07-1.33-.25-2.29.47-3.5,1.72-2.9,3.91-5.93.27-9.05-.17-.15-.35-.61-.3-.66,3.83-3.34-1.1-4.51-1.58-6.75a25.19,25.19,0,0,1,.47-10.64Z"/><path class="cls-64" d="M309.65,645.67c-4.27-3.91-9.39-5.29-15.08-5.93-6.84-.77-13.48-.87-19.76,2.08-4.78,2.26-9.34,5-13.94,7.62-5.11,2.91-7.89,2.24-11.56-2.58-4.13-5.42-2.9-10.9-.59-16.47,4-4.17,9.25-6.36,14.27-8.89.66-.74.85-1.78,2.11-2.12,6.53-1.74,13.1-2.86,19.89-2.06a10,10,0,0,1,6,2.73l3.22,1.58a25.21,25.21,0,0,1,12.07,6.19c4.2,4.1,5.58,9.42,5.4,15.19-1.43.66.06,2.68-1.51,3.28Z"/><path class="cls-65" d="M361.44,560.06c.21-.57.43-1.14.61-1.72s-.26-1.49.63-1.46.85,1.07,1,1.77c1.34,4.15.69,8.44.73,12.66.13,12.25-.17,24.51.18,36.75.36,12.78-.22,25.53-.18,38.29-1.92,1.61-3.38.54-4.79-.81,2.64-.62,1.57-2.79,1.57-4.26q.12-38.82.09-77.64C361.32,562.45,361.4,561.25,361.44,560.06Z"/><path class="cls-66" d="M408.15,592.93c-4.75-2.48-8-6.4-11.48-10.13-8-8.66-15.61-17.64-23.57-26.32-2.29-2.49-2.33-4.45-.11-6.76,1.28-1.34,2.93-2.52,3.7-4.12,1.94-4,3.24-2.54,4.79.17,8.51,14.91,17.83,29.35,25.62,44.66C407.51,591.24,407.81,592.1,408.15,592.93Z"/><path class="cls-67" d="M317.85,594.32c-.61-2,.41-3,1-4.14,7.63-13.25,15.33-26.46,22.9-39.74,5-8.83,5-8.88,11-.8,3.66,4.87,2.94,4.63-1.22,9.22-4.78,5.29-9.78,10.37-14.54,15.68C331,581.3,325.2,588.32,317.85,594.32Z"/><path class="cls-68" d="M210.55,740.43c-5.13,8.22-12.49,14.37-19.43,20.9-3,2.82-4.79,7.09-9.45,7.93h0c-1.19-2.52.64-4.2,2.12-5.36,3.66-2.89,6.25-6.73,9.54-9.94,4.34-4.23,9.19-7.91,13.34-12.36,1-1.05,2.15-2.05,3.81-1.22Z"/><path class="cls-69" d="M227.84,750.25a2.19,2.19,0,0,1-.59-.21c.1-1,.46-2,1.49-2.07,3.76-.1,7.47-1.8,11.28-.35.22,1.82.54,3.63.65,5.46.2,3.34-.72,3.8-4,3C232.94,755.19,230.67,752.36,227.84,750.25Z"/><path class="cls-70" d="M224,752.38a6.74,6.74,0,0,1,.75.17c.72,2.55-.25,4.42-1.87,6.46C217.38,766,211,772.2,206,779.57a2.15,2.15,0,0,1-2.78,1.12C209.24,770.43,217.29,761.88,224,752.38Z"/><path class="cls-57" d="M192.07,776.46c.14-2.24,2.06-3.35,3.27-4.82,6.55-7.93,13.13-15.86,21.47-23.39-1.43,3.84-3.79,6.06-5.63,8.56-5,6.82-11,12.8-17,18.79a2.62,2.62,0,0,1-2.14.82Z"/><path class="cls-71" d="M215.53,783.47c-1.53-.46-1.06-1.4-.49-2.41,2.08-3.69,4.62-7.06,7-10.53,2.77-4,5.21-8.22,7.8-12.34.46-.74.73-2,1.93-1.47,1.46.68.16,1.5-.17,2.22-2,4.46-4.17,8.78-7.62,12.41-2.9,3.06-3.43,7.71-6.67,10.63C216.77,782.49,216.58,783.42,215.53,783.47Z"/><path class="cls-72" d="M291,620.05c-9.52-3.28-18.78-1.57-28,1.45-1.24-14.31-2.55-28.61-3.71-42.92-.73-8.94-1.22-17.9-1.87-26.84-.16-2.23-.52-4.44-.79-6.65.08-1.85.16-3.69.25-5.54,2,7.71,3.38,15.53,6,23.09,6.78,19.39,14.51,38.26,26.75,55A21.11,21.11,0,0,1,291,620.05Z"/><path class="cls-73" d="M224,747c-11.63-9.3-20.39-21-28.24-33.49a49,49,0,0,1-5.87-12c2.11-1.16,3.43-.87,4.68,1.52,6.09,11.64,13.63,22.31,21.66,32.69C219,739.32,222.32,742.63,224,747Z"/><path class="cls-74" d="M218,695.92c1.88-1.62,3.68-3.34,5.65-4.84,9.11-7,13.74-16.51,16.16-27.39.26-1.17-.29-3.06,1.8-2.88,2.27.19,1.53,2.2,1.48,3.45a34.32,34.32,0,0,1-12.68,25.87C226.93,693.09,223.05,695.6,218,695.92Z"/><path class="cls-75" d="M171.29,760.35c-2.86-2.83-6-5.46-7.32-9.46,3-3.41,7.26-5.1,10.6-8.09,6.29-5.62,13.48-10.18,19.33-16.34,1.29-1.36,2.73-2.05,4.59-1.15q2.46,3.53,4.93,7c-1.86,3.37-5.29,5.1-8.07,7.45-7.7,6.47-15.31,13-22.67,19.88A2.38,2.38,0,0,1,171.29,760.35Z"/><path class="cls-12" d="M210.49,740.39c-4.52,1.94-7.08,6.19-10.7,9.2-6.32,5.23-11.8,11.38-17.19,17.57a7.75,7.75,0,0,0-.92,2.11c-3.65-1.53-6-4.6-8.81-7.19-.13-2.5,1.87-3.7,3.39-5,8.53-7.06,16.36-14.89,24.69-22.17.93-.81,1.67-2.12,3.27-1.67Z"/><path class="cls-75" d="M163.32,750.1c-2.34-2.93-4.63-5.9-5.67-9.59,3.82-4.6,9.33-7,14-10.35,5.61-4,11.09-8.25,16.54-12.49,1.15-.9,2.15-2,3.81-1.86,2,2.11,3.3,4.7,4.74,7.18-1.17,3.52-4.33,5.2-7,7.18-5.61,4.18-11.28,8.26-16.68,12.72C170,745.47,166.36,747.38,163.32,750.1Z"/><path class="cls-7" d="M153.11,730.23c8.17-3,14-9.44,21.22-13.91,3.68-2.28,7.43-4.49,10.4-7.78.9-1,1.93-1.75,1.88-3.23a25.91,25.91,0,0,1,4.68,8.85c-2.91,4.27-7.53,6.46-11.57,9.32-5.37,3.8-10.51,7.94-16.26,11.2a5.69,5.69,0,0,0-2.1,2.3c-1.29,2.27-3,2.79-5.2,1.11Z"/><path class="cls-76" d="M156.16,738.09c4.54,1.52,5-3.43,7.53-5,9.44-5.92,18.43-12.54,27.6-18.9l.75,1.65c-10.18,9.15-21.75,16.41-32.88,24.27a4.89,4.89,0,0,1-1.51.43A2.39,2.39,0,0,1,156.16,738.09Z"/><path class="cls-77" d="M163.32,750.1a9.49,9.49,0,0,1,4.35-5c5.91-3,10.47-7.92,15.78-11.78,4.54-3.3,9.74-5.84,13.33-10.38l1.71,2.32a6.08,6.08,0,0,0-4,2c-6.93,7.09-15.16,12.64-22.72,19a30.09,30.09,0,0,1-7.83,4.59Z"/><path class="cls-78" d="M204.22,733.28c-4.66,4.25-9.56,8.27-13.93,12.79-5.51,5.69-12.19,10-17.42,16a2.85,2.85,0,0,1-1.58-1.73c2-4.11,6-6.27,9.15-9.2C187,745,194.11,739.49,201,733.75a17.18,17.18,0,0,1,2.4-1.41C203.68,732.66,204,733,204.22,733.28Z"/><path class="cls-79" d="M386.77,274.63c5-.85,18.46.94,23.69,2.18,7.75,1.83,24.13,9.23,26.63,17.43,2.22,7.29-9.44,1.24-12.49.34a148.43,148.43,0,0,0-15.16-4c-5.83-1-24.61-1.53-28-5.22C377.28,280.79,381.4,275.54,386.77,274.63Z"/><path class="cls-80" d="M328,285.75c-3.26,3.14-12.66,2.78-17.25,3.49a188.69,188.69,0,0,0-23.87,4.85c-2.48.72-12.05,5.42-13.53,3.33,3.13-13,19.34-19.16,31.23-21.37,5.38-1,17.47-2.73,22.17-.44C330.9,277.64,331.16,282.7,328,285.75Z"/><path class="cls-81" d="M429.7,325.74c-.05.06.76,1,.06,1.59-1.19,1-3.44.64-3.95,1.34-1.35,1.86.33,6.78-1.51,8.57-1.1,1.07-2.81.53-4.17.62a19.94,19.94,0,0,0-2.77,0c-.79.22-.31,1.2-.42,1.31-2.44,2.58-6.24-1.51-8.13-2.4A33.47,33.47,0,0,0,401,334c-.17-1.11,1.19-.55,1.91-.64,9.87-1.13,15.29-9.34,11.53-18.87-.57-1.45-2-1.94-1.95-3.46,2.35,2.65,5.78,3.85,8.29,6.05C423.78,319.74,425.81,325,429.7,325.74Z"/><path class="cls-5" d="M324.39,320c0,.32-1.17,1.4-1.31,2.84-.36,3.76-.67,8.83-.06,12.41a3.48,3.48,0,0,0-1.18.71c-.24,2.48-4.23,4.34-6.38,3.19-5.89.67-2.85-.92-4.25-4.32-.39-.95-1.76-1.06-2.13-2.06,2.17-.94,7-7,7.51-9.4a15.79,15.79,0,0,0-3-12.3C314.39,310.26,324.43,318.8,324.39,320Z"/><path class="cls-82" d="M429.7,325.74q-2,2-5-1.89c-.12-1-8-9.47-8.49-8.08,3.21,8.48-4.22,20.25-13.3,17.62-4.36-1.48-7.16-3-8.64-7.63-1.81-5.74.52-9.67,2.89-14.7-1.11-1.3-10.83,8.3-11.49,8.61-1,.47-3.1.46-3.17-.63A50,50,0,0,1,386,313c10.59-13.84,29.25-10.07,39.92,1.59,1.79,1.95,6.53,7.56,5.66,10.16C431.2,325.76,429.82,325.61,429.7,325.74Z"/><path class="cls-83" d="M289.29,315.52a2.1,2.1,0,0,1,.37.79c.1.52-4.59,7.48-5.44,8.25-1.4,1.26-4.07,3.55-5.14,1.18,0-.11-1.28-.4-1.28-1.56,0-1,.91-2,1.28-2.91,2.06-1.63,5.24-6,7.66-8.3C289.07,312.76,287.68,315,289.29,315.52Z"/><path class="cls-84" d="M324.39,320l-1.35.11-6-5.54c2,5.73,1.41,9.05-1.85,13.91-1.13,1.7-4.23,5.86-6.08,4.29-.31,3.33-6.79,1.8-9.12.72s-7.28-4.66-4.92-7.11a2,2,0,0,1-.86.05c-1-.21-2.77-12.09,4.34-9,3.5-.25.26-6.64-3.19-3.3q-3.7,2.3-6,1.38-2,1.28-2.55-2.55c10.05-9.63,25.72-13.74,36.07-1.92C324.31,312.77,331,321.31,324.39,320Z"/><path class="cls-82" d="M295.22,311.86s-2.37,6.18-2,10.94,1.12,6.26,2.76,7.93,12.3-2.32,12.3-2.32l.79-4.39v-7.95l-3.36-5-2.85-1.21Z"/><path class="cls-85" d="M585.85,261.49c-.52.09-.67,1.33-1.23-.49-1.19,1.31-3.44,1.82-3.43-.5l-.25,1.48c-1.51-1.65-1.69,0-2.69,0-.62,0-1.08-.76-1.55-.85-1.06-.18-4.81.51-5.75.39-.35,0-.27-1-.58-1s-1.24.75-1.6.43.15-.79-.33-.9c-1.15-.27-.57.78-.77.94-.92.77-.91-.66-1.29-.94a17.72,17.72,0,0,0-2.86-1.47c-.14,0-.13,1.55-1.7.49l1-1-2,.49c.4-1.49-2.22-3-3.43-2,.65-2.13-2.39-1.69-3.29-2.6a22.52,22.52,0,0,1-3.77-7.94,20.9,20.9,0,0,1,.1-4.95,21.69,21.69,0,0,0,.74-2.31c.2-.59,1.29-3.52,1.43-3.66.84-.91,2.23,0,2.31-.12s0-1.16.5-1.72c.21-.22,4.89-2.71,5.43-2.92,3-1.16,7.89-2.18,11-1.77.91.12.67.88.78.92.49.19,1.65-1.26,1.39.59.84.23.25-.95.69-.93s2.83.34,3.39.45c.38.08.38.76.46.81,2.24,1.24,1.39-2.44,1.6-3.5,1.63-8,5.25-13.8,12.65-17.51,12.88-6.44,28.21-.77,33.23,12.61.27.74.81,1.82.83,1.94.15,1-.6,5.91-.38,6.13l11.5-1.46c2.4.82,4.12.07,7.16,1.2a43,43,0,0,1,8.13,5.14,1.5,1.5,0,0,1,.24,1.45c.21.14.9-.12,1.43.37.19.18,2.14,4.32,2.22,4.56.16.49.2,4.23.21,5.13,0,.32-1.1.27-1.28,1.23-.13.73.35,1.4.19,1.89-.08.24-2.56,1.25-1.86,2.57l-1-.5c.21,2.58-.11,1.52-.72,1.77-3,1.26-.77,1.64-1.23,2.15-.14.14-3.52,1-3.82,1.15a9.25,9.25,0,0,1-2.23,1.88c-3.88,1.72-14.45,3.65-18.48,2.86a9.14,9.14,0,0,1-5.68-.8c-1.33,1.47-5.44,1.09-7.06.45-1.28.26-2.58.55-3.9.86-1.52-.62-2.51-.63-3,0a3.54,3.54,0,0,0-1,0,7.9,7.9,0,0,0-5.18-.27l-9-1.16a5.22,5.22,0,0,0-1.55,1.4A8.87,8.87,0,0,0,585.85,261.49Z"/><path class="cls-86" d="M115.06,440.9a31.33,31.33,0,0,1,11.78,10.35c1,1.52,5.35,11.58,5.33,13,0,.25-2.51.32-1.35,1.7.08.09,2.58-.17,1.37,1.41-.11.16-1.54-.33-1.39,2.12,2.9.08,5.36-1.41,8.23-1.8a34,34,0,0,1,23.56,5.53c2.43,1.73,4.72,2.71,2,5.43,4.34-1.63,3.26,1,4.28,3.7.24.62,1.35.53,1.35,1,0,2.27.31,6.35-.16,8.39-.1.42-1,.34-1.2.9-.37,1.3,0,3.75-.39,4.37a85.49,85.49,0,0,1-6.86,6.87c-.19.14-.91-.47-1.1-.34s-.51,1.37-1.28,1.9c-1.23.84-8.92,2.05-9.33,2.33-4.33,3-4.29,1-7.52,2-.39.13-.23,1.13-.8,1.26s-3.9.79-4.12.79-.18-2.22-2.75-1.45c-1.42.42,1.25.65-3,.76-7.37.2-14.65-.43-21.71,0-1.65.09-3,1.37-4.63,1.37v-2.12c-3.72,3.94-3.57.67-3.87.68-.83,0-2.66,1.64-3.53,1.32-.39-.14-.29-1.24-.78-1.33-1.81-.31-3.44,1.9-3.1-.66-1.16-.31-.44.95-.83,1.27a22.26,22.26,0,0,1-3,.1c-.84-.2.05-1.67-1.14-1.37,0,4-4.95-3.17-4.24,2.11l-5.3-1.94-2.79,1.94.34-2.12c-.27-.29-1.18,1-1.87,1.18s-10.52.4-11.06.27c-.22-.05-1.51-3.81-1.88,0h-.69c-.55-3.91-1.53,0-1.74,0-.59-.13-1.48-1-2.45-1.09s-3.48.81-5.17.22-2.69-3.83-3.68-.53c-4.51-4.5-13.8-3-14.47-10.58l-1.39,1.4c.47-4.22-.66-1.87-1.82-2.75-.81-.62-.5-1.71-1-2.53s-1.44-1.12-2-2.31-.71-6-.45-7.28c2.38-11.88,13-19,24.7-19.56,1.06,0,8.63.06,9.07.18.77.22,4.47,3.12,5.29,2.53-1.23-1.78.42-1.2.63-1.95a25.16,25.16,0,0,0,.71-3.43c.24-1.78.12-4.41,1.08-6.64C77,439.19,97,432.85,115.06,440.9Z"/><path class="cls-87" d="M607.1,449.77c6.07-1.11,7.69,7.78,7.24,12.24-.42,4.19-5.56,20.94-11.6,14.4C597.53,470.78,598.6,451.34,607.1,449.77Z"/><path class="cls-88" d="M579.6,466c7.09-1.45,19.08,5.64,19.79,13,1.05,11.08-17.6,2.21-21.74-2.26C574,472.91,573.38,467.32,579.6,466Z"/><path class="cls-89" d="M624.74,469.59c18.1-2.47,14.74,12.25.92,15-2.79.56-13.13,1.34-14-1.6C609.76,476.68,619.21,470.34,624.74,469.59Z"/><path class="cls-90" d="M607.4,490c.36-.58,6.12-2.22,7.24-2.17,4.45.2,11.39,5.94,13.48,9.78,6.31,11.62-5.22,11.59-12.6,6.26C612.87,501.91,605.41,493.17,607.4,490Z"/><path class="cls-91" d="M596.54,488.59c2.12-.31,5.65,0,6.38,2.45,2.78,9.28-11.3,20.52-20,15.06C575.57,501.47,591.38,489.36,596.54,488.59Z"/><path class="cls-92" d="M589.66,270.61l.71-2.47c2.3,3.22,4.24.36,4.58.36.77,0,.65,2.34,1.76,2.1-.32-4.68,4.83-2,7.38-1.74s5.24.63,7.82.89,6-1.86,7.36,1.56c-.15.07-.53,1.5-1.75,1.46-1.65-.07-1.54-2.86-3.52-2-.47.22-.18,1.29-1.4,1.31a66.62,66.62,0,0,1-12.15-1.38c-.31-.05-4,1.87-6.12,1.26-.78-.22.13-1.75-1.49-1.38-.78.18.31,1.81-1.41,1.42C590.71,271.86,591.69,270.22,589.66,270.61Z"/><path class="cls-92" d="M620.68,271.31l-1-2.13c1,1,3.63,0,3.77.17s.06,2.41,1.5,1.24c.07,0-.17-1.44.39-1.44.74,0,1.75.89,2.71.8.15,0,1.16-.77,2.31-1.3.88-.39,1.53-1.36,2-1.56,1.16-.48,1.43.9,1,1.4-.06.07-2.67-.13-1.39,1.41a27.86,27.86,0,0,0,6.59-.13c1.08-.4,1-1.85,1.53-2,1.91-.58,1.57,1,2.25,1.41,3.5,2.16,3.13.06,4.68.13,1,.05,1.73,1.28,1.86,1.31-4.43,1.87-10.24,1-15.08.76-.84,0-1.88.75-2.88.65-1.16-.1-1.73-1.42-2.83-1.44-.45,0-.28,1.43-.78,1.49C626.51,272.17,621.83,271.37,620.68,271.31Z"/><path class="cls-93" d="M605,481.48c3-.82,5.26,7.84-.51,5.94C600.85,486.25,602.49,482.15,605,481.48Z"/></g></svg>