<?xml version="1.0" encoding="utf-8"?>
<!-- Generator: Adobe Illustrator 25.3.0, SVG Export Plug-In . SVG Version: 6.00 Build 0)  -->
<svg version="1.1" id="レイヤー_1" xmlns="http://www.w3.org/2000/svg" xmlns:xlink="http://www.w3.org/1999/xlink" x="0px"
	 y="0px" viewBox="0 0 940.6 591.6" style="enable-background:new 0 0 940.6 591.6;" xml:space="preserve">
<style type="text/css">
	.st0{fill:url(#SVGID_1_);}
	.st1{clip-path:url(#SVGID_3_);}
	.st2{fill:#269283;}
	.st3{fill:#B4DCB9;}
	.st4{fill:#6EB7A3;}
	.st5{fill:#A3D1AA;}
	.st6{fill:#45387D;}
	.st7{opacity:0.5;}
	.st8{fill:#8E6643;}
	.st9{fill:none;}
	.st10{fill:#006738;}
	.st11{fill:#00512A;}
	.st12{fill:#017D3E;}
	.st13{fill:#019444;}
	.st14{fill:#3EA347;}
	.st15{fill:#43BE54;}
	.st16{fill:#6CB32F;}
	.st17{fill:#99CE3E;}
	.st18{fill:#1E8E7E;}
	.st19{fill:#70B9A6;}
	.st20{fill:#1F8F7F;}
	.st21{fill:#6DB7A6;}
	.st22{fill:#238F80;}
	.st23{fill:#7FBAA6;}
	.st24{fill:#D0D1D3;stroke:#232020;stroke-width:0.5;stroke-miterlimit:10;}
	.st25{fill:none;stroke:#3C0000;stroke-width:2.01;stroke-linecap:round;stroke-miterlimit:10;}
	.st26{fill:#EB5160;stroke:#232020;stroke-width:0.5;stroke-miterlimit:10;}
	.st27{fill:#D0D1D3;}
	.st28{fill:#EAECED;}
	.st29{fill:#DD8793;stroke:#232020;stroke-width:0.41;stroke-miterlimit:10;}
	.st30{fill:none;stroke:#3C0000;stroke-width:2.96;stroke-miterlimit:10;}
	.st31{fill:none;stroke:#232020;stroke-width:2.01;stroke-linecap:round;stroke-miterlimit:10;}
	.st32{fill:#EB5160;}
	.st33{fill:#FFEBC8;}
	.st34{fill:#EFD3A5;}
	.st35{fill:#FF92AB;}
	.st36{fill:#FFFEFD;}
	.st37{fill:#FFF6EE;}
	.st38{fill:#3C0000;}
	.st39{fill:#F59F37;}
	.st40{fill:#F5B887;}
	.st41{fill:#FD974F;}
	.st42{fill:#FFCE8D;}
	.st43{fill:#FFD5D5;}
	.st44{fill:#3D1C1F;}
	.st45{fill:#C7DDBC;}
	.st46{fill:#DBEAC5;}
	.st47{fill:#91C04F;}
	.st48{fill:#FD6161;}
	.st49{fill:#FDFDFD;}
	.st50{fill:#440E0A;}
	.st51{fill:#FDE8C6;}
	.st52{fill-rule:evenodd;clip-rule:evenodd;fill:#B86A39;}
	.st53{fill-rule:evenodd;clip-rule:evenodd;fill:#EEC26B;}
	.st54{fill-rule:evenodd;clip-rule:evenodd;fill:#B0602E;}
	.st55{fill-rule:evenodd;clip-rule:evenodd;fill:#BF774A;}
	.st56{fill-rule:evenodd;clip-rule:evenodd;fill:#BF784C;}
	.st57{fill-rule:evenodd;clip-rule:evenodd;fill:#CF906A;}
	.st58{fill-rule:evenodd;clip-rule:evenodd;fill:#3C0000;}
	.st59{fill:#EEC26B;}
	.st60{fill-rule:evenodd;clip-rule:evenodd;fill:#FFFFFF;}
	.st61{fill:#8C533D;}
	.st62{fill:#E2D7C2;}
	.st63{fill:#D26088;stroke:#3C0000;stroke-width:0.33;stroke-miterlimit:10;}
	.st64{fill:#FFB8C8;stroke:#3C0000;stroke-width:0.33;stroke-miterlimit:10;}
	.st65{fill:#FFFFFF;}
	.st66{fill:#D26088;stroke:#3C0000;stroke-width:0.77;stroke-miterlimit:10;}
	.st67{fill:#FFB8C8;stroke:#3C0000;stroke-width:0.77;stroke-miterlimit:10;}
	.st68{fill:#1C1C1C;}
</style>
<linearGradient id="SVGID_1_" gradientUnits="userSpaceOnUse" x1="470.295" y1="619.53" x2="470.295" y2="172.17" gradientTransform="matrix(1 0 0 -1 0 594)">
	<stop  offset="0" style="stop-color:#9ED9FF"/>
	<stop  offset="0.21" style="stop-color:#A2D8FC"/>
	<stop  offset="0.41" style="stop-color:#AED5F5"/>
	<stop  offset="0.61" style="stop-color:#C1D0E8"/>
	<stop  offset="0.81" style="stop-color:#DDC9D6"/>
	<stop  offset="1" style="stop-color:#FFC1BF"/>
</linearGradient>
<path class="st0" d="M284.1,0h372.3c156.9,0,284.1,127.2,284.1,284.1v23.5c0,156.9-127.2,284.1-284.1,284.1H284.1
	C127.2,591.7,0,464.5,0,307.6v-23.5C0,127.2,127.2,0,284.1,0z"/>
<g>
	<defs>
		<path id="SVGID_2_" d="M284.1,0h372.3c156.9,0,284.1,127.2,284.1,284.1v23.5c0,156.9-127.2,284.1-284.1,284.1H284.1
			C127.2,591.7,0,464.5,0,307.6v-23.5C0,127.2,127.2,0,284.1,0z"/>
	</defs>
	<clipPath id="SVGID_3_">
		<use xlink:href="#SVGID_2_"  style="overflow:visible;"/>
	</clipPath>
	<g class="st1">
		<path class="st2" d="M136.4,412.2L136.4,412.2c-1.1,0-2.1,0-3.1,0h-2.5l-3,0.1l-2.4,0.1l-2.9,0.2l-2.4,0.1l-2.8,0.2
			c-0.8,0.1-1.6,0.1-2.3,0.2l-2.8,0.3l-2.3,0.3l-2.7,0.4l-2.2,0.3l-2.7,0.4l-2.1,0.4l-2.6,0.5l-2,0.4l-2.6,0.5l-1.8,0.4
			c-2,0.4-3.9,0.9-5.8,1.4l-1,0.3l-2.4,0.7l-1.8,0.5l-2.3,0.7l-1.8,0.6l-2.2,0.7l-1.8,0.6l-2.1,0.8l-1.8,0.7l-2,0.8l-1.8,0.7
			l-1.9,0.8l-1.7,0.7l-1.8,0.8l-1.7,0.8l-1.7,0.8l-1.7,0.9c-0.5,0.3-1.1,0.5-1.6,0.8s-1.3,0.7-1.9,1l-2.1,1.1l-2.2,1.2l-1.3,0.8
			c-0.6,0.3-1.1,0.7-1.7,1l-1.3,0.8l-1.6,1c-0.4,0.3-0.9,0.5-1.3,0.8l-1.5,1l-1.2,0.9l-1.4,1l-1.2,0.8l-1.4,1
			c-0.4,0.3-0.8,0.5-1.1,0.8l-1.4,1l-1,0.8l-1.4,1.1l-0.9,0.7l-1.5,1.2l-0.7,0.6c-0.7,0.6-1.4,1.2-2.1,1.8
			C39,483.4,63.2,510.9,92.6,532l87.6-13L136.4,412.2z"/>
		<path class="st3" d="M92.6,532c6.2,4.4,12.7,8.7,19.5,12.7c31.1,18.1,63.7,33.5,97.5,45.9L180.2,519L92.6,532z"/>
		<path class="st4" d="M330.8,432.5L330.8,432.5l9.4-9.8c-6.5,1.3-13.2,2.5-20,3.8c-131.8,23.1-50.5-4.8-165.7-13.5
			c-2.8-0.2-5.6-0.4-8.3-0.5l-1.9-0.1c-2.7-0.1-5.3-0.2-7.9-0.2l0,0l64,156.1L330.8,432.5z"/>
		<path class="st5" d="M814.2,524.8l-25.5,44.6c59.1-33.3,108.9-84.4,141.3-145.6c-16.6-7.2-32.1-13.8-46.7-19.7L814.2,524.8z"/>
		<polygon class="st6" points="136.4,412.2 180.2,519 209.5,590.6 200.4,568.3 		"/>
		<g class="st7">
			
				<rect x="366.9" y="386.1" transform="matrix(0.9973 -7.358631e-02 7.358631e-02 0.9973 -28.5107 28.5935)" class="st8" width="13.7" height="30.2"/>
			<line class="st9" x1="335.1" y1="301.3" x2="335.1" y2="301.3"/>
			<line class="st9" x1="381" y1="297.9" x2="381" y2="297.9"/>
			<path class="st10" d="M407.1,366.8l-71.4,5.3c-4.6,0.3-8.1,4.4-7.8,9s4.4,8.1,9,7.8l71.4-5.3c4.6-0.3,8.1-4.4,7.8-9
				S411.7,366.4,407.1,366.8L407.1,366.8z"/>
			<path class="st11" d="M412.2,383.4l-79,5.8c-4.6,0.4-8,4.6-7.6,9.2c0.4,4.5,4.3,7.8,8.8,7.6l79-5.8c4.6-0.5,8-4.6,7.6-9.2
				C420.5,386.6,416.7,383.3,412.2,383.4L412.2,383.4z"/>
			<path class="st12" d="M400.2,350.4l-60,4.4c-4.6,0.5-8,4.6-7.6,9.2c0.4,4.5,4.3,7.8,8.8,7.6l60-4.4c4.6-0.3,8.1-4.4,7.8-9
				C408.9,353.6,404.8,350.1,400.2,350.4L400.2,350.4z"/>
			<path class="st13" d="M393.3,334.1l-48.6,3.6c-4.6,0.4-8,4.6-7.6,9.2c0.4,4.5,4.3,7.8,8.8,7.6l48.6-3.6c4.6-0.3,8.1-4.4,7.8-9
				C401.9,337.2,397.9,333.7,393.3,334.1L393.3,334.1z"/>
			<path class="st14" d="M386.4,317.7l-37.3,2.8c-4.6,0.3-8.1,4.4-7.8,9s4.4,8.1,9,7.8l37.3-2.8c4.6-0.3,8.1-4.4,7.8-9
				S391,317.4,386.4,317.7z"/>
			<path class="st15" d="M379.5,301.4l-25.9,1.9c-4.6,0.3-8.1,4.4-7.8,9c0.3,4.6,4.4,8.1,9,7.8l26-1.9c4.6-0.4,8-4.6,7.6-9.2
				C387.9,304.5,384,301.1,379.5,301.4L379.5,301.4z"/>
			<path class="st16" d="M372.5,285l-14.5,1.1c-4.6,0.4-8,4.6-7.6,9.2c0.4,4.5,4.3,7.8,8.8,7.6l14.5-1.1c4.6-0.3,8.1-4.4,7.8-9
				S377.1,284.7,372.5,285L372.5,285L372.5,285z"/>
			<path class="st17" d="M367.5,268.6l-7,0.5c-4.6,0.3-8.1,4.4-7.8,9s4.4,8.1,9,7.8l7-0.5c4.6-0.3,8.1-4.4,7.8-9
				S372.1,268.2,367.5,268.6L367.5,268.6z"/>
		</g>
		<polygon class="st6" points="721.3,446 814.2,524.8 721.3,446 		"/>
		<path class="st3" d="M500.4,446l34.7-77.5c-54.8,12.8-108,37-195,54.2l-9.4,9.8l3.3,79.2h139.5l-61.5,122l4.3,0.3
			c77.3,5.5,153.3,0.1,221.7-13.6L484.6,477.4L500.4,446z"/>
		<polygon class="st6" points="684.6,353.2 684.6,353.2 684.6,353.2 		"/>
		<path class="st18" d="M684.6,353.2L684.6,353.2c-23.7,0-43.4,3-65.4,5.1l38.7,33.2l63.5,54.5l92.9,78.8l69.2-120.6
			C781.2,362.7,726.6,353.2,684.6,353.2z"/>
		<polygon class="st6" points="200.4,568.3 330.8,432.5 330.8,432.5 		"/>
		<path class="st19" d="M334.1,511.7L334.1,511.7l4.7,112.2l0.2,1c17.1,2.9,34.2,5.2,51.4,7c7.3,0.8,14.5,1.4,21.7,1.9l61.5-122.1
			L334.1,511.7z"/>
		<path class="st20" d="M338.8,623.9l-4.7-112.2l-3.3-79.2L200.4,568.3l9.1,22.3c41.9,15.4,85.2,26.8,129.3,34.2L338.8,623.9z"/>
		<path class="st21" d="M664,446h57.3l-63.7-54.1l0.3-0.4l-38.7-33.2c-7.5,0.7-15.2,1.3-23.5,1.6c-15.5,0.6-31,2.5-46.2,5.5l-11,2.3
			l-3.4,0.8L500.4,446H664z"/>
		<polygon class="st6" points="657.6,391.9 721.3,446 657.9,391.5 		"/>
		<path class="st22" d="M651.6,617.7L664,446H500.4l-15.8,31.4l153.5,143.1l1.8-0.3C643.8,619.4,647.7,618.6,651.6,617.7z"/>
		<path class="st6" d="M788.6,569.5l0.2-0.1l25.5-44.6L788.6,569.5z"/>
		<path class="st23" d="M664,446l-11.3,171.5c30.1-6.5,59.7-15.2,88.6-25.9c16.3-6.1,32.1-13.5,47.2-22l25.7-44.7L721.3,446H664z"/>
		<path class="st6" d="M651.6,617.7l1.1-0.3L664,446L651.6,617.7z"/>
		<g class="st7">
			
				<rect x="844.7" y="374.4" transform="matrix(0.2309 -0.973 0.973 0.2309 288.5998 1122.6865)" class="st8" width="19.4" height="8.8"/>
			<line class="st9" x1="850" y1="309.9" x2="850" y2="309.9"/>
			<line class="st9" x1="878.9" y1="316.8" x2="878.9" y2="316.8"/>
			<path class="st10" d="M881.6,364.2l-44.8-10.6c-2.9-0.7-5.8,1.1-6.5,4c-0.7,2.9,1.1,5.8,4,6.5l44.8,10.6c2.9,0.6,5.8-1.3,6.4-4.3
				C886,367.7,884.3,364.9,881.6,364.2L881.6,364.2z"/>
			<path class="st11" d="M881.4,375.4l-49.6-11.8c-2.9-0.7-5.8,1.1-6.5,4c-0.7,2.9,1.1,5.8,4,6.5l49.6,11.8c2.9,0.7,5.8-1.1,6.5-4
				C886.1,379,884.3,376.1,881.4,375.4L881.4,375.4z"/>
			<path class="st12" d="M880.5,352.8l-37.7-9c-2.9-0.7-5.8,1.1-6.5,4c-0.7,2.9,1.1,5.8,4,6.5l37.7,9c2.9,0.7,5.8-1.1,6.5-4
				C885.2,356.4,883.4,353.5,880.5,352.8L880.5,352.8z"/>
			<path class="st13" d="M879.4,341.4l-30.6-7.3c-2.9-0.6-5.8,1.3-6.4,4.3c-0.6,2.8,1.1,5.5,3.9,6.3l30.6,7.2c2.9,0.7,5.8-1.1,6.5-4
				C884.1,345,882.3,342.1,879.4,341.4L879.4,341.4z"/>
			<path class="st14" d="M878.4,330l-23.4-5.5c-2.9-0.6-5.8,1.3-6.4,4.3c-0.6,2.8,1.1,5.5,3.9,6.3l23.4,5.6c2.9,0.6,5.8-1.3,6.4-4.3
				C882.8,333.5,881.2,330.8,878.4,330L878.4,330z"/>
			<path class="st15" d="M877.3,318.6l-16.3-3.9c-2.9-0.7-5.8,1.1-6.5,4c-0.7,2.9,1.1,5.8,4,6.5l16.3,3.9c2.9,0.6,5.8-1.3,6.4-4.3
				C881.7,322.1,880,319.4,877.3,318.6L877.3,318.6z"/>
			<path class="st16" d="M876.2,307.2l-9.1-2.2c-2.9-0.7-5.8,1.1-6.5,4c-0.7,2.9,1.1,5.8,4,6.5l9.1,2.2c2.9,0.7,5.8-1.1,6.5-4
				C880.9,310.9,879.1,307.9,876.2,307.2z"/>
			<path class="st17" d="M876.3,296.1l-4.4-1c-2.9-0.7-5.8,1.1-6.5,4c-0.7,2.9,1.1,5.8,4,6.5l4.4,1c2.9,0.7,5.8-1.1,6.5-4
				C881.1,299.8,879.3,296.8,876.3,296.1z"/>
		</g>
		<rect x="158.1" y="365" class="st8" width="16.4" height="35.9"/>
		<path class="st10" d="M208.9,345h-85.2c-5.5,0-10,4.5-10,10s4.5,10,10,10h85.2c5.5,0,10-4.5,10-10S214.4,345,208.9,345z"/>
		<path class="st11" d="M213.4,365h-94.3c-5.5,0-10,4.5-10,10s4.5,10,10,10h94.3c5.5,0,10-4.5,10-10S218.9,365,213.4,365z"/>
		<path class="st12" d="M202.1,325h-71.7c-5.5,0-10,4.5-10,10s4.5,10,10,10h71.7c5.5,0,10-4.5,10-10S207.6,325,202.1,325z"/>
		<path class="st13" d="M195.3,305h-58.1c-5.5,0-10,4.5-10,10s4.5,10,10,10h58.1c5.5,0,10-4.5,10-10S200.8,305,195.3,305z"/>
		<path class="st14" d="M188.5,285H144c-5.5,0-10,4.5-10,10s4.5,10,10,10h44.5c5.5,0,10-4.5,10-10S194,285,188.5,285L188.5,285z"/>
		<path class="st15" d="M181.7,264.9h-30.9c-5.5,0-10,4.5-10,10s4.5,10,10,10h30.9c5.5,0,10-4.5,10-10S187.3,264.9,181.7,264.9z"/>
		<path class="st16" d="M174.9,244.9h-17.4c-5.5,0-10,4.5-10,10s4.5,10,10,10h17.4c5.5,0,10-4.5,10-10
			C184.9,249.4,180.5,244.9,174.9,244.9L174.9,244.9z"/>
		<path class="st17" d="M170.4,224.9h-8.3c-5.5,0-10,4.5-10,10s4.5,10,10,10h8.3c5.5,0,10-4.5,10-10S175.9,224.9,170.4,224.9z"/>
		<rect x="700.6" y="325.1" class="st8" width="13.8" height="30.4"/>
		<path class="st10" d="M743.5,308.2h-72c-4.7,0-8.5,3.8-8.5,8.5c0,4.7,3.8,8.5,8.5,8.5h72c4.7,0,8.5-3.8,8.5-8.5
			C752,312,748.2,308.2,743.5,308.2z"/>
		<path class="st11" d="M747.3,325.3h-79.7c-4.7,0.2-8.3,4.1-8.2,8.8c0.2,4.4,3.7,8,8.2,8.2h79.7c4.7-0.2,8.3-4.1,8.2-8.8
			C755.4,329,751.8,325.4,747.3,325.3L747.3,325.3z"/>
		<path class="st12" d="M737.8,291.3h-60.6c-4.7,0-8.5,3.8-8.5,8.5c0,4.7,3.8,8.5,8.5,8.5h60.5c4.7,0,8.5-3.8,8.5-8.5
			C746.2,295,742.4,291.3,737.8,291.3L737.8,291.3z"/>
		<path class="st13" d="M732,274.3h-49c-4.7,0.2-8.3,4.1-8.2,8.8c0.2,4.4,3.7,8,8.2,8.2h49c4.7-0.2,8.3-4.1,8.2-8.8
			C740,278.1,736.4,274.5,732,274.3z"/>
		<path class="st14" d="M726.3,257.4h-37.6c-4.7,0-8.5,3.8-8.5,8.5c0,4.7,3.8,8.5,8.5,8.5h37.6c4.7,0,8.5-3.8,8.5-8.5
			S731,257.4,726.3,257.4z"/>
		<path class="st15" d="M720.6,240.5h-26.2c-4.7,0-8.5,3.8-8.5,8.5c0,4.7,3.8,8.5,8.5,8.5h26.2c4.7,0,8.5-3.8,8.5-8.5
			C729,244.3,725.2,240.5,720.6,240.5z"/>
		<path class="st16" d="M714.8,223.6h-14.7c-4.7,0-8.5,3.8-8.5,8.5c0,4.7,3.8,8.5,8.5,8.5h14.7c4.7,0,8.5-3.8,8.5-8.5
			C723.3,227.4,719.5,223.6,714.8,223.6z"/>
		<path class="st17" d="M711,206.6h-7c-4.7,0-8.5,3.8-8.5,8.5c0,4.7,3.8,8.5,8.5,8.5h7c4.7,0,8.5-3.8,8.5-8.5
			C719.5,210.4,715.7,206.7,711,206.6z"/>
		<path class="st24" d="M767.5,361.2c0,0,0.2-6.8,1.4-7.6s10.5-0.4,11.8,0.2s1.5,7.4,1.5,7.4L767.5,361.2z"/>
		<path class="st25" d="M767.1,360.9c0,0,0.2-5.7,1.3-6.8s9.1-1.1,11.7-0.5s1.8,7.4,1.8,7.4"/>
		<path class="st26" d="M797.1,432.9c-0.6,1.7-1.4,3.3-2.4,4.8c-1.2,1.9-42,7.2-42,7.2c-48.2,3.9-40.7-1.8-48.4-4.1
			c-1.8-0.5-2.7-0.9-2.7-0.9c-12.4-12-3.8-62.5-3.8-62.5c1.4-16,9.3-15.5,9.3-15.5l79.3-1c13.4,4.5,12.4,32.4,13.6,49.2
			C800.7,420.7,798.8,428.3,797.1,432.9z"/>
		<path class="st27" d="M700.8,376c0,0,36.3-2.5,61-1.9s34.2,1.6,34.2,1.6s0-15.8-13.1-15s-56.3,0.5-56.3,0.5s-20.7,0.6-23.4,2.4
			s-4.5,8.9-4.6,12.5L700.8,376z"/>
		<path class="st24" d="M712.8,361.2c0,0,0.2-6.8,1.4-7.6s10.5-0.4,11.8,0.2s1.6,7.4,1.6,7.4L712.8,361.2z"/>
		<path class="st26" d="M742,364.8c0,0,6.4-1,7.4-0.4s1.4,5.9,1.3,6.6s-5.5,1.8-7.3,1.2c-1.3-0.5-2.4-1.3-3.3-2.4L742,364.8z"/>
		<path class="st28" d="M702.7,375.8c0.6-3.2,2.2-6.1,4.5-8.4c3.7-3.5,71.8-2.9,76.7-3s7,4,7.5,5.4c0.5,1.8,0.8,3.6,1.1,5.4l3.5,0.5
			c0,0-0.5-14.3-13.1-15s-75.9,1.1-75.9,1.1s-6.5,3-6.7,5.3s-1.8,9.7-1.8,9.7L702.7,375.8z"/>
		<path class="st29" d="M789,375.6c0,0,3.8,26.7-0.5,45.3s-17,16.5-25.8,16.5s23.7,3.3,29.9-1.2s6.2-8.6,6.2-8.6s3-31.5-2.8-52
			l-7.4-0.7L789,375.6z"/>
		<path class="st30" d="M699,370.3c0,0-10,54.9,0.5,67.8s84.1,7.4,94.9-0.5s3.1-60.9-0.2-69.5s-9.1-7.2-20.5-7.6s-56.4,0.7-61.4,1
			S701.7,361,699,370.3z"/>
		<path class="st25" d="M701.7,376c21.9-1.7,40.8-1.5,40.8-1.5"/>
		<path class="st30" d="M741.3,365.1c0,0-1,3.1-0.2,5.3s8.3,1.2,9.4,0.6s0.2-5.2-0.5-6.3S742.5,364,741.3,365.1z"/>
		<path class="st25" d="M712.4,360.9c0,0,0.2-5.7,1.3-6.8s9.1-1.1,11.7-0.5s1.8,7.4,1.8,7.4"/>
		<path class="st25" d="M749.2,374.6c0,0,20.1-0.7,39.4,0.5"/>
		<line class="st31" x1="702.6" y1="384.8" x2="707.1" y2="384.8"/>
		<line class="st31" x1="701.5" y1="390.6" x2="707.4" y2="390.5"/>
		<line class="st31" x1="701.2" y1="396.9" x2="707.2" y2="397"/>
		<line class="st31" x1="700.7" y1="419" x2="706.8" y2="419.2"/>
		<line class="st31" x1="702.1" y1="425.6" x2="708.2" y2="425.7"/>
		<line class="st31" x1="704.5" y1="431.3" x2="708.7" y2="431.5"/>
		<line class="st31" x1="700.9" y1="404.9" x2="706.8" y2="404.9"/>
		<line class="st31" x1="701.2" y1="412.2" x2="707.1" y2="412.2"/>
		<line class="st31" x1="793.2" y1="385.4" x2="788.7" y2="385.5"/>
		<line class="st31" x1="794.3" y1="391.3" x2="788.4" y2="391.1"/>
		<line class="st31" x1="794.6" y1="397.5" x2="788.6" y2="397.6"/>
		<line class="st31" x1="795.1" y1="419.7" x2="789" y2="419.8"/>
		<line class="st31" x1="793.7" y1="426.2" x2="787.6" y2="426.4"/>
		<line class="st31" x1="791.3" y1="431.9" x2="787.1" y2="432.1"/>
		<line class="st31" x1="794.9" y1="404.9" x2="789" y2="404.9"/>
		<line class="st31" x1="794.6" y1="412.8" x2="788.7" y2="412.8"/>
		<path class="st32" d="M763.4,476c0.6-2.6,3-4.5,5.7-4.5h0.1c2.7,0,5.1,1.9,5.7,4.5L763.4,476z"/>
		<path class="st32" d="M735.2,471c2.1,1.7,2.9,4.6,1.8,7l-9.1-7c0.8-0.7,1.9-1.1,2.9-1.2C732.4,469.6,733.9,470,735.2,471z"/>
		<path class="st33" d="M737.8,464.6c-0.6,1.2-1.3,2.4-2.1,3.5c-0.6-0.4-1.3-0.6-2-0.8c0.8-1.1,1.5-2.2,2.1-3.4
			C736.4,464.2,737.1,464.4,737.8,464.6z"/>
		<path class="st33" d="M766.5,462c0.8,2.2,1.2,4.5,1.3,6.9c-0.7,0.1-1.4,0.3-2.1,0.6c0-2.4-0.4-4.8-1.2-7
			C765.1,462.2,765.8,462,766.5,462z"/>
		<path class="st29" d="M773.7,461c0.1,0.1,0,0.3-0.1,0.4c-0.1,0.1-0.3,0.1-0.4,0c-0.3-0.2-0.7-0.4-1-0.6c-1.4-1-3-1.5-4.6-1.6h-0.2
			h-0.5c-1.8,0-3.6,0.5-5.1,1.5l0,0c-0.1,0-0.1,0.1-0.2,0.1c-1.1,0.8-2.4,1.2-3.8,1.2c-1.4,0-2.7-0.4-3.8-1.2
			c-3.2-2.2-7.4-2.2-10.5,0c-2.3,1.6-5.3,1.6-7.5,0l-0.1-0.1l0,0c-3.2-2.1-7.3-2-10.4,0.1c-0.3,0.2-0.7,0.4-1,0.6
			c-0.1,0.1-0.3,0.1-0.4,0c-0.1-0.1-0.2-0.2-0.1-0.4l7.1-21.4c0.6,0.2,1.2,0.5,1.8,0.7c-0.7,0.4-1.2,1.1-1.5,1.8
			c-0.8,2,0.1,4.3,2.1,5.1c0.1,0,0.2,0.1,0.3,0.1c3.2,1,6.6,1.5,9.9,1.5c5.2,0.1,10.4-1.3,14.8-4.2c1.5-1,2.9-2.2,4.2-3.5l0.7-0.2
			h0.1l0.2-0.1l0,0c1-0.4,2-0.8,3-1.2L773.7,461z"/>
		<path class="st34" d="M767.1,464c-0.2-0.7-0.4-1.4-0.6-2c-0.7,0-1.4,0.2-2.1,0.5c0.2,0.6,0.4,1.1,0.5,1.7c0.7-0.1,1.3-0.2,2-0.2
			H767.1z"/>
		<path class="st34" d="M735.1,465c0.3,0.1,0.5,0.3,0.8,0.5l0,0l0.1,0.1c0.3,0.2,0.6,0.4,0.9,0.5c0.3-0.5,0.6-1,0.8-1.5
			c-0.7-0.1-1.4-0.4-2-0.7C735.6,464.2,735.3,464.6,735.1,465z"/>
		<path class="st33" d="M770.1,441c6-0.6,11.4-4,14.6-9.2c0.3-0.5,0.3-1.1,0-1.5c-0.3-0.5-0.5-1-0.5-1.6c-0.1-1.9,1.4-3.4,3.2-3.5
			c0.9,0,1.8,0.3,2.4,0.9c1.3,1.3,1.4,3.4,0.1,4.7c-0.6,0.6-1.3,0.9-2.1,1c-0.4,0-0.8,0.3-1.1,0.7c-3.4,5.8-9.3,9.6-16,10.5
			L770.1,441z"/>
		<path class="st33" d="M763.7,435.1c-0.5,0.9-1.1,1.7-1.8,2.5c-0.2,0.2-0.4,0.5-0.6,0.7s-0.2,0.3-0.4,0.4c-1.2,1.3-2.5,2.4-3.9,3.3
			c-3.9,2.5-8.6,3.8-13.2,3.7c-3.1,0-6.1-0.5-9.1-1.3c-0.3-0.1-0.5-0.3-0.7-0.6c-0.1-0.3-0.1-0.6,0-0.9c0.2-0.4,0.6-0.7,1-0.6
			c0.1,0,0.2,0,0.3,0c4.7,1.4,9.7,1.6,14.5,0.6h0.1c4.9-1.2,9.2-4.3,11.8-8.6c0.3-0.5,0.3-1.1,0-1.5c-0.3-0.5-0.5-1-0.5-1.6
			c-0.1-1.8,1.4-3.4,3.2-3.5l0,0c0.9,0,1.8,0.3,2.4,0.9c1.3,1.3,1.4,3.4,0.1,4.7c-0.6,0.6-1.3,0.9-2.1,1
			C764.3,434.5,763.9,434.7,763.7,435.1z"/>
		<path class="st35" d="M743,419.4h11.8c-0.2,3.2-3,5.7-6.2,5.5C745.6,424.8,743.2,422.4,743,419.4z"/>
		<path class="st33" d="M748.9,382.3c-17.3,0-31.3,13.2-31.3,29.4c0,7.1,2.8,14,7.6,19.2c2.8,3,6.2,5.5,9.9,7.2
			c3.9,1.3,8.1,2.1,12.2,2.2h0.8h0.8h0.4c2.4-0.6,4.7-1.8,6.6-3.5c1.1-1,2.1-2.1,2.9-3.3c-0.3-0.7-0.5-1.4-0.5-2.2
			c-0.2-3.4,2.5-6.3,5.9-6.4c1.7-0.1,3.4,0.5,4.6,1.7c1.2,1.2,1.9,2.7,1.9,4.4c0,0.3,0,0.6-0.1,0.9c-0.1,0.4-0.1,0.7-0.3,1.1
			c0.8-0.7,1.6-1.5,2.3-2.2c4.9-5.2,7.6-12.1,7.6-19.2C780.2,395.5,766.2,382.3,748.9,382.3z M732.5,409c1.8,0,3.3,1.5,3.3,3.3
			c0,1.8-1.5,3.3-3.3,3.3c-1.8,0-3.3-1.5-3.3-3.3c0,0,0,0,0,0C729.1,410.5,730.6,409,732.5,409C732.5,409,732.5,409,732.5,409z
			 M757.6,419.1c-0.2,4.8-4.2,8.6-9,8.4c-4.6-0.2-8.2-3.8-8.4-8.4V418c0-0.8,0.6-1.4,1.4-1.4h14.6c0.8,0,1.4,0.6,1.4,1.4V419.1z
			 M758.9,399.6c-2.1-0.1-4-1.3-5-3.1c-1.4,2.8-4.8,3.8-7.6,2.4c-1-0.5-1.9-1.4-2.4-2.4c-1,1.8-2.9,3-5,3.1c-3.5,0-6.4-3.7-6.4-8.2
			c0-0.8,0.6-1.4,1.4-1.4c0.8,0,1.4,0.6,1.4,1.4l0,0c0,3,1.7,5.4,3.6,5.4s3.6-2.5,3.6-5.4c0-0.8,0.6-1.4,1.4-1.4c0,0,0,0,0,0
			c0.8,0,1.4,0.6,1.4,1.4c0,3,1.6,5.4,3.6,5.4s3.6-2.5,3.6-5.4c0.1-0.8,0.7-1.4,1.5-1.3c0.7,0.1,1.2,0.6,1.3,1.3
			c0,3,1.7,5.4,3.6,5.4s3.6-2.5,3.6-5.4c0-0.8,0.6-1.4,1.4-1.4c0,0,0,0,0,0c0.8,0,1.4,0.6,1.4,1.4
			C765.3,396,762.4,399.7,758.9,399.6L758.9,399.6z M765.3,415.6c-1.8,0-3.3-1.5-3.3-3.3c0-1.8,1.5-3.3,3.3-3.3
			c1.8,0,3.3,1.5,3.3,3.3c0,0,0,0,0,0C768.7,414.1,767.2,415.7,765.3,415.6C765.3,415.7,765.3,415.7,765.3,415.6L765.3,415.6z"/>
		<path class="st36" d="M770.2,433.1c0.1-0.1,0.2-0.2,0.3-0.3c0-0.2,0-0.5-0.1-0.7C770.4,432.5,770.4,432.8,770.2,433.1z"/>
		<path class="st36" d="M758.3,433.5c0,0.2,0,0.5,0.1,0.7c0.2-0.2,0.3-0.4,0.4-0.6c-0.2-0.5-0.3-0.9-0.4-1.4
			C758.3,432.6,758.3,433.1,758.3,433.5z"/>
		<path class="st37" d="M748.9,384.3c16.9,0,30.7,12.7,31.3,28.4c0-0.4,0-0.7,0-1.1c0-16.2-14-29.4-31.3-29.4s-31.3,13.2-31.3,29.4
			c0,0.4,0,0.7,0,1.1C718.1,397,732,384.3,748.9,384.3z"/>
		<path class="st38" d="M791.8,424.1c-1.2-1.2-2.8-1.8-4.5-1.7h-0.1c-6.4,1-5.8,7.2-5.8,7.2c0.1,0.5,0.2,1,0.4,1.4
			c-2.8,4.1-7.3,6.8-12.2,7.2l7.4-8.4c3.8-5.3,5.9-11.6,5.9-18.1c0-17.8-15.3-32.2-34.1-32.2s-34.1,14.4-34.1,32.2
			c0,6.5,2.1,12.9,5.9,18.1l0,0c2.7,4,8.1,8,8.1,8l-0.2,0.6l-7.2,21.7c-0.5,1.7,0.4,3.4,2,4c0.8,0.3,1.7,0.2,2.4-0.2
			c0.4-0.2,0.8-0.5,1.2-0.7c1.1-0.8,2.4-1.2,3.8-1.2c0.9,0,1.7,0.1,2.5,0.5c-0.9,1.7-2,3.3-3.3,4.7c-2.1,0.4-4.1,1.5-5.4,3.2
			c-0.5,0.6-0.4,1.5,0.2,2c0,0,0,0,0,0l11.6,8.9c0.2,0.2,0.5,0.3,0.9,0.3h0.2c0.4,0,0.7-0.2,0.9-0.5c2.6-3.4,2.4-8.2-0.5-11.3
			c1.1-1.6,2.1-3.2,2.9-5c1.6-0.1,3-0.7,4.3-1.6c2.3-1.6,5.3-1.6,7.5,0c1.5,1.1,3.4,1.7,5.3,1.6c1.4,0,2.8-0.3,4-0.9
			c0.8,2.5,1.1,5.1,0.8,7.7c-1.5,1.6-2.3,3.7-2.3,5.9c0,0.8,0.6,1.4,1.4,1.4h14.6c0.8,0,1.4-0.6,1.4-1.4c0-4.3-3.1-7.9-7.3-8.6
			c-0.1-2.2-0.4-4.3-1-6.4c0.4,0.2,0.7,0.4,1.1,0.6c0.4,0.2,0.8,0.5,1.2,0.7c1.5,0.8,3.4,0.2,4.2-1.3c0.4-0.8,0.5-1.6,0.2-2.4
			l-4.7-14.4c7.1-1,13.4-5.1,17.2-11.2c3.3-0.7,5.4-4,4.7-7.3C793.2,426.1,792.6,425,791.8,424.1L791.8,424.1z M724.8,430.5
			c-4.7-5.2-7.2-11.9-7.3-18.8c0-16.2,14-29.4,31.3-29.4s31.3,13.2,31.3,29.4c-0.1,8.3-3.7,16.1-10,21.5c0.2-0.6,0.3-1.3,0.3-2
			c0-1.7-0.7-3.2-1.9-4.4c-2.4-2.4-6.3-2.3-8.7,0.1c-1.8,1.8-2.3,4.5-1.2,6.8c-0.6,0.8-1.2,1.6-2,2.4c-2.1,2.1-4.7,3.6-7.6,4.4h-0.4
			H748h-0.8c-4.2-0.2-8.3-0.9-12.2-2.2C731.1,436.3,727.6,433.7,724.8,430.5L724.8,430.5z M761.6,432.9c-0.3-0.5-0.5-1-0.5-1.6
			c-0.1-1.8,1.4-3.4,3.2-3.5l0,0c0.9,0,1.8,0.3,2.4,0.9c1.3,1.3,1.4,3.4,0.1,4.7c-0.6,0.6-1.3,0.9-2.1,1c-0.4,0-0.9,0.3-1.1,0.7
			c-0.4,0.6-0.8,1.2-1.2,1.8c-0.2,0.2-0.4,0.5-0.6,0.7s-0.4,0.5-0.6,0.7s-0.2,0.3-0.4,0.4c-1.2,1.3-2.5,2.4-3.9,3.3
			c-3.9,2.5-8.6,3.8-13.2,3.7c-3.1,0-6.1-0.5-9.1-1.3c-0.3-0.1-0.5-0.3-0.7-0.6c-0.1-0.3-0.1-0.6,0-0.9c0.2-0.4,0.6-0.7,1-0.6
			c0.1,0,0.2,0,0.3,0c4.7,1.4,9.7,1.6,14.5,0.6h0.1c4.1-1,7.7-3.3,10.3-6.6c0.5-0.7,1.1-1.4,1.5-2.1
			C761.9,434,761.9,433.4,761.6,432.9z M737,478.1l-9.1-7c0.8-0.7,1.9-1.1,2.9-1.2c1.6-0.2,3.1,0.2,4.3,1.2
			C737.4,472.7,738.1,475.6,737,478.1z M735.7,468c-0.6-0.4-1.3-0.6-2-0.8c0.8-1.1,1.5-2.2,2.1-3.4c0.6,0.3,1.3,0.6,2,0.7
			C737.2,465.8,736.5,466.9,735.7,468z M774.9,476h-11.5c0.6-2.6,3-4.5,5.7-4.5h0.1C771.9,471.5,774.2,473.4,774.9,476z
			 M764.4,462.4c0.7-0.3,1.4-0.5,2.1-0.5c0.8,2.2,1.2,4.5,1.3,6.9c-0.7,0.1-1.4,0.3-2.1,0.6C765.7,467.1,765.2,464.7,764.4,462.4
			L764.4,462.4z M773.7,460.9c0.1,0.1,0,0.3-0.1,0.4c-0.1,0.1-0.3,0.1-0.4,0c-0.3-0.2-0.7-0.4-1-0.6c-1.4-1-3-1.5-4.6-1.6h-0.2h-0.5
			c-1.8,0-3.6,0.5-5.1,1.5l0,0c-0.1,0-0.1,0.1-0.2,0.1c-1.1,0.8-2.4,1.2-3.8,1.2c-1.4,0-2.7-0.4-3.8-1.2c-3.2-2.2-7.4-2.2-10.5,0
			c-2.3,1.6-5.3,1.6-7.5,0l-0.1-0.1l0,0c-3.2-2.1-7.3-2-10.4,0.1c-0.3,0.2-0.7,0.4-1,0.6c-0.1,0.1-0.3,0.1-0.4,0
			c-0.1-0.1-0.2-0.2-0.1-0.4l7.1-21.4c0.6,0.2,1.2,0.5,1.8,0.7c-0.7,0.4-1.2,1.1-1.5,1.8c-0.8,2,0.1,4.3,2.1,5.1
			c0.1,0,0.2,0.1,0.3,0.1c3.2,1,6.6,1.5,9.9,1.5c5.2,0.1,10.4-1.3,14.8-4.2c1.5-1,2.9-2.2,4.2-3.5l0.7-0.2h0.1l0.2-0.1l0,0
			c1-0.4,2-0.8,3-1.2L773.7,460.9z M787.8,431.8c-0.4,0-0.8,0.3-1.1,0.7c-3.4,5.8-9.3,9.6-16,10.5l-0.7-2c6-0.6,11.4-4,14.6-9.2
			c0.3-0.5,0.3-1.1,0-1.5c-0.3-0.5-0.5-1-0.5-1.6c-0.1-1.9,1.4-3.4,3.2-3.5c0.9,0,1.8,0.3,2.4,0.9c1.3,1.3,1.4,3.4,0.1,4.7
			C789.4,431.4,788.6,431.7,787.8,431.8L787.8,431.8z"/>
		
			<ellipse transform="matrix(0.2307 -0.973 0.973 0.2307 187.4877 1061.7905)" class="st38" cx="765.3" cy="412.3" rx="3.3" ry="3.3"/>
		<path class="st38" d="M763.9,390c0.8,0,1.4,0.6,1.4,1.4c0,4.5-2.9,8.2-6.4,8.2c-2.1-0.1-4-1.3-5-3.1c-1.4,2.8-4.8,3.8-7.6,2.4
			c-1-0.5-1.9-1.4-2.4-2.4c-1,1.8-2.9,3-5,3.1c-3.5,0-6.4-3.7-6.4-8.2c0-0.8,0.6-1.4,1.4-1.4c0,0,0,0,0,0c0.8,0,1.4,0.6,1.4,1.4
			c0,3,1.7,5.4,3.6,5.4s3.6-2.5,3.6-5.4c0-0.8,0.6-1.4,1.4-1.4c0,0,0,0,0,0c0.8,0,1.4,0.6,1.4,1.4c0,3,1.6,5.4,3.6,5.4
			s3.6-2.5,3.6-5.4c0.1-0.8,0.7-1.4,1.5-1.3c0.7,0.1,1.2,0.6,1.3,1.3c0,3,1.7,5.4,3.6,5.4s3.6-2.5,3.6-5.4
			C762.5,390.6,763.1,390,763.9,390z"/>
		<path class="st38" d="M757.6,418v1.1c-0.2,4.8-4.2,8.6-9,8.4c-4.6-0.2-8.2-3.8-8.4-8.4V418c0-0.8,0.6-1.4,1.4-1.4h14.6
			C756.9,416.6,757.6,417.2,757.6,418z M754.8,419.4H743c0.2,3.2,3,5.7,6.2,5.5C752.2,424.8,754.6,422.4,754.8,419.4z"/>
		
			<ellipse transform="matrix(0.2307 -0.973 0.973 0.2307 162.2324 1029.8546)" class="st38" cx="732.4" cy="412.3" rx="3.3" ry="3.3"/>
		<path class="st34" d="M770.2,433.1c0.8-0.7,1.6-1.5,2.3-2.2c-0.7,0.4-1.3,0.8-2,1.2C770.5,432.4,770.4,432.8,770.2,433.1z"/>
		<path class="st34" d="M725.2,430.9c2.8,3,6.2,5.5,9.9,7.2c3.9,1.3,8.1,2.1,12.2,2.2h0.8h0.8h0.4c2.4-0.6,4.7-1.8,6.6-3.5
			c-2.3,0.3-4.7,0.5-7,0.5C740.6,437.4,732.3,435.2,725.2,430.9z"/>
		
			<ellipse transform="matrix(0.2309 -0.973 0.973 0.2309 148.0297 1032.6447)" class="st29" cx="727.2" cy="422.7" rx="3.8" ry="3.9"/>
		
			<ellipse transform="matrix(0.2309 -0.973 0.973 0.2309 181.3209 1074.7604)" class="st29" cx="770.5" cy="422.7" rx="3.8" ry="3.9"/>
		<path class="st38" d="M787.3,422.4c0,0-6.1,0.8-5.9,7.2"/>
		<path class="st38" d="M355.6,502.6c-2.9,0.1-5.4-2.2-5.5-5.1v-32.7l-1.1-0.6c-9.8-5-11-14-11-21.2c-0.1-6.9,3-13.4,8.2-17.7
			c5.4-4.5,12.9-6.9,21.6-6.9c9,0,17.5,2.7,23.8,7.5l2.4,1.8l2.4-1.8c6.3-4.8,14.8-7.5,23.8-7.5c8.7,0,16.1,2.5,21.4,7.2
			c5.1,4.5,8,11.1,7.9,17.9c0,7.5-0.8,15.8-10.5,20.8l-1.1,0.6v32.7c-0.1,2.9-2.6,5.2-5.5,5.1H355.6z"/>
		<path class="st39" d="M355.6,499.1c-1,0.1-1.9-0.6-2-1.6v-34.9l-3-1.6c-7.9-4-9.1-11-9.1-18c0-11.9,9.9-21.2,26.4-21.2
			c8.3,0,16,2.4,21.7,6.8l4.5,3.4l4.5-3.4c5.7-4.4,13.4-6.8,21.7-6.8c16.5,0,25.8,9.7,25.8,21.6c0,7-0.7,13.6-8.6,17.6l-3,1.6v34.9
			c-0.1,1-1,1.7-2,1.6L355.6,499.1z"/>
		<path class="st40" d="M382.9,433.9c-2.6,0-2.6,4.1,0,4.1S385.5,433.9,382.9,433.9z"/>
		<path class="st40" d="M353.2,442.4l-0.2-0.6c-0.2-0.4-0.5-0.6-0.8-0.9l-0.1-0.1c-0.7-0.4-1.5-0.4-2.2,0l-0.1,0.1
			c-0.3,0.1-0.5,0.4-0.7,0.6c-0.2,0.2-0.4,0.5-0.4,0.8c-0.1,0.5-0.1,1.1,0.1,1.6c0.1,0.5,0.4,0.9,0.8,1.2c0.4,0.3,0.9,0.5,1.4,0.5
			c0.4,0,0.8-0.1,1.2-0.3c0.5-0.3,0.9-0.8,1.1-1.4C353.3,443.5,353.3,442.9,353.2,442.4z"/>
		<path class="st40" d="M367.1,429.1c-1.1-1.1-2.8-1.1-3.9,0c0,0,0,0,0,0c-1.1,1.1-1.1,2.8,0,3.9c0.5,0.5,1.3,0.8,2,0.8
			c1.5,0,2.8-1.2,2.8-2.8c0,0,0,0,0,0C367.9,430.4,367.6,429.7,367.1,429.1z"/>
		<path class="st40" d="M409.2,432.9c-0.3-0.5-0.7-0.8-1.2-1h-0.3c-0.4-0.1-0.8-0.1-1.1,0c-0.4,0.1-0.7,0.3-0.9,0.5
			c-0.4,0.4-0.6,0.9-0.6,1.5c0,0.9,0.6,1.8,1.5,2c0.4,0.1,0.8,0.1,1.1,0h0.3l0.5-0.2c0.2-0.1,0.4-0.3,0.6-0.5
			c0.3-0.4,0.4-0.8,0.4-1.2C409.5,433.5,409.4,433.2,409.2,432.9z"/>
		<path class="st40" d="M430.5,488.2c-0.9,0-1.6,0.7-1.6,1.5c0,0.9,0.7,1.6,1.6,1.6l0,0c0.9,0,1.5-0.7,1.5-1.6
			C432.1,488.9,431.4,488.2,430.5,488.2z"/>
		<path class="st40" d="M417.2,488.2c-0.4-0.4-1-0.7-1.6-0.7h-0.2c-0.6,0-1.2,0.2-1.6,0.7c-0.9,0.9-0.9,2.3,0,3.2c0,0,0,0,0,0
			c0.4,0.4,1,0.7,1.6,0.7h0.2c1.3,0,2.3-1,2.3-2.3c0,0,0,0,0,0C417.9,489.2,417.6,488.6,417.2,488.2z"/>
		<path class="st40" d="M361.6,491.4c-0.5-0.4-1.1-0.7-1.7-0.7h-0.2c-0.3,0-0.7,0.1-0.9,0.2c-0.3,0.1-0.6,0.3-0.8,0.5
			c-0.5,0.5-0.7,1.1-0.7,1.7c0,0.6,0.3,1.3,0.7,1.7l0.5,0.4c0.4,0.2,0.8,0.3,1.2,0.3h0.2c0.6,0,1.3-0.3,1.7-0.7
			c0.5-0.5,0.7-1.1,0.7-1.7C362.3,492.4,362.1,491.8,361.6,491.4z"/>
		<path class="st40" d="M431.1,447.7v0.2c0.3,1,1.4,1.6,2.4,1.3c0.6-0.2,1.1-0.7,1.3-1.3v-0.2C435.6,444.5,430.5,444.5,431.1,447.7z
			"/>
		<path class="st40" d="M364.4,458.8c-0.6-0.6-1.4-0.8-2.2-0.6c-0.5,0.1-0.9,0.4-1.2,0.7c-0.2,0.2-0.4,0.4-0.5,0.7
			c-0.1,0.3-0.2,0.6-0.2,0.9c0,0.6,0.2,1.2,0.7,1.6c0.4,0.4,1,0.7,1.6,0.7l0.6-0.1c0.4-0.1,0.7-0.3,1-0.6c0.4-0.3,0.6-0.7,0.7-1.1
			C365.2,460.2,365,459.3,364.4,458.8z"/>
		<path class="st40" d="M424.9,429.1c-0.1-0.5-0.3-1-0.6-1.3l0,0c-0.7-0.7-1.8-0.8-2.7-0.4l0,0c-0.5,0.3-0.8,0.8-1,1.4l-0.1,0.6
			c0,0.4,0.1,0.8,0.3,1.1c0.5,0.9,1.6,1.4,2.6,1.1c0.5-0.1,0.9-0.4,1.1-0.8c0.3-0.4,0.5-0.8,0.5-1.3
			C425,429.3,424.9,429.2,424.9,429.1z"/>
		<path class="st40" d="M429,460.9c-0.3-0.9-1-1.6-2-1.8c-0.5-0.1-1-0.1-1.5,0.1c-0.5,0.2-0.9,0.5-1.1,1c-0.2,0.4-0.3,0.8-0.3,1.2
			c0,0.6,0.2,1.2,0.7,1.6c0.2,0.2,0.5,0.4,0.7,0.6c0.2,0.1,0.4,0.2,0.6,0.3c0.3,0.1,0.6,0.1,0.9,0c0.1,0,0.3,0,0.4-0.1
			C428.6,463.4,429.4,462.1,429,460.9L429,460.9z"/>
		<path class="st40" d="M397.3,489.2c-2.9,0-2.9,4.5,0,4.5S400.2,489.2,397.3,489.2z"/>
		<path class="st40" d="M419.5,441l-0.5-0.4c-0.3-0.2-0.7-0.3-1.1-0.3c-0.1,0-0.1,0-0.2,0c-0.3,0-0.6,0-0.9,0.2
			c-0.3,0.1-0.5,0.2-0.7,0.5c-0.4,0.4-0.6,1-0.6,1.6c0,0.6,0.2,1.2,0.6,1.6l0.5,0.3c0.3,0.2,0.7,0.3,1.1,0.3h0.2
			c0.6,0,1.1-0.3,1.6-0.7c0.4-0.4,0.7-1,0.7-1.6C420.2,442,419.9,441.4,419.5,441z"/>
		<path class="st41" d="M407.3,539.6h-11.5c0.8-3.2,4-5.1,7.1-4.3C405.1,535.8,406.7,537.5,407.3,539.6L407.3,539.6z"/>
		<path class="st41" d="M392.2,539.6h-11.5c0.8-3.2,4-5.1,7.1-4.3C390,535.8,391.6,537.5,392.2,539.6z"/>
		<path class="st33" d="M389.4,530.4l-1.4,2.1c-0.5-0.1-1-0.2-1.6-0.2c-0.3,0-0.6,0-0.9,0l1.5-2.2l0.3-0.4l-0.9-1.5
			c0.7-0.1,1.4-0.3,2.1-0.6l0.8,1.3l0.2,0.3C389.7,529.6,389.7,530,389.4,530.4z"/>
		<path class="st33" d="M402.4,532.3c-0.3,0-0.6,0-0.9,0c-0.5,0-1.1,0-1.6,0.2l-1.4-2.1c-0.2-0.3-0.2-0.8,0-1.1l0.2-0.3l0.8-1.3
			c0.7,0.3,1.4,0.5,2.1,0.6l-0.9,1.5l0.3,0.4L402.4,532.3z"/>
		<path class="st33" d="M434.6,511.8l-3,3c-0.2,0.2-0.5,0.3-0.8,0.3h-0.2c-8.4-1.5-13.6-8.1-16-12l-0.4-1.2l0.8-0.4l0.9-0.4
			c1.6,2.9,6.2,9.7,13.8,11.7c0.2,0.1,0.5,0.1,0.7,0L434.6,511.8z"/>
		<path class="st33" d="M373.3,503v0.1c-2.4,3.9-7.6,10.5-16,12c-0.3,0.1-0.7-0.1-1-0.3l-3-3l4.2,1c0.2,0.1,0.5,0.1,0.7,0
			c6.9-1.8,11.2-7.5,13.2-10.7C372,502.4,372.7,502.7,373.3,503z"/>
		<path class="st42" d="M418.8,524.5c0.1,0.1,0,0.3-0.1,0.3c-0.1,0.1-0.3,0.1-0.4,0c-0.3-0.2-0.6-0.4-1-0.6c-3.2-2.2-7.4-2.2-10.5,0
			c-0.9,0.6-1.9,1-2.9,1.2c-0.3,0-0.6,0-0.9,0c-1.2,0-2.3-0.3-3.3-0.9l-0.4-0.3c-3.2-2.2-7.4-2.2-10.6,0l-0.4,0.2
			c-1,0.7-2.2,1-3.4,0.9c-0.3,0-0.6,0-0.9,0c-1.1-0.1-2.1-0.5-2.9-1.2c-3.2-2.2-7.4-2.2-10.5,0c-0.3,0.2-0.7,0.4-1,0.6
			c-0.1,0.1-0.3,0.1-0.4,0c-0.1-0.1-0.2-0.2-0.1-0.4l6.7-20.4c3.4,1.4,7.1,2.3,10.7,2.8c1.2,0.2,2.5,0.3,3.7,0.3
			c1.2,0.1,2.5,0.2,3.7,0.2c4.2,0,8.5-0.7,12.4-2.2c1.8-0.6,3.6-1.3,5.3-2.1L418.8,524.5z"/>
		<path class="st34" d="M388.5,527.7l0.8,1.3l-0.6,0.3l-0.4,0.3c-0.4,0.3-0.8,0.5-1.3,0.6l0.3-0.4l-0.9-1.5
			C387.1,528.1,387.8,527.9,388.5,527.7z"/>
		<path class="st34" d="M400.7,529.8l0.3,0.4c-0.5-0.2-0.9-0.4-1.3-0.6l-0.4-0.3l-0.5-0.3l0.8-1.3c0.7,0.3,1.4,0.5,2.1,0.6
			L400.7,529.8z"/>
		<path class="st38" d="M377.6,446.9c-10.6,5.5-17.8,16.1-17.8,28.3c0,8.2,3.3,16,9,21.8c0.2,0.1,0.4,0.3,0.5,0.5l0.1,0.1h0
			c0.2,0.4,0.3,0.8,0.2,1.2c0,0.1,0,0.2,0,0.2c0,0.1,0,0.2-0.1,0.4c0,0.1,0,0.3,0,0.4c0,0.2-0.1,0.3-0.2,0.5l0,0
			c0,0.1-0.1,0.3-0.2,0.4c-1.7,2.8-5.4,7.7-11.1,9.3l-8.6-2c-0.6-0.1-1.2,0.1-1.5,0.7c-0.3,0.5-0.2,1.2,0.2,1.7l6.4,6.5
			c0.7,0.7,1.7,1.2,2.8,1.2c0.2,0,0.4,0,0.6,0c5-0.9,9.5-3.4,13-7l-4.2,12.7c-0.5,1.7,0.4,3.4,2,4c0.8,0.3,1.7,0.2,2.4-0.2
			c0.5-0.2,0.8-0.5,1.2-0.7c2.3-1.6,5.3-1.6,7.5,0c1,0.7,2.2,1.2,3.4,1.5l0.9,1.5l-3.2,4.8c-1.9,1.7-3,4-3,6.6
			c0,0.8,0.6,1.4,1.4,1.4h14.6c0.1,0,0.2,0,0.2,0h0.2h14.6c0.8,0,1.4-0.6,1.4-1.4c0-2.5-1.1-4.9-3-6.6l-3.3-4.7l0.9-1.5
			c1.2-0.3,2.4-0.8,3.4-1.5c2.3-1.6,5.3-1.6,7.5,0c0.4,0.2,0.8,0.5,1.2,0.7c1.6,0.8,3.5,0.2,4.3-1.4c0.4-0.8,0.5-1.6,0.2-2.4
			l-4.2-12.6c3.5,3.6,8,6.1,13,7c0.2,0,0.4,0,0.6,0c1,0,2-0.4,2.8-1.2l6.4-6.5c0.4-0.4,0.5-1.1,0.2-1.7c-0.3-0.5-0.9-0.8-1.5-0.7
			l-8.6,2c-6.7-1.9-10.7-8.3-11.8-10.5c3.2-4.5,5.4-8.4,5.4-8.4c2.9-4.8,4.5-10.3,4.5-15.9c0-17.8-15.4-32.2-34.2-32.2
			c-0.7,0-1.4,0-2.1,0.1l-2.8,0.7l2.4-0.7c-4.3,0.3-8.6,1.3-12.5,3.1 M362.7,475.2c0-16.2,14-29.3,31.2-29.3s31.2,13.1,31.2,29.3
			c0,13-9,24-21.5,27.9c-3.8,1-7.6,1.5-11.5,1.4C375.8,503.6,362.7,490.8,362.7,475.2L362.7,475.2z M357.3,515.2
			c-0.3,0.1-0.7-0.1-1-0.3l-3-3l4.2,1c0.2,0.1,0.5,0.1,0.7,0c6.9-1.8,11.2-7.5,13.2-10.7c0.6,0.3,1.2,0.6,1.9,0.9v0.1
			C370.9,507.1,365.7,513.7,357.3,515.2L357.3,515.2z M380.7,539.6c0.8-3.2,4-5.1,7.1-4.3c2.1,0.5,3.8,2.2,4.3,4.3H380.7z
			 M386.4,528.2c0.7-0.1,1.4-0.3,2.1-0.6l1,1.6c0.2,0.3,0.2,0.8,0,1.1l-1.5,2c-0.5-0.1-1-0.2-1.6-0.2c-0.3,0-0.6,0-0.9,0l1.8-2.6
			L386.4,528.2z M394,536.7c-0.8-1.4-1.9-2.5-3.2-3.2l1-1.5c0.8-1.2,0.9-2.9,0.1-4.2l-0.9-1.5c0.9-0.5,1.9-0.8,3-0.8
			c1.1,0,2.1,0.2,3,0.8l-0.9,1.5c-0.8,1.3-0.7,2.9,0.1,4.2l1,1.5C395.8,534.2,394.7,535.3,394,536.7L394,536.7z M407.3,539.6h-11.5
			c0.8-3.2,4-5.1,7.1-4.3C405.1,535.8,406.7,537.5,407.3,539.6L407.3,539.6z M402.4,532.3c-0.3,0-0.6,0-0.9,0c-0.5,0-1.1,0-1.6,0.2
			l-1.4-2.1c-0.2-0.3-0.2-0.8,0-1.1l1-1.6c0.7,0.3,1.4,0.5,2.1,0.6l-0.9,1.5L402.4,532.3z M418.8,524.5c0.1,0.1,0,0.3-0.1,0.3
			c-0.1,0.1-0.3,0.1-0.4,0c-0.3-0.2-0.6-0.4-1-0.6c-3.2-2.2-7.4-2.2-10.5,0c-0.9,0.6-1.9,1-2.9,1.2c-0.3,0-0.6,0-0.9,0
			c-1.2,0-2.3-0.3-3.3-0.9l-0.4-0.3c-3.2-2.2-7.4-2.2-10.6,0l-0.4,0.2c-1,0.7-2.2,1-3.4,0.9c-0.3,0-0.6,0-0.9,0
			c-1.1-0.1-2.1-0.5-2.9-1.2c-3.2-2.2-7.4-2.2-10.5,0c-0.3,0.2-0.7,0.4-1,0.6c-0.1,0.1-0.3,0.1-0.4,0c-0.1-0.1-0.2-0.2-0.1-0.4
			l6.7-20.4c3.4,1.4,7.1,2.3,10.7,2.8c1.2,0.2,2.5,0.3,3.7,0.3c1.2,0.1,2.5,0.2,3.7,0.2c4.2,0,8.5-0.7,12.4-2.2
			c1.8-0.6,3.6-1.3,5.3-2.1L418.8,524.5z M431.7,514.9c-0.2,0.2-0.5,0.3-0.8,0.3h-0.2c-8.4-1.5-13.6-8.1-16-12l-0.4-1.2l0.8-0.4
			l0.9-0.4c1.6,2.9,6.2,9.7,13.8,11.7c0.2,0.1,0.5,0.1,0.7,0l4.2-1L431.7,514.9z"/>
		<path class="st38" d="M391.5,443c-4.9,0.3-9.6,1.6-13.9,3.9L391.5,443z"/>
		<path class="st33" d="M394,445.9c-17.2,0-31.2,13.1-31.2,29.3c0,7.3,2.9,14.3,8,19.5c5.7,5.9,13.3,9.3,21.5,9.7
			c3.9,0.1,7.8-0.4,11.5-1.4c5.9-1.8,11.1-5.3,15-10c4.2-5,6.5-11.3,6.5-17.9C425.2,459,411.2,445.9,394,445.9z M409.5,471.5
			c0.4,0.7,0.2,1.5-0.5,1.9c0,0,0,0,0,0l-4.3,2.5l4.3,2.5c0.7,0.4,0.9,1.3,0.5,1.9c-0.3,0.4-0.7,0.7-1.2,0.7c-0.2,0-0.5-0.1-0.7-0.2
			l-6.3-3.7c-0.7-0.4-0.9-1.3-0.5-1.9c0.1-0.2,0.3-0.4,0.5-0.5l6.3-3.7C408.2,470.6,409.1,470.8,409.5,471.5L409.5,471.5z M401,491
			c-0.3,0.4-0.7,0.7-1.2,0.7h-11.7c-0.5,0-1-0.3-1.2-0.7c-0.3-0.4-0.3-1,0-1.4l5.8-9.2c0.4-0.7,1.3-0.8,2-0.4
			c0.2,0.1,0.3,0.2,0.4,0.4l5.8,9.2C401.2,490,401.3,490.5,401,491z M378.7,453.7c0.1-0.8,0.9-1.3,1.6-1.2c0.7,0.1,1.2,0.7,1.2,1.4
			c-0.2,1.7,0.2,3.1,1,3.5c1.3,0.6,3.9-1.1,5.5-4.3c0.3-0.6,1-0.9,1.7-0.7c0.6,0.2,1.1,0.8,1,1.5c-0.2,1.7,0.2,3.1,1,3.5
			c1.3,0.6,4-1.1,5.6-4.3c0.3-0.6,1-0.9,1.7-0.7c0.6,0.2,1.1,0.8,1,1.5c-0.2,1.7,0.2,3.1,1,3.5c1.3,0.6,4-1.1,5.6-4.3
			c0.4-0.7,1.3-0.9,1.9-0.5c0.6,0.4,0.8,1.1,0.6,1.8c-2.3,4.5-6.4,7-9.3,5.5c-1-0.5-1.7-1.3-2.1-2.4c-2.2,2.4-5,3.4-7.1,2.4
			c-1-0.5-1.7-1.3-2.1-2.3c-1.3,1.6-3.2,2.6-5.3,2.8c-0.7,0-1.3-0.1-1.9-0.4C379.4,459.1,378.4,456.7,378.7,453.7L378.7,453.7z
			 M379,473.4c-0.7-0.4-0.9-1.3-0.5-1.9s1.3-0.9,1.9-0.5l6.3,3.7c0.7,0.4,0.9,1.3,0.5,1.9c-0.1,0.2-0.3,0.4-0.5,0.5l-6.3,3.7
			c-0.2,0.1-0.5,0.2-0.7,0.2c-0.5,0-1-0.3-1.2-0.7c-0.4-0.7-0.2-1.5,0.5-1.9c0,0,0,0,0,0l4.3-2.5L379,473.4z"/>
		<path class="st42" d="M392.2,510.3c3.9,0.1,7.8-0.4,11.5-1.4c3.1-0.9,5.9-2.3,8.6-4.1l-0.5-1.6c-1.7,0.8-3.5,1.5-5.3,2.1
			c-4,1.5-8.2,2.2-12.4,2.2c-1.2,0-2.5-0.1-3.7-0.2c-1.2-0.1-2.5-0.2-3.7-0.3c-3.7-0.5-7.3-1.4-10.7-2.8l-0.2,0.7
			C380.6,508.1,386.3,510,392.2,510.3z"/>
		<path class="st37" d="M394,447.9c16.9,0,30.7,12.7,31.2,28.4c0-0.4,0-0.8,0-1.1c0-16.2-14-29.3-31.2-29.3s-31.2,13.1-31.2,29.3
			c0,0.4,0,0.7,0,1C363.3,460.5,377.1,447.9,394,447.9z"/>
		<path class="st38" d="M409.5,471.5c0.4,0.7,0.2,1.5-0.5,1.9c0,0,0,0,0,0l-4.3,2.5l4.3,2.5c0.7,0.4,0.9,1.3,0.5,1.9
			c-0.3,0.4-0.7,0.7-1.2,0.7c-0.2,0-0.5-0.1-0.7-0.2l-6.3-3.7c-0.7-0.4-0.9-1.3-0.5-1.9c0.1-0.2,0.3-0.4,0.5-0.5l6.3-3.7
			C408.2,470.6,409.1,470.8,409.5,471.5z"/>
		<path class="st38" d="M408.5,452.6c0.7,0.3,1,1.2,0.6,1.9c-2.3,4.5-6.4,7-9.3,5.5c-1-0.5-1.7-1.3-2.1-2.4c-2.2,2.4-5,3.4-7.1,2.4
			c-1-0.5-1.7-1.3-2.1-2.3c-1.3,1.6-3.2,2.6-5.3,2.8c-0.7,0-1.3-0.1-1.9-0.4c-1.9-1-2.9-3.3-2.6-6.3c0.1-0.8,0.9-1.3,1.6-1.2
			c0.7,0.1,1.2,0.7,1.2,1.4c-0.2,1.7,0.2,3.1,1,3.5c1.3,0.6,3.9-1.1,5.5-4.3c0.3-0.6,1-0.9,1.7-0.7c0.6,0.2,1.1,0.8,1,1.5
			c-0.2,1.7,0.2,3.1,1,3.5c1.3,0.6,4-1.1,5.6-4.3c0.3-0.6,1-0.9,1.7-0.7c0.6,0.2,1.1,0.8,1,1.5c-0.2,1.7,0.2,3.1,1,3.5
			c1.3,0.6,4-1.1,5.6-4.3C406.9,452.5,407.7,452.2,408.5,452.6C408.5,452.6,408.5,452.6,408.5,452.6z"/>
		<path class="st38" d="M401,489.6c0.4,0.6,0.2,1.5-0.4,1.9c-0.2,0.1-0.5,0.2-0.8,0.2h-11.7c-0.5,0-1-0.3-1.2-0.7
			c-0.3-0.4-0.3-1,0-1.4l5.8-9.2c0.4-0.7,1.3-0.8,2-0.4c0.2,0.1,0.3,0.2,0.4,0.4L401,489.6z M397.2,488.9l-3.2-5.1l-3.3,5.1
			L397.2,488.9z"/>
		<polygon class="st35" points="394,483.8 397.2,488.9 390.7,488.9 		"/>
		<path class="st38" d="M386.8,474.7c0.7,0.4,0.9,1.3,0.5,1.9c-0.1,0.2-0.3,0.4-0.5,0.5l-6.3,3.7c-0.2,0.1-0.5,0.2-0.7,0.2
			c-0.5,0-1-0.3-1.2-0.7c-0.4-0.7-0.2-1.5,0.5-1.9c0,0,0,0,0,0l4.3-2.5l-4.3-2.5c-0.7-0.4-0.9-1.3-0.5-1.9s1.3-0.9,1.9-0.5
			L386.8,474.7z"/>
		<circle class="st42" cx="372.3" cy="486.3" r="3.9"/>
		<circle class="st42" cx="415.6" cy="486.2" r="3.9"/>
		<path class="st34" d="M393.9,502.1c9.5,0,18.1-4.2,24.8-9c-3.9,4.7-9.1,8.2-15,10c-3.8,1-7.6,1.5-11.5,1.4
			c-8.1-0.4-15.8-3.9-21.5-9.7C377.3,498.8,385.4,502.1,393.9,502.1z"/>
		<path class="st43" d="M161.1,383.2c3.2,0,6.4,0,9.6,0c-1.4,1.3-3.4,2-5.3,1.8C163.8,384.8,162.3,384.2,161.1,383.2z"/>
		<path class="st44" d="M148,426h-0.2l0,0H148z"/>
		<path class="st44" d="M211.8,384.8c0-5.6-1.6-11.1-4.7-15.8c-0.2-0.2-0.4-0.5-0.4-0.9c-0.1-1-0.1-2-0.2-2.9
			c-0.6-5.2-2.5-10.1-5.7-14.3c-0.6-0.9-1.4-1.7-2.1-2.5s-1.6-1.7-2.5-2.5c-5.1-4.5-11.3-7.5-17.9-8.7c-0.1-3.7-2.2-7-5.3-8.8
			c-2.8-1.5-5.9-2.2-9.1-2c0.2-0.9,0.5-1.7,1-2.5c0.1-0.2,0.4-0.1,0.6-0.2c2.2-0.3,3.8-2.3,3.5-4.6c-0.3-2.1-2.1-3.6-4.2-3.5
			c-1.8,0.2-3.5,1.2-4.5,2.8c-1.8,2.6-2.2,5.9-2.3,9c-3,1.1-5.4,3.5-6.4,6.6c-0.3,1-0.6,2.1-0.7,3.2c-1.7,0.4-3.4,0.8-5.1,1.4
			c-8.6,2.7-15.8,8.8-20,16.8c-2,3.9-3,8.2-3.2,12.5c0,0.7-0.6,1.1-0.8,1.7c-1.8,2.8-3,5.9-3.7,9.1c-0.5,2.8-0.7,5.6-0.6,8.4
			c0.1,1.1,0.5,2.1,1,3c0,3.1,0,6.3,0,9.4c0,0.7,0,1.5,0,2.2h-0.1c0.2,0.6,0.3,1.2,0.4,1.7l0,0c0.7,2.4,1.9,4.6,3.5,6.6
			c2.2,2.3,4.9,4.2,7.8,5.6c7,3.3,14.8,4.5,22.4,5.2c8.3,0.8,16.7,0.7,25-0.1c6.4-0.5,12.6-1.9,18.7-4c3-1.1,5.8-2.6,8.2-4.6
			c2.7-2.2,4.6-5.1,5.6-8.4c0,0,0,0,0-0.1l0.2-0.8c0,0,0,0,0,0v-0.3c0,0,0-0.1,0-0.1l0,0c0-0.2,0.1-0.5,0.1-0.7l0,0
			c0.1-3.8,0-7.6,0-11.4c0.2-0.5,0.5-1,0.7-1.5C211.7,387.5,211.9,386.1,211.8,384.8z M162.6,319.3c0.7-1.1,2-1.6,3.2-1.4
			c1,0.4,1.5,1.6,1.1,2.6c0,0.1-0.1,0.2-0.1,0.2c-0.2,0.4-0.6,0.7-1,0.7c-0.3-0.5-1-1-1.4-0.4c-1.4,1.6-2.3,3.5-2.7,5.5
			c-0.4,0-0.8,0-1.3,0.1C160.6,324.1,161,321.4,162.6,319.3L162.6,319.3z M154.1,334.5c0.8-2,2.3-3.7,4.2-4.6c1-0.4,2-0.8,3.1-1h0.1
			c0,0.6-0.2,1.6,0.6,1.9s2.1,0.4,2.4-0.6c-0.4-0.5-0.9-0.9-0.8-1.5c1.7-0.1,3.5,0.1,5.2,0.5c0.2,0.1,0.5,0.1,0.7,0.2
			c2.8,0.6,5,2.6,6,5.3c1.3,3.3,0.3,7-2.5,9.2c-2.5,1.7-5.7,2-8.7,1.9s-5.8-0.5-8.1-2.3c-1.7-1.5-2.7-3.6-2.7-5.9
			C153.5,336.6,153.7,335.5,154.1,334.5L154.1,334.5z M208.4,401.4c-0.5,3.2-2.1,6.1-4.5,8.2c-2,1.8-4.4,3.3-6.9,4.3
			c-3.2,1.3-6.6,2.3-10,3c-1.3,0.3-2.7,0.6-4,0.7c-2.6,0.5-5.2,0.8-7.8,1c-8.6,0.7-17.3,0.5-25.9-0.5c-4.6-0.6-9-1.5-13.4-2.9
			c-2.7-0.8-5.3-2.1-7.8-3.6c-2.7-1.7-4.8-4.1-6-7c-0.5-1.2-0.9-2.4-0.9-3.7c0-2.7,0-5.4,0-8.1c1.6,1.7,3.7,2.8,6,3.1
			c1.5-0.1,2.9-0.7,4.2-1.6c1.2-0.7,2.7-0.7,3.9,0c1.2,0.7,2.1,1.8,2.5,3.1c0.1,0.5,0.1,1,0,1.4c-0.5,2.3-0.1,4.6,1.1,6.6
			c0.4,0.6,0.9,1.1,1.3,1.6c1.2,0.8,2.5,1.3,3.9,1.4c2,0.2,4.1-0.5,5.5-2c1.3-1.4,2.1-3.4,2-5.4c-0.1-0.7,0-1.5,0.3-2.2
			c0.5-0.8,1.4-1.3,2.4-1.2c1.5,0,2.9,0.4,4.1,1.2c0.9,0.6,1.4,1.5,1.4,2.6c-0.1,1.1-0.2,2.1-0.2,3.2c0.1,1.6,0.7,3.1,1.7,4.3
			c0.4,0.4,0.8,0.7,1.2,1.1c1.8,1,4,1.3,6,0.9c2.3-0.4,4.2-1.8,5.3-3.8c0.8-1.6,1-3.4,0.6-5.1c-0.2-0.9,0-1.8,0.6-2.4
			c1.6-1.6,4-1.9,6.1-1.9c0.9-0.1,1.7,0.3,2.3,0.9c0.8,0.8,0.8,2,1.1,3c0.6,2.3,2.4,4.1,4.7,4.8c0.9,0.2,1.8,0.3,2.7,0.2
			c2.2-0.3,4.1-1.3,5.5-3c1.3-1.7,1.9-3.9,1.4-6.1c-0.2-0.7-0.2-1.5,0-2.2c0.6-1.6,2-2.7,3.7-3c1.9-0.4,3.8-0.3,5.7-0.7
			C208.4,394.8,208.5,398.1,208.4,401.4L208.4,401.4z M207.7,389.5c-1.1,0.2-2.2,0.3-3.3,0.4c-1.9,0.1-3.7,0.7-5.2,1.8
			c-1.2,1-2,2.3-2.3,3.8c-0.2,1.2,0.3,2.4,0.2,3.7c0,1.3-0.6,2.6-1.5,3.5c-1.5,1.4-3.6,2.1-5.6,1.7c-1.5-0.4-2.8-1.5-3.2-3
			c-0.3-0.8-0.3-1.6-0.6-2.4c-0.4-0.8-0.9-1.6-1.6-2.2c-0.7-0.6-1.7-1-2.6-1.1c-2.4-0.2-4.9,0.2-7,1.4c-0.6,0.4-1.2,0.9-1.7,1.5
			c-0.5,0.7-0.8,1.5-0.9,2.4c-0.1,1.2,0.5,2.5,0.2,3.7c-0.3,1.8-1.6,3.4-3.3,4c-1.2,0.4-2.5,0.5-3.8,0.3c-1.8-0.3-3.2-1.6-3.6-3.4
			c-0.4-1.7,0.2-3.3,0-5c-0.3-1.2-1-2.3-1.9-3.2c-1.8-1.3-4-1.9-6.2-1.7c-0.8,0.1-1.6,0.4-2.3,0.8c-0.7,0.6-1.2,1.3-1.5,2.1
			c-0.4,1-0.2,2.1-0.3,3.1c0,1.3-0.6,2.5-1.5,3.4c-2.1,1.9-5.3,1.7-7.2-0.3c-0.1-0.1-0.2-0.2-0.3-0.3c-1-1.6-1.3-3.6-0.8-5.5
			c0.2-1.7-0.3-3.4-1.4-4.7c-2.2-2.8-6.1-3.4-9-1.4c-0.8,0.6-1.8,0.9-2.8,0.8c-2.8-0.9-5-2.8-6.3-5.5c-0.3-0.5-0.4-1.1-0.3-1.7
			c0-1.7,0-3.4,0.2-5.1c0.6-4.5,2.3-8.7,5-12.3c0.1-1.1,0.1-2.3,0.2-3.5c0.8-6.9,4.2-13.3,9.5-17.9c1.6-1.5,3.4-2.8,5.3-3.9
			c1.3-0.9,2.7-1.7,4.2-2.3c2.2-1,4.5-1.8,6.9-2.3c0.2,1.1,0.5,2.2,1,3.3l0,0c1.2,2.2,3.3,3.9,5.7,4.8c2.6,0.8,5.4,1.2,8.2,1
			c2.7-0.1,5.6-0.6,7.9-2.2c1.3-1,2.4-2.2,3.2-3.7c0.5-0.9,0.8-2,1-3c3.5,0.9,6.9,2.2,10,4c5.6,3,10.2,7.7,13.1,13.4
			c1.8,3.6,2.7,7.6,2.7,11.6c0,0.3,0,0.7,0.1,1c2.2,3,3.7,6.4,4.5,10c0.5,2.7,0.7,5.5,0.6,8.2C209.4,388.5,208.7,389.3,207.7,389.5
			L207.7,389.5z"/>
		<path class="st44" d="M158.3,381.2c0.5-0.1,1.1-0.1,1.6-0.1c4.4,0,8.7,0,13,0c0.4,0,0.8,0.4,0.8,0.8c0,0.1,0,0.2-0.1,0.3
			c-0.7,1.9-2.2,3.4-4.1,4.2c-2.1,0.8-4.4,0.9-6.6,0.2c-1.9-0.6-3.5-1.9-4.5-3.7C158.2,382.4,157.9,381.8,158.3,381.2z M161.1,383.2
			c1.2,1,2.7,1.6,4.3,1.8c1.9,0.2,3.9-0.4,5.3-1.8C167.5,383.1,164.3,383.2,161.1,383.2L161.1,383.2z"/>
		<path class="st42" d="M162.6,319.3c0.7-1.1,2-1.6,3.2-1.4c1,0.4,1.5,1.6,1.1,2.6c0,0.1-0.1,0.2-0.1,0.2c-0.2,0.4-0.6,0.7-1,0.7
			c-0.3-0.5-1-1-1.4-0.4c-1.4,1.6-2.3,3.5-2.7,5.5c-0.4,0-0.8,0-1.3,0.1C160.6,324.2,161,321.4,162.6,319.3z"/>
		<path class="st45" d="M163.7,328.7c1.8-0.1,3.5,0.1,5.2,0.5c0.1,0.7,0.4,1.5,0,2.1c-0.8,0.8-1.9,1.4-3,1.5
			c-1.4,0.3-2.8,0.2-4.1-0.2c0-1.1-1.1-1.7-2-2.1c0.5,0,0.9,0,1.4,0c0.1-0.5,0.2-1.1,0.3-1.6h0.1c0,0.6-0.2,1.6,0.6,1.9
			s2.1,0.4,2.4-0.6C164.1,329.8,163.6,329.4,163.7,328.7z"/>
		<path class="st46" d="M158.3,329.9c1-0.4,2-0.8,3.1-1c-0.1,0.5-0.2,1.1-0.3,1.6c-0.5,0-1,0-1.4,0c-0.5-0.1-1,0-1.4,0.2
			c-0.3,1.2,0.9,1.9,1.9,2.2c0.5,0.1,1.1,0,1.6-0.3c1.3,0.4,2.8,0.5,4.1,0.2c1.1-0.1,2.2-0.7,3-1.5c0.5-0.6,0.2-1.4,0.1-2.1
			c0.2,0.1,0.5,0.1,0.7,0.2c1.4,1,3.1,1.8,3.4,3.6c0.5,3-0.5,6.1-2.6,8.3c-1.8,1.7-4.1,2.7-6.6,2.6c-2.4,0.1-4.8-0.5-6.8-1.9
			c-1.2-0.8-2-2-2.5-3.3c-0.4-1.4-0.5-2.8-0.4-4.3C154.9,332.5,156.4,330.9,158.3,329.9z M156.8,334.7c0.2,0.7,1.2,0.7,1.7,0.2
			c0.7-0.6,1.2-2,0.3-2.6C157.5,332.4,156.7,333.5,156.8,334.7z"/>
		<path class="st46" d="M129.7,397.7c1.2-0.7,2.6-1.2,4-1.2c1.6,0.1,3.1,0.9,4.1,2.2c-0.5,2.3-0.1,4.6,1.1,6.6
			c0.4,0.5,0.9,1.1,1.3,1.6c0.7,2.5,2.9,4.3,5.5,4.5c2.4,0.2,4.7-0.8,6.2-2.6c1-1.3,1.7-2.9,2-4.5c0.1-0.7,0.4-1.4,0.6-2.1
			c0.2-0.4,0.6-0.7,1.1-0.7c1.3,0,2.6,0.6,3.5,1.6c0.4,0.4,0.6,1,0.6,1.6c0.1,1.6,0.7,3.1,1.7,4.3c0.4,0.4,0.8,0.7,1.2,1.1
			c1,1.8,2.8,3.1,4.9,3.4c2.4,0.4,4.8-0.1,6.8-1.5c2.3-1.6,3.7-4.2,3.6-6.9c0-0.8,0-1.6,0.1-2.4c0.2-0.8,0.9-1.3,1.8-1.2
			c1,0.1,1.8,0.6,2.3,1.5c0.9,1.2,1.4,2.7,1.6,4.2c0.4,1.9-0.1,3.8-1.2,5.4c-1.3,1.8-3.5,2.5-5.5,2.9c-4,0.7-8.1,1.1-12.1,1.1
			c-7.3,0.2-14.5-0.4-21.7-1.7c-3.8-0.7-7.4-1.8-10.9-3.5c-2-1-3.8-2.5-5.2-4.3c-1.6-2.4-2.2-5.3-1.4-8.1
			C127.1,398.7,128.5,398.3,129.7,397.7z"/>
		<path class="st47" d="M169.6,329.4c2.8,0.6,5,2.6,6,5.3c1.3,3.3,0.3,7-2.5,9.2c-2.5,1.7-5.7,2-8.6,1.9s-5.8-0.5-8.1-2.3
			c-1.7-1.5-2.7-3.6-2.7-5.9c-0.1-1.1,0.1-2.2,0.5-3.2c-0.1,1.4,0.1,2.9,0.4,4.3c0.4,1.3,1.3,2.5,2.5,3.3c2,1.3,4.4,2,6.8,1.9
			c2.5,0,4.8-0.9,6.6-2.6c2.1-2.2,3.1-5.3,2.6-8.3C172.7,331.2,170.9,330.4,169.6,329.4z"/>
		<path class="st47" d="M202.8,392.3c1.9-0.4,3.8-0.3,5.7-0.7c0,3.3,0,6.5,0,9.8c-0.5,3.2-2.1,6.1-4.5,8.2c-2,1.8-4.4,3.3-6.9,4.3
			c-3.2,1.3-6.6,2.3-10,3c-1.3,0.3-2.7,0.6-4,0.7c0.4-0.2,0.7-0.4,1.1-0.5c3.3-1,6.7-2,9.5-4.1c1.2-0.9,2.2-2.1,2.6-3.5
			c0.2-0.7,0.3-1.4,0.3-2.1c-0.7,0-1.4,0-2.2-0.1c-0.8-0.2-1.5-0.6-2.3-0.7c2.2-0.3,4.1-1.3,5.5-3c1.3-1.7,1.9-3.9,1.4-6.1
			c-0.2-0.7-0.2-1.5,0-2.2C199.7,393.7,201.1,392.6,202.8,392.3z"/>
		<path class="st47" d="M121.2,392.7c1.6,1.7,3.7,2.8,6,3.1c1.5-0.1,2.9-0.7,4.2-1.6c1.2-0.7,2.7-0.7,3.9,0c1.2,0.7,2.1,1.8,2.5,3.1
			c0.1,0.5,0.1,1,0,1.4c-1-1.3-2.5-2.1-4.1-2.2c-1.4,0-2.8,0.5-4,1.2c-1.3,0.6-2.6,1-4,1.1c-0.7,2.8-0.2,5.7,1.4,8.1
			c1.4,1.8,3.2,3.3,5.2,4.3c3.4,1.6,7.1,2.8,10.9,3.5c7.2,1.3,14.4,1.8,21.7,1.7c4.1,0,8.1-0.4,12.1-1.1c2.1-0.4,4.2-1.1,5.5-2.9
			c1.1-1.5,1.6-3.5,1.3-5.4c-0.2-1.5-0.8-2.9-1.6-4.2c-0.5-0.8-1.4-1.3-2.3-1.5c-0.8-0.1-1.5,0.5-1.8,1.2c-0.1,0.8-0.2,1.6-0.1,2.3
			c0,2.8-1.3,5.4-3.6,7c-2,1.4-4.4,2-6.8,1.5c-2.1-0.4-3.8-1.6-4.9-3.4c1.8,1,4,1.3,6,0.9c2.3-0.4,4.2-1.8,5.3-3.8
			c0.8-1.6,1-3.4,0.6-5.1c-0.2-0.9,0-1.8,0.6-2.4c1.6-1.6,4-1.9,6.1-1.9c0.9-0.1,1.7,0.3,2.3,0.9c0.8,0.8,0.8,2,1.1,3
			c0.6,2.3,2.4,4.1,4.7,4.8c0.9,0.2,1.8,0.3,2.7,0.2c0.8,0.2,1.5,0.6,2.3,0.7c0.7,0.1,1.4,0.1,2.2,0.1c0,0.7-0.1,1.4-0.3,2.1
			c-0.5,1.4-1.4,2.6-2.6,3.5c-2.8,2.1-6.2,3.1-9.5,4.1c-0.4,0.1-0.8,0.3-1.1,0.5c-2.6,0.5-5.2,0.8-7.8,1c-8.6,0.7-17.3,0.5-25.9-0.5
			c-4.6-0.5-9.1-1.5-13.4-3c-2.7-0.8-5.3-2.1-7.8-3.6c-2.7-1.7-4.8-4.1-6-7c-0.5-1.2-0.9-2.4-0.9-3.7
			C121.2,398.1,121.2,395.4,121.2,392.7z"/>
		<path class="st48" d="M152,398.8c0.5-0.8,1.4-1.3,2.4-1.2c1.5,0,2.9,0.4,4.1,1.2c0.9,0.6,1.4,1.5,1.4,2.6
			c-0.1,1.1-0.2,2.1-0.2,3.2c0-0.6-0.2-1.2-0.6-1.6c-0.9-1-2.1-1.6-3.5-1.6c-0.5,0-0.9,0.3-1.1,0.8c-0.3,0.7-0.5,1.4-0.6,2.1
			c-0.3,1.6-1,3.2-2,4.5c-1.5,1.8-3.8,2.8-6.2,2.6c-2.6-0.2-4.8-2-5.5-4.5c1.2,0.8,2.5,1.3,3.9,1.4c2,0.2,4.1-0.6,5.5-2
			c1.3-1.4,2.1-3.4,2-5.4C151.6,400.2,151.7,399.5,152,398.8z"/>
		<path class="st49" d="M207.7,389.5c-1.1,0.2-2.2,0.3-3.3,0.4c-1.9,0.1-3.7,0.7-5.2,1.8c-1.2,1-2,2.3-2.3,3.8
			c-0.2,1.2,0.3,2.4,0.2,3.7c0,1.3-0.6,2.6-1.5,3.5c-1.5,1.4-3.6,2.1-5.6,1.7c-1.5-0.4-2.8-1.5-3.2-3c-0.3-0.8-0.3-1.6-0.6-2.4
			c-0.4-0.8-0.9-1.6-1.6-2.2c-0.7-0.6-1.7-1-2.6-1.1c-2.4-0.2-4.9,0.2-7,1.4c-0.6,0.4-1.2,0.9-1.7,1.5c-0.5,0.7-0.8,1.5-0.9,2.4
			c-0.1,1.2,0.5,2.5,0.2,3.7c-0.3,1.8-1.6,3.4-3.3,4c-1.2,0.4-2.5,0.5-3.8,0.3c-1.8-0.3-3.2-1.6-3.6-3.4c-0.4-1.7,0.2-3.3,0-5
			c-0.3-1.2-1-2.3-1.9-3.2c-1.8-1.3-4-1.9-6.2-1.7c-0.8,0.1-1.6,0.4-2.3,0.8c-0.7,0.6-1.2,1.3-1.5,2.1c-0.4,1-0.2,2.1-0.3,3.1
			c0,1.3-0.6,2.5-1.5,3.4c-2.1,1.9-5.3,1.7-7.2-0.3c-0.1-0.1-0.2-0.2-0.3-0.3c-1-1.6-1.3-3.6-0.8-5.5c0.2-1.7-0.3-3.4-1.4-4.7
			c-2.2-2.8-6.1-3.4-9-1.4c-0.8,0.6-1.8,0.9-2.8,0.8c-2.8-0.9-5-2.8-6.3-5.5c-0.3-0.5-0.4-1.1-0.3-1.7c0-1.7,0-3.4,0.2-5.1
			c0.6-4.5,2.3-8.7,5-12.3c0.1-1.1,0.1-2.3,0.2-3.5c0.8-6.9,4.2-13.3,9.5-17.9c1.6-1.5,3.4-2.8,5.3-3.9c1.3-0.9,2.7-1.7,4.2-2.3
			c2.2-1,4.5-1.8,6.9-2.3c0.2,1.1,0.5,2.2,1,3.3l0,0c1.2,2.2,3.3,3.9,5.7,4.8c2.6,0.8,5.4,1.2,8.2,1c2.7-0.1,5.6-0.6,7.9-2.2
			c1.3-1,2.4-2.2,3.2-3.7c0.5-0.9,0.8-2,1-3c3.5,0.9,6.9,2.2,10,4c5.6,3,10.2,7.7,13.1,13.4c1.8,3.6,2.7,7.6,2.7,11.6
			c0,0.3,0,0.7,0.1,1c2.2,3,3.7,6.4,4.5,10c0.5,2.7,0.7,5.5,0.6,8.2C209.4,388.5,208.7,389.3,207.7,389.5z"/>
		<path class="st50" d="M191.2,433.3c-0.7-2-1.3-4.1-2-6.1c-0.3-0.7-0.1-1.5,0.4-1.9c1.3-1.2,1.7-3.1,1-4.8c-0.3-0.9-0.4-1.3,0-1.7
			c0-0.1,0-0.3,0.1-0.4l0,0c0-0.3,0.1-0.6,0.2-0.9c0.6-2.6,1.9-4.9,3.9-6.8c0-0.1,0.1-0.2,0.1-0.3c0.3-0.4,0.6-0.9,0.8-1.3
			c8.7-14.1,5.2-31.1-7.1-41.2c-13.7-11.1-33.5-10.5-46.5,1.3c-11.7,10.4-13.8,27.9-4.9,40.8c0.4,0.5,0.7,1,1,1.5
			c0.4,0.3,0.6,0.7,0.8,1.2c0.3,0.3,0.6,0.7,0.7,1.2c0.3,0.3,0.6,0.7,0.7,1.2l0,0c0.1,0.1,0.1,0.2,0.2,0.4l0,0
			c0.3,0.4,0.6,0.8,0.7,1.3l0.1,0.1c0.4,0.7,0.6,1.6,0.3,2.5v0.1c0,0.2,0,0.4-0.1,0.6c-0.1,0.3-0.1,0.6-0.2,0.9
			c-0.5,1.4-0.2,3,0.9,4c0.3,0.4,0.7,0.7,1,1.1c-1.5,4.5-3,9-4.4,13.5c-0.3,0.8-0.5,1.6-0.6,2.4c-0.1,1.7,1.2,3.2,2.9,3.3
			c0.3,0,0.6,0,0.9-0.1c0.7-0.2,1.4-0.5,2-0.8c2.1-1.7,5.2-1.8,7.4-0.2c0.7,0.3,1,1.1,0.8,1.8c-0.1,0.4-0.2,0.8-0.2,1.2
			c-0.1,1.9-0.9,3.2-2.9,3.6c-0.5,0.2-0.9,0.4-1.4,0.6c-0.6,0.7-1.3,1.3-1.9,2c-1,1.3-1.6,2.9-1.7,4.5c-0.2,0.9,0.4,1.8,1.3,2
			c0.1,0,0.3,0,0.4,0c1.4,0.1,2.9,0.1,4.3,0.1l7.6,0c0.6,0,1.2,0,1.8,0c1.7-0.1,2.3-0.9,2-2.6c-0.2-1.4-0.7-2.8-1.6-3.9
			c-0.8-0.9-1.1-2.2-0.7-3.4c0.3-1,0.5-2,0.6-3c0.1-1.1,0.8-2.1,1.8-2.6c3.4-2.1,6.2-2,9.3,0.5c0.3,0.3,0.5,0.6,0.6,1
			c0.2,1,0.4,2,0.6,3c0.7,1.8,0.8,3.5-0.7,5c-0.9,1.1-1.3,2.6-1.3,4c0,1.3,0.5,1.9,1.8,2c1.5,0.1,3.1,0.1,4.6,0.1l5.5-0.1
			c0.9,0,1.8,0,2.8,0c2.6,0,2.8-0.2,2.8-2.8v-0.9c-0.8-1.4-1.7-2.8-2.5-4.2c-1.2-0.8-2.4-1.5-3.8-2c-0.6-0.1-1.1-0.7-1.1-1.3
			c-0.1-0.6-0.3-1.2-0.4-1.8c-0.5-2.2-0.5-2.5,1.8-3.5c1.7-0.8,3.7-0.7,5.3,0.3c0.7,0.4,1.4,0.8,2.1,1.2c1.1,0.6,2.5,0.4,3.4-0.5
			c1-0.8,1.4-2.1,1-3.3C193,438.5,192.1,435.9,191.2,433.3z M142,406c-0.6,0.9-0.9,1.9-1.1,3c-1-0.1-1.2-0.8-1.5-1.2
			c-7.6-11.5-5.6-26.9,4.7-36.1c7-6.7,16.8-9.7,26.3-8.3c8.9,1,16.9,5.7,22,13.1c6.6,9.3,6.8,21.7,0.5,31.2
			c-0.3,0.6-0.7,1.1-1.3,1.4l-1-2.5c-1-0.9-2.2-1.7-3.6-1.3c-1.6,0.4-2.5-0.4-3.5-1.3c-3.2-0.5-4.4,0-5.4,2.9
			c-0.2,0.7-0.7,1.2-1.4,1.3c-0.3,0.1-0.6,0.2-0.9,0.3c-1.9,1-2.6,3.3-1.6,5.2c0.3,0.7,0.9,1.2,1.5,1.6c1.1,0.6,2.2,1.1,3.4,1.5
			c0.6,0.2,1.1,0.5,1.6,0.8c0.2,0.2,0.2,0.5,0.1,0.7c0,0,0,0-0.1,0.1c-0.1,0.1-0.3,0.3-0.5,0.4c-9,4.3-19.4,4.3-28.4,0
			c-0.1,0-0.2-0.1-0.3-0.2c-0.1-0.1-0.4-0.3-0.4-0.4c0-0.3,0.2-0.5,0.4-0.7c1.3-0.6,2.6-1.1,3.9-1.7c0.9-0.3,1.6-0.9,2.1-1.7
			c1.2-1.8,0.7-4.2-1.1-5.4c0,0,0,0,0,0c-0.5-0.3-1.1-0.5-1.7-0.7c-0.4-0.1-0.7-0.5-0.8-0.8c-1.4-3.4-2.3-3.9-5.7-3.1
			c-0.8,1-1.6,1.6-3.1,1.2C144.2,404.8,143.1,405.5,142,406z M186.9,418.8c0.4,1.1,1.1,2.2,1.1,3.5c0,0.3-0.2,0.6-0.4,0.8
			c-0.4,0.2-0.8,0.1-1.1-0.2c-0.2-0.3-0.3-0.5-0.5-0.8c-0.2-0.5-0.4-1-0.6-1.4c-0.7-1.7-1.1-3.6-2.2-5s-3.3-1.6-4.9-2.4
			c-0.5-0.2-0.9-0.5-1.3-0.8c-0.2-0.2-0.2-0.5-0.1-0.8c0.1-0.3,0.3-0.5,0.2-0.5c1.3-0.3,2,0.4,2.8,0.4c0.8,0.2,1.5-0.2,1.7-1
			c0.1-0.3,0.1-0.6,0-0.8c-0.1-0.3-0.2-0.6-0.3-0.9c-0.1-0.3-0.2-0.6-0.3-0.9c-0.1-0.5-0.1-1,0.5-1.3c0.5-0.2,1,0,1.2,0.4
			c0,0,0,0,0,0.1c0.2,0.5,0.4,1,0.6,1.4c0.7,1.3,1.6,1.5,2.6,0.5c0.3-0.3,0.5-0.6,0.8-0.9c0.2-0.2,0.6-0.3,0.8-0.1
			c0.4,0.2,0.7,0.5,0.6,1c-0.3,0.9-0.7,1.7-1.1,2.5C185.1,415.9,185.2,414.2,186.9,418.8L186.9,418.8z M145.3,411.8
			c-0.4-0.9-0.9-1.8-1.3-2.8c-0.1-0.4,0.1-0.9,0.5-1c0.3-0.2,0.6-0.1,0.9,0.1c0.4,0.5,0.8,0.9,1.2,1.3c0.6,0.4,1.4,0.3,1.9-0.3
			c0,0,0,0,0-0.1c0.4-0.7,0.7-1.5,1.1-2.2c0.2-0.4,0.7-0.5,1.1-0.3c0.2,0.1,0.4,0.5,0.6,0.8c-0.2,0.7-0.4,1.3-0.6,2
			c-0.4,1.5,0.4,2.3,2,2c0.6-0.1,1.2-0.4,1.8-0.5c0.3,0,0.6,0.2,0.7,0.4c0.3,0.3,0.2,0.8-0.1,1.1c0,0,0,0,0,0
			c-0.8,0.5-1.6,0.9-2.4,1.2c-4.5,1.9-3.3,0.9-5.2,5.4c-0.5,1.2-1,2.5-1.5,3.7c-0.2,0.4-0.7,0.5-1.1,0.3c-0.4-0.1-0.7-0.6-0.6-1
			c0.4-1.3,0.9-2.5,1.3-3.8C147.1,414.4,147.2,415.6,145.3,411.8L145.3,411.8z M157.5,457c-1.5,0-3.1,0-4.6,0l0,0
			c-1.2,0-2.4,0-3.7,0c-0.5,0-1.1,0.1-1.3-0.5c-0.1-0.5,0.1-1,0.5-1.4c1.9-2.6,5.5-3.2,8-1.3c0.7,0.5,1.3,1.2,1.7,1.9
			c0.3,0.3,0.2,0.8-0.1,1.1C158,457,157.7,457,157.5,457z M155.4,446.3c0.2-0.5,0.9-0.5,1.4-0.3c0.3,0.1,0.5,0.3,0.5,1
			c0,1-0.2,2-0.6,2.9c-0.2,0.4-0.6,0.5-1,0.4c-0.4-0.1-0.8-0.3-0.9-0.7C154.7,448.4,154.9,447.2,155.4,446.3L155.4,446.3z
			 M184.7,456.9h-10.6c-0.4-1,0.2-1.6,0.8-2.2c0.9-1,2.1-1.7,3.4-1.9C180.9,452.3,183.1,453.6,184.7,456.9L184.7,456.9z M176,445.9
			c0.4-0.1,0.8,0.1,1,0.4c0.4,0.9,0.6,1.9,0.6,2.9c0,0.6-0.4,0.9-1,0.9c-0.4,0.1-0.8-0.2-0.8-0.6c0,0,0,0,0,0
			c-0.2-0.9-0.4-1.8-0.6-2.6C175,446.3,175.3,445.9,176,445.9L176,445.9z M190.6,441.9c-0.6,0.2-1-0.2-1.4-0.5
			c-3.1-1.8-6.9-1.8-9.9,0.1c-0.7,0.5-1.4,0.8-2.2,1.1c-1.8,0.6-3.7,0.3-5.3-0.7c-1.2-0.8-2.5-1.4-3.9-1.6c-2.3-0.4-4.7,0.1-6.8,1.3
			c-0.8,0.6-1.8,1.1-2.8,1.2c-1.6,0.3-3.3-0.1-4.7-0.9c-3.1-2.2-7.2-2.4-10.4-0.4c-0.3,0.1-0.6,0.2-0.9,0.3c-0.1,0-0.2,0-0.3,0
			c-0.3-0.4-0.3-1-0.1-1.4c1.4-4.3,2.8-8.5,4.2-12.8c0.1-0.6,0.4-1.1,0.9-1.6c1.1-0.8,1.9-2,2.4-3.3c0.8-0.1,1.6,0,2.3,0.3
			c9.2,2.7,18.9,2.8,28.1,0.2c0.3-0.1,0.6-0.2,0.9-0.3c1.8-0.5,1.8-0.4,2.9,1.2c0.2,0.2,0.3,0.6,0.5,0.7c1.7,1.1,2.1,2.9,2.7,4.6
			c1.2,3.7,2.4,7.4,3.6,11.1C190.6,441,191,441.4,190.6,441.9L190.6,441.9z"/>
		<path class="st51" d="M183.6,403.9c-3.2-0.5-4.4,0-5.4,2.9c-0.2,0.7-0.7,1.2-1.4,1.3c-0.3,0.1-0.6,0.2-0.9,0.3
			c-1.9,1-2.6,3.3-1.6,5.2c0.3,0.7,0.9,1.2,1.5,1.6c1.1,0.6,2.2,1.1,3.4,1.5c0.6,0.2,1.1,0.5,1.6,0.8c0.2,0.2,0.2,0.5,0.1,0.7
			c0,0,0,0-0.1,0.1c-0.1,0.1-0.3,0.3-0.5,0.4c-9,4.3-19.4,4.3-28.4,0c-0.1,0-0.2-0.1-0.3-0.2c-0.1-0.1-0.4-0.3-0.4-0.4
			c0-0.3,0.2-0.5,0.4-0.7c1.3-0.6,2.6-1.1,3.9-1.7c0.9-0.3,1.6-0.9,2.1-1.7c1.2-1.8,0.7-4.2-1.1-5.4c0,0,0,0,0,0
			c-0.5-0.3-1.1-0.5-1.7-0.7c-0.4-0.1-0.7-0.5-0.8-0.8c-1.4-3.4-2.3-3.9-5.7-3.1c0-0.8-0.3-1.6-0.7-2.3c-0.8-1.3-2.4-2-3.9-1.7
			c-1.4,0.1-2.5,1.1-2.9,2.4c-0.4,1.4-0.5,2.8,1.1,3.7c-0.6,0.9-0.9,1.9-1.1,3c-1-0.1-1.2-0.8-1.5-1.2c-7.6-11.5-5.6-26.9,4.7-36.1
			c7-6.7,16.8-9.7,26.3-8.3c8.9,1,16.9,5.7,22,13.1c6.6,9.3,6.8,21.7,0.5,31.2c-0.3,0.6-0.7,1.1-1.3,1.4l-1-2.5
			c0.3-0.7,0.6-1.5,0.8-2.3c0.4-2-0.9-3.9-2.9-4.3c-1.5-0.3-3.1,0.4-3.9,1.8C184.3,402.4,184,403.1,183.6,403.9z M171.2,377.9
			c0.7,0.7,1.5,1.3,2.3,1.8c1.5,1,3.4,1.1,5,0.3c2.6-1.2,4.6-5.2,4.1-8c-0.1-0.6-0.6-1.1-1.2-1.1c-0.6-0.1-1.2,0.3-1.4,0.9
			c-0.2,0.9-0.3,1.8-0.6,2.7c-0.6,2-2,3.3-3.3,3.1c-1.8-0.3-2.6-1.5-3-3.1c-0.3-0.9-0.3-1.8-0.6-2.7c-0.2-0.6-0.8-1-1.4-0.9
			c-0.5,0-1,0.3-1.1,0.8c-0.2,0.7-0.3,1.4-0.4,2.1c-0.1,0.8-0.5,1.6-0.9,2.2c-1.4,2.1-3.5,2-4.9-0.1c-0.6-0.9-0.9-1.8-1-2.9
			c0-0.5-0.1-1-0.3-1.5c-0.2-0.5-0.7-0.8-1.2-0.8c-0.5,0-1,0.3-1.2,0.8c-0.2,0.6-0.3,1.2-0.3,1.8c-0.2,1.1-0.6,2.1-1.3,3
			c-0.8,1.2-2.3,1.5-3.5,0.7c-0.3-0.2-0.5-0.4-0.7-0.7c-0.6-0.7-1-1.5-1.2-2.4c-0.1-0.7-0.2-1.4-0.4-2.1c-0.1-0.7-0.8-1.2-1.5-1.1
			c0,0-0.1,0-0.1,0c-0.6,0.1-1.1,0.6-1.1,1.2c-0.2,2.6,0.8,5.1,2.7,6.9c1.9,1.9,4.9,2,7,0.3c0.6-0.5,1.2-1,1.7-1.5
			C165,381.3,167.2,381.4,171.2,377.9L171.2,377.9z M166.3,397.4L166.3,397.4c-2.2,0-4.5,0-6.8,0c-1.6,0-2.2,0.6-2.2,2.2
			c-0.1,4.9,3.7,8.9,8.5,9.1s8.9-3.7,9.1-8.5c0-0.3,0-0.5,0-0.8c-0.1-1.3-0.6-1.9-1.9-1.9C170.9,397.3,168.6,397.4,166.3,397.4
			L166.3,397.4z M179.7,394.7c0.3-0.9,1-1,1.6-1.4s1.4-0.8,2.1-1.3c0.7-0.4,0.9-1.2,0.6-1.9c-0.4-0.7-1.2-0.9-1.9-0.6
			c-2.2,1.2-4.4,2.5-6.6,3.9c-0.6,0.4-0.8,1.2-0.4,1.8c0.1,0.1,0.2,0.2,0.3,0.3c2.2,1.4,4.5,2.7,6.8,4.1c0.4,0.2,0.8,0.1,1.1-0.1
			c0.7-0.3,0.9-1.1,0.6-1.8c-0.1-0.2-0.3-0.4-0.4-0.5C182.3,396.3,181,395.5,179.7,394.7L179.7,394.7z M152.8,394.7
			c-1,0.6-1.9,1.1-2.8,1.6c-0.4,0.3-0.9,0.5-1.2,0.9c-0.6,0.5-0.7,1.3-0.2,1.9c0.3,0.5,1.1,0.7,1.6,0.4c2.1-1.2,4.2-2.4,6.3-3.7
			c0.7-0.3,1.1-1.2,0.8-1.9c-0.1-0.4-0.4-0.6-0.8-0.8c-2-1.2-4-2.4-6-3.6c-0.2-0.1-0.4-0.2-0.6-0.2c-0.5-0.1-1,0.1-1.3,0.5
			c-0.4,0.5-0.4,1.2,0.1,1.7c0.4,0.3,0.8,0.7,1.2,0.9C151,393.1,151.9,393.8,152.8,394.7L152.8,394.7z"/>
		<path class="st46" d="M142,441.7c-0.3-0.4-0.3-1-0.1-1.4c1.4-4.3,2.8-8.5,4.2-12.8c0.1-0.6,0.4-1.1,0.9-1.6c1.1-0.8,1.9-2,2.4-3.3
			c0.8-0.1,1.6,0,2.3,0.3c9.2,2.7,18.9,2.8,28.1,0.2c0.3-0.1,0.6-0.2,0.9-0.3c1.8-0.5,1.8-0.4,2.9,1.2c0.2,0.2,0.3,0.6,0.5,0.7
			c1.7,1.1,2.1,2.9,2.7,4.6c1.2,3.7,2.4,7.4,3.6,11.1c0.1,0.5,0.5,0.9,0.1,1.4c-0.6,0.2-1-0.2-1.4-0.5c-3.1-1.8-6.9-1.8-9.9,0.1
			c-0.7,0.5-1.4,0.8-2.2,1.1c-1.8,0.6-3.7,0.3-5.3-0.7c-1.2-0.8-2.5-1.4-3.9-1.6c-2.3-0.4-4.7,0.1-6.8,1.3c-0.8,0.6-1.8,1.1-2.8,1.2
			c-1.6,0.3-3.3-0.1-4.7-0.9c-3.1-2.2-7.2-2.4-10.4-0.4c-0.3,0.1-0.6,0.2-0.9,0.3C142.2,441.7,142.1,441.7,142,441.7z"/>
		<path class="st51" d="M177.2,411.1c1.3-0.3,2,0.4,2.8,0.4c0.8,0.2,1.5-0.2,1.7-1c0.1-0.3,0.1-0.6,0-0.8c-0.1-0.3-0.2-0.6-0.3-0.9
			c-0.1-0.3-0.2-0.6-0.3-0.9c-0.1-0.5-0.1-1,0.5-1.3c0.5-0.2,1,0,1.2,0.4c0,0,0,0,0,0.1c0.2,0.5,0.4,1,0.6,1.4
			c0.7,1.3,1.6,1.5,2.6,0.5c0.3-0.3,0.5-0.6,0.8-0.9c0.2-0.2,0.6-0.3,0.8-0.1c0.4,0.2,0.7,0.5,0.6,1c-0.3,0.9-0.7,1.7-1.1,2.5
			c-2.2,4.4-2,2.7-0.4,7.3c0.4,1.1,1.1,2.2,1.1,3.5c0,0.3-0.2,0.6-0.4,0.8c-0.4,0.2-0.8,0.1-1.1-0.2c-0.2-0.3-0.3-0.5-0.4-0.8
			c-0.2-0.5-0.4-1-0.6-1.4c-0.7-1.7-1.1-3.6-2.2-5s-3.3-1.6-4.9-2.4c-0.5-0.2-0.9-0.5-1.3-0.8c-0.2-0.2-0.2-0.5-0.1-0.8
			C177.1,411.3,177.3,411,177.2,411.1z"/>
		<path class="st51" d="M151.3,407.5c-0.2,0.7-0.4,1.3-0.6,2c-0.4,1.5,0.4,2.3,2,2c0.6-0.1,1.2-0.4,1.8-0.5c0.3,0,0.6,0.2,0.7,0.4
			c0.3,0.3,0.2,0.8-0.1,1.1c0,0,0,0,0,0c-0.8,0.5-1.6,0.9-2.4,1.2c-4.5,1.9-3.3,0.9-5.2,5.4c-0.5,1.2-1,2.5-1.5,3.7
			c-0.2,0.4-0.7,0.5-1.1,0.3c-0.4-0.1-0.7-0.6-0.6-1c0.4-1.3,0.9-2.5,1.3-3.8c1.5-3.9,1.6-2.7-0.4-6.5c-0.4-0.9-0.9-1.8-1.3-2.8
			c-0.1-0.4,0.1-0.9,0.5-1c0.3-0.2,0.6-0.1,0.9,0.1c0.4,0.5,0.8,0.9,1.2,1.3c0.6,0.4,1.4,0.3,1.9-0.3c0,0,0,0,0-0.1
			c0.4-0.7,0.7-1.5,1.1-2.2c0.2-0.4,0.7-0.5,1.1-0.3C150.9,406.8,151.1,407.2,151.3,407.5z"/>
		<path class="st45" d="M142,406c-1.6-0.9-1.5-2.3-1.1-3.7c0.4-1.3,1.5-2.2,2.9-2.4c1.5-0.3,3.1,0.4,3.9,1.7
			c0.4,0.7,0.7,1.5,0.7,2.3c-0.8,1-1.6,1.6-3.1,1.2C144.2,404.8,143.1,405.5,142,406z"/>
		<path class="st45" d="M183.6,403.9c0.4-0.7,0.7-1.5,1.1-2.1c1-1.7,3.2-2.4,5-1.4c1.4,0.8,2.1,2.3,1.8,3.9
			c-0.2,0.8-0.4,1.5-0.8,2.3c-1-0.9-2.2-1.7-3.6-1.3C185.5,405.6,184.6,404.8,183.6,403.9z"/>
		<path class="st47" d="M153,457c-1.2,0-2.4,0-3.7,0c-0.5,0-1.1,0.1-1.3-0.5c-0.1-0.5,0.1-1,0.5-1.4c1.9-2.6,5.5-3.2,8-1.3
			c0.7,0.5,1.3,1.2,1.7,1.9c0.3,0.3,0.2,0.8-0.1,1.1c-0.2,0.1-0.4,0.2-0.5,0.2C156.1,457,154.5,457,153,457L153,457z"/>
		<path class="st47" d="M184.7,456.9h-10.6c-0.4-1,0.2-1.6,0.8-2.2c0.9-1,2.1-1.7,3.4-1.9C180.9,452.3,183.1,453.6,184.7,456.9z"/>
		<path class="st51" d="M157.3,446.9c0,1-0.2,2-0.6,2.9c-0.2,0.4-0.6,0.5-1,0.4c-0.4-0.1-0.8-0.3-0.9-0.7c-0.1-1.1,0.2-2.2,0.7-3.2
			c0.2-0.5,0.9-0.5,1.4-0.3C157.1,446,157.3,446.2,157.3,446.9z"/>
		<path class="st51" d="M176,445.9c0.4-0.1,0.8,0.1,1,0.4c0.4,0.9,0.6,1.9,0.6,2.9c0,0.6-0.4,0.9-1,0.9c-0.4,0.1-0.8-0.2-0.8-0.6
			c0,0,0,0,0,0c-0.2-0.9-0.4-1.8-0.6-2.6C175,446.3,175.3,445.9,176,445.9z"/>
		<path class="st50" d="M171.2,377.9c-3.9,3.5-6.1,3.5-10,0c-0.6,0.5-1.1,1-1.7,1.5c-2.1,1.7-5.1,1.6-7-0.3
			c-1.9-1.7-2.9-4.3-2.7-6.9c0-0.6,0.5-1.2,1.1-1.2c0.7-0.2,1.4,0.3,1.6,1c0,0,0,0.1,0,0.1c0.2,0.7,0.2,1.4,0.4,2.1
			c0.2,0.9,0.6,1.7,1.2,2.4c0.8,1.1,2.4,1.4,3.5,0.6c0.3-0.2,0.5-0.4,0.7-0.7c0.7-0.9,1.2-1.9,1.3-3c0.1-0.6,0.2-1.2,0.3-1.8
			c0.2-0.5,0.7-0.8,1.2-0.8c0.5,0,1,0.3,1.2,0.8c0.2,0.5,0.3,1,0.3,1.5c0.1,1,0.4,2,1,2.9c1.4,2.1,3.5,2.2,4.9,0.1
			c0.5-0.7,0.8-1.4,0.9-2.2c0.1-0.7,0.2-1.4,0.4-2.1c0.1-0.5,0.6-0.9,1.1-0.8c0.6-0.1,1.2,0.3,1.4,0.9c0.2,0.9,0.3,1.8,0.6,2.7
			c0.5,1.5,1.3,2.8,3,3.1c1.3,0.2,2.7-1.1,3.3-3.1c0.3-0.9,0.3-1.8,0.6-2.7c0.2-0.6,0.8-1,1.4-0.9c0.6,0,1.2,0.5,1.2,1.1
			c0.5,2.8-1.6,6.8-4.1,8c-1.6,0.8-3.5,0.7-5-0.3C172.7,379.2,171.9,378.5,171.2,377.9z"/>
		<path class="st50" d="M166.3,397.4c2.2,0,4.5,0,6.8,0c1.3,0,1.8,0.6,1.9,1.9c0.3,4.9-3.4,9-8.2,9.3c-4.9,0.3-9-3.4-9.3-8.2
			c0-0.3,0-0.5,0-0.8c0-1.6,0.6-2.2,2.2-2.2C161.8,397.3,164.1,397.4,166.3,397.4L166.3,397.4z M160.3,400.4c0.1,1.1,0.4,2.1,1.1,3
			c1.2,1.8,3.4,2.8,5.6,2.4c2.3-0.3,4.2-1.9,4.8-4.2c0.2-0.7-0.1-1.2-0.8-1.3C167.5,400.3,164.1,400.3,160.3,400.4L160.3,400.4z"/>
		<path class="st50" d="M179.7,394.7c1.3,0.8,2.6,1.6,3.8,2.5c0.6,0.4,0.8,1.2,0.3,1.8c-0.1,0.2-0.3,0.3-0.5,0.4
			c-0.3,0.3-0.8,0.3-1.1,0.1c-2.3-1.3-4.6-2.6-6.8-4.1c-0.6-0.4-0.7-1.2-0.2-1.8c0.1-0.1,0.2-0.2,0.3-0.3c2.2-1.4,4.4-2.6,6.6-3.9
			c0.7-0.4,1.5-0.1,1.9,0.6c0.4,0.7,0.1,1.5-0.6,1.9c-0.7,0.5-1.4,0.8-2.1,1.3S180,393.9,179.7,394.7z"/>
		<path class="st50" d="M152.8,394.6c-0.9-0.8-1.9-1.6-3-2.1c-0.4-0.3-0.8-0.6-1.2-0.9c-0.4-0.5-0.4-1.2-0.1-1.7
			c0.3-0.4,0.8-0.7,1.3-0.5c0.2,0,0.4,0.1,0.6,0.2c2,1.2,4.1,2.3,6,3.6c0.7,0.3,1.1,1.2,0.8,1.9c-0.1,0.4-0.4,0.6-0.8,0.8
			c-2.1,1.3-4.2,2.5-6.3,3.7c-0.6,0.3-1.3,0.1-1.6-0.4c-0.4-0.6-0.4-1.4,0.2-1.9c0.4-0.3,0.8-0.6,1.2-0.9
			C150.9,395.8,151.8,395.3,152.8,394.6z"/>
		<path class="st41" d="M160.3,400.3c3.7,0,7.2-0.1,10.7,0c0.7,0,1,0.6,0.8,1.3c-0.6,2.2-2.5,3.9-4.8,4.2c-2.2,0.4-4.4-0.6-5.6-2.4
			C160.8,402.5,160.4,401.4,160.3,400.3z"/>
		<path class="st52" d="M572.5,342c0,16.7,0,31.4-13,39.5c-8.1,8.9-58.3,8.9-66.3,0c-13-8.1-13-22.8-13-39.5c0-2.3,1-29,1.3-30
			c1.7-4.7,3.7-14.4,10-13.4c23.1,3.6,46.5,3.6,69.6,0c6.3-1,8.3,8.7,10,13.4c0.3,1,1.3,27.7,1.3,30H572.5z"/>
		<path class="st53" d="M558.6,334.2c2.3,0,4.2-1.8,4.2-4.1s-1.8-4.2-4.1-4.2c-2.3,0-4.2,1.8-4.2,4.1c0,0,0,0,0,0
			C554.5,332.3,556.3,334.2,558.6,334.2z"/>
		<path class="st53" d="M563.2,347.5c1.2,0,2.3-1,2.3-2.2c0-1.2-1-2.3-2.2-2.3c-1.2,0-2.3,1-2.3,2.2c0,0,0,0,0,0
			C561,346.5,562,347.5,563.2,347.5z"/>
		<path class="st53" d="M561,358.2c0.8,0,1.4-0.6,1.4-1.4c0-0.8-0.6-1.4-1.4-1.4c0,0,0,0,0,0c-0.8,0-1.4,0.6-1.4,1.4
			C559.6,357.6,560.2,358.2,561,358.2z"/>
		<path class="st53" d="M495.4,330.1c1.7,0,3.1-1.4,3.1-3s-1.4-3.1-3-3.1s-3.1,1.4-3.1,3c0,0,0,0,0,0
			C492.3,328.7,493.7,330.1,495.4,330.1z"/>
		<path class="st53" d="M488.1,335.8c1,0,1.9-0.8,1.9-1.9c0,0,0,0,0,0c0-1.1-0.9-1.9-1.9-1.9s-1.9,0.9-1.9,1.9
			C486.2,335,487,335.8,488.1,335.8C488.1,335.8,488.1,335.8,488.1,335.8z"/>
		<path class="st53" d="M488.5,359.2c0.8,0,1.5-0.7,1.5-1.5c0,0,0,0,0,0c-0.1-0.8-0.8-1.4-1.7-1.3c-0.7,0.1-1.2,0.6-1.3,1.3
			C487,358.6,487.7,359.2,488.5,359.2C488.5,359.3,488.5,359.3,488.5,359.2L488.5,359.2z"/>
		<path class="st53" d="M490.9,348.2c1.6,0,2.9-1.2,2.9-2.8c0,0,0,0,0,0c-0.1-1.6-1.4-2.8-3-2.7c-1.4,0.1-2.6,1.2-2.7,2.7
			C488.1,346.9,489.4,348.2,490.9,348.2C490.9,348.2,490.9,348.2,490.9,348.2z"/>
		<path class="st54" d="M572.5,342c0,16.7,0,31.4-13,39.5c-8.1,8.9-58.3,8.9-66.3,0c-0.2-0.5-0.2-1,0.6-1c19.6,4.2,50.9,8,64.3-5.2
			c13.3-13,8.9-49.4,8-51.6c-1.7-4.6-37.2-4-37.2-4l-1.8-18.3c11.4,0,22.8-0.9,34-2.7c6.3-1,8.3,8.7,10,13.4
			C571.4,312.9,572.4,339.7,572.5,342L572.5,342z"/>
		<path class="st55" d="M493.1,381.4c-13-8.1-13-22.8-13-39.5c0-2.2,0.9-28.1,1.3-29.9l10.2,4.8c-1.8,0.3-5.5,0.9-5.6,2.2
			c-2.4,34,0,50.1,1.6,52.9C488.4,373.1,489.6,377.2,493.1,381.4L493.1,381.4z"/>
		<path class="st56" d="M481.4,312.7c0-0.2,0-0.5,0.1-0.7c1.7-4.7,3.7-14.4,10-13.4c23.1,3.6,46.5,3.6,69.6,0c6.3-1,8.3,8.7,10,13.4
			c0.1,0.3,0.1,0.6,0.1,0.9C556.9,322.1,489,321.5,481.4,312.7L481.4,312.7z"/>
		<path class="st57" d="M481.4,312.7c0-0.2,0-0.5,0.1-0.7c1.7-4.7,3.7-14.4,10-13.4c3.1,0.5,6.3,0.9,9.4,1.3
			c-9.6-0.1-11.3-0.6-14.6,8c-2.9,7.5,1.6,6.9,5.3,9C486.5,315.8,482.8,314.4,481.4,312.7L481.4,312.7z"/>
		<path class="st38" d="M573.6,342c0,8.4,0,16.3-1.7,23.2s-5,12.9-11.8,17.1c-0.1,0.1-0.2,0.3-0.4,0.4c-4.8,4.4-19.2,6.5-33.5,6.5
			l0,0c-14.4,0-28.7-2.2-33.5-6.5c-0.1-0.1-0.3-0.2-0.4-0.4c-6.7-4.2-10.1-10.1-11.8-17.1s-1.6-14.8-1.6-23.2
			c0-1.3,0.4-15.4,0.7-21.7c0.2-4.4,0.5-8.2,0.7-8.7c0.3-0.7,0.5-1.5,0.8-2.4c1.8-5.3,4.1-12.7,10.5-11.8c11.5,1.8,23,2.7,34.6,2.7
			c11.6,0,23.1-0.9,34.6-2.7c6.4-1,8.8,6.4,10.5,11.8c0.3,0.9,0.6,1.6,0.8,2.4l0,0c0.4,2.9,0.7,5.8,0.7,8.7
			C573.3,326.6,573.6,340.7,573.6,342L573.6,342z M569.6,364.7c1.6-6.6,1.6-14.4,1.6-22.7c0-1.4-0.3-15.3-0.7-21.5
			c-0.2-4.2-0.5-7.8-0.6-8l0,0c-0.2-0.7-0.5-1.6-0.8-2.5c-1.5-4.5-3.5-10.8-7.9-10.1c-11.6,1.8-23.2,2.7-34.9,2.7
			c-11.7,0-23.4-0.9-35-2.7c-4.4-0.7-6.4,5.6-7.9,10.1c-0.3,0.9-0.6,1.8-0.8,2.5c-0.1,0.3-0.4,3.8-0.6,8c-0.4,6.2-0.7,20.2-0.7,21.5
			c0,8.3,0,16.1,1.6,22.7s4.6,11.9,10.9,15.8l0.2,0.2c0.1,0.1,0.2,0.2,0.4,0.4c4.4,4,18.1,5.9,31.9,5.9l0,0c13.8,0,27.6-2,31.9-5.9
			c0.1-0.1,0.3-0.2,0.4-0.4l0.2-0.2C565,376.6,568.1,371.2,569.6,364.7L569.6,364.7z"/>
		<path class="st58" d="M475.6,321.3c-3,0-5.5-2.4-5.5-5.5c0-3,2.4-5.5,5.5-5.5h100.2c3,0,5.5,2.4,5.5,5.5c0,3-2.4,5.5-5.5,5.5
			H475.6z"/>
		<path class="st59" d="M475.6,312.6h100.2c1.8,0,3.2,1.4,3.2,3.2v0c0,1.8-1.4,3.2-3.2,3.2H475.6c-1.8,0-3.2-1.4-3.2-3.2v0
			C472.4,314,473.9,312.6,475.6,312.6z"/>
		<path class="st58" d="M526.3,323.1c4,0,7.3-3.3,7.3-7.3s-3.3-7.3-7.3-7.3c-4,0-7.3,3.3-7.3,7.3C519,319.8,522.3,323.1,526.3,323.1
			z"/>
		<path class="st60" d="M529.3,311.2c2.1,1.6,2.6,4.5,1.3,6.8c-1.1,2.6-4.2,3.8-6.8,2.7c0.2-0.1,0.3-0.3,0.4-0.4
			c1.1-1.2,2-2.7,2.4-4.3C527.3,314.3,528.2,312.7,529.3,311.2L529.3,311.2z M523.1,320.2c-1.9-1.7-2.4-4.5-1.1-6.7
			c1.1-2.5,4-3.7,6.6-2.7c-1.2,1.4-2.1,3.1-2.6,4.8c-0.4,1.5-1.2,2.9-2.2,4C523.5,319.9,523.3,320,523.1,320.2z"/>
		<path class="st61" d="M519.5,422.3H508c0.8-3.2,4-5.1,7.1-4.3C517.3,418.4,519,420.1,519.5,422.3L519.5,422.3z"/>
		<path class="st61" d="M545.4,422.3h-11.5c0.8-3.2,4-5.1,7.1-4.3C543.2,418.5,544.9,420.1,545.4,422.3z"/>
		<path class="st34" d="M551.4,407.5c-0.1,0.1-0.3,0.1-0.4,0c-0.3-0.2-0.7-0.4-1-0.6c-3.2-2.2-7.4-2.2-10.5,0
			c-0.9,0.6-1.9,1-2.9,1.2c-0.3,0-0.6,0-0.8,0c-1.2,0-2.3-0.3-3.3-0.9L532,407c-3.2-2.2-7.4-2.2-10.5,0l-0.4,0.2
			c-1,0.6-2.2,1-3.3,0.9c-0.3,0-0.6,0-0.9,0c-1.1-0.1-2.1-0.5-2.9-1.2c-3.2-2.2-7.4-2.2-10.5,0c-0.3,0.2-0.7,0.4-1,0.6
			c-0.1,0.1-0.3,0.1-0.4,0c-0.1-0.1-0.2-0.2-0.1-0.4l6.8-20.5l0.4-1.3c4.1,2.3,8.6,3.8,13.3,4.4c0.2,0,0.3,0,0.5,0.1l0,0
			c1.2,0.1,2.5,0.2,3.8,0.2c1.3,0,2.6-0.1,3.8-0.2l0.5,0l0,0c4.7-0.6,9.2-2.1,13.3-4.4l0.6,1.8l6.6,20
			C551.5,407.3,551.5,407.5,551.4,407.5z"/>
		<path class="st38" d="M498.2,375.4c-1.2-1.2-3.8-7.1-3.8-7.1c-1.2-3.3-1.8-6.9-1.8-10.4c0-17.8,15.3-32.2,34.1-32.2
			s34.1,14.4,34.1,32.2c0,3.6-0.6,7.1-1.8,10.4c-1.2,3.3-3.4,7.3-3.3,7.5s0.5,1.1,0.5,1.1c0.3,0.8,0.5,1.6,0.5,2.5
			c0,1.8-0.7,3.6-2.1,4.8c0.8,1.7,1.9,5.1,0.5,8c-0.9,1.8-2.6,3-4.5,3.5l3.5,10.6c0.4,1.2,0,2.5-0.9,3.4c-1,0.8-2.4,1-3.5,0.4
			c-0.4-0.2-0.8-0.5-1.2-0.7c-2.3-1.6-5.3-1.6-7.5,0c-0.3,0.2-0.6,0.4-0.9,0.5l1.1,5.2c4.2,0.7,7.2,4.4,7.2,8.6
			c0,0.8-0.6,1.4-1.4,1.4l0,0h-14.6c-0.8,0-1.4-0.6-1.4-1.4c0-2.4,1-4.7,2.8-6.4l-1.4-6.9c-0.5-0.2-0.9-0.4-1.4-0.7l-0.5-0.3
			c-2.3-1.6-5.3-1.6-7.5,0l-0.5,0.3c-0.4,0.3-0.9,0.5-1.4,0.7l-1.4,6.9c1.8,1.6,2.8,4,2.8,6.4c0,0.8-0.6,1.4-1.4,1.4h-14.6
			c-0.8,0-1.4-0.6-1.4-1.4c0-4.2,3-7.8,7.2-8.6l1.1-5.2c-0.3-0.2-0.6-0.4-0.9-0.5c-2.3-1.6-5.3-1.6-7.5,0c-0.4,0.2-0.8,0.5-1.2,0.7
			c-1.5,0.8-3.4,0.2-4.3-1.3c-0.4-0.8-0.5-1.6-0.2-2.4l3.5-10.6c-1.9-0.4-3.6-1.7-4.5-3.5c-1.4-2.8-0.2-6.2,0.5-8
			c-1.3-1.3-2.1-3-2.1-4.8c0-0.9,0.2-1.7,0.5-2.5L498.2,375.4z M553.2,373.6c3.1-4.6,4.8-10.1,4.8-15.7c0-16.2-14-29.4-31.3-29.4
			s-31.3,13.2-31.3,29.4c0,5.6,1.7,11,4.8,15.7c1-0.5,2.1-0.8,3.2-0.8c3.7,0,6.7,3,6.7,6.7c0,0,0,0,0,0c0,1-0.2,2-0.7,2.9
			c4,2.5,8.6,4,13.3,4.6h0.4c2.4,0.2,4.8,0.2,7.2,0l0.5,0c4.7-0.5,9.2-2.1,13.3-4.6c-1.6-3.3-0.3-7.3,3-9c0.9-0.5,1.9-0.7,3-0.7
			C551.1,372.8,552.2,373,553.2,373.6L553.2,373.6z M553.9,379.5c0-2.2-1.7-3.9-3.9-3.9s-3.9,1.7-3.9,3.9c0,2.2,1.7,3.9,3.9,3.9
			c0,0,0,0,0,0C552.2,383.3,553.9,381.6,553.9,379.5L553.9,379.5z M552.7,391c0.8-1.6,0.1-3.9-0.4-5.2c-0.7,0.2-1.5,0.4-2.2,0.4
			c-0.9,0-1.8-0.2-2.6-0.5l2.5,7.4C551,392.8,552.1,392.1,552.7,391z M551.4,407.5c0.1-0.1,0.2-0.2,0.1-0.4l-7.2-21.7
			c-4.1,2.3-8.6,3.8-13.3,4.4l0,0l-0.5,0c-1.3,0.1-2.6,0.2-3.8,0.2c-1.3,0-2.6-0.1-3.8-0.2l0,0c-0.2,0-0.3,0-0.5-0.1
			c-4.7-0.6-9.2-2-13.3-4.4l-7.2,21.7c0,0.1,0,0.3,0.1,0.4c0.1,0.1,0.3,0.1,0.4,0c0.3-0.2,0.7-0.4,1-0.6c3.2-2.2,7.4-2.2,10.5,0
			c0.9,0.6,1.9,1,2.9,1.2c0.3,0,0.6,0,0.9,0c1.2,0,2.4-0.3,3.3-0.9l0.4-0.2c3.2-2.2,7.4-2.2,10.5,0l0.4,0.3c1,0.6,2.2,1,3.3,0.9
			c0.3,0,0.6,0,0.8,0c1.1-0.1,2.1-0.5,2.9-1.2c3.2-2.1,7.3-2.1,10.5,0c0.3,0.2,0.7,0.4,1,0.6C551.1,407.7,551.3,407.7,551.4,407.5
			L551.4,407.5z M533.9,422.2h11.5c-0.8-3.2-4-5.1-7.1-4.3C536.1,418.4,534.4,420.1,533.9,422.2z M538.3,415.1l-0.9-4.2
			c-0.2,0-0.3,0.1-0.5,0.1c-0.4,0-0.8,0.1-1.2,0.1h-0.4l1,4.6C536.9,415.4,537.6,415.2,538.3,415.1L538.3,415.1z M508,422.3h11.5
			c-0.8-3.2-4-5.1-7.1-4.3C510.2,418.4,508.5,420.1,508,422.3L508,422.3z M517.1,415.7l1-4.7h-0.4c-0.4,0-0.8,0-1.2-0.1
			c-0.2,0-0.4,0-0.5-0.1l-0.9,4.2C515.8,415.2,516.5,415.4,517.1,415.7L517.1,415.7z M507.3,379.5c0-2.2-1.7-3.9-3.9-3.9
			c-2.2,0-3.9,1.7-3.9,3.9c0,2.2,1.7,3.9,3.9,3.9l0,0C505.5,383.4,507.3,381.6,507.3,379.5C507.3,379.5,507.3,379.5,507.3,379.5
			L507.3,379.5z M503.6,393.1l2.4-7.4c-1.5,0.7-3.3,0.7-4.9,0.1c-0.6,1.5-1.2,3.7-0.4,5.2C501.3,392.1,502.4,392.8,503.6,393.1
			L503.6,393.1z"/>
		<path class="st33" d="M526.7,328.5c-17.3,0-31.3,13.2-31.3,29.4c0,5.6,1.7,11,4.8,15.7c1-0.5,2.1-0.8,3.2-0.8
			c3.5,0,6.4,2.7,6.7,6.1c0,0.2,0,0.4,0,0.6c0,1-0.2,2-0.7,2.9c4,2.5,8.6,4,13.3,4.6h0.4c2.4,0.2,4.8,0.2,7.2,0l0.5,0
			c4.7-0.5,9.2-2.1,13.3-4.6c-0.4-0.9-0.7-1.9-0.7-2.9c0-0.2,0-0.3,0-0.5c0.3-3.5,3.2-6.2,6.7-6.2c0.6,0,1.2,0.1,1.8,0.3
			c0.5,0.1,0.9,0.3,1.4,0.5c0.9-1.3,1.6-2.6,2.2-4c1.7-3.7,2.5-7.6,2.5-11.7C558,341.7,544,328.5,526.7,328.5z M520.2,332
			c0.8,0,1.4,0.6,1.4,1.4c0,3.9,2.8,7.2,6.6,7.9c-1.6-2.8-0.7-6.4,2.1-8c0.9-0.5,1.9-0.8,2.9-0.8c0.8,0,1.4,0.6,1.4,1.4
			s-0.6,1.4-1.4,1.4c-1.7-0.1-3.1,1.1-3.2,2.8c-0.1,1.4,0.8,2.8,2.2,3.1c0.7,0.3,1.1,1.1,0.9,1.8c-0.2,0.4-0.5,0.8-1,0.9
			c-0.8,0.2-1.7,0.3-2.5,0.3c-6,0-10.8-4.8-10.8-10.8C518.8,332.6,519.4,332,520.2,332L520.2,332z M519.6,364.1
			c0.8,0,1.4,0.6,1.4,1.4c0,0,0,0,0,0c0.1,1.2,1.1,2.1,2.3,2c1.1-0.1,2-0.9,2-2c-0.1-0.8,0.5-1.5,1.3-1.5c0.8-0.1,1.5,0.5,1.5,1.3
			c0,0.1,0,0.2,0,0.2c0.1,1.2,1.1,2.1,2.3,2c1.1-0.1,1.9-0.9,2-2c0-0.8,0.6-1.4,1.4-1.4c0.8,0,1.4,0.6,1.4,1.4c0,2.8-2.3,5-5.1,4.9
			c-1.3,0-2.6-0.5-3.5-1.5c-1.9,2-5.1,2-7.1,0c-0.9-0.9-1.5-2.2-1.5-3.5C518.1,364.7,518.8,364.1,519.6,364.1L519.6,364.1z
			 M509,364.3c-0.4-0.7-0.2-1.5,0.5-1.9c0,0,0,0,0,0l4.3-2.5l-4.3-2.5c-0.6-0.4-0.8-1.3-0.4-1.9c0.4-0.6,1.2-0.8,1.8-0.4l6.3,3.7
			c0.4,0.3,0.7,0.7,0.7,1.2c0,0.5-0.3,1-0.7,1.2l-6.3,3.7C510.3,365.2,509.5,365,509,364.3C509.1,364.3,509.1,364.3,509,364.3
			L509,364.3z M543.9,362.4c0.7,0.4,0.9,1.2,0.5,1.9c-0.3,0.4-0.7,0.7-1.2,0.7c-0.2,0-0.5-0.1-0.7-0.2l-6.3-3.7
			c-0.4-0.3-0.7-0.7-0.7-1.2c0-0.5,0.3-1,0.7-1.2l6.3-3.7c0.6-0.4,1.5-0.3,2,0.3s0.3,1.5-0.3,2c-0.1,0-0.1,0.1-0.2,0.1l-4.3,2.5
			L543.9,362.4z"/>
		<path class="st37" d="M510.1,380.9l-0.1-0.5c-0.1,0.7-0.3,1.3-0.6,1.9l0.6,0.3c0.1-0.4,0.1-0.8,0.1-1.2
			C510.1,381.3,510.1,381.1,510.1,380.9z"/>
		<path class="st37" d="M526.7,330.5c16.9,0,30.7,12.6,31.3,28.4c0-0.3,0-0.7,0-1c0-16.2-14-29.4-31.3-29.4s-31.3,13.2-31.3,29.4
			c0,0.4,0,0.7,0,1C496,343.2,509.8,330.5,526.7,330.5z"/>
		<path class="st37" d="M543.3,381c0,0.2,0,0.3,0,0.5c0,0.4,0.1,0.8,0.1,1.2l0.6-0.3c-0.3-0.6-0.5-1.3-0.6-1.9
			C543.3,380.6,543.3,380.8,543.3,381z"/>
		<path class="st33" d="M550,375.6c2.2,0,3.9,1.8,3.9,3.9c0,2.2-1.8,3.9-3.9,3.9c-2.2,0-3.9-1.7-3.9-3.9
			C546.1,377.3,547.8,375.6,550,375.6z"/>
		<path class="st34" d="M552.2,385.8c0.6,1.4,1.2,3.6,0.4,5.2c-0.6,1-1.6,1.8-2.8,2l-2.5-7.4c0.8,0.3,1.7,0.5,2.6,0.5
			C550.7,386.2,551.5,386,552.2,385.8z"/>
		<path class="st38" d="M544.4,355.5c0.4,0.7,0.2,1.5-0.5,1.9c0,0,0,0,0,0l-4.3,2.5l4.3,2.5c0.7,0.4,0.9,1.2,0.5,1.9
			c-0.3,0.4-0.7,0.7-1.2,0.7c-0.2,0-0.5-0.1-0.7-0.2l-6.3-3.7c-0.4-0.3-0.7-0.7-0.7-1.2c0-0.5,0.3-1,0.7-1.2l6.3-3.7
			C543.1,354.6,544,354.8,544.4,355.5z"/>
		<path class="st33" d="M538.3,415.1c-0.7,0.1-1.4,0.3-2,0.6l-0.7-3.2l-0.3-1.4h0.4c0.4,0,0.8,0,1.2-0.1c0.2,0,0.4-0.1,0.5-0.1
			l0.3,1.3L538.3,415.1z"/>
		<path class="st38" d="M533.8,364.1c0.8,0,1.4,0.6,1.4,1.4c0,2.8-2.3,5-5.1,4.9c-1.3,0-2.6-0.5-3.5-1.5c-1.9,2-5.1,2-7.1,0
			c-0.9-0.9-1.5-2.2-1.5-3.5c0-0.8,0.6-1.4,1.4-1.4c0.8,0,1.4,0.6,1.4,1.4c0,0,0,0,0,0c0.1,1.2,1.1,2.1,2.3,2c1.1-0.1,2-0.9,2-2
			c-0.1-0.8,0.5-1.5,1.3-1.5c0.8-0.1,1.5,0.5,1.5,1.3c0,0.1,0,0.2,0,0.2c0.1,1.2,1.1,2.1,2.3,2c1.1-0.1,1.9-0.9,2-2
			C532.4,364.7,533.1,364.1,533.8,364.1C533.8,364.1,533.8,364.1,533.8,364.1z"/>
		<path class="st38" d="M533.3,332.5c0.8,0,1.4,0.6,1.4,1.4s-0.6,1.4-1.4,1.4c-1.7-0.1-3.1,1.1-3.2,2.8c-0.1,1.4,0.8,2.8,2.2,3.1
			c0.7,0.3,1.1,1.1,0.9,1.8c-0.2,0.4-0.5,0.8-1,0.9c-0.8,0.2-1.7,0.3-2.5,0.3c-6,0-10.8-4.8-10.8-10.8c-0.1-0.8,0.5-1.5,1.3-1.5
			c0.8-0.1,1.5,0.5,1.5,1.3c0,0.1,0,0.2,0,0.2c0,3.9,2.8,7.2,6.6,7.9c-1.6-2.8-0.7-6.4,2.1-8C531.3,332.8,532.3,332.5,533.3,332.5
			L533.3,332.5z"/>
		<path class="st33" d="M518.1,411l-0.3,1.4l-0.7,3.2c-0.6-0.3-1.3-0.5-2-0.6l0.6-3l0.3-1.3c0.2,0,0.4,0.1,0.5,0.1
			c0.4,0,0.8,0.1,1.2,0.1L518.1,411z"/>
		<path class="st38" d="M517.3,358.7c0.4,0.3,0.7,0.7,0.7,1.2c0,0.5-0.3,1-0.7,1.2l-6.3,3.7c-0.7,0.4-1.5,0.2-1.9-0.5c0,0,0,0,0,0
			c-0.4-0.7-0.2-1.5,0.5-1.9c0,0,0,0,0,0l4.3-2.5l-4.3-2.5c-0.6-0.5-0.7-1.4-0.2-2c0.4-0.5,1.1-0.6,1.6-0.4L517.3,358.7z"/>
		<path class="st33" d="M503.4,375.6c2.2,0,3.9,1.7,3.9,3.9c0,2.2-1.7,3.9-3.9,3.9c-2.2,0-3.9-1.7-3.9-3.9l0,0
			C499.5,377.3,501.3,375.6,503.4,375.6z"/>
		<path class="st34" d="M550,381.4c-1.8,0-3.3-1.2-3.8-2.9c-0.1,0.3-0.1,0.7-0.1,1c0,2.2,1.8,3.9,3.9,3.9c2.2,0,3.9-1.8,3.9-3.9
			c0-0.3,0-0.7-0.1-1C553.3,380.2,551.8,381.4,550,381.4z"/>
		<path class="st34" d="M503.4,381.4c-1.8,0-3.3-1.2-3.8-2.9c-0.1,0.3-0.1,0.7-0.1,1c0,2.2,1.7,3.9,3.9,3.9c2.2,0,3.9-1.7,3.9-3.9
			c0,0,0,0,0,0c0-0.3,0-0.7-0.1-1C506.7,380.2,505.2,381.4,503.4,381.4z"/>
		<path class="st34" d="M506,385.6l-2.4,7.4c-1.2-0.2-2.2-1-2.9-2c-0.8-1.6-0.2-3.8,0.4-5.2C502.7,386.4,504.5,386.3,506,385.6
			L506,385.6z"/>
		<circle class="st34" cx="505" cy="368.9" r="3.9"/>
		
			<ellipse transform="matrix(0.7071 -0.7071 0.7071 0.7071 -100.2829 495.7999)" class="st34" cx="548.3" cy="369" rx="3.8" ry="3.9"/>
		<path class="st34" d="M501.8,373c-0.6,0.1-1.1,0.3-1.6,0.6c-1-1.5-1.9-3-2.5-4.7C499,370.4,500.4,371.7,501.8,373z"/>
		<path class="st34" d="M543.3,379.5c0,1,0.2,2,0.7,2.9c-4,2.5-8.5,4-13.2,4.6l-0.5,0c-2.4,0.2-4.8,0.2-7.2,0h-0.4
			c-4.7-0.6-9.2-2.1-13.3-4.6c0.5-0.9,0.7-1.9,0.7-2.9c0-0.2,0-0.4,0-0.6c5.1,2.9,10.8,4.4,16.6,4.5c5.8,0,11.5-1.6,16.6-4.4
			C543.3,379.1,543.3,379.3,543.3,379.5z"/>
		<path class="st34" d="M551.8,373c1.3-1.1,2.5-2.3,3.6-3.4c-0.6,1.4-1.4,2.7-2.2,4C552.8,373.3,552.3,373.1,551.8,373z"/>
		<path class="st62" d="M544.9,387.2c-5.3,3.8-11.7,5.8-18.2,5.9c-6.6,0-12.9-2.2-18.1-6.4l0.4-1.3c4.1,2.3,8.6,3.8,13.3,4.4
			c0.2,0,0.3,0,0.5,0.1l0,0c1.2,0.1,2.5,0.2,3.8,0.2c1.3,0,2.6-0.1,3.8-0.2l0.5,0l0,0c4.7-0.6,9.2-2.1,13.3-4.4L544.9,387.2z"/>
		<path class="st34" d="M517.7,411h0.4l-0.3,1.4h-0.1c-0.3,0-0.6,0-0.9,0c-0.4,0-0.7-0.1-1.1-0.2l0.3-1.3c0.2,0,0.4,0.1,0.5,0.1
			C516.9,411,517.3,411,517.7,411z"/>
		<path class="st34" d="M537.7,412.1c-0.4,0.1-0.7,0.2-1.1,0.2c-0.3,0-0.6,0-0.8,0h-0.1l-0.3-1.4h0.4c0.4,0,0.8,0,1.2-0.1
			c0.2,0,0.4-0.1,0.5-0.1L537.7,412.1z"/>
		<path class="st63" d="M814.2,260.3h-3.9l0.5,3.8c0,0.5,0.4,0.9,0.9,1h5.2c0.5,0,0.9-0.5,0.9-1l0.3-3.7L814.2,260.3z"/>
		<rect x="817.8" y="254.3" class="st63" width="0.3" height="6.4"/>
		<rect x="816.8" y="254.3" class="st63" width="0.3" height="6.4"/>
		<rect x="811.3" y="254.6" class="st63" width="0.3" height="6.4"/>
		<rect x="810.4" y="254.6" class="st63" width="0.3" height="6.4"/>
		<rect x="810.4" y="260.3" class="st63" width="7.6" height="1"/>
		<path class="st63" d="M796,231.2c0,2.3,0.6,4.6,1.8,6.6l0,0c0,0,0,0.1,0,0.1c0,0.1,0.1,0.1,0.1,0.2l0.2,0.3c0,0.1,0.1,0.1,0.1,0.2
			l0.1,0.2l0.1,0.2l0.1,0.2l0.1,0.2l0,0l0.1,0.2l0.2,0.2l0.2,0.2h-0.1l0.3,0.4l9.6,10.6l1.2,1.4h8l1.2-1.4l9.6-10.6l0.3-0.4h-0.1
			l0.2-0.2l0.2-0.2l0.1-0.1l0,0l0.2-0.4l0.1-0.1l0.1-0.2l0.1-0.1l0.2-0.4l0.1-0.2l0.1-0.1c1.6-2.7,2.1-5.9,1.5-9
			c0-0.2-0.1-0.4-0.1-0.5l0-0.3c-0.8-3-2.5-5.7-4.9-7.6c-3.6-2.9-8.2-4.5-12.8-4.5c-8.7,0-16,5.2-17.8,12.1c0,0.1,0,0.1,0,0.2
			c0,0.1-0.1,0.3-0.1,0.4C796.1,229.5,796.1,230.4,796,231.2z"/>
		<path class="st63" d="M832.4,231.2c0,0.6,0,1.2-0.1,1.8c-0.1,1.1-0.4,2.2-0.9,3.2c-0.2,0.5-0.5,1.1-0.8,1.6c0,0,0,0.1,0,0.1
			l-0.1,0.2l-0.2,0.4l-0.1,0.1l-0.1,0.2l-0.1,0.1l-0.3,0.4l0,0l0,0v0.1l-0.2,0.2l-0.2,0.2h0.1l-0.3,0.4l-0.7,0.8l-8.8,9.8l-1.2,1.4
			h-8l-1.4-1.3l-8.9-9.8l-0.7-0.8l-0.3-0.4h0.1l-0.2-0.2l-0.2-0.2l0,0l-0.1-0.1l-0.1-0.2l-0.1-0.2c0,0-0.1-0.1-0.1-0.2l-0.1-0.2
			l-0.1-0.2l-0.2-0.3l-0.1-0.2l-0.1-0.1c-0.8-1.5-1.4-3.1-1.6-4.8c-0.1-0.6-0.1-1.2-0.1-1.8c0-0.9,0.1-1.7,0.2-2.6
			c0-0.1,0.1-0.3,0.1-0.4c0-0.1,0-0.1,0-0.2c0.6-2.4,1.9-4.7,3.7-6.5c0.6-0.6,1.2-1.1,1.8-1.6c7.3-5.4,17.3-5.4,24.6,0l0.6,0.4
			c0.4,0.4,0.8,0.8,1.2,1.2c1.7,1.8,3,4,3.6,6.4l0.1,0.2c0,0.2,0.1,0.3,0.1,0.5C832.3,229.6,832.4,230.4,832.4,231.2z"/>
		<path class="st64" d="M832.3,233c-0.1,1.1-0.4,2.2-0.9,3.2H797c-0.4-1-0.7-2.1-0.9-3.2H832.3z"/>
		<path class="st64" d="M829.7,239.3L829.7,239.3l-0.2,0.2l-0.2,0.2h0.1l-0.3,0.4l-0.7,0.8h-28.2l-0.7-0.8l-0.3-0.4h0.1l-0.2-0.2
			l-0.2-0.2l0,0L829.7,239.3z"/>
		<path class="st64" d="M828.3,221.6h-28.2c0.6-0.6,1.2-1.1,1.8-1.6h24.6l0.6,0.4C827.5,220.8,827.9,221.2,828.3,221.6z"/>
		<path class="st63" d="M810.4,252.1h7.6c0.1,0,0.2,0.1,0.2,0.2v2.4c0,0.1-0.1,0.2-0.2,0.2h-7.6c-0.1,0-0.2-0.1-0.2-0.2v-2.4
			C810.2,252.1,810.3,252.1,810.4,252.1z"/>
		<path class="st65" d="M120,147.5c7.7-2.8,13.5-9.2,20.3-13.8c2.8-1.9,5.8-3.5,9.2-3.8s7,1,8.7,3.9c1.1,1.8,1.4,4.1,2.9,5.4
			c2.7,2.3,6.9,0.2,9.6-2.1c4-3.4,8-7.1,13-8.7s11.5-0.1,13.5,4.8c0.9,2.2,0.9,4.9,2.5,6.7s4.6,1.9,7.1,2.4s5.2,2.8,4.4,5.2
			L120,147.5z"/>
		<path class="st65" d="M649.8,62.7c7.7-2.8,13.5-9.2,20.3-13.8c2.8-1.9,5.8-3.5,9.2-3.8s7,1,8.7,3.9c1.1,1.8,1.3,4.1,2.9,5.4
			c2.7,2.3,6.8,0.2,9.6-2.1c4-3.4,8-7.1,13-8.7s11.5,0,13.5,4.8c0.9,2.2,0.9,4.9,2.5,6.7s4.6,1.9,7.1,2.5s5.2,2.8,4.4,5.2
			L649.8,62.7z"/>
		<path class="st65" d="M480.3,241.7c7.6-2.8,13.3-9,20-13.6c2.7-1.9,5.7-3.5,9-3.8s6.9,1,8.5,3.8c1,1.8,1.3,4,2.9,5.3
			c2.7,2.3,6.7,0.2,9.4-2.1c4-3.3,7.9-7,12.8-8.6s11.3-0.1,13.3,4.7c0.9,2.2,0.8,4.9,2.5,6.6s4.5,1.8,7,2.4s5.1,2.7,4.3,5.1
			L480.3,241.7z"/>
	</g>
</g>
<path class="st66" d="M42.8,203.5h-9.2l1.1,8.9c0.1,1.2,1,2.1,2.2,2.2H49c1.2-0.1,2.2-1.1,2.2-2.4l0.7-8.8H42.8z"/>
<rect x="51" y="189.3" class="st66" width="0.8" height="15"/>
<rect x="48.8" y="189.3" class="st66" width="0.8" height="15"/>
<rect x="36" y="189.9" class="st66" width="0.8" height="15"/>
<rect x="33.7" y="189.9" class="st66" width="0.8" height="15"/>
<rect x="33.7" y="203.5" class="st66" width="18" height="2.3"/>
<path class="st66" d="M0,135.1c0,5.4,1.4,10.7,4.1,15.4l0,0l0.1,0.2l0.2,0.4c0.2,0.3,0.3,0.5,0.5,0.8l0.2,0.4l0.2,0.4
	c0.1,0.1,0.2,0.2,0.2,0.4s0.2,0.2,0.3,0.4l0.3,0.4l0,0l0.3,0.4l0.4,0.5c0.1,0.2,0.3,0.4,0.4,0.5H7.1l0.7,0.8l22.5,24.9l2.9,3.2h18.9
	l2.9-3.2L77.6,156l0.7-0.8h-0.1l0.4-0.5c0.1-0.1,0.2-0.3,0.3-0.5l0.2-0.2l0,0c0.2-0.3,0.4-0.6,0.6-0.9l0.2-0.3l0.3-0.5l0.2-0.4
	c0.2-0.3,0.4-0.6,0.5-0.9l0.2-0.4l0.1-0.2c2.7-4.7,4.1-10,4.1-15.4c0-1.9-0.2-3.9-0.6-5.8c-0.1-0.4-0.2-0.8-0.3-1.2
	c0-0.2-0.1-0.4-0.1-0.6c-1.9-7-5.9-13.3-11.5-17.9c-8.5-6.9-19.2-10.7-30.2-10.5c-20.5,0-37.7,12.2-41.8,28.5c0,0.2-0.1,0.3-0.1,0.5
	c-0.1,0.3-0.2,0.7-0.2,1C0.2,131,0,133,0,135.1z"/>
<path class="st66" d="M85.4,135.1c0,1.4-0.1,2.8-0.3,4.2c-0.3,2.6-1,5.1-2,7.6c-0.5,1.3-1.1,2.5-1.8,3.7c0,0.1-0.1,0.2-0.1,0.2
	l-0.2,0.4c-0.2,0.3-0.3,0.6-0.5,0.9l-0.2,0.4l-0.3,0.5l-0.2,0.3c-0.2,0.3-0.4,0.6-0.6,0.9l0,0c0,0-0.1,0.1-0.1,0.1
	c0,0-0.1,0.1-0.1,0.1l-0.3,0.5c-0.1,0.2-0.3,0.3-0.4,0.5h0.2l-0.8,0.8l-1.7,1.9l-20.9,23l-2.9,3.2H33.3l-2.9-3.2L9.6,157.9L7.8,156
	l-0.7-0.8h0.2c-0.2-0.2-0.3-0.4-0.4-0.5l-0.4-0.5v-0.1c-0.1-0.1-0.2-0.2-0.2-0.3L6,153.4L5.7,153c-0.1-0.1-0.2-0.2-0.2-0.4l-0.2-0.4
	l-0.2-0.4c-0.2-0.2-0.3-0.5-0.5-0.8s-0.2-0.2-0.2-0.4l-0.1-0.2c-0.7-1.2-1.3-2.4-1.8-3.7c-1-2.4-1.7-5-2-7.6
	c-0.2-1.4-0.3-2.8-0.3-4.2c0-2,0.2-4,0.6-6c0.1-0.4,0.2-0.7,0.2-1c0-0.2,0.1-0.3,0.1-0.5c1.5-5.7,4.5-11,8.7-15.2
	c1.3-1.4,2.7-2.6,4.2-3.8c8.3-6.3,18.5-9.6,28.9-9.5c10.4-0.1,20.6,3.2,28.9,9.5c0.4,0.3,0.9,0.7,1.3,1.1c1,0.9,2,1.8,2.9,2.7
	c4.2,4.2,7.1,9.4,8.6,15.2c0.1,0.2,0.1,0.4,0.1,0.6c0.1,0.4,0.2,0.8,0.3,1.2C85.3,131.2,85.4,133.1,85.4,135.1z"/>
<path class="st67" d="M85.2,139.2c-0.3,2.6-1,5.1-2,7.6H2.3c-1-2.4-1.7-5-2-7.6H85.2z"/>
<path class="st67" d="M79,154.1c0,0-0.1,0.1-0.1,0.1l-0.3,0.5c-0.1,0.2-0.3,0.3-0.4,0.5h0.2l-0.8,0.8l-1.7,1.9H9.6L7.8,156l-0.7-0.8
	h0.2c-0.2-0.2-0.3-0.4-0.4-0.5l-0.4-0.5v-0.1L79,154.1z"/>
<path class="st67" d="M75.9,112.3H9.6c1.3-1.4,2.7-2.6,4.2-3.8h57.8c0.4,0.3,0.9,0.7,1.3,1.1C74,110.5,74.9,111.4,75.9,112.3z"/>
<path class="st66" d="M33.7,184h18c0.3,0,0.5,0.2,0.5,0.5v5.6c0,0.3-0.2,0.5-0.5,0.5h-18c-0.3,0-0.5-0.2-0.5-0.5v-5.6
	C33.2,184.2,33.5,184,33.7,184z"/>
<path class="st68" d="M391.5,101.5c0-15.6,7.7-23.4,23.4-23.4H435v9.3h-20.2c-9.4,0-14,4.6-14,14s4.6,14,14,14H435v9.3h-20.2
	C399.2,124.9,391.5,117.2,391.5,101.5z"/>
<path class="st68" d="M470.2,133.7v-10.9c0-9-5-14-14-14s-14,5-14,14s5,14,14,14h23.4v9.3h-23.4c-14.1,0-23.4-9.2-23.4-23.4
	s9.2-23.3,23.4-23.3s23.4,9.2,23.4,23.3v10.9L470.2,133.7z"/>
<path class="st68" d="M459,160.1c0-15.6,7.7-23.4,23.4-23.4h20.2v9.3h-20.2c-9.4,0-14,4.6-14,14s4.6,14,14,14h20.2v9.3h-20.2
	C466.7,183.4,459,175.7,459,160.1z"/>
<path class="st68" d="M509.2,130.8H502v-3.8h18.2v3.8H513v15.4h-3.8L509.2,130.8z"/>
<path class="st68" d="M521.9,130.8h-7.2v-3.8h18.2v3.8h-7.2v15.4h-3.8V130.8z"/>
<path class="st68" d="M549.1,126.9v3.8h-16.2v-3.8L549.1,126.9z M532.9,132.1h3.8v2.6h9.3v3.9h-9.3v3.8h12.4v3.9h-16.2V132.1z"/>
<path class="st68" d="M448.7,78.2c2.6,3.2,2.9,6,0.9,8.5c-1.6,2.1-2.5,4-1.1,6.5c0.2,0.4-0.2,1.1-0.4,1.8c-2.8-2.5-3.1-5.4-1-8.2
	c1.6-2.1,2.5-4,1.1-6.5C448.1,80,448.5,79.3,448.7,78.2z"/>
<path class="st68" d="M458,73.5c2.6,3.1,2.8,5.9,0.5,8.7c-1.5,1.6-1.9,3.9-1,5.9c0.2,0.5-0.1,1.3-0.3,2.4c-2.7-3.4-2.9-6-0.8-8.7
	c1.6-2,2.4-3.9,1.1-6.3C457.3,75.2,457.7,74.4,458,73.5z"/>
<path class="st68" d="M466.4,95.2c-2.6-2.9-2.9-5.8-0.9-8.3c1.6-2,2.6-4,1.1-6.5c-0.2-0.4,0.2-1.1,0.3-1.8c2.6,2.4,3.1,5.5,1.1,8
	c-1.6,2.1-2.7,4.1-1.2,6.7C467,93.7,466.6,94.3,466.4,95.2z"/>
<path class="st68" d="M529.3,151.7c0.9-1.2,0.8-2.9-0.2-4l0,0c-3.6,3.2-4.8,7.4-4.9,12l-0.5-0.1c-0.2-0.7-0.4-1.4-0.6-2.1
	c-1.9,0.6-3.2,2.4-3.2,4.4c-0.1,2.9,2.2,5.3,5,5.4c2.1,0.1,4-1.1,4.9-2.9c1.1-2.2,0.4-4.8-1.6-6.3c-0.8-0.4-1.1-1.3-0.7-2.1
	C527.7,154.3,528.3,152.9,529.3,151.7z"/>
<path class="st68" d="M517.5,158.9c-10.5,2.4-17.1,10.7-17.1,22.7c0,14.1,9.2,23.4,23.4,23.4h23.3v-9.3h-23.3c-9,0-14-5-14-14
	c0-7.3,3.3-12,9.4-13.5c-1.6-1.6-2.5-3.8-2.4-6.1C516.8,160.9,517.1,159.9,517.5,158.9z"/>
<path class="st68" d="M547.2,192.4v-10.9c0-10.9-5.5-18.8-14.4-21.9c1.1,3.2,0.1,6.8-2.5,9c4.9,1.9,7.6,6.4,7.6,12.9v10.9H547.2z"/>
<path class="st68" d="M391.5,203.9v-2.3h6.8c0.3,0,0.5-0.2,0.5-0.5l0,0v-3.3c0-0.3-0.2-0.5-0.5-0.5l0,0H392v-2.3h9.1v9L391.5,203.9z
	"/>
<path class="st68" d="M416.1,203.9v-2.3h6.9c0.3,0,0.5-0.2,0.5-0.5l0,0v-3.3c0-0.3-0.2-0.5-0.5-0.5l0,0h-6.3v-2.3h9.1v9L416.1,203.9
	z"/>
<path class="st68" d="M441.1,203.9v-1.5h5c0.3,0,0.5-0.2,0.5-0.5v-3.7h1.5v5.7H441.1z M443.8,200.3v-3.4h1v3.4H443.8z M441.1,200.3
	v-3.4h1v3.4H441.1z"/>
<path class="st68" d="M461.9,203.9v-9.7h2.3v2c0,0.3,0.2,0.5,0.4,0.5l4.6,1.1v2.4l-4.4-1h-0.1c-0.1,0-0.2,0-0.3,0.1
	c-0.1,0.1-0.2,0.3-0.2,0.4v4.2L461.9,203.9z"/>
</svg>
