<?xml version="1.0" encoding="utf-8"?>
<!-- Generator: Adobe Illustrator 25.3.0, SVG Export Plug-In . SVG Version: 6.00 Build 0)  -->
<svg version="1.1" id="レイヤー_1" xmlns="http://www.w3.org/2000/svg" xmlns:xlink="http://www.w3.org/1999/xlink" x="0px"
	 y="0px" viewBox="0 0 740.6 889.1" style="enable-background:new 0 0 740.6 889.1;" xml:space="preserve">
<style type="text/css">
	.st0{fill:url(#SVGID_1_);}
	.st1{clip-path:url(#SVGID_3_);}
	.st2{fill:#45387D;stroke:#3C0000;stroke-width:1.469;stroke-miterlimit:10;}
	.st3{fill:none;stroke:#3C0000;stroke-width:1.469;stroke-miterlimit:10;}
	.st4{fill:#FFFFFF;stroke:#3C0000;stroke-width:1.7696;stroke-miterlimit:10;}
	.st5{fill:#6E76B5;stroke:#3C0000;stroke-width:1.7696;stroke-miterlimit:10;}
	.st6{fill:#FFB8C8;stroke:#3C0000;stroke-width:1.29;stroke-miterlimit:10;}
	.st7{fill:none;stroke:#3C0000;stroke-width:1.29;stroke-miterlimit:10;}
	.st8{fill:#6E76B5;stroke:#3C0000;stroke-width:1.29;stroke-miterlimit:10;}
	.st9{fill:#B7BFEB;stroke:#3C0000;stroke-width:1.29;stroke-miterlimit:10;}
	.st10{fill:#2A2C4E;stroke:#3C0000;stroke-width:1.29;stroke-miterlimit:10;}
	.st11{fill:#F8F8F8;stroke:#3C0000;stroke-width:1.29;stroke-miterlimit:10;}
	.st12{fill:#4E4C8F;stroke:#3C0000;stroke-width:1.29;stroke-miterlimit:10;}
	.st13{fill:#DD8BA0;stroke:#3C0000;stroke-width:1.29;stroke-miterlimit:10;}
	.st14{fill:#6E76B5;}
	.st15{fill:#969AD9;}
	.st16{fill:#FFFFFF;stroke:#3C0000;stroke-width:1.29;stroke-miterlimit:10;}
	.st17{clip-path:url(#SVGID_5_);}
	.st18{clip-path:url(#SVGID_7_);}
	.st19{fill:#969AD9;stroke:#3C0000;stroke-width:1.29;stroke-miterlimit:10;}
	.st20{opacity:0.6;fill:#45387D;enable-background:new    ;}
	.st21{fill:#D26088;stroke:#3C0000;stroke-width:1.29;stroke-miterlimit:10;}
	.st22{fill:#D5DEF0;}
	.st23{opacity:0.4;fill:#969AD9;stroke:#3C0000;stroke-width:1.29;stroke-miterlimit:10;enable-background:new    ;}
	.st24{fill:#D5DEF0;stroke:#3C0000;stroke-width:1.29;stroke-miterlimit:10;}
	.st25{fill:#45387D;stroke:#3C0000;stroke-width:1.29;stroke-miterlimit:10;}
	.st26{fill:#2A2C4E;}
	.st27{fill:#DD8BA0;}
	.st28{fill:#FEFDFD;}
	.st29{fill:#462915;}
	.st30{fill:#D16E7D;}
</style>
<g>
	<g id="レイヤー_1_1_">
		
			<linearGradient id="SVGID_1_" gradientUnits="userSpaceOnUse" x1="6086.98" y1="7447.9199" x2="6976.1001" y2="7447.9199" gradientTransform="matrix(6.123234e-17 -1 -1 -6.123234e-17 7818.2397 6976.1001)">
			<stop  offset="0" style="stop-color:#9ED9FF"/>
			<stop  offset="0.24" style="stop-color:#A1D8FD"/>
			<stop  offset="0.43" style="stop-color:#ACD6F6"/>
			<stop  offset="0.61" style="stop-color:#BDD1EB"/>
			<stop  offset="0.79" style="stop-color:#D5CBDB"/>
			<stop  offset="0.95" style="stop-color:#F4C4C6"/>
			<stop  offset="1" style="stop-color:#FFC1BF"/>
		</linearGradient>
		<path class="st0" d="M0,518.8V370.3C0,165.8,165.8,0,370.3,0l0,0c204.5,0,370.3,165.8,370.3,370.3v148.5
			c0,204.5-165.8,370.3-370.3,370.3l0,0C165.8,889.1,0,723.3,0,518.8z"/>
		<g>
			<defs>
				<path id="SVGID_2_" d="M0,518.8V370.3C0,165.8,165.8,0,370.3,0l0,0c204.5,0,370.3,165.8,370.3,370.3v148.5
					c0,204.5-165.8,370.3-370.3,370.3l0,0C165.8,889.1,0,723.3,0,518.8z"/>
			</defs>
			<clipPath id="SVGID_3_">
				<use xlink:href="#SVGID_2_"  style="overflow:visible;"/>
			</clipPath>
			<g class="st1">
				<g>
					<g>
						
							<rect x="537.3" y="170.1" transform="matrix(0.7071 -0.7071 0.7071 0.7071 14.763 442.7385)" class="st2" width="9" height="67"/>
						
							<rect x="318" y="170.1" transform="matrix(0.7071 -0.7071 0.7071 0.7071 -49.4566 287.6903)" class="st2" width="9" height="67"/>
						<rect x="275.3" y="209.4" class="st2" width="9" height="9"/>
						<rect x="492" y="209.4" class="st2" width="9" height="9"/>
					</g>
					<line class="st3" x1="259.7" y1="209.4" x2="532.2" y2="209.4"/>
					<rect x="235.1" y="146.3" class="st4" width="373.8" height="63.1"/>
					<rect x="608.9" y="146.3" class="st5" width="13.1" height="63.1"/>
				</g>
				<polygon class="st6" points="72.3,393.6 135.9,393.6 135.9,307.1 228.8,254.8 228.8,476.5 70.2,476.5 				"/>
				<line class="st7" x1="39.3" y1="512.7" x2="39.3" y2="480.1"/>
				<line class="st7" x1="25.1" y1="486.3" x2="53.4" y2="486.3"/>
				<line class="st7" x1="25.1" y1="480.1" x2="25.1" y2="492.5"/>
				<line class="st7" x1="48" y1="480.1" x2="48" y2="492.5"/>
				<line class="st7" x1="53.4" y1="480.1" x2="53.4" y2="492.5"/>
				<line class="st7" x1="30.5" y1="480.1" x2="30.5" y2="492.5"/>
				<path class="st8" d="M8.4,502.8L-2.4,492l5.2-5.2c0.3-0.3,0.3-0.8,0-1.1s-0.8-0.3-1.1,0l0,0l-5.2,5.2l-10.8-10.8
					c-3.5,6.5-2.3,14.6,2.9,19.8c0.8,0.7,1.6,1.4,2.4,2v10.8h2.3v-9.5C-1.9,505.4,3.7,505.3,8.4,502.8z"/>
				<rect x="-93.6" y="544.3" class="st9" width="223.1" height="346.5"/>
				<rect x="-93.6" y="544.3" class="st10" width="223.1" height="267.3"/>
				<rect x="-105.7" y="544.3" class="st11" width="235.2" height="32.7"/>
				<line class="st7" x1="129.4" y1="568" x2="-105.7" y2="568"/>
				<rect x="121.5" y="544.3" class="st12" width="7.9" height="32.7"/>
				<rect x="50.9" y="511.6" class="st12" width="31.6" height="32.7"/>
				<rect x="-41.7" y="511.6" class="st11" width="92.6" height="32.7"/>
				<polygon class="st12" points="-41.7,544.3 50.9,544.3 50.9,538 				"/>
				<line class="st7" x1="50.9" y1="523.7" x2="-41.7" y2="523.7"/>
				<rect x="-105.7" y="601.5" class="st11" width="235.2" height="32.7"/>
				<line class="st7" x1="129.4" y1="625.2" x2="-105.7" y2="625.2"/>
				<rect x="-105.7" y="658.7" class="st11" width="235.2" height="32.7"/>
				<line class="st7" x1="129.4" y1="682.5" x2="-105.7" y2="682.5"/>
				<rect x="-105.7" y="715.9" class="st11" width="235.2" height="32.7"/>
				<line class="st7" x1="129.4" y1="739.7" x2="-105.7" y2="739.7"/>
				<rect x="-105.7" y="773.2" class="st11" width="235.2" height="32.7"/>
				<line class="st7" x1="129.4" y1="796.9" x2="-105.7" y2="796.9"/>
				<rect x="-93.6" y="577" class="st13" width="223.1" height="24.5"/>
				<rect x="-93.6" y="577" class="st13" width="223.1" height="24.5"/>
				<polygon class="st14" points="97.8,577 73.2,601.5 56.4,601.5 80.9,577 				"/>
				<polygon class="st14" points="74.5,577 50,601.5 40.4,601.5 64.9,577 				"/>
				<polygon class="st14" points="23.1,577 -1.4,601.5 -33.3,601.5 -8.8,577 				"/>
				<rect x="-93.6" y="577" class="st10" width="223.1" height="6.9"/>
				<rect x="-93.6" y="634.2" class="st13" width="223.1" height="24.5"/>
				<polygon class="st14" points="1.7,634.2 -22.9,658.7 -57.5,658.7 -33,634.2 				"/>
				<polygon class="st14" points="67,634.2 42.5,658.7 23,658.7 47.5,634.2 				"/>
				<rect x="-93.6" y="691.4" class="st13" width="223.1" height="24.5"/>
				<polygon class="st14" points="85.7,691.4 61.2,715.9 43.5,715.9 68,691.4 				"/>
				<polygon class="st14" points="10.4,691.4 -14.1,715.9 -25.1,715.9 -0.5,691.4 				"/>
				<rect x="-93.6" y="748.6" class="st13" width="223.1" height="24.5"/>
				<polygon class="st14" points="118.1,748.6 93.5,773.2 65.7,773.2 90.2,748.6 				"/>
				<polygon class="st14" points="42.4,748.6 17.9,773.2 6.2,773.2 30.8,748.6 				"/>
				<rect x="-71" y="816.5" class="st8" width="149" height="74.2"/>
				<rect x="-71" y="816.5" class="st8" width="149" height="74.2"/>
				<polygon class="st15" points="77.9,816.5 77.9,860.3 47.5,890.8 -6,890.8 68.2,816.5 				"/>
				<polygon class="st15" points="33.7,816.5 -40.5,890.8 -71,890.8 -71,890.5 3,816.5 				"/>
				<line class="st7" x1="4.6" y1="816.5" x2="4.6" y2="890.8"/>
				<polygon class="st10" points="-67.1,819.7 77.9,819.7 77.9,816.5 -71,816.5 -71,890.8 -67.1,890.8 				"/>
				<rect x="-93.6" y="634.2" class="st10" width="223.1" height="6.9"/>
				<rect x="-93.6" y="691.4" class="st10" width="223.1" height="6.9"/>
				<rect x="-93.6" y="748.6" class="st10" width="223.1" height="6.9"/>
				<rect x="637" y="563.8" class="st16" width="107.6" height="326.9"/>
				<polygon class="st14" points="744.6,448.9 744.6,563.8 622.8,563.8 				"/>
				<g>
					<defs>
						<polygon id="SVGID_4_" points="744.6,448.9 744.6,563.8 622.8,563.8 						"/>
					</defs>
					<clipPath id="SVGID_5_">
						<use xlink:href="#SVGID_4_"  style="overflow:visible;"/>
					</clipPath>
					<g class="st17">
						<line class="st7" x1="632.8" y1="462.3" x2="761.2" y2="462.3"/>
						<line class="st7" x1="632.8" y1="474.1" x2="761.2" y2="474.1"/>
						<line class="st7" x1="632.8" y1="486" x2="761.2" y2="486"/>
						<line class="st7" x1="632.8" y1="497.8" x2="761.2" y2="497.8"/>
						<line class="st7" x1="632.8" y1="509.6" x2="761.2" y2="509.6"/>
						<line class="st7" x1="632.8" y1="521.4" x2="761.2" y2="521.4"/>
						<line class="st7" x1="632.8" y1="533.2" x2="761.2" y2="533.2"/>
						<line class="st7" x1="632.8" y1="545.1" x2="761.2" y2="545.1"/>
					</g>
				</g>
				<polygon class="st7" points="744.6,448.9 744.6,563.8 622.8,563.8 				"/>
				<g>
					<defs>
						<polygon id="SVGID_6_" points="744.6,448.9 744.6,563.8 866.4,563.8 						"/>
					</defs>
					<clipPath id="SVGID_7_">
						<use xlink:href="#SVGID_6_"  style="overflow:visible;"/>
					</clipPath>
					<g class="st18">
						<line class="st7" x1="856.5" y1="462.3" x2="728.1" y2="462.3"/>
						<line class="st7" x1="856.5" y1="474.1" x2="728.1" y2="474.1"/>
						<line class="st7" x1="856.5" y1="486" x2="728.1" y2="486"/>
						<line class="st7" x1="856.5" y1="497.8" x2="728.1" y2="497.8"/>
						<line class="st7" x1="856.5" y1="509.6" x2="728.1" y2="509.6"/>
						<line class="st7" x1="856.5" y1="521.4" x2="728.1" y2="521.4"/>
						<line class="st7" x1="856.5" y1="533.2" x2="728.1" y2="533.2"/>
						<line class="st7" x1="856.5" y1="545.1" x2="728.1" y2="545.1"/>
					</g>
				</g>
				<polygon class="st7" points="744.6,448.9 744.6,563.8 866.4,563.8 				"/>
				<rect x="623.1" y="555.6" class="st19" width="121.5" height="16.3"/>
				<rect x="623.1" y="562" class="st8" width="121.5" height="3.7"/>
				<rect x="658.7" y="586.5" class="st6" width="24.3" height="24.3"/>
				<rect x="658.7" y="610.7" class="st6" width="24.3" height="24.3"/>
				<rect x="706.6" y="586.5" class="st6" width="24.3" height="24.3"/>
				<rect x="706.6" y="610.7" class="st6" width="24.3" height="24.3"/>
				<rect x="658.7" y="656.9" class="st13" width="24.3" height="24.3"/>
				<rect x="658.7" y="681.1" class="st10" width="24.3" height="24.3"/>
				<rect x="706.6" y="656.9" class="st6" width="24.3" height="24.3"/>
				<rect x="706.6" y="681.1" class="st6" width="24.3" height="24.3"/>
				<polyline class="st20" points="840.6,890.8 637,556.2 637,890.8 				"/>
				<line class="st7" x1="688.7" y1="342.9" x2="672.8" y2="342.9"/>
				<line class="st7" x1="688.7" y1="356.8" x2="672.8" y2="356.8"/>
				<line class="st7" x1="688.7" y1="370.8" x2="672.8" y2="370.8"/>
				<line class="st7" x1="688.7" y1="384.8" x2="672.8" y2="384.8"/>
				<line class="st7" x1="688.7" y1="398.8" x2="672.8" y2="398.8"/>
				<line class="st7" x1="688.7" y1="412.7" x2="672.8" y2="412.7"/>
				<path class="st7" d="M688.7,432.2v-117c0-2.1-1.7-3.8-3.8-3.8l0,0l0,0"/>
				<path class="st7" d="M672.8,432.2v-117c0-2.1-1.7-3.8-3.8-3.8c0,0,0,0,0,0l0,0"/>
				<path class="st21" d="M127.6,386.3l-12.7,43.8c-2.8,9.9,2.8,20.2,12.7,23c1.7,0.5,3.4,0.7,5.2,0.7l0,0
					c10.3,0,18.6-8.3,18.6-18.6c0-1.7-0.2-3.5-0.7-5.2L138,386.3c-0.8-2.9-3.8-4.5-6.7-3.7C129.5,383.1,128.1,384.5,127.6,386.3z"/>
				<path class="st21" d="M161.2,386.3l-12.7,43.8c-2.9,9.9,2.8,20.2,12.7,23c1.7,0.5,3.4,0.7,5.2,0.7l0,0
					c10.3,0,18.6-8.3,18.6-18.6c0-1.8-0.2-3.5-0.7-5.2l-12.7-43.8c-0.8-2.9-3.9-4.5-6.7-3.7C163.1,383.1,161.8,384.5,161.2,386.3z"
					/>
				<rect x="218.8" y="234.8" class="st16" width="236.2" height="81.7"/>
				<rect x="420.2" y="234.8" class="st22" width="34.8" height="81.7"/>
				<rect x="92.2" y="448.9" class="st9" width="81.2" height="441.9"/>
				<rect x="173.4" y="316.5" class="st16" width="281.6" height="574.2"/>
				<rect x="173.4" y="316.5" class="st16" width="281.6" height="574.2"/>
				<rect x="173.4" y="712" class="st9" width="281.6" height="178.8"/>
				<rect x="353.8" y="728.9" class="st23" width="101.2" height="161.9"/>
				<rect x="173.4" y="316.5" class="st11" width="281.6" height="412.4"/>
				<rect x="173.4" y="448.9" class="st22" width="281.6" height="23.7"/>
				<rect x="173.4" y="581.2" class="st22" width="281.6" height="23.7"/>
				<line class="st7" x1="173.4" y1="728.9" x2="173.4" y2="465.2"/>
				<rect x="173.4" y="316.5" class="st24" width="281.6" height="23.7"/>
				<rect x="398" y="316.5" class="st22" width="57" height="412.4"/>
				<line class="st7" x1="92.2" y1="863.8" x2="455" y2="863.8"/>
				<line class="st7" x1="92.2" y1="847" x2="455" y2="847"/>
				<line class="st7" x1="92.2" y1="830.1" x2="455" y2="830.1"/>
				<line class="st7" x1="92.2" y1="813.2" x2="455" y2="813.2"/>
				<line class="st7" x1="92.2" y1="796.4" x2="455" y2="796.4"/>
				<line class="st7" x1="92.2" y1="779.5" x2="455" y2="779.5"/>
				<line class="st7" x1="92.2" y1="762.6" x2="455" y2="762.6"/>
				<line class="st7" x1="92.2" y1="712" x2="173.4" y2="712"/>
				<line class="st7" x1="92.2" y1="695.1" x2="173.4" y2="695.1"/>
				<line class="st7" x1="92.2" y1="678.2" x2="173.4" y2="678.2"/>
				<line class="st7" x1="92.2" y1="661.4" x2="173.4" y2="661.4"/>
				<line class="st7" x1="92.2" y1="644.5" x2="173.4" y2="644.5"/>
				<line class="st7" x1="92.2" y1="609.7" x2="173.4" y2="609.7"/>
				<line class="st7" x1="92.2" y1="627.6" x2="173.4" y2="627.6"/>
				<line class="st7" x1="92.2" y1="577" x2="173.4" y2="577"/>
				<line class="st7" x1="92.2" y1="560.1" x2="173.4" y2="560.1"/>
				<line class="st7" x1="92.2" y1="543.2" x2="173.4" y2="543.2"/>
				<line class="st7" x1="92.2" y1="526.4" x2="173.4" y2="526.4"/>
				<line class="st7" x1="92.2" y1="509.5" x2="173.4" y2="509.5"/>
				<line class="st7" x1="92.2" y1="492.6" x2="173.4" y2="492.6"/>
				<line class="st7" x1="92.2" y1="475.8" x2="173.4" y2="475.8"/>
				<rect x="455" y="316.5" class="st12" width="223" height="574.2"/>
				<polygon class="st10" points="556.2,667.7 505.6,890.8 678,890.8 				"/>
				<rect x="160.8" y="316.5" class="st8" width="294.2" height="16.4"/>
				<rect x="79.3" y="448.9" class="st8" width="375.7" height="16.4"/>
				<rect x="455" y="448.9" class="st25" width="237.3" height="16.4"/>
				<rect x="79.3" y="581.2" class="st8" width="375.7" height="16.3"/>
				<rect x="79.3" y="581.2" class="st8" width="375.7" height="16.3"/>
				<rect x="79.3" y="591.8" class="st25" width="375.7" height="5.8"/>
				<rect x="79.3" y="459.4" class="st25" width="375.7" height="5.8"/>
				<rect x="160.8" y="327" class="st25" width="294.2" height="5.8"/>
				<rect x="79.3" y="728.9" class="st8" width="375.7" height="16.3"/>
				<rect x="79.3" y="739.1" class="st25" width="375.7" height="6.1"/>
				<rect x="455" y="581.2" class="st25" width="237.3" height="16.3"/>
				<rect x="455" y="728.9" class="st25" width="237.3" height="16.3"/>
				<rect x="206.1" y="218.4" class="st8" width="248.9" height="16.4"/>
				<rect x="228.2" y="246.9" class="st8" width="207.8" height="22.7"/>
				<rect x="231.4" y="250.1" class="st12" width="201.4" height="16.4"/>
				<polygon class="st9" points="351.9,250.1 335.5,266.4 312.4,266.4 328.7,250.1 				"/>
				<polygon class="st9" points="421.9,250.1 405.5,266.4 389.5,266.4 405.9,250.1 				"/>
				<polygon class="st9" points="376.7,250.1 360.3,266.4 349.8,266.4 366.2,250.1 				"/>
				<polygon class="st9" points="264.3,250.1 248,266.4 237.5,266.4 253.9,250.1 				"/>
				<line class="st7" x1="271.5" y1="250.1" x2="271.5" y2="266.4"/>
				<line class="st7" x1="324.8" y1="250.1" x2="324.8" y2="266.4"/>
				<line class="st7" x1="378" y1="250.1" x2="378" y2="266.4"/>
				<polygon class="st26" points="234,252.2 432.9,252.2 432.9,250.1 231.4,250.1 231.4,266.4 234,266.4 				"/>
				<rect x="455" y="218.4" class="st25" width="196.7" height="16.4"/>
				<polygon class="st10" points="643.8,218.4 643.8,229 455,229 455,234.8 651.7,234.8 651.7,218.4 				"/>
				<rect x="455" y="234.8" class="st12" width="174" height="81.7"/>
				<rect x="455" y="316.5" class="st25" width="237.3" height="16.4"/>
				<polygon class="st10" points="684.4,316.5 684.4,327 455,327 455,332.9 692.3,332.9 692.3,316.5 				"/>
				<polygon class="st10" points="684.4,448.9 684.4,459.4 455,459.4 455,465.2 692.3,465.2 692.3,448.9 				"/>
				<polygon class="st10" points="684.4,581.2 684.4,591.8 455,591.8 455,597.6 692.3,597.6 692.3,581.2 				"/>
				<polygon class="st10" points="684.4,728.9 684.4,739.4 455,739.4 455,745.2 692.3,745.2 692.3,728.9 				"/>
				<line class="st7" x1="455" y1="290.7" x2="189.2" y2="290.7"/>
				<line class="st7" x1="194" y1="290.7" x2="194" y2="316.5"/>
				<line class="st7" x1="211.4" y1="290.7" x2="211.4" y2="316.5"/>
				<line class="st7" x1="228.8" y1="290.7" x2="228.8" y2="316.5"/>
				<line class="st7" x1="246.2" y1="290.7" x2="246.2" y2="316.5"/>
				<line class="st7" x1="263.6" y1="290.7" x2="263.6" y2="316.5"/>
				<line class="st7" x1="281" y1="290.7" x2="281" y2="316.5"/>
				<line class="st7" x1="298.4" y1="290.7" x2="298.4" y2="316.5"/>
				<line class="st7" x1="315.8" y1="290.7" x2="315.8" y2="316.5"/>
				<line class="st7" x1="333.2" y1="290.7" x2="333.2" y2="316.5"/>
				<line class="st7" x1="350.6" y1="290.7" x2="350.6" y2="316.5"/>
				<line class="st7" x1="368" y1="290.7" x2="368" y2="316.5"/>
				<line class="st7" x1="385.4" y1="290.7" x2="385.4" y2="316.5"/>
				<line class="st7" x1="402.8" y1="290.7" x2="402.8" y2="316.5"/>
				<line class="st7" x1="420.2" y1="290.7" x2="420.2" y2="316.5"/>
				<line class="st7" x1="437.6" y1="290.7" x2="437.6" y2="316.5"/>
				<line class="st7" x1="455" y1="290.7" x2="455" y2="316.5"/>
				<line class="st7" x1="173.4" y1="423" x2="105.1" y2="423"/>
				<line class="st7" x1="109.9" y1="423" x2="109.9" y2="448.9"/>
				<line class="st7" x1="127.3" y1="423" x2="127.3" y2="448.9"/>
				<line class="st7" x1="144.7" y1="423" x2="144.7" y2="448.9"/>
				<line class="st7" x1="162.1" y1="423" x2="162.1" y2="448.9"/>
				<line class="st7" x1="663.8" y1="290.7" x2="663.8" y2="316.5"/>
				<line class="st7" x1="646.4" y1="290.7" x2="646.4" y2="316.5"/>
				<line class="st7" x1="629" y1="290.7" x2="629" y2="316.5"/>
				<line class="st7" x1="611.6" y1="290.7" x2="611.6" y2="316.5"/>
				<line class="st7" x1="594.2" y1="290.7" x2="594.2" y2="316.5"/>
				<line class="st7" x1="576.8" y1="290.7" x2="576.8" y2="316.5"/>
				<line class="st7" x1="559.4" y1="290.7" x2="559.4" y2="316.5"/>
				<line class="st7" x1="542" y1="290.7" x2="542" y2="316.5"/>
				<line class="st7" x1="524.6" y1="290.7" x2="524.6" y2="316.5"/>
				<line class="st7" x1="507.2" y1="290.7" x2="507.2" y2="316.5"/>
				<line class="st7" x1="489.8" y1="290.7" x2="489.8" y2="316.5"/>
				<line class="st7" x1="472.4" y1="290.7" x2="472.4" y2="316.5"/>
				<line class="st7" x1="455" y1="290.7" x2="455" y2="316.5"/>
				<polyline class="st7" points="455,316.5 455,290.7 669.1,290.7 				"/>
				<rect x="189.2" y="358.2" class="st9" width="66.4" height="70.7"/>
				<rect x="197.1" y="366.1" class="st6" width="50.6" height="54.8"/>
				<rect x="197.1" y="366.1" class="st27" width="50.6" height="17.4"/>
				<path class="st8" d="M244.6,369.2v48.5h-44.3v-48.5H244.6 M247.8,366.1h-50.6v54.8h50.6L247.8,366.1L247.8,366.1z"/>
				<rect x="277.3" y="358.2" class="st9" width="66.4" height="70.7"/>
				<rect x="285.2" y="366.1" class="st6" width="50.6" height="54.8"/>
				<rect x="285.2" y="366.1" class="st27" width="50.6" height="17.4"/>
				<path class="st8" d="M332.7,369.2v48.5h-44.3v-48.5H332.7 M335.8,366.1h-50.6v54.8h50.6V366.1z"/>
				<rect x="364.8" y="358.2" class="st9" width="66.4" height="70.7"/>
				<rect x="372.7" y="366.1" class="st6" width="50.6" height="54.8"/>
				<rect x="372.7" y="366.1" class="st27" width="50.6" height="17.4"/>
				<path class="st8" d="M420.2,369.2v48.5h-44.3v-48.5H420.2 M423.4,366.1h-50.6v54.8h50.6V366.1z"/>
				<rect x="189.2" y="496.3" class="st9" width="66.4" height="70.7"/>
				<rect x="197.1" y="504.2" class="st6" width="50.6" height="54.8"/>
				<rect x="197.1" y="504.2" class="st27" width="50.6" height="17.4"/>
				<path class="st8" d="M244.6,507.4v48.5h-44.3v-48.5H244.6 M247.8,504.2h-50.6v54.8h50.6L247.8,504.2L247.8,504.2z"/>
				<rect x="277.3" y="496.3" class="st9" width="66.4" height="70.7"/>
				<rect x="285.2" y="504.2" class="st6" width="50.6" height="54.8"/>
				<rect x="285.2" y="504.2" class="st27" width="50.6" height="17.4"/>
				<path class="st8" d="M332.7,507.4v48.5h-44.3v-48.5H332.7 M335.8,504.2h-50.6v54.8h50.6V504.2z"/>
				<rect x="364.8" y="496.3" class="st9" width="66.4" height="70.7"/>
				<rect x="372.7" y="504.2" class="st6" width="50.6" height="54.8"/>
				<rect x="372.7" y="504.2" class="st27" width="50.6" height="17.4"/>
				<path class="st8" d="M420.2,507.4v48.5h-44.3v-48.5H420.2 M423.4,504.2h-50.6v54.8h50.6V504.2z"/>
				<rect x="189.2" y="634.5" class="st9" width="66.4" height="70.7"/>
				<rect x="197.1" y="642.4" class="st6" width="50.6" height="54.8"/>
				<rect x="197.1" y="642.4" class="st27" width="50.6" height="17.4"/>
				<path class="st8" d="M244.6,645.5v48.5h-44.3v-48.5H244.6 M247.8,642.4h-50.6v54.8h50.6L247.8,642.4L247.8,642.4z"/>
				<line class="st7" x1="222.4" y1="642.4" x2="222.4" y2="697.2"/>
				<rect x="277.3" y="634.5" class="st9" width="66.4" height="70.7"/>
				<rect x="285.2" y="642.4" class="st6" width="50.6" height="54.8"/>
				<rect x="285.2" y="642.4" class="st27" width="50.6" height="17.4"/>
				<path class="st8" d="M332.7,645.5v48.5h-44.3v-48.5H332.7 M335.8,642.4h-50.6v54.8h50.6V642.4z"/>
				<rect x="364.8" y="634.5" class="st9" width="66.4" height="70.7"/>
				<rect x="372.7" y="642.4" class="st6" width="50.6" height="54.8"/>
				<rect x="372.7" y="642.4" class="st27" width="50.6" height="17.4"/>
				<path class="st8" d="M420.2,645.5v48.5h-44.3v-48.5H420.2 M423.4,642.4h-50.6v54.8h50.6V642.4z"/>
				<rect x="472" y="496.3" class="st25" width="51.4" height="59.1"/>
				<rect x="479.9" y="504.2" class="st10" width="35.6" height="51.2"/>
				<rect x="479.9" y="504.2" class="st10" width="35.6" height="51.1"/>
				<polygon class="st12" points="515.5,504.2 515.5,523.6 483.7,555.4 479.9,555.4 479.9,539.7 515.4,504.2 				"/>
				<polygon class="st12" points="515.5,533.2 515.5,540.6 500.8,555.4 493.3,555.4 				"/>
				<rect x="472" y="555.4" class="st8" width="54.6" height="7.9"/>
				<rect x="472" y="634.5" class="st25" width="51.4" height="59.1"/>
				<rect x="479.9" y="642.4" class="st10" width="35.6" height="51.2"/>
				<polygon class="st12" points="506.5,642.4 479.9,669 479.9,660.3 497.8,642.4 				"/>
				<polygon class="st12" points="515.5,645.3 515.5,662.3 484.3,693.5 479.9,693.5 479.9,680.8 				"/>
				<rect x="472" y="693.5" class="st8" width="54.6" height="7.9"/>
				<rect x="472" y="760.9" class="st25" width="51.4" height="59.1"/>
				<rect x="479.9" y="768.8" class="st10" width="35.6" height="51.2"/>
				<polygon class="st12" points="515.5,768.8 513.4,768.8 479.9,802.3 479.9,820 482,820 515.5,786.5 				"/>
				<rect x="472" y="820" class="st8" width="54.6" height="7.9"/>
				<rect x="542" y="496.3" class="st25" width="51.4" height="59.1"/>
				<rect x="549.9" y="504.2" class="st10" width="35.6" height="51.2"/>
				<polygon class="st12" points="585.5,530.4 585.5,541.2 571.3,555.4 560.5,555.4 				"/>
				<polygon class="st12" points="572.9,504.2 549.9,527.2 549.9,516.4 562.1,504.2 				"/>
				<rect x="542" y="555.4" class="st8" width="54.6" height="7.9"/>
				<rect x="611.3" y="496.3" class="st25" width="51.4" height="59.1"/>
				<rect x="619.3" y="504.2" class="st10" width="35.6" height="51.2"/>
				<polygon class="st12" points="654.8,525.6 654.8,504.2 649.1,504.2 619.2,534 619.2,555.4 625,555.4 				"/>
				<rect x="611.3" y="555.4" class="st8" width="54.6" height="7.9"/>
				<rect x="472" y="358.2" class="st25" width="51.4" height="59.1"/>
				<rect x="479.9" y="366.1" class="st10" width="35.6" height="51.2"/>
				<polygon class="st12" points="502.6,366.1 479.9,388.7 479.9,380 493.9,366.1 				"/>
				<polygon class="st12" points="512.3,366.1 479.9,398.5 479.9,394.3 508.1,366.1 				"/>
				<polygon class="st12" points="515.5,393.7 515.5,403.8 502.1,417.2 492,417.2 				"/>
				<rect x="472" y="417.2" class="st8" width="54.6" height="7.9"/>
				<rect x="475.2" y="247.9" class="st10" width="35.6" height="32.7"/>
				<rect x="578" y="248" class="st10" width="35.6" height="32.7"/>
				<rect x="526.6" y="248" class="st10" width="35.6" height="32.7"/>
				<rect x="542" y="358.2" class="st25" width="51.4" height="59.1"/>
				<rect x="549.9" y="366.1" class="st10" width="35.6" height="51.2"/>
				<polygon class="st12" points="585.5,366.1 585.5,369.4 549.9,405 549.9,395.5 579.3,366.1 				"/>
				<polygon class="st12" points="585.5,377.2 585.5,396.3 564.5,417.2 549.9,417.2 549.9,412.8 				"/>
				<rect x="542" y="417.2" class="st8" width="54.6" height="7.9"/>
				<rect x="611.3" y="358.2" class="st25" width="51.4" height="59.1"/>
				<rect x="619.2" y="366.1" class="st10" width="35.6" height="51.2"/>
				<polygon class="st12" points="654.8,389 654.8,396.7 634.3,417.2 626.7,417.2 				"/>
				<polygon class="st12" points="654.8,369.2 654.8,384.3 621.9,417.2 619.2,417.2 619.2,404.8 				"/>
				<rect x="611.3" y="417.2" class="st8" width="54.6" height="7.9"/>
				<rect x="107" y="496.3" class="st24" width="51.4" height="59.1"/>
				<rect x="114.9" y="504.2" class="st8" width="35.6" height="51.2"/>
				<rect x="118" y="507.4" class="st6" width="29.3" height="44.8"/>
				<polygon class="st27" points="147.3,525.8 147.3,544.9 140,552.2 120.9,552.2 				"/>
				<polygon class="st27" points="147.3,507.4 147.3,515 118,544.2 118,535.7 146.3,507.4 				"/>
				<rect x="103.8" y="555.4" class="st16" width="54.6" height="7.9"/>
				<rect x="107" y="634.2" class="st24" width="51.4" height="59.1"/>
				<rect x="114.9" y="642.1" class="st8" width="35.6" height="51.2"/>
				<rect x="118" y="645.3" class="st6" width="29.3" height="44.8"/>
				<polygon class="st27" points="147.3,654.6 147.3,662.2 118,691.4 118,682.8 146.3,654.6 				"/>
				<polygon class="st27" points="131.9,645.3 118,659.1 118,667.7 140.4,645.3 				"/>
				<rect x="103.8" y="693.3" class="st16" width="54.6" height="7.9"/>
				<rect x="206.1" y="229" class="st25" width="248.9" height="5.8"/>
				<g>
					<g>
						<path class="st28" d="M424.3,194.9c-57.3,0-114.6,0-171.9,0c-0.3,0-0.4-0.1-0.4-0.4c0-10.7,0-21.3,0-32c0-0.3,0.1-0.4,0.4-0.4
							c114.6,0,229.2,0,343.8,0c0.3,0,0.4,0.1,0.4,0.4c0,10.7,0,21.3,0,32c0,0.3-0.1,0.4-0.4,0.4
							C538.9,194.9,481.6,194.9,424.3,194.9z M256.7,171.9c0.9-0.1,1.7-0.1,2.6,0.2c0.4,0.1,0.7,0.4,1.2,0.3c0.2,0,0.2,0.1,0.2,0.2
							c0.1,0.5,0.2,0.9,0.3,1.4c0.1,0.6,0.3,1.2,0.4,1.9c0.3-1.1,0.6-2.1,0.9-3.2c0.1-0.3,0.2-0.4,0.5-0.4s0.4,0.1,0.5,0.4
							c0.3,1,0.6,2,0.9,3c0.1-0.1,0.1-0.2,0.1-0.2c0.2-0.9,0.4-1.7,0.5-2.6c0.1-0.6,0.1-0.6,0.7-0.6c0.3,0,0.4,0.1,0.3,0.4
							c-0.3,1.2-0.6,2.5-0.9,3.7c-0.2,0.8-0.2,0.8,0.6,0.8c0.5,0,1,0,1.6,0c-1.4-1-1.3-3.1-0.6-4.1c0.5-0.7,1.2-1.1,2.1-1
							s1.4,0.6,1.6,1.5c0.1,0.3,0.1,0.7,0.1,1s-0.1,0.4-0.4,0.4c-0.8,0-1.7,0-2.5,0c-0.3,0-0.4,0.1-0.3,0.4c0.1,0.7,0.6,1.2,1.3,1.2
							c0.6,0,1.1-0.1,1.6-0.5c0.1-0.1,0.3-0.2,0.3,0c0,0.3,0.1,0.7-0.1,1c0.5,0,1,0,1.5,0c-1.4-1-1.2-3.2-0.5-4.1
							c0.8-1,2.3-1.2,3.2-0.3c0.5,0.5,0.6,1.2,0.6,1.9c0,0.3-0.1,0.4-0.4,0.4c-0.8,0-1.7,0-2.5,0c-0.3,0-0.4,0.1-0.3,0.4
							c0.1,0.7,0.6,1.2,1.3,1.2c0.6,0,1.1-0.2,1.6-0.5c0.1-0.1,0.3-0.2,0.3,0.1c0,0.3,0.1,0.7-0.1,1c0.4,0,0.8,0,1.3,0
							c-0.4-0.5-0.5-1-0.5-1.5c0-0.7,0-1.4,0-2.1c0-0.2,0-0.3-0.3-0.3c-0.4,0-0.2-0.3-0.2-0.5s0-0.4,0.3-0.3c0.2,0,0.3-0.1,0.3-0.3
							c0-0.3,0-0.6,0-0.9c0-0.1,0-0.3,0.1-0.3c0.3,0,0.5-0.1,0.8,0c0.2,0.1,0.1,0.3,0.1,0.5s0,0.4,0,0.6s0.1,0.3,0.3,0.3
							c0.3,0,0.6,0,0.9,0s0.3,0.2,0.3,0.4c0,0.2,0.2,0.5-0.3,0.5c-0.3,0-0.6,0-0.9,0c-0.2,0-0.3,0.1-0.3,0.3c0,0.8,0,1.7,0,2.5
							c0,0.5,0.3,0.8,0.8,0.7c0.4-0.1,0.8-0.2,0.7,0.5v0.1h0.1c0.1,0,0-0.1,0-0.1c-0.1-0.2,0-0.5,0-0.7c0-0.1-0.1-0.2,0.1-0.3
							c0.1-0.1,0.2,0.1,0.3,0.1c0.4,0.3,0.9,0.5,1.4,0.5s0.8-0.2,0.8-0.6s-0.1-0.5-0.7-0.7c-0.3-0.1-0.7-0.1-1-0.3
							c-1-0.4-1.3-1.6-0.5-2.4c0.3-0.4,0.8-0.5,1.3-0.5c0.3,0,0.3-0.1,0.2-0.3c-2.8-4.8-8-7.5-13.8-6.7c-3.3,0.5-6,2-8.1,4.5
							C257.6,170.4,257.1,171,256.7,171.9L256.7,171.9L256.7,171.9z M588.9,176.7c-0.5-0.2-0.5-0.2-0.7,0.2c-0.5,0.9-1,1.7-1.5,2.6
							c-0.1,0.2-0.2,0.2-0.4,0c-0.5-0.7-1-1.3-1.6-2c-0.2-0.2-0.3-0.6-0.6-0.7c-0.3-0.1-0.5,0.3-0.7,0.5c0,0,0,0-0.1,0
							c0,0,0-0.1-0.1-0.1c0-0.1,0-0.1,0.1-0.2c0.6-1.2,1.2-2.5,1.7-3.7c0.1-0.2,0.1-0.3-0.2-0.4c-0.8-0.4-1.6-0.7-2.4-1.1
							c-0.2-0.1-0.3-0.1-0.4,0.2c-0.5,1.2-1,2.3-1.5,3.4c-0.5,0.9-0.9,1.8-1.4,2.7H579c0-0.1,0-0.2,0-0.3c0-1.7,0-3.5,0-5.2
							c0-0.4,0.1-0.4,0.5-0.4c0.7,0.1,0.7,0.1,0.7-0.6c0-0.8,0-0.8-0.8-0.9c-0.2,0-0.3-0.1-0.3-0.3c0-0.8,0-1.7,0-2.5
							c0-0.3,0-0.4-0.4-0.4c-0.9,0-1.8,0-2.7,0c-0.3,0-0.4,0.1-0.4,0.4c0,0.8,0,1.5,0,2.3c0,0.3-0.1,0.4-0.4,0.4c-1,0-2.1,0-3.1,0.2
							c-0.3,0-0.8-0.1-1,0.2c-0.2,0.2,0,0.7-0.1,1c0,0.4,0.1,0.5,0.4,0.4c0.2-0.1,0.3,0,0.3,0.2c-0.1,2.4-0.3,4.8-0.4,7.1
							c-0.2,2.9-0.4,5.8-0.7,8.7c0,0.2,0,0.3,0.2,0.3c0.9,0.1,1.8,0.2,2.7,0.3c0.3,0,0.4,0,0.4-0.3c0.2-2.3,0.3-4.6,0.5-6.9
							c0.1-0.7,0.1-1.5,0.2-2.3c0.2,0.2,0.2,0.3,0.3,0.4c0.4,0.3,0.5,0.7,0.5,1.2c0,2.8,0,5.5,0,8.3c0,0.3,0.1,0.4,0.4,0.4
							c0.9,0,1.8,0,2.8,0c0.3,0,0.4-0.1,0.4-0.4c0-1.8,0-3.6,0-5.4c0-0.1,0-0.3,0-0.5c0.1,0.1,0.2,0.2,0.3,0.2
							c0.2,0.3,0.4,0.2,0.6,0c0.6-0.7,1.2-1.4,1.8-2.1c0.2-0.2,0.1-0.3,0-0.4c-0.8-0.6-1.6-1.3-2.4-2c-0.1-0.1-0.3-0.2-0.2-0.5
							c0.7,0.4,1.5,0.7,2.2,1.1c0.5,0.2,0.5,0.2,0.8-0.1c0.7,0.9,1.4,1.9,2.1,2.8c0.2,0.2,0.2,0.4,0,0.6c-1.2,1.4-2.4,2.7-3.8,4
							c-0.2,0.2-0.2,0.2,0,0.4c0.6,0.7,1.2,1.3,1.8,2c0.1,0.1,0.2,0.2,0.4,0c0.1-0.1,0.2-0.1,0.2-0.2c1.3-1.2,2.5-2.5,3.7-3.9
							c0.1,0.1,0.2,0.2,0.3,0.3c1.1,1.3,2.1,2.5,3.3,3.7c0.2,0.2,0.3,0.2,0.5,0c0.8-0.7,1.5-1.3,2.3-1.9c0.3-0.2,0.3-0.3,0-0.6
							c-1.4-1.4-2.7-2.8-3.9-4.2c-0.2-0.2-0.2-0.4,0-0.6c0.4-0.6,0.8-1.3,1.2-1.9c0.1-0.1,0.1-0.2,0.2-0.2c0.2,0.5,0.2,0.5,0.7,0.2
							c0.8-0.4,1.6-0.9,2.4-1.3c0.2-0.1,0.2-0.2,0.1-0.4c-1-2.1-1.9-4.2-2.7-6.3c-0.1-0.3-0.2-0.2-0.4-0.1c-0.8,0.4-1.6,0.7-2.5,1.1
							c-0.3,0.1-0.3,0.3-0.2,0.5C588.2,174.6,588.6,175.7,588.9,176.7L588.9,176.7z M303.3,182.7c0.1,0,0.1,0,0.2,0
							c1.3,0.1,2.5,0.1,3.8,0.2c0.2,0,0.3,0,0.3-0.3s0-0.6,0-0.9c0-0.1,0-0.2-0.2-0.2c-0.3,0.1-0.3-0.1-0.2-0.3
							c0.2-1.7,0.3-3.4,0.2-5.1c-0.1-1.8-0.9-2.8-2.4-3.3c-0.4-0.1-0.9-0.2-1.4-0.3c-1.5-0.1-2.9-0.1-4.4,0c-0.3,0-0.4-0.1-0.3-0.3
							c0-0.4,0-0.8,0-1.2c0-0.3,0.1-0.3,0.3-0.3c2.3,0,4.7,0.1,7,0.2c1.2,0.1,1.2,0.1,1.1-1.1l0,0c0-0.2-0.1-0.2-0.2-0.2
							c-0.4,0-0.7,0-1.1,0c-2.3-0.1-4.6-0.2-6.9-0.2c-0.3,0-0.3-0.1-0.3-0.3c0-0.4,0-0.8,0-1.1c0-0.3-0.1-0.3-0.3-0.3
							c-1.1,0-2.2,0-3.3,0c-0.3,0-0.4,0.1-0.4,0.4s0,0.7,0,1s0,0.4-0.4,0.4c-2.3,0-4.7,0.1-7,0.2c-0.3,0-0.8-0.1-1,0.1s0,0.7-0.1,1
							c0,0.2,0,0.3,0.3,0.3c0.7-0.1,1.5-0.1,2.2-0.1c1.9-0.1,3.8-0.1,5.6-0.1c0.2,0,0.3,0,0.3,0.2c0,0.6,0,1.2,0,1.7
							c0,0.2-0.1,0.2-0.2,0.2c-1.3,0.2-2.5,0.3-3.8,0.5c-0.5,0.1-0.5,0.1-0.4-0.4c0-0.2,0.1-0.3-0.2-0.3c-1.1,0-2.2,0-3.4,0
							c-0.2,0-0.3,0-0.3,0.2c0,0.5-0.1,1-0.2,1.5c-0.3,3.2-0.3,6.3,0.1,9.5c0,0.3,0.1,0.4,0.4,0.4c0.8,0,1.6,0,2.5,0
							c-1,1.2-2,2.3-3.1,3.5c1.2,0.7,2.3,1.5,3.5,2.2c0.2,0.2,0.3-0.1,0.4-0.2c1.3-1.7,2.5-3.4,3.7-5.1c0.3-0.5,0.6-1,1-1.6
							c0,2.2,0,4.4,0,6.5c0,0.3,0.1,0.4,0.4,0.4c1.1,0,2.1,0,3.2,0c0.3,0,0.4-0.1,0.4-0.4c0-2,0-4.1,0-6.1c0-0.1,0-0.3,0-0.4
							c0.1,0.1,0.2,0.2,0.3,0.3c1.2,2.2,2.5,4.3,4,6.3c0.1,0.2,0.3,0.3,0.5,0.1c1.1-0.6,2.3-1.2,3.4-1.7c0.2-0.1,0.3-0.2,0.1-0.4
							c-0.5-0.6-1.1-1.2-1.6-1.8C304.8,184.7,304.1,183.8,303.3,182.7z M505.5,182.9c-2.2,0-4.4,0.1-6.6,0.2c-0.3,0-0.8-0.1-1,0.1
							s0,0.7-0.1,1.1c0,0.3,0.1,0.3,0.4,0.3c0.5,0,1.1-0.1,1.6-0.1c2.6-0.1,5.3-0.2,8-0.2c1.6,0,3.2,0,4.8,0c0.3,0,0.5,0.1,0.5,0.5
							c0,0.8,0,1.6-0.1,2.3c-0.1,0.7-0.3,0.9-0.9,0.9c-1.2,0.1-2.5,0-3.7-0.1c-0.4,0-0.9-0.2-1.1,0s0,0.7-0.1,1.1
							c0,0.3,0.1,0.3,0.3,0.3c0.6,0,1.1,0.1,1.7,0.1c1.9,0.1,3.8,0.2,5.8-0.1c1.2-0.2,1.8-0.4,2-1.9c0.1-0.9,0.1-1.8,0.1-2.7
							c0-0.3,0.1-0.4,0.4-0.3c0.5,0,0.9,0,1.4,0.1c0.2,0,0.2,0,0.2-0.2c0-0.3,0-0.6,0-0.9s-0.1-0.3-0.3-0.3c-0.5,0-0.9-0.1-1.4-0.1
							c-0.2,0-0.4,0-0.4-0.3c0-0.6-0.1-1.1-0.1-1.7c0-0.3,0.1-0.4,0.4-0.4s0.8,0.3,1,0s0-0.7,0-1.1c0-0.1,0-0.2-0.1-0.2
							c-0.4,0-0.3-0.2-0.3-0.4c0-1.6,0-3.2,0-4.8c0-1-0.5-1.7-1.4-2.1c-0.5-0.2-0.9-0.3-1.4-0.3c-1.4-0.1-2.8,0-4.1,0
							c-0.6,0-0.6,0-0.6-0.5c0-0.2,0-0.4,0-0.6c-0.1-0.4,0.1-0.5,0.5-0.5c2.4,0.1,4.8,0.1,7.3,0.2c0.3,0,0.7,0.1,0.9,0
							c0.2-0.2,0-0.6,0.1-0.9c0.1-0.4-0.1-0.5-0.5-0.5c-2.5-0.1-4.9-0.2-7.4-0.2c-0.8,0-0.8,0-0.8-0.8c0-0.1,0-0.2,0-0.2
							c0-0.3-0.1-0.4-0.4-0.4c-0.8,0-1.6,0-2.4,0c-0.3,0-0.8-0.1-1,0.1s0,0.6-0.1,1l0,0c0.1,0.3-0.1,0.4-0.4,0.4
							c-2.4,0-4.7,0.1-7.1,0.2c-1.2,0.1-1.2,0-1.1,1.2c0,0.2,0,0.3,0.3,0.3c0.8-0.1,1.7-0.1,2.6-0.1c1.8-0.1,3.5-0.1,5.3-0.2
							c0.3,0,0.4,0.1,0.4,0.4c0,0.4,0,0.9,0,1.3c0,0.2,0,0.3-0.2,0.3c-1.3,0.1-2.5,0.3-3.8,0.4c-0.3,0-0.4-0.1-0.3-0.3
							c0.1-0.2,0-0.3-0.3-0.3c-1,0-2,0-3,0c-0.2,0-0.3,0.1-0.3,0.3c-0.4,3.1-0.4,6.2,0,9.3c0,0.3,0.1,0.3,0.4,0.3c0.9,0,1.9,0,2.8,0
							c0.4,0,0.5-0.1,0.4-0.5v-0.1c-0.1-0.3,0-0.4,0.3-0.4c1.1,0,2.3-0.1,3.4-0.1c2.2,0,4.4,0,6.7,0c0.1,0,0.3-0.1,0.3,0.2
							c0,0.6,0.1,1.3,0.1,1.9c0,0.2,0,0.3-0.3,0.3C510.4,182.9,507.9,182.8,505.5,182.9z M276.1,185.5c-0.3-0.1-0.6-0.3-0.8-0.5
							c-1-1-1.1-3.1-0.1-4.1c0.6-0.7,1.4-0.8,2.2-0.6c0.8,0.2,1.1,0.8,1.3,1.6c0,0.3,0,0.5,0.1,0.8c0,0.3-0.1,0.4-0.4,0.4
							c-0.9,0-1.7,0-2.6,0c-0.3,0-0.4,0.1-0.3,0.4c0.1,0.6,0.4,1,0.9,1.2c0.6,0.2,1.2,0.1,1.6-0.5c0.4-0.5,0.9-0.5,1.3-0.2
							s0.4,0.8,0,1.3c-0.6,0.8-1.4,1.3-2.3,1.7c-3.2,1.4-6.5,1.7-9.9,0.8c-2.5-0.6-4.5-1.9-5.8-4.1c-0.2-0.4-0.4-0.7-0.6-1.1
							c-0.9,1.9-2.5,2.2-4.5,1.9c1.9,3.7,4.8,6.2,8.7,7.1c5.4,1.3,10-0.1,13.6-4.3c2.6-3,3.6-6.6,3.1-10.6c-0.3,0.3-0.5,0.5-0.7,0.7
							c-0.1,0.1-0.1,0.1,0,0.2c0.5,0.8,0.1,1.4-0.8,1.4c-1.7,0-3.4,0-5.1,0c-0.2,0-0.4,0-0.4,0.3c0,0.2-0.1,0.2-0.2,0.2
							c-0.3-0.1-0.6-0.1-0.9,0s-0.6,0.4-0.5,0.9c0,0.4,0.3,0.1,0.5,0.2c0.1,0,0.2,0,0.4,0c0.3,0,0.4,0.1,0.4,0.4s-0.1,0.5-0.4,0.4
							c-0.1,0-0.2,0-0.4,0c-0.4-0.1-0.5,0.1-0.5,0.5c0,1.1,0,2.2,0,3.2c0,0.6,0,0.6-0.5,0.6s-0.5,0-0.5-0.5c0-1.1,0-2.2,0-3.4
							c0-0.2,0-0.4-0.2-0.4c-0.4,0-0.3-0.2-0.3-0.4c0-0.2-0.1-0.5,0.3-0.4c0.1,0,0.2,0,0.2-0.2c0-0.4,0.1-0.8,0.4-1.2
							c-0.2,0-0.4,0-0.5,0c-3.2,0-6.4,0-9.6,0c-0.7,0-0.7,0-0.6,0.7c0.3,3.2,2.3,5.5,5.3,6.4c1.9,0.5,3.8,0.7,5.7,0.4
							C273.9,186.2,275,186,276.1,185.5z M443.5,170.6c0.2-0.6,0.3-1.1,0.5-1.6c0.1-0.3,0-0.3-0.2-0.4c-0.8-0.3-1.6-0.7-2.3-1
							c-0.2-0.1-0.3-0.1-0.4,0.2c-0.3,1-0.7,2-1,3.1c-0.1,0.2-0.2,0.4-0.5,0.4c-2.2,0.5-4.4,1.2-6.5,2.3c-1,0.6-1,0.6-0.6,1.7
							c0.1,0.3,0.2,0.3,0.4,0.1c1.2-0.6,2.4-1.2,3.7-1.6c0.8-0.3,1.7-0.6,2.5-0.8c0,0.1,0,0.2-0.1,0.3c-2,4.8-4.4,9.3-7.3,13.6
							c-0.1,0.2-0.2,0.3,0.1,0.5c0.7,0.4,1.3,0.9,2,1.3c0.5,0.3,0.5,0.3,0.9-0.2c3.3-4.8,5.9-10,8-15.5c0.3-0.8,0.3-0.8,1.2-0.8
							c1.7,0,2.8,1.1,2.8,2.8c0,1.4-0.2,2.7-0.5,4c-0.7,3-1.9,5.8-3.3,8.6c-0.1,0.3-0.1,0.4,0.2,0.5c0.9,0.4,1.8,0.8,2.7,1.3
							c0.3,0.2,0.4,0.1,0.6-0.2c1.1-2.4,2-4.8,2.7-7.3c0.5-1.9,1-3.9,0.9-5.9c-0.1-2.6-1.5-4.4-4-5.1
							C445.1,170.6,444.3,170.6,443.5,170.6z M535.7,187.7c0,0.4,0,0.8,0,1.2c0,0.2,0.1,0.3,0.3,0.3c1.5,0.4,3.1,0.6,4.7,0.5
							c1.3-0.1,2.1-0.7,2.4-1.8c0.1-0.4,0.1-0.7,0.2-1.1c0.2-2.2,0.2-4.4,0.2-6.6c0-2.3,0-4.6,0-6.9c0-1.2-0.1-2.4-0.3-3.6
							c-0.2-1.2-1-2.1-2.3-2.3c-1.2-0.2-2.4-0.1-3.6,0.2c-0.1,0-0.3,0.1-0.3,0c0-0.3-0.2-0.2-0.3-0.2c-1,0-2,0-3,0
							c-0.3,0-0.3,0.1-0.3,0.3c-0.1,0.8-0.2,1.5-0.2,2.3c-0.2,2.7-0.2,5.5,0.1,8.2c0,0.2,0.1,0.3,0.3,0.3c1,0,1.9,0,2.9,0
							c0.1,0,0.2,0.1,0.3-0.1c0-0.2,0.2-0.2,0.4-0.2c0.8,0,1.5,0,2.3,0c0.3,0,0.4,0.1,0.4,0.4c0,1.5,0,3.1-0.1,4.6
							c0,1.3,0,2.6-0.1,3.9c-0.1,0.9-0.4,1.2-1.4,1C537.4,188.1,536.6,187.9,535.7,187.7z M424.7,172.7c0-1-0.5-2.1-1.6-2.9
							c-1.2-1-2.6-1.2-4-1c-2.7,0.3-4.4,2.8-3.7,5.4c0.3,1,0.7,1.8,1.2,2.7c0.1,0.2,0.1,0.3-0.1,0.5c-0.2,0.1-0.4,0.3-0.6,0.5
							c-1.3,1.1-2.2,2.3-2.4,4c-0.4,2.9,1.9,5.6,4.8,5.6c1.6,0,3.1-0.6,4.4-1.6c0.2-0.2,0.3-0.2,0.5,0c0.5,0.5,0.9,1.1,1.4,1.6
							c0.1,0.1,0.2,0.2,0.4,0c0.6-0.6,1.3-1.3,2-1.9c0.2-0.2,0.1-0.3,0-0.4c-0.5-0.6-1-1.1-1.5-1.7c-0.2-0.2-0.2-0.4-0.1-0.6
							c0.9-1.2,1.5-2.6,2.1-3.9c0.1-0.2,0.1-0.3-0.2-0.4c-0.3-0.1-0.5-0.3-0.8-0.4c-0.2-0.1-0.3-0.1-0.4,0.1c-0.4,1.2-1,2.4-1.8,3.5
							c-0.1,0.2-0.2,0.2-0.3,0c-0.9-1.1-1.8-2.2-2.6-3.3c-0.1-0.2-0.1-0.3,0.1-0.4c0.4-0.3,0.9-0.6,1.2-1
							C423.8,176,424.7,174.7,424.7,172.7z M323.6,183.8c0-1.1,0-2,0-2.9c0-0.3-0.1-0.7,0.1-0.9c0.2-0.2,0.6,0,0.9,0
							c1.8,0,3.5,0.1,5.3,0.2c1.3,0.1,1.3,0.1,1.2-1.2v-0.1c0-0.1,0-0.1-0.1-0.1c-0.3,0-0.3-0.2-0.3-0.4c0-1.1,0-2.1,0-3.2
							c-0.1-1.2-0.7-2.1-1.9-2.6c-0.7-0.3-1.5-0.4-2.2-0.4c-2.5-0.1-5.1,0.2-7.6,0.5c-1.1,0.1-2.2,0.3-3.3,0.5c-0.2,0-0.3,0-0.3-0.2
							c0-0.1,0-0.2,0-0.3c0.1-0.3,0-0.3-0.3-0.3c-1,0-2,0-3,0c-0.2,0-0.3,0.1-0.4,0.3c-0.3,2.8-0.3,5.6,0,8.3c0,0.2,0.1,0.3,0.3,0.3
							c0.8,0,1.7,0,2.5,0c0.9,0,0.9,0,0.7-0.9c0-0.2,0-0.3,0.2-0.3c1.3,0,2.6-0.1,4-0.1c0.3,0,0.4,0.1,0.4,0.4c0,1.8,0,3.6,0,5.4
							c0,0.4,0,0.9-0.1,1.3c-0.1,0.6-0.3,0.7-0.8,0.8c-0.7,0.1-1.4,0-2.1-0.2c-0.2-0.1-0.3,0-0.3,0.2c0,0.3,0,0.6,0,0.9
							c0,0.2,0.1,0.3,0.3,0.3c1.7,0.3,3.4,0.3,5.1,0.1c0.4,0,0.8-0.1,1.2-0.4c0.4-0.3,0.4-0.8,0.5-1.3
							C323.7,186.2,323.6,184.9,323.6,183.8z M346.7,168.7c-3.6,0.1-7.1,0.9-10.5,2.2c-0.8,0.3-0.8,0.3-0.5,1.1
							c0.3,0.7,0.3,0.7,0.9,0.4c2.1-0.9,4.2-1.4,6.4-1.8c1.2-0.2,2.5-0.4,3.7-0.4c1.1,0,1.5,0.5,1.5,1.5c0,0.9-0.3,1.6-0.7,2.4
							c-1.2,2.5-3,4.6-5,6.5c-2.4,2.2-5.1,4-8,5.5c-0.3,0.1-0.3,0.3-0.1,0.5c0.5,0.7,0.9,1.5,1.4,2.2c0.2,0.3,0.3,0.3,0.6,0.1
							c3.2-1.9,6.2-4.1,9-6.6c0.2-0.1,0.3-0.2,0.4,0c0.5,0.5,1.1,1,1.7,1.6c1.6,1.6,2.9,3.3,4.1,5.2c0.1,0.2,0.2,0.2,0.4,0
							c0.7-0.6,1.4-1.2,2.1-1.8c0.2-0.2,0.3-0.3,0.1-0.5c-1.8-2.5-3.7-5-6-7c-0.2-0.2-0.2-0.3,0-0.4c0.3-0.4,0.6-0.8,0.9-1.2
							c1.1-1.7,2.1-3.5,2.3-5.5c0.3-2.1-0.6-3.4-2.7-3.8C347.9,168.7,347.3,168.7,346.7,168.7z M525.9,183.3c-0.1-1.2,0-2.7-0.1-4.3
							c0-0.3,0.1-0.4,0.4-0.4c0.9,0,1.9,0,2.8,0c1,0,2,0,3,0.1c0.3,0,0.3,0,0.3-0.3s0-0.6,0-0.9c0-0.1,0-0.2-0.1-0.2
							c-0.4,0-0.3-0.3-0.3-0.5c0.1-2.1,0.2-4.2,0.2-6.4c0-1.4-0.7-2.3-2-2.7c-0.5-0.2-1.1-0.2-1.7-0.2c-0.9-0.1-1.7,0.2-2.6,0.1
							c-1-0.2-2,0-3,0c-0.2,0-0.3,0.1-0.3,0.3c0,0.4,0,0.7-0.1,1.1c-0.3,4.1-0.4,8.2-0.3,12.3c0,2.7,0.2,5.4,0.3,8.1
							c0,0.4,0.1,0.5,0.5,0.5c0.9,0,1.8,0,2.7,0c0.3,0,0.4-0.1,0.4-0.4C526,187.5,525.9,185.6,525.9,183.3z M550.2,172.2
							c-1.1,0-2.2,0-3.2,0c-0.2,0-0.3,0-0.4,0.2c-0.4,2.4-0.4,4.7,0,7.1c0,0.1,0.1,0.2,0.2,0.2c1.1,0,2.3,0,3.4,0
							c-0.3-1.5-0.5-3.1-0.4-4.6c0-0.2,0.1-0.3,0.3-0.4c2.8-0.6,5.7-1.1,8.5-1.2c1.4-0.1,2.9-0.1,4.3,0.2c1.2,0.3,1.6,0.9,1.5,2.1
							c-0.1,1.1-0.2,2.3-0.5,3.4c-0.1,0.3,0,0.3,0.3,0.3c1.1,0,2.2,0,3.3,0c0.2,0,0.3-0.1,0.4-0.3c0.2-1.2,0.4-2.4,0.4-3.7
							c0-1.3-0.7-2.4-1.9-2.9c-0.5-0.2-1-0.3-1.5-0.4c0.9-0.9,1.8-1.9,2.5-3c0.2-0.2,0.1-0.3-0.1-0.4c-1-0.4-2-0.9-3.1-1.3
							c-0.3-0.1-0.4-0.1-0.5,0.2c-0.6,1.2-1.4,2.2-2.1,3.3c-0.5,0.8-1.1,1.1-2.1,1.1c-2.9,0-5.8,0.5-8.7,1.1c-1,0.2-1,0.2-0.8-0.8
							C550.2,172.3,550.2,172.3,550.2,172.2c1.5,0.9,2.9,0.7,3.7-0.5c0.7-1,0.6-2.5-0.3-3.3s-2.6-0.8-3.6,0
							C549.1,169.2,549.1,170.7,550.2,172.2z M551.2,178.6c0.1-0.1,0.2-0.1,0.4-0.1c1.2-0.4,2.3-0.8,3.5-1.1
							c1.5-0.4,2.9-0.6,4.5-0.4c0.2,0,0.3,0.1,0.5,0.1c0.2,0.1,0.3,0.2,0.1,0.4c-0.2,0.2-0.4,0.4-0.6,0.7c-0.8,0.9-1.7,1.5-3,1.2
							l0,0c-0.2,0-0.3,0.1-0.2,0.3c0.1,0.7,0.2,1.4,0.3,2.1c0.1,0.4,0,0.4-0.4,0.4c-2.7,0-5.4,0.1-8.2,0.2c-0.3,0-0.8-0.1-1,0.1
							c-0.2,0.3,0,0.7-0.1,1.1c0,0.3,0.1,0.3,0.3,0.3c3.1-0.2,6.1-0.2,9.2-0.3c0.2,0,0.3,0.1,0.3,0.2c0,1.1,0,2.2-0.1,3.3
							c-0.1,0.4-0.3,0.7-0.7,0.7c-0.2,0-0.4,0-0.6,0c-1.3,0-2.6-0.2-3.9-0.4c-0.3-0.1-0.4,0-0.4,0.3c0,0.2,0,0.5,0,0.7
							c0,0.3,0.1,0.4,0.3,0.4c1.3,0.2,2.6,0.4,3.9,0.4c1.4,0,2.8,0.1,4.1-0.3c0.6-0.2,1-0.6,1.1-1.2c0.2-1.3,0.2-2.6,0.2-3.8
							c0-0.4,0.1-0.4,0.4-0.4c2.2,0,4.5,0.1,6.7,0.2c0.3,0,0.4,0,0.4-0.3s0-0.5,0-0.8s-0.1-0.3-0.3-0.4c-2.3-0.1-4.6-0.2-7-0.2
							c-0.1,0-0.3,0.1-0.3-0.1c0-0.1-0.1-0.3,0.1-0.4c0.1-0.1,0.1-0.1,0.2-0.2c0.9-0.8,1.7-1.6,2.4-2.5c0.3-0.3,0.5-0.7,0.5-1.1
							c0-1-0.6-1.8-1.7-2.1c-0.8-0.2-1.6-0.3-2.4-0.3c-2.5-0.1-4.9,0.4-7.3,1.2c-0.4,0.1-1,0.2-1.2,0.5
							C551,177.5,551.2,178.1,551.2,178.6z M466.6,168.5c-1.4,0-2.6,0.1-3.8,0.3c-2.8,0.5-5.5,1.4-8.1,2.7c-0.2,0.1-0.2,0.1-0.1,0.3
							c0.1,0.3,0.3,0.7,0.4,1c0.1,0.2,0.1,0.2,0.3,0.1c1.9-1,4-1.6,6.1-2.1c1.6-0.4,3.2-0.8,4.8-0.7c1.4,0,2.4,0.9,2.7,2.3
							c0.3,1.5-0.1,3-0.7,4.3c-0.9,2-2.3,3.7-3.8,5.2s-3.1,2.8-4.8,4.1c-0.1,0.1-0.3,0.2-0.1,0.4c0.7,0.8,1.3,1.6,2,2.4
							c0.1,0.2,0.2,0.2,0.4,0c0.3-0.2,0.5-0.4,0.8-0.6c2.6-2.1,4.9-4.3,6.9-7c1.6-2.3,2.8-4.7,3-7.5c0.1-2.4-1-4.1-3.3-4.8
							C468.3,168.6,467.4,168.5,466.6,168.5z M483.7,188c3.2,0,5.5,0.1,7.8,0.2c0.3,0,0.8,0.2,1,0s0-0.7,0.1-1.1
							c0-0.3,0-0.4-0.3-0.4c-1.9,0-3.8-0.1-5.7-0.2c-0.4,0-0.4-0.1-0.4-0.5c0-3.8,0-7.6,0-11.4c0-0.4,0.1-0.4,0.5-0.4
							c1.4,0,2.8,0,4.2-0.2c0.2,0,0.3,0,0.3-0.2c0-0.4,0-0.7,0-1.1c0-0.1,0-0.2-0.2-0.2c-1.1,0.2-2.2,0.2-3.3,0.2
							c-3,0.1-5.9,0.1-8.9-0.2c-0.9-0.1-0.9-0.1-0.9,0.8c0,0.4,0.1,0.5,0.5,0.6c1.5,0.2,2.9,0.3,4.4,0.3c0.4,0,0.4,0.1,0.4,0.5
							c0,3.7,0,7.5,0,11.2c0,0.7,0,0.7-0.7,0.7c-1.8,0-3.6,0.1-5.4,0.2c-0.2,0-0.3,0.1-0.3,0.3c0,0.3,0,0.6,0,0.9s0.1,0.3,0.3,0.3
							C479.5,188.1,482,188,483.7,188z M362.9,176.3c0,0.2,0,0.3,0,0.4c0,4,0,8,0,12.1c0,0.3,0.1,0.4,0.4,0.4c0.8,0,1.6,0,2.4,0
							c0.3,0,0.4-0.1,0.4-0.4c0-4.7,0-9.5,0-14.2c0-0.3,0.1-0.5,0.3-0.6c1.8-1.3,3.5-2.6,5.2-4.1c0.9-0.8,0.9-0.8,0.2-1.7
							c-0.1-0.2-0.2-0.2-0.4,0c-0.2,0.2-0.5,0.5-0.7,0.7c-4.5,3.9-9.4,7.2-14.7,9.9c-0.3,0.2-0.8,0.3-1,0.5
							c-0.1,0.3,0.2,0.7,0.3,1.1c0.1,0.2,0.2,0.2,0.4,0.1c0.9-0.5,1.8-0.9,2.6-1.4C360,178.1,361.4,177.2,362.9,176.3z M412.3,170.2
							c0.1-0.2-0.1-0.2-0.3-0.2c-1-0.3-2-0.5-3.1-0.8c-0.3-0.1-0.3,0-0.4,0.3c-0.4,2.5-0.9,4.9-1.6,7.4s-1.8,4.7-3.6,6.6
							c-1.5,1.6-3.4,2.8-5.4,3.8c-0.3,0.2-0.9,0.2-1,0.5s0.2,0.7,0.3,1.1c0.1,0.3,0.2,0.3,0.5,0.2c1.7-0.7,3.3-1.6,4.9-2.5
							c2.1-1.3,4-2.8,5.4-4.8c1.4-1.9,2.2-4,2.9-6.3C411.6,173.7,412,172,412.3,170.2z M385.3,179.5c0.4,0,0.7,0,1.1,0
							c1.8,0.1,3.6,0.1,5.5,0.3c0.2,0,0.3-0.1,0.3-0.3c0-0.8,0-1.6,0-2.4c0-0.3-0.1-0.4-0.4-0.4c-2.1-0.1-4.1-0.2-6.2-0.2
							c-2.6,0-5.1-0.1-7.7,0.1c-1.4,0.1-2.8,0.1-4.1,0.2c-0.3,0-0.4,0.1-0.4,0.4c0,0.8,0,1.6,0,2.4c0,0.2,0.1,0.3,0.3,0.3
							c0.7-0.1,1.3-0.1,2-0.2C378.8,179.5,382.1,179.4,385.3,179.5z M321.4,170.4c3.4,0,6.7,0.1,10,0.2c0.4,0,0.8,0.2,1,0
							s0-0.7,0-1.1l0,0c0-0.2-0.1-0.2-0.2-0.2c-0.4,0-0.9,0-1.3-0.1c-2.4-0.1-4.7-0.2-7.1-0.2c-0.3,0-0.3-0.1-0.3-0.3
							c0-0.4,0-0.7,0-1.1c0-0.3-0.1-0.3-0.3-0.3c-1.1,0-2.3,0-3.5,0c-0.2,0-0.3,0-0.3,0.3s0,0.7,0,1s-0.1,0.4-0.4,0.4
							c-2.5,0-4.9,0.1-7.4,0.2c-0.3,0-0.8-0.1-1,0.1s0,0.7-0.1,1.1c0,0.3,0.1,0.3,0.3,0.3C314.5,170.4,318,170.4,321.4,170.4z
							 M395.9,169.2c0,0-0.1,0-0.1,0.1c-0.8,0.4-1.6,0.8-2.4,1.2c-0.2,0.1-0.2,0.2-0.1,0.3c1.4,3.1,2.5,6.2,3.4,9.4
							c0.1,0.2,0.2,0.2,0.4,0.2c0.8-0.3,1.6-0.6,2.3-0.9c0.2-0.1,0.3-0.2,0.2-0.5c-0.4-1.3-0.8-2.5-1.2-3.8
							c-0.7-1.9-1.4-3.8-2.3-5.7C396,169.4,396,169.3,395.9,169.2z M404.9,177.2c0-0.1,0-0.1,0-0.2c-0.9-3-1.9-6-3.1-8.8
							c-0.1-0.2-0.2-0.2-0.4-0.1c-0.8,0.3-1.5,0.6-2.3,0.9c-0.3,0.1-0.3,0.2-0.2,0.5c0.6,1.3,1.1,2.6,1.6,4c0.6,1.5,1.1,3.1,1.5,4.7
							c0,0.1,0,0.4,0.3,0.2c0.8-0.3,1.6-0.7,2.5-1C404.9,177.3,405,177.3,404.9,177.2z M588.5,168.4L588.5,168.4c0-0.3,0-0.6,0-0.9
							c0-0.2-0.1-0.3-0.3-0.3c-1.1,0-2.2,0-3.3,0c-0.2,0-0.3,0.1-0.3,0.3c0,0.6,0,1.2,0,1.7c0,0.2-0.1,0.3-0.3,0.3
							c-0.9,0-1.8,0.1-2.7,0.2c-1,0.1-1,0.1-1,1.1c0,0.4,0.1,0.5,0.4,0.4c1.8-0.2,3.6-0.3,5.4-0.3c2,0,4,0.1,6,0.3
							c0.3,0,0.4,0,0.4-0.3s0-0.5,0-0.8s-0.1-0.3-0.3-0.3c-1-0.1-1.9-0.1-2.9-0.2c-0.4,0-0.9,0.1-1-0.1
							C588.3,169.3,588.5,168.8,588.5,168.4z M317.5,182.8c0-0.2-0.1-0.1-0.2-0.2c-0.8-0.3-1.7-0.5-2.5-0.8c-0.2-0.1-0.3,0-0.4,0.2
							c-1.1,2-2.4,3.8-3.9,5.5c-0.2,0.2-0.1,0.3,0.1,0.4c0.8,0.4,1.7,0.8,2.5,1.2c0.2,0.1,0.3,0.1,0.4-0.1c1.6-1.8,2.9-3.8,3.9-5.9
							C317.4,182.9,317.5,182.9,317.5,182.8z M328.7,181.6L328.7,181.6c-1,0.4-1.9,0.8-2.7,1.1c-0.2,0.1-0.1,0.1-0.1,0.2
							c0.2,0.3,0.3,0.7,0.5,1c0.9,1.7,1.8,3.3,2.9,4.9c0.1,0.2,0.2,0.3,0.4,0.2c0.8-0.4,1.7-0.9,2.5-1.3c0.2-0.1,0.2-0.2,0.1-0.4
							c-1.2-1.8-2.4-3.7-3.4-5.6C328.9,181.7,328.9,181.6,328.7,181.6z M505.8,187c0-1.5-0.9-2.5-2.5-2.5c-1.5,0-2.5,1-2.5,2.5
							c0,1.4,1.1,2.5,2.5,2.5S505.8,188.4,505.8,187z M558.4,167.2c-1.5,0-2.4,0.9-2.4,2.3c0,1.3,1.1,2.5,2.4,2.5s2.4-1.1,2.4-2.5
							S559.8,167.2,558.4,167.2z M254.9,177.6c-0.1,0.8,0,1.5,0,2.2c0,0.6,0.1,1.2,0.3,1.8c0.3,1.1,0.5,1.3,1.6,1.5
							c0.4,0.1,0.8,0.1,1.2,0c0.9-0.2,1.6-0.8,1.6-1.8c0.1-1.1-0.3-1.8-1.3-2.1c-0.3-0.1-0.6-0.2-0.9-0.3
							C256.5,178.6,255.6,178.4,254.9,177.6z M257.8,173.2c-1.2,0-2,0.6-2.1,1.5c-0.2,1.3,0.2,2.1,1.5,2.5c0.1,0,0.2,0.1,0.3,0.1
							c0.7,0.2,1.5,0.4,2.2,0.8c0.4,0.2,0.4,0.2,0.4-0.2c0-0.3,0-0.7,0.5-0.6c0.2,0,0.2-0.1,0.2-0.2c-0.2-0.9-0.5-1.8-0.7-2.8
							c0-0.1-0.1-0.2-0.2-0.3C259.2,173.5,258.6,173.2,257.8,173.2z M262.8,173.8c-0.3,1.1-0.6,2.2-1,3.2c0,0.1-0.1,0.2,0.1,0.2
							c0.6,0,1.1,0,1.7,0c0.1,0,0.2-0.1,0.1-0.2C263.5,176,263.1,175,262.8,173.8z M272.9,174.3c0.3,0,0.6,0,0.8,0
							c0.3,0,0.3-0.1,0.3-0.3c-0.1-0.6-0.5-0.9-1.1-0.9s-1.1,0.4-1.1,0.9c0,0.2,0,0.3,0.2,0.3C272.3,174.3,272.6,174.3,272.9,174.3z
							 M268.3,174.3c0.3,0,0.6,0,0.9,0c0.2,0,0.3-0.1,0.2-0.3c-0.1-0.6-0.4-0.9-1.1-0.9c-0.6,0-1.1,0.4-1.2,0.9c0,0.2,0,0.3,0.2,0.3
							C267.7,174.3,268,174.3,268.3,174.3z M276.6,182.3c0.3,0,0.6,0,0.9,0s0.3-0.1,0.3-0.3c-0.1-0.6-0.5-0.9-1-0.9
							c-0.6,0-1.1,0.4-1.2,0.9c0,0.2,0,0.2,0.2,0.2C276,182.3,276.3,182.3,276.6,182.3z M281.3,174.7c-0.1-0.4-0.2-0.7-0.3-1
							c-0.2-0.6-0.6-0.8-1.2-0.6c-0.3,0.1-0.5,0.2-0.5,0.5s0.2,0.5,0.5,0.6C280.2,174.4,280.7,174.5,281.3,174.7z"/>
						<path class="st29" d="M303.3,182.7c0.7,1,1.5,2,2.3,2.9c0.5,0.6,1,1.2,1.6,1.8c0.2,0.2,0.1,0.3-0.1,0.4
							c-1.1,0.6-2.3,1.1-3.4,1.7c-0.3,0.1-0.4,0.1-0.5-0.1c-1.4-2-2.8-4.1-4-6.3c-0.1-0.1-0.1-0.2-0.3-0.3c0,0.1,0,0.3,0,0.4
							c0,2,0,4.1,0,6.1c0,0.3-0.1,0.4-0.4,0.4c-1.1,0-2.1,0-3.2,0c-0.3,0-0.4-0.1-0.4-0.4c0-2.1,0-4.2,0-6.5c-0.4,0.6-0.7,1.1-1,1.6
							c-1.1,1.8-2.4,3.5-3.7,5.1c-0.1,0.1-0.1,0.3-0.4,0.2c-1.1-0.7-2.3-1.5-3.5-2.2c1-1.1,2.1-2.2,3.1-3.5c-0.9,0-1.7,0-2.5,0
							c-0.3,0-0.4-0.1-0.4-0.4c-0.4-3.2-0.4-6.3-0.1-9.5c0-0.5,0.1-1,0.2-1.5c0-0.2,0.1-0.2,0.3-0.2c1.1,0,2.2,0,3.4,0
							c0.3,0,0.2,0.1,0.2,0.3c-0.1,0.5-0.1,0.5,0.4,0.4c1.3-0.2,2.5-0.3,3.8-0.5c0.2,0,0.2-0.1,0.2-0.2c0-0.6,0-1.2,0-1.7
							c0-0.2-0.1-0.2-0.3-0.2c-1.9,0.1-3.8,0.1-5.6,0.1c-0.7,0-1.5,0.1-2.2,0.1c-0.3,0-0.3-0.1-0.3-0.3c0-0.4-0.1-0.8,0.1-1
							c0.2-0.3,0.7-0.1,1-0.1c2.3-0.1,4.7-0.2,7-0.2c0.3,0,0.4-0.1,0.4-0.4s0-0.7,0-1s0-0.4,0.4-0.4c1.1,0,2.2,0,3.3,0
							c0.2,0,0.3,0.1,0.3,0.3c0,0.4,0,0.8,0,1.1c0,0.2,0.1,0.3,0.3,0.3c2.3,0,4.6,0.1,6.9,0.2c0.4,0,0.7,0,1.1,0
							c0.2,0,0.3,0.1,0.2,0.2l0,0c0.1,1.2,0.1,1.2-1.1,1.1c-2.3-0.1-4.6-0.2-7-0.2c-0.3,0-0.3,0.1-0.3,0.3c0,0.4,0,0.8,0,1.2
							c0,0.3,0,0.4,0.3,0.3c1.5-0.1,2.9-0.1,4.4,0c0.5,0,0.9,0.1,1.4,0.3c1.5,0.5,2.2,1.6,2.4,3.3c0.1,1.7,0,3.4-0.2,5.1
							c0,0.2-0.1,0.4,0.2,0.3c0.2,0,0.2,0.1,0.2,0.2c0,0.3,0,0.6,0,0.9s-0.1,0.3-0.3,0.3c-1.3-0.1-2.5-0.1-3.8-0.2
							C303.5,182.7,303.4,182.7,303.3,182.7z M292.6,181.3C292.6,181.2,292.6,181.2,292.6,181.3c0.7-0.1,1.4-0.1,2.1-0.1
							c0.2,0,0.3-0.1,0.3-0.3c0-0.6,0-1.3,0-1.9c0-0.8,0-0.8-0.9-0.8c-0.1,0-0.1,0-0.2,0c-1.1,0-2.3,0.1-3.4,0.1
							c-0.2,0-0.4,0-0.4,0.3c0.1,0.8,0.1,1.6,0.1,2.5c0,0.2,0.1,0.3,0.3,0.3C291.2,181.3,291.9,181.3,292.6,181.3z M301.3,178.2
							C301.3,178.2,301.3,178.1,301.3,178.2c-0.7,0-1.4,0-2,0c-0.2,0-0.3,0-0.3,0.2c0,0.9,0,1.7,0,2.6c0,0.2,0,0.2,0.2,0.2
							c1.3,0,2.6,0,3.9,0.1c0.1,0,0.3,0,0.3-0.2c0-0.8,0.1-1.7,0.2-2.5c0-0.2-0.1-0.2-0.2-0.2C302.6,178.2,301.9,178.2,301.3,178.2z
							 M301.2,176.7v0.1c0.7,0,1.3,0,2,0c0.2,0,0.3,0,0.3-0.3c0-0.5-0.1-0.9-0.2-1.4c-0.3-0.9-0.8-1.3-1.7-1.4c-0.8-0.1-1.5,0-2.3,0
							c-0.2,0-0.2,0.1-0.2,0.3c0,0.8,0,1.6,0,2.4c0,0.2,0,0.3,0.2,0.3C299.9,176.7,300.6,176.7,301.2,176.7z M292.6,176.7
							L292.6,176.7c0.7-0.1,1.5-0.1,2.2-0.1c0.2,0,0.3-0.1,0.2-0.3c0-0.7,0-1.4,0-2.1c0-0.3-0.1-0.3-0.3-0.2
							c-1.4,0.1-2.8,0.3-4.1,0.5c-0.2,0-0.3,0.1-0.3,0.4c0,0.5-0.1,1.1-0.1,1.6c0,0.2,0.1,0.3,0.3,0.2
							C291.1,176.8,291.8,176.8,292.6,176.7z"/>
						<path class="st29" d="M583.4,177.4L583.4,177.4c0.3-0.2,0.5-0.6,0.8-0.5c0.2,0.1,0.4,0.4,0.6,0.7c0.5,0.7,1.1,1.3,1.6,2
							c0.1,0.2,0.2,0.2,0.4,0c0.5-0.8,1.1-1.7,1.5-2.6c0.3-0.5,0.3-0.5,0.7-0.2c0,0,0,0.1,0.1,0v-0.1c-0.4-1-0.8-2.1-1.2-3.1
							c-0.1-0.3-0.1-0.4,0.2-0.5c0.8-0.3,1.6-0.7,2.5-1.1c0.2-0.1,0.3-0.1,0.4,0.1c0.8,2.2,1.7,4.3,2.7,6.3c0.1,0.2,0.1,0.3-0.1,0.4
							c-0.8,0.4-1.6,0.8-2.4,1.3c-0.5,0.3-0.5,0.3-0.7-0.2c-0.1,0-0.2,0.1-0.2,0.2c-0.4,0.6-0.8,1.3-1.2,1.9c-0.2,0.3-0.2,0.4,0,0.6
							c1.3,1.4,2.6,2.8,3.9,4.2c0.3,0.3,0.2,0.4,0,0.6c-0.8,0.6-1.6,1.3-2.3,1.9c-0.2,0.2-0.3,0.2-0.5,0c-1.1-1.2-2.2-2.5-3.3-3.7
							c-0.1-0.1-0.2-0.2-0.3-0.3c-1.2,1.4-2.4,2.7-3.7,3.9c-0.1,0.1-0.2,0.1-0.2,0.2c-0.1,0.2-0.2,0.1-0.4,0c-0.6-0.7-1.2-1.3-1.8-2
							c-0.2-0.2-0.1-0.3,0-0.4c1.3-1.3,2.6-2.6,3.8-4c0.2-0.2,0.2-0.4,0-0.6c-0.7-0.9-1.4-1.9-2.1-2.8c-0.3,0.4-0.3,0.4-0.8,0.1
							c-0.7-0.4-1.4-0.7-2.2-1.1c-0.1,0.2,0,0.3,0.2,0.5c0.8,0.7,1.6,1.3,2.4,2c0.2,0.1,0.2,0.2,0,0.4c-0.6,0.7-1.2,1.4-1.8,2.1
							c-0.2,0.3-0.4,0.3-0.6,0c-0.1-0.1-0.2-0.1-0.3-0.2c0,0.2,0,0.3,0,0.5c0,1.8,0,3.6,0,5.4c0,0.3-0.1,0.4-0.4,0.4
							c-0.9,0-1.8,0-2.8,0c-0.3,0-0.4-0.1-0.4-0.4c0-2.8,0-5.5,0-8.3c0-0.5-0.1-0.9-0.5-1.2c-0.1-0.1-0.2-0.2-0.3-0.4
							c-0.1,0.9-0.1,1.6-0.2,2.3c-0.2,2.3-0.3,4.6-0.5,6.9c0,0.3-0.1,0.4-0.4,0.3c-0.9-0.1-1.8-0.2-2.7-0.3c-0.2,0-0.2-0.1-0.2-0.3
							c0.3-2.9,0.5-5.8,0.7-8.7c0.1-2.4,0.3-4.8,0.4-7.1c0-0.3-0.1-0.3-0.3-0.2c-0.3,0.1-0.5,0-0.4-0.4c0-0.3-0.1-0.8,0.1-1
							s0.6-0.1,1-0.2c1-0.1,2.1-0.2,3.1-0.2c0.3,0,0.4-0.1,0.4-0.4c0-0.8,0-1.5,0-2.3c0-0.3,0.1-0.4,0.4-0.4c0.9,0,1.8,0,2.7,0
							c0.3,0,0.4,0.1,0.4,0.4c0,0.8,0,1.7,0,2.5c0,0.2,0.1,0.3,0.3,0.3c0.8,0.1,0.8,0.1,0.8,0.9c0,0.7,0,0.7-0.7,0.6
							c-0.3,0-0.5,0-0.5,0.4c0,1.7,0,3.5,0,5.2c0,0.1,0,0.2,0,0.3h0.1c0.5-0.9,0.9-1.8,1.4-2.7c0.6-1.1,1.1-2.3,1.5-3.4
							c0.1-0.3,0.2-0.3,0.4-0.2c0.8,0.4,1.6,0.8,2.4,1.1c0.2,0.1,0.3,0.2,0.2,0.4c-0.6,1.3-1.1,2.5-1.7,3.7
							C583.3,177.2,583.3,177.3,583.4,177.4C583.3,177.4,583.2,177.4,583.4,177.4C583.3,177.5,583.3,177.4,583.4,177.4z
							 M574.9,176.7c0.3-0.3,0.7-0.4,0.7-0.9c0-1.2,0-2.4,0-3.6c0-0.2,0-0.3-0.2-0.3s-0.3,0.1-0.3,0.3
							C575.1,173.7,575,175.2,574.9,176.7z"/>
						<path class="st29" d="M505.5,182.9c2.4-0.1,4.8,0,7.3,0c0.2,0,0.3-0.1,0.3-0.3c-0.1-0.6-0.1-1.3-0.1-1.9
							c0-0.3-0.2-0.2-0.3-0.2c-2.2,0-4.4,0-6.7,0c-1.1,0-2.3,0.1-3.4,0.1c-0.3,0-0.4,0.1-0.3,0.4v0.1c0.1,0.4,0,0.5-0.4,0.5
							c-0.9,0-1.9,0-2.8,0c-0.3,0-0.3-0.1-0.4-0.3c-0.4-3.1-0.4-6.2,0-9.3c0-0.2,0.1-0.3,0.3-0.3c1,0,2,0,3,0c0.3,0,0.3,0.1,0.3,0.3
							c-0.1,0.3,0,0.4,0.3,0.3c1.3-0.2,2.5-0.3,3.8-0.4c0.2,0,0.2-0.1,0.2-0.3c0-0.4,0-0.9,0-1.3c0-0.3-0.1-0.4-0.4-0.4
							c-1.8,0.1-3.5,0.1-5.3,0.2c-0.9,0-1.7,0.1-2.6,0.1c-0.3,0-0.3-0.1-0.3-0.3c0-1.2,0-1.2,1.1-1.2c2.4-0.1,4.7-0.2,7.1-0.2
							c0.3,0,0.4-0.1,0.4-0.4l0,0c0-0.3-0.1-0.8,0.1-1s0.6-0.1,1-0.1c0.8,0,1.6,0,2.4,0c0.3,0,0.4,0.1,0.4,0.4c0,0.1,0,0.2,0,0.2
							c0,0.8,0,0.8,0.8,0.8c2.5,0,4.9,0.1,7.4,0.2c0.4,0,0.5,0.1,0.5,0.5c-0.1,0.3,0.1,0.7-0.1,0.9c-0.2,0.2-0.6,0-0.9,0
							c-2.4-0.1-4.8-0.2-7.3-0.2c-0.4,0-0.6,0-0.5,0.5c0,0.2,0,0.4,0,0.6c0,0.5,0,0.5,0.6,0.5c1.4,0,2.8-0.1,4.1,0
							c0.5,0,1,0.1,1.4,0.3c0.9,0.4,1.4,1.1,1.4,2.1c0,1.6,0,3.2,0,4.8c0,0.2-0.1,0.5,0.3,0.4c0.1,0,0.1,0.1,0.1,0.2
							c0,0.4,0.1,0.8,0,1.1c-0.2,0.3-0.7,0-1,0s-0.4,0.1-0.4,0.4c0.1,0.5,0.1,1.1,0.1,1.7c0,0.3,0.1,0.3,0.4,0.3
							c0.5,0,0.9,0.1,1.4,0.1c0.2,0,0.3,0.1,0.3,0.3c0,0.3,0,0.6,0,0.9c0,0.2-0.1,0.2-0.2,0.2c-0.5,0-0.9,0-1.4-0.1
							c-0.3,0-0.4,0-0.4,0.3c0,0.9,0,1.8-0.1,2.7c-0.2,1.5-0.8,1.7-2,1.9c-1.9,0.3-3.8,0.2-5.8,0.1c-0.6,0-1.1-0.1-1.7-0.1
							c-0.2,0-0.3-0.1-0.3-0.3c0-0.4-0.2-0.9,0.1-1.1c0.2-0.2,0.7,0,1.1,0c1.2,0.1,2.5,0.2,3.7,0.1c0.7,0,0.8-0.2,0.9-0.9
							c0.1-0.8,0.1-1.6,0.1-2.3c0-0.4-0.1-0.5-0.5-0.5c-1.6,0-3.2,0-4.8,0c-2.7,0-5.3,0.1-8,0.2c-0.5,0-1.1,0-1.6,0.1
							c-0.2,0-0.4,0-0.4-0.3c0-0.4-0.1-0.8,0.1-1.1c0.2-0.2,0.7-0.1,1-0.1C501.1,183,503.3,182.9,505.5,182.9z M506.5,178.1
							c0-0.3,0-0.6,0-0.9c0-0.1,0-0.2-0.2-0.2c-1.4,0.1-2.9,0.1-4.3,0.2c-0.2,0-0.2,0.1-0.2,0.2c0,0.5,0.1,1,0.1,1.5
							c0,0.3,0.1,0.3,0.4,0.3c1.1-0.1,2.2-0.1,3.2-0.1c0.3,0,0.7,0.1,0.9-0.1C506.7,178.8,506.5,178.4,506.5,178.1z M512.3,175.5
							L512.3,175.5c0.6,0.1,1.2,0.1,1.7,0.1c0.2,0,0.2-0.1,0.2-0.2c0-0.4,0-0.8,0-1.2c0-0.7-0.4-1.1-1-1.1c-0.9,0-1.8,0-2.6,0
							c-0.2,0-0.2,0.1-0.2,0.3c0,0.6,0,1.2,0,1.8c0,0.2,0.1,0.3,0.3,0.2C511.2,175.5,511.7,175.5,512.3,175.5z M504.1,175.6
							C504.1,175.6,504.1,175.5,504.1,175.6c0.7-0.1,1.4-0.1,2.1-0.1c0.2,0,0.3-0.1,0.3-0.3c0-0.5,0-0.9,0-1.4
							c0-0.3-0.1-0.4-0.4-0.3c-1.3,0.2-2.5,0.3-3.8,0.4c-0.3,0-0.5,0.2-0.5,0.5s0,0.6-0.1,1c0,0.2,0.1,0.3,0.3,0.3
							C502.8,175.6,503.5,175.6,504.1,175.6z M512.3,179.1L512.3,179.1c0.6,0.1,1.1,0,1.7,0.1c0.2,0,0.3,0,0.3-0.3
							c0-0.4,0-0.9,0-1.3c0-0.3-0.1-0.4-0.4-0.4c-1.1,0-2.2-0.1-3.3-0.1c-0.2,0-0.3,0.1-0.3,0.3c0,0.5,0,1,0,1.5
							c0,0.2,0.1,0.3,0.3,0.3C511.2,179.1,511.7,179.1,512.3,179.1z"/>
						<path class="st30" d="M276.1,185.5c-1.1,0.5-2.1,0.8-3.2,0.9c-1.9,0.3-3.9,0.1-5.7-0.4c-3.1-0.9-5-3.2-5.3-6.4
							c-0.1-0.7-0.1-0.7,0.6-0.7c3.2,0,6.4,0,9.6,0c0.1,0,0.3,0,0.5,0c-0.3,0.4-0.4,0.8-0.4,1.2c0,0.2-0.1,0.2-0.2,0.2
							c-0.4,0-0.3,0.2-0.3,0.4c0,0.2-0.1,0.4,0.3,0.4c0.3,0,0.2,0.2,0.2,0.4c0,1.1,0,2.2,0,3.4c0,0.5,0,0.5,0.5,0.5s0.5,0,0.5-0.6
							c0-1.1,0-2.2,0-3.2c0-0.4,0.1-0.5,0.5-0.5c0.1,0,0.2,0,0.4,0c0.3,0.1,0.4-0.1,0.4-0.4s-0.1-0.5-0.4-0.4c-0.1,0-0.2,0-0.4,0
							c-0.2,0-0.5,0.2-0.5-0.2c-0.1-0.4,0.2-0.8,0.5-0.9c0.3,0,0.6,0,0.9,0c0.2,0,0.3,0,0.2-0.2c0-0.3,0.1-0.3,0.4-0.3
							c1.7,0,3.4,0,5.1,0c0.9,0,1.3-0.6,0.8-1.4c-0.1-0.1-0.1-0.2,0-0.2c0.3-0.1,0.5-0.4,0.7-0.7c0.5,4.1-0.5,7.6-3.1,10.6
							c-3.6,4.1-8.3,5.6-13.6,4.3c-4-1-6.8-3.4-8.7-7.1c2,0.3,3.6,0,4.5-1.9c0.2,0.4,0.4,0.8,0.6,1.1c1.3,2.2,3.3,3.5,5.8,4.1
							c3.4,0.9,6.7,0.6,9.9-0.8c0.9-0.4,1.7-1,2.3-1.7c0.4-0.5,0.4-1,0-1.3s-0.9-0.3-1.3,0.2c-0.4,0.6-0.9,0.7-1.6,0.5
							c-0.5-0.2-0.9-0.6-0.9-1.2c0-0.3,0-0.4,0.3-0.4c0.9,0,1.7,0,2.6,0c0.3,0,0.4-0.1,0.4-0.4s0-0.5-0.1-0.8
							c-0.1-0.8-0.5-1.4-1.3-1.6s-1.6-0.1-2.2,0.6c-1,1-0.9,3.1,0.1,4.1C275.5,185.2,275.7,185.3,276.1,185.5z M270.1,185
							c-0.1,0.7,0.4,0.4,0.6,0.4s0.3-0.1,0.3-0.3c0-1.1,0-2.2,0-3.3c0-0.9-0.5-1.4-1.4-1.6c-0.5-0.1-1-0.1-1.5,0.1
							c-0.8,0.2-0.6,0-0.7,0.8c0,0.2,0.1,0.3,0.3,0.2c0.2-0.1,0.4-0.1,0.6-0.2c0.4-0.1,0.8-0.1,1.2,0c0.4,0.1,0.5,0.3,0.5,0.7
							c0,0.4-0.3,0.2-0.5,0.2c-0.5,0.1-1,0.1-1.5,0.3c-0.8,0.3-1.1,1.1-0.9,2c0.2,0.8,0.8,1.2,1.6,1.2
							C269.3,185.6,269.7,185.4,270.1,185z"/>
						<path class="st30" d="M256.7,171.8c0.4-0.8,0.9-1.5,1.5-2.1c2.2-2.5,4.9-4,8.1-4.5c5.8-0.8,11,1.9,13.8,6.7
							c0.1,0.2,0.2,0.3-0.2,0.3c-0.5,0-0.9,0.2-1.3,0.5c-0.7,0.8-0.5,2,0.5,2.4c0.3,0.1,0.7,0.2,1,0.3c0.5,0.1,0.7,0.3,0.7,0.7
							c0,0.4-0.3,0.5-0.8,0.6c-0.5,0-1-0.2-1.4-0.5c-0.1-0.1-0.2-0.2-0.3-0.1c-0.1,0.1-0.1,0.2-0.1,0.3c0,0.2,0,0.5,0,0.7
							c0,0,0.1,0.1,0,0.1h-0.1v-0.1c0.1-0.7-0.2-0.6-0.7-0.5s-0.8-0.1-0.8-0.7c0-0.8,0-1.7,0-2.5c0-0.2,0.1-0.3,0.3-0.3
							c0.3,0,0.6,0,0.9,0c0.4,0,0.2-0.3,0.3-0.5c0-0.2,0-0.4-0.3-0.4s-0.6,0-0.9,0c-0.2,0-0.3-0.1-0.3-0.3c0-0.2,0-0.4,0-0.6
							s0.1-0.4-0.1-0.5s-0.5,0-0.8,0c-0.1,0-0.1,0.2-0.1,0.3c0,0.3,0,0.6,0,0.9c0,0.2,0,0.3-0.3,0.3s-0.3,0.1-0.3,0.3
							c0,0.2-0.2,0.5,0.2,0.5c0.3,0,0.3,0.1,0.3,0.3c0,0.7,0,1.4,0,2.1c0,0.5,0.1,1.1,0.5,1.5c-0.5,0-0.9,0-1.3,0
							c0.1-0.3,0.1-0.6,0.1-1c0-0.3-0.2-0.2-0.3-0.1c-0.5,0.3-1,0.5-1.6,0.5c-0.7,0-1.2-0.5-1.3-1.2c0-0.3,0-0.4,0.3-0.4
							c0.8,0,1.7,0,2.5,0c0.3,0,0.4-0.1,0.4-0.4c0-0.7-0.1-1.4-0.6-1.9c-0.8-0.9-2.4-0.8-3.2,0.3c-0.7,0.9-0.9,3.1,0.5,4.1
							c-0.5,0-1,0-1.5,0c0.2-0.3,0.1-0.7,0.1-1c0-0.2-0.2-0.1-0.3,0c-0.5,0.3-1,0.5-1.6,0.5c-0.7,0-1.2-0.5-1.3-1.2
							c0-0.3,0-0.4,0.3-0.4c0.8,0,1.7,0,2.5,0c0.3,0,0.4-0.1,0.4-0.4s0-0.7-0.1-1c-0.2-0.8-0.7-1.4-1.6-1.5s-1.6,0.2-2.1,1
							c-0.7,1-0.7,3.1,0.6,4.1c-0.6,0-1.1,0-1.6,0c-0.8,0-0.8,0-0.6-0.8c0.3-1.2,0.6-2.5,0.9-3.7c0.1-0.3,0.1-0.4-0.3-0.4
							c-0.6,0-0.6,0-0.7,0.6c-0.2,0.9-0.4,1.7-0.5,2.6c0,0.1,0,0.2-0.1,0.2c-0.3-1-0.6-2-0.9-3c-0.1-0.3-0.2-0.4-0.5-0.4
							s-0.4,0.1-0.5,0.4c-0.3,1-0.6,2-0.9,3.2c-0.2-0.7-0.3-1.3-0.4-1.9c-0.1-0.5-0.2-0.9-0.3-1.4c0-0.1,0-0.2-0.2-0.2
							c-0.4,0-0.8-0.2-1.2-0.3C258.5,171.8,257.6,171.7,256.7,171.8L256.7,171.8z"/>
						<path class="st29" d="M443.5,170.6c0.8,0,1.6,0,2.4,0.2c2.5,0.6,4,2.5,4,5.1c0.1,2-0.4,4-0.9,5.9c-0.7,2.5-1.6,5-2.7,7.3
							c-0.1,0.3-0.3,0.4-0.6,0.2c-0.9-0.5-1.8-0.9-2.7-1.3c-0.3-0.1-0.3-0.2-0.2-0.5c1.4-2.7,2.5-5.6,3.3-8.6c0.3-1.3,0.6-2.6,0.5-4
							c0-1.7-1.1-2.8-2.8-2.8c-0.9,0-0.9,0-1.2,0.8c-2.1,5.5-4.7,10.7-8,15.5c-0.3,0.5-0.3,0.5-0.9,0.2c-0.7-0.4-1.3-0.9-2-1.3
							c-0.2-0.1-0.2-0.3-0.1-0.5c2.9-4.3,5.3-8.9,7.3-13.6c0-0.1,0.1-0.2,0.1-0.3c-0.9,0.2-1.7,0.5-2.5,0.8c-1.3,0.5-2.5,1-3.7,1.6
							c-0.2,0.1-0.3,0.2-0.4-0.1c-0.4-1.1-0.4-1.1,0.6-1.7c2-1.1,4.2-1.8,6.5-2.3c0.3-0.1,0.4-0.2,0.5-0.4c0.3-1,0.7-2,1-3.1
							c0.1-0.3,0.2-0.3,0.4-0.2c0.8,0.3,1.6,0.7,2.3,1c0.2,0.1,0.3,0.2,0.2,0.4C443.8,169.5,443.7,170.1,443.5,170.6z"/>
						<path class="st29" d="M535.7,187.7c0.9,0.2,1.7,0.4,2.5,0.5c0.9,0.1,1.3-0.1,1.4-1c0.1-1.3,0.1-2.6,0.1-3.9
							c0-1.5,0-3.1,0.1-4.6c0-0.3-0.1-0.4-0.4-0.4c-0.8,0-1.5,0-2.3,0c-0.2,0-0.3,0-0.4,0.2c0,0.2-0.2,0.1-0.3,0.1c-1,0-1.9,0-2.9,0
							c-0.2,0-0.3-0.1-0.3-0.3c-0.3-2.7-0.3-5.5-0.1-8.2c0.1-0.8,0.1-1.5,0.2-2.3c0-0.2,0.1-0.3,0.3-0.3c1,0,2,0,3,0
							c0.1,0,0.3-0.1,0.3,0.2c0,0.1,0.2,0,0.3,0c1.2-0.3,2.4-0.4,3.6-0.2c1.2,0.2,2.1,1,2.3,2.3c0.2,1.2,0.2,2.4,0.3,3.6
							c0.1,2.3,0.1,4.6,0,6.9c0,2.2,0,4.4-0.2,6.6c0,0.4-0.1,0.7-0.2,1.1c-0.3,1.1-1.1,1.7-2.4,1.8c-1.6,0.1-3.1-0.1-4.7-0.5
							c-0.2-0.1-0.3-0.1-0.3-0.3C535.7,188.5,535.7,188.1,535.7,187.7z M538.2,176.7L538.2,176.7c0.4,0,0.8,0,1.3,0
							c0.2,0,0.3,0,0.3-0.3c0-0.8-0.1-1.6-0.1-2.5c0-0.2-0.1-0.3-0.3-0.3c-0.9-0.1-1.7,0-2.6,0c-0.3,0-0.3,0.1-0.3,0.3
							c0,0.8,0.1,1.6,0.1,2.5c0,0.2,0.1,0.3,0.3,0.3C537.3,176.7,537.8,176.7,538.2,176.7z M538.1,172.2L538.1,172.2
							c0.4,0,0.9,0,1.3,0c0.1,0,0.3,0,0.2-0.2c-0.1-0.7,0-1.4-0.2-2c-0.1-0.4-0.4-0.7-0.8-0.8c-0.6-0.2-1.2-0.1-1.8,0.1
							c-0.1,0-0.2,0.1-0.2,0.2c-0.1,0.8-0.1,1.6-0.2,2.5c0,0.2,0,0.3,0.2,0.2C537.2,172.2,537.6,172.2,538.1,172.2z"/>
						<path class="st29" d="M424.7,172.7c0,2-0.9,3.3-2,4.4c-0.4,0.4-0.8,0.7-1.2,1c-0.2,0.1-0.2,0.2-0.1,0.4
							c0.8,1.1,1.7,2.2,2.6,3.3c0.2,0.2,0.2,0.1,0.3,0c0.7-1.1,1.3-2.2,1.8-3.5c0.1-0.3,0.2-0.3,0.4-0.1c0.2,0.2,0.5,0.3,0.8,0.4
							c0.2,0.1,0.2,0.2,0.2,0.4c-0.6,1.4-1.2,2.7-2.1,3.9c-0.2,0.3-0.2,0.4,0.1,0.6c0.5,0.5,1,1.1,1.5,1.7c0.1,0.1,0.2,0.2,0,0.4
							c-0.7,0.6-1.3,1.2-2,1.9c-0.2,0.2-0.3,0.1-0.4,0c-0.5-0.5-0.9-1.1-1.4-1.6c-0.2-0.2-0.3-0.2-0.5,0c-1.3,1-2.7,1.6-4.4,1.6
							c-3,0-5.3-2.7-4.8-5.6c0.2-1.7,1.2-3,2.4-4c0.2-0.2,0.4-0.3,0.6-0.5c0.2-0.1,0.2-0.3,0.1-0.5c-0.5-0.8-1-1.7-1.2-2.7
							c-0.7-2.7,1-5.1,3.7-5.4c1.5-0.2,2.8,0.1,4,1C424.2,170.6,424.7,171.7,424.7,172.7z M419.2,185.8c0.7,0,1.6-0.5,2.3-1
							c0.5-0.4,0.5-0.4,0.1-0.9c-1-1.3-2-2.5-2.9-3.9c-0.1-0.1-0.1-0.3-0.3-0.2c-1,0.7-1.8,1.5-2,2.8
							C416.1,184.5,417.2,185.8,419.2,185.8z M421.9,172.2c0-0.1,0-0.2,0-0.4c-0.1-0.9-0.8-1.6-1.7-1.7c-1-0.1-1.6,0.3-1.9,1.3
							c-0.1,0.2-0.1,0.5-0.1,0.8c0,1.2,0.5,2.2,1.1,3.1c0.1,0.1,0.2,0.1,0.3,0.1c0.5-0.3,1-0.6,1.4-1
							C421.6,173.8,421.9,173.1,421.9,172.2z"/>
						<path class="st29" d="M323.6,183.8c0,1.1,0.1,2.4-0.1,3.7c-0.1,0.5-0.1,0.9-0.5,1.3c-0.3,0.3-0.8,0.4-1.2,0.4
							c-1.7,0.2-3.4,0.1-5.1-0.1c-0.2,0-0.3-0.1-0.3-0.3c0-0.3,0-0.6,0-0.9c0-0.2,0.1-0.3,0.3-0.2c0.7,0.2,1.4,0.3,2.1,0.2
							c0.6,0,0.8-0.2,0.8-0.8c0.1-0.4,0.1-0.9,0.1-1.3c0-1.8,0-3.6,0-5.4c0-0.3-0.1-0.4-0.4-0.4c-1.3,0.1-2.6,0.1-4,0.1
							c-0.3,0-0.3,0.1-0.2,0.3c0.1,0.9,0.1,0.9-0.7,0.9c-0.8,0-1.7,0-2.5,0c-0.2,0-0.3-0.1-0.3-0.3c-0.3-2.8-0.3-5.6,0-8.3
							c0-0.2,0.1-0.3,0.4-0.3c1,0,2,0,3,0c0.3,0,0.4,0.1,0.3,0.3c0,0.1,0,0.2,0,0.3c-0.1,0.2,0,0.3,0.3,0.2c1.1-0.2,2.2-0.3,3.3-0.5
							c2.5-0.3,5-0.6,7.6-0.5c0.8,0,1.5,0.1,2.2,0.4c1.2,0.5,1.8,1.4,1.9,2.6c0.1,1.1,0,2.1,0,3.2c0,0.2-0.1,0.4,0.3,0.4
							c0.1,0,0.1,0.1,0.1,0.1v0.1c0.1,1.3,0.1,1.3-1.2,1.2c-1.8-0.1-3.5-0.2-5.3-0.2c-0.3,0-0.7-0.2-0.9,0c-0.2,0.2-0.1,0.6-0.1,0.9
							C323.6,181.9,323.6,182.7,323.6,183.8z M321,178.6c1.8,0,3.7,0,5.5,0c0.3,0,0.4-0.1,0.4-0.4c0-0.8,0-1.7,0-2.5
							c0-1.4-0.8-2.1-2.2-2.1c-1.7,0.1-3.5,0.2-5.2,0.4c-1.3,0.2-2.7,0.4-4,0.6c-0.1,0-0.3,0-0.3,0.2c-0.1,1.2-0.1,2.4,0,3.6
							c0,0.2,0.1,0.2,0.3,0.2C317.3,178.6,319.2,178.6,321,178.6z"/>
						<path class="st29" d="M346.7,168.7c0.6,0,1.2,0,1.9,0.1c2.1,0.3,3,1.6,2.7,3.8c-0.3,2.1-1.2,3.8-2.3,5.5
							c-0.3,0.4-0.6,0.8-0.9,1.2c-0.1,0.2-0.2,0.3,0,0.4c2.4,2,4.3,4.4,6,7c0.2,0.2,0.1,0.4-0.1,0.5c-0.7,0.6-1.4,1.2-2.1,1.8
							c-0.2,0.2-0.3,0.2-0.4,0c-1.2-1.9-2.6-3.6-4.1-5.2c-0.5-0.5-1.1-1-1.7-1.6c-0.2-0.2-0.3-0.1-0.4,0c-2.7,2.5-5.8,4.7-9,6.6
							c-0.3,0.2-0.4,0.1-0.6-0.1c-0.4-0.7-0.9-1.5-1.4-2.2c-0.2-0.3-0.1-0.4,0.1-0.5c2.9-1.5,5.6-3.3,8-5.5c2-1.9,3.8-4,5-6.5
							c0.4-0.8,0.7-1.5,0.7-2.4c0-1.1-0.4-1.5-1.5-1.5c-1.2,0-2.5,0.2-3.7,0.4c-2.2,0.4-4.4,0.9-6.4,1.8c-0.6,0.3-0.6,0.3-0.9-0.4
							c-0.3-0.8-0.3-0.8,0.5-1.1C339.5,169.6,343,168.8,346.7,168.7z"/>
						<path class="st29" d="M525.9,183.3c0.1,2.3,0.1,4.2,0.3,6.1c0,0.3-0.1,0.4-0.4,0.4c-0.9,0-1.8,0-2.7,0c-0.4,0-0.5-0.1-0.5-0.5
							c-0.2-2.7-0.3-5.4-0.3-8.1c-0.1-4.1,0-8.2,0.3-12.3c0-0.4,0.1-0.7,0.1-1.1c0-0.2,0.1-0.3,0.3-0.3c1,0,2-0.1,3,0
							c0.9,0.1,1.7-0.1,2.6-0.1c0.6,0.1,1.1,0.1,1.7,0.2c1.3,0.4,2,1.3,2,2.7c0,2.1-0.1,4.2-0.2,6.4c0,0.2-0.1,0.5,0.3,0.5
							c0.1,0,0.1,0.1,0.1,0.2c0,0.3,0,0.6,0,0.9s-0.1,0.3-0.3,0.3c-1,0-2-0.1-3-0.1c-0.9,0-1.9,0-2.8,0c-0.3,0-0.4,0.1-0.4,0.4
							C525.8,180.5,525.8,182.1,525.9,183.3z M528.6,175.4C528.7,175.4,528.7,175.4,528.6,175.4c0-0.5,0-0.9,0-1.4
							c0-0.2,0-0.3-0.3-0.3c-0.8,0-1.5,0-2.3,0c-0.2,0-0.3,0.1-0.3,0.3c0,0.9,0,1.9-0.1,2.8c0,0.2,0,0.2,0.2,0.2
							c0.8-0.1,1.5-0.1,2.3,0c0.2,0,0.2-0.1,0.2-0.3C528.6,176.3,528.6,175.8,528.6,175.4z M526,170.7
							C526,170.7,525.9,170.7,526,170.7c0,0.4,0,0.9,0,1.3c0,0.2,0.1,0.3,0.3,0.3c0.8,0,1.5,0,2.3,0c0.2,0,0.2,0,0.2-0.2
							c0-0.6,0-1.2,0-1.8c0-0.6-0.3-1-0.9-1.2c-0.5-0.2-1-0.2-1.5-0.1c-0.2,0-0.3,0.1-0.3,0.3C526,169.7,526,170.2,526,170.7z"/>
						<path class="st29" d="M550.2,172.2c-1-1.5-1.1-3-0.1-3.8s2.6-0.8,3.6,0c0.9,0.8,1,2.3,0.3,3.3
							C553,172.8,551.7,173,550.2,172.2c0.1,0.1,0,0.2,0,0.2c-0.2,1-0.2,1,0.8,0.8c2.9-0.5,5.8-1,8.7-1.1c1,0,1.6-0.3,2.1-1.1
							c0.7-1.1,1.5-2.1,2.1-3.3c0.1-0.3,0.2-0.3,0.5-0.2c1,0.4,2,0.9,3.1,1.3c0.3,0.1,0.3,0.2,0.1,0.4c-0.7,1.1-1.5,2.1-2.5,3
							c0.5,0.1,1,0.2,1.5,0.4c1.2,0.5,1.9,1.5,1.9,2.9c0,1.2-0.2,2.5-0.4,3.7c0,0.2-0.1,0.3-0.4,0.3c-1.1,0-2.2,0-3.3,0
							c-0.3,0-0.3-0.1-0.3-0.3c0.3-1.1,0.4-2.2,0.5-3.4c0.1-1.2-0.4-1.8-1.5-2.1c-1.4-0.3-2.9-0.3-4.3-0.2c-2.9,0.2-5.7,0.7-8.5,1.2
							c-0.3,0.1-0.3,0.2-0.3,0.4c-0.1,1.5,0.1,3.1,0.4,4.6c-1.2,0-2.3,0-3.4,0c-0.2,0-0.2-0.1-0.2-0.2c-0.4-2.4-0.4-4.7,0-7.1
							c0-0.3,0.2-0.2,0.4-0.2C548,172.2,549.1,172.2,550.2,172.2z"/>
						<path class="st29" d="M551.2,178.6c0-0.5-0.2-1.1,0-1.4s0.8-0.4,1.2-0.5c2.4-0.8,4.7-1.4,7.3-1.2c0.8,0,1.6,0.1,2.4,0.3
							c1.1,0.3,1.7,1.1,1.7,2.1c0,0.5-0.3,0.8-0.5,1.1c-0.7,0.9-1.6,1.7-2.4,2.5c-0.1,0.1-0.1,0.1-0.2,0.2c-0.2,0.1-0.1,0.3-0.1,0.4
							c0,0.2,0.2,0.1,0.3,0.1c2.3,0,4.7,0.1,7,0.2c0.3,0,0.4,0.1,0.3,0.4c0,0.3,0,0.5,0,0.8s-0.1,0.3-0.4,0.3
							c-2.2-0.1-4.5-0.2-6.7-0.2c-0.4,0-0.4,0.1-0.4,0.4c0.1,1.3,0,2.6-0.2,3.8c-0.1,0.6-0.5,1-1.1,1.2c-1.3,0.4-2.7,0.3-4.1,0.3
							c-1.3,0-2.6-0.2-3.9-0.4c-0.3,0-0.4-0.1-0.3-0.4c0-0.2,0-0.5,0-0.7c0-0.3,0.1-0.4,0.4-0.3c1.3,0.2,2.6,0.4,3.9,0.4
							c0.2,0,0.4,0,0.6,0c0.4-0.1,0.6-0.3,0.7-0.7c0.1-1.1,0.1-2.2,0.1-3.3c0-0.2,0-0.2-0.3-0.2c-3.1,0-6.1,0.1-9.2,0.3
							c-0.2,0-0.4,0-0.3-0.3c0-0.4-0.1-0.8,0.1-1.1c0.2-0.2,0.7-0.1,1-0.1c2.7-0.1,5.4-0.2,8.2-0.2c0.3,0,0.4,0,0.4-0.4
							c-0.1-0.7-0.2-1.4-0.3-2.1c0-0.2,0-0.3,0.2-0.3l0,0c1.3,0.3,2.2-0.3,3-1.2c0.2-0.2,0.4-0.5,0.6-0.7s0.1-0.4-0.1-0.4
							c-0.2-0.1-0.3-0.1-0.5-0.1c-1.5-0.3-3,0-4.5,0.4c-1.2,0.3-2.4,0.7-3.5,1.1C551.4,178.5,551.3,178.5,551.2,178.6z"/>
						<path class="st29" d="M466.6,168.5c0.7,0,1.6,0.1,2.5,0.3c2.3,0.7,3.4,2.4,3.3,4.8c-0.2,2.9-1.4,5.3-3,7.5
							c-1.9,2.7-4.3,4.9-6.9,7c-0.3,0.2-0.5,0.4-0.8,0.6c-0.2,0.1-0.3,0.1-0.4,0c-0.7-0.8-1.3-1.6-2-2.4c-0.2-0.2,0-0.3,0.1-0.4
							c1.7-1.3,3.3-2.6,4.8-4.1c1.5-1.6,2.9-3.2,3.8-5.2c0.6-1.4,1-2.8,0.7-4.3c-0.2-1.4-1.3-2.3-2.7-2.3c-1.7,0-3.2,0.4-4.8,0.7
							c-2.1,0.5-4.2,1.1-6.1,2.1c-0.2,0.1-0.2,0.1-0.3-0.1c-0.1-0.3-0.2-0.7-0.4-1c-0.1-0.2,0-0.2,0.1-0.3c2.6-1.2,5.3-2.2,8.1-2.7
							C464,168.6,465.2,168.5,466.6,168.5z"/>
						<path class="st29" d="M483.7,188c-1.7,0-4.2,0.1-6.8,0.2c-0.3,0-0.4,0-0.3-0.3c0-0.3,0-0.6,0-0.9s0.1-0.3,0.3-0.3
							c1.8,0,3.6-0.1,5.4-0.2c0.7,0,0.7,0,0.7-0.7c0-3.7,0-7.5,0-11.2c0-0.3,0-0.5-0.4-0.5c-1.5,0-2.9-0.1-4.4-0.3
							c-0.4,0-0.5-0.1-0.5-0.6c0.1-0.9,0-0.9,0.9-0.8c3,0.3,5.9,0.3,8.9,0.2c1.1,0,2.2-0.1,3.3-0.2c0.2,0,0.2,0,0.2,0.2
							c0,0.4,0,0.7,0,1.1c0,0.2-0.1,0.2-0.3,0.2c-1.4,0.2-2.8,0.2-4.2,0.2c-0.3,0-0.5,0.1-0.5,0.4c0,3.8,0,7.6,0,11.4
							c0,0.3,0.1,0.5,0.4,0.5c1.9,0,3.8,0.1,5.7,0.2c0.3,0,0.4,0.1,0.3,0.4c0,0.4,0.1,0.8-0.1,1.1c-0.2,0.2-0.7,0-1,0
							C489.2,188.1,486.9,188,483.7,188z"/>
						<path class="st29" d="M362.9,176.3c-1.5,0.9-2.9,1.8-4.4,2.7c-0.9,0.5-1.8,0.9-2.6,1.4c-0.2,0.1-0.3,0.1-0.4-0.1
							c-0.1-0.4-0.5-0.8-0.3-1.1c0.1-0.3,0.6-0.4,1-0.5c5.3-2.7,10.1-6.1,14.7-9.9c0.3-0.2,0.5-0.4,0.7-0.7c0.1-0.1,0.2-0.2,0.4,0
							c0.7,1,0.7,0.9-0.2,1.7c-1.7,1.5-3.4,2.8-5.2,4.1c-0.2,0.2-0.3,0.3-0.3,0.6c0,4.7,0,9.5,0,14.2c0,0.3-0.1,0.4-0.4,0.4
							c-0.8,0-1.6,0-2.4,0c-0.3,0-0.4-0.1-0.4-0.4c0-4,0-8,0-12.1C362.9,176.5,362.9,176.5,362.9,176.3z"/>
						<path class="st29" d="M412.3,170.2c-0.3,1.8-0.7,3.5-1.3,5.2c-0.7,2.2-1.6,4.3-2.9,6.3c-1.4,2-3.3,3.5-5.4,4.8
							c-1.6,1-3.2,1.8-4.9,2.5c-0.3,0.1-0.4,0.1-0.5-0.2c-0.1-0.4-0.4-0.8-0.3-1.1c0.1-0.3,0.6-0.4,1-0.5c2-1,3.9-2.1,5.4-3.8
							c1.8-1.9,2.8-4.2,3.6-6.6c0.7-2.4,1.2-4.9,1.6-7.4c0-0.3,0.1-0.3,0.4-0.3c1,0.3,2,0.5,3.1,0.8
							C412.2,170,412.4,170,412.3,170.2z"/>
						<path class="st29" d="M385.3,179.5c-3.2-0.1-6.5-0.1-9.7,0.1c-0.7,0-1.3,0.1-2,0.2c-0.2,0-0.3,0-0.3-0.3c0-0.8,0-1.6,0-2.4
							c0-0.3,0.1-0.4,0.4-0.4c1.4-0.1,2.8-0.1,4.1-0.2c2.6-0.1,5.1-0.1,7.7-0.1c2.1,0,4.1,0.1,6.2,0.2c0.3,0,0.4,0.1,0.4,0.4
							c0,0.8,0,1.6,0,2.4c0,0.2,0,0.3-0.3,0.3c-1.8-0.2-3.6-0.2-5.5-0.3C386,179.5,385.7,179.5,385.3,179.5z"/>
						<path class="st29" d="M321.4,170.4c-3.4,0-6.9,0.1-10.4,0.3c-0.2,0-0.3,0-0.3-0.3c0-0.4-0.1-0.8,0.1-1.1
							c0.2-0.2,0.7-0.1,1-0.1c2.5-0.1,4.9-0.2,7.4-0.2c0.4,0,0.4-0.1,0.4-0.4s0-0.6,0-1c0-0.2,0.1-0.3,0.3-0.3c1.2,0,2.3,0,3.5,0
							c0.2,0,0.3,0.1,0.3,0.3c0,0.4,0,0.7,0,1.1c0,0.2,0,0.3,0.3,0.3c2.4,0,4.7,0.1,7.1,0.2c0.4,0,0.9,0.1,1.3,0.1
							c0.2,0,0.3,0.1,0.2,0.2l0,0c0,0.4,0.1,0.8,0,1.1c-0.2,0.3-0.7,0.1-1,0C328.1,170.4,324.8,170.4,321.4,170.4z"/>
						<path class="st29" d="M395.9,169.2c0.2,0,0.2,0.2,0.2,0.3c0.8,1.9,1.6,3.8,2.3,5.7c0.4,1.3,0.9,2.5,1.2,3.8
							c0.1,0.3,0,0.4-0.2,0.5c-0.8,0.3-1.6,0.6-2.3,0.9c-0.2,0.1-0.3,0.1-0.4-0.2c-0.9-3.2-2-6.4-3.4-9.4c-0.1-0.2,0-0.3,0.1-0.3
							c0.8-0.4,1.6-0.8,2.4-1.2C395.8,169.3,395.8,169.3,395.9,169.2z"/>
						<path class="st29" d="M404.9,177.2c0,0.1-0.1,0.1-0.2,0.2c-0.8,0.3-1.7,0.7-2.5,1c-0.3,0.1-0.2-0.1-0.3-0.2
							c-0.4-1.6-0.9-3.2-1.5-4.7c-0.5-1.3-1-2.7-1.6-4c-0.1-0.3-0.1-0.4,0.2-0.5c0.8-0.3,1.5-0.6,2.3-0.9c0.2-0.1,0.3-0.1,0.4,0.1
							c1.2,2.9,2.3,5.8,3.1,8.8C404.9,177.1,404.9,177.1,404.9,177.2z"/>
						<path class="st29" d="M588.5,168.4c0,0.4-0.1,0.8,0,1.1c0.2,0.2,0.7,0.1,1,0.1c1,0.1,1.9,0.2,2.9,0.2c0.2,0,0.3,0.1,0.3,0.3
							c0,0.3,0,0.5,0,0.8s-0.1,0.4-0.4,0.3c-2-0.2-4-0.3-6-0.3c-1.8,0-3.6,0.1-5.4,0.3c-0.4,0-0.5-0.1-0.4-0.4c0-1,0-1,1-1.1
							c0.9-0.1,1.8-0.1,2.7-0.2c0.2,0,0.3-0.1,0.3-0.3c0-0.6,0-1.2,0-1.7c0-0.2,0.1-0.3,0.3-0.3c1.1,0,2.2,0,3.3,0
							c0.2,0,0.3,0.1,0.3,0.3C588.4,167.8,588.5,168.1,588.5,168.4L588.5,168.4z"/>
						<path class="st29" d="M317.5,182.8c0,0.1-0.1,0.1-0.1,0.2c-1,2.1-2.3,4.1-3.9,5.9c-0.1,0.2-0.2,0.2-0.4,0.1
							c-0.8-0.4-1.7-0.8-2.5-1.2c-0.2-0.1-0.3-0.2-0.1-0.4c1.5-1.7,2.8-3.5,3.9-5.5c0.1-0.2,0.2-0.3,0.4-0.2
							c0.8,0.3,1.7,0.6,2.5,0.8C317.4,182.7,317.5,182.6,317.5,182.8z"/>
						<path class="st29" d="M328.7,181.6c0.1,0,0.2,0.1,0.2,0.2c1,1.9,2.2,3.8,3.4,5.6c0.1,0.2,0.1,0.2-0.1,0.4
							c-0.8,0.4-1.7,0.8-2.5,1.3c-0.3,0.1-0.3,0-0.4-0.2c-1-1.6-2-3.2-2.9-4.9c-0.2-0.3-0.3-0.7-0.5-1c-0.1-0.1-0.1-0.2,0.1-0.2
							C326.9,182.4,327.8,182,328.7,181.6L328.7,181.6z"/>
						<path class="st29" d="M505.8,187c0,1.4-1.1,2.5-2.5,2.5s-2.5-1.1-2.5-2.5c0-1.5,1-2.5,2.5-2.5
							C504.9,184.5,505.8,185.5,505.8,187z"/>
						<path class="st29" d="M558.4,167.2c1.5,0,2.4,0.9,2.4,2.4c0,1.3-1.1,2.5-2.4,2.5s-2.4-1.2-2.4-2.5
							C556,168.1,556.9,167.2,558.4,167.2z"/>
						<path class="st30" d="M254.9,177.6c0.7,0.8,1.6,1,2.5,1.3c0.3,0.1,0.6,0.2,0.9,0.3c1,0.3,1.4,1,1.3,2.1
							c-0.1,1-0.7,1.6-1.6,1.8c-0.4,0.1-0.8,0.1-1.2,0c-1.1-0.2-1.3-0.4-1.6-1.5c-0.1-0.6-0.2-1.2-0.3-1.8
							C254.9,179.1,254.9,178.4,254.9,177.6z"/>
						<path class="st30" d="M257.8,173.2c0.7,0,1.4,0.3,2.1,0.7c0.1,0.1,0.2,0.2,0.2,0.3c0.2,0.9,0.4,1.8,0.7,2.8
							c0,0.2,0.1,0.3-0.2,0.2c-0.5-0.1-0.5,0.2-0.5,0.6s0,0.4-0.4,0.2c-0.7-0.4-1.4-0.5-2.2-0.8c-0.1,0-0.2-0.1-0.3-0.1
							c-1.2-0.4-1.7-1.2-1.5-2.5C255.8,173.8,256.6,173.2,257.8,173.2z"/>
						<path class="st30" d="M262.8,173.8c0.3,1.1,0.7,2.2,1,3.2c0,0.1,0,0.2-0.1,0.2c-0.6,0-1.1,0-1.7,0c-0.2,0-0.2-0.1-0.1-0.2
							C262.1,176,262.5,175,262.8,173.8z"/>
						<path class="st30" d="M272.9,174.3c-0.3,0-0.6,0-0.9,0c-0.2,0-0.2-0.1-0.2-0.3c0.1-0.5,0.6-0.9,1.1-0.9c0.7,0,1,0.3,1.1,0.9
							c0,0.2,0,0.4-0.3,0.3C273.5,174.3,273.2,174.3,272.9,174.3z"/>
						<path class="st30" d="M268.3,174.3c-0.3,0-0.6,0-0.9,0c-0.2,0-0.3-0.1-0.2-0.3c0.1-0.5,0.6-0.9,1.2-0.9s1,0.3,1.1,0.9
							c0,0.2,0,0.3-0.2,0.3C268.9,174.3,268.6,174.3,268.3,174.3z"/>
						<path class="st30" d="M276.6,182.3c-0.3,0-0.6,0-0.9,0c-0.2,0-0.2-0.1-0.2-0.2c0.1-0.5,0.6-0.9,1.2-0.9s0.9,0.3,1,0.9
							c0,0.2,0,0.3-0.3,0.3C277.2,182.2,276.9,182.3,276.6,182.3z"/>
						<path class="st30" d="M281.3,174.7c-0.5-0.2-1.1-0.3-1.6-0.5c-0.3-0.1-0.5-0.3-0.5-0.6c0-0.3,0.2-0.5,0.5-0.5
							c0.6-0.2,1,0,1.2,0.6C281.1,174,281.2,174.3,281.3,174.7z"/>
						<path class="st30" d="M256.7,171.9L256.7,171.9L256.7,171.9C256.7,171.8,256.7,171.9,256.7,171.9z"/>
						<path class="st28" d="M292.6,181.3c-0.7,0-1.4,0.1-2.1,0.1c-0.2,0-0.3,0-0.3-0.3c0-0.8,0-1.6-0.1-2.5c0-0.3,0.2-0.3,0.4-0.3
							c1.1,0,2.3-0.1,3.4-0.1c0.1,0,0.1,0,0.2,0c0.9,0,0.9,0,0.9,0.8c0,0.6,0,1.3,0,1.9c0,0.2-0.1,0.3-0.3,0.3
							C294,181.2,293.3,181.2,292.6,181.3C292.6,181.2,292.6,181.2,292.6,181.3z"/>
						<path class="st28" d="M301.3,178.2c0.7,0,1.3,0.1,2,0.1c0.2,0,0.2,0,0.2,0.2c-0.1,0.8-0.1,1.7-0.2,2.5c0,0.2-0.1,0.2-0.3,0.2
							c-1.3,0-2.6,0-3.9-0.1c-0.2,0-0.2-0.1-0.2-0.2c0-0.9,0-1.7,0-2.6c0-0.2,0.1-0.2,0.3-0.2C299.9,178.1,300.6,178.1,301.3,178.2
							C301.3,178.1,301.3,178.2,301.3,178.2z"/>
						<path class="st28" d="M301.2,176.7c-0.7,0-1.3,0-2,0c-0.2,0-0.2-0.1-0.2-0.3c0-0.8,0-1.6,0-2.4c0-0.2,0-0.3,0.2-0.3
							c0.8,0,1.5-0.1,2.3,0c0.9,0.1,1.5,0.5,1.7,1.4c0.1,0.5,0.2,0.9,0.2,1.4c0,0.2,0,0.3-0.3,0.3c-0.7,0-1.3,0-2,0
							C301.2,176.7,301.2,176.7,301.2,176.7z"/>
						<path class="st28" d="M292.6,176.7c-0.7,0-1.4,0.1-2.1,0.1c-0.2,0-0.3,0-0.3-0.2c0-0.5,0.1-1.1,0.1-1.6c0-0.2,0.1-0.3,0.3-0.4
							c1.4-0.2,2.8-0.4,4.1-0.5c0.2,0,0.3,0,0.3,0.2c0,0.7,0,1.4,0,2.1c0,0.2-0.1,0.3-0.2,0.3C294,176.7,293.3,176.7,292.6,176.7
							L292.6,176.7z"/>
						<path class="st28" d="M574.9,176.7c0.1-1.5,0.1-3,0.2-4.4c0-0.2,0.1-0.3,0.3-0.3c0.2,0,0.2,0.1,0.2,0.3c0,1.2,0,2.4,0,3.6
							C575.6,176.3,575.2,176.4,574.9,176.7z"/>
						<path class="st28" d="M589,176.7C589,176.7,589,176.8,589,176.7C588.9,176.8,588.9,176.8,589,176.7
							C588.9,176.7,588.9,176.7,589,176.7z"/>
						<path class="st28" d="M583.4,177.4C583.3,177.4,583.3,177.5,583.4,177.4C583.2,177.4,583.3,177.4,583.4,177.4
							C583.3,177.4,583.3,177.4,583.4,177.4z"/>
						<path class="st28" d="M506.5,178.1c0,0.3,0.2,0.7-0.1,0.9c-0.2,0.2-0.6,0-0.9,0.1c-1.1,0-2.2,0.1-3.2,0.1
							c-0.3,0-0.3-0.1-0.4-0.3c0-0.5-0.1-1-0.1-1.5c0-0.2,0-0.2,0.2-0.2c1.4,0,2.9-0.1,4.3-0.2c0.2,0,0.2,0.1,0.2,0.2
							C506.5,177.5,506.5,177.8,506.5,178.1z"/>
						<path class="st28" d="M512.3,175.5c-0.6,0-1.1,0-1.7,0c-0.2,0-0.3,0-0.3-0.2c0-0.6,0-1.2,0-1.8c0-0.2,0-0.3,0.2-0.3
							c0.9,0,1.8-0.1,2.6,0c0.7,0,1,0.4,1,1.1c0,0.4,0,0.8,0,1.2c0,0.2,0,0.2-0.2,0.2C513.5,175.6,512.9,175.6,512.3,175.5
							L512.3,175.5z"/>
						<path class="st28" d="M504.1,175.6c-0.7,0-1.3,0.1-2,0.1c-0.2,0-0.3,0-0.3-0.3s0.1-0.6,0.1-1s0.1-0.5,0.5-0.5
							c1.3-0.1,2.5-0.3,3.8-0.4c0.3,0,0.4,0.1,0.4,0.3c0,0.5,0,0.9,0,1.4c0,0.2-0.1,0.3-0.3,0.3
							C505.5,175.5,504.8,175.5,504.1,175.6C504.1,175.5,504.1,175.6,504.1,175.6z"/>
						<path class="st28" d="M512.3,179.1c-0.6,0-1.1,0-1.7,0c-0.2,0-0.3-0.1-0.3-0.3c0-0.5,0-1,0-1.5c0-0.2,0-0.3,0.3-0.3
							c1.1,0,2.2,0.1,3.3,0.1c0.3,0,0.4,0.1,0.4,0.4c0,0.4,0,0.9,0,1.3c0,0.3-0.1,0.3-0.3,0.3C513.4,179.1,512.8,179.1,512.3,179.1
							L512.3,179.1z"/>
						<path class="st28" d="M270.1,185c-0.4,0.3-0.8,0.5-1.3,0.5c-0.8,0-1.4-0.4-1.6-1.2c-0.2-0.9,0.1-1.6,0.9-2
							c0.5-0.2,1-0.3,1.5-0.3c0.2,0,0.5,0.2,0.5-0.2c0-0.3-0.2-0.6-0.5-0.7c-0.4-0.1-0.8-0.1-1.2,0c-0.2,0-0.4,0.1-0.6,0.2
							s-0.3,0-0.3-0.2c0-0.8-0.1-0.7,0.7-0.8c0.5-0.1,1-0.1,1.5-0.1c0.9,0.2,1.4,0.7,1.4,1.6c0,1.1,0,2.2,0,3.3
							c0,0.3-0.1,0.4-0.3,0.3C270.5,185.4,270.1,185.7,270.1,185z M270.1,183.5c0-0.1,0-0.3,0-0.4s0-0.2-0.2-0.2
							c-0.5,0.1-0.9,0.1-1.4,0.3c-0.4,0.2-0.5,0.5-0.4,1c0.1,0.4,0.4,0.5,0.8,0.5C269.7,184.7,270.1,184.2,270.1,183.5z"/>
						<path class="st28" d="M538.2,176.7c-0.4,0-0.9,0-1.3,0c-0.2,0-0.3,0-0.3-0.3c0-0.8-0.1-1.6-0.1-2.5c0-0.2,0.1-0.3,0.3-0.3
							c0.9,0,1.7-0.1,2.6,0c0.2,0,0.3,0.1,0.3,0.3c0,0.8,0,1.6,0.1,2.5c0,0.3-0.1,0.3-0.3,0.3C539,176.7,538.6,176.7,538.2,176.7
							L538.2,176.7z"/>
						<path class="st28" d="M538.1,172.2c-0.4,0-0.9,0-1.3,0c-0.2,0-0.3-0.1-0.2-0.2c0.1-0.8,0.1-1.6,0.2-2.5c0-0.1,0.1-0.2,0.2-0.2
							c0.6-0.2,1.2-0.2,1.8-0.1c0.4,0.1,0.7,0.4,0.8,0.8c0.2,0.7,0.1,1.4,0.2,2c0,0.2-0.1,0.2-0.2,0.2
							C539,172.2,538.5,172.2,538.1,172.2L538.1,172.2z"/>
						<path class="st28" d="M419.2,185.8c-2,0-3-1.3-2.8-3.1c0.2-1.3,1-2.1,2-2.8c0.2-0.2,0.2,0.1,0.3,0.2c0.9,1.3,1.9,2.6,2.9,3.9
							c0.4,0.5,0.4,0.5-0.1,0.9C420.7,185.4,419.9,185.8,419.2,185.8z"/>
						<path class="st28" d="M421.9,172.2c0,0.8-0.3,1.5-0.9,2.1c-0.4,0.4-0.9,0.7-1.4,1c-0.1,0.1-0.2,0.1-0.3-0.1
							c-0.5-1-1.1-2-1.1-3.1c0-0.3,0-0.5,0.1-0.8c0.3-1,0.9-1.4,1.9-1.3c0.9,0.1,1.6,0.8,1.7,1.7C421.9,172,421.9,172.1,421.9,172.2
							z"/>
						<path class="st28" d="M321,178.6c-1.9,0-3.7,0-5.6,0.1c-0.2,0-0.3,0-0.3-0.2c-0.1-1.2,0-2.4,0-3.6c0-0.2,0.1-0.2,0.3-0.2
							c1.3-0.2,2.7-0.4,4-0.6c1.7-0.2,3.5-0.4,5.2-0.4c1.4-0.1,2.2,0.6,2.2,2.1c0,0.8,0,1.7,0,2.5c0,0.3,0,0.4-0.4,0.4
							C324.7,178.6,322.9,178.6,321,178.6z"/>
						<path class="st28" d="M528.6,175.4c0,0.4-0.1,0.9-0.1,1.3c0,0.2,0,0.3-0.2,0.3c-0.8,0-1.5,0-2.3,0c-0.2,0-0.2-0.1-0.2-0.2
							c0-0.9,0.1-1.9,0.1-2.8c0-0.2,0.1-0.2,0.3-0.3c0.8,0,1.5,0,2.3,0c0.2,0,0.3,0.1,0.3,0.3C528.7,174.5,528.7,174.9,528.6,175.4
							C528.7,175.4,528.7,175.4,528.6,175.4z"/>
						<path class="st28" d="M526,170.7c0-0.5,0.1-0.9,0.1-1.4c0-0.2,0.1-0.3,0.3-0.3c0.5-0.1,1-0.1,1.5,0.1c0.6,0.2,0.9,0.6,0.9,1.2
							s0,1.2,0,1.8c0,0.2-0.1,0.2-0.2,0.2c-0.8,0-1.5,0-2.3,0c-0.2,0-0.3,0-0.3-0.3C525.9,171.6,525.9,171.1,526,170.7
							C525.9,170.7,526,170.7,526,170.7z"/>
						<path class="st30" d="M270.1,183.5c0,0.7-0.4,1.2-1.2,1.2c-0.3,0-0.7-0.1-0.8-0.5c-0.1-0.5,0-0.8,0.4-1s0.9-0.2,1.4-0.3
							c0.1,0,0.2,0.1,0.2,0.2C270.1,183.2,270.1,183.4,270.1,183.5z"/>
					</g>
				</g>
			</g>
		</g>
	</g>
</g>
</svg>
