<svg id="レイヤー_1" data-name="レイヤー 1" xmlns="http://www.w3.org/2000/svg" viewBox="0 0 1169.08 311.5"><defs><style>.cls-1{fill:#41a863;}.cls-2{fill:#ffda00;}.cls-3{fill:#8e6643;}.cls-4{fill:#006738;}.cls-5{fill:#00512a;}.cls-6{fill:#017d3e;}.cls-7{fill:#019444;}.cls-8{fill:#3ea347;}.cls-9{fill:#43be54;}.cls-10{fill:#6cb32f;}.cls-11{fill:#99ce3e;}</style></defs><path class="cls-1" d="M1.7,290.28S248.13,129.26,725.58,177c0,0-162-178.81-314.56-37.45,0,0-104.85-131.06-256.51-92.68,0,0-102.47-64.59-152.81-42.12Z"/><path class="cls-1" d="M739.31,175.44s308.12,25,431.48,136.06V80s-44.41-2.49-75.68,17.48-61.22,3.74-73.7,3.12-83-4.37-115.47,75.52C905.94,176.07,813,131.75,739.31,175.44Z"/><ellipse class="cls-2" cx="963.68" cy="168.26" rx="4.68" ry="6.09"/><circle class="cls-2" cx="1136.89" cy="159.46" r="6.09"/><circle class="cls-2" cx="1068.86" cy="170.39" r="4.44"/><circle class="cls-2" cx="1050.14" cy="131.38" r="4.44"/><circle class="cls-2" cx="1117.07" cy="123.47" r="4.44"/><circle class="cls-2" cx="1118.94" cy="187.74" r="4.44"/><circle class="cls-2" cx="1166.72" cy="197.42" r="4.44"/><circle class="cls-2" cx="1117.07" cy="230.81" r="4.44"/><circle class="cls-2" cx="1162.28" cy="259.2" r="4.44"/><circle class="cls-2" cx="1076.96" cy="222.25" r="4.44"/><circle class="cls-2" cx="1004.17" cy="187.74" r="4.44"/><circle class="cls-2" cx="1043.75" cy="205.53" r="4.44"/><circle class="cls-2" cx="1031.03" cy="163.28" r="6.34"/><circle class="cls-2" cx="992.55" cy="140.59" r="6.15"/><circle class="cls-2" cx="880.54" cy="183.05" r="4.57"/><circle class="cls-2" cx="819.69" cy="174.35" r="4.57"/><circle class="cls-2" cx="586.24" cy="142.36" r="4.57"/><circle class="cls-2" cx="538.37" cy="116.77" r="5.45"/><circle class="cls-2" cx="481.45" cy="145.14" r="5.45"/><circle class="cls-2" cx="235.24" cy="101.61" r="5.45"/><circle class="cls-2" cx="227.75" cy="158.71" r="5.45"/><circle class="cls-2" cx="173.46" cy="131.86" r="5.45"/><circle class="cls-2" cx="34" cy="50.62" r="5.45"/><circle class="cls-2" cx="154.73" cy="82.88" r="5.45"/><circle class="cls-2" cx="108.9" cy="188.2" r="7.03"/><circle class="cls-2" cx="31.2" cy="158.71" r="7.03"/><circle class="cls-2" cx="34" cy="238.29" r="7.03"/><circle class="cls-2" cx="79.74" cy="108.89" r="8.96"/><circle class="cls-2" cx="299.12" cy="131.86" r="7.22"/><rect class="cls-3" x="529.89" y="71.98" width="6.27" height="13.77"/><path class="cls-4" d="M549.35,64.31H516.7a3.84,3.84,0,0,0,0,7.67h32.65a3.84,3.84,0,0,0,0-7.67Z"/><path class="cls-5" d="M551.09,72.07H515a3.84,3.84,0,0,0,0,7.67h36.13a3.84,3.84,0,0,0,0-7.67Z"/><path class="cls-6" d="M546.75,56.64H519.3a3.84,3.84,0,0,0,0,7.67h27.45a3.84,3.84,0,0,0,0-7.67Z"/><path class="cls-7" d="M544.15,49H521.9a3.84,3.84,0,0,0,0,7.67h22.25a3.84,3.84,0,0,0,0-7.67Z"/><path class="cls-8" d="M541.55,41.3h-17a3.84,3.84,0,0,0,0,7.67h17a3.84,3.84,0,0,0,0-7.67Z"/><path class="cls-9" d="M539,33.63H527.1a3.84,3.84,0,0,0,0,7.67H539a3.84,3.84,0,0,0,0-7.67Z"/><path class="cls-10" d="M536.35,26H529.7a3.84,3.84,0,0,0,0,7.67h6.65a3.84,3.84,0,0,0,0-7.67Z"/><path class="cls-11" d="M534.62,18.28h-3.19a3.84,3.84,0,0,0,0,7.68h3.19a3.84,3.84,0,0,0,0-7.68Z"/><rect class="cls-3" x="460.23" y="88.33" width="7.54" height="16.56"/><path class="cls-4" d="M483.64,79.1H444.36a4.62,4.62,0,0,0,0,9.23h39.28a4.62,4.62,0,0,0,0-9.23Z"/><path class="cls-5" d="M485.73,88.43H442.27a4.62,4.62,0,0,0,0,9.23h43.46a4.62,4.62,0,0,0,0-9.23Z"/><path class="cls-6" d="M480.51,69.88h-33a4.61,4.61,0,0,0,0,9.22h33a4.61,4.61,0,1,0,0-9.22Z"/><path class="cls-7" d="M477.39,60.65H450.62a4.62,4.62,0,0,0,0,9.23h26.77a4.62,4.62,0,0,0,0-9.23Z"/><path class="cls-8" d="M474.26,51.42H453.74a4.62,4.62,0,0,0,0,9.23h20.52a4.62,4.62,0,0,0,0-9.23Z"/><path class="cls-9" d="M471.13,42.19H456.87a4.62,4.62,0,0,0,0,9.23h14.26a4.62,4.62,0,0,0,0-9.23Z"/><path class="cls-10" d="M468,33h-8a4.62,4.62,0,0,0,0,9.23h8A4.62,4.62,0,0,0,468,33Z"/><path class="cls-11" d="M465.92,23.73h-3.84a4.62,4.62,0,0,0,0,9.23h3.84a4.62,4.62,0,0,0,0-9.23Z"/><rect class="cls-3" x="982.8" y="88.03" width="6.97" height="15.3"/><path class="cls-4" d="M1004.42,79.5H968.14a4.27,4.27,0,0,0,0,8.53h36.28a4.27,4.27,0,0,0,0-8.53Z"/><path class="cls-5" d="M1006.36,88.12H966.21a4.27,4.27,0,0,0,0,8.53h40.15a4.27,4.27,0,0,0,0-8.53Z"/><path class="cls-6" d="M1001.54,71H971a4.26,4.26,0,0,0,0,8.52h30.51a4.26,4.26,0,0,0,0-8.52Z"/><path class="cls-7" d="M998.65,62.46H973.92a4.26,4.26,0,1,0,0,8.52h24.73a4.26,4.26,0,0,0,0-8.52Z"/><path class="cls-8" d="M995.76,53.93h-19a4.27,4.27,0,0,0,0,8.53h19a4.27,4.27,0,0,0,0-8.53Z"/><path class="cls-9" d="M992.87,45.41H979.7a4.26,4.26,0,1,0,0,8.52h13.17a4.26,4.26,0,0,0,0-8.52Z"/><path class="cls-10" d="M990,36.89h-7.39a4.26,4.26,0,1,0,0,8.52H990a4.26,4.26,0,0,0,0-8.52Z"/><path class="cls-11" d="M988.06,28.36h-3.55a4.27,4.27,0,0,0,0,8.53h3.55a4.27,4.27,0,0,0,0-8.53Z"/><rect class="cls-3" x="153.17" y="160.08" width="14.67" height="32.19"/><path class="cls-4" d="M198.68,142.14H122.32a9,9,0,0,0,0,17.94h76.36a9,9,0,0,0,0-17.94Z"/><path class="cls-5" d="M202.75,160.27h-84.5a9,9,0,0,0,0,17.94h84.5a9,9,0,0,0,0-17.94Z"/><path class="cls-6" d="M192.6,124.2H128.4a9,9,0,0,0,0,17.94h64.2a9,9,0,0,0,0-17.94Z"/><path class="cls-7" d="M186.52,106.26h-52a9,9,0,0,0,0,17.94h52a9,9,0,0,0,0-17.94Z"/><path class="cls-8" d="M180.44,88.32H140.56a9,9,0,0,0,0,17.94h39.88a9,9,0,0,0,0-17.94Z"/><path class="cls-9" d="M174.37,70.38H146.64a9,9,0,0,0,0,17.94h27.73a9,9,0,0,0,0-17.94Z"/><path class="cls-10" d="M168.29,52.44H152.72a9,9,0,0,0,0,17.94h15.57a9,9,0,0,0,0-17.94Z"/><path class="cls-11" d="M164.23,34.5h-7.46a9,9,0,0,0,0,17.94h7.46a9,9,0,0,0,0-17.94Z"/><rect class="cls-3" x="1048.7" y="174.36" width="14.24" height="31.26"/><path class="cls-4" d="M1092.9,156.94h-74.15a8.71,8.71,0,0,0,0,17.42h74.15a8.71,8.71,0,0,0,0-17.42Z"/><path class="cls-5" d="M1096.85,174.36h-82.06a8.71,8.71,0,0,0,0,17.42h82.06a8.71,8.71,0,0,0,0-17.42Z"/><path class="cls-6" d="M1087,139.52h-62.35a8.71,8.71,0,0,0,0,17.42H1087a8.71,8.71,0,0,0,0-17.42Z"/><path class="cls-7" d="M1081.09,122.09h-50.54a8.72,8.72,0,0,0,0,17.43h50.54a8.72,8.72,0,0,0,0-17.43Z"/><path class="cls-8" d="M1075.19,104.67h-38.73a8.71,8.71,0,0,0,0,17.42h38.73a8.71,8.71,0,0,0,0-17.42Z"/><path class="cls-9" d="M1069.28,87.25h-26.92a8.71,8.71,0,0,0,0,17.42h26.92a8.71,8.71,0,0,0,0-17.42Z"/><path class="cls-10" d="M1063.38,69.83h-15.12a8.71,8.71,0,0,0,0,17.42h15.12a8.71,8.71,0,0,0,0-17.42Z"/><path class="cls-11" d="M1059.44,52.41h-7.24a8.71,8.71,0,0,0,0,17.42h7.24a8.71,8.71,0,0,0,0-17.42Z"/></svg>