<?xml version="1.0" encoding="utf-8"?>
<!-- Generator: Adobe Illustrator 25.3.0, SVG Export Plug-In . SVG Version: 6.00 Build 0)  -->
<svg version="1.1" id="レイヤー_1" xmlns="http://www.w3.org/2000/svg" xmlns:xlink="http://www.w3.org/1999/xlink" x="0px"
	 y="0px" viewBox="0 0 1170 1508.7" style="enable-background:new 0 0 1170 1508.7;" xml:space="preserve">
<style type="text/css">
	.st0{fill:url(#SVGID_1_);}
	.st1{clip-path:url(#SVGID_3_);}
	.st2{fill:#FFB8C8;stroke:#3C0000;stroke-width:1.4863;stroke-miterlimit:10;}
	.st3{fill:#45387D;stroke:#3C0000;stroke-width:1.4863;stroke-miterlimit:10;}
	.st4{fill:#F8F8F8;stroke:#3C0000;stroke-width:1.4863;stroke-miterlimit:10;}
	.st5{fill:#969AD9;stroke:#3C0000;stroke-width:1.4863;stroke-miterlimit:10;}
	.st6{fill:#2A2C4E;stroke:#3C0000;stroke-width:1.4863;stroke-miterlimit:10;}
	.st7{fill:#6E76B5;stroke:#3C0000;stroke-width:1.4863;stroke-miterlimit:10;}
	.st8{fill:none;stroke:#3C0000;stroke-width:1.4863;stroke-miterlimit:10;}
	.st9{fill:#D5DEF0;stroke:#3C0000;stroke-width:1.4863;stroke-miterlimit:10;}
	.st10{fill:#D26088;stroke:#3C0000;stroke-width:1.4863;stroke-miterlimit:10;}
	.st11{fill:#DD8BA0;stroke:#3C0000;stroke-width:1.4863;stroke-miterlimit:10;}
	.st12{fill:#4E4C8F;stroke:#3C0000;stroke-width:1.4863;stroke-miterlimit:10;}
	.st13{fill:#FFFFFF;stroke:#3C0000;stroke-width:1.4863;stroke-miterlimit:10;}
	.st14{fill:#D26088;}
	.st15{fill:#B7BFEB;stroke:#3C0000;stroke-width:1.4863;stroke-miterlimit:10;}
	.st16{fill:#45387D;stroke:#3C0000;stroke-width:1.3976;stroke-miterlimit:9.9999;}
	.st17{fill:#45387D;stroke:#3C0000;stroke-width:1.3976;stroke-miterlimit:10;}
	.st18{fill:#FFFFFF;stroke:#3C0000;stroke-width:1.7184;stroke-miterlimit:10;}
	.st19{fill:#6E76B5;stroke:#3C0000;stroke-width:1.7184;stroke-miterlimit:10;}
	.st20{fill:none;stroke:#3C0000;stroke-width:1.3976;stroke-miterlimit:10;}
	.st21{fill:#FFB8C8;stroke:#3C0000;stroke-width:1.3437;stroke-miterlimit:10;}
	.st22{fill:none;stroke:#3C0000;stroke-width:1.3437;stroke-miterlimit:10;}
	.st23{fill:#6E76B5;stroke:#3C0000;stroke-width:1.3437;stroke-miterlimit:10;}
	.st24{fill:#B7BFEB;stroke:#3C0000;stroke-width:1.3437;stroke-miterlimit:10;}
	.st25{fill:#2A2C4E;stroke:#3C0000;stroke-width:1.3437;stroke-miterlimit:10;}
	.st26{fill:#F8F8F8;stroke:#3C0000;stroke-width:1.3437;stroke-miterlimit:10;}
	.st27{fill:#4E4C8F;stroke:#3C0000;stroke-width:1.3437;stroke-miterlimit:10;}
	.st28{fill:#DD8BA0;stroke:#3C0000;stroke-width:1.3437;stroke-miterlimit:10;}
	.st29{fill:#6E76B5;}
	.st30{fill:#969AD9;}
	.st31{fill:#FFFFFF;stroke:#3C0000;stroke-width:1.3437;stroke-miterlimit:10;}
	.st32{fill:#45387D;stroke:#3C0000;stroke-width:1.3437;stroke-miterlimit:10;}
	.st33{clip-path:url(#SVGID_5_);}
	.st34{clip-path:url(#SVGID_7_);}
	.st35{fill:#969AD9;stroke:#3C0000;stroke-width:1.3437;stroke-miterlimit:10;}
	.st36{opacity:0.6;fill:#45387D;enable-background:new    ;}
	.st37{fill:#D26088;stroke:#3C0000;stroke-width:1.3437;stroke-miterlimit:10;}
	.st38{fill:#D5DEF0;}
	.st39{opacity:0.4;fill:#969AD9;stroke:#3C0000;stroke-width:1.3437;stroke-miterlimit:10;enable-background:new    ;}
	.st40{fill:#D5DEF0;stroke:#3C0000;stroke-width:1.3437;stroke-miterlimit:10;}
	.st41{fill:#2A2C4E;}
	.st42{fill:#DD8BA0;}
	.st43{fill:#D0D1D3;stroke:#232020;stroke-width:0.5497;stroke-miterlimit:10;}
	.st44{fill:none;stroke:#3C0000;stroke-width:2.1886;stroke-linecap:round;stroke-miterlimit:10;}
	.st45{fill:#EB5160;stroke:#232020;stroke-width:0.5497;stroke-miterlimit:10;}
	.st46{fill:#D0D1D3;}
	.st47{fill:#EAECED;}
	.st48{fill:#DD8793;stroke:#232020;stroke-width:0.4479;stroke-miterlimit:10;}
	.st49{fill:none;stroke:#3C0000;stroke-width:3.2269;stroke-miterlimit:10;}
	.st50{fill:none;stroke:#232020;stroke-width:2.1886;stroke-linecap:round;stroke-miterlimit:10;}
	.st51{fill:#EB5160;}
	.st52{fill:#FFEBC8;}
	.st53{fill:#EFD3A5;}
	.st54{fill:#FF92AB;}
	.st55{fill:#FFFEFD;}
	.st56{fill:#FFF6EE;}
	.st57{fill:#3C0000;}
	.st58{fill:#FEFDFD;}
	.st59{fill:#462915;}
	.st60{fill:#D16E7D;}
</style>
<g>
	<g id="レイヤー_1_1_">
		
			<linearGradient id="SVGID_1_" gradientUnits="userSpaceOnUse" x1="585" y1="-522.6596" x2="585" y2="1165.877" gradientTransform="matrix(1 0 0 1 0 428)">
			<stop  offset="0" style="stop-color:#9ED9FF"/>
			<stop  offset="0.21" style="stop-color:#A2D8FC"/>
			<stop  offset="0.41" style="stop-color:#AED5F5"/>
			<stop  offset="0.61" style="stop-color:#C1D0E8"/>
			<stop  offset="0.81" style="stop-color:#DDC9D6"/>
			<stop  offset="1" style="stop-color:#FFC1BF"/>
		</linearGradient>
		<rect y="-16.6" class="st0" width="1170" height="1525.3"/>
		<g>
			<g>
				<defs>
					<rect id="SVGID_2_" y="660.5" width="1170" height="848.2"/>
				</defs>
				<clipPath id="SVGID_3_">
					<use xlink:href="#SVGID_2_"  style="overflow:visible;"/>
				</clipPath>
				<g class="st1">
					<g>
						<g>
							<rect x="72.6" y="1257.9" class="st2" width="232.5" height="158.6"/>
							<path class="st3" d="M93.8,1305.3l-30,103.7c-8.1,28.1,13,56.2,42.3,56.2l0,0c29.3,0,50.4-28.1,42.3-56.2l-30-103.7
								C114.8,1293,97.3,1293,93.8,1305.3z"/>
							<path class="st3" d="M44.5,1348.9l-30,103.7c-8.1,28.1,13,56.2,42.3,56.2l0,0c29.3,0,50.4-28.1,42.3-56.2l-30-103.7
								C65.5,1336.6,48,1336.6,44.5,1348.9z"/>
							<path class="st4" d="M97.4,1373.3h211.2v135.5H82.3v-120.4C82.3,1380.1,89,1373.3,97.4,1373.3z"/>
							<path class="st3" d="M82.3,1388.4v15.4h226.3v-30.5H97.4C89,1373.3,82.3,1380.1,82.3,1388.4z"/>
							<g>
								<rect x="92.3" y="1414" class="st5" width="144.6" height="94.8"/>
								<rect x="101.4" y="1423.1" class="st6" width="126.4" height="85.7"/>
								<rect x="92.3" y="1414" class="st7" width="144.6" height="36.5"/>
								<line class="st8" x1="92.3" y1="1423.1" x2="236.5" y2="1423.1"/>
								<line class="st8" x1="92.3" y1="1432.3" x2="236.5" y2="1432.3"/>
								<line class="st8" x1="92.3" y1="1441.4" x2="236.5" y2="1441.4"/>
							</g>
							<g>
								<rect x="120.6" y="1325" class="st7" width="133.1" height="42"/>
								<rect x="124.2" y="1328.6" class="st9" width="125.8" height="34.7"/>
								<rect x="147.7" y="1334.3" class="st5" width="87.8" height="3.6"/>
								<rect x="130.7" y="1343.3" class="st5" width="106.3" height="3.6"/>
								<rect x="140.6" y="1352.4" class="st5" width="95.5" height="3.6"/>
								<rect x="130.8" y="1367" class="st7" width="4.6" height="14.8"/>
								<rect x="233.2" y="1367" class="st7" width="4.6" height="14.8"/>
							</g>
							<path class="st2" d="M307.4,1398.8H56.7c0-0.1,0.1-0.2,0.1-0.3c6.4-15.3,21.4-25.2,38-25.2h212.6V1398.8z"/>
							<path class="st10" d="M77.5,1398.5c6.4-15.3,21.4-25.2,38-25.2h191.9l0,0H94.8c-16.6,0-31.6,9.9-38,25.2
								c0,0.1-0.1,0.2-0.1,0.3h20.7C77.5,1398.7,77.5,1398.6,77.5,1398.5z"/>
							<path class="st10" d="M119.5,1398.5c6.4-15.3,21.4-25.2,38-25.2h191.9l0,0H136.8c-16.6,0-31.6,9.9-38,25.2
								c0,0.1-0.1,0.2-0.1,0.3h20.7C119.4,1398.7,119.4,1398.6,119.5,1398.5z"/>
							<path class="st10" d="M133.6,1398.5c6.4-15.3,21.4-25.2,38-25.2h191.9l0,0H150.9c-16.6,0-31.6,9.9-38,25.2
								c0,0.1-0.1,0.2-0.1,0.3h20.7C133.5,1398.7,133.6,1398.6,133.6,1398.5z"/>
							<path class="st10" d="M147.9,1398.5c6.4-15.3,21.4-25.2,38-25.2h191.9l0,0H165.2c-16.6,0-31.6,9.9-38,25.2
								c0,0.1-0.1,0.2-0.1,0.3h20.7C147.8,1398.7,147.8,1398.6,147.9,1398.5z"/>
							<path class="st10" d="M181.6,1398.8v-25.5H178c-16.6,0-31.6,9.9-38,25.2c0,0.1-0.1,0.2-0.1,0.3H181.6z"/>
							<g>
								<path class="st11" d="M144.2,1454.7h1.8c1.3,0,2.4,1.1,2.4,2.4v1.6h-6.7v-1.6C141.8,1455.8,142.9,1454.7,144.2,1454.7z"/>
								<path class="st3" d="M197,1500.7c0,4.5-3.6,8.1-8.1,8.1c-1.8,0-4.5-0.1-4.5-0.1c-2-1.5-3.6-5.3-3.6-8c0-4.5,3.6-8.1,8.1-8.1
									C193.3,1492.6,197,1496.2,197,1500.7z"/>
								<circle class="st12" cx="184.3" cy="1500.7" r="8.1"/>
								<path class="st6" d="M188.2,1500.7c0,2.2-1.7,3.9-3.9,3.9s-3.9-1.7-3.9-3.9c0-2.2,1.7-3.9,3.9-3.9
									C186.4,1496.8,188.2,1498.5,188.2,1500.7z"/>
								<g>
									<path class="st13" d="M126.6,1462.7h45l16.7,13.3h-71.8c0.5-1,1.1-2,1.8-2.9L126.6,1462.7z"/>
									<path class="st5" d="M198,1495.9v3.8h-84.6l-0.8-6c-0.2-1.5-0.1-3,0.3-4.4l2.8-11c0.2-0.8,0.5-1.5,0.8-2.2h72
										c0.5,0,1,0.2,1.4,0.6C195,1481.6,198,1488.5,198,1495.9z"/>
									<path class="st5" d="M130,1458.4h28.5c4.8,0,9.4,1.3,13.4,3.8c0.2,0.1,0.1,0.4-0.1,0.4h-45.1L130,1458.4z"/>
								</g>
								<g>
									<polygon class="st13" points="171.6,1462.7 188.3,1475.9 187.9,1475.9 163.2,1462.7 									"/>
									<path class="st14" d="M116.5,1475.9c0.5-1,1.1-2,1.8-2.9l8.3-10.4h24.7l24.7,13.3H116.5z"/>
									<path class="st14" d="M163.3,1462.7c7.7,2.4,16.1,7.6,24.7,13.3h-7.9l-24.7-13.3H163.3z"/>
								</g>
								<path class="st3" d="M142,1500.7c0,4.5-3.6,8.1-8.1,8.1c-1.8,0-4.5-0.1-4.5-0.1c-2-1.5-3.6-5.3-3.6-8c0-4.5,3.6-8.1,8.1-8.1
									S142,1496.2,142,1500.7z"/>
								
									<ellipse transform="matrix(3.327788e-02 -0.9994 0.9994 3.327788e-02 -1374.8322 1579.9501)" class="st12" cx="129.3" cy="1500.7" rx="8.1" ry="8.1"/>
								<path class="st6" d="M133.2,1500.7c0,2.2-1.7,3.9-3.9,3.9s-3.9-1.7-3.9-3.9c0-2.2,1.7-3.9,3.9-3.9
									C131.5,1496.8,133.2,1498.5,133.2,1500.7z"/>
								<path class="st3" d="M118.7,1500.7c0,4.5-3.6,8.1-8.1,8.1c-1.8,0-4.5-0.1-4.5-0.1c-2-1.5-3.6-5.3-3.6-8
									c0-4.5,3.6-8.1,8.1-8.1C115,1492.6,118.7,1496.2,118.7,1500.7z"/>
								<path class="st3" d="M173.6,1500.7c0,4.5-3.6,8.1-8.1,8.1c-1.8,0-4.5-0.1-4.5-0.1c-2-1.5-3.6-5.3-3.6-8
									c0-4.5,3.6-8.1,8.1-8.1S173.6,1496.2,173.6,1500.7z"/>
								<path class="st13" d="M166.2,1474.8l-13.5-10.8c-4.5-3.6-10.1-5.6-15.9-5.6h-10.1c-15.7,0-28.8,12.3-29.7,28l-0.5,8.5
									c-0.2,2.6,1.9,4.7,4.5,4.7h75.4v-3.8C176.3,1487.7,172.6,1479.9,166.2,1474.8z"/>
								<g>
									<path class="st2" d="M148.5,1476.5L148.5,1476.5l-5.8-10.4c-1.5-2.7-4.4-4.4-7.5-4.4h-12.7c-4.8,0-8.5,4.3-7.8,9.1
										l2.8,17.8c0.7,4.8,4.8,8.3,9.7,8.3h3.4C141.8,1496.8,148.5,1487.7,148.5,1476.5z"/>
									<path class="st5" d="M148.2,1475.9l4.7,9.7c2.5,5.2-1.2,11.2-7,11.2h-20.4c-3.9,0-7.2-2.9-7.8-6.7l-2.2-14.2H148.2z"/>
									<path class="st6" d="M120.3,1479.6h4.2c0.6,0,1,0.5,1,1l0,0c0,0.6-0.5,1-1,1h-4.2c-0.6,0-1-0.5-1-1l0,0
										C119.3,1480.1,119.8,1479.6,120.3,1479.6z"/>
								</g>
								<path class="st2" d="M167.5,1475.9h-13.8c-2.6,0-4.8-1.9-5.2-4.4l0,0c-0.6-3.7-1.2-7.2,2.3-8.8c0.6,0.4,1.2,0.9,1.8,1.3
									l13.5,10.8C166.7,1475.2,167.1,1475.5,167.5,1475.9z"/>
								<path class="st2" d="M111.1,1462.8v8.3c0,2.7-2.2,4.9-4.9,4.9h-6.7C102,1470.5,106,1465.9,111.1,1462.8z"/>
								<path class="st13" d="M182.4,1486.2L182.4,1486.2c1.3,0,2.3,1,2.3,2.3v1.9c0,1.3-1,2.3-2.3,2.3l0,0c-1.3,0-2.3-1-2.3-2.3
									v-1.9C180.1,1487.2,181.1,1486.2,182.4,1486.2z"/>
								<path class="st13" d="M195.3,1486.2L195.3,1486.2c1.3,0,2.3,1,2.3,2.3v1.9c0,1.3-1,2.3-2.3,2.3l0,0c-1.3,0-2.3-1-2.3-2.3
									v-1.9C193,1487.2,194,1486.2,195.3,1486.2z"/>
								<rect x="174.7" y="1495.6" class="st3" width="24" height="4"/>
								<rect x="95.7" y="1495.6" class="st3" width="7.4" height="4"/>
								<path class="st12" d="M169.1,1500.7c0,4.5-3.6,8.1-8.1,8.1s-8.1-3.6-8.1-8.1s3.6-8.1,8.1-8.1S169.1,1496.2,169.1,1500.7z"/>
								<path class="st13" d="M164.9,1500.7c0,2.2-1.7,3.9-3.9,3.9s-3.9-1.7-3.9-3.9c0-2.2,1.7-3.9,3.9-3.9
									C163.1,1496.8,164.9,1498.5,164.9,1500.7z"/>
								<path class="st12" d="M114.1,1500.7c0,4.5-3.6,8.1-8.1,8.1s-8.1-3.6-8.1-8.1s3.6-8.1,8.1-8.1S114.1,1496.2,114.1,1500.7z"/>
								<path class="st13" d="M109.9,1500.7c0,2.2-1.7,3.9-3.9,3.9c-2.2,0-3.9-1.7-3.9-3.9c0-2.2,1.7-3.9,3.9-3.9
									C108.2,1496.8,109.9,1498.5,109.9,1500.7z"/>
								<path class="st11" d="M100.2,1488.9c-0.1,1.5-1.3,2.6-2.8,2.6h-0.8l0.3-5.1c0-0.2,0-0.3,0-0.5h0.5
									C99.1,1485.9,100.3,1487.3,100.2,1488.9z"/>
							</g>
							<g>
								<polygon class="st5" points="62.4,1496.4 29.9,1496.4 32.7,1508.8 59.6,1508.8 								"/>
								<rect x="29.5" y="1496.4" class="st15" width="33.3" height="2.8"/>
								<line class="st8" x1="46.2" y1="1449.6" x2="46.2" y2="1496.4"/>
								
									<ellipse transform="matrix(9.089787e-03 -1 1 9.089787e-03 -1399.8207 1478.7178)" class="st10" cx="46.2" cy="1445.7" rx="26.4" ry="26.4"/>
								<line class="st8" x1="46.2" y1="1487.5" x2="54.9" y2="1478.8"/>
							</g>
						</g>
						<g>
							<g>
								
									<rect x="797.3" y="763.4" transform="matrix(0.7071 -0.7071 0.7071 0.7071 -327.5471 799.7078)" class="st16" width="8.6" height="63.7"/>
								<g>
									<rect x="756.6" y="800.9" class="st17" width="8.6" height="8.6"/>
									<rect x="962.9" y="800.9" class="st17" width="8.6" height="8.6"/>
								</g>
							</g>
							<rect x="678.8" y="740.9" class="st18" width="370.6" height="60"/>
							<rect x="1049.3" y="740.9" class="st19" width="13" height="60"/>
							<line class="st20" x1="675.7" y1="800.9" x2="935" y2="800.9"/>
							<polygon class="st21" points="453.5,992 519.6,992 519.6,902 616.1,847.6 616.1,1078.1 451.3,1078.1 							"/>
							<line class="st22" x1="415.6" y1="1115.7" x2="415.6" y2="1081.8"/>
							<line class="st22" x1="400.9" y1="1088.3" x2="430.4" y2="1088.3"/>
							<line class="st22" x1="400.9" y1="1081.8" x2="400.9" y2="1094.8"/>
							<line class="st22" x1="424.7" y1="1081.8" x2="424.7" y2="1094.8"/>
							<line class="st22" x1="430.4" y1="1081.8" x2="430.4" y2="1094.8"/>
							<line class="st22" x1="406.6" y1="1081.8" x2="406.6" y2="1094.8"/>
							<path class="st23" d="M383.5,1105.4l-11.2-11.2l5.4-5.4c0.3-0.3,0.3-0.9,0-1.2c-0.3-0.3-0.9-0.3-1.2,0l-5.4,5.4l-11.2-11.2
								c-3.6,6.8-2.4,15.2,3.1,20.6c0.8,0.8,1.6,1.4,2.5,2v11.2h2.3v-9.9C372.9,1108.2,378.7,1108,383.5,1105.4z"/>
							<rect x="277.5" y="1148.6" class="st24" width="231.9" height="360.2"/>
							<rect x="277.5" y="1148.6" class="st25" width="231.9" height="277.8"/>
							<rect x="264.9" y="1148.6" class="st26" width="244.5" height="34"/>
							<line class="st22" x1="509.4" y1="1173.2" x2="264.9" y2="1173.2"/>
							<rect x="501.2" y="1148.6" class="st27" width="8.2" height="34"/>
							<rect x="427.7" y="1114.6" class="st27" width="32.9" height="34"/>
							<rect x="331.5" y="1114.6" class="st26" width="96.2" height="34"/>
							<polygon class="st27" points="331.5,1148.6 427.7,1148.6 427.7,1142 							"/>
							<line class="st22" x1="427.7" y1="1127.2" x2="331.5" y2="1127.2"/>
							<rect x="264.9" y="1208" class="st26" width="244.5" height="34"/>
							<line class="st22" x1="509.4" y1="1232.7" x2="264.9" y2="1232.7"/>
							<rect x="264.9" y="1267.5" class="st26" width="244.5" height="34"/>
							<line class="st22" x1="509.4" y1="1292.2" x2="264.9" y2="1292.2"/>
							<rect x="264.9" y="1327" class="st26" width="244.5" height="34"/>
							<line class="st22" x1="509.4" y1="1351.7" x2="264.9" y2="1351.7"/>
							<rect x="264.9" y="1386.5" class="st26" width="244.5" height="34"/>
							<line class="st22" x1="509.4" y1="1411.2" x2="264.9" y2="1411.2"/>
							<rect x="277.5" y="1182.6" class="st28" width="231.9" height="25.5"/>
							<rect x="277.5" y="1182.6" class="st28" width="231.9" height="25.5"/>
							<polygon class="st29" points="327.5,1182.6 302,1208 284.5,1208 310,1182.6 							"/>
							<polygon class="st29" points="476.4,1182.6 451,1208 433.4,1208 458.9,1182.6 							"/>
							<polygon class="st29" points="452.3,1182.6 426.8,1208 416.8,1208 442.3,1182.6 							"/>
							<polygon class="st29" points="398.8,1182.6 373.4,1208 340.2,1208 365.7,1182.6 							"/>
							<rect x="277.5" y="1182.6" class="st25" width="231.9" height="7.1"/>
							<rect x="277.5" y="1242" class="st28" width="231.9" height="25.5"/>
							<polygon class="st29" points="376.6,1242 351,1267.5 315,1267.5 340.5,1242 							"/>
							<polygon class="st29" points="444.4,1242 418.9,1267.5 398.7,1267.5 424.2,1242 							"/>
							<rect x="277.5" y="1301.5" class="st28" width="231.9" height="25.5"/>
							<polygon class="st29" points="363.5,1301.5 338,1327 319.7,1327 345.2,1301.5 							"/>
							<polygon class="st29" points="463.9,1301.5 438.4,1327 420,1327 445.5,1301.5 							"/>
							<polygon class="st29" points="385.6,1301.5 360.1,1327 348.7,1327 374.3,1301.5 							"/>
							<rect x="277.5" y="1361" class="st28" width="231.9" height="25.5"/>
							<polygon class="st29" points="374.6,1361 349.1,1386.5 320.2,1386.5 345.7,1361 							"/>
							<polygon class="st29" points="497.5,1361 472,1386.5 443.1,1386.5 468.6,1361 							"/>
							<polygon class="st29" points="418.9,1361 393.4,1386.5 381.3,1386.5 406.8,1361 							"/>
							<rect x="301" y="1431.6" class="st23" width="154.9" height="77.2"/>
							<rect x="301" y="1431.6" class="st23" width="154.9" height="77.2"/>
							<polygon class="st30" points="455.8,1431.6 455.8,1477.1 424.2,1508.7 368.5,1508.7 445.7,1431.6 							"/>
							<polygon class="st30" points="409.8,1431.6 332.7,1508.7 301,1508.7 301,1508.5 377.9,1431.6 							"/>
							<line class="st22" x1="379.6" y1="1431.6" x2="379.6" y2="1508.7"/>
							<polygon class="st25" points="305.1,1434.9 455.8,1434.9 455.8,1431.6 301,1431.6 301,1508.7 305.1,1508.7 							"/>
							<rect x="277.5" y="1242" class="st25" width="231.9" height="7.1"/>
							<rect x="277.5" y="1301.5" class="st25" width="231.9" height="7.1"/>
							<rect x="277.5" y="1361" class="st25" width="231.9" height="7.1"/>
							<polygon class="st27" points="1191,1049.4 1191,1168.8 1317.6,1168.8 							"/>
							<rect x="1079.2" y="1168.8" class="st31" width="111.8" height="339.9"/>
							<rect x="1191" y="1168.9" class="st32" width="111.8" height="339.9"/>
							<polygon class="st25" points="1302.8,1241.8 1288,1381.3 1303.1,1381.3 							"/>
							<polygon class="st29" points="1191,1049.4 1191,1168.8 1064.4,1168.8 							"/>
							<g>
								<g>
									<defs>
										<polygon id="SVGID_4_" points="1191,1049.4 1191,1168.8 1064.4,1168.8 										"/>
									</defs>
									<clipPath id="SVGID_5_">
										<use xlink:href="#SVGID_4_"  style="overflow:visible;"/>
									</clipPath>
									<g class="st33">
										<line class="st22" x1="1074.7" y1="1063.3" x2="1208.2" y2="1063.3"/>
										<line class="st22" x1="1074.7" y1="1075.6" x2="1208.2" y2="1075.6"/>
										<line class="st22" x1="1074.7" y1="1087.9" x2="1208.2" y2="1087.9"/>
										<line class="st22" x1="1074.7" y1="1100.2" x2="1208.2" y2="1100.2"/>
										<line class="st22" x1="1074.7" y1="1112.5" x2="1208.2" y2="1112.5"/>
										<line class="st22" x1="1074.7" y1="1124.8" x2="1208.2" y2="1124.8"/>
										<line class="st22" x1="1074.7" y1="1137.1" x2="1208.2" y2="1137.1"/>
										<line class="st22" x1="1074.7" y1="1149.4" x2="1208.2" y2="1149.4"/>
									</g>
								</g>
							</g>
							<polygon class="st22" points="1191,1049.4 1191,1168.8 1064.4,1168.8 							"/>
							<g>
								<g>
									<defs>
										<polygon id="SVGID_6_" points="1191,1049.4 1191,1168.8 1317.6,1168.8 										"/>
									</defs>
									<clipPath id="SVGID_7_">
										<use xlink:href="#SVGID_6_"  style="overflow:visible;"/>
									</clipPath>
									<g class="st34">
										<line class="st22" x1="1307.3" y1="1063.3" x2="1173.8" y2="1063.3"/>
										<line class="st22" x1="1307.3" y1="1075.6" x2="1173.8" y2="1075.6"/>
										<line class="st22" x1="1307.3" y1="1087.9" x2="1173.8" y2="1087.9"/>
										<line class="st22" x1="1307.3" y1="1100.2" x2="1173.8" y2="1100.2"/>
										<line class="st22" x1="1307.3" y1="1112.5" x2="1173.8" y2="1112.5"/>
										<line class="st22" x1="1307.3" y1="1124.8" x2="1173.8" y2="1124.8"/>
										<line class="st22" x1="1307.3" y1="1137.1" x2="1173.8" y2="1137.1"/>
										<line class="st22" x1="1307.3" y1="1149.4" x2="1173.8" y2="1149.4"/>
									</g>
								</g>
							</g>
							<polygon class="st22" points="1191,1049.4 1191,1168.8 1317.6,1168.8 							"/>
							<rect x="1191" y="1160.4" class="st23" width="126.4" height="17"/>
							<rect x="1191" y="1166.9" class="st27" width="126.4" height="3.8"/>
							<rect x="1064.7" y="1160.4" class="st35" width="126.4" height="17"/>
							<rect x="1064.7" y="1166.9" class="st23" width="126.4" height="3.8"/>
							<rect x="1215.1" y="1192.4" class="st25" width="25.2" height="25.2"/>
							<rect x="1215.1" y="1217.6" class="st25" width="25.2" height="25.2"/>
							<rect x="1264.9" y="1192.4" class="st25" width="25.2" height="25.2"/>
							<rect x="1264.9" y="1217.6" class="st25" width="25.2" height="25.2"/>
							<rect x="1215.1" y="1265.6" class="st25" width="25.2" height="25.2"/>
							<rect x="1215.1" y="1290.8" class="st25" width="25.2" height="25.2"/>
							<rect x="1264.9" y="1265.6" class="st25" width="25.2" height="25.2"/>
							<rect x="1264.9" y="1290.8" class="st25" width="25.2" height="25.2"/>
							<rect x="1101.7" y="1192.4" class="st21" width="25.2" height="25.2"/>
							<rect x="1101.7" y="1217.6" class="st21" width="25.2" height="25.2"/>
							<rect x="1151.5" y="1192.4" class="st21" width="25.2" height="25.2"/>
							<rect x="1151.5" y="1217.6" class="st21" width="25.2" height="25.2"/>
							<rect x="1101.7" y="1265.6" class="st28" width="25.2" height="25.2"/>
							<rect x="1101.7" y="1290.8" class="st25" width="25.2" height="25.2"/>
							<rect x="1151.5" y="1265.6" class="st21" width="25.2" height="25.2"/>
							<rect x="1151.5" y="1290.8" class="st21" width="25.2" height="25.2"/>
							<polyline class="st36" points="1290.8,1508.7 1079.2,1160.9 1079.2,1508.7 							"/>
							<line class="st22" x1="1094.2" y1="939.2" x2="1077.8" y2="939.2"/>
							<line class="st22" x1="1094.2" y1="953.7" x2="1077.8" y2="953.7"/>
							<line class="st22" x1="1094.2" y1="968.2" x2="1077.8" y2="968.2"/>
							<line class="st22" x1="1094.2" y1="982.7" x2="1077.8" y2="982.7"/>
							<line class="st22" x1="1094.2" y1="997.3" x2="1077.8" y2="997.3"/>
							<line class="st22" x1="1094.2" y1="1011.8" x2="1077.8" y2="1011.8"/>
							<path class="st22" d="M1094.2,1032.1V910.4c0-2.2-1.7-3.9-3.9-3.9l0,0l0,0"/>
							<path class="st22" d="M1077.8,1032.1V910.4c0-2.2-1.7-3.9-3.9-3.9l0,0"/>
							<path class="st37" d="M510.9,984.3l-13.2,45.6c-3,10.3,3,21,13.2,23.9c1.7,0.5,3.5,0.8,5.3,0.8l0,0
								c10.7,0,19.3-8.7,19.3-19.4c0-1.8-0.3-3.6-0.8-5.3l-13.2-45.6c-0.9-3-4-4.7-7-3.8C512.9,981,511.5,982.5,510.9,984.3z"/>
							<path class="st37" d="M545.9,984.3l-13.2,45.6c-3,10.3,3,21,13.2,23.9c1.7,0.5,3.5,0.8,5.3,0.8l0,0
								c10.7,0,19.3-8.7,19.3-19.4c0-1.8-0.3-3.6-0.8-5.3l-13.2-45.6c-0.9-3-4-4.7-7-3.8C547.9,981,546.4,982.5,545.9,984.3z"/>
							<rect x="605.7" y="826.8" class="st31" width="245.6" height="85"/>
							<rect x="815.1" y="826.8" class="st38" width="36.2" height="85"/>
							<rect x="474.1" y="1049.4" class="st24" width="84.4" height="459.4"/>
							<rect x="558.6" y="911.8" class="st31" width="292.7" height="597"/>
							<rect x="558.6" y="911.8" class="st31" width="292.7" height="597"/>
							<rect x="558.6" y="1322.9" class="st24" width="292.7" height="185.8"/>
							<rect x="746" y="1340.4" class="st39" width="105.3" height="168.3"/>
							<rect x="558.6" y="911.8" class="st26" width="292.7" height="428.7"/>
							<rect x="558.6" y="1049.4" class="st38" width="292.7" height="24.7"/>
							<rect x="558.6" y="1186.9" class="st38" width="292.7" height="24.7"/>
							<line class="st22" x1="558.6" y1="1340.4" x2="558.6" y2="1066.3"/>
							<rect x="558.6" y="911.8" class="st40" width="292.7" height="24.7"/>
							<rect x="792.1" y="911.8" class="st38" width="59.2" height="428.7"/>
							<line class="st22" x1="474.1" y1="1480.8" x2="851.3" y2="1480.8"/>
							<line class="st22" x1="474.1" y1="1463.2" x2="851.3" y2="1463.2"/>
							<line class="st22" x1="474.1" y1="1445.7" x2="851.3" y2="1445.7"/>
							<line class="st22" x1="474.1" y1="1428.1" x2="851.3" y2="1428.1"/>
							<line class="st22" x1="474.1" y1="1410.6" x2="851.3" y2="1410.6"/>
							<line class="st22" x1="474.1" y1="1393.1" x2="851.3" y2="1393.1"/>
							<line class="st22" x1="474.1" y1="1375.5" x2="851.3" y2="1375.5"/>
							<line class="st22" x1="474.1" y1="1322.9" x2="558.6" y2="1322.9"/>
							<line class="st22" x1="474.1" y1="1305.4" x2="558.6" y2="1305.4"/>
							<line class="st22" x1="474.1" y1="1287.8" x2="558.6" y2="1287.8"/>
							<line class="st22" x1="474.1" y1="1270.3" x2="558.6" y2="1270.3"/>
							<line class="st22" x1="474.1" y1="1252.7" x2="558.6" y2="1252.7"/>
							<line class="st22" x1="474.1" y1="1216.5" x2="558.6" y2="1216.5"/>
							<line class="st22" x1="474.1" y1="1235.2" x2="558.6" y2="1235.2"/>
							<line class="st22" x1="474.1" y1="1182.6" x2="558.6" y2="1182.6"/>
							<line class="st22" x1="474.1" y1="1165" x2="558.6" y2="1165"/>
							<line class="st22" x1="474.1" y1="1147.5" x2="558.6" y2="1147.5"/>
							<line class="st22" x1="474.1" y1="1129.9" x2="558.6" y2="1129.9"/>
							<line class="st22" x1="474.1" y1="1112.4" x2="558.6" y2="1112.4"/>
							<line class="st22" x1="474.1" y1="1094.8" x2="558.6" y2="1094.8"/>
							<line class="st22" x1="474.1" y1="1077.3" x2="558.6" y2="1077.3"/>
							<rect x="851.3" y="911.8" class="st27" width="231.9" height="597"/>
							<polygon class="st25" points="956.5,1276.8 903.9,1508.7 1083.2,1508.7 							"/>
							<rect x="545.4" y="911.8" class="st23" width="305.9" height="17"/>
							<rect x="460.7" y="1049.4" class="st23" width="390.6" height="17"/>
							<rect x="851.3" y="1049.4" class="st32" width="246.7" height="17"/>
							<rect x="460.7" y="1186.9" class="st23" width="390.6" height="17"/>
							<rect x="460.7" y="1186.9" class="st23" width="390.6" height="17"/>
							<rect x="460.7" y="1197.9" class="st32" width="390.6" height="6"/>
							<rect x="460.7" y="1060.3" class="st32" width="390.6" height="6"/>
							<rect x="545.4" y="922.7" class="st32" width="305.9" height="6"/>
							<rect x="460.7" y="1340.4" class="st23" width="390.6" height="17"/>
							<rect x="460.7" y="1351.1" class="st32" width="390.6" height="6.3"/>
							<rect x="851.3" y="1186.9" class="st32" width="246.7" height="17"/>
							<rect x="851.3" y="1340.4" class="st32" width="246.7" height="17"/>
							<rect x="592.5" y="809.8" class="st23" width="258.7" height="17"/>
							<rect x="615.6" y="839.4" class="st23" width="216" height="23.6"/>
							<rect x="618.8" y="842.7" class="st27" width="209.4" height="17"/>
							<polygon class="st24" points="744.1,842.7 727.1,859.7 703,859.7 720,842.7 							"/>
							<polygon class="st24" points="816.9,842.7 799.9,859.7 783.2,859.7 800.2,842.7 							"/>
							<polygon class="st24" points="769.8,842.7 752.9,859.7 742,859.7 759,842.7 							"/>
							<polygon class="st24" points="653.1,842.7 636.1,859.7 625.2,859.7 642.2,842.7 							"/>
							<line class="st22" x1="660.5" y1="842.7" x2="660.5" y2="859.7"/>
							<line class="st22" x1="715.9" y1="842.7" x2="715.9" y2="859.7"/>
							<line class="st22" x1="771.2" y1="842.7" x2="771.2" y2="859.7"/>
							<polygon class="st41" points="621.6,844.9 828.3,844.9 828.3,842.7 618.8,842.7 618.8,859.7 621.6,859.7 							"/>
							<rect x="851.3" y="809.8" class="st32" width="204.5" height="17"/>
							<polygon class="st25" points="1047.5,809.8 1047.5,820.8 851.3,820.8 851.3,826.8 1055.8,826.8 1055.8,809.8 							"/>
							<rect x="851.3" y="826.8" class="st27" width="180.9" height="85"/>
							<rect x="851.3" y="911.8" class="st32" width="246.7" height="17"/>
							<polygon class="st25" points="1089.7,911.8 1089.7,922.7 851.3,922.7 851.3,928.7 1098,928.7 1098,911.8 							"/>
							<polygon class="st25" points="1089.7,1049.4 1089.7,1060.3 851.3,1060.3 851.3,1066.3 1098,1066.3 1098,1049.4 							"/>
							<polygon class="st25" points="1089.7,1186.9 1089.7,1197.9 851.3,1197.9 851.3,1203.9 1098,1203.9 1098,1186.9 							"/>
							<polygon class="st25" points="1089.7,1340.4 1089.7,1351.4 851.3,1351.4 851.3,1357.4 1098,1357.4 1098,1340.4 							"/>
							<line class="st22" x1="851.3" y1="884.9" x2="575" y2="884.9"/>
							<line class="st22" x1="579.9" y1="884.9" x2="579.9" y2="911.8"/>
							<line class="st22" x1="598" y1="884.9" x2="598" y2="911.8"/>
							<line class="st22" x1="616.1" y1="884.9" x2="616.1" y2="911.8"/>
							<line class="st22" x1="634.2" y1="884.9" x2="634.2" y2="911.8"/>
							<line class="st22" x1="652.3" y1="884.9" x2="652.3" y2="911.8"/>
							<line class="st22" x1="670.4" y1="884.9" x2="670.4" y2="911.8"/>
							<line class="st22" x1="688.5" y1="884.9" x2="688.5" y2="911.8"/>
							<line class="st22" x1="706.6" y1="884.9" x2="706.6" y2="911.8"/>
							<line class="st22" x1="724.7" y1="884.9" x2="724.7" y2="911.8"/>
							<line class="st22" x1="742.7" y1="884.9" x2="742.7" y2="911.8"/>
							<line class="st22" x1="760.8" y1="884.9" x2="760.8" y2="911.8"/>
							<line class="st22" x1="778.9" y1="884.9" x2="778.9" y2="911.8"/>
							<line class="st22" x1="797" y1="884.9" x2="797" y2="911.8"/>
							<line class="st22" x1="815.1" y1="884.9" x2="815.1" y2="911.8"/>
							<line class="st22" x1="833.2" y1="884.9" x2="833.2" y2="911.8"/>
							<line class="st22" x1="851.3" y1="884.9" x2="851.3" y2="911.8"/>
							<line class="st22" x1="558.6" y1="1022.5" x2="487.6" y2="1022.5"/>
							<line class="st22" x1="492.5" y1="1022.5" x2="492.5" y2="1049.4"/>
							<line class="st22" x1="510.6" y1="1022.5" x2="510.6" y2="1049.4"/>
							<line class="st22" x1="528.7" y1="1022.5" x2="528.7" y2="1049.4"/>
							<line class="st22" x1="546.8" y1="1022.5" x2="546.8" y2="1049.4"/>
							<line class="st22" x1="1068.4" y1="884.9" x2="1068.4" y2="911.8"/>
							<line class="st22" x1="1050.3" y1="884.9" x2="1050.3" y2="911.8"/>
							<line class="st22" x1="1032.2" y1="884.9" x2="1032.2" y2="911.8"/>
							<line class="st22" x1="1014.1" y1="884.9" x2="1014.1" y2="911.8"/>
							<line class="st22" x1="996" y1="884.9" x2="996" y2="911.8"/>
							<line class="st22" x1="977.9" y1="884.9" x2="977.9" y2="911.8"/>
							<line class="st22" x1="959.8" y1="884.9" x2="959.8" y2="911.8"/>
							<line class="st22" x1="941.7" y1="884.9" x2="941.7" y2="911.8"/>
							<line class="st22" x1="923.6" y1="884.9" x2="923.6" y2="911.8"/>
							<line class="st22" x1="905.6" y1="884.9" x2="905.6" y2="911.8"/>
							<line class="st22" x1="887.5" y1="884.9" x2="887.5" y2="911.8"/>
							<line class="st22" x1="869.4" y1="884.9" x2="869.4" y2="911.8"/>
							<line class="st22" x1="851.3" y1="884.9" x2="851.3" y2="911.8"/>
							<polyline class="st22" points="851.3,911.8 851.3,884.9 1073.8,884.9 							"/>
							<rect x="575" y="955.1" class="st24" width="69.1" height="73.5"/>
							<rect x="583.2" y="963.3" class="st21" width="52.6" height="57"/>
							<rect x="583.2" y="963.3" class="st42" width="52.6" height="18.1"/>
							<path class="st23" d="M632.6,966.6v50.4h-46.1v-50.4L632.6,966.6 M635.8,963.3h-52.6v57h52.6V963.3L635.8,963.3z"/>
							<rect x="666.6" y="955.1" class="st24" width="69.1" height="73.5"/>
							<rect x="674.8" y="963.3" class="st21" width="52.6" height="57"/>
							<rect x="674.8" y="963.3" class="st42" width="52.6" height="18.1"/>
							<path class="st23" d="M724.1,966.6v50.4H678v-50.4L724.1,966.6 M727.4,963.3h-52.6v57h52.6V963.3z"/>
							<rect x="757.5" y="955.1" class="st24" width="69.1" height="73.5"/>
							<rect x="765.8" y="963.3" class="st21" width="52.6" height="57"/>
							<rect x="765.8" y="963.3" class="st42" width="52.6" height="18.1"/>
							<path class="st23" d="M815.1,966.6v50.4h-46v-50.4L815.1,966.6 M818.4,963.3h-52.6v57h52.6V963.3z"/>
							<rect x="575" y="1098.7" class="st24" width="69.1" height="73.5"/>
							<rect x="583.2" y="1106.9" class="st21" width="52.6" height="57"/>
							<rect x="583.2" y="1106.9" class="st42" width="52.6" height="18.1"/>
							<path class="st23" d="M632.6,1110.2v50.4h-46.1v-50.4H632.6 M635.8,1106.9h-52.6v57h52.6V1106.9L635.8,1106.9z"/>
							<rect x="666.6" y="1098.7" class="st24" width="69.1" height="73.5"/>
							<rect x="674.8" y="1106.9" class="st21" width="52.6" height="57"/>
							<rect x="674.8" y="1106.9" class="st42" width="52.6" height="18.1"/>
							<path class="st23" d="M724.1,1110.2v50.4H678v-50.4H724.1 M727.4,1106.9h-52.6v57h52.6V1106.9z"/>
							<rect x="757.5" y="1098.7" class="st24" width="69.1" height="73.5"/>
							<rect x="765.8" y="1106.9" class="st21" width="52.6" height="57"/>
							<rect x="765.8" y="1106.9" class="st42" width="52.6" height="18.1"/>
							<path class="st23" d="M815.1,1110.2v50.4h-46v-50.4H815.1 M818.4,1106.9h-52.6v57h52.6V1106.9z"/>
							<rect x="575" y="1242.3" class="st24" width="69.1" height="73.5"/>
							<rect x="583.2" y="1250.5" class="st21" width="52.6" height="57"/>
							<rect x="583.2" y="1250.5" class="st42" width="52.6" height="18.1"/>
							<path class="st23" d="M632.6,1253.8v50.4h-46.1v-50.4H632.6 M635.8,1250.5h-52.6v57h52.6V1250.5L635.8,1250.5z"/>
							<line class="st22" x1="609.5" y1="1250.5" x2="609.5" y2="1307.5"/>
							<rect x="666.6" y="1242.3" class="st24" width="69.1" height="73.5"/>
							<rect x="674.8" y="1250.5" class="st21" width="52.6" height="57"/>
							<rect x="674.8" y="1250.5" class="st42" width="52.6" height="18.1"/>
							<path class="st23" d="M724.1,1253.8v50.4H678v-50.4H724.1 M727.4,1250.5h-52.6v57h52.6V1250.5z"/>
							<rect x="757.5" y="1242.3" class="st24" width="69.1" height="73.5"/>
							<rect x="765.8" y="1250.5" class="st21" width="52.6" height="57"/>
							<rect x="765.8" y="1250.5" class="st42" width="52.6" height="18.1"/>
							<path class="st23" d="M815.1,1253.8v50.4h-46v-50.4H815.1 M818.4,1250.5h-52.6v57h52.6V1250.5z"/>
							<rect x="869" y="1098.7" class="st32" width="53.5" height="61.4"/>
							<rect x="877.2" y="1106.9" class="st25" width="37" height="53.2"/>
							<rect x="877.2" y="1106.9" class="st25" width="37" height="53.2"/>
							<polygon class="st27" points="914.2,1106.9 914.2,1127 881.1,1160.1 877.2,1160.1 877.2,1143.8 914.1,1106.9 							"/>
							<polygon class="st27" points="914.2,1137 914.2,1144.8 898.9,1160.1 891.1,1160.1 							"/>
							<rect x="869" y="1160.1" class="st23" width="56.7" height="8.2"/>
							<rect x="869" y="1242.3" class="st32" width="53.5" height="61.4"/>
							<rect x="877.2" y="1250.5" class="st25" width="37" height="53.2"/>
							<polygon class="st27" points="904.8,1250.5 877.2,1278.2 877.2,1269.1 895.8,1250.5 							"/>
							<polygon class="st27" points="914.2,1253.5 914.2,1271.3 881.8,1303.7 877.2,1303.7 877.2,1290.5 							"/>
							<rect x="869" y="1303.7" class="st23" width="56.7" height="8.2"/>
							<rect x="869" y="1373.7" class="st32" width="53.5" height="61.4"/>
							<rect x="877.2" y="1382" class="st25" width="37" height="53.2"/>
							<polygon class="st27" points="914.2,1382 912,1382 877.2,1416.8 877.2,1435.1 879.4,1435.1 914.2,1400.3 							"/>
							<rect x="869" y="1435.1" class="st23" width="56.7" height="8.2"/>
							<rect x="941.7" y="1098.7" class="st32" width="53.5" height="61.4"/>
							<rect x="950" y="1106.9" class="st25" width="37" height="53.2"/>
							<polygon class="st27" points="987,1134.1 987,1145.3 972.2,1160.1 961,1160.1 							"/>
							<polygon class="st27" points="973.9,1106.9 950,1130.8 950,1119.6 962.7,1106.9 							"/>
							<rect x="941.7" y="1160.1" class="st23" width="56.7" height="8.2"/>
							<rect x="1013.8" y="1098.7" class="st32" width="53.5" height="61.4"/>
							<rect x="1022" y="1106.9" class="st25" width="37" height="53.2"/>
							<polygon class="st27" points="1059.1,1129.1 1059.1,1106.9 1053,1106.9 1022,1137.9 1022,1160.1 1028.1,1160.1 							"/>
							<rect x="1013.8" y="1160.1" class="st23" width="56.7" height="8.2"/>
							<rect x="869" y="955.1" class="st32" width="53.5" height="61.4"/>
							<rect x="877.2" y="963.3" class="st25" width="37" height="53.2"/>
							<polygon class="st27" points="900.7,963.3 877.2,986.8 877.2,977.8 891.7,963.3 							"/>
							<polygon class="st27" points="910.9,963.3 877.2,997 877.2,992.6 906.5,963.3 							"/>
							<polygon class="st27" points="914.2,992 914.2,1002.5 900.3,1016.5 889.7,1016.5 							"/>
							<rect x="869" y="1016.5" class="st23" width="56.7" height="8.2"/>
							<rect x="872.2" y="840.5" class="st25" width="37" height="34"/>
							<rect x="979.2" y="840.5" class="st25" width="37" height="34"/>
							<rect x="925.7" y="840.5" class="st25" width="37" height="34"/>
							<rect x="941.7" y="955.1" class="st32" width="53.5" height="61.4"/>
							<rect x="950" y="963.3" class="st25" width="37" height="53.2"/>
							<polygon class="st27" points="987,963.3 987,966.7 950,1003.7 950,993.9 980.5,963.3 							"/>
							<polygon class="st27" points="987,974.8 987,994.7 965.2,1016.5 950,1016.5 950,1011.8 							"/>
							<rect x="941.7" y="1016.5" class="st23" width="56.7" height="8.2"/>
							<rect x="1013.8" y="955.1" class="st32" width="53.5" height="61.4"/>
							<rect x="1022" y="963.3" class="st25" width="37" height="53.2"/>
							<polygon class="st27" points="1059,987.2 1059,995.1 1037.6,1016.5 1029.7,1016.5 							"/>
							<polygon class="st27" points="1059,966.6 1059,982.2 1024.8,1016.5 1022,1016.5 1022,1003.6 							"/>
							<rect x="1013.8" y="1016.5" class="st23" width="56.7" height="8.2"/>
							<rect x="489.5" y="1098.7" class="st40" width="53.5" height="61.4"/>
							<rect x="497.7" y="1106.9" class="st23" width="37" height="53.2"/>
							<rect x="501" y="1110.2" class="st21" width="30.4" height="46.6"/>
							<polygon class="st42" points="531.4,1129.4 531.4,1149.2 523.8,1156.8 504,1156.8 							"/>
							<polygon class="st42" points="531.4,1110.2 531.4,1118.1 501,1148.5 501,1139.6 530.4,1110.2 							"/>
							<rect x="486.2" y="1160.1" class="st31" width="56.7" height="8.2"/>
							<rect x="489.5" y="1242" class="st40" width="53.5" height="61.4"/>
							<rect x="497.7" y="1250.3" class="st23" width="37" height="53.2"/>
							<rect x="501" y="1253.6" class="st21" width="30.4" height="46.6"/>
							<polygon class="st42" points="531.4,1263.2 531.4,1271.1 501,1301.5 501,1292.6 530.4,1263.2 							"/>
							<polygon class="st42" points="515.4,1253.5 501,1267.9 501,1276.8 524.3,1253.5 							"/>
							<rect x="486.2" y="1303.4" class="st31" width="56.7" height="8.2"/>
							<rect x="592.5" y="820.8" class="st32" width="258.7" height="6"/>
						</g>
					</g>
					<path class="st43" d="M646.9,681.6c0,0,0.3-7.4,1.6-8.3s11.5-0.4,12.9,0.3s1.7,8.1,1.7,8.1L646.9,681.6L646.9,681.6z"/>
					<path class="st44" d="M646.4,681.3c0,0,0.3-6.3,1.4-7.4c1.2-1.2,9.9-1.2,12.8-0.5c2.9,0.7,2,8.1,2,8.1"/>
					<path class="st45" d="M679.1,759.8c-0.7,1.8-1.6,3.6-2.6,5.3c-1.3,2-45.9,7.8-45.9,7.8c-52.6,4.2-44.4-1.9-52.9-4.5
						c-2-0.6-3-1-3-1c-13.6-13-4.2-68.3-4.2-68.3c1.6-17.5,10.2-17,10.2-17l86.6-1c14.6,5,13.6,35.4,14.9,53.7
						C683.1,746.6,681,754.8,679.1,759.8z"/>
					<path class="st46" d="M574,697.7c0,0,39.6-2.8,66.5-2.1s37.4,1.7,37.4,1.7s0-17.2-14.3-16.3s-61.5,0.5-61.5,0.5
						s-22.6,0.7-25.6,2.6s-4.9,9.7-5.1,13.7L574,697.7z"/>
					<path class="st43" d="M587.2,681.6c0,0,0.3-7.4,1.6-8.3s11.5-0.4,12.9,0.3s1.7,8.1,1.7,8.1L587.2,681.6L587.2,681.6z"/>
					<path class="st45" d="M619,685.5c0,0,7-1.1,8.1-0.4s1.6,6.4,1.5,7.2s-6,1.9-8,1.3c-1.4-0.5-2.6-1.4-3.6-2.6L619,685.5z"/>
					<path class="st47" d="M576.1,697.5c0.7-3.5,2.4-6.6,4.9-9.2c4-3.8,78.4-3.1,83.8-3.3s7.7,4.3,8.1,5.9c0.5,1.6,1.2,5.9,1.2,5.9
						l3.8,0.5c0,0-0.5-15.6-14.3-16.3c-13.7-0.6-82.9,1.2-82.9,1.2s-7.1,3.3-7.3,5.7s-1.9,10.6-1.9,10.6L576.1,697.5z"/>
					<path class="st48" d="M670.3,697.3c0,0,4.2,29.2-0.5,49.5s-18.5,18-28.2,18s25.8,3.6,32.6-1.3c6.7-5,6.8-9.4,6.8-9.4
						s3.3-34.4-3.1-56.8l-8-0.8L670.3,697.3z"/>
					<path class="st49" d="M572.1,691.6c0,0-11,59.9,0.5,74s91.8,8.1,103.6-0.5c11.7-8.7,3.4-66.5-0.3-75.9s-9.9-7.8-22.4-8.3
						s-61.6,0.8-67.1,1C581,682.1,574.9,681.4,572.1,691.6z"/>
					<path class="st44" d="M574.9,697.8c24-1.9,44.5-1.7,44.5-1.7"/>
					<path class="st49" d="M618.2,685.9c0,0-1,3.4-0.3,5.8c0.8,2.4,9.1,1.3,10.3,0.7s0.3-5.7-0.5-6.8S619.6,684.7,618.2,685.9z"/>
					<path class="st44" d="M586.7,681.3c0,0,0.3-6.3,1.4-7.4c1.2-1.2,9.9-1.2,12.8-0.5c2.9,0.7,2,8.1,2,8.1"/>
					<path class="st44" d="M626.9,696.3c0,0,21.9-0.8,43,0.5"/>
					<line class="st50" x1="576" y1="707.3" x2="580.8" y2="707.4"/>
					<line class="st50" x1="574.8" y1="713.7" x2="581.2" y2="713.6"/>
					<line class="st50" x1="574.4" y1="720.5" x2="581" y2="720.7"/>
					<line class="st50" x1="573.9" y1="744.7" x2="580.5" y2="744.9"/>
					<line class="st50" x1="575.5" y1="751.9" x2="582.1" y2="752"/>
					<line class="st50" x1="578.1" y1="758.1" x2="582.6" y2="758.3"/>
					<line class="st50" x1="574.1" y1="729.3" x2="580.5" y2="729.3"/>
					<line class="st50" x1="574.4" y1="737.3" x2="580.8" y2="737.3"/>
					<line class="st50" x1="674.9" y1="708" x2="670" y2="708.1"/>
					<line class="st50" x1="676.1" y1="714.4" x2="669.7" y2="714.3"/>
					<line class="st50" x1="676.4" y1="721.2" x2="669.8" y2="721.4"/>
					<line class="st50" x1="677" y1="745.4" x2="670.3" y2="745.6"/>
					<line class="st50" x1="675.4" y1="752.6" x2="668.8" y2="752.7"/>
					<line class="st50" x1="672.8" y1="758.8" x2="668.2" y2="759"/>
					<line class="st50" x1="676.8" y1="729.3" x2="670.3" y2="729.3"/>
					<line class="st50" x1="676.4" y1="738" x2="670" y2="738"/>
					<path class="st51" d="M642.4,807c0.7-2.9,3.3-4.9,6.2-4.9h0.1c3,0,5.5,2,6.2,4.9H642.4z"/>
					<path class="st51" d="M611.5,801.5c2.3,1.8,3.1,5,1.9,7.7l-9.9-7.7c0.9-0.7,2-1.2,3.2-1.3C608.5,800,610.2,800.4,611.5,801.5z"
						/>
					<path class="st52" d="M614.4,794.4c-0.6,1.3-1.4,2.6-2.3,3.8c-0.7-0.4-1.5-0.7-2.2-0.9c0.9-1.2,1.7-2.4,2.3-3.7
						C612.9,794,613.6,794.3,614.4,794.4z"/>
					<path class="st52" d="M645.7,791.6c0.9,2.4,1.3,5,1.4,7.5c-0.8,0.1-1.6,0.4-2.3,0.7c0-2.6-0.5-5.2-1.4-7.7
						C644.2,791.8,644.9,791.6,645.7,791.6z"/>
					<path class="st48" d="M653.6,790.5c0.1,0.1,0,0.3-0.1,0.4c-0.1,0.1-0.3,0.1-0.4,0.1c-0.4-0.2-0.7-0.4-1.1-0.7
						c-1.5-1.1-3.2-1.7-5-1.8c-0.1,0-0.1,0-0.2,0h-0.5c-2,0-3.9,0.5-5.5,1.6l0,0l-0.2,0.1c-2.5,1.7-5.8,1.7-8.2,0
						c-3.5-2.4-8-2.4-11.5,0c-2.5,1.7-5.8,1.7-8.2,0l-0.1-0.1l0,0c-3.4-2.3-7.9-2.2-11.3,0.1c-0.4,0.2-0.7,0.5-1.1,0.7
						c-0.1,0.1-0.3,0.1-0.4-0.1c-0.1-0.1-0.2-0.3-0.1-0.4l7.7-23.3l1.9,0.8c-2,1.3-2.6,3.9-1.3,5.8c0.5,0.9,1.4,1.5,2.3,1.8
						c3.5,1,7.2,1.6,10.8,1.6c5.7,0.1,11.3-1.5,16.1-4.6c1.7-1.1,3.2-2.4,4.5-3.8l0.7-0.2h0.1l0.2-0.1h0.1c1.1-0.4,2.2-0.8,3.3-1.3
						L653.6,790.5z"/>
					<path class="st53" d="M646.4,793.8c-0.2-0.7-0.4-1.5-0.6-2.2c-0.8,0-1.6,0.2-2.3,0.5c0.2,0.6,0.4,1.2,0.6,1.9
						C644.8,793.9,645.5,793.8,646.4,793.8L646.4,793.8z"/>
					<path class="st53" d="M611.4,795c0.3,0.2,0.6,0.3,0.9,0.5l0,0l0.1,0.1c0.3,0.2,0.6,0.4,0.9,0.6c0.3-0.5,0.6-1.1,0.9-1.7
						c-0.8-0.2-1.5-0.4-2.2-0.8C612,794.1,611.7,794.5,611.4,795z"/>
					<path class="st52" d="M649.6,768.7c6.6-0.7,12.5-4.4,16-10c0.3-0.5,0.3-1.2,0-1.7s-0.5-1.1-0.6-1.8c-0.1-2,1.4-3.7,3.5-3.8
						c1-0.1,2,0.3,2.7,1c1.4,1.4,1.5,3.7,0.1,5.2c-0.6,0.6-1.4,1-2.3,1.1c-0.5,0-0.9,0.3-1.2,0.7c-3.7,6.3-10.2,10.5-17.5,11.4
						L649.6,768.7z"/>
					<path class="st52" d="M642.6,762.3c-0.6,1-1.2,1.9-1.9,2.8l-0.7,0.8c-0.1,0.2-0.3,0.3-0.4,0.5c-1.3,1.4-2.7,2.6-4.3,3.6
						c-4.3,2.8-9.3,4.2-14.4,4.1c-3.4,0-6.7-0.5-9.9-1.5c-0.3-0.1-0.6-0.3-0.7-0.6c-0.1-0.3-0.1-0.7,0-1c0.2-0.4,0.6-0.7,1.1-0.7
						c0.1,0,0.2,0,0.3,0c3.2,0.9,9.5,2.2,15.8,0.7h0.1c5.4-1.3,10-4.7,12.9-9.4c0.3-0.5,0.3-1.2,0-1.7s-0.5-1.1-0.6-1.8
						c-0.1-2,1.5-3.7,3.5-3.8l0,0c1,0,1.9,0.3,2.6,1c1.4,1.4,1.5,3.7,0.1,5.2c-0.6,0.6-1.4,1-2.3,1.1
						C643.3,761.6,642.9,761.9,642.6,762.3z"/>
					<path class="st54" d="M620.1,745.1h12.8c-0.2,3.5-3.2,6.3-6.8,6.1C622.9,751,620.3,748.4,620.1,745.1z"/>
					<path class="st52" d="M626.5,704.6c-18.9,0-34.2,14.4-34.2,32.1c0,7.8,3,15.3,8.3,21c2,2.2,4.4,4.1,6.9,5.7
						c1.3,0.8,2.6,1.5,3.9,2.1c4.3,1.5,8.8,2.3,13.3,2.4h0.8h0.9h0.4c2.7-0.7,5.1-2,7.2-3.8c1.2-1,2.3-2.2,3.2-3.6
						c-1.1-2.4-0.6-5.3,1.2-7.2c2.5-2.7,6.7-2.9,9.4-0.4l0.1,0.1c1.3,1.3,2,3,2,4.8c0,0.7-0.1,1.5-0.4,2.2c0.9-0.8,1.7-1.6,2.5-2.5
						c5.3-5.7,8.3-13.2,8.3-21C660.7,719,645.4,704.6,626.5,704.6z M608.6,733.8c2,0,3.6,1.6,3.6,3.6s-1.6,3.6-3.6,3.6
						s-3.6-1.6-3.6-3.6S606.6,733.8,608.6,733.8L608.6,733.8z M636,744.8c0,5.2-4.3,9.5-9.5,9.5s-9.5-4.3-9.5-9.5v-1.3
						c0-0.8,0.7-1.5,1.5-1.5h15.9c0.8,0,1.5,0.7,1.5,1.5l0,0L636,744.8z M637.4,723.6c-2.3-0.1-4.3-1.4-5.5-3.4
						c-1.5,3-5.1,4.3-8.2,2.8c-1.2-0.6-2.2-1.6-2.8-2.8c-1.1,2-3.2,3.3-5.4,3.4c-3.9,0-7-4.1-7-9c-0.1-0.8,0.5-1.6,1.4-1.7
						c0.8-0.1,1.6,0.5,1.7,1.4c0,0.1,0,0.2,0,0.4c0,3.2,1.8,5.9,3.9,5.9s3.9-2.7,3.9-5.9c-0.1-0.8,0.5-1.6,1.4-1.7
						c0.8-0.1,1.6,0.5,1.7,1.4c0,0.1,0,0.2,0,0.4c0,3.2,1.8,5.9,3.9,5.9s3.9-2.7,3.9-5.9c0.1-0.8,0.9-1.4,1.7-1.4
						c0.7,0.1,1.3,0.6,1.4,1.4c0,3.2,1.8,5.9,3.9,5.9s3.9-2.7,3.9-5.9c0.1-0.8,0.9-1.4,1.7-1.4c0.7,0.1,1.3,0.6,1.4,1.4
						C644.4,719.5,641.3,723.6,637.4,723.6L637.4,723.6z M644.4,741.1c-2,0-3.6-1.6-3.6-3.6s1.6-3.6,3.6-3.6s3.6,1.6,3.6,3.6
						S646.4,741.1,644.4,741.1L644.4,741.1z"/>
					<path class="st55" d="M649.8,760.2l0.3-0.3c0-0.3,0-0.5-0.1-0.8C650,759.4,649.9,759.8,649.8,760.2z"/>
					<path class="st55" d="M636.8,760.5c0,0.3,0,0.5,0.1,0.8c0.2-0.2,0.3-0.4,0.5-0.6c-0.2-0.5-0.4-1-0.5-1.6
						C636.8,759.6,636.7,760,636.8,760.5z"/>
					<path class="st56" d="M626.5,706.8c18.5,0,33.6,13.8,34.2,31c0-0.4,0-0.8,0-1.2c0-17.7-15.3-32.1-34.2-32.1
						s-34.2,14.4-34.2,32.1c0,0.4,0,0.8,0,1.2C592.9,720.7,608,706.8,626.5,706.8z"/>
					<path class="st57" d="M673.3,750.3c-1.3-1.3-3-1.9-4.9-1.9l0,0c-6.9,1.1-6.3,7.9-6.3,7.9c0.1,0.5,0.3,1,0.5,1.5
						c-3,4.5-7.9,7.4-13.3,7.9l8.1-9.2c4.2-5.7,6.5-12.7,6.5-19.8c0-19.3-16.7-35.2-37.3-35.2s-37.3,15.8-37.3,35.2
						c0,7.1,2.3,14,6.5,19.8l0,0c2.9,4.4,8.8,8.7,8.8,8.7l-0.2,0.7l-7.8,23.7c-0.6,1.8,0.4,3.8,2.2,4.3c0.9,0.3,1.8,0.2,2.6-0.2
						c0.5-0.2,0.9-0.5,1.3-0.8c1.2-0.9,2.6-1.4,4.1-1.3c0.9,0,1.9,0.2,2.8,0.5c-0.9,1.9-2.1,3.6-3.6,5.1c-2.3,0.4-4.4,1.7-5.9,3.5
						c-0.5,0.7-0.4,1.6,0.3,2.2l0,0l12.6,9.8c0.3,0.2,0.6,0.3,0.9,0.3h0.2c0.4-0.1,0.8-0.3,1-0.6c2.9-3.7,2.6-8.9-0.6-12.3
						c1.2-1.7,2.3-3.5,3.1-5.4c1.7-0.1,3.3-0.7,4.7-1.7c2.5-1.7,5.8-1.7,8.2,0c1.7,1.2,3.7,1.8,5.7,1.8c1.5,0,3-0.3,4.4-1
						c0.9,2.7,1.2,5.6,0.9,8.4c-1.6,1.7-2.5,4-2.5,6.4c0,0.8,0.7,1.5,1.5,1.5h16c0.8,0,1.5-0.7,1.5-1.5c0-4.7-3.4-8.6-8-9.4
						c0-2.3-0.4-4.7-1-6.9c0.4,0.2,0.8,0.4,1.2,0.7s0.8,0.5,1.3,0.8c1.3,0.6,2.8,0.5,3.8-0.5c1.1-0.9,1.5-2.4,1-3.7l-5.2-15.7
						c7.7-1.1,14.6-5.6,18.8-12.2c3.6-0.8,5.9-4.4,5.1-8C675,752.3,674.3,751.1,673.3,750.3L673.3,750.3z M600.2,757.3
						c-5.1-5.6-7.9-13-7.9-20.6c0-17.7,15.3-32.1,34.2-32.1s34.2,14.4,34.2,32.1c-0.1,9-4,17.6-10.9,23.5c0.2-0.7,0.4-1.4,0.4-2.2
						c0-1.8-0.7-3.5-2-4.8c-2.6-2.6-6.9-2.5-9.5,0.1l-0.1,0.1c-1.8,1.9-2.3,4.8-1.2,7.2c-0.6,0.9-1.3,1.8-2.1,2.6
						c-2.3,2.3-5.1,4-8.3,4.8h-0.4h-0.9h-0.8c-4.5-0.2-9-1-13.3-2.4c-1.4-0.6-2.7-1.3-3.9-2.1C604.8,761.7,602.3,759.6,600.2,757.3z
						 M640.4,759.9c-0.3-0.5-0.5-1.1-0.6-1.8c-0.1-2,1.5-3.7,3.5-3.8l0,0c1,0,1.9,0.3,2.6,1c1.4,1.4,1.5,3.7,0.1,5.2
						c-0.6,0.6-1.4,1-2.3,1.1c-0.5,0-0.9,0.3-1.2,0.7c-0.4,0.7-0.8,1.3-1.3,2c-0.2,0.3-0.4,0.5-0.6,0.8l-0.7,0.8
						c-0.1,0.2-0.3,0.3-0.4,0.5c-1.3,1.4-2.7,2.6-4.3,3.6c-4.3,2.8-9.3,4.2-14.4,4.1c-3.4,0-6.7-0.5-9.9-1.5
						c-0.3-0.1-0.6-0.3-0.7-0.6c-0.1-0.3-0.1-0.7,0-1c0.2-0.4,0.6-0.7,1.1-0.7c0.1,0,0.2,0,0.3,0c3.2,0.9,9.5,2.2,15.8,0.7h0.1
						c4.4-1.1,8.3-3.6,11.2-7.1c0.6-0.7,1.1-1.5,1.6-2.3C640.7,761.1,640.7,760.4,640.4,759.9z M613.5,809.2l-9.9-7.7
						c0.9-0.7,2-1.2,3.2-1.3c3.5-0.5,6.7,2,7.2,5.6C614.1,806.9,613.9,808.1,613.5,809.2z M612.1,798.2c-0.7-0.4-1.5-0.7-2.2-0.9
						c0.9-1.2,1.7-2.4,2.3-3.7c0.7,0.4,1.4,0.6,2.2,0.8C613.7,795.8,613,797,612.1,798.2L612.1,798.2z M654.9,807h-12.5
						c0.7-2.9,3.3-4.9,6.2-4.9h0.1C651.6,802.1,654.2,804.1,654.9,807z M643.5,792.1c0.7-0.3,1.5-0.5,2.3-0.5c0.9,2.4,1.3,5,1.4,7.5
						c-0.8,0.1-1.6,0.4-2.3,0.7C644.8,797.2,644.4,794.6,643.5,792.1z M653.6,790.5c0.1,0.1,0,0.3-0.1,0.4c-0.1,0.1-0.3,0.1-0.4,0.1
						c-0.4-0.2-0.7-0.4-1.1-0.7c-1.5-1.1-3.2-1.7-5-1.8c-0.1,0-0.1,0-0.2,0h-0.5c-2,0-3.9,0.5-5.5,1.6l0,0l-0.2,0.1
						c-2.5,1.7-5.8,1.7-8.2,0c-3.5-2.4-8-2.4-11.5,0c-2.5,1.7-5.8,1.7-8.2,0l-0.1-0.1l0,0c-3.4-2.3-7.9-2.2-11.3,0.1
						c-0.4,0.2-0.7,0.5-1.1,0.7c-0.1,0.1-0.3,0.1-0.4-0.1c-0.1-0.1-0.2-0.3-0.1-0.4l7.7-23.3l1.9,0.8c-2,1.3-2.6,3.9-1.3,5.8
						c0.5,0.9,1.4,1.5,2.3,1.8c3.5,1,7.2,1.6,10.8,1.6c5.7,0.1,11.3-1.5,16.1-4.6c1.7-1.1,3.2-2.4,4.5-3.8l0.7-0.2h0.1l0.2-0.1h0.1
						c1.1-0.4,2.2-0.8,3.3-1.3L653.6,790.5z M669.1,758.7c-0.5,0-0.9,0.3-1.2,0.7c-3.7,6.3-10.2,10.5-17.5,11.4l-0.7-2.2
						c6.6-0.7,12.5-4.4,16-10c0.3-0.5,0.3-1.2,0-1.7s-0.5-1.1-0.6-1.8c-0.1-2,1.4-3.7,3.5-3.8c1-0.1,2,0.3,2.7,1
						c1.4,1.4,1.5,3.7,0.1,5.2C670.7,758.2,669.9,758.6,669.1,758.7L669.1,758.7z"/>
					<ellipse class="st57" cx="644.4" cy="737.4" rx="3.6" ry="3.6"/>
					<path class="st57" d="M642.9,713.1c0.8,0,1.5,0.7,1.5,1.5l0,0c0,5-3.1,9-7,9c-2.3-0.1-4.3-1.4-5.5-3.4c-1.5,3-5.1,4.3-8.2,2.8
						c-1.2-0.6-2.2-1.6-2.8-2.8c-1.1,2-3.2,3.3-5.4,3.4c-3.9,0-7-4.1-7-9c-0.1-0.8,0.5-1.6,1.4-1.7c0.8-0.1,1.6,0.5,1.7,1.4
						c0,0.1,0,0.2,0,0.4c0,3.2,1.8,5.9,3.9,5.9s3.9-2.7,3.9-5.9c-0.1-0.8,0.5-1.6,1.4-1.7c0.8-0.1,1.6,0.5,1.7,1.4
						c0,0.1,0,0.2,0,0.4c0,3.2,1.8,5.9,3.9,5.9s3.9-2.7,3.9-5.9c0.1-0.8,0.9-1.4,1.7-1.4c0.7,0.1,1.3,0.6,1.4,1.4
						c0,3.2,1.8,5.9,3.9,5.9s3.9-2.7,3.9-5.9C641.3,713.7,642,713.1,642.9,713.1L642.9,713.1z"/>
					<path class="st57" d="M636,743.6v1.3c0,5.2-4.3,9.5-9.5,9.5s-9.5-4.3-9.5-9.5v-1.3c0-0.8,0.7-1.5,1.5-1.5h15.9
						C635.3,742.1,636,742.7,636,743.6z M632.9,745.1H620c0.2,3.5,3.2,6.3,6.8,6.1C630.1,751,632.7,748.4,632.9,745.1L632.9,745.1z"
						/>
					<ellipse class="st57" cx="608.5" cy="737.4" rx="3.6" ry="3.6"/>
					<path class="st53" d="M649.8,760.2c0.9-0.8,1.7-1.6,2.5-2.5c-0.7,0.4-1.5,0.9-2.2,1.3C650.1,759.4,650,759.8,649.8,760.2z"/>
					<path class="st53" d="M600.6,757.7c2,2.2,4.4,4.1,6.9,5.7c1.3,0.8,2.6,1.5,3.9,2.1c4.3,1.5,8.8,2.3,13.3,2.4h0.8h0.9h0.4
						c2.7-0.7,5.1-2,7.2-3.8c-2.5,0.4-5.1,0.6-7.7,0.6C617.4,764.8,608.4,762.4,600.6,757.7z"/>
					<circle class="st48" cx="602.9" cy="748.7" r="4.2"/>
					<circle class="st48" cx="650.1" cy="748.7" r="4.2"/>
					<path class="st57" d="M668.4,748.4c0,0-6.7,0.8-6.4,7.9"/>
				</g>
			</g>
		</g>
	</g>
</g>
<g>
	<g>
		<path class="st58" d="M862.8,787.1c-57.3,0-114.6,0-171.9,0c-0.3,0-0.4-0.1-0.4-0.4c0-10.7,0-21.3,0-32c0-0.3,0.1-0.4,0.4-0.4
			c114.6,0,229.2,0,343.8,0c0.3,0,0.4,0.1,0.4,0.4c0,10.7,0,21.3,0,32c0,0.3-0.1,0.4-0.4,0.4C977.4,787.1,920.1,787.1,862.8,787.1z
			 M695.2,764.1c0.9-0.1,1.7-0.1,2.6,0.2c0.4,0.1,0.7,0.4,1.2,0.3c0.2,0,0.2,0.1,0.2,0.2c0.1,0.5,0.2,0.9,0.3,1.4
			c0.1,0.6,0.3,1.2,0.4,1.9c0.3-1.1,0.6-2.1,0.9-3.2c0.1-0.3,0.2-0.4,0.5-0.4s0.4,0.1,0.5,0.4c0.3,1,0.6,2,0.9,3
			c0.1-0.1,0.1-0.2,0.1-0.2c0.2-0.9,0.4-1.7,0.5-2.6c0.1-0.6,0.1-0.6,0.7-0.6c0.3,0,0.4,0.1,0.3,0.4c-0.3,1.2-0.6,2.5-0.9,3.7
			c-0.2,0.8-0.2,0.8,0.6,0.8c0.5,0,1,0,1.6,0c-1.4-1-1.3-3.1-0.6-4.1c0.5-0.7,1.2-1.1,2.1-1s1.4,0.6,1.6,1.5c0.1,0.3,0.1,0.7,0.1,1
			s-0.1,0.4-0.4,0.4c-0.8,0-1.7,0-2.5,0c-0.3,0-0.4,0.1-0.3,0.4c0.1,0.7,0.6,1.2,1.3,1.2c0.6,0,1.1-0.1,1.6-0.5
			c0.1-0.1,0.3-0.2,0.3,0c0,0.3,0.1,0.7-0.1,1c0.5,0,1,0,1.5,0c-1.4-1-1.2-3.2-0.5-4.1c0.8-1,2.3-1.2,3.2-0.3
			c0.5,0.5,0.6,1.2,0.6,1.9c0,0.3-0.1,0.4-0.4,0.4c-0.8,0-1.7,0-2.5,0c-0.3,0-0.4,0.1-0.3,0.4c0.1,0.7,0.6,1.2,1.3,1.2
			c0.6,0,1.1-0.2,1.6-0.5c0.1-0.1,0.3-0.2,0.3,0.1c0,0.3,0.1,0.7-0.1,1c0.4,0,0.8,0,1.3,0c-0.4-0.5-0.5-1-0.5-1.5c0-0.7,0-1.4,0-2.1
			c0-0.2,0-0.3-0.3-0.3c-0.4,0-0.2-0.3-0.2-0.5s0-0.4,0.3-0.3c0.2,0,0.3-0.1,0.3-0.3c0-0.3,0-0.6,0-0.9c0-0.1,0-0.3,0.1-0.3
			c0.3,0,0.5-0.1,0.8,0c0.2,0.1,0.1,0.3,0.1,0.5c0,0.2,0,0.4,0,0.6s0.1,0.3,0.3,0.3c0.3,0,0.6,0,0.9,0s0.3,0.2,0.3,0.4
			c0,0.2,0.2,0.5-0.3,0.5c-0.3,0-0.6,0-0.9,0c-0.2,0-0.3,0.1-0.3,0.3c0,0.8,0,1.7,0,2.5c0,0.5,0.3,0.8,0.8,0.7
			c0.4-0.1,0.8-0.2,0.7,0.5v0.1h0.1c0.1,0,0-0.1,0-0.1c-0.1-0.2,0-0.5,0-0.7c0-0.1-0.1-0.2,0.1-0.3c0.1-0.1,0.2,0.1,0.3,0.1
			c0.4,0.3,0.9,0.5,1.4,0.5s0.8-0.2,0.8-0.6c0-0.4-0.1-0.5-0.7-0.7c-0.3-0.1-0.7-0.1-1-0.3c-1-0.4-1.3-1.6-0.5-2.4
			c0.3-0.4,0.8-0.5,1.3-0.5c0.3,0,0.3-0.1,0.2-0.3c-2.8-4.8-8-7.5-13.8-6.7c-3.3,0.5-6,2-8.1,4.5
			C696.1,762.6,695.6,763.2,695.2,764.1L695.2,764.1L695.2,764.1z M1027.4,768.9c-0.5-0.2-0.5-0.2-0.7,0.2c-0.5,0.9-1,1.7-1.5,2.6
			c-0.1,0.2-0.2,0.2-0.4,0c-0.5-0.7-1-1.3-1.6-2c-0.2-0.2-0.3-0.6-0.6-0.7c-0.3-0.1-0.5,0.3-0.7,0.5c0,0,0,0-0.1,0
			c0,0,0-0.1-0.1-0.1c0-0.1,0-0.1,0.1-0.2c0.6-1.2,1.2-2.5,1.7-3.7c0.1-0.2,0.1-0.3-0.2-0.4c-0.8-0.4-1.6-0.7-2.4-1.1
			c-0.2-0.1-0.3-0.1-0.4,0.2c-0.5,1.2-1,2.3-1.5,3.4c-0.5,0.9-0.9,1.8-1.4,2.7h-0.1c0-0.1,0-0.2,0-0.3c0-1.7,0-3.5,0-5.2
			c0-0.4,0.1-0.4,0.5-0.4c0.7,0.1,0.7,0.1,0.7-0.6c0-0.8,0-0.8-0.8-0.9c-0.2,0-0.3-0.1-0.3-0.3c0-0.8,0-1.7,0-2.5
			c0-0.3,0-0.4-0.4-0.4c-0.9,0-1.8,0-2.7,0c-0.3,0-0.4,0.1-0.4,0.4c0,0.8,0,1.5,0,2.3c0,0.3-0.1,0.4-0.4,0.4c-1,0-2.1,0-3.1,0.2
			c-0.3,0-0.8-0.1-1,0.2c-0.2,0.2,0,0.7-0.1,1c0,0.4,0.1,0.5,0.4,0.4c0.2-0.1,0.3,0,0.3,0.2c-0.1,2.4-0.3,4.8-0.4,7.1
			c-0.2,2.9-0.4,5.8-0.7,8.7c0,0.2,0,0.3,0.2,0.3c0.9,0.1,1.8,0.2,2.7,0.3c0.3,0,0.4,0,0.4-0.3c0.2-2.3,0.3-4.6,0.5-6.9
			c0.1-0.7,0.1-1.5,0.2-2.3c0.2,0.2,0.2,0.3,0.3,0.4c0.4,0.3,0.5,0.7,0.5,1.2c0,2.8,0,5.5,0,8.3c0,0.3,0.1,0.4,0.4,0.4
			c0.9,0,1.8,0,2.8,0c0.3,0,0.4-0.1,0.4-0.4c0-1.8,0-3.6,0-5.4c0-0.1,0-0.3,0-0.5c0.1,0.1,0.2,0.2,0.3,0.2c0.2,0.3,0.4,0.2,0.6,0
			c0.6-0.7,1.2-1.4,1.8-2.1c0.2-0.2,0.1-0.3,0-0.4c-0.8-0.6-1.6-1.3-2.4-2c-0.1-0.1-0.3-0.2-0.2-0.5c0.7,0.4,1.5,0.7,2.2,1.1
			c0.5,0.2,0.5,0.2,0.8-0.1c0.7,0.9,1.4,1.9,2.1,2.8c0.2,0.2,0.2,0.4,0,0.6c-1.2,1.4-2.4,2.7-3.8,4c-0.2,0.2-0.2,0.2,0,0.4
			c0.6,0.7,1.2,1.3,1.8,2c0.1,0.1,0.2,0.2,0.4,0c0.1-0.1,0.2-0.1,0.2-0.2c1.3-1.2,2.5-2.5,3.7-3.9c0.1,0.1,0.2,0.2,0.3,0.3
			c1.1,1.3,2.1,2.5,3.3,3.7c0.2,0.2,0.3,0.2,0.5,0c0.8-0.7,1.5-1.3,2.3-1.9c0.3-0.2,0.3-0.3,0-0.6c-1.4-1.4-2.7-2.8-3.9-4.2
			c-0.2-0.2-0.2-0.4,0-0.6c0.4-0.6,0.8-1.3,1.2-1.9c0.1-0.1,0.1-0.2,0.2-0.2c0.2,0.5,0.2,0.5,0.7,0.2c0.8-0.4,1.6-0.9,2.4-1.3
			c0.2-0.1,0.2-0.2,0.1-0.4c-1-2.1-1.9-4.2-2.7-6.3c-0.1-0.3-0.2-0.2-0.4-0.1c-0.8,0.4-1.6,0.7-2.5,1.1c-0.3,0.1-0.3,0.3-0.2,0.5
			C1026.7,766.8,1027.1,767.9,1027.4,768.9L1027.4,768.9z M741.8,774.9c0.1,0,0.1,0,0.2,0c1.3,0.1,2.5,0.1,3.8,0.2
			c0.2,0,0.3,0,0.3-0.3c0-0.3,0-0.6,0-0.9c0-0.1,0-0.2-0.2-0.2c-0.3,0.1-0.3-0.1-0.2-0.3c0.2-1.7,0.3-3.4,0.2-5.1
			c-0.1-1.8-0.9-2.8-2.4-3.3c-0.4-0.1-0.9-0.2-1.4-0.3c-1.5-0.1-2.9-0.1-4.4,0c-0.3,0-0.4-0.1-0.3-0.3c0-0.4,0-0.8,0-1.2
			c0-0.3,0.1-0.3,0.3-0.3c2.3,0,4.7,0.1,7,0.2c1.2,0.1,1.2,0.1,1.1-1.1l0,0c0-0.2-0.1-0.2-0.2-0.2c-0.4,0-0.7,0-1.1,0
			c-2.3-0.1-4.6-0.2-6.9-0.2c-0.3,0-0.3-0.1-0.3-0.3c0-0.4,0-0.8,0-1.1c0-0.3-0.1-0.3-0.3-0.3c-1.1,0-2.2,0-3.3,0
			c-0.3,0-0.4,0.1-0.4,0.4s0,0.7,0,1s0,0.4-0.4,0.4c-2.3,0-4.7,0.1-7,0.2c-0.3,0-0.8-0.1-1,0.1s0,0.7-0.1,1c0,0.2,0,0.3,0.3,0.3
			c0.7-0.1,1.5-0.1,2.2-0.1c1.9-0.1,3.8-0.1,5.6-0.1c0.2,0,0.3,0,0.3,0.2c0,0.6,0,1.2,0,1.7c0,0.2-0.1,0.2-0.2,0.2
			c-1.3,0.2-2.5,0.3-3.8,0.5c-0.5,0.1-0.5,0.1-0.4-0.4c0-0.2,0.1-0.3-0.2-0.3c-1.1,0-2.2,0-3.4,0c-0.2,0-0.3,0-0.3,0.2
			c0,0.5-0.1,1-0.2,1.5c-0.3,3.2-0.3,6.3,0.1,9.5c0,0.3,0.1,0.4,0.4,0.4c0.8,0,1.6,0,2.5,0c-1,1.2-2,2.3-3.1,3.5
			c1.2,0.7,2.3,1.5,3.5,2.2c0.2,0.2,0.3-0.1,0.4-0.2c1.3-1.7,2.5-3.4,3.7-5.1c0.3-0.5,0.6-1,1-1.6c0,2.2,0,4.4,0,6.5
			c0,0.3,0.1,0.4,0.4,0.4c1.1,0,2.1,0,3.2,0c0.3,0,0.4-0.1,0.4-0.4c0-2,0-4.1,0-6.1c0-0.1,0-0.3,0-0.4c0.1,0.1,0.2,0.2,0.3,0.3
			c1.2,2.2,2.5,4.3,4,6.3c0.1,0.2,0.3,0.3,0.5,0.1c1.1-0.6,2.3-1.2,3.4-1.7c0.2-0.1,0.3-0.2,0.1-0.4c-0.5-0.6-1.1-1.2-1.6-1.8
			C743.3,776.9,742.6,776,741.8,774.9z M944,775.1c-2.2,0-4.4,0.1-6.6,0.2c-0.3,0-0.8-0.1-1,0.1c-0.2,0.2,0,0.7-0.1,1.1
			c0,0.3,0.1,0.3,0.4,0.3c0.5,0,1.1-0.1,1.6-0.1c2.6-0.1,5.3-0.2,8-0.2c1.6,0,3.2,0,4.8,0c0.3,0,0.5,0.1,0.5,0.5
			c0,0.8,0,1.6-0.1,2.3c-0.1,0.7-0.3,0.9-0.9,0.9c-1.2,0.1-2.5,0-3.7-0.1c-0.4,0-0.9-0.2-1.1,0c-0.2,0.2,0,0.7-0.1,1.1
			c0,0.3,0.1,0.3,0.3,0.3c0.6,0,1.1,0.1,1.7,0.1c1.9,0.1,3.8,0.2,5.8-0.1c1.2-0.2,1.8-0.4,2-1.9c0.1-0.9,0.1-1.8,0.1-2.7
			c0-0.3,0.1-0.4,0.4-0.3c0.5,0,0.9,0,1.4,0.1c0.2,0,0.2,0,0.2-0.2c0-0.3,0-0.6,0-0.9c0-0.3-0.1-0.3-0.3-0.3c-0.5,0-0.9-0.1-1.4-0.1
			c-0.2,0-0.4,0-0.4-0.3c0-0.6-0.1-1.1-0.1-1.7c0-0.3,0.1-0.4,0.4-0.4s0.8,0.3,1,0c0.2-0.3,0-0.7,0-1.1c0-0.1,0-0.2-0.1-0.2
			c-0.4,0-0.3-0.2-0.3-0.4c0-1.6,0-3.2,0-4.8c0-1-0.5-1.7-1.4-2.1c-0.5-0.2-0.9-0.3-1.4-0.3c-1.4-0.1-2.8,0-4.1,0
			c-0.6,0-0.6,0-0.6-0.5c0-0.2,0-0.4,0-0.6c-0.1-0.4,0.1-0.5,0.5-0.5c2.4,0.1,4.8,0.1,7.3,0.2c0.3,0,0.7,0.1,0.9,0
			c0.2-0.2,0-0.6,0.1-0.9c0.1-0.4-0.1-0.5-0.5-0.5c-2.5-0.1-4.9-0.2-7.4-0.2c-0.8,0-0.8,0-0.8-0.8c0-0.1,0-0.2,0-0.2
			c0-0.3-0.1-0.4-0.4-0.4c-0.8,0-1.6,0-2.4,0c-0.3,0-0.8-0.1-1,0.1s0,0.6-0.1,1l0,0c0.1,0.3-0.1,0.4-0.4,0.4c-2.4,0-4.7,0.1-7.1,0.2
			c-1.2,0.1-1.2,0-1.1,1.2c0,0.2,0,0.3,0.3,0.3c0.8-0.1,1.7-0.1,2.6-0.1c1.8-0.1,3.5-0.1,5.3-0.2c0.3,0,0.4,0.1,0.4,0.4
			c0,0.4,0,0.9,0,1.3c0,0.2,0,0.3-0.2,0.3c-1.3,0.1-2.5,0.3-3.8,0.4c-0.3,0-0.4-0.1-0.3-0.3c0.1-0.2,0-0.3-0.3-0.3c-1,0-2,0-3,0
			c-0.2,0-0.3,0.1-0.3,0.3c-0.4,3.1-0.4,6.2,0,9.3c0,0.3,0.1,0.3,0.4,0.3c0.9,0,1.9,0,2.8,0c0.4,0,0.5-0.1,0.4-0.5v-0.1
			c-0.1-0.3,0-0.4,0.3-0.4c1.1,0,2.3-0.1,3.4-0.1c2.2,0,4.4,0,6.7,0c0.1,0,0.3-0.1,0.3,0.2c0,0.6,0.1,1.3,0.1,1.9
			c0,0.2,0,0.3-0.3,0.3C948.9,775.1,946.4,775,944,775.1z M714.6,777.8c-0.3-0.1-0.6-0.3-0.8-0.5c-1-1-1.1-3.1-0.1-4.1
			c0.6-0.7,1.4-0.8,2.2-0.6c0.8,0.2,1.1,0.8,1.3,1.6c0,0.3,0,0.5,0.1,0.8c0,0.3-0.1,0.4-0.4,0.4c-0.9,0-1.7,0-2.6,0
			c-0.3,0-0.4,0.1-0.3,0.4c0.1,0.6,0.4,1,0.9,1.2c0.6,0.2,1.2,0.1,1.6-0.5c0.4-0.5,0.9-0.5,1.3-0.2s0.4,0.8,0,1.3
			c-0.6,0.8-1.4,1.3-2.3,1.7c-3.2,1.4-6.5,1.7-9.9,0.8c-2.5-0.6-4.5-1.9-5.8-4.1c-0.2-0.4-0.4-0.7-0.6-1.1c-0.9,1.9-2.5,2.2-4.5,1.9
			c1.9,3.7,4.8,6.2,8.7,7.1c5.4,1.3,10-0.1,13.6-4.3c2.6-3,3.6-6.6,3.1-10.6c-0.3,0.3-0.5,0.5-0.7,0.7c-0.1,0.1-0.1,0.1,0,0.2
			c0.5,0.8,0.1,1.4-0.8,1.4c-1.7,0-3.4,0-5.1,0c-0.2,0-0.4,0-0.4,0.3c0,0.2-0.1,0.2-0.2,0.2c-0.3-0.1-0.6-0.1-0.9,0
			s-0.6,0.4-0.5,0.9c0,0.4,0.3,0.1,0.5,0.2c0.1,0,0.2,0,0.4,0c0.3,0,0.4,0.1,0.4,0.4s-0.1,0.5-0.4,0.4c-0.1,0-0.2,0-0.4,0
			c-0.4-0.1-0.5,0.1-0.5,0.5c0,1.1,0,2.2,0,3.2c0,0.6,0,0.6-0.5,0.6s-0.5,0-0.5-0.5c0-1.1,0-2.2,0-3.4c0-0.2,0-0.4-0.2-0.4
			c-0.4,0-0.3-0.2-0.3-0.4c0-0.2-0.1-0.5,0.3-0.4c0.1,0,0.2,0,0.2-0.2c0-0.4,0.1-0.8,0.4-1.2c-0.2,0-0.4,0-0.5,0c-3.2,0-6.4,0-9.6,0
			c-0.7,0-0.7,0-0.6,0.7c0.3,3.2,2.3,5.5,5.3,6.4c1.9,0.5,3.8,0.7,5.7,0.4C712.4,778.4,713.5,778.2,714.6,777.8z M882,762.8
			c0.2-0.6,0.3-1.1,0.5-1.6c0.1-0.3,0-0.3-0.2-0.4c-0.8-0.3-1.6-0.7-2.3-1c-0.2-0.1-0.3-0.1-0.4,0.2c-0.3,1-0.7,2-1,3.1
			c-0.1,0.2-0.2,0.4-0.5,0.4c-2.2,0.5-4.4,1.2-6.5,2.3c-1,0.6-1,0.6-0.6,1.7c0.1,0.3,0.2,0.3,0.4,0.1c1.2-0.6,2.4-1.2,3.7-1.6
			c0.8-0.3,1.7-0.6,2.5-0.8c0,0.1,0,0.2-0.1,0.3c-2,4.8-4.4,9.3-7.3,13.6c-0.1,0.2-0.2,0.3,0.1,0.5c0.7,0.4,1.3,0.9,2,1.3
			c0.5,0.3,0.5,0.3,0.9-0.2c3.3-4.8,5.9-10,8-15.5c0.3-0.8,0.3-0.8,1.2-0.8c1.7,0,2.8,1.1,2.8,2.8c0,1.4-0.2,2.7-0.5,4
			c-0.7,3-1.9,5.8-3.3,8.6c-0.1,0.3-0.1,0.4,0.2,0.5c0.9,0.4,1.8,0.8,2.7,1.3c0.3,0.2,0.4,0.1,0.6-0.2c1.1-2.4,2-4.8,2.7-7.3
			c0.5-1.9,1-3.9,0.9-5.9c-0.1-2.6-1.5-4.4-4-5.1C883.6,762.8,882.8,762.8,882,762.8z M974.2,779.9c0,0.4,0,0.8,0,1.2
			c0,0.2,0.1,0.3,0.3,0.3c1.5,0.4,3.1,0.6,4.7,0.5c1.3-0.1,2.1-0.7,2.4-1.8c0.1-0.4,0.1-0.7,0.2-1.1c0.2-2.2,0.2-4.4,0.2-6.6
			c0-2.3,0-4.6,0-6.9c0-1.2-0.1-2.4-0.3-3.6c-0.2-1.2-1-2.1-2.3-2.3c-1.2-0.2-2.4-0.1-3.6,0.2c-0.1,0-0.3,0.1-0.3,0
			c0-0.3-0.2-0.2-0.3-0.2c-1,0-2,0-3,0c-0.3,0-0.3,0.1-0.3,0.3c-0.1,0.8-0.2,1.5-0.2,2.3c-0.2,2.7-0.2,5.5,0.1,8.2
			c0,0.2,0.1,0.3,0.3,0.3c1,0,1.9,0,2.9,0c0.1,0,0.2,0.1,0.3-0.1c0-0.2,0.2-0.2,0.4-0.2c0.8,0,1.5,0,2.3,0c0.3,0,0.4,0.1,0.4,0.4
			c0,1.5,0,3.1-0.1,4.6c0,1.3,0,2.6-0.1,3.9c-0.1,0.9-0.4,1.2-1.4,1C975.9,780.3,975.1,780.1,974.2,779.9z M863.2,764.9
			c0-1-0.5-2.1-1.6-2.9c-1.2-1-2.6-1.2-4-1c-2.7,0.3-4.4,2.8-3.7,5.4c0.3,1,0.7,1.8,1.2,2.7c0.1,0.2,0.1,0.3-0.1,0.5
			c-0.2,0.1-0.4,0.3-0.6,0.5c-1.3,1.1-2.2,2.3-2.4,4c-0.4,2.9,1.9,5.6,4.8,5.6c1.6,0,3.1-0.6,4.4-1.6c0.2-0.2,0.3-0.2,0.5,0
			c0.5,0.5,0.9,1.1,1.4,1.6c0.1,0.1,0.2,0.2,0.4,0c0.6-0.6,1.3-1.3,2-1.9c0.2-0.2,0.1-0.3,0-0.4c-0.5-0.6-1-1.1-1.5-1.7
			c-0.2-0.2-0.2-0.4-0.1-0.6c0.9-1.2,1.5-2.6,2.1-3.9c0.1-0.2,0.1-0.3-0.2-0.4c-0.3-0.1-0.5-0.3-0.8-0.4c-0.2-0.1-0.3-0.1-0.4,0.1
			c-0.4,1.2-1,2.4-1.8,3.5c-0.1,0.2-0.2,0.2-0.3,0c-0.9-1.1-1.8-2.2-2.6-3.3c-0.1-0.2-0.1-0.3,0.1-0.4c0.4-0.3,0.9-0.6,1.2-1
			C862.3,768.2,863.2,766.9,863.2,764.9z M762.1,776c0-1.1,0-2,0-2.9c0-0.3-0.1-0.7,0.1-0.9c0.2-0.2,0.6,0,0.9,0
			c1.8,0,3.5,0.1,5.3,0.2c1.3,0.1,1.3,0.1,1.2-1.2v-0.1c0-0.1,0-0.1-0.1-0.1c-0.3,0-0.3-0.2-0.3-0.4c0-1.1,0-2.1,0-3.2
			c-0.1-1.2-0.7-2.1-1.9-2.6c-0.7-0.3-1.5-0.4-2.2-0.4c-2.5-0.1-5.1,0.2-7.6,0.5c-1.1,0.1-2.2,0.3-3.3,0.5c-0.2,0-0.3,0-0.3-0.2
			c0-0.1,0-0.2,0-0.3c0.1-0.3,0-0.3-0.3-0.3c-1,0-2,0-3,0c-0.2,0-0.3,0.1-0.4,0.3c-0.3,2.8-0.3,5.6,0,8.3c0,0.2,0.1,0.3,0.3,0.3
			c0.8,0,1.7,0,2.5,0c0.9,0,0.9,0,0.7-0.9c0-0.2,0-0.3,0.2-0.3c1.3,0,2.6-0.1,4-0.1c0.3,0,0.4,0.1,0.4,0.4c0,1.8,0,3.6,0,5.4
			c0,0.4,0,0.9-0.1,1.3c-0.1,0.6-0.3,0.7-0.8,0.8c-0.7,0.1-1.4,0-2.1-0.2c-0.2-0.1-0.3,0-0.3,0.2c0,0.3,0,0.6,0,0.9
			c0,0.2,0.1,0.3,0.3,0.3c1.7,0.3,3.4,0.3,5.1,0.1c0.4,0,0.8-0.1,1.2-0.4c0.4-0.3,0.4-0.8,0.5-1.3
			C762.2,778.4,762.1,777.1,762.1,776z M785.2,760.9c-3.6,0.1-7.1,0.9-10.5,2.2c-0.8,0.3-0.8,0.3-0.5,1.1c0.3,0.7,0.3,0.7,0.9,0.4
			c2.1-0.9,4.2-1.4,6.4-1.8c1.2-0.2,2.5-0.4,3.7-0.4c1.1,0,1.5,0.5,1.5,1.5c0,0.9-0.3,1.6-0.7,2.4c-1.2,2.5-3,4.6-5,6.5
			c-2.4,2.2-5.1,4-8,5.5c-0.3,0.1-0.3,0.3-0.1,0.5c0.5,0.7,0.9,1.5,1.4,2.2c0.2,0.3,0.3,0.3,0.6,0.1c3.2-1.9,6.2-4.1,9-6.6
			c0.2-0.1,0.3-0.2,0.4,0c0.5,0.5,1.1,1,1.7,1.6c1.6,1.6,2.9,3.3,4.1,5.2c0.1,0.2,0.2,0.2,0.4,0c0.7-0.6,1.4-1.2,2.1-1.8
			c0.2-0.2,0.3-0.3,0.1-0.5c-1.8-2.5-3.7-5-6-7c-0.2-0.2-0.2-0.3,0-0.4c0.3-0.4,0.6-0.8,0.9-1.2c1.1-1.7,2.1-3.5,2.3-5.5
			c0.3-2.1-0.6-3.4-2.7-3.8C786.4,760.9,785.8,760.9,785.2,760.9z M964.4,775.5c-0.1-1.2,0-2.7-0.1-4.3c0-0.3,0.1-0.4,0.4-0.4
			c0.9,0,1.9,0,2.8,0c1,0,2,0,3,0.1c0.3,0,0.3,0,0.3-0.3c0-0.3,0-0.6,0-0.9c0-0.1,0-0.2-0.1-0.2c-0.4,0-0.3-0.3-0.3-0.5
			c0.1-2.1,0.2-4.2,0.2-6.4c0-1.4-0.7-2.3-2-2.7c-0.5-0.2-1.1-0.2-1.7-0.2c-0.9-0.1-1.7,0.2-2.6,0.1c-1-0.2-2,0-3,0
			c-0.2,0-0.3,0.1-0.3,0.3c0,0.4,0,0.7-0.1,1.1c-0.3,4.1-0.4,8.2-0.3,12.3c0,2.7,0.2,5.4,0.3,8.1c0,0.4,0.1,0.5,0.5,0.5
			c0.9,0,1.8,0,2.7,0c0.3,0,0.4-0.1,0.4-0.4C964.5,779.8,964.4,777.8,964.4,775.5z M988.7,764.4c-1.1,0-2.2,0-3.2,0
			c-0.2,0-0.3,0-0.4,0.2c-0.4,2.4-0.4,4.7,0,7.1c0,0.1,0.1,0.2,0.2,0.2c1.1,0,2.3,0,3.4,0c-0.3-1.5-0.5-3.1-0.4-4.6
			c0-0.2,0.1-0.3,0.3-0.4c2.8-0.6,5.7-1.1,8.5-1.2c1.4-0.1,2.9-0.1,4.3,0.2c1.2,0.3,1.6,0.9,1.5,2.1c-0.1,1.1-0.2,2.3-0.5,3.4
			c-0.1,0.3,0,0.3,0.3,0.3c1.1,0,2.2,0,3.3,0c0.2,0,0.3-0.1,0.4-0.3c0.2-1.2,0.4-2.4,0.4-3.7c0-1.3-0.7-2.4-1.9-2.9
			c-0.5-0.2-1-0.3-1.5-0.4c0.9-0.9,1.8-1.9,2.5-3c0.2-0.2,0.1-0.3-0.1-0.4c-1-0.4-2-0.9-3.1-1.3c-0.3-0.1-0.4-0.1-0.5,0.2
			c-0.6,1.2-1.4,2.2-2.1,3.3c-0.5,0.8-1.1,1.1-2.1,1.1c-2.9,0-5.8,0.5-8.7,1.1c-1,0.2-1,0.2-0.8-0.8
			C988.7,764.5,988.7,764.5,988.7,764.4c1.5,0.9,2.9,0.7,3.7-0.5c0.7-1,0.6-2.5-0.3-3.3c-0.9-0.8-2.6-0.8-3.6,0
			C987.6,761.4,987.6,762.9,988.7,764.4z M989.7,770.8c0.1-0.1,0.2-0.1,0.4-0.1c1.2-0.4,2.3-0.8,3.5-1.1c1.5-0.4,2.9-0.6,4.5-0.4
			c0.2,0,0.3,0.1,0.5,0.1c0.2,0.1,0.3,0.2,0.1,0.4c-0.2,0.2-0.4,0.4-0.6,0.7c-0.8,0.9-1.7,1.5-3,1.2l0,0c-0.2,0-0.3,0.1-0.2,0.3
			c0.1,0.7,0.2,1.4,0.3,2.1c0.1,0.4,0,0.4-0.4,0.4c-2.7,0-5.4,0.1-8.2,0.2c-0.3,0-0.8-0.1-1,0.1c-0.2,0.3,0,0.7-0.1,1.1
			c0,0.3,0.1,0.3,0.3,0.3c3.1-0.2,6.1-0.2,9.2-0.3c0.2,0,0.3,0.1,0.3,0.2c0,1.1,0,2.2-0.1,3.3c-0.1,0.4-0.3,0.7-0.7,0.7
			c-0.2,0-0.4,0-0.6,0c-1.3,0-2.6-0.2-3.9-0.4c-0.3-0.1-0.4,0-0.4,0.3c0,0.2,0,0.5,0,0.7c0,0.3,0.1,0.4,0.3,0.4
			c1.3,0.2,2.6,0.4,3.9,0.4c1.4,0,2.8,0.1,4.1-0.3c0.6-0.2,1-0.6,1.1-1.2c0.2-1.3,0.2-2.6,0.2-3.8c0-0.4,0.1-0.4,0.4-0.4
			c2.2,0,4.5,0.1,6.7,0.2c0.3,0,0.4,0,0.4-0.3c0-0.3,0-0.5,0-0.8c0-0.3-0.1-0.3-0.3-0.4c-2.3-0.1-4.6-0.2-7-0.2
			c-0.1,0-0.3,0.1-0.3-0.1c0-0.1-0.1-0.3,0.1-0.4c0.1-0.1,0.1-0.1,0.2-0.2c0.9-0.8,1.7-1.6,2.4-2.5c0.3-0.3,0.5-0.7,0.5-1.1
			c0-1-0.6-1.8-1.7-2.1c-0.8-0.2-1.6-0.3-2.4-0.3c-2.5-0.1-4.9,0.4-7.3,1.2c-0.4,0.1-1,0.2-1.2,0.5
			C989.5,769.8,989.7,770.3,989.7,770.8z M905.1,760.8c-1.4,0-2.6,0.1-3.8,0.3c-2.8,0.5-5.5,1.4-8.1,2.7c-0.2,0.1-0.2,0.1-0.1,0.3
			c0.1,0.3,0.3,0.7,0.4,1c0.1,0.2,0.1,0.2,0.3,0.1c1.9-1,4-1.6,6.1-2.1c1.6-0.4,3.2-0.8,4.8-0.7c1.4,0,2.4,0.9,2.7,2.3
			c0.3,1.5-0.1,3-0.7,4.3c-0.9,2-2.3,3.7-3.8,5.2s-3.1,2.8-4.8,4.1c-0.1,0.1-0.3,0.2-0.1,0.4c0.7,0.8,1.3,1.6,2,2.4
			c0.1,0.2,0.2,0.2,0.4,0c0.3-0.2,0.5-0.4,0.8-0.6c2.6-2.1,4.9-4.3,6.9-7c1.6-2.3,2.8-4.7,3-7.5c0.1-2.4-1-4.1-3.3-4.8
			C906.8,760.8,905.9,760.8,905.1,760.8z M922.2,780.2c3.2,0,5.5,0.1,7.8,0.2c0.3,0,0.8,0.2,1,0c0.2-0.2,0-0.7,0.1-1.1
			c0-0.3,0-0.4-0.3-0.4c-1.9,0-3.8-0.1-5.7-0.2c-0.4,0-0.4-0.1-0.4-0.5c0-3.8,0-7.6,0-11.4c0-0.4,0.1-0.4,0.5-0.4
			c1.4,0,2.8,0,4.2-0.2c0.2,0,0.3,0,0.3-0.2c0-0.4,0-0.7,0-1.1c0-0.1,0-0.2-0.2-0.2c-1.1,0.2-2.2,0.2-3.3,0.2
			c-3,0.1-5.9,0.1-8.9-0.2c-0.9-0.1-0.9-0.1-0.9,0.8c0,0.4,0.1,0.5,0.5,0.6c1.5,0.2,2.9,0.3,4.4,0.3c0.4,0,0.4,0.1,0.4,0.5
			c0,3.7,0,7.5,0,11.2c0,0.7,0,0.7-0.7,0.7c-1.8,0-3.6,0.1-5.4,0.2c-0.2,0-0.3,0.1-0.3,0.3c0,0.3,0,0.6,0,0.9s0.1,0.3,0.3,0.3
			C918,780.3,920.5,780.2,922.2,780.2z M801.4,768.5c0,0.2,0,0.3,0,0.4c0,4,0,8,0,12.1c0,0.3,0.1,0.4,0.4,0.4c0.8,0,1.6,0,2.4,0
			c0.3,0,0.4-0.1,0.4-0.4c0-4.7,0-9.5,0-14.2c0-0.3,0.1-0.5,0.3-0.6c1.8-1.3,3.5-2.6,5.2-4.1c0.9-0.8,0.9-0.8,0.2-1.7
			c-0.1-0.2-0.2-0.2-0.4,0c-0.2,0.2-0.5,0.5-0.7,0.7c-4.5,3.9-9.4,7.2-14.7,9.9c-0.3,0.2-0.8,0.3-1,0.5c-0.1,0.3,0.2,0.7,0.3,1.1
			c0.1,0.2,0.2,0.2,0.4,0.1c0.9-0.5,1.8-0.9,2.6-1.4C798.5,770.3,799.9,769.4,801.4,768.5z M850.8,762.4c0.1-0.2-0.1-0.2-0.3-0.2
			c-1-0.3-2-0.5-3.1-0.8c-0.3-0.1-0.3,0-0.4,0.3c-0.4,2.5-0.9,4.9-1.6,7.4s-1.8,4.7-3.6,6.6c-1.5,1.6-3.4,2.8-5.4,3.8
			c-0.3,0.2-0.9,0.2-1,0.5c-0.1,0.3,0.2,0.7,0.3,1.1c0.1,0.3,0.2,0.3,0.5,0.2c1.7-0.7,3.3-1.6,4.9-2.5c2.1-1.3,4-2.8,5.4-4.8
			c1.4-1.9,2.2-4,2.9-6.3C850.1,765.9,850.5,764.2,850.8,762.4z M823.8,771.8c0.4,0,0.7,0,1.1,0c1.8,0.1,3.6,0.1,5.5,0.3
			c0.2,0,0.3-0.1,0.3-0.3c0-0.8,0-1.6,0-2.4c0-0.3-0.1-0.4-0.4-0.4c-2.1-0.1-4.1-0.2-6.2-0.2c-2.6,0-5.1-0.1-7.7,0.1
			c-1.4,0.1-2.8,0.1-4.1,0.2c-0.3,0-0.4,0.1-0.4,0.4c0,0.8,0,1.6,0,2.4c0,0.2,0.1,0.3,0.3,0.3c0.7-0.1,1.3-0.1,2-0.2
			C817.3,771.8,820.6,771.6,823.8,771.8z M759.9,762.6c3.4,0,6.7,0.1,10,0.2c0.4,0,0.8,0.2,1,0s0-0.7,0-1.1l0,0
			c0-0.2-0.1-0.2-0.2-0.2c-0.4,0-0.9,0-1.3-0.1c-2.4-0.1-4.7-0.2-7.1-0.2c-0.3,0-0.3-0.1-0.3-0.3c0-0.4,0-0.7,0-1.1
			c0-0.3-0.1-0.3-0.3-0.3c-1.1,0-2.3,0-3.5,0c-0.2,0-0.3,0-0.3,0.3c0,0.3,0,0.7,0,1c0,0.3-0.1,0.4-0.4,0.4c-2.5,0-4.9,0.1-7.4,0.2
			c-0.3,0-0.8-0.1-1,0.1c-0.2,0.2,0,0.7-0.1,1.1c0,0.3,0.1,0.3,0.3,0.3C753,762.6,756.5,762.6,759.9,762.6z M834.4,761.4
			c0,0-0.1,0-0.1,0.1c-0.8,0.4-1.6,0.8-2.4,1.2c-0.2,0.1-0.2,0.2-0.1,0.3c1.4,3.1,2.5,6.2,3.4,9.4c0.1,0.2,0.2,0.2,0.4,0.2
			c0.8-0.3,1.6-0.6,2.3-0.9c0.2-0.1,0.3-0.2,0.2-0.5c-0.4-1.3-0.8-2.5-1.2-3.8c-0.7-1.9-1.4-3.8-2.3-5.7
			C834.5,761.6,834.5,761.5,834.4,761.4z M843.4,769.4c0-0.1,0-0.1,0-0.2c-0.9-3-1.9-6-3.1-8.8c-0.1-0.2-0.2-0.2-0.4-0.1
			c-0.8,0.3-1.5,0.6-2.3,0.9c-0.3,0.1-0.3,0.2-0.2,0.5c0.6,1.3,1.1,2.6,1.6,4c0.6,1.5,1.1,3.1,1.5,4.7c0,0.1,0,0.4,0.3,0.2
			c0.8-0.3,1.6-0.7,2.5-1C843.4,769.5,843.5,769.5,843.4,769.4z M1027,760.6L1027,760.6c0-0.3,0-0.6,0-0.9c0-0.2-0.1-0.3-0.3-0.3
			c-1.1,0-2.2,0-3.3,0c-0.2,0-0.3,0.1-0.3,0.3c0,0.6,0,1.2,0,1.7c0,0.2-0.1,0.3-0.3,0.3c-0.9,0-1.8,0.1-2.7,0.2c-1,0.1-1,0.1-1,1.1
			c0,0.4,0.1,0.5,0.4,0.4c1.8-0.2,3.6-0.3,5.4-0.3c2,0,4,0.1,6,0.3c0.3,0,0.4,0,0.4-0.3c0-0.3,0-0.5,0-0.8c0-0.3-0.1-0.3-0.3-0.3
			c-1-0.1-1.9-0.1-2.9-0.2c-0.4,0-0.9,0.1-1-0.1C1026.8,761.5,1027,761,1027,760.6z M756,775c0-0.2-0.1-0.1-0.2-0.2
			c-0.8-0.3-1.7-0.5-2.5-0.8c-0.2-0.1-0.3,0-0.4,0.2c-1.1,2-2.4,3.8-3.9,5.5c-0.2,0.2-0.1,0.3,0.1,0.4c0.8,0.4,1.7,0.8,2.5,1.2
			c0.2,0.1,0.3,0.1,0.4-0.1c1.6-1.8,2.9-3.8,3.9-5.9C755.9,775.1,756,775.1,756,775z M767.2,773.8L767.2,773.8
			c-1,0.4-1.9,0.8-2.7,1.1c-0.2,0.1-0.1,0.1-0.1,0.2c0.2,0.3,0.3,0.7,0.5,1c0.9,1.7,1.8,3.3,2.9,4.9c0.1,0.2,0.2,0.3,0.4,0.2
			c0.8-0.4,1.7-0.9,2.5-1.3c0.2-0.1,0.2-0.2,0.1-0.4c-1.2-1.8-2.4-3.7-3.4-5.6C767.4,773.9,767.4,773.8,767.2,773.8z M944.3,779.2
			c0-1.5-0.9-2.5-2.5-2.5c-1.5,0-2.5,1-2.5,2.5c0,1.4,1.1,2.5,2.5,2.5S944.3,780.6,944.3,779.2z M996.9,759.4
			c-1.5,0-2.4,0.9-2.4,2.3c0,1.3,1.1,2.5,2.4,2.5s2.4-1.1,2.4-2.5C999.3,760.3,998.3,759.4,996.9,759.4z M693.4,769.8
			c-0.1,0.8,0,1.5,0,2.2c0,0.6,0.1,1.2,0.3,1.8c0.3,1.1,0.5,1.3,1.6,1.5c0.4,0.1,0.8,0.1,1.2,0c0.9-0.2,1.6-0.8,1.6-1.8
			c0.1-1.1-0.3-1.8-1.3-2.1c-0.3-0.1-0.6-0.2-0.9-0.3C695,770.8,694.1,770.6,693.4,769.8z M696.3,765.4c-1.2,0-2,0.6-2.1,1.5
			c-0.2,1.3,0.2,2.1,1.5,2.5c0.1,0,0.2,0.1,0.3,0.1c0.7,0.2,1.5,0.4,2.2,0.8c0.4,0.2,0.4,0.2,0.4-0.2c0-0.3,0-0.7,0.5-0.6
			c0.2,0,0.2-0.1,0.2-0.2c-0.2-0.9-0.5-1.8-0.7-2.8c0-0.1-0.1-0.2-0.2-0.3C697.7,765.8,697.1,765.4,696.3,765.4z M701.3,766
			c-0.3,1.1-0.6,2.2-1,3.2c0,0.1-0.1,0.2,0.1,0.2c0.6,0,1.1,0,1.7,0c0.1,0,0.2-0.1,0.1-0.2C702,768.2,701.6,767.2,701.3,766z
			 M711.4,766.5c0.3,0,0.6,0,0.8,0c0.3,0,0.3-0.1,0.3-0.3c-0.1-0.6-0.5-0.9-1.1-0.9s-1.1,0.4-1.1,0.9c0,0.2,0,0.3,0.2,0.3
			C710.8,766.5,711.1,766.5,711.4,766.5z M706.8,766.5c0.3,0,0.6,0,0.9,0c0.2,0,0.3-0.1,0.2-0.3c-0.1-0.6-0.4-0.9-1.1-0.9
			c-0.6,0-1.1,0.4-1.2,0.9c0,0.2,0,0.3,0.2,0.3C706.2,766.5,706.5,766.5,706.8,766.5z M715.1,774.5c0.3,0,0.6,0,0.9,0
			s0.3-0.1,0.3-0.3c-0.1-0.6-0.5-0.9-1-0.9c-0.6,0-1.1,0.4-1.2,0.9c0,0.2,0,0.2,0.2,0.2C714.5,774.5,714.8,774.5,715.1,774.5z
			 M719.8,766.9c-0.1-0.4-0.2-0.7-0.3-1c-0.2-0.6-0.6-0.8-1.2-0.6c-0.3,0.1-0.5,0.2-0.5,0.5s0.2,0.5,0.5,0.6
			C718.7,766.6,719.2,766.8,719.8,766.9z"/>
		<path class="st59" d="M741.8,774.9c0.7,1,1.5,2,2.3,2.9c0.5,0.6,1,1.2,1.6,1.8c0.2,0.2,0.1,0.3-0.1,0.4c-1.1,0.6-2.3,1.1-3.4,1.7
			c-0.3,0.1-0.4,0.1-0.5-0.1c-1.4-2-2.8-4.1-4-6.3c-0.1-0.1-0.1-0.2-0.3-0.3c0,0.1,0,0.3,0,0.4c0,2,0,4.1,0,6.1
			c0,0.3-0.1,0.4-0.4,0.4c-1.1,0-2.1,0-3.2,0c-0.3,0-0.4-0.1-0.4-0.4c0-2.1,0-4.2,0-6.5c-0.4,0.6-0.7,1.1-1,1.6
			c-1.1,1.8-2.4,3.5-3.7,5.1c-0.1,0.1-0.1,0.3-0.4,0.2c-1.1-0.7-2.3-1.5-3.5-2.2c1-1.1,2.1-2.2,3.1-3.5c-0.9,0-1.7,0-2.5,0
			c-0.3,0-0.4-0.1-0.4-0.4c-0.4-3.2-0.4-6.3-0.1-9.5c0-0.5,0.1-1,0.2-1.5c0-0.2,0.1-0.2,0.3-0.2c1.1,0,2.2,0,3.4,0
			c0.3,0,0.2,0.1,0.2,0.3c-0.1,0.5-0.1,0.5,0.4,0.4c1.3-0.2,2.5-0.3,3.8-0.5c0.2,0,0.2-0.1,0.2-0.2c0-0.6,0-1.2,0-1.7
			c0-0.2-0.1-0.2-0.3-0.2c-1.9,0.1-3.8,0.1-5.6,0.1c-0.7,0-1.5,0.1-2.2,0.1c-0.3,0-0.3-0.1-0.3-0.3c0-0.4-0.1-0.8,0.1-1
			c0.2-0.3,0.7-0.1,1-0.1c2.3-0.1,4.7-0.2,7-0.2c0.3,0,0.4-0.1,0.4-0.4s0-0.7,0-1s0-0.4,0.4-0.4c1.1,0,2.2,0,3.3,0
			c0.2,0,0.3,0.1,0.3,0.3c0,0.4,0,0.8,0,1.1c0,0.2,0.1,0.3,0.3,0.3c2.3,0,4.6,0.1,6.9,0.2c0.4,0,0.7,0,1.1,0c0.2,0,0.3,0.1,0.2,0.2
			l0,0c0.1,1.2,0.1,1.2-1.1,1.1c-2.3-0.1-4.6-0.2-7-0.2c-0.3,0-0.3,0.1-0.3,0.3c0,0.4,0,0.8,0,1.2c0,0.3,0,0.4,0.3,0.3
			c1.5-0.1,2.9-0.1,4.4,0c0.5,0,0.9,0.1,1.4,0.3c1.5,0.5,2.2,1.6,2.4,3.3c0.1,1.7,0,3.4-0.2,5.1c0,0.2-0.1,0.4,0.2,0.3
			c0.2,0,0.2,0.1,0.2,0.2c0,0.3,0,0.6,0,0.9c0,0.3-0.1,0.3-0.3,0.3c-1.3-0.1-2.5-0.1-3.8-0.2C742,774.9,741.9,774.9,741.8,774.9z
			 M731.1,773.5C731.1,773.4,731.1,773.4,731.1,773.5c0.7-0.1,1.4-0.1,2.1-0.1c0.2,0,0.3-0.1,0.3-0.3c0-0.6,0-1.3,0-1.9
			c0-0.8,0-0.8-0.9-0.8c-0.1,0-0.1,0-0.2,0c-1.1,0-2.3,0.1-3.4,0.1c-0.2,0-0.4,0-0.4,0.3c0.1,0.8,0.1,1.6,0.1,2.5
			c0,0.2,0.1,0.3,0.3,0.3C729.7,773.5,730.4,773.5,731.1,773.5z M739.8,770.4C739.8,770.4,739.8,770.3,739.8,770.4c-0.7,0-1.4,0-2,0
			c-0.2,0-0.3,0-0.3,0.2c0,0.9,0,1.7,0,2.6c0,0.2,0,0.2,0.2,0.2c1.3,0,2.6,0,3.9,0.1c0.1,0,0.3,0,0.3-0.2c0-0.8,0.1-1.7,0.2-2.5
			c0-0.2-0.1-0.2-0.2-0.2C741.1,770.4,740.4,770.4,739.8,770.4z M739.7,768.9v0.1c0.7,0,1.3,0,2,0c0.2,0,0.3,0,0.3-0.3
			c0-0.5-0.1-0.9-0.2-1.4c-0.3-0.9-0.8-1.3-1.7-1.4c-0.8-0.1-1.5,0-2.3,0c-0.2,0-0.2,0.1-0.2,0.3c0,0.8,0,1.6,0,2.4
			c0,0.2,0,0.3,0.2,0.3C738.4,768.9,739.1,768.9,739.7,768.9z M731.1,768.9L731.1,768.9c0.7-0.1,1.5-0.1,2.2-0.1
			c0.2,0,0.3-0.1,0.2-0.3c0-0.7,0-1.4,0-2.1c0-0.3-0.1-0.3-0.3-0.2c-1.4,0.1-2.8,0.3-4.1,0.5c-0.2,0-0.3,0.1-0.3,0.4
			c0,0.5-0.1,1.1-0.1,1.6c0,0.2,0.1,0.3,0.3,0.2C729.6,769,730.3,769,731.1,768.9z"/>
		<path class="st59" d="M1021.9,769.6L1021.9,769.6c0.3-0.2,0.5-0.6,0.8-0.5c0.2,0.1,0.4,0.4,0.6,0.7c0.5,0.7,1.1,1.3,1.6,2
			c0.1,0.2,0.2,0.2,0.4,0c0.5-0.8,1.1-1.7,1.5-2.6c0.3-0.5,0.3-0.5,0.7-0.2c0,0,0,0.1,0.1,0v-0.1c-0.4-1-0.8-2.1-1.2-3.1
			c-0.1-0.3-0.1-0.4,0.2-0.5c0.8-0.3,1.6-0.7,2.5-1.1c0.2-0.1,0.3-0.1,0.4,0.1c0.8,2.2,1.7,4.3,2.7,6.3c0.1,0.2,0.1,0.3-0.1,0.4
			c-0.8,0.4-1.6,0.8-2.4,1.3c-0.5,0.3-0.5,0.3-0.7-0.2c-0.1,0-0.2,0.1-0.2,0.2c-0.4,0.6-0.8,1.3-1.2,1.9c-0.2,0.3-0.2,0.4,0,0.6
			c1.3,1.4,2.6,2.8,3.9,4.2c0.3,0.3,0.2,0.4,0,0.6c-0.8,0.6-1.6,1.3-2.3,1.9c-0.2,0.2-0.3,0.2-0.5,0c-1.1-1.2-2.2-2.5-3.3-3.7
			c-0.1-0.1-0.2-0.2-0.3-0.3c-1.2,1.4-2.4,2.7-3.7,3.9c-0.1,0.1-0.2,0.1-0.2,0.2c-0.1,0.2-0.2,0.1-0.4,0c-0.6-0.7-1.2-1.3-1.8-2
			c-0.2-0.2-0.1-0.3,0-0.4c1.3-1.3,2.6-2.6,3.8-4c0.2-0.2,0.2-0.4,0-0.6c-0.7-0.9-1.4-1.9-2.1-2.8c-0.3,0.4-0.3,0.4-0.8,0.1
			c-0.7-0.4-1.4-0.7-2.2-1.1c-0.1,0.2,0,0.3,0.2,0.5c0.8,0.7,1.6,1.3,2.4,2c0.2,0.1,0.2,0.2,0,0.4c-0.6,0.7-1.2,1.4-1.8,2.1
			c-0.2,0.3-0.4,0.3-0.6,0c-0.1-0.1-0.2-0.1-0.3-0.2c0,0.2,0,0.3,0,0.5c0,1.8,0,3.6,0,5.4c0,0.3-0.1,0.4-0.4,0.4c-0.9,0-1.8,0-2.8,0
			c-0.3,0-0.4-0.1-0.4-0.4c0-2.8,0-5.5,0-8.3c0-0.5-0.1-0.9-0.5-1.2c-0.1-0.1-0.2-0.2-0.3-0.4c-0.1,0.9-0.1,1.6-0.2,2.3
			c-0.2,2.3-0.3,4.6-0.5,6.9c0,0.3-0.1,0.4-0.4,0.3c-0.9-0.1-1.8-0.2-2.7-0.3c-0.2,0-0.2-0.1-0.2-0.3c0.3-2.9,0.5-5.8,0.7-8.7
			c0.1-2.4,0.3-4.8,0.4-7.1c0-0.3-0.1-0.3-0.3-0.2c-0.3,0.1-0.5,0-0.4-0.4c0-0.3-0.1-0.8,0.1-1s0.6-0.1,1-0.2c1-0.1,2.1-0.2,3.1-0.2
			c0.3,0,0.4-0.1,0.4-0.4c0-0.8,0-1.5,0-2.3c0-0.3,0.1-0.4,0.4-0.4c0.9,0,1.8,0,2.7,0c0.3,0,0.4,0.1,0.4,0.4c0,0.8,0,1.7,0,2.5
			c0,0.2,0.1,0.3,0.3,0.3c0.8,0.1,0.8,0.1,0.8,0.9c0,0.7,0,0.7-0.7,0.6c-0.3,0-0.5,0-0.5,0.4c0,1.7,0,3.5,0,5.2c0,0.1,0,0.2,0,0.3
			h0.1c0.5-0.9,0.9-1.8,1.4-2.7c0.6-1.1,1.1-2.3,1.5-3.4c0.1-0.3,0.2-0.3,0.4-0.2c0.8,0.4,1.6,0.8,2.4,1.1c0.2,0.1,0.3,0.2,0.2,0.4
			c-0.6,1.3-1.1,2.5-1.7,3.7C1021.8,769.4,1021.8,769.5,1021.9,769.6C1021.8,769.6,1021.7,769.6,1021.9,769.6
			C1021.8,769.8,1021.8,769.6,1021.9,769.6z M1013.4,768.9c0.3-0.3,0.7-0.4,0.7-0.9c0-1.2,0-2.4,0-3.6c0-0.2,0-0.3-0.2-0.3
			s-0.3,0.1-0.3,0.3C1013.6,765.9,1013.5,767.4,1013.4,768.9z"/>
		<path class="st59" d="M944,775.1c2.4-0.1,4.8,0,7.3,0c0.2,0,0.3-0.1,0.3-0.3c-0.1-0.6-0.1-1.3-0.1-1.9c0-0.3-0.2-0.2-0.3-0.2
			c-2.2,0-4.4,0-6.7,0c-1.1,0-2.3,0.1-3.4,0.1c-0.3,0-0.4,0.1-0.3,0.4v0.1c0.1,0.4,0,0.5-0.4,0.5c-0.9,0-1.9,0-2.8,0
			c-0.3,0-0.3-0.1-0.4-0.3c-0.4-3.1-0.4-6.2,0-9.3c0-0.2,0.1-0.3,0.3-0.3c1,0,2,0,3,0c0.3,0,0.3,0.1,0.3,0.3c-0.1,0.3,0,0.4,0.3,0.3
			c1.3-0.2,2.5-0.3,3.8-0.4c0.2,0,0.2-0.1,0.2-0.3c0-0.4,0-0.9,0-1.3c0-0.3-0.1-0.4-0.4-0.4c-1.8,0.1-3.5,0.1-5.3,0.2
			c-0.9,0-1.7,0.1-2.6,0.1c-0.3,0-0.3-0.1-0.3-0.3c0-1.2,0-1.2,1.1-1.2c2.4-0.1,4.7-0.2,7.1-0.2c0.3,0,0.4-0.1,0.4-0.4l0,0
			c0-0.3-0.1-0.8,0.1-1s0.6-0.1,1-0.1c0.8,0,1.6,0,2.4,0c0.3,0,0.4,0.1,0.4,0.4c0,0.1,0,0.2,0,0.2c0,0.8,0,0.8,0.8,0.8
			c2.5,0,4.9,0.1,7.4,0.2c0.4,0,0.5,0.1,0.5,0.5c-0.1,0.3,0.1,0.7-0.1,0.9c-0.2,0.2-0.6,0-0.9,0c-2.4-0.1-4.8-0.2-7.3-0.2
			c-0.4,0-0.6,0-0.5,0.5c0,0.2,0,0.4,0,0.6c0,0.5,0,0.5,0.6,0.5c1.4,0,2.8-0.1,4.1,0c0.5,0,1,0.1,1.4,0.3c0.9,0.4,1.4,1.1,1.4,2.1
			c0,1.6,0,3.2,0,4.8c0,0.2-0.1,0.5,0.3,0.4c0.1,0,0.1,0.1,0.1,0.2c0,0.4,0.1,0.8,0,1.1c-0.2,0.3-0.7,0-1,0s-0.4,0.1-0.4,0.4
			c0.1,0.5,0.1,1.1,0.1,1.7c0,0.3,0.1,0.3,0.4,0.3c0.5,0,0.9,0.1,1.4,0.1c0.2,0,0.3,0.1,0.3,0.3c0,0.3,0,0.6,0,0.9
			c0,0.2-0.1,0.2-0.2,0.2c-0.5,0-0.9,0-1.4-0.1c-0.3,0-0.4,0-0.4,0.3c0,0.9,0,1.8-0.1,2.7c-0.2,1.5-0.8,1.7-2,1.9
			c-1.9,0.3-3.8,0.2-5.8,0.1c-0.6,0-1.1-0.1-1.7-0.1c-0.2,0-0.3-0.1-0.3-0.3c0-0.4-0.2-0.9,0.1-1.1c0.2-0.2,0.7,0,1.1,0
			c1.2,0.1,2.5,0.2,3.7,0.1c0.7,0,0.8-0.2,0.9-0.9c0.1-0.8,0.1-1.6,0.1-2.3c0-0.4-0.1-0.5-0.5-0.5c-1.6,0-3.2,0-4.8,0
			c-2.7,0-5.3,0.1-8,0.2c-0.5,0-1.1,0-1.6,0.1c-0.2,0-0.4,0-0.4-0.3c0-0.4-0.1-0.8,0.1-1.1c0.2-0.2,0.7-0.1,1-0.1
			C939.6,775.2,941.8,775.1,944,775.1z M945,770.3c0-0.3,0-0.6,0-0.9c0-0.1,0-0.2-0.2-0.2c-1.4,0.1-2.9,0.1-4.3,0.2
			c-0.2,0-0.2,0.1-0.2,0.2c0,0.5,0.1,1,0.1,1.5c0,0.3,0.1,0.3,0.4,0.3c1.1-0.1,2.2-0.1,3.2-0.1c0.3,0,0.7,0.1,0.9-0.1
			C945.2,771,945,770.6,945,770.3z M950.8,767.8L950.8,767.8c0.6,0.1,1.2,0.1,1.7,0.1c0.2,0,0.2-0.1,0.2-0.2c0-0.4,0-0.8,0-1.2
			c0-0.7-0.4-1.1-1-1.1c-0.9,0-1.8,0-2.6,0c-0.2,0-0.2,0.1-0.2,0.3c0,0.6,0,1.2,0,1.8c0,0.2,0.1,0.3,0.3,0.2
			C949.7,767.8,950.2,767.8,950.8,767.8z M942.6,767.8C942.6,767.8,942.6,767.8,942.6,767.8c0.7-0.1,1.4-0.1,2.1-0.1
			c0.2,0,0.3-0.1,0.3-0.3c0-0.5,0-0.9,0-1.4c0-0.3-0.1-0.4-0.4-0.3c-1.3,0.2-2.5,0.3-3.8,0.4c-0.3,0-0.5,0.2-0.5,0.5
			c0,0.3,0,0.6-0.1,1c0,0.2,0.1,0.3,0.3,0.3C941.3,767.8,942,767.8,942.6,767.8z M950.8,771.3L950.8,771.3c0.6,0.1,1.1,0,1.7,0.1
			c0.2,0,0.3,0,0.3-0.3c0-0.4,0-0.9,0-1.3c0-0.3-0.1-0.4-0.4-0.4c-1.1,0-2.2-0.1-3.3-0.1c-0.2,0-0.3,0.1-0.3,0.3c0,0.5,0,1,0,1.5
			c0,0.2,0.1,0.3,0.3,0.3C949.7,771.3,950.2,771.3,950.8,771.3z"/>
		<path class="st60" d="M714.6,777.8c-1.1,0.5-2.1,0.8-3.2,0.9c-1.9,0.3-3.9,0.1-5.7-0.4c-3.1-0.9-5-3.2-5.3-6.4
			c-0.1-0.7-0.1-0.7,0.6-0.7c3.2,0,6.4,0,9.6,0c0.1,0,0.3,0,0.5,0c-0.3,0.4-0.4,0.8-0.4,1.2c0,0.2-0.1,0.2-0.2,0.2
			c-0.4,0-0.3,0.2-0.3,0.4c0,0.2-0.1,0.4,0.3,0.4c0.3,0,0.2,0.2,0.2,0.4c0,1.1,0,2.2,0,3.4c0,0.5,0,0.5,0.5,0.5s0.5,0,0.5-0.6
			c0-1.1,0-2.2,0-3.2c0-0.4,0.1-0.5,0.5-0.5c0.1,0,0.2,0,0.4,0c0.3,0.1,0.4-0.1,0.4-0.4s-0.1-0.5-0.4-0.4c-0.1,0-0.2,0-0.4,0
			c-0.2,0-0.5,0.2-0.5-0.2c-0.1-0.4,0.2-0.8,0.5-0.9c0.3,0,0.6,0,0.9,0c0.2,0,0.3,0,0.2-0.2c0-0.3,0.1-0.3,0.4-0.3
			c1.7,0,3.4,0,5.1,0c0.9,0,1.3-0.6,0.8-1.4c-0.1-0.1-0.1-0.2,0-0.2c0.3-0.1,0.5-0.4,0.7-0.7c0.5,4.1-0.5,7.6-3.1,10.6
			c-3.6,4.1-8.3,5.6-13.6,4.3c-4-1-6.8-3.4-8.7-7.1c2,0.3,3.6,0,4.5-1.9c0.2,0.4,0.4,0.8,0.6,1.1c1.3,2.2,3.3,3.5,5.8,4.1
			c3.4,0.9,6.7,0.6,9.9-0.8c0.9-0.4,1.7-1,2.3-1.7c0.4-0.5,0.4-1,0-1.3s-0.9-0.3-1.3,0.2c-0.4,0.6-0.9,0.7-1.6,0.5
			c-0.5-0.2-0.9-0.6-0.9-1.2c0-0.3,0-0.4,0.3-0.4c0.9,0,1.7,0,2.6,0c0.3,0,0.4-0.1,0.4-0.4s0-0.5-0.1-0.8c-0.1-0.8-0.5-1.4-1.3-1.6
			c-0.8-0.2-1.6-0.1-2.2,0.6c-1,1-0.9,3.1,0.1,4.1C714,777.4,714.2,777.5,714.6,777.8z M708.6,777.2c-0.1,0.7,0.4,0.4,0.6,0.4
			s0.3-0.1,0.3-0.3c0-1.1,0-2.2,0-3.3c0-0.9-0.5-1.4-1.4-1.6c-0.5-0.1-1-0.1-1.5,0.1c-0.8,0.2-0.6,0-0.7,0.8c0,0.2,0.1,0.3,0.3,0.2
			c0.2-0.1,0.4-0.1,0.6-0.2c0.4-0.1,0.8-0.1,1.2,0c0.4,0.1,0.5,0.3,0.5,0.7c0,0.4-0.3,0.2-0.5,0.2c-0.5,0.1-1,0.1-1.5,0.3
			c-0.8,0.3-1.1,1.1-0.9,2c0.2,0.8,0.8,1.2,1.6,1.2C707.8,777.8,708.2,777.6,708.6,777.2z"/>
		<path class="st60" d="M695.2,764c0.4-0.8,0.9-1.5,1.5-2.1c2.2-2.5,4.9-4,8.1-4.5c5.8-0.8,11,1.9,13.8,6.7c0.1,0.2,0.2,0.3-0.2,0.3
			c-0.5,0-0.9,0.2-1.3,0.5c-0.7,0.8-0.5,2,0.5,2.4c0.3,0.1,0.7,0.2,1,0.3c0.5,0.1,0.7,0.3,0.7,0.7c0,0.4-0.3,0.5-0.8,0.6
			c-0.5,0-1-0.2-1.4-0.5c-0.1-0.1-0.2-0.2-0.3-0.1c-0.1,0.1-0.1,0.2-0.1,0.3c0,0.2,0,0.5,0,0.7c0,0,0.1,0.1,0,0.1h-0.1v-0.1
			c0.1-0.7-0.2-0.6-0.7-0.5c-0.5,0.1-0.8-0.1-0.8-0.7c0-0.8,0-1.7,0-2.5c0-0.2,0.1-0.3,0.3-0.3c0.3,0,0.6,0,0.9,0
			c0.4,0,0.2-0.3,0.3-0.5c0-0.2,0-0.4-0.3-0.4s-0.6,0-0.9,0c-0.2,0-0.3-0.1-0.3-0.3s0-0.4,0-0.6c0-0.2,0.1-0.4-0.1-0.5
			c-0.2-0.1-0.5,0-0.8,0c-0.1,0-0.1,0.2-0.1,0.3c0,0.3,0,0.6,0,0.9c0,0.2,0,0.3-0.3,0.3s-0.3,0.1-0.3,0.3s-0.2,0.5,0.2,0.5
			c0.3,0,0.3,0.1,0.3,0.3c0,0.7,0,1.4,0,2.1c0,0.5,0.1,1.1,0.5,1.5c-0.5,0-0.9,0-1.3,0c0.1-0.3,0.1-0.6,0.1-1c0-0.3-0.2-0.2-0.3-0.1
			c-0.5,0.3-1,0.5-1.6,0.5c-0.7,0-1.2-0.5-1.3-1.2c0-0.3,0-0.4,0.3-0.4c0.8,0,1.7,0,2.5,0c0.3,0,0.4-0.1,0.4-0.4
			c0-0.7-0.1-1.4-0.6-1.9c-0.8-0.9-2.4-0.8-3.2,0.3c-0.7,0.9-0.9,3.1,0.5,4.1c-0.5,0-1,0-1.5,0c0.2-0.3,0.1-0.7,0.1-1
			c0-0.2-0.2-0.1-0.3,0c-0.5,0.3-1,0.5-1.6,0.5c-0.7,0-1.2-0.5-1.3-1.2c0-0.3,0-0.4,0.3-0.4c0.8,0,1.7,0,2.5,0
			c0.3,0,0.4-0.1,0.4-0.4s0-0.7-0.1-1c-0.2-0.8-0.7-1.4-1.6-1.5s-1.6,0.2-2.1,1c-0.7,1-0.7,3.1,0.6,4.1c-0.6,0-1.1,0-1.6,0
			c-0.8,0-0.8,0-0.6-0.8c0.3-1.2,0.6-2.5,0.9-3.7c0.1-0.3,0.1-0.4-0.3-0.4c-0.6,0-0.6,0-0.7,0.6c-0.2,0.9-0.4,1.7-0.5,2.6
			c0,0.1,0,0.2-0.1,0.2c-0.3-1-0.6-2-0.9-3c-0.1-0.3-0.2-0.4-0.5-0.4s-0.4,0.1-0.5,0.4c-0.3,1-0.6,2-0.9,3.2
			c-0.2-0.7-0.3-1.3-0.4-1.9c-0.1-0.5-0.2-0.9-0.3-1.4c0-0.1,0-0.2-0.2-0.2c-0.4,0-0.8-0.2-1.2-0.3C697,764,696.1,763.9,695.2,764
			L695.2,764z"/>
		<path class="st59" d="M882,762.8c0.8,0,1.6,0,2.4,0.2c2.5,0.6,4,2.5,4,5.1c0.1,2-0.4,4-0.9,5.9c-0.7,2.5-1.6,5-2.7,7.3
			c-0.1,0.3-0.3,0.4-0.6,0.2c-0.9-0.5-1.8-0.9-2.7-1.3c-0.3-0.1-0.3-0.2-0.2-0.5c1.4-2.7,2.5-5.6,3.3-8.6c0.3-1.3,0.6-2.6,0.5-4
			c0-1.7-1.1-2.8-2.8-2.8c-0.9,0-0.9,0-1.2,0.8c-2.1,5.5-4.7,10.7-8,15.5c-0.3,0.5-0.3,0.5-0.9,0.2c-0.7-0.4-1.3-0.9-2-1.3
			c-0.2-0.1-0.2-0.3-0.1-0.5c2.9-4.3,5.3-8.9,7.3-13.6c0-0.1,0.1-0.2,0.1-0.3c-0.9,0.2-1.7,0.5-2.5,0.8c-1.3,0.5-2.5,1-3.7,1.6
			c-0.2,0.1-0.3,0.2-0.4-0.1c-0.4-1.1-0.4-1.1,0.6-1.7c2-1.1,4.2-1.8,6.5-2.3c0.3-0.1,0.4-0.2,0.5-0.4c0.3-1,0.7-2,1-3.1
			c0.1-0.3,0.2-0.3,0.4-0.2c0.8,0.3,1.6,0.7,2.3,1c0.2,0.1,0.3,0.2,0.2,0.4C882.3,761.8,882.2,762.3,882,762.8z"/>
		<path class="st59" d="M974.2,779.9c0.9,0.2,1.7,0.4,2.5,0.5c0.9,0.1,1.3-0.1,1.4-1c0.1-1.3,0.1-2.6,0.1-3.9c0-1.5,0-3.1,0.1-4.6
			c0-0.3-0.1-0.4-0.4-0.4c-0.8,0-1.5,0-2.3,0c-0.2,0-0.3,0-0.4,0.2c0,0.2-0.2,0.1-0.3,0.1c-1,0-1.9,0-2.9,0c-0.2,0-0.3-0.1-0.3-0.3
			c-0.3-2.7-0.3-5.5-0.1-8.2c0.1-0.8,0.1-1.5,0.2-2.3c0-0.2,0.1-0.3,0.3-0.3c1,0,2,0,3,0c0.1,0,0.3-0.1,0.3,0.2c0,0.1,0.2,0,0.3,0
			c1.2-0.3,2.4-0.4,3.6-0.2c1.2,0.2,2.1,1,2.3,2.3c0.2,1.2,0.2,2.4,0.3,3.6c0.1,2.3,0.1,4.6,0,6.9c0,2.2,0,4.4-0.2,6.6
			c0,0.4-0.1,0.7-0.2,1.1c-0.3,1.1-1.1,1.7-2.4,1.8c-1.6,0.1-3.1-0.1-4.7-0.5c-0.2-0.1-0.3-0.1-0.3-0.3
			C974.2,780.8,974.2,780.3,974.2,779.9z M976.7,768.9L976.7,768.9c0.4,0,0.8,0,1.3,0c0.2,0,0.3,0,0.3-0.3c0-0.8-0.1-1.6-0.1-2.5
			c0-0.2-0.1-0.3-0.3-0.3c-0.9-0.1-1.7,0-2.6,0c-0.3,0-0.3,0.1-0.3,0.3c0,0.8,0.1,1.6,0.1,2.5c0,0.2,0.1,0.3,0.3,0.3
			C975.8,768.9,976.3,768.9,976.7,768.9z M976.6,764.4L976.6,764.4c0.4,0,0.9,0,1.3,0c0.1,0,0.3,0,0.2-0.2c-0.1-0.7,0-1.4-0.2-2
			c-0.1-0.4-0.4-0.7-0.8-0.8c-0.6-0.2-1.2-0.1-1.8,0.1c-0.1,0-0.2,0.1-0.2,0.2c-0.1,0.8-0.1,1.6-0.2,2.5c0,0.2,0,0.3,0.2,0.2
			C975.7,764.4,976.1,764.4,976.6,764.4z"/>
		<path class="st59" d="M863.2,764.9c0,2-0.9,3.3-2,4.4c-0.4,0.4-0.8,0.7-1.2,1c-0.2,0.1-0.2,0.2-0.1,0.4c0.8,1.1,1.7,2.2,2.6,3.3
			c0.2,0.2,0.2,0.1,0.3,0c0.7-1.1,1.3-2.2,1.8-3.5c0.1-0.3,0.2-0.3,0.4-0.1c0.2,0.2,0.5,0.3,0.8,0.4c0.2,0.1,0.2,0.2,0.2,0.4
			c-0.6,1.4-1.2,2.7-2.1,3.9c-0.2,0.3-0.2,0.4,0.1,0.6c0.5,0.5,1,1.1,1.5,1.7c0.1,0.1,0.2,0.2,0,0.4c-0.7,0.6-1.3,1.2-2,1.9
			c-0.2,0.2-0.3,0.1-0.4,0c-0.5-0.5-0.9-1.1-1.4-1.6c-0.2-0.2-0.3-0.2-0.5,0c-1.3,1-2.7,1.6-4.4,1.6c-3,0-5.3-2.7-4.8-5.6
			c0.2-1.7,1.2-3,2.4-4c0.2-0.2,0.4-0.3,0.6-0.5c0.2-0.1,0.2-0.3,0.1-0.5c-0.5-0.8-1-1.7-1.2-2.7c-0.7-2.7,1-5.1,3.7-5.4
			c1.5-0.2,2.8,0.1,4,1C862.7,762.8,863.2,763.9,863.2,764.9z M857.7,778c0.7,0,1.6-0.5,2.3-1c0.5-0.4,0.5-0.4,0.1-0.9
			c-1-1.3-2-2.5-2.9-3.9c-0.1-0.1-0.1-0.3-0.3-0.2c-1,0.7-1.8,1.5-2,2.8C854.6,776.8,855.7,778,857.7,778z M860.4,764.4
			c0-0.1,0-0.2,0-0.4c-0.1-0.9-0.8-1.6-1.7-1.7c-1-0.1-1.6,0.3-1.9,1.3c-0.1,0.2-0.1,0.5-0.1,0.8c0,1.2,0.5,2.2,1.1,3.1
			c0.1,0.1,0.2,0.1,0.3,0.1c0.5-0.3,1-0.6,1.4-1C860.1,766,860.4,765.3,860.4,764.4z"/>
		<path class="st59" d="M762.1,776c0,1.1,0.1,2.4-0.1,3.7c-0.1,0.5-0.1,0.9-0.5,1.3c-0.3,0.3-0.8,0.4-1.2,0.4
			c-1.7,0.2-3.4,0.1-5.1-0.1c-0.2,0-0.3-0.1-0.3-0.3c0-0.3,0-0.6,0-0.9c0-0.2,0.1-0.3,0.3-0.2c0.7,0.2,1.4,0.3,2.1,0.2
			c0.6,0,0.8-0.2,0.8-0.8c0.1-0.4,0.1-0.9,0.1-1.3c0-1.8,0-3.6,0-5.4c0-0.3-0.1-0.4-0.4-0.4c-1.3,0.1-2.6,0.1-4,0.1
			c-0.3,0-0.3,0.1-0.2,0.3c0.1,0.9,0.1,0.9-0.7,0.9c-0.8,0-1.7,0-2.5,0c-0.2,0-0.3-0.1-0.3-0.3c-0.3-2.8-0.3-5.6,0-8.3
			c0-0.2,0.1-0.3,0.4-0.3c1,0,2,0,3,0c0.3,0,0.4,0.1,0.3,0.3c0,0.1,0,0.2,0,0.3c-0.1,0.2,0,0.3,0.3,0.2c1.1-0.2,2.2-0.3,3.3-0.5
			c2.5-0.3,5-0.6,7.6-0.5c0.8,0,1.5,0.1,2.2,0.4c1.2,0.5,1.8,1.4,1.9,2.6c0.1,1.1,0,2.1,0,3.2c0,0.2-0.1,0.4,0.3,0.4
			c0.1,0,0.1,0.1,0.1,0.1v0.1c0.1,1.3,0.1,1.3-1.2,1.2c-1.8-0.1-3.5-0.2-5.3-0.2c-0.3,0-0.7-0.2-0.9,0c-0.2,0.2-0.1,0.6-0.1,0.9
			C762.1,774.1,762.1,774.9,762.1,776z M759.5,770.8c1.8,0,3.7,0,5.5,0c0.3,0,0.4-0.1,0.4-0.4c0-0.8,0-1.7,0-2.5
			c0-1.4-0.8-2.1-2.2-2.1c-1.7,0.1-3.5,0.2-5.2,0.4c-1.3,0.2-2.7,0.4-4,0.6c-0.1,0-0.3,0-0.3,0.2c-0.1,1.2-0.1,2.4,0,3.6
			c0,0.2,0.1,0.2,0.3,0.2C755.8,770.8,757.7,770.8,759.5,770.8z"/>
		<path class="st59" d="M785.2,760.9c0.6,0,1.2,0,1.9,0.1c2.1,0.3,3,1.6,2.7,3.8c-0.3,2.1-1.2,3.8-2.3,5.5c-0.3,0.4-0.6,0.8-0.9,1.2
			c-0.1,0.2-0.2,0.3,0,0.4c2.4,2,4.3,4.4,6,7c0.2,0.2,0.1,0.4-0.1,0.5c-0.7,0.6-1.4,1.2-2.1,1.8c-0.2,0.2-0.3,0.2-0.4,0
			c-1.2-1.9-2.6-3.6-4.1-5.2c-0.5-0.5-1.1-1-1.7-1.6c-0.2-0.2-0.3-0.1-0.4,0c-2.7,2.5-5.8,4.7-9,6.6c-0.3,0.2-0.4,0.1-0.6-0.1
			c-0.4-0.7-0.9-1.5-1.4-2.2c-0.2-0.3-0.1-0.4,0.1-0.5c2.9-1.5,5.6-3.3,8-5.5c2-1.9,3.8-4,5-6.5c0.4-0.8,0.7-1.5,0.7-2.4
			c0-1.1-0.4-1.5-1.5-1.5c-1.2,0-2.5,0.2-3.7,0.4c-2.2,0.4-4.4,0.9-6.4,1.8c-0.6,0.3-0.6,0.3-0.9-0.4c-0.3-0.8-0.3-0.8,0.5-1.1
			C778,761.8,781.5,761,785.2,760.9z"/>
		<path class="st59" d="M964.4,775.5c0.1,2.3,0.1,4.2,0.3,6.1c0,0.3-0.1,0.4-0.4,0.4c-0.9,0-1.8,0-2.7,0c-0.4,0-0.5-0.1-0.5-0.5
			c-0.2-2.7-0.3-5.4-0.3-8.1c-0.1-4.1,0-8.2,0.3-12.3c0-0.4,0.1-0.7,0.1-1.1c0-0.2,0.1-0.3,0.3-0.3c1,0,2-0.1,3,0
			c0.9,0.1,1.7-0.1,2.6-0.1c0.6,0.1,1.1,0.1,1.7,0.2c1.3,0.4,2,1.3,2,2.7c0,2.1-0.1,4.2-0.2,6.4c0,0.2-0.1,0.5,0.3,0.5
			c0.1,0,0.1,0.1,0.1,0.2c0,0.3,0,0.6,0,0.9s-0.1,0.3-0.3,0.3c-1,0-2-0.1-3-0.1c-0.9,0-1.9,0-2.8,0c-0.3,0-0.4,0.1-0.4,0.4
			C964.3,772.8,964.3,774.3,964.4,775.5z M967.1,767.6C967.2,767.6,967.2,767.6,967.1,767.6c0-0.5,0-0.9,0-1.4c0-0.2,0-0.3-0.3-0.3
			c-0.8,0-1.5,0-2.3,0c-0.2,0-0.3,0.1-0.3,0.3c0,0.9,0,1.9-0.1,2.8c0,0.2,0,0.2,0.2,0.2c0.8-0.1,1.5-0.1,2.3,0
			c0.2,0,0.2-0.1,0.2-0.3C967.1,768.5,967.1,768,967.1,767.6z M964.5,762.9C964.5,762.9,964.4,762.9,964.5,762.9c0,0.4,0,0.9,0,1.3
			c0,0.2,0.1,0.3,0.3,0.3c0.8,0,1.5,0,2.3,0c0.2,0,0.2,0,0.2-0.2c0-0.6,0-1.2,0-1.8s-0.3-1-0.9-1.2c-0.5-0.2-1-0.2-1.5-0.1
			c-0.2,0-0.3,0.1-0.3,0.3C964.5,761.9,964.5,762.4,964.5,762.9z"/>
		<path class="st59" d="M988.7,764.4c-1-1.5-1.1-3-0.1-3.8c1-0.8,2.6-0.8,3.6,0c0.9,0.8,1,2.3,0.3,3.3
			C991.5,765,990.2,765.2,988.7,764.4c0.1,0.1,0,0.2,0,0.2c-0.2,1-0.2,1,0.8,0.8c2.9-0.5,5.8-1,8.7-1.1c1,0,1.6-0.3,2.1-1.1
			c0.7-1.1,1.5-2.1,2.1-3.3c0.1-0.3,0.2-0.3,0.5-0.2c1,0.4,2,0.9,3.1,1.3c0.3,0.1,0.3,0.2,0.1,0.4c-0.7,1.1-1.5,2.1-2.5,3
			c0.5,0.1,1,0.2,1.5,0.4c1.2,0.5,1.9,1.5,1.9,2.9c0,1.2-0.2,2.5-0.4,3.7c0,0.2-0.1,0.3-0.4,0.3c-1.1,0-2.2,0-3.3,0
			c-0.3,0-0.3-0.1-0.3-0.3c0.3-1.1,0.4-2.2,0.5-3.4c0.1-1.2-0.4-1.8-1.5-2.1c-1.4-0.3-2.9-0.3-4.3-0.2c-2.9,0.2-5.7,0.7-8.5,1.2
			c-0.3,0.1-0.3,0.2-0.3,0.4c-0.1,1.5,0.1,3.1,0.4,4.6c-1.2,0-2.3,0-3.4,0c-0.2,0-0.2-0.1-0.2-0.2c-0.4-2.4-0.4-4.7,0-7.1
			c0-0.3,0.2-0.2,0.4-0.2C986.5,764.4,987.6,764.4,988.7,764.4z"/>
		<path class="st59" d="M989.7,770.8c0-0.5-0.2-1.1,0-1.4c0.2-0.3,0.8-0.4,1.2-0.5c2.4-0.8,4.7-1.4,7.3-1.2c0.8,0,1.6,0.1,2.4,0.3
			c1.1,0.3,1.7,1.1,1.7,2.1c0,0.5-0.3,0.8-0.5,1.1c-0.7,0.9-1.6,1.7-2.4,2.5c-0.1,0.1-0.1,0.1-0.2,0.2c-0.2,0.1-0.1,0.3-0.1,0.4
			c0,0.2,0.2,0.1,0.3,0.1c2.3,0,4.7,0.1,7,0.2c0.3,0,0.4,0.1,0.3,0.4c0,0.3,0,0.5,0,0.8s-0.1,0.3-0.4,0.3c-2.2-0.1-4.5-0.2-6.7-0.2
			c-0.4,0-0.4,0.1-0.4,0.4c0.1,1.3,0,2.6-0.2,3.8c-0.1,0.6-0.5,1-1.1,1.2c-1.3,0.4-2.7,0.3-4.1,0.3c-1.3,0-2.6-0.2-3.9-0.4
			c-0.3,0-0.4-0.1-0.3-0.4c0-0.2,0-0.5,0-0.7c0-0.3,0.1-0.4,0.4-0.3c1.3,0.2,2.6,0.4,3.9,0.4c0.2,0,0.4,0,0.6,0
			c0.4-0.1,0.6-0.3,0.7-0.7c0.1-1.1,0.1-2.2,0.1-3.3c0-0.2,0-0.2-0.3-0.2c-3.1,0-6.1,0.1-9.2,0.3c-0.2,0-0.4,0-0.3-0.3
			c0-0.4-0.1-0.8,0.1-1.1c0.2-0.2,0.7-0.1,1-0.1c2.7-0.1,5.4-0.2,8.2-0.2c0.3,0,0.4,0,0.4-0.4c-0.1-0.7-0.2-1.4-0.3-2.1
			c0-0.2,0-0.3,0.2-0.3l0,0c1.3,0.3,2.2-0.3,3-1.2c0.2-0.2,0.4-0.5,0.6-0.7s0.1-0.4-0.1-0.4c-0.2-0.1-0.3-0.1-0.5-0.1
			c-1.5-0.3-3,0-4.5,0.4c-1.2,0.3-2.4,0.7-3.5,1.1C989.9,770.8,989.8,770.8,989.7,770.8z"/>
		<path class="st59" d="M905.1,760.8c0.7,0,1.6,0.1,2.5,0.3c2.3,0.7,3.4,2.4,3.3,4.8c-0.2,2.9-1.4,5.3-3,7.5c-1.9,2.7-4.3,4.9-6.9,7
			c-0.3,0.2-0.5,0.4-0.8,0.6c-0.2,0.1-0.3,0.1-0.4,0c-0.7-0.8-1.3-1.6-2-2.4c-0.2-0.2,0-0.3,0.1-0.4c1.7-1.3,3.3-2.6,4.8-4.1
			c1.5-1.6,2.9-3.2,3.8-5.2c0.6-1.4,1-2.8,0.7-4.3c-0.2-1.4-1.3-2.3-2.7-2.3c-1.7,0-3.2,0.4-4.8,0.7c-2.1,0.5-4.2,1.1-6.1,2.1
			c-0.2,0.1-0.2,0.1-0.3-0.1c-0.1-0.3-0.2-0.7-0.4-1c-0.1-0.2,0-0.2,0.1-0.3c2.6-1.2,5.3-2.2,8.1-2.7
			C902.5,760.8,903.7,760.8,905.1,760.8z"/>
		<path class="st59" d="M922.2,780.2c-1.7,0-4.2,0.1-6.8,0.2c-0.3,0-0.4,0-0.3-0.3c0-0.3,0-0.6,0-0.9s0.1-0.3,0.3-0.3
			c1.8,0,3.6-0.1,5.4-0.2c0.7,0,0.7,0,0.7-0.7c0-3.7,0-7.5,0-11.2c0-0.3,0-0.5-0.4-0.5c-1.5,0-2.9-0.1-4.4-0.3
			c-0.4,0-0.5-0.1-0.5-0.6c0.1-0.9,0-0.9,0.9-0.8c3,0.3,5.9,0.3,8.9,0.2c1.1,0,2.2-0.1,3.3-0.2c0.2,0,0.2,0,0.2,0.2
			c0,0.4,0,0.7,0,1.1c0,0.2-0.1,0.2-0.3,0.2c-1.4,0.2-2.8,0.2-4.2,0.2c-0.3,0-0.5,0.1-0.5,0.4c0,3.8,0,7.6,0,11.4
			c0,0.3,0.1,0.5,0.4,0.5c1.9,0,3.8,0.1,5.7,0.2c0.3,0,0.4,0.1,0.3,0.4c0,0.4,0.1,0.8-0.1,1.1c-0.2,0.2-0.7,0-1,0
			C927.7,780.3,925.4,780.2,922.2,780.2z"/>
		<path class="st59" d="M801.4,768.5c-1.5,0.9-2.9,1.8-4.4,2.7c-0.9,0.5-1.8,0.9-2.6,1.4c-0.2,0.1-0.3,0.1-0.4-0.1
			c-0.1-0.4-0.5-0.8-0.3-1.1c0.1-0.3,0.6-0.4,1-0.5c5.3-2.7,10.1-6.1,14.7-9.9c0.3-0.2,0.5-0.4,0.7-0.7c0.1-0.1,0.2-0.2,0.4,0
			c0.7,1,0.7,0.9-0.2,1.7c-1.7,1.5-3.4,2.8-5.2,4.1c-0.2,0.2-0.3,0.3-0.3,0.6c0,4.7,0,9.5,0,14.2c0,0.3-0.1,0.4-0.4,0.4
			c-0.8,0-1.6,0-2.4,0c-0.3,0-0.4-0.1-0.4-0.4c0-4,0-8,0-12.1C801.4,768.8,801.4,768.8,801.4,768.5z"/>
		<path class="st59" d="M850.8,762.4c-0.3,1.8-0.7,3.5-1.3,5.2c-0.7,2.2-1.6,4.3-2.9,6.3c-1.4,2-3.3,3.5-5.4,4.8
			c-1.6,1-3.2,1.8-4.9,2.5c-0.3,0.1-0.4,0.1-0.5-0.2c-0.1-0.4-0.4-0.8-0.3-1.1c0.1-0.3,0.6-0.4,1-0.5c2-1,3.9-2.1,5.4-3.8
			c1.8-1.9,2.8-4.2,3.6-6.6c0.7-2.4,1.2-4.9,1.6-7.4c0-0.3,0.1-0.3,0.4-0.3c1,0.3,2,0.5,3.1,0.8
			C850.7,762.2,850.9,762.2,850.8,762.4z"/>
		<path class="st59" d="M823.8,771.8c-3.2-0.1-6.5-0.1-9.7,0.1c-0.7,0-1.3,0.1-2,0.2c-0.2,0-0.3,0-0.3-0.3c0-0.8,0-1.6,0-2.4
			c0-0.3,0.1-0.4,0.4-0.4c1.4-0.1,2.8-0.1,4.1-0.2c2.6-0.1,5.1-0.1,7.7-0.1c2.1,0,4.1,0.1,6.2,0.2c0.3,0,0.4,0.1,0.4,0.4
			c0,0.8,0,1.6,0,2.4c0,0.2,0,0.3-0.3,0.3c-1.8-0.2-3.6-0.2-5.5-0.3C824.5,771.8,824.2,771.8,823.8,771.8z"/>
		<path class="st59" d="M759.9,762.6c-3.4,0-6.9,0.1-10.4,0.3c-0.2,0-0.3,0-0.3-0.3c0-0.4-0.1-0.8,0.1-1.1c0.2-0.2,0.7-0.1,1-0.1
			c2.5-0.1,4.9-0.2,7.4-0.2c0.4,0,0.4-0.1,0.4-0.4c0-0.3,0-0.6,0-1c0-0.2,0.1-0.3,0.3-0.3c1.2,0,2.3,0,3.5,0c0.2,0,0.3,0.1,0.3,0.3
			c0,0.4,0,0.7,0,1.1c0,0.2,0,0.3,0.3,0.3c2.4,0,4.7,0.1,7.1,0.2c0.4,0,0.9,0.1,1.3,0.1c0.2,0,0.3,0.1,0.2,0.2l0,0
			c0,0.4,0.1,0.8,0,1.1c-0.2,0.3-0.7,0.1-1,0C766.6,762.6,763.3,762.6,759.9,762.6z"/>
		<path class="st59" d="M834.4,761.4c0.2,0,0.2,0.2,0.2,0.3c0.8,1.9,1.6,3.8,2.3,5.7c0.4,1.3,0.9,2.5,1.2,3.8c0.1,0.3,0,0.4-0.2,0.5
			c-0.8,0.3-1.6,0.6-2.3,0.9c-0.2,0.1-0.3,0.1-0.4-0.2c-0.9-3.2-2-6.4-3.4-9.4c-0.1-0.2,0-0.3,0.1-0.3c0.8-0.4,1.6-0.8,2.4-1.2
			C834.3,761.5,834.3,761.5,834.4,761.4z"/>
		<path class="st59" d="M843.4,769.4c0,0.1-0.1,0.1-0.2,0.2c-0.8,0.3-1.7,0.7-2.5,1c-0.3,0.1-0.2-0.1-0.3-0.2
			c-0.4-1.6-0.9-3.2-1.5-4.7c-0.5-1.3-1-2.7-1.6-4c-0.1-0.3-0.1-0.4,0.2-0.5c0.8-0.3,1.5-0.6,2.3-0.9c0.2-0.1,0.3-0.1,0.4,0.1
			c1.2,2.9,2.3,5.8,3.1,8.8C843.4,769.3,843.4,769.3,843.4,769.4z"/>
		<path class="st59" d="M1027,760.6c0,0.4-0.1,0.8,0,1.1c0.2,0.2,0.7,0.1,1,0.1c1,0.1,1.9,0.2,2.9,0.2c0.2,0,0.3,0.1,0.3,0.3
			c0,0.3,0,0.5,0,0.8s-0.1,0.4-0.4,0.3c-2-0.2-4-0.3-6-0.3c-1.8,0-3.6,0.1-5.4,0.3c-0.4,0-0.5-0.1-0.4-0.4c0-1,0-1,1-1.1
			c0.9-0.1,1.8-0.1,2.7-0.2c0.2,0,0.3-0.1,0.3-0.3c0-0.6,0-1.2,0-1.7c0-0.2,0.1-0.3,0.3-0.3c1.1,0,2.2,0,3.3,0
			c0.2,0,0.3,0.1,0.3,0.3C1026.9,760,1027,760.3,1027,760.6L1027,760.6z"/>
		<path class="st59" d="M756,775c0,0.1-0.1,0.1-0.1,0.2c-1,2.1-2.3,4.1-3.9,5.9c-0.1,0.2-0.2,0.2-0.4,0.1c-0.8-0.4-1.7-0.8-2.5-1.2
			c-0.2-0.1-0.3-0.2-0.1-0.4c1.5-1.7,2.8-3.5,3.9-5.5c0.1-0.2,0.2-0.3,0.4-0.2c0.8,0.3,1.7,0.6,2.5,0.8
			C755.9,774.9,756,774.8,756,775z"/>
		<path class="st59" d="M767.2,773.8c0.1,0,0.2,0.1,0.2,0.2c1,1.9,2.2,3.8,3.4,5.6c0.1,0.2,0.1,0.2-0.1,0.4
			c-0.8,0.4-1.7,0.8-2.5,1.3c-0.3,0.1-0.3,0-0.4-0.2c-1-1.6-2-3.2-2.9-4.9c-0.2-0.3-0.3-0.7-0.5-1c-0.1-0.1-0.1-0.2,0.1-0.2
			C765.4,774.6,766.3,774.2,767.2,773.8L767.2,773.8z"/>
		<path class="st59" d="M944.3,779.2c0,1.4-1.1,2.5-2.5,2.5s-2.5-1.1-2.5-2.5c0-1.5,1-2.5,2.5-2.5
			C943.4,776.8,944.3,777.8,944.3,779.2z"/>
		<path class="st59" d="M996.9,759.4c1.5,0,2.4,0.9,2.4,2.4c0,1.3-1.1,2.5-2.4,2.5s-2.4-1.2-2.4-2.5
			C994.5,760.3,995.4,759.4,996.9,759.4z"/>
		<path class="st60" d="M693.4,769.8c0.7,0.8,1.6,1,2.5,1.3c0.3,0.1,0.6,0.2,0.9,0.3c1,0.3,1.4,1,1.3,2.1c-0.1,1-0.7,1.6-1.6,1.8
			c-0.4,0.1-0.8,0.1-1.2,0c-1.1-0.2-1.3-0.4-1.6-1.5c-0.1-0.6-0.2-1.2-0.3-1.8C693.4,771.3,693.4,770.6,693.4,769.8z"/>
		<path class="st60" d="M696.3,765.4c0.7,0,1.4,0.3,2.1,0.7c0.1,0.1,0.2,0.2,0.2,0.3c0.2,0.9,0.4,1.8,0.7,2.8c0,0.2,0.1,0.3-0.2,0.2
			c-0.5-0.1-0.5,0.2-0.5,0.6s0,0.4-0.4,0.2c-0.7-0.4-1.4-0.5-2.2-0.8c-0.1,0-0.2-0.1-0.3-0.1c-1.2-0.4-1.7-1.2-1.5-2.5
			C694.3,766,695.1,765.4,696.3,765.4z"/>
		<path class="st60" d="M701.3,766c0.3,1.1,0.7,2.2,1,3.2c0,0.1,0,0.2-0.1,0.2c-0.6,0-1.1,0-1.7,0c-0.2,0-0.2-0.1-0.1-0.2
			C700.6,768.2,701,767.2,701.3,766z"/>
		<path class="st60" d="M711.4,766.5c-0.3,0-0.6,0-0.9,0c-0.2,0-0.2-0.1-0.2-0.3c0.1-0.5,0.6-0.9,1.1-0.9c0.7,0,1,0.3,1.1,0.9
			c0,0.2,0,0.4-0.3,0.3C712,766.5,711.7,766.5,711.4,766.5z"/>
		<path class="st60" d="M706.8,766.5c-0.3,0-0.6,0-0.9,0c-0.2,0-0.3-0.1-0.2-0.3c0.1-0.5,0.6-0.9,1.2-0.9s1,0.3,1.1,0.9
			c0,0.2,0,0.3-0.2,0.3C707.4,766.5,707.1,766.5,706.8,766.5z"/>
		<path class="st60" d="M715.1,774.5c-0.3,0-0.6,0-0.9,0c-0.2,0-0.2-0.1-0.2-0.2c0.1-0.5,0.6-0.9,1.2-0.9s0.9,0.3,1,0.9
			c0,0.2,0,0.3-0.3,0.3C715.7,774.4,715.4,774.5,715.1,774.5z"/>
		<path class="st60" d="M719.8,766.9c-0.5-0.2-1.1-0.3-1.6-0.5c-0.3-0.1-0.5-0.3-0.5-0.6c0-0.3,0.2-0.5,0.5-0.5c0.6-0.2,1,0,1.2,0.6
			C719.6,766.2,719.7,766.5,719.8,766.9z"/>
		<path class="st60" d="M695.2,764.1L695.2,764.1L695.2,764.1C695.2,764,695.2,764.1,695.2,764.1z"/>
		<path class="st58" d="M731.1,773.5c-0.7,0-1.4,0.1-2.1,0.1c-0.2,0-0.3,0-0.3-0.3c0-0.8,0-1.6-0.1-2.5c0-0.3,0.2-0.3,0.4-0.3
			c1.1,0,2.3-0.1,3.4-0.1c0.1,0,0.1,0,0.2,0c0.9,0,0.9,0,0.9,0.8c0,0.6,0,1.3,0,1.9c0,0.2-0.1,0.3-0.3,0.3
			C732.5,773.4,731.8,773.4,731.1,773.5C731.1,773.4,731.1,773.4,731.1,773.5z"/>
		<path class="st58" d="M739.8,770.4c0.7,0,1.3,0.1,2,0.1c0.2,0,0.2,0,0.2,0.2c-0.1,0.8-0.1,1.7-0.2,2.5c0,0.2-0.1,0.2-0.3,0.2
			c-1.3,0-2.6,0-3.9-0.1c-0.2,0-0.2-0.1-0.2-0.2c0-0.9,0-1.7,0-2.6c0-0.2,0.1-0.2,0.3-0.2C738.4,770.3,739.1,770.3,739.8,770.4
			C739.8,770.3,739.8,770.4,739.8,770.4z"/>
		<path class="st58" d="M739.7,768.9c-0.7,0-1.3,0-2,0c-0.2,0-0.2-0.1-0.2-0.3c0-0.8,0-1.6,0-2.4c0-0.2,0-0.3,0.2-0.3
			c0.8,0,1.5-0.1,2.3,0c0.9,0.1,1.5,0.5,1.7,1.4c0.1,0.5,0.2,0.9,0.2,1.4c0,0.2,0,0.3-0.3,0.3c-0.7,0-1.3,0-2,0
			C739.7,768.9,739.7,768.9,739.7,768.9z"/>
		<path class="st58" d="M731.1,768.9c-0.7,0-1.4,0.1-2.1,0.1c-0.2,0-0.3,0-0.3-0.2c0-0.5,0.1-1.1,0.1-1.6c0-0.2,0.1-0.3,0.3-0.4
			c1.4-0.2,2.8-0.4,4.1-0.5c0.2,0,0.3,0,0.3,0.2c0,0.7,0,1.4,0,2.1c0,0.2-0.1,0.3-0.2,0.3C732.5,768.9,731.8,768.9,731.1,768.9
			L731.1,768.9z"/>
		<path class="st58" d="M1013.4,768.9c0.1-1.5,0.1-3,0.2-4.4c0-0.2,0.1-0.3,0.3-0.3c0.2,0,0.2,0.1,0.2,0.3c0,1.2,0,2.4,0,3.6
			C1014.1,768.5,1013.7,768.6,1013.4,768.9z"/>
		<path class="st58" d="M1027.5,768.9C1027.5,768.9,1027.5,769,1027.5,768.9C1027.4,769,1027.4,769,1027.5,768.9
			C1027.4,768.9,1027.4,768.9,1027.5,768.9z"/>
		<path class="st58" d="M1021.9,769.6C1021.8,769.6,1021.8,769.8,1021.9,769.6C1021.7,769.6,1021.8,769.6,1021.9,769.6
			C1021.8,769.6,1021.8,769.6,1021.9,769.6z"/>
		<path class="st58" d="M945,770.3c0,0.3,0.2,0.7-0.1,0.9c-0.2,0.2-0.6,0-0.9,0.1c-1.1,0-2.2,0.1-3.2,0.1c-0.3,0-0.3-0.1-0.4-0.3
			c0-0.5-0.1-1-0.1-1.5c0-0.2,0-0.2,0.2-0.2c1.4,0,2.9-0.1,4.3-0.2c0.2,0,0.2,0.1,0.2,0.2C945,769.8,945,770,945,770.3z"/>
		<path class="st58" d="M950.8,767.8c-0.6,0-1.1,0-1.7,0c-0.2,0-0.3,0-0.3-0.2c0-0.6,0-1.2,0-1.8c0-0.2,0-0.3,0.2-0.3
			c0.9,0,1.8-0.1,2.6,0c0.7,0,1,0.4,1,1.1c0,0.4,0,0.8,0,1.2c0,0.2,0,0.2-0.2,0.2C952,767.8,951.4,767.8,950.8,767.8L950.8,767.8z"
			/>
		<path class="st58" d="M942.6,767.8c-0.7,0-1.3,0.1-2,0.1c-0.2,0-0.3,0-0.3-0.3c0-0.3,0.1-0.6,0.1-1c0-0.4,0.1-0.5,0.5-0.5
			c1.3-0.1,2.5-0.3,3.8-0.4c0.3,0,0.4,0.1,0.4,0.3c0,0.5,0,0.9,0,1.4c0,0.2-0.1,0.3-0.3,0.3C944,767.8,943.3,767.8,942.6,767.8
			C942.6,767.8,942.6,767.8,942.6,767.8z"/>
		<path class="st58" d="M950.8,771.3c-0.6,0-1.1,0-1.7,0c-0.2,0-0.3-0.1-0.3-0.3c0-0.5,0-1,0-1.5c0-0.2,0-0.3,0.3-0.3
			c1.1,0,2.2,0.1,3.3,0.1c0.3,0,0.4,0.1,0.4,0.4c0,0.4,0,0.9,0,1.3c0,0.3-0.1,0.3-0.3,0.3C951.9,771.3,951.3,771.3,950.8,771.3
			L950.8,771.3z"/>
		<path class="st58" d="M708.6,777.2c-0.4,0.3-0.8,0.5-1.3,0.5c-0.8,0-1.4-0.4-1.6-1.2c-0.2-0.9,0.1-1.6,0.9-2
			c0.5-0.2,1-0.3,1.5-0.3c0.2,0,0.5,0.2,0.5-0.2c0-0.3-0.2-0.6-0.5-0.7c-0.4-0.1-0.8-0.1-1.2,0c-0.2,0-0.4,0.1-0.6,0.2
			c-0.2,0.1-0.3,0-0.3-0.2c0-0.8-0.1-0.7,0.7-0.8c0.5-0.1,1-0.1,1.5-0.1c0.9,0.2,1.4,0.7,1.4,1.6c0,1.1,0,2.2,0,3.3
			c0,0.3-0.1,0.4-0.3,0.3C709,777.6,708.6,777.9,708.6,777.2z M708.6,775.8c0-0.1,0-0.3,0-0.4s0-0.2-0.2-0.2
			c-0.5,0.1-0.9,0.1-1.4,0.3c-0.4,0.2-0.5,0.5-0.4,1c0.1,0.4,0.4,0.5,0.8,0.5C708.2,776.9,708.6,776.4,708.6,775.8z"/>
		<path class="st58" d="M976.7,768.9c-0.4,0-0.9,0-1.3,0c-0.2,0-0.3,0-0.3-0.3c0-0.8-0.1-1.6-0.1-2.5c0-0.2,0.1-0.3,0.3-0.3
			c0.9,0,1.7-0.1,2.6,0c0.2,0,0.3,0.1,0.3,0.3c0,0.8,0,1.6,0.1,2.5c0,0.3-0.1,0.3-0.3,0.3C977.5,768.9,977.1,768.9,976.7,768.9
			L976.7,768.9z"/>
		<path class="st58" d="M976.6,764.4c-0.4,0-0.9,0-1.3,0c-0.2,0-0.3-0.1-0.2-0.2c0.1-0.8,0.1-1.6,0.2-2.5c0-0.1,0.1-0.2,0.2-0.2
			c0.6-0.2,1.2-0.2,1.8-0.1c0.4,0.1,0.7,0.4,0.8,0.8c0.2,0.7,0.1,1.4,0.2,2c0,0.2-0.1,0.2-0.2,0.2
			C977.5,764.4,977,764.4,976.6,764.4L976.6,764.4z"/>
		<path class="st58" d="M857.7,778c-2,0-3-1.3-2.8-3.1c0.2-1.3,1-2.1,2-2.8c0.2-0.2,0.2,0.1,0.3,0.2c0.9,1.3,1.9,2.6,2.9,3.9
			c0.4,0.5,0.4,0.5-0.1,0.9C859.2,777.6,858.4,778,857.7,778z"/>
		<path class="st58" d="M860.4,764.4c0,0.8-0.3,1.5-0.9,2.1c-0.4,0.4-0.9,0.7-1.4,1c-0.1,0.1-0.2,0.1-0.3-0.1c-0.5-1-1.1-2-1.1-3.1
			c0-0.3,0-0.5,0.1-0.8c0.3-1,0.9-1.4,1.9-1.3c0.9,0.1,1.6,0.8,1.7,1.7C860.4,764.2,860.4,764.3,860.4,764.4z"/>
		<path class="st58" d="M759.5,770.8c-1.9,0-3.7,0-5.6,0.1c-0.2,0-0.3,0-0.3-0.2c-0.1-1.2,0-2.4,0-3.6c0-0.2,0.1-0.2,0.3-0.2
			c1.3-0.2,2.7-0.4,4-0.6c1.7-0.2,3.5-0.4,5.2-0.4c1.4-0.1,2.2,0.6,2.2,2.1c0,0.8,0,1.7,0,2.5c0,0.3,0,0.4-0.4,0.4
			C763.2,770.8,761.4,770.8,759.5,770.8z"/>
		<path class="st58" d="M967.1,767.6c0,0.4-0.1,0.9-0.1,1.3c0,0.2,0,0.3-0.2,0.3c-0.8,0-1.5,0-2.3,0c-0.2,0-0.2-0.1-0.2-0.2
			c0-0.9,0.1-1.9,0.1-2.8c0-0.2,0.1-0.2,0.3-0.3c0.8,0,1.5,0,2.3,0c0.2,0,0.3,0.1,0.3,0.3C967.2,766.8,967.2,767.1,967.1,767.6
			C967.2,767.6,967.2,767.6,967.1,767.6z"/>
		<path class="st58" d="M964.5,762.9c0-0.5,0.1-0.9,0.1-1.4c0-0.2,0.1-0.3,0.3-0.3c0.5-0.1,1-0.1,1.5,0.1c0.6,0.2,0.9,0.6,0.9,1.2
			c0,0.6,0,1.2,0,1.8c0,0.2-0.1,0.2-0.2,0.2c-0.8,0-1.5,0-2.3,0c-0.2,0-0.3,0-0.3-0.3C964.4,763.8,964.4,763.3,964.5,762.9
			C964.4,762.9,964.5,762.9,964.5,762.9z"/>
		<path class="st60" d="M708.6,775.8c0,0.7-0.4,1.2-1.2,1.2c-0.3,0-0.7-0.1-0.8-0.5c-0.1-0.5,0-0.8,0.4-1c0.4-0.2,0.9-0.2,1.4-0.3
			c0.1,0,0.2,0.1,0.2,0.2S708.6,775.6,708.6,775.8z"/>
	</g>
</g>
</svg>
