<svg id="レイヤー_1" data-name="レイヤー 1" xmlns="http://www.w3.org/2000/svg" viewBox="0 0 208.64 135.44"><defs><style>.cls-1{fill:#baa290;}.cls-19,.cls-2{fill:#464647;}.cls-14,.cls-3{fill:#ad5151;}.cls-4{fill:#bfa896;}.cls-5{fill:#c8b59d;}.cls-6{fill:#a17c76;}.cls-7{fill:#edd661;}.cls-8{fill:#baa694;}.cls-9{fill:#928847;}.cls-10{fill:#783939;}.cls-11,.cls-15{fill:#ebebeb;}.cls-11,.cls-12,.cls-13,.cls-14,.cls-15,.cls-16,.cls-17,.cls-18,.cls-19{stroke:#3c0000;stroke-miterlimit:10;stroke-width:1.09px;}.cls-11{opacity:0.33;}.cls-12{fill:#edc998;}.cls-13{fill:#eab363;}.cls-16{fill:#a36c65;}.cls-17{fill:#6d6d6d;}.cls-18,.cls-20{fill:#3c0000;}.cls-21{fill:#443939;opacity:0.23;}</style></defs><path class="cls-1" d="M33.68,42.69C35.75,44,36.54,47,37.59,49.16l3,6.23a1.75,1.75,0,0,1-.82,2.32l-.25.11a1.66,1.66,0,0,1-1.94-.34,4.21,4.21,0,0,1-.76-1.27,50.25,50.25,0,0,0-2.73-5.74,11.48,11.48,0,0,0-2.23-2.86c-1.06-.92-3-2-3.07-3.62a2.17,2.17,0,0,1,1.76-2A4.3,4.3,0,0,1,33.68,42.69Z"/><path class="cls-2" d="M38.74,58.53a2.19,2.19,0,0,1-1.58-.69,4.54,4.54,0,0,1-.85-1.42c-.17-.38-.34-.76-.5-1.14a38.6,38.6,0,0,0-2.2-4.53A11,11,0,0,0,31.48,48c-.21-.19-.46-.38-.72-.58-1.11-.85-2.48-1.9-2.53-3.42a2.7,2.7,0,0,1,2.16-2.56,4.85,4.85,0,0,1,3.57.79h0c1.74,1.08,2.64,3.23,3.43,5.13.22.54.44,1.07.68,1.57l3,6.22a2.28,2.28,0,0,1-1.08,3l-.24.11A2.27,2.27,0,0,1,38.74,58.53ZM31.2,42.42a2.6,2.6,0,0,0-.56.06A1.69,1.69,0,0,0,29.29,44c0,1,1.14,1.86,2.12,2.61.28.21.54.42.77.62a12,12,0,0,1,2.34,3,39.93,39.93,0,0,1,2.26,4.66c.17.38.33.76.5,1.13a3.71,3.71,0,0,0,.65,1.12,1.14,1.14,0,0,0,1.33.23l.25-.11a1.24,1.24,0,0,0,.62-.69,1.22,1.22,0,0,0-.05-.92l-3-6.23c-.24-.5-.47-1-.71-1.62-.76-1.83-1.55-3.73-3-4.63A4.47,4.47,0,0,0,31.2,42.42Z"/><path class="cls-3" d="M53.37,26.63h0A22.15,22.15,0,0,1,75.52,48.77V57.9a7.46,7.46,0,0,1-7.46,7.46H53.37a7.46,7.46,0,0,1-7.46-7.46V34.09a7.46,7.46,0,0,1,7.46-7.46Z"/><path class="cls-2" d="M68.06,66H53.37a8.1,8.1,0,0,1-8.1-8.1V34.09a8.1,8.1,0,0,1,8.1-8.1A22.82,22.82,0,0,1,76.16,48.77V57.9A8.11,8.11,0,0,1,68.06,66ZM53.37,27.26a6.84,6.84,0,0,0-6.82,6.83V57.9a6.83,6.83,0,0,0,6.82,6.83H68.06a6.83,6.83,0,0,0,6.82-6.83V48.77A21.54,21.54,0,0,0,53.37,27.26Z"/><path class="cls-4" d="M59.14,34.5c0,3.49-4.3,6.31-9.58,6.3h-.18c-5.28,0-9.56-2.85-9.55-6.35l.05-12.76c0-3.49,4.3-6.31,9.58-6.3h.18c5.28,0,9.56,2.85,9.55,6.34Z"/><path class="cls-5" d="M47.48,15.39h0V40.8c6.43,0,11.64-2.83,11.65-6.3l.06-12.77C59.2,18.24,54,15.4,47.48,15.39Z"/><path class="cls-2" d="M49.59,41h-.21a12.58,12.58,0,0,1-6.87-1.9,5.63,5.63,0,0,1-2.86-4.6l0-12.76c0-3.56,4.38-6.45,9.74-6.45h.21a12.5,12.5,0,0,1,6.87,1.9,5.62,5.62,0,0,1,2.86,4.59l0,12.77C59.31,38.06,55,41,49.59,41Zm-.16-25.41c-5.16,0-9.36,2.75-9.37,6.15L40,34.45a5.33,5.33,0,0,0,2.72,4.36,12.18,12.18,0,0,0,6.65,1.84h.21c5.16,0,9.36-2.76,9.37-6.15h0l0-12.77a5.34,5.34,0,0,0-2.71-4.36,12.09,12.09,0,0,0-6.65-1.83h-.21Z"/><path class="cls-2" d="M49.59,41.11h-.21a12.73,12.73,0,0,1-7-1.92,5.76,5.76,0,0,1-2.92-4.73l0-12.76c0-3.65,4.44-6.61,9.89-6.61h.21a12.74,12.74,0,0,1,7,1.93,5.74,5.74,0,0,1,2.92,4.72l0,12.77C59.47,38.14,55,41.11,49.59,41.11Zm0-.3,0,.14v-.14Zm-.13-25.27v.15c-5.07,0-9.21,2.69-9.22,6l0,12.76a5.21,5.21,0,0,0,2.65,4.23,12,12,0,0,0,6.56,1.81h.18c5.1,0,9.24-2.69,9.25-6v-.16l0-12.61A5.21,5.21,0,0,0,56.2,17.5a12.07,12.07,0,0,0-6.56-1.81h-.18Zm9.69,19.11c-.08,2-1.55,3.76-3.79,4.88,2.32-1.15,3.83-3,3.84-5l0-12.77a5.49,5.49,0,0,0-2.79-4.46c-.15-.1-.3-.2-.46-.29l.41.26a5.46,5.46,0,0,1,2.79,4.49l0,12.61h0v.31ZM43.31,16.86c-2.11,1.15-3.45,2.89-3.46,4.83l0,12.76a5.49,5.49,0,0,0,2.78,4.47l.53.32L42.65,39a5.48,5.48,0,0,1-2.79-4.5l0-12.76C39.9,19.75,41.23,18,43.31,16.86Z"/><path class="cls-2" d="M44,26.66a.85.85,0,1,1-.85-.85A.85.85,0,0,1,44,26.66Z"/><path class="cls-2" d="M51.09,26.66a.86.86,0,0,1-.86.85.85.85,0,0,1,0-1.7A.86.86,0,0,1,51.09,26.66Z"/><path class="cls-6" d="M51.57,28.44c-.91,0-1.65.48-1.65,1.08s.74,1.09,1.65,1.09,1.66-.48,1.66-1.09S52.49,28.44,51.57,28.44Z"/><path class="cls-6" d="M42.81,28.44c-.92,0-1.66.48-1.66,1.08s.74,1.09,1.66,1.09,1.65-.48,1.65-1.09S43.72,28.44,42.81,28.44Z"/><path class="cls-7" d="M61,21.21c0-.08-.07-.17-.1-.26a16.28,16.28,0,0,0-2.11-3.67,10.11,10.11,0,0,0-3.15-2.4,14.51,14.51,0,0,0-4.53-1.38,14.9,14.9,0,0,0-8.19,1.28,8.07,8.07,0,0,0-3.71,3.15,24.12,24.12,0,0,0-1.42,3.3L37.17,23a5.93,5.93,0,0,0-.54,1.51c-.07,1,1.58,1.63,2.36,1.6a4.35,4.35,0,0,0,2.35-.81.92.92,0,0,1,.25-.15,1,1,0,0,1,.39,0,6.59,6.59,0,0,0,2.29-.53,2.67,2.67,0,0,0,1.45-1.05c.23-.4.62-.31,1-.37a7.49,7.49,0,0,0,1.33-.28,3.67,3.67,0,0,0,1-.49c.22-.15.37-.41.58-.57s.43-.1.74.1a3.26,3.26,0,0,0,2.09.45,7.41,7.41,0,0,0,2-.7c.35-.13.43-.12.62.2s.39.74.63,1.09a2.63,2.63,0,0,0,.57.67,3.35,3.35,0,0,0,.72.39,17.65,17.65,0,0,0,1.85.65c-.09.67,0,1.36,0,2,0,1,0,2.07,0,3.1a2.44,2.44,0,0,0,.87,2.16c1.05.63,2.53-.5,3-1.46a4.51,4.51,0,0,0,.26-2.6,18.64,18.64,0,0,0-.85-3.2l-.43-1.31C61.53,22.64,61.29,21.92,61,21.21Z"/><path class="cls-2" d="M60.47,32.47a1.56,1.56,0,0,1-.85-.24,2.74,2.74,0,0,1-1-2.45c0-1,0-2.09,0-3.13a7.3,7.3,0,0,0,0-.81c0-.31,0-.63,0-.95-.54-.16-1.07-.36-1.6-.57a3.72,3.72,0,0,1-.8-.44,3.5,3.5,0,0,1-.65-.75c-.15-.23-.28-.47-.41-.7s-.15-.28-.23-.41l-.06-.1-.13,0-.55.23a5.13,5.13,0,0,1-1.58.5,3.67,3.67,0,0,1-2.3-.51l-.13-.09L50,22l-.08.06c-.07.06-.14.14-.22.22a1.64,1.64,0,0,1-.38.36,4.15,4.15,0,0,1-1.12.54,7.28,7.28,0,0,1-1.4.29l-.28,0c-.32,0-.41,0-.48.16a3,3,0,0,1-1.63,1.21,7,7,0,0,1-2.41.55.91.91,0,0,0-.27,0,.46.46,0,0,0-.14.09,4.82,4.82,0,0,1-2.56.89,3.35,3.35,0,0,1-2.32-.92,1.46,1.46,0,0,1-.41-1.07,3.69,3.69,0,0,1,.38-1.19,3.79,3.79,0,0,0,.18-.42c.14-.36.27-.72.4-1.09l.23-.64a25.33,25.33,0,0,1,1.45-3.35,8.56,8.56,0,0,1,3.87-3.31,15.28,15.28,0,0,1,8.38-1.3,15,15,0,0,1,4.64,1.42,10.43,10.43,0,0,1,3.26,2.49,16.43,16.43,0,0,1,2.16,3.75l.11.28c.28.71.53,1.45.76,2.16l.43,1.3a19.54,19.54,0,0,1,.87,3.26,4.78,4.78,0,0,1-.3,2.82,3.69,3.69,0,0,1-2,1.75A2.28,2.28,0,0,1,60.47,32.47ZM54.86,21.19c.22,0,.41.12.61.45l.24.43a6.91,6.91,0,0,0,.38.65,2.51,2.51,0,0,0,.49.58,2.62,2.62,0,0,0,.64.34,16.92,16.92,0,0,0,1.81.64.36.36,0,0,1,.25.39,8.58,8.58,0,0,0,0,1.14c0,.28,0,.58,0,.87,0,1,0,2.05,0,3.07,0,.8.11,1.49.7,1.86a1.12,1.12,0,0,0,.91.07,3,3,0,0,0,1.6-1.38,4.19,4.19,0,0,0,.23-2.39,19.51,19.51,0,0,0-.84-3.13l-.43-1.31c-.23-.7-.47-1.42-.75-2.12h0l-.11-.26a15.5,15.5,0,0,0-2-3.58,9.86,9.86,0,0,0-3.05-2.31,14.29,14.29,0,0,0-4.41-1.35,14.59,14.59,0,0,0-8,1.26,7.72,7.72,0,0,0-3.54,3,23.52,23.52,0,0,0-1.41,3.25l-.23.64c-.13.36-.26.73-.4,1.09a3.67,3.67,0,0,1-.2.47,3.17,3.17,0,0,0-.31.93.67.67,0,0,0,.22.51,2.72,2.72,0,0,0,1.78.71A4,4,0,0,0,41.14,25a2.17,2.17,0,0,1,.33-.19,1.38,1.38,0,0,1,.47-.07,6.22,6.22,0,0,0,2.21-.5,2.4,2.4,0,0,0,1.27-.9,1.13,1.13,0,0,1,1-.52l.24,0A6.87,6.87,0,0,0,48,22.5a4.39,4.39,0,0,0,1-.45,1.81,1.81,0,0,0,.24-.24,2.42,2.42,0,0,1,.32-.32.74.74,0,0,1,1,0l.11.08a3,3,0,0,0,1.88.4,4.29,4.29,0,0,0,1.37-.44l.57-.24A1.26,1.26,0,0,1,54.86,21.19Z"/><rect class="cls-5" x="57.83" y="46.15" width="5.24" height="21.55" rx="2.44" transform="translate(120.9 113.85) rotate(180)"/><path class="cls-2" d="M60.63,68.45h-.36a3.19,3.19,0,0,1-3.19-3.19V48.59a3.19,3.19,0,0,1,3.19-3.18h.36a3.19,3.19,0,0,1,3.19,3.18V65.26A3.19,3.19,0,0,1,60.63,68.45ZM60.27,46.9a1.69,1.69,0,0,0-1.69,1.69V65.26A1.7,1.7,0,0,0,60.27,67h.36a1.7,1.7,0,0,0,1.7-1.7V48.59a1.7,1.7,0,0,0-1.7-1.69Z"/><path class="cls-3" d="M64.46,37.94c-3.7-.45-6.6.93-7.74,3.43a9.74,9.74,0,0,0-.88,4V55.48h8.52Z"/><path class="cls-2" d="M64,46.84l0,8.33H56.23V45.4a9.39,9.39,0,0,1,.86-3.92c.95-2.1,3.2-3.31,6-3.31.31,0,.63,0,1,0V39a.36.36,0,0,0,.39.32h0a.37.37,0,0,0,.4-.32V37.94a.34.34,0,0,0-.33-.31c-3.8-.47-6.94.92-8.17,3.63a10,10,0,0,0-.91,4.14V55.48a.28.28,0,0,0,.12.23.43.43,0,0,0,.28.09h8.52a.37.37,0,0,0,.4-.31l0-8.65a.36.36,0,0,0-.39-.32h0A.36.36,0,0,0,64,46.84Z"/><path class="cls-2" d="M55.84,56a.6.6,0,0,1-.4-.13.49.49,0,0,1-.19-.38V45.4a10.19,10.19,0,0,1,.92-4.22c1.27-2.79,4.48-4.23,8.38-3.74a.54.54,0,0,1,.5.5V39a.55.55,0,0,1-.59.5.62.62,0,0,1-.44-.17.51.51,0,0,1-.14-.34v-.6c-3.09-.23-5.61,1-6.61,3.17a9.36,9.36,0,0,0-.84,3.84V55h7.36l0-8.15a.57.57,0,0,1,.59-.5.66.66,0,0,1,.45.17.51.51,0,0,1,.14.34l0,8.65a.55.55,0,0,1-.59.5Zm7.25-18.26c-3.07,0-5.52,1.32-6.56,3.61a9.78,9.78,0,0,0-.89,4.06V55.48a.1.1,0,0,0,0,.08.28.28,0,0,0,.16,0h8.52c.12,0,.2-.06.2-.12l0-8.64a.09.09,0,0,0,0-.06c-.1-.11-.37,0-.37.06h0l0,8.52H56v-10a9.65,9.65,0,0,1,.88-4c1-2.14,3.29-3.42,6.2-3.42.32,0,.64,0,1,0l.18,0v1a.09.09,0,0,0,0,.06c.11.1.37,0,.37-.06V37.94s-.07-.11-.16-.12A11.36,11.36,0,0,0,63.09,37.73Z"/><path class="cls-2" d="M45.53,26a.4.4,0,0,0-.4-.41H41.85a.41.41,0,1,0,0,.81h3.28a.4.4,0,0,0,.4-.4Z"/><path class="cls-2" d="M52.79,25.59H49.16a.4.4,0,0,0-.4.41h0a.4.4,0,0,0,.4.4h3.63a.41.41,0,0,0,0-.81Z"/><path class="cls-5" d="M58.45,24.65s2.88.08,2.89,2.24S58.46,29,58.46,29Z"/><path class="cls-2" d="M58.65,24.23a.48.48,0,0,0-.29.15.37.37,0,0,0,0,.35.45.45,0,0,0,.29.23,5.09,5.09,0,0,1,.93.18,1.84,1.84,0,0,1,1.12,1.67,1.73,1.73,0,0,1-.5,1.25,1.62,1.62,0,0,1-.68.37c-.22.06-.62,0-.8.15s-.14.3-.13.47a.34.34,0,0,0,0,.1c.13.28.83.06,1,0a2.72,2.72,0,0,0,1.11-.59,2.27,2.27,0,0,0,.71-1.75,2.42,2.42,0,0,0-1.11-2.07A3.21,3.21,0,0,0,58.65,24.23Z"/><path class="cls-8" d="M58.75,25.54s1.49-.15,1.51,1.27-1.5,1.29-1.5,1.29Z"/><path class="cls-5" d="M50.86,36.79a.23.23,0,0,0,.25-.2V34.94c0-1.52-1.68-2.75-3.76-2.75h0c-2.07,0-3.75,1.23-3.75,2.75v1.65a.23.23,0,0,0,.25.2Z"/><path class="cls-7" d="M50.82,38.25a3.2,3.2,0,0,1-.92.47,9.44,9.44,0,0,1-3.59.36,5.66,5.66,0,0,1-1.79-.31,2.33,2.33,0,0,1-1.25-1.06,3.59,3.59,0,0,1-.22-1.63,5.75,5.75,0,0,1,.14-1.8,3.35,3.35,0,0,1,1.86-2.12,5.51,5.51,0,0,1,4.74.06,3.38,3.38,0,0,1,1.5,1.42,4.88,4.88,0,0,1,.43,2,3.52,3.52,0,0,1-.39,2.13A2.06,2.06,0,0,1,50.82,38.25Zm-6-2h5a.71.71,0,0,0,.71-.71v-.6c0-1.2-1.47-2.21-3.22-2.21s-3.21,1-3.21,2.21v.6A.71.71,0,0,0,44.85,36.25Z"/><path class="cls-2" d="M47.22,39.35c-.32,0-.64,0-.92,0A6,6,0,0,1,44.43,39a2.59,2.59,0,0,1-1.38-1.18,3.19,3.19,0,0,1-.24-1.45v-.28A6.35,6.35,0,0,1,43,34.22a3.64,3.64,0,0,1,2-2.28,5.82,5.82,0,0,1,5,.06,3.68,3.68,0,0,1,1.61,1.53A5,5,0,0,1,52,35.59a3.72,3.72,0,0,1-.43,2.28,2.36,2.36,0,0,1-.56.58,3.83,3.83,0,0,1-1,.5A8.32,8.32,0,0,1,47.22,39.35Zm.13-7.45a5.27,5.27,0,0,0-2.2.47,3.18,3.18,0,0,0-1.73,2,5.69,5.69,0,0,0-.13,1.73v.29a2.84,2.84,0,0,0,.2,1.24,2.09,2.09,0,0,0,1.12.94,5.45,5.45,0,0,0,1.71.29,9.63,9.63,0,0,0,3.51-.34,3.39,3.39,0,0,0,.85-.44h0a1.73,1.73,0,0,0,.44-.46,3.27,3.27,0,0,0,.36-2,4.62,4.62,0,0,0-.4-1.87,3.26,3.26,0,0,0-1.4-1.32A5.3,5.3,0,0,0,47.35,31.9Zm2.51,4.59h-5a1,1,0,0,1-1-1v-.6c0-1.35,1.55-2.45,3.45-2.45s3.46,1.12,3.46,2.45v.6A1,1,0,0,1,49.86,36.49ZM47.35,33c-1.63,0-3,.88-3,2v.6a.46.46,0,0,0,.47.46h5a.46.46,0,0,0,.47-.46v-.6C50.33,33.87,49,33,47.35,33Z"/><path class="cls-5" d="M47.5,27.93V29a1.59,1.59,0,0,0-.41.16,1,1,0,0,0-.53.76.85.85,0,0,0,1.37.73Z"/><path class="cls-2" d="M47.41,31.14a1.19,1.19,0,0,1-.56-.14,1.12,1.12,0,0,1-.56-1.07A1.3,1.3,0,0,1,47,29a1.2,1.2,0,0,1,.28-.13v-.91a.27.27,0,0,1,.27-.27h0a.27.27,0,0,1,.27.27V29a.28.28,0,0,1-.21.27,1,1,0,0,0-.34.12.8.8,0,0,0-.4.56.58.58,0,0,0,.29.54.63.63,0,0,0,.65,0,.27.27,0,1,1,.34.41A1.05,1.05,0,0,1,47.41,31.14Z"/><path class="cls-9" d="M26.94,54.08l-.48-.34a2.52,2.52,0,0,1-.56-3.21l5.42-9.92a1.91,1.91,0,0,1,2.77-.86l.48.35a2.51,2.51,0,0,1,.56,3.2l-5.42,9.92A1.91,1.91,0,0,1,26.94,54.08Z"/><path class="cls-2" d="M27.48,55a2.1,2.1,0,0,1-.83-.36l-.49-.34a3.18,3.18,0,0,1-.69-4l5.42-9.93a2.77,2.77,0,0,1,1.6-1.37,2.12,2.12,0,0,1,1.89.29l.49.34a2.74,2.74,0,0,1,1.07,1.8,3.47,3.47,0,0,1-.38,2.25l-5.42,9.92A2.56,2.56,0,0,1,27.48,55Zm-.25-1.43a1.4,1.4,0,0,0,2-.63L34.69,43a2,2,0,0,0,.22-1.31,1.59,1.59,0,0,0-.63-1l-.48-.34a1.4,1.4,0,0,0-2,.63l-5.42,9.92a1.84,1.84,0,0,0,.41,2.36Z"/><path class="cls-5" d="M37.41,38.06c2.07,1.28,2.87,4.29,3.91,6.48l3,6.22a1.75,1.75,0,0,1-.82,2.32l-.25.12a1.75,1.75,0,0,1-2.32-.83c-.73-1.54-1.47-3.09-2.21-4.63-.64-1.36-2.08-6.11-3.74-6.06a6.39,6.39,0,0,1-2.63-.47c-.2-.08-.43-.25-.35-.45a1.36,1.36,0,0,1-1.09-.08.89.89,0,0,1-.21-1.07,2.25,2.25,0,0,1,.79-.86,6.39,6.39,0,0,1,3.81-1.31A4.27,4.27,0,0,1,37.41,38.06Z"/><path class="cls-2" d="M42.48,53.9a2.43,2.43,0,0,1-.76-.13,2.3,2.3,0,0,1-1.3-1.17L38.21,48c-.14-.28-.31-.72-.51-1.22-.53-1.36-1.78-4.53-2.72-4.53h0a7.12,7.12,0,0,1-2.85-.5,1.27,1.27,0,0,1-.5-.36,1.47,1.47,0,0,1-1.05-.24,1.42,1.42,0,0,1-.39-1.71,2.69,2.69,0,0,1,1-1.08,6.93,6.93,0,0,1,4.13-1.41,4.81,4.81,0,0,1,2.41.7h0c1.74,1.08,2.64,3.23,3.43,5.13.22.54.44,1.08.68,1.57l3,6.22a2.28,2.28,0,0,1-1.07,3l-.25.12A2.37,2.37,0,0,1,42.48,53.9ZM35,41.15c1.53,0,2.63,2.46,3.71,5.2.19.48.35.89.48,1.16l2.21,4.64a1.19,1.19,0,0,0,.69.61,1.2,1.2,0,0,0,.93,0l.24-.12A1.22,1.22,0,0,0,43.81,51l-3-6.22c-.24-.51-.47-1.06-.71-1.62-.76-1.84-1.55-3.74-3-4.64h0A3.72,3.72,0,0,0,35.25,38a6,6,0,0,0-3.48,1.21,1.76,1.76,0,0,0-.61.64.42.42,0,0,0,0,.43c.14.1.5,0,.67,0a.55.55,0,0,1,.64.47h0a5.88,5.88,0,0,0,2.41.43Z"/><path class="cls-2" d="M47,35.69a.88.88,0,0,1-.69-.28c-.09-.1-.34-.48.09-1a.62.62,0,0,1,.14-.14,1,1,0,0,1-.12-.46.72.72,0,0,1,.21-.51.67.67,0,0,1,.62-.18,1,1,0,0,1,.63.64.24.24,0,0,1-.16.3.24.24,0,0,1-.3-.15.52.52,0,0,0-.29-.32s-.09,0-.16.06a.19.19,0,0,0-.06.16.76.76,0,0,0,.21.46.24.24,0,0,1-.28.38l-.06,0c-.07.09-.22.32-.1.45a.65.65,0,0,0,.71,0,.23.23,0,0,1,.32.09.24.24,0,0,1-.09.33A1.3,1.3,0,0,1,47,35.69Z"/><path class="cls-3" d="M61.68,20.84c0-.06,0-.15.08-.34a10.85,10.85,0,0,0,0-1.14,10.45,10.45,0,0,0-.2-2.37A5.39,5.39,0,0,0,56,12.77c-2.9,0-5.8,0-8.71.05s-5.82-.07-7.64,2.62a9.91,9.91,0,0,0-1.93,5.46c1.77.07,3.56,0,5.33,0H53.68c2.54,0,5.09,0,7.64,0C61.54,20.89,61.63,20.89,61.68,20.84Z"/><path class="cls-2" d="M39.54,21.29q-.9,0-1.8,0a.37.37,0,0,1-.35-.35c-.12-2.28,1.36-4.73,2-5.67,1.81-2.67,4.63-2.72,7.37-2.77h.56c2.07,0,4.17-.05,6.19-.05h2.57a5.72,5.72,0,0,1,5.86,4.51,11.58,11.58,0,0,1,.22,2.45v.24a7.63,7.63,0,0,1,0,.95v.06a.77.77,0,0,1-.15.46h0c-.16.19-.37.19-.64.19h-20Zm22.14-.45h0Zm-23.57-.29c1.07,0,2.15,0,3.21,0l1.77,0h18.3v-.07a8,8,0,0,0,0-.86v-.25a10.11,10.11,0,0,0-.2-2.28A5,5,0,0,0,56,13.13H53.51c-2,0-4.11,0-6.17,0l-.57,0c-2.67,0-5.18.08-6.78,2.45A10.42,10.42,0,0,0,38.11,20.55Z"/><rect class="cls-10" x="31.64" y="20.81" width="30.18" height="2.54"/><path class="cls-2" d="M61.82,23.85H31.64a.5.5,0,0,1-.5-.5V20.81a.5.5,0,0,1,.5-.5H61.82a.5.5,0,0,1,.5.5v2.54A.5.5,0,0,1,61.82,23.85Zm-29.68-1H61.32V21.31H32.14Z"/><path class="cls-7" d="M41.12,17.21H46a1,1,0,0,1,1,1v1.25a0,0,0,0,1,0,0H40.1a0,0,0,0,1,0,0V18.23A1,1,0,0,1,41.12,17.21Z"/><path class="cls-2" d="M47,19.81H40.1a.33.33,0,0,1-.33-.33V18.23a1.36,1.36,0,0,1,1.35-1.35H46a1.35,1.35,0,0,1,1.35,1.35v1.25A.32.32,0,0,1,47,19.81Zm-6.55-.66h6.22v-.92a.69.69,0,0,0-.7-.69H41.12a.69.69,0,0,0-.69.69Z"/><path class="cls-11" d="M23.31,41.16l-3,4.16a2.3,2.3,0,0,0,2,3.61h45a2.36,2.36,0,0,0,2.41-2.3V42.47a2.36,2.36,0,0,0-2.41-2.3H25.29A2.44,2.44,0,0,0,23.31,41.16Z"/><path class="cls-12" d="M40,2.64,8.26,49.23a4.76,4.76,0,0,0-.84,2.7v57.2a4.8,4.8,0,0,0,4.81,4.8H196.41a4.8,4.8,0,0,0,4.81-4.8V5.35a4.8,4.8,0,0,0-4.81-4.8H44A4.81,4.81,0,0,0,40,2.64ZM64,50.45H28.31a4.81,4.81,0,0,1-4-7.54L45.23,12.76a4.78,4.78,0,0,1,4-2.07H64a4.8,4.8,0,0,1,4.8,4.8V45.65A4.8,4.8,0,0,1,64,50.45Z"/><rect class="cls-13" x="7.42" y="64.91" width="193.79" height="49.47"/><rect class="cls-14" x="7.42" y="62.62" width="193.79" height="4.64"/><path class="cls-15" d="M24.07,78.16H7.42a2,2,0,0,1,0-4H24.07a2,2,0,1,1,0,4Z"/><path class="cls-16" d="M15.75,90.4H7.42a2,2,0,1,1,0-4h8.33a2,2,0,0,1,0,4Z"/><path class="cls-15" d="M201.22,78.16H184.56a2,2,0,0,1,0-4h16.66a2,2,0,0,1,0,4Z"/><path class="cls-16" d="M201.22,90.4h-8.33a2,2,0,1,1,0-4h8.33a2,2,0,0,1,0,4Z"/><rect class="cls-17" x="0.55" y="113.93" width="25.9" height="6.82" rx="2.06"/><path class="cls-18" d="M2.56,118.74H24.44v-2.8H2.56Z"/><path class="cls-19" d="M58.44,66.92H43.18a2,2,0,0,1-2-2V60.12a2,2,0,0,1,4,0v2.77H58.44a2,2,0,0,1,0,4Z"/><path class="cls-19" d="M99.27,66.92H84a2,2,0,0,1,0-4H99.27a2,2,0,0,1,0,4Z"/><rect class="cls-17" x="182.19" y="113.93" width="25.9" height="6.82" rx="2.06"/><circle class="cls-17" cx="43.95" cy="116.39" r="18.5"/><path class="cls-18" d="M44,99.9a16.49,16.49,0,1,0,16.49,16.49A16.51,16.51,0,0,0,44,99.9Z"/><circle class="cls-15" cx="43.95" cy="116.39" r="8.38"/><path class="cls-19" d="M44,126.78a10.39,10.39,0,1,1,10.39-10.39A10.41,10.41,0,0,1,44,126.78ZM44,110a6.37,6.37,0,1,0,6.36,6.37A6.37,6.37,0,0,0,44,110Z"/><circle class="cls-17" cx="164.49" cy="116.39" r="18.5"/><path class="cls-18" d="M164.49,99.9A16.49,16.49,0,1,0,181,116.39,16.51,16.51,0,0,0,164.49,99.9Z"/><path class="cls-15" d="M172.87,116.39a8.38,8.38,0,1,1-8.38-8.38A8.38,8.38,0,0,1,172.87,116.39Z"/><path class="cls-19" d="M164.49,126.78a10.39,10.39,0,1,1,10.39-10.39A10.4,10.4,0,0,1,164.49,126.78Zm0-16.76a6.37,6.37,0,1,0,6.37,6.37A6.38,6.38,0,0,0,164.49,110Z"/><path class="cls-3" d="M91.19,19.37H86.05a2.42,2.42,0,0,0-2.5,2.32V42.11a2.51,2.51,0,0,0,5,0V35h2.64c4.87,0,8.83-3.49,8.83-7.78S96.06,19.37,91.19,19.37Zm0,11H88.55V24h2.64C93.3,24,95,25.44,95,27.18S93.33,30.32,91.19,30.32Z"/><path class="cls-3" d="M116.09,20.15h0a8.74,8.74,0,0,0-4.3-1.15,8.86,8.86,0,0,0-4.36,1.15c-4.3,2.49-5.83,7.85-5.83,11.68s1.53,9.15,5.86,11.69a8.86,8.86,0,0,0,4.33,1.13,8.59,8.59,0,0,0,4.31-1.15C120.43,41,122,35.63,122,31.83S120.43,22.66,116.09,20.15Zm-2.72,19.42a2.78,2.78,0,0,1-1.58.44,2.9,2.9,0,0,1-1.69-.48c-2.45-1.39-3.54-4.87-3.54-7.7s1.22-6.17,3.55-7.71a4.28,4.28,0,0,1,1.68-.48,4.09,4.09,0,0,1,1.63.48c2.33,1.54,3.55,5,3.55,7.71,0,2.84-1.09,6.33-3.54,7.7Z"/><path class="cls-3" d="M133.93,29h0c-2.79-.79-4.4-1.51-4.4-2.88a2.06,2.06,0,0,1,.65-1.45,3.76,3.76,0,0,1,2.71-1H133a3.24,3.24,0,0,1,3.26,2,1.33,1.33,0,0,1,0,.26l0,.16a2.46,2.46,0,0,0,.12,1l.07.15a2.28,2.28,0,0,0,2.35,1.62,2.42,2.42,0,0,0,2.5-2.33c0-4.35-3.59-7.51-8.53-7.51-4.59,0-8.32,3.17-8.32,7.07,0,5.05,5.13,6.53,7.9,7.33,1.5.41,5,1.6,5,3.77s-1.95,2.83-3.78,2.83a4.67,4.67,0,0,1-2.41-.56l-.08,0a2.68,2.68,0,0,1-1.56-2l-.05-.2a.91.91,0,0,1,0-.16c0-.08,0-.2,0-.34a1.28,1.28,0,0,1,0-.17v-.08a2.3,2.3,0,0,0-2.46-2.17,2.45,2.45,0,0,0-2.5,2.32c0,4.73,3.77,8,9.17,8,5.15,0,8.74-3.08,8.74-7.48C142.48,33.46,139.61,30.7,133.93,29Z"/><path class="cls-3" d="M158.24,19.63H145.93a2.33,2.33,0,1,0,0,4.64h3.66V42a2.51,2.51,0,0,0,5,0V24.27h3.65a2.33,2.33,0,1,0,0-4.64Z"/><path class="cls-3" d="M174.7,33.76H158.85a1.71,1.71,0,0,1-1.72-1.71h0a1.72,1.72,0,0,1,1.72-1.71H174.7a1.72,1.72,0,0,1,1.72,1.71h0A1.71,1.71,0,0,1,174.7,33.76Z"/><rect class="cls-3" x="162.71" y="20.89" width="10.78" height="3.55" rx="1.71"/><rect class="cls-3" x="161.95" y="39.03" width="27.78" height="4.19" rx="1.71"/><rect class="cls-20" x="67.96" y="7.44" width="2.02" height="106.94" rx="1.01"/><ellipse class="cls-21" cx="103.37" cy="134.9" rx="105.07" ry="5.88"/></svg>