<?xml version="1.0" encoding="utf-8"?>
<!-- Generator: Adobe Illustrator 25.3.0, SVG Export Plug-In . SVG Version: 6.00 Build 0)  -->
<svg version="1.1" id="レイヤー_1" xmlns="http://www.w3.org/2000/svg" xmlns:xlink="http://www.w3.org/1999/xlink" x="0px"
	 y="0px" viewBox="0 0 690.4 234.3" style="enable-background:new 0 0 690.4 234.3;" xml:space="preserve">
<style type="text/css">
	.st0{fill:#FFFDFE;stroke:#3C0000;stroke-width:4.5;stroke-miterlimit:10;}
	.st1{fill:#3C0000;}
	.st2{enable-background:new    ;}
	.st3{fill:#FFFFFF;}
	.st4{fill:#2D2D2D;}
</style>
<path class="st0" d="M27.4,2.2H663c13.9,0,25.2,11.3,25.2,25.1v159.5c0,13.9-11.3,25.1-25.2,25.1H27.4c-13.9,0-25.1-11.3-25.1-25.1
	V27.4C2.2,13.5,13.5,2.2,27.4,2.2z"/>
<path class="st1" d="M36.5,11h616.6c13.9,0,25.2,11.3,25.2,25.2v71.4c0,13.9-11.3,25.2-25.2,25.2H36.5c-13.9,0-25.1-11.3-25.1-25.2
	V36.2C11.4,22.3,22.6,11,36.5,11z"/>
<g class="st2">
	<path class="st3" d="M134.9,52.3l2.4,2.8c0.6,0.7,0.9,1.5,0.8,2.4c-0.1,0.9-0.5,1.7-1.2,2.3c-4,3.4-8.5,6.3-13.2,8.9
		c-0.3,0.2-0.5,0.4-0.5,0.8V94c0,0.9-0.3,1.7-1,2.3c-0.7,0.7-1.4,1-2.3,1h-5.3c-0.9,0-1.7-0.3-2.3-1c-0.7-0.7-1-1.4-1-2.3v-19
		c0-0.1-0.1-0.2-0.2-0.3c-0.1-0.1-0.2-0.1-0.3-0.1c-5.5,2.1-10.9,3.6-16.2,4.5c-0.9,0.2-1.7,0-2.5-0.6c-0.8-0.5-1.2-1.3-1.4-2.1
		l-0.6-3.6c-0.2-0.9,0-1.7,0.5-2.4s1.2-1.2,2.1-1.4c6.9-1.2,13.6-3.3,20.1-6.3c6.5-2.9,12.2-6.5,17.3-10.7c0.7-0.6,1.5-0.8,2.4-0.8
		C133.6,51.3,134.3,51.7,134.9,52.3z"/>
	<path class="st3" d="M152.6,60.7c-0.8-0.4-1.3-1-1.6-1.8c-0.3-0.8-0.2-1.6,0.2-2.4l2.1-4c0.4-0.8,1.1-1.4,2-1.7
		c0.9-0.3,1.8-0.3,2.6,0.1c4.2,1.9,8.3,3.9,12.3,5.9c0.8,0.4,1.3,1,1.6,1.8c0.2,0.8,0.1,1.7-0.3,2.4l-2.3,4.2
		c-0.4,0.8-1.1,1.3-2,1.6c-0.9,0.3-1.7,0.2-2.5-0.2C160.2,64.4,156.2,62.4,152.6,60.7z M194.5,57c0.9,0.2,1.6,0.7,2.1,1.4
		c0.5,0.8,0.7,1.6,0.5,2.5c-2.3,10.3-6.8,18.3-13.5,23.9c-6.7,5.7-15.9,9.2-27.7,10.6c-0.9,0.1-1.7-0.1-2.5-0.7
		c-0.7-0.6-1.1-1.3-1.3-2.2l-0.7-4.2c-0.2-0.8,0-1.6,0.6-2.4c0.5-0.7,1.3-1.2,2.1-1.3c9.4-1.3,16.6-4,21.6-8.1
		c5-4.1,8.7-10.1,10.8-18.1c0.2-0.9,0.7-1.6,1.5-2c0.8-0.5,1.6-0.6,2.4-0.4L194.5,57z"/>
	<path class="st3" d="M249.4,51.9c0.9,0,1.7,0.3,2.4,1c0.7,0.6,1,1.4,0.9,2.3c-0.2,12.9-3.3,22.7-9.1,29.4
		c-5.9,6.6-14.8,10.7-26.9,12.1c-0.9,0.1-1.8-0.1-2.5-0.7c-0.8-0.6-1.2-1.3-1.4-2.2l-0.8-3.6c-0.2-0.8,0-1.6,0.5-2.3
		c0.5-0.7,1.2-1.1,2.1-1.2c8.2-1,14.4-3.3,18.4-7c4.1-3.7,6.6-9.2,7.6-16.8c0-0.1,0-0.2-0.1-0.3c-0.1-0.1-0.2-0.1-0.3-0.1h-29.8
		c-0.9,0-1.7-0.3-2.3-1c-0.7-0.7-1-1.4-1-2.3v-3.8c0-0.9,0.3-1.7,1-2.3c0.7-0.7,1.4-1,2.3-1H249.4z"/>
	<path class="st3" d="M304,63.8c0.9,0,1.7,0.3,2.3,1c0.7,0.7,1,1.4,1,2.3v1.6c0,0.9-0.3,1.7-1,2.3c-0.7,0.7-1.4,1-2.3,1h-4
		c-0.3,0-0.5,0.2-0.5,0.5v14.9c0,1.6,0,2.8-0.1,3.7c-0.1,0.9-0.2,1.7-0.5,2.5c-0.3,0.8-0.6,1.3-0.9,1.7s-0.9,0.6-1.8,0.9
		c-0.8,0.2-1.7,0.4-2.6,0.4c-0.9,0-2.2,0.1-3.9,0.1c-0.5,0-1.9-0.1-4.4-0.2c-0.9,0-1.6-0.4-2.3-1.1c-0.6-0.7-0.9-1.5-0.8-2.4l0.1-1
		c0.1-0.9,0.4-1.6,1.1-2.2c0.7-0.6,1.4-0.9,2.3-0.8c1.5,0.1,2.5,0.2,3,0.2c0.8,0,1.2-0.1,1.4-0.2c0.2-0.2,0.2-0.6,0.2-1.4V80
		c0-0.1,0-0.1-0.1-0.2c-0.1-0.1-0.2-0.1-0.2,0c-4.8,3.9-9.8,7.4-15.1,10.6c-0.8,0.5-1.6,0.6-2.5,0.3c-0.9-0.2-1.6-0.7-2-1.5l-1-1.7
		c-0.5-0.8-0.6-1.6-0.3-2.5c0.2-0.9,0.8-1.5,1.5-2c5.3-3.2,10.3-6.8,15-10.8c0.1,0,0.1-0.1,0.1-0.2c0-0.1-0.1-0.1-0.2-0.1h-13.8
		c-0.9,0-1.7-0.3-2.3-1c-0.7-0.7-1-1.4-1-2.3v-1.6c0-0.9,0.3-1.7,1-2.3c0.7-0.7,1.4-1,2.3-1h18.1c0.3,0,0.5-0.2,0.5-0.5v-2.7
		c0-0.9,0.3-1.7,1-2.3c0.7-0.7,1.4-1,2.3-1h2.5c0.9,0,1.7,0.3,2.3,1c0.7,0.7,1,1.4,1,2.3v2.7c0,0.3,0.2,0.5,0.5,0.5H304z"/>
	<path class="st3" d="M356.2,73.1c4.8,4,8.6,7.3,11.4,9.8c0.7,0.6,1,1.4,1.1,2.3s-0.2,1.7-0.8,2.4l-2.9,3.4
		c-0.6,0.7-1.3,1.1-2.2,1.1s-1.7-0.2-2.3-0.8c-3.6-3.3-7.3-6.5-11.1-9.7c-0.3-0.2-0.5-0.2-0.8,0.1c-5.2,5.4-11.3,10.2-18.4,14.2
		c-0.8,0.5-1.7,0.6-2.6,0.4c-0.9-0.2-1.7-0.7-2.2-1.4l-2.8-3.9c-0.5-0.7-0.7-1.5-0.5-2.4c0.2-0.8,0.6-1.5,1.4-2
		c6.3-3.9,11.6-8,15.9-12.5c0.2-0.2,0.2-0.4,0-0.6c-3.9-3-7.6-5.9-11.2-8.4c-0.7-0.5-1.2-1.2-1.3-2.1c-0.1-0.9,0.1-1.6,0.7-2.3
		l2.8-3.3c0.6-0.7,1.3-1.2,2.2-1.3c0.9-0.1,1.7,0.1,2.5,0.6c3.6,2.6,7.3,5.4,11,8.3c0.1,0.1,0.2,0.1,0.3,0.1s0.3-0.1,0.3-0.2
		c2.7-4.1,5-8.6,6.8-13.4c0.3-0.8,0.9-1.5,1.7-2c0.8-0.5,1.7-0.6,2.6-0.4l4.8,1c0.9,0.2,1.6,0.7,2,1.4c0.5,0.7,0.6,1.5,0.3,2.4
		c-2,6.5-5,12.6-9,18.5C355.8,72.6,355.9,72.9,356.2,73.1z"/>
	<path class="st3" d="M424,67.8c0.9,0,1.7,0.3,2.3,1c0.7,0.7,1,1.4,1,2.3v4.4c0,0.9-0.3,1.7-1,2.3c-0.7,0.7-1.4,1-2.3,1h-42
		c-0.9,0-1.7-0.3-2.3-1c-0.7-0.7-1-1.4-1-2.3v-4.4c0-0.9,0.3-1.7,1-2.3c0.7-0.7,1.4-1,2.3-1H424z"/>
	<path class="st3" d="M453.6,74.6c-5.3-1.1-9.6-1.9-12.9-2.5c-0.9-0.2-1.6-0.6-2.1-1.4s-0.7-1.6-0.5-2.4l0.6-2.9
		c0.2-0.9,0.7-1.6,1.4-2.1c0.8-0.5,1.6-0.7,2.5-0.5c3.4,0.6,7.7,1.4,12.9,2.5c0.9,0.2,1.6,0.7,2.1,1.4c0.5,0.8,0.6,1.6,0.4,2.4
		l-0.6,2.9c-0.2,0.9-0.7,1.6-1.4,2.1C455.3,74.7,454.5,74.8,453.6,74.6z M483.3,57.7c0.9,0.2,1.6,0.6,2.1,1.3
		c0.5,0.7,0.7,1.5,0.5,2.4c-2.4,11.3-6.8,19.6-13.1,25c-6.3,5.4-15.7,8.7-28.1,10.2c-0.9,0.1-1.7-0.1-2.5-0.7
		c-0.7-0.6-1.1-1.3-1.3-2.2l-0.7-3.9c-0.2-0.8,0-1.6,0.6-2.3c0.5-0.7,1.3-1.1,2.1-1.2c10.2-1.1,17.7-3.6,22.5-7.5
		c4.8-3.9,8.1-10.2,10.1-19c0.2-0.9,0.7-1.6,1.4-2.1c0.8-0.5,1.6-0.7,2.5-0.6L483.3,57.7z M445.5,48.9c3.4,0.6,7.8,1.5,13.2,2.5
		c0.9,0.2,1.6,0.7,2.1,1.4c0.5,0.8,0.7,1.6,0.5,2.5l-0.6,3.2c-0.2,0.9-0.7,1.6-1.4,2.1c-0.8,0.5-1.6,0.6-2.5,0.4
		c-2.9-0.6-7.3-1.4-13.2-2.5c-0.8-0.2-1.5-0.6-2.1-1.3c-0.5-0.7-0.7-1.5-0.5-2.4l0.6-3.2c0.2-0.9,0.7-1.6,1.4-2.1
		C443.8,49,444.6,48.8,445.5,48.9z"/>
	<path class="st3" d="M532.9,60.3c0.9,0,1.7,0.3,2.3,1c0.7,0.7,1,1.4,1,2.3v28.6c0,0.9-0.3,1.7-1,2.3c-0.7,0.7-1.4,1-2.3,1h-29
		c-0.9,0-1.7-0.3-2.3-1c-0.7-0.7-1-1.4-1-2.3v-1.8c0-0.9,0.3-1.7,1-2.3c0.7-0.7,1.4-1,2.3-1h21.8c0.3,0,0.5-0.2,0.5-0.5V82
		c0-0.3-0.2-0.5-0.5-0.5h-19c-0.9,0-1.7-0.3-2.3-1c-0.7-0.7-1-1.4-1-2.3v-1.6c0-0.9,0.3-1.7,1-2.3c0.7-0.7,1.4-1,2.3-1h19
		c0.3,0,0.5-0.2,0.5-0.5v-3.8c0-0.3-0.2-0.5-0.5-0.5h-21.8c-0.9,0-1.7-0.3-2.3-1c-0.7-0.7-1-1.4-1-2.3v-1.6c0-0.9,0.3-1.7,1-2.3
		c0.7-0.7,1.4-1,2.3-1H532.9z"/>
	<path class="st3" d="M557.2,60.7c-0.8-0.4-1.3-1-1.6-1.8c-0.3-0.8-0.2-1.6,0.2-2.4l2.1-4c0.4-0.8,1.1-1.4,2-1.7s1.8-0.3,2.6,0.1
		c4.2,1.9,8.3,3.9,12.3,5.9c0.8,0.4,1.3,1,1.6,1.8c0.2,0.8,0.1,1.7-0.3,2.4l-2.3,4.2c-0.4,0.8-1.1,1.3-2,1.6
		c-0.9,0.3-1.7,0.2-2.5-0.2C564.8,64.4,560.8,62.4,557.2,60.7z M599.1,57c0.9,0.2,1.6,0.7,2.1,1.4c0.5,0.8,0.7,1.6,0.5,2.5
		c-2.3,10.3-6.8,18.3-13.5,23.9c-6.7,5.7-15.9,9.2-27.7,10.6c-0.9,0.1-1.7-0.1-2.5-0.7c-0.7-0.6-1.1-1.3-1.3-2.2l-0.7-4.2
		c-0.2-0.8,0-1.6,0.6-2.4c0.5-0.7,1.3-1.2,2.1-1.3c9.4-1.3,16.6-4,21.6-8.1c5-4.1,8.7-10.1,10.8-18.1c0.2-0.9,0.7-1.6,1.5-2
		c0.8-0.5,1.6-0.6,2.4-0.4L599.1,57z"/>
</g>
<g class="st2">
	<path class="st4" d="M242.2,167.4c-0.3,0-0.5-0.1-0.7-0.3c-0.2-0.2-0.3-0.4-0.3-0.7s0.1-0.5,0.3-0.7c0.2-0.2,0.4-0.3,0.7-0.3h8.6
		c0.3,0,0.5,0.1,0.7,0.3c0.2,0.2,0.3,0.4,0.3,0.7s-0.1,0.5-0.3,0.7c-0.2,0.2-0.4,0.3-0.7,0.3H242.2z M243,163.2
		c-0.3,0-0.5-0.1-0.7-0.3c-0.2-0.2-0.3-0.4-0.3-0.7c0-0.3,0.1-0.5,0.3-0.7c0.2-0.2,0.4-0.3,0.7-0.3h6.8c0.3,0,0.5,0.1,0.7,0.3
		c0.2,0.2,0.3,0.4,0.3,0.7c0,0.3-0.1,0.5-0.3,0.7c-0.2,0.2-0.4,0.3-0.7,0.3H243z M242,186.1V180c0-0.5,0.2-0.9,0.5-1.2
		c0.3-0.3,0.7-0.5,1.2-0.5h5.5c0.5,0,0.9,0.2,1.2,0.5c0.3,0.3,0.5,0.7,0.5,1.2v4.3c0,0.5-0.2,0.9-0.5,1.2s-0.7,0.5-1.2,0.5h-4.8
		c-0.1,0-0.1,0.1-0.1,0.2v0c0,0.3-0.1,0.6-0.3,0.8c-0.2,0.2-0.5,0.3-0.8,0.3c-0.3,0-0.6-0.1-0.8-0.3
		C242.1,186.7,242,186.4,242,186.1z M243.2,171.7c-0.3,0-0.5-0.1-0.7-0.3c-0.2-0.2-0.3-0.4-0.3-0.7s0.1-0.5,0.3-0.7
		c0.2-0.2,0.4-0.3,0.7-0.3h6.6c0.3,0,0.5,0.1,0.7,0.3c0.2,0.2,0.3,0.4,0.3,0.7s-0.1,0.5-0.3,0.7c-0.2,0.2-0.4,0.3-0.7,0.3H243.2z
		 M243.2,175.9c-0.3,0-0.5-0.1-0.7-0.3c-0.2-0.2-0.3-0.4-0.3-0.7s0.1-0.5,0.3-0.7c0.2-0.2,0.4-0.3,0.7-0.3h6.6
		c0.3,0,0.5,0.1,0.7,0.3c0.2,0.2,0.3,0.4,0.3,0.7s-0.1,0.5-0.3,0.7c-0.2,0.2-0.4,0.3-0.7,0.3H243.2z M244.2,180.4v3.3
		c0,0.2,0.1,0.3,0.2,0.3h4.1c0.2,0,0.2-0.1,0.2-0.3v-3.3c0-0.2-0.1-0.2-0.2-0.2h-4.1C244.3,180.2,244.2,180.3,244.2,180.4z
		 M267.8,178.1c0.3,0,0.5,0.1,0.7,0.3s0.3,0.4,0.3,0.7c0,0.3-0.1,0.5-0.3,0.7c-0.2,0.2-0.5,0.3-0.7,0.3h-5.9c-0.2,0-0.2,0.1-0.2,0.3
		v5.5c0,0.3-0.1,0.6-0.3,0.8c-0.2,0.2-0.5,0.3-0.8,0.3c-0.3,0-0.6-0.1-0.9-0.3c-0.2-0.2-0.3-0.5-0.3-0.8v-5.5c0-0.2-0.1-0.3-0.2-0.3
		h-6.4c-0.3,0-0.5-0.1-0.7-0.3c-0.2-0.2-0.3-0.4-0.3-0.7c0-0.3,0.1-0.5,0.3-0.7c0.2-0.2,0.4-0.3,0.7-0.3h6.4c0.2,0,0.2-0.1,0.2-0.3
		v-4.5c0-0.2-0.1-0.3-0.2-0.3h-5.5c-0.3,0-0.5-0.1-0.7-0.3c-0.2-0.2-0.3-0.4-0.3-0.7c0-0.3,0.1-0.5,0.3-0.7c0.2-0.2,0.4-0.3,0.7-0.3
		h5.5c0.2,0,0.2-0.1,0.2-0.2v-4.2c0-0.2-0.1-0.3-0.2-0.3h-6.3c-0.3,0-0.5-0.1-0.7-0.3c-0.2-0.2-0.3-0.4-0.3-0.7s0.1-0.5,0.3-0.7
		c0.2-0.2,0.4-0.3,0.7-0.3h3.2c0.2,0,0.2-0.1,0.1-0.2c-0.5-1-0.9-2-1.4-2.8c-0.1-0.2-0.2-0.5,0-0.7c0.1-0.2,0.3-0.4,0.6-0.5
		c0.7-0.2,1.2,0,1.6,0.7c0.6,1.1,1.1,2.2,1.6,3.4c0.1,0.1,0.2,0.2,0.4,0.2h3.5c0.2,0,0.3-0.1,0.4-0.2c0.7-1.2,1.2-2.3,1.7-3.3
		c0.3-0.7,0.8-0.9,1.5-0.8c0.3,0.1,0.5,0.2,0.6,0.5c0.1,0.3,0.1,0.5,0,0.8c-0.4,0.8-0.9,1.8-1.5,2.8c0,0,0,0.1,0,0.1
		c0,0.1,0.1,0.1,0.1,0.1h2.2c0.3,0,0.5,0.1,0.7,0.3c0.2,0.2,0.3,0.4,0.3,0.7c0,0.3-0.1,0.5-0.3,0.7c-0.2,0.2-0.4,0.3-0.7,0.3h-5.5
		c-0.2,0-0.2,0.1-0.2,0.3v4.2c0,0.2,0.1,0.2,0.2,0.2h5c0.3,0,0.5,0.1,0.7,0.3c0.2,0.2,0.3,0.4,0.3,0.7s-0.1,0.5-0.3,0.7
		c-0.2,0.2-0.4,0.3-0.7,0.3h-5c-0.2,0-0.2,0.1-0.2,0.3v4.5c0,0.2,0.1,0.3,0.2,0.3H267.8z"/>
	<path class="st4" d="M284.4,186.1c-3.2,0-5.4-0.8-6.6-2.4c-1.2-1.6-1.8-4.5-1.8-8.8c0-3.4,0.1-7.6,0.3-12.4c0-0.3,0.1-0.6,0.4-0.8
		c0.2-0.2,0.5-0.3,0.8-0.3c0.3,0,0.6,0.1,0.8,0.4c0.2,0.2,0.3,0.5,0.3,0.8c-0.2,4.8-0.3,8.9-0.3,12.4c0,1.9,0.1,3.4,0.3,4.6
		c0.2,1.2,0.6,2.1,1.1,2.7c0.5,0.6,1.1,1.1,1.8,1.3c0.7,0.2,1.6,0.3,2.7,0.3c2,0,3.8-0.7,5.4-2.1c1.7-1.4,3.1-3.5,4.2-6.2
		c0.1-0.3,0.3-0.5,0.6-0.6c0.3-0.1,0.6-0.1,0.8,0c0.3,0.1,0.5,0.3,0.6,0.6c0.1,0.3,0.1,0.6,0,0.9c-1.3,3.2-3,5.6-5,7.2
		C289.2,185.2,286.9,186.1,284.4,186.1z"/>
	<path class="st4" d="M308.6,177.2c-1.6-1.1-2.6-1.9-3-2.3c-0.4-0.5-0.6-1.1-0.6-1.8c0-0.8,0.2-1.4,0.7-1.9s1.5-1.3,3.2-2.4
		c3.3-2.1,6.7-4.7,10.4-7.6c0.3-0.2,0.5-0.3,0.9-0.3c0.3,0,0.6,0.2,0.8,0.4c0.2,0.2,0.3,0.5,0.2,0.8c0,0.3-0.2,0.6-0.4,0.8
		c-3.7,2.9-7.2,5.5-10.4,7.6c-1.2,0.8-2,1.3-2.3,1.6s-0.5,0.6-0.5,0.9c0,0.3,0.1,0.6,0.4,0.9c0.3,0.3,0.9,0.8,2,1.5
		c3.9,2.7,7.8,5.7,11.7,9c0.2,0.2,0.3,0.5,0.3,0.8s-0.1,0.6-0.3,0.8c-0.2,0.2-0.5,0.3-0.8,0.3c-0.3,0-0.6-0.1-0.9-0.3
		C316.2,182.8,312.4,179.9,308.6,177.2z"/>
	<path class="st4" d="M335.3,185.8c-0.3,0-0.6,0-0.9-0.2s-0.4-0.4-0.5-0.7c-0.8-3.4-1.2-7.1-1.2-11.2c0-4.1,0.4-7.8,1.2-11.2
		c0.1-0.3,0.2-0.5,0.5-0.7c0.2-0.2,0.5-0.2,0.9-0.2c0.3,0,0.5,0.2,0.7,0.4c0.2,0.2,0.2,0.5,0.1,0.8c-0.8,3.3-1.2,6.9-1.2,10.9
		s0.4,7.5,1.2,10.9c0.1,0.3,0,0.5-0.1,0.8C335.8,185.6,335.6,185.7,335.3,185.8z M346.5,185.9c-2.1,0-3.7-0.5-4.8-1.4
		c-1.1-0.9-1.7-2.2-1.7-3.9c0-1.6,0.6-2.8,1.7-3.6c1.1-0.9,2.7-1.3,4.8-1.3c1.2,0,2.4,0.2,3.5,0.7c0.2,0.1,0.2,0,0.2-0.1v-8
		c0-0.2-0.1-0.2-0.3-0.2h-8.1c-0.3,0-0.5-0.1-0.7-0.3c-0.2-0.2-0.3-0.4-0.3-0.7c0-0.3,0.1-0.5,0.3-0.7c0.2-0.2,0.4-0.3,0.7-0.3h8.1
		c0.2,0,0.3-0.1,0.3-0.2v-3.7c0-0.3,0.1-0.6,0.3-0.8s0.5-0.3,0.8-0.3c0.3,0,0.6,0.1,0.8,0.3c0.2,0.2,0.3,0.5,0.3,0.8v3.7
		c0,0.2,0.1,0.2,0.3,0.2h4c0.3,0,0.5,0.1,0.7,0.3s0.3,0.4,0.3,0.7c0,0.3-0.1,0.5-0.3,0.7s-0.4,0.3-0.7,0.3h-4
		c-0.2,0-0.3,0.1-0.3,0.2v9.3c0,0.2,0.1,0.3,0.2,0.4c1.1,0.8,2.6,2,4.4,3.8c0.2,0.2,0.3,0.5,0.3,0.8s-0.1,0.5-0.3,0.8
		c-0.2,0.2-0.5,0.3-0.8,0.3s-0.6-0.1-0.8-0.3c-1.1-1.1-2-2-2.8-2.6c-0.2-0.1-0.2-0.1-0.2,0.1C352.1,184.1,350.2,185.9,346.5,185.9z
		 M346.4,177.7c-2.8,0-4.2,1-4.2,2.8c0,2.2,1.4,3.3,4.2,3.3c1.3,0,2.3-0.3,2.9-0.9c0.6-0.6,0.9-1.6,0.9-3v-0.8
		c0-0.2-0.1-0.3-0.2-0.4C348.8,178,347.6,177.7,346.4,177.7z"/>
	<path class="st4" d="M375,185.5c-3.5,0-6.2-0.6-8.3-1.7c-2-1.1-3-2.7-3-4.6c0-1.7,1.2-3.9,3.6-6.4c0.2-0.2,0.5-0.3,0.8-0.3
		c0.3,0,0.6,0.1,0.8,0.3c0.2,0.2,0.3,0.4,0.3,0.7c0,0.3-0.1,0.5-0.3,0.7c-1.9,2-2.9,3.6-2.9,4.8c0,1.3,0.8,2.4,2.4,3.2
		s3.8,1.2,6.6,1.2c3,0,6-0.3,8.9-1c0.3-0.1,0.5,0,0.8,0.1c0.2,0.2,0.4,0.4,0.5,0.6c0.1,0.3,0,0.6-0.1,0.8c-0.2,0.3-0.4,0.4-0.6,0.5
		C381.5,185.1,378.3,185.5,375,185.5z M367.5,163.1h15.1c0.3,0,0.5,0.1,0.7,0.3c0.2,0.2,0.3,0.4,0.3,0.7c0,0.3-0.1,0.5-0.3,0.7
		c-0.2,0.2-0.4,0.3-0.7,0.3h-15.1c-0.3,0-0.5-0.1-0.7-0.3c-0.2-0.2-0.3-0.4-0.3-0.7c0-0.3,0.1-0.5,0.3-0.7
		C366.9,163.2,367.2,163.1,367.5,163.1z"/>
	<path class="st4" d="M394,166.7c-0.3,0-0.5-0.1-0.7-0.3c-0.2-0.2-0.3-0.4-0.3-0.7s0.1-0.5,0.3-0.7c0.2-0.2,0.4-0.3,0.7-0.3h5.8
		c0.2,0,0.3-0.1,0.3-0.3c0.2-0.9,0.4-1.8,0.5-2.8c0-0.3,0.2-0.5,0.4-0.7s0.5-0.3,0.8-0.3c0.3,0,0.5,0.2,0.7,0.4
		c0.2,0.2,0.2,0.5,0.2,0.8c0,0.3-0.2,1.2-0.5,2.6c0,0.1,0,0.1,0,0.2c0,0.1,0.1,0.1,0.2,0.1h13.3c0.3,0,0.5,0.1,0.7,0.3
		c0.2,0.2,0.3,0.4,0.3,0.7s-0.1,0.5-0.3,0.7c-0.2,0.2-0.4,0.3-0.7,0.3h-13.8c-0.2,0-0.3,0.1-0.3,0.2c-0.7,2.3-1.5,4.6-2.5,6.8v0.1
		h0.1c1.1-0.5,2.4-1,3.8-1.3c1.4-0.3,2.6-0.5,3.8-0.5c2.7,0,4.8,0.6,6.2,1.7s2.1,2.7,2.1,4.8c0,2.2-1,4-2.9,5.3c-2,1.3-4.6,2-7.9,2
		c-2.1,0-4.1-0.2-6.2-0.5c-0.3,0-0.5-0.2-0.6-0.4c-0.2-0.2-0.2-0.5-0.2-0.8c0-0.3,0.2-0.5,0.4-0.6c0.2-0.2,0.5-0.2,0.8-0.2
		c2.1,0.3,4,0.5,5.9,0.5c2.6,0,4.7-0.5,6.2-1.5c1.5-1,2.3-2.3,2.3-3.9c0-2.9-2-4.4-6.1-4.4c-2.7,0-5.4,0.7-7.9,2.2
		c-0.6,0.3-1.2,0.4-1.9,0.1c-0.3-0.1-0.4-0.3-0.5-0.6c-0.1-0.3-0.1-0.6,0.1-0.8c1.3-2.7,2.3-5.3,3.1-7.8c0-0.2,0-0.2-0.2-0.2H394z"
		/>
	<path class="st4" d="M425.7,176.8c-0.3-0.1-0.5-0.2-0.6-0.5c-0.1-0.2-0.2-0.5-0.2-0.8c0.3-1.9,0.7-4.3,1.1-7.4
		c0-0.3,0.2-0.6,0.4-0.8c0.2-0.2,0.5-0.3,0.9-0.2c0.3,0,0.6,0.2,0.8,0.4c0.2,0.3,0.2,0.5,0.2,0.8c-0.4,2.6-0.7,4.5-0.9,6v0h0.1
		c1.3-1,2.9-1.9,4.8-2.5c1.9-0.6,3.6-1,5.3-1c5.6,0,8.4,2.2,8.4,6.7c0,2.6-1.1,4.7-3.3,6s-5.4,2.1-9.7,2.1c-1.5,0-3.2-0.1-5.2-0.2
		c-0.3,0-0.5-0.1-0.7-0.4c-0.2-0.2-0.3-0.5-0.3-0.8c0-0.3,0.1-0.5,0.4-0.7c0.2-0.2,0.5-0.3,0.7-0.2c2,0.2,3.7,0.3,5,0.3
		c7,0,10.4-2,10.4-6.1c0-3.1-2-4.7-6.1-4.7c-1.4,0-3,0.3-4.8,1c-1.8,0.7-3.4,1.5-4.9,2.6C426.9,176.8,426.3,177,425.7,176.8z
		 M429.4,162.1c4,0.5,7.8,0.8,11.4,0.8c0.3,0,0.5,0.1,0.7,0.3c0.2,0.2,0.3,0.4,0.3,0.7c0,0.3-0.1,0.5-0.3,0.7s-0.5,0.3-0.7,0.3
		c-3.9,0-7.7-0.3-11.6-0.8c-0.3,0-0.5-0.1-0.7-0.4c-0.2-0.2-0.2-0.5-0.2-0.8c0-0.3,0.1-0.5,0.4-0.7S429.2,162,429.4,162.1z"/>
</g>
<polygon class="st1" points="345.2,234.3 358.1,212 332.4,212 "/>
</svg>
