<?xml version="1.0" encoding="utf-8"?>
<!-- Generator: Adobe Illustrator 25.3.0, SVG Export Plug-In . SVG Version: 6.00 Build 0)  -->
<svg version="1.1" id="レイヤー_1" xmlns="http://www.w3.org/2000/svg" xmlns:xlink="http://www.w3.org/1999/xlink" x="0px"
	 y="0px" viewBox="0 0 690.4 234.3" style="enable-background:new 0 0 690.4 234.3;" xml:space="preserve">
<style type="text/css">
	.st0{fill:#FFFDFE;stroke:#3C0000;stroke-width:4.5;stroke-miterlimit:10;}
	.st1{fill:#B86A39;}
	.st2{enable-background:new    ;}
	.st3{fill:#2D2D2D;}
	.st4{fill:#FFFFFF;}
	.st5{fill:#3C0000;}
</style>
<path class="st0" d="M27.4,2.2H663c13.9,0,25.2,11.3,25.2,25.1v159.5c0,13.9-11.3,25.1-25.2,25.1H27.4c-13.9,0-25.1-11.3-25.1-25.1
	V27.4C2.2,13.5,13.5,2.2,27.4,2.2z"/>
<path class="st1" d="M36.9,11h616.6c13.9,0,25.2,11.3,25.2,25.2v71.4c0,13.9-11.3,25.2-25.2,25.2H36.9c-13.9,0-25.1-11.3-25.1-25.2
	V36.2C11.8,22.3,23,11,36.9,11z"/>
<g class="st2">
	<path class="st3" d="M242.6,167.4c-0.3,0-0.5-0.1-0.7-0.3c-0.2-0.2-0.3-0.4-0.3-0.7s0.1-0.5,0.3-0.7c0.2-0.2,0.4-0.3,0.7-0.3h8.6
		c0.3,0,0.5,0.1,0.7,0.3c0.2,0.2,0.3,0.4,0.3,0.7s-0.1,0.5-0.3,0.7c-0.2,0.2-0.4,0.3-0.7,0.3H242.6z M243.4,163.2
		c-0.3,0-0.5-0.1-0.7-0.3c-0.2-0.2-0.3-0.4-0.3-0.7c0-0.3,0.1-0.5,0.3-0.7c0.2-0.2,0.4-0.3,0.7-0.3h6.8c0.3,0,0.5,0.1,0.7,0.3
		c0.2,0.2,0.3,0.4,0.3,0.7c0,0.3-0.1,0.5-0.3,0.7c-0.2,0.2-0.4,0.3-0.7,0.3H243.4z M242.4,186.1V180c0-0.5,0.2-0.9,0.5-1.2
		c0.3-0.3,0.7-0.5,1.2-0.5h5.5c0.5,0,0.9,0.2,1.2,0.5c0.3,0.3,0.5,0.7,0.5,1.2v4.3c0,0.5-0.2,0.9-0.5,1.2s-0.7,0.5-1.2,0.5h-4.8
		c-0.1,0-0.2,0.1-0.2,0.2v0c0,0.3-0.1,0.6-0.3,0.8s-0.5,0.3-0.8,0.3c-0.3,0-0.6-0.1-0.8-0.3C242.5,186.7,242.4,186.4,242.4,186.1z
		 M243.6,171.7c-0.3,0-0.5-0.1-0.7-0.3c-0.2-0.2-0.3-0.4-0.3-0.7s0.1-0.5,0.3-0.7c0.2-0.2,0.4-0.3,0.7-0.3h6.6
		c0.3,0,0.5,0.1,0.7,0.3c0.2,0.2,0.3,0.4,0.3,0.7s-0.1,0.5-0.3,0.7c-0.2,0.2-0.4,0.3-0.7,0.3H243.6z M243.6,175.9
		c-0.3,0-0.5-0.1-0.7-0.3c-0.2-0.2-0.3-0.4-0.3-0.7s0.1-0.5,0.3-0.7c0.2-0.2,0.4-0.3,0.7-0.3h6.6c0.3,0,0.5,0.1,0.7,0.3
		c0.2,0.2,0.3,0.4,0.3,0.7s-0.1,0.5-0.3,0.7c-0.2,0.2-0.4,0.3-0.7,0.3H243.6z M244.6,180.4v3.3c0,0.2,0.1,0.3,0.2,0.3h4
		c0.2,0,0.2-0.1,0.2-0.3v-3.3c0-0.2-0.1-0.2-0.2-0.2h-4C244.7,180.2,244.6,180.3,244.6,180.4z M268.2,178.1c0.3,0,0.5,0.1,0.7,0.3
		s0.3,0.4,0.3,0.7c0,0.3-0.1,0.5-0.3,0.7c-0.2,0.2-0.5,0.3-0.7,0.3h-5.9c-0.2,0-0.2,0.1-0.2,0.3v5.5c0,0.3-0.1,0.6-0.3,0.8
		c-0.2,0.2-0.5,0.3-0.8,0.3c-0.3,0-0.6-0.1-0.9-0.3c-0.2-0.2-0.3-0.5-0.3-0.8v-5.5c0-0.2-0.1-0.3-0.2-0.3H253
		c-0.3,0-0.5-0.1-0.7-0.3c-0.2-0.2-0.3-0.4-0.3-0.7c0-0.3,0.1-0.5,0.3-0.7c0.2-0.2,0.4-0.3,0.7-0.3h6.4c0.2,0,0.2-0.1,0.2-0.3v-4.5
		c0-0.2-0.1-0.3-0.2-0.3H254c-0.3,0-0.5-0.1-0.7-0.3c-0.2-0.2-0.3-0.4-0.3-0.7c0-0.3,0.1-0.5,0.3-0.7c0.2-0.2,0.4-0.3,0.7-0.3h5.5
		c0.2,0,0.2-0.1,0.2-0.2v-4.2c0-0.2-0.1-0.3-0.2-0.3h-6.3c-0.3,0-0.5-0.1-0.7-0.3c-0.2-0.2-0.3-0.4-0.3-0.7s0.1-0.5,0.3-0.7
		c0.2-0.2,0.4-0.3,0.7-0.3h3.2c0.2,0,0.2-0.1,0.1-0.2c-0.5-1-0.9-2-1.4-2.8c-0.1-0.2-0.2-0.5,0-0.7c0.1-0.2,0.3-0.4,0.6-0.5
		c0.7-0.2,1.2,0,1.6,0.7c0.6,1.1,1.1,2.2,1.7,3.4c0.1,0.1,0.2,0.2,0.4,0.2h3.5c0.2,0,0.3-0.1,0.4-0.2c0.7-1.2,1.2-2.3,1.7-3.3
		c0.3-0.7,0.8-0.9,1.5-0.8c0.3,0.1,0.5,0.2,0.6,0.5c0.1,0.3,0.1,0.5,0,0.8c-0.4,0.8-0.8,1.8-1.5,2.8c0,0,0,0.1,0,0.1
		c0,0.1,0.1,0.1,0.1,0.1h2.2c0.3,0,0.5,0.1,0.7,0.3c0.2,0.2,0.3,0.4,0.3,0.7c0,0.3-0.1,0.5-0.3,0.7c-0.2,0.2-0.4,0.3-0.7,0.3h-5.5
		c-0.2,0-0.2,0.1-0.2,0.3v4.2c0,0.2,0.1,0.2,0.2,0.2h5c0.3,0,0.5,0.1,0.7,0.3c0.2,0.2,0.3,0.4,0.3,0.7s-0.1,0.5-0.3,0.7
		c-0.2,0.2-0.4,0.3-0.7,0.3h-5c-0.2,0-0.2,0.1-0.2,0.3v4.5c0,0.2,0.1,0.3,0.2,0.3H268.2z"/>
	<path class="st3" d="M284.8,186.1c-3.2,0-5.4-0.8-6.6-2.4c-1.2-1.6-1.8-4.5-1.8-8.8c0-3.4,0.1-7.6,0.3-12.4c0-0.3,0.1-0.6,0.4-0.8
		c0.2-0.2,0.5-0.3,0.8-0.3c0.3,0,0.6,0.1,0.8,0.4c0.2,0.2,0.3,0.5,0.3,0.8c-0.2,4.8-0.3,8.9-0.3,12.4c0,1.9,0.1,3.4,0.3,4.6
		c0.2,1.2,0.6,2.1,1.1,2.7c0.5,0.6,1.1,1.1,1.8,1.3c0.7,0.2,1.6,0.3,2.7,0.3c2,0,3.8-0.7,5.4-2.1c1.7-1.4,3.1-3.5,4.2-6.2
		c0.1-0.3,0.3-0.5,0.6-0.6c0.3-0.1,0.6-0.1,0.8,0c0.3,0.1,0.5,0.3,0.6,0.6c0.1,0.3,0.1,0.6,0,0.9c-1.3,3.2-3,5.6-5,7.2
		C289.6,185.2,287.3,186.1,284.8,186.1z"/>
	<path class="st3" d="M309,177.2c-1.6-1.1-2.6-1.9-3-2.3c-0.4-0.5-0.6-1.1-0.6-1.8c0-0.8,0.2-1.4,0.7-1.9c0.4-0.5,1.5-1.3,3.2-2.4
		c3.3-2.1,6.7-4.7,10.4-7.6c0.3-0.2,0.5-0.3,0.9-0.3s0.6,0.2,0.8,0.4c0.2,0.2,0.3,0.5,0.2,0.8c0,0.3-0.2,0.6-0.4,0.8
		c-3.7,2.9-7.2,5.5-10.4,7.6c-1.2,0.8-2,1.3-2.3,1.6c-0.3,0.3-0.5,0.6-0.5,0.9c0,0.3,0.1,0.6,0.4,0.9c0.3,0.3,0.9,0.8,2,1.5
		c3.9,2.7,7.8,5.7,11.7,9c0.2,0.2,0.3,0.5,0.3,0.8c0,0.3-0.1,0.6-0.3,0.8c-0.2,0.2-0.5,0.3-0.8,0.3c-0.3,0-0.6-0.1-0.9-0.3
		C316.6,182.8,312.8,179.9,309,177.2z"/>
	<path class="st3" d="M335.7,185.8c-0.3,0-0.6,0-0.9-0.2s-0.4-0.4-0.5-0.7c-0.8-3.4-1.2-7.1-1.2-11.2c0-4.1,0.4-7.8,1.2-11.2
		c0.1-0.3,0.2-0.5,0.5-0.7c0.2-0.2,0.5-0.2,0.9-0.2c0.3,0,0.5,0.2,0.7,0.4s0.2,0.5,0.1,0.8c-0.8,3.3-1.2,6.9-1.2,10.9
		s0.4,7.5,1.2,10.9c0.1,0.3,0,0.5-0.1,0.8C336.2,185.6,336,185.7,335.7,185.8z M346.8,185.9c-2.1,0-3.7-0.5-4.8-1.4
		c-1.1-0.9-1.7-2.2-1.7-3.9c0-1.6,0.6-2.8,1.7-3.6c1.1-0.9,2.7-1.3,4.8-1.3c1.2,0,2.4,0.2,3.5,0.7c0.2,0.1,0.2,0,0.2-0.1v-8
		c0-0.2-0.1-0.2-0.3-0.2h-8.1c-0.3,0-0.5-0.1-0.7-0.3c-0.2-0.2-0.3-0.4-0.3-0.7c0-0.3,0.1-0.5,0.3-0.7c0.2-0.2,0.4-0.3,0.7-0.3h8.1
		c0.2,0,0.3-0.1,0.3-0.2v-3.7c0-0.3,0.1-0.6,0.3-0.8s0.5-0.3,0.8-0.3c0.3,0,0.6,0.1,0.8,0.3c0.2,0.2,0.3,0.5,0.3,0.8v3.7
		c0,0.2,0.1,0.2,0.3,0.2h4c0.3,0,0.5,0.1,0.7,0.3s0.3,0.4,0.3,0.7c0,0.3-0.1,0.5-0.3,0.7s-0.4,0.3-0.7,0.3h-4
		c-0.2,0-0.3,0.1-0.3,0.2v9.3c0,0.2,0.1,0.3,0.2,0.4c1.1,0.8,2.6,2,4.4,3.8c0.2,0.2,0.3,0.5,0.3,0.8s-0.1,0.5-0.3,0.8
		c-0.2,0.2-0.5,0.3-0.8,0.3s-0.6-0.1-0.8-0.3c-1.1-1.1-2-2-2.8-2.6c-0.2-0.1-0.2-0.1-0.2,0.1C352.5,184.1,350.6,185.9,346.8,185.9z
		 M346.8,177.7c-2.8,0-4.2,1-4.2,2.8c0,2.2,1.4,3.3,4.2,3.3c1.3,0,2.3-0.3,2.9-0.9c0.6-0.6,0.9-1.6,0.9-3v-0.8
		c0-0.2-0.1-0.3-0.2-0.4C349.1,178,348,177.7,346.8,177.7z"/>
	<path class="st3" d="M375.4,185.5c-3.5,0-6.2-0.6-8.3-1.7c-2-1.1-3-2.7-3-4.6c0-1.7,1.2-3.9,3.6-6.4c0.2-0.2,0.5-0.3,0.8-0.3
		c0.3,0,0.6,0.1,0.8,0.3c0.2,0.2,0.3,0.4,0.3,0.7c0,0.3-0.1,0.5-0.3,0.7c-1.9,2-2.9,3.6-2.9,4.8c0,1.3,0.8,2.4,2.4,3.2
		s3.8,1.2,6.6,1.2c3,0,6-0.3,8.9-1c0.3-0.1,0.5,0,0.8,0.1c0.2,0.2,0.4,0.4,0.5,0.6c0.1,0.3,0,0.6-0.1,0.8c-0.2,0.3-0.4,0.4-0.6,0.5
		C381.8,185.1,378.7,185.5,375.4,185.5z M367.8,163.1h15.1c0.3,0,0.5,0.1,0.7,0.3c0.2,0.2,0.3,0.4,0.3,0.7c0,0.3-0.1,0.5-0.3,0.7
		c-0.2,0.2-0.4,0.3-0.7,0.3h-15.1c-0.3,0-0.5-0.1-0.7-0.3c-0.2-0.2-0.3-0.4-0.3-0.7c0-0.3,0.1-0.5,0.3-0.7
		C367.3,163.2,367.6,163.1,367.8,163.1z"/>
	<path class="st3" d="M394.3,166.7c-0.3,0-0.5-0.1-0.7-0.3c-0.2-0.2-0.3-0.4-0.3-0.7s0.1-0.5,0.3-0.7c0.2-0.2,0.4-0.3,0.7-0.3h5.8
		c0.2,0,0.3-0.1,0.3-0.3c0.2-0.9,0.4-1.8,0.5-2.8c0-0.3,0.2-0.5,0.4-0.7s0.5-0.3,0.8-0.3c0.3,0,0.5,0.2,0.7,0.4
		c0.2,0.2,0.2,0.5,0.2,0.8c0,0.3-0.2,1.2-0.5,2.6c0,0.1,0,0.1,0,0.2c0,0.1,0.1,0.1,0.2,0.1h13.3c0.3,0,0.5,0.1,0.7,0.3
		c0.2,0.2,0.3,0.4,0.3,0.7s-0.1,0.5-0.3,0.7c-0.2,0.2-0.4,0.3-0.7,0.3h-13.8c-0.2,0-0.3,0.1-0.3,0.2c-0.7,2.3-1.5,4.6-2.5,6.8v0.1
		h0.1c1.1-0.5,2.4-1,3.8-1.3c1.4-0.3,2.6-0.5,3.8-0.5c2.7,0,4.8,0.6,6.2,1.7s2.1,2.7,2.1,4.8c0,2.2-1,4-2.9,5.3c-2,1.3-4.6,2-7.9,2
		c-2.1,0-4.1-0.2-6.2-0.5c-0.3,0-0.5-0.2-0.6-0.4c-0.2-0.2-0.2-0.5-0.2-0.8c0-0.3,0.2-0.5,0.4-0.6c0.2-0.2,0.5-0.2,0.8-0.2
		c2.1,0.3,4,0.5,5.9,0.5c2.6,0,4.7-0.5,6.2-1.5c1.5-1,2.3-2.3,2.3-3.9c0-2.9-2-4.4-6.1-4.4c-2.7,0-5.4,0.7-7.9,2.2
		c-0.6,0.3-1.2,0.4-1.9,0.1c-0.3-0.1-0.4-0.3-0.5-0.6c-0.1-0.3-0.1-0.6,0.1-0.8c1.3-2.7,2.3-5.3,3.1-7.8c0-0.2,0-0.2-0.2-0.2H394.3z
		"/>
	<path class="st3" d="M426,176.8c-0.3-0.1-0.5-0.2-0.6-0.5c-0.1-0.2-0.2-0.5-0.2-0.8c0.3-1.9,0.7-4.3,1.1-7.4c0-0.3,0.2-0.6,0.4-0.8
		c0.2-0.2,0.5-0.3,0.9-0.2c0.3,0,0.6,0.2,0.8,0.4c0.2,0.3,0.2,0.5,0.2,0.8c-0.4,2.6-0.7,4.5-0.9,6v0h0.1c1.3-1,2.9-1.9,4.8-2.5
		c1.9-0.6,3.6-1,5.3-1c5.6,0,8.4,2.2,8.4,6.7c0,2.6-1.1,4.7-3.3,6s-5.4,2.1-9.7,2.1c-1.5,0-3.2-0.1-5.2-0.2c-0.3,0-0.5-0.1-0.7-0.4
		c-0.2-0.2-0.3-0.5-0.3-0.8c0-0.3,0.1-0.5,0.4-0.7c0.2-0.2,0.5-0.3,0.7-0.2c2,0.2,3.7,0.3,5,0.3c7,0,10.4-2,10.4-6.1
		c0-3.1-2-4.7-6.1-4.7c-1.4,0-3,0.3-4.8,1c-1.8,0.7-3.4,1.5-4.9,2.6C427.3,176.8,426.7,177,426,176.8z M429.8,162.1
		c4,0.5,7.8,0.8,11.4,0.8c0.3,0,0.5,0.1,0.7,0.3c0.2,0.2,0.3,0.4,0.3,0.7c0,0.3-0.1,0.5-0.3,0.7s-0.5,0.3-0.7,0.3
		c-3.9,0-7.7-0.3-11.6-0.8c-0.3,0-0.5-0.1-0.7-0.4c-0.2-0.2-0.2-0.5-0.2-0.8c0-0.3,0.1-0.5,0.4-0.7S429.5,162,429.8,162.1z"/>
</g>
<g class="st2">
	<path class="st4" d="M107,52.7c0.9,0,1.7,0.3,2.3,1c0.7,0.7,1,1.4,1,2.3V59c0,0.9-0.3,1.7-1,2.3c-0.7,0.7-1.4,1-2.3,1h-6.6
		c-0.3,0-0.5,0.2-0.5,0.5v19.4c0,2,0,3.5-0.1,4.6C99.8,88,99.6,89,99.3,90c-0.3,1-0.7,1.7-1.1,2.1c-0.4,0.4-1.1,0.8-2.1,1.1
		c-1,0.3-2,0.5-3.1,0.5c-1.1,0.1-2.6,0.1-4.6,0.1c-1.2,0-3.3-0.1-6.2-0.3c-0.9,0-1.7-0.4-2.3-1.1c-0.6-0.7-0.9-1.5-0.8-2.5l0.2-2.9
		c0.1-0.9,0.5-1.6,1.1-2.2c0.7-0.6,1.5-0.9,2.3-0.8c2,0.2,3.5,0.3,4.5,0.3c0.9,0,1.5-0.1,1.7-0.3c0.2-0.2,0.3-0.8,0.3-1.7v-9.9
		c0-0.1,0-0.1-0.1-0.2c-0.1,0-0.2,0-0.3,0c-6.4,5.4-13,10.1-19.6,14.2c-0.8,0.5-1.6,0.6-2.5,0.3c-0.9-0.2-1.5-0.7-2-1.5l-1.7-3
		c-0.4-0.8-0.5-1.6-0.3-2.5c0.2-0.9,0.7-1.5,1.5-2c7.2-4.2,14.1-9.3,20.9-15.1c0.1-0.1,0.1-0.2,0.1-0.2c0-0.1-0.1-0.1-0.1-0.1H65.1
		c-0.9,0-1.7-0.3-2.3-1c-0.7-0.7-1-1.4-1-2.3V56c0-0.9,0.3-1.7,1-2.3c0.7-0.7,1.4-1,2.3-1h23.6c0.3,0,0.5-0.2,0.5-0.5v-4.3
		c0-0.9,0.3-1.7,1-2.3c0.7-0.7,1.4-1,2.3-1h4.1c0.9,0,1.7,0.3,2.3,1c0.7,0.7,1,1.4,1,2.3v4.3c0,0.3,0.2,0.5,0.5,0.5H107z"/>
	<path class="st4" d="M134.9,70c0,0.9-0.3,1.7-1,2.3c-0.7,0.7-1.4,1-2.3,1h-5c-0.9,0-1.7-0.3-2.3-1c-0.7-0.7-1-1.4-1-2.3V50
		c0-0.9,0.3-1.7,1-2.3c0.7-0.7,1.4-1,2.3-1h5c0.9,0,1.7,0.3,2.3,1c0.7,0.7,1,1.4,1,2.3V70z M159.9,46.7c0.9,0,1.7,0.3,2.3,1
		c0.7,0.7,1,1.4,1,2.3v13.5c0,9.6-2.4,17-7.2,22.2c-4.8,5.1-12.1,8.3-21.9,9.3c-0.9,0.1-1.8-0.1-2.5-0.7c-0.7-0.6-1.2-1.3-1.4-2.3
		l-0.8-3.4c-0.2-0.8,0-1.6,0.5-2.3c0.5-0.7,1.2-1.1,2.1-1.2c7.4-1,12.4-3.1,15.2-6.2c2.8-3.1,4.1-8.2,4.1-15.2V50
		c0-0.9,0.3-1.7,1-2.3c0.7-0.7,1.4-1,2.3-1H159.9z"/>
	<path class="st4" d="M193.3,72.3c-5.3-1.1-9.6-1.9-12.9-2.5c-0.9-0.2-1.6-0.6-2.1-1.4c-0.5-0.8-0.7-1.6-0.5-2.4l0.6-2.9
		c0.2-0.9,0.7-1.6,1.4-2.1c0.8-0.5,1.6-0.7,2.5-0.5c3.4,0.6,7.7,1.4,12.9,2.5c0.9,0.2,1.6,0.7,2.1,1.4c0.5,0.8,0.6,1.6,0.4,2.4
		l-0.6,2.9c-0.2,0.9-0.7,1.6-1.4,2.1C195,72.3,194.2,72.5,193.3,72.3z M222.6,57.4c0.9,0.2,1.6,0.6,2.1,1.3c0.5,0.7,0.7,1.5,0.5,2.4
		c-2.5,10.5-6.9,18.3-13.2,23.5c-6.3,5.1-15.5,8.4-27.5,9.8c-0.9,0.1-1.8-0.1-2.5-0.7c-0.7-0.6-1.2-1.3-1.3-2.2l-0.7-3.9
		c-0.2-0.8,0-1.6,0.6-2.4c0.5-0.7,1.3-1.1,2.1-1.2c9.9-1.1,17.2-3.5,21.9-7.1c4.8-3.6,8.1-9.4,10.1-17.5c0.2-0.9,0.7-1.6,1.5-2.1
		c0.8-0.5,1.6-0.7,2.5-0.5L222.6,57.4z M185.2,46.6c3.4,0.6,7.8,1.5,13.2,2.5c0.9,0.2,1.6,0.7,2.1,1.4c0.5,0.8,0.7,1.6,0.5,2.5
		l-0.6,3.2c-0.2,0.9-0.7,1.6-1.4,2.1c-0.8,0.5-1.6,0.6-2.5,0.4c-2.9-0.6-7.3-1.4-13.2-2.5c-0.8-0.2-1.5-0.6-2.1-1.3
		c-0.5-0.7-0.7-1.5-0.5-2.4l0.6-3.2c0.2-0.9,0.7-1.6,1.4-2.1S184.3,46.5,185.2,46.6z M213.7,44.8c0.8-0.4,1.6-0.4,2.3-0.2
		c0.8,0.3,1.4,0.8,1.8,1.6c0.2,0.3,0.5,0.9,0.8,1.5c0.3,0.7,0.6,1.2,0.8,1.5c0.4,0.8,0.4,1.6,0.2,2.3c-0.3,0.8-0.8,1.4-1.6,1.7
		c-0.7,0.3-1.5,0.4-2.3,0.1c-0.8-0.3-1.4-0.8-1.8-1.5c-0.2-0.3-0.5-0.9-0.8-1.5c-0.3-0.7-0.6-1.2-0.8-1.5c-0.4-0.7-0.5-1.5-0.2-2.3
		C212.5,45.8,213,45.2,213.7,44.8z M226.7,45.3c0.2,0.4,0.5,0.9,0.8,1.7c0.4,0.7,0.6,1.3,0.8,1.6c0.4,0.8,0.4,1.5,0.2,2.3
		c-0.3,0.8-0.8,1.3-1.6,1.7c-0.8,0.4-1.6,0.4-2.3,0.2c-0.8-0.3-1.4-0.8-1.8-1.6c-0.3-0.7-0.9-1.7-1.7-3.1c-0.4-0.8-0.5-1.6-0.2-2.3
		c0.3-0.8,0.8-1.4,1.5-1.8c0.8-0.4,1.6-0.4,2.4-0.2C225.7,44.1,226.3,44.6,226.7,45.3z"/>
	<path class="st4" d="M280.4,55.3c0.9,0,1.7,0.3,2.3,1c0.7,0.7,1,1.4,1,2.3v3.8c0,0.9-0.3,1.7-1,2.3c-0.7,0.7-1.4,1-2.3,1h-13.5
		c-0.3,0-0.5,0.2-0.5,0.5v0.6c0,7.5-1.8,13.4-5.3,17.9c-3.5,4.5-8.9,7.5-16.1,9.2c-0.9,0.2-1.7,0-2.5-0.4c-0.8-0.5-1.3-1.2-1.6-2.1
		l-1.2-3.9c-0.3-0.8-0.2-1.6,0.3-2.4c0.5-0.8,1.1-1.2,2-1.4c4.7-1.2,8-3,10-5.6c2-2.6,3-6.4,3-11.3v-0.6c0-0.3-0.2-0.5-0.5-0.5
		h-17.1c-0.9,0-1.7-0.3-2.3-1c-0.7-0.7-1-1.4-1-2.3v-3.8c0-0.9,0.3-1.7,1-2.3c0.7-0.7,1.4-1,2.3-1h17.1c0.3,0,0.5-0.2,0.5-0.5v-6
		c0-0.9,0.3-1.7,1-2.3c0.7-0.7,1.4-1,2.3-1h5c0.9,0,1.7,0.3,2.3,1c0.7,0.7,1,1.4,1,2.3v6c0,0.3,0.2,0.5,0.5,0.5H280.4z"/>
	<path class="st4" d="M307.3,46.7c0.9,0,1.7,0.3,2.3,1c0.7,0.7,1,1.4,1,2.3v8.8c0,7.4-0.4,13.2-1.1,17.5c-0.7,4.3-1.9,7.7-3.6,10.2
		c-1.7,2.5-4.1,4.7-7.2,6.6c-0.8,0.5-1.7,0.6-2.5,0.3c-0.9-0.2-1.6-0.7-2.1-1.5l-2.5-3.8c-0.5-0.7-0.6-1.5-0.4-2.4
		c0.2-0.8,0.7-1.5,1.5-2c1.6-1,2.8-2,3.7-3c0.9-1,1.6-2.5,2.1-4.5c0.5-2,0.9-4.2,1-6.7c0.1-2.5,0.2-6.1,0.2-10.7V50
		c0-0.9,0.3-1.7,1-2.3c0.7-0.7,1.4-1,2.3-1H307.3z M341.5,66.4c0.9,0.1,1.6,0.5,2.2,1.2c0.6,0.7,0.8,1.5,0.7,2.4
		c-1.1,8.2-3.7,14.1-7.9,17.8c-4.1,3.7-10.1,5.7-18,5.9c-0.9,0-1.6-0.3-2.3-0.9s-1-1.4-1-2.4V50c0-0.9,0.3-1.7,1-2.3
		c0.7-0.7,1.4-1,2.3-1h4.7c0.9,0,1.7,0.3,2.3,1c0.7,0.7,1,1.4,1,2.3v31.6c0,0.3,0.2,0.4,0.5,0.3c2-0.9,3.5-2.4,4.5-4.4
		c1.1-2,1.9-4.9,2.4-8.7c0.1-0.9,0.5-1.6,1.2-2.2c0.7-0.6,1.5-0.8,2.4-0.7L341.5,66.4z"/>
	<path class="st4" d="M392,49c0.9,0,1.7,0.3,2.3,1s1,1.4,1,2.3v36.2c0,0.9-0.3,1.7-1,2.3c-0.7,0.7-1.4,1-2.3,1h-36.2
		c-0.9,0-1.7-0.3-2.3-1c-0.7-0.7-1-1.4-1-2.3v-3.2c0-0.9,0.3-1.7,1-2.3c0.7-0.7,1.4-1,2.3-1h28c0.3,0,0.5-0.2,0.5-0.5V59.3
		c0-0.3-0.2-0.5-0.5-0.5h-28c-0.9,0-1.7-0.3-2.3-1c-0.7-0.7-1-1.4-1-2.3v-3.2c0-0.9,0.3-1.7,1-2.3c0.7-0.7,1.4-1,2.3-1H392z"/>
	<path class="st4" d="M413.1,57.8c-0.8-0.4-1.3-1-1.6-1.8c-0.3-0.8-0.2-1.6,0.2-2.4l2.1-4c0.4-0.8,1.1-1.4,2-1.7s1.8-0.3,2.6,0.1
		c4.2,1.9,8.3,3.9,12.3,5.9c0.8,0.4,1.3,1,1.6,1.8c0.2,0.8,0.1,1.7-0.3,2.4l-2.3,4.2c-0.4,0.8-1.1,1.3-2,1.6
		c-0.9,0.3-1.7,0.2-2.5-0.2C420.7,61.5,416.6,59.5,413.1,57.8z M454.9,54.1c0.9,0.2,1.6,0.7,2.1,1.4c0.5,0.8,0.7,1.6,0.5,2.5
		c-2.3,10.3-6.8,18.3-13.5,23.9c-6.7,5.7-15.9,9.2-27.7,10.6c-0.9,0.1-1.7-0.1-2.5-0.7c-0.7-0.6-1.1-1.3-1.3-2.2l-0.7-4.2
		c-0.2-0.8,0-1.6,0.6-2.4c0.5-0.7,1.3-1.2,2.1-1.3c9.4-1.3,16.6-4,21.6-8.1c5-4.1,8.7-10.1,10.8-18.1c0.2-0.9,0.7-1.6,1.5-2
		c0.8-0.5,1.6-0.6,2.4-0.4L454.9,54.1z"/>
	<path class="st4" d="M512.2,62.9c0.9,0,1.7,0.3,2.3,1c0.7,0.7,1,1.4,1,2.3v3.2c0,0.9-0.3,1.7-1,2.3c-0.7,0.7-1.4,1-2.3,1h-14.1
		c-0.3,0-0.5,0.2-0.5,0.5c-0.2,11.4-6.5,18.5-18.8,21.4c-0.9,0.2-1.7,0-2.5-0.4c-0.8-0.5-1.3-1.2-1.6-2.1l-1.2-3.6
		c-0.3-0.8-0.2-1.6,0.3-2.3c0.4-0.8,1.1-1.2,1.9-1.5c3.7-1,6.3-2.3,7.9-4.2c1.6-1.8,2.4-4.3,2.5-7.3c0-0.3-0.2-0.5-0.5-0.5H468
		c-0.9,0-1.7-0.3-2.3-1s-1-1.4-1-2.3v-3.2c0-0.9,0.3-1.7,1-2.3c0.7-0.7,1.4-1,2.3-1H512.2z M474.9,47.3h30.4c0.9,0,1.7,0.3,2.3,1
		s1,1.4,1,2.3v3.2c0,0.9-0.3,1.7-1,2.3c-0.7,0.7-1.4,1-2.3,1h-30.4c-0.9,0-1.7-0.3-2.3-1c-0.7-0.7-1-1.4-1-2.3v-3.2
		c0-0.9,0.3-1.7,1-2.3C473.2,47.6,474,47.3,474.9,47.3z"/>
	<path class="st4" d="M528.7,57.8c-0.8-0.4-1.3-1-1.6-1.8c-0.3-0.8-0.2-1.6,0.2-2.4l2.1-4c0.4-0.8,1.1-1.4,2-1.7
		c0.9-0.3,1.8-0.3,2.6,0.1c4.2,1.9,8.3,3.9,12.3,5.9c0.8,0.4,1.3,1,1.6,1.8c0.2,0.8,0.1,1.7-0.3,2.4l-2.3,4.2
		c-0.4,0.8-1.1,1.3-2,1.6c-0.9,0.3-1.7,0.2-2.5-0.2C536.3,61.5,532.2,59.5,528.7,57.8z M570.5,54.1c0.9,0.2,1.6,0.7,2.1,1.4
		s0.7,1.6,0.5,2.5c-2.3,10.3-6.8,18.3-13.5,23.9s-15.9,9.2-27.7,10.6c-0.9,0.1-1.7-0.1-2.5-0.7c-0.7-0.6-1.1-1.3-1.3-2.2l-0.7-4.2
		c-0.2-0.8,0-1.6,0.6-2.4c0.5-0.7,1.3-1.2,2.1-1.3c9.4-1.3,16.6-4,21.6-8.1c5-4.1,8.7-10.1,10.8-18.1c0.2-0.9,0.7-1.6,1.5-2
		c0.8-0.5,1.6-0.6,2.4-0.4L570.5,54.1z"/>
	<path class="st4" d="M595.4,65.7c0.2,0.8,0.1,1.7-0.3,2.4c-0.5,0.8-1.1,1.3-2,1.4l-4,0.9c-0.9,0.2-1.7,0-2.5-0.4
		c-0.8-0.5-1.3-1.1-1.4-2c-1.3-5.6-2.4-9.9-3.3-13.1c-0.2-0.9-0.1-1.7,0.3-2.5c0.5-0.8,1.1-1.3,2-1.4l3.8-0.8
		c0.9-0.2,1.7-0.1,2.5,0.4c0.8,0.5,1.3,1.1,1.5,2C593,56.7,594.2,61.1,595.4,65.7z M627,48.5c0.9,0.1,1.7,0.4,2.3,1.1
		c0.6,0.7,0.9,1.4,0.9,2.4c-0.2,7-1,13-2.3,17.9c-1.4,4.9-3.5,9-6.3,12.3c-2.9,3.3-6.4,5.9-10.6,7.7c-4.2,1.8-9.4,3.1-15.5,3.8
		c-0.9,0.1-1.8-0.1-2.5-0.7c-0.8-0.6-1.2-1.3-1.4-2.2l-0.8-3.6c-0.2-0.8,0-1.6,0.5-2.4c0.5-0.7,1.2-1.2,2.1-1.3
		c4.9-0.7,8.8-1.7,12-3s5.7-3.3,7.8-5.8c2.1-2.5,3.6-5.6,4.5-9.4c0.9-3.7,1.4-8.4,1.6-14c0-0.9,0.4-1.6,1-2.2
		c0.7-0.6,1.4-0.9,2.3-0.8L627,48.5z M603.4,48.5c0.9-0.2,1.7,0,2.5,0.4c0.8,0.5,1.3,1.2,1.5,2.1c1.3,4.7,2.4,9.1,3.5,13.4
		c0.2,0.8,0.1,1.6-0.3,2.4c-0.5,0.8-1.1,1.2-2,1.4l-4,0.9c-0.9,0.2-1.7,0-2.5-0.5c-0.8-0.5-1.3-1.2-1.5-2.1
		c-0.5-1.8-1.6-6.3-3.5-13.3c-0.2-0.8-0.1-1.6,0.3-2.4c0.4-0.8,1.1-1.2,2-1.4L603.4,48.5z"/>
</g>
<polygon class="st5" points="345.2,234.3 358.1,212 332.4,212 "/>
</svg>
