<?xml version="1.0" encoding="utf-8"?>
<!-- Generator: Adobe Illustrator 25.3.0, SVG Export Plug-In . SVG Version: 6.00 Build 0)  -->
<svg version="1.1" id="レイヤー_1" xmlns="http://www.w3.org/2000/svg" xmlns:xlink="http://www.w3.org/1999/xlink" x="0px"
	 y="0px" viewBox="0 0 690.4 234.3" style="enable-background:new 0 0 690.4 234.3;" xml:space="preserve">
<style type="text/css">
	.st0{fill:#FFFDFE;stroke:#3C0000;stroke-width:4.5;stroke-miterlimit:10;}
	.st1{fill:#EB5160;}
	.st2{enable-background:new    ;}
	.st3{fill:#FFFFFF;}
	.st4{fill:#2D2D2D;}
	.st5{fill:#3C0000;}
</style>
<path class="st0" d="M27.4,2.2H663c13.9,0,25.2,11.3,25.2,25.1v159.5c0,13.9-11.3,25.1-25.2,25.1H27.4c-13.9,0-25.1-11.3-25.1-25.1
	V27.4C2.2,13.5,13.5,2.2,27.4,2.2z"/>
<path class="st1" d="M36.9,11h616.6c13.9,0,25.2,11.3,25.2,25.2v71.4c0,13.9-11.3,25.2-25.2,25.2H36.9c-13.9,0-25.1-11.3-25.1-25.2
	V36.2C11.8,22.3,23,11,36.9,11z"/>
<g class="st2">
	<path class="st3" d="M240,78.6c3.9,3.3,7.9,7,12.3,11.1c0.7,0.6,1,1.4,1,2.3c0,0.9-0.3,1.7-0.9,2.3l-2.9,2.9c-0.7,0.7-1.4,1-2.3,1
		c-0.9,0-1.7-0.3-2.3-0.9c-3.9-3.6-7.9-7.3-12.1-11c-0.3-0.2-0.6-0.2-0.8-0.1c-5.5,4.9-11.5,8.8-17.9,12c-0.8,0.4-1.7,0.4-2.6,0.1
		c-0.9-0.3-1.5-0.8-2-1.6l-1.8-3.2c-0.4-0.8-0.5-1.6-0.2-2.4s0.8-1.5,1.6-1.9c12-6.2,21.2-14.6,27.6-25.3c0.1-0.1,0.1-0.2,0-0.3
		c-0.1-0.1-0.1-0.1-0.3-0.1h-21.9c-0.9,0-1.7-0.3-2.3-1c-0.7-0.7-1-1.4-1-2.3v-3.5c0-0.9,0.3-1.7,1-2.3c0.7-0.7,1.4-1,2.3-1h31.6
		c0.9,0,1.7,0.3,2.3,1c0.7,0.7,1,1.4,1,2.3V60c0,2.3-0.5,4.4-1.5,6.2c-2.4,4.2-5,8.1-8,11.7C239.7,78.1,239.8,78.3,240,78.6z"/>
	<path class="st3" d="M309.6,75.2c0.8,0.3,1.5,0.8,1.9,1.6c0.4,0.8,0.5,1.7,0.1,2.6l-1.4,4.2c-0.3,0.8-0.8,1.5-1.6,1.9
		c-0.8,0.4-1.7,0.5-2.5,0.1c-7.7-2.7-15.6-5.1-23.6-7.2c-0.1,0-0.2,0-0.3,0.1c-0.1,0.1-0.1,0.2-0.1,0.3v17.9c0,0.9-0.3,1.7-1,2.3
		c-0.7,0.7-1.4,1-2.3,1h-5c-0.9,0-1.7-0.3-2.3-1c-0.7-0.7-1-1.4-1-2.3v-42c0-0.9,0.3-1.7,1-2.3c0.7-0.7,1.4-1,2.3-1h5
		c0.9,0,1.7,0.3,2.3,1c0.7,0.7,1,1.4,1,2.3v11.8c0,0.3,0.2,0.6,0.5,0.6C292.1,69.6,301.1,72.2,309.6,75.2z"/>
	<path class="st3" d="M366.6,70.2c0.9,0,1.7,0.3,2.3,1c0.7,0.7,1,1.4,1,2.3v4.4c0,0.9-0.3,1.7-1,2.3c-0.7,0.7-1.4,1-2.3,1h-42
		c-0.9,0-1.7-0.3-2.3-1c-0.7-0.7-1-1.4-1-2.3v-4.4c0-0.9,0.3-1.7,1-2.3c0.7-0.7,1.4-1,2.3-1H366.6z"/>
	<path class="st3" d="M395,75.3c0,0.9-0.3,1.7-1,2.3s-1.4,1-2.3,1h-5c-0.9,0-1.7-0.3-2.3-1c-0.7-0.7-1-1.4-1-2.3v-20
		c0-0.9,0.3-1.7,1-2.3c0.7-0.7,1.4-1,2.3-1h5c0.9,0,1.7,0.3,2.3,1c0.7,0.7,1,1.4,1,2.3V75.3z M420,52c0.9,0,1.7,0.3,2.3,1
		c0.7,0.7,1,1.4,1,2.3v13.5c0,9.6-2.4,17-7.2,22.2c-4.8,5.1-12.1,8.3-21.9,9.3c-0.9,0.1-1.8-0.1-2.5-0.7c-0.7-0.6-1.2-1.3-1.4-2.3
		l-0.8-3.4c-0.2-0.8,0-1.6,0.5-2.3s1.2-1.1,2.1-1.2c7.4-1,12.4-3.1,15.2-6.2c2.8-3.1,4.1-8.2,4.1-15.2V55.3c0-0.9,0.3-1.7,1-2.3
		c0.7-0.7,1.4-1,2.3-1H420z"/>
	<path class="st3" d="M482.2,70.2c0.9,0,1.7,0.3,2.3,1c0.7,0.7,1,1.4,1,2.3v4.4c0,0.9-0.3,1.7-1,2.3c-0.7,0.7-1.4,1-2.3,1h-42
		c-0.9,0-1.7-0.3-2.3-1c-0.7-0.7-1-1.4-1-2.3v-4.4c0-0.9,0.3-1.7,1-2.3c0.7-0.7,1.4-1,2.3-1H482.2z"/>
</g>
<g class="st2">
	<path class="st4" d="M242.2,167.4c-0.3,0-0.5-0.1-0.7-0.3c-0.2-0.2-0.3-0.4-0.3-0.7s0.1-0.5,0.3-0.7c0.2-0.2,0.4-0.3,0.7-0.3h8.6
		c0.3,0,0.5,0.1,0.7,0.3c0.2,0.2,0.3,0.4,0.3,0.7s-0.1,0.5-0.3,0.7c-0.2,0.2-0.4,0.3-0.7,0.3H242.2z M243,163.2
		c-0.3,0-0.5-0.1-0.7-0.3c-0.2-0.2-0.3-0.4-0.3-0.7c0-0.3,0.1-0.5,0.3-0.7c0.2-0.2,0.4-0.3,0.7-0.3h6.8c0.3,0,0.5,0.1,0.7,0.3
		c0.2,0.2,0.3,0.4,0.3,0.7c0,0.3-0.1,0.5-0.3,0.7c-0.2,0.2-0.4,0.3-0.7,0.3H243z M242,186.1V180c0-0.5,0.2-0.9,0.5-1.2
		c0.3-0.3,0.7-0.5,1.2-0.5h5.5c0.5,0,0.9,0.2,1.2,0.5c0.3,0.3,0.5,0.7,0.5,1.2v4.3c0,0.5-0.2,0.9-0.5,1.2s-0.7,0.5-1.2,0.5h-4.8
		c-0.1,0-0.1,0.1-0.1,0.2v0c0,0.3-0.1,0.6-0.3,0.8c-0.2,0.2-0.5,0.3-0.8,0.3c-0.3,0-0.6-0.1-0.8-0.3
		C242.1,186.7,242,186.4,242,186.1z M243.2,171.7c-0.3,0-0.5-0.1-0.7-0.3c-0.2-0.2-0.3-0.4-0.3-0.7s0.1-0.5,0.3-0.7
		c0.2-0.2,0.4-0.3,0.7-0.3h6.6c0.3,0,0.5,0.1,0.7,0.3c0.2,0.2,0.3,0.4,0.3,0.7s-0.1,0.5-0.3,0.7c-0.2,0.2-0.4,0.3-0.7,0.3H243.2z
		 M243.2,175.9c-0.3,0-0.5-0.1-0.7-0.3c-0.2-0.2-0.3-0.4-0.3-0.7s0.1-0.5,0.3-0.7c0.2-0.2,0.4-0.3,0.7-0.3h6.6
		c0.3,0,0.5,0.1,0.7,0.3c0.2,0.2,0.3,0.4,0.3,0.7s-0.1,0.5-0.3,0.7c-0.2,0.2-0.4,0.3-0.7,0.3H243.2z M244.2,180.4v3.3
		c0,0.2,0.1,0.3,0.2,0.3h4.1c0.2,0,0.2-0.1,0.2-0.3v-3.3c0-0.2-0.1-0.2-0.2-0.2h-4.1C244.3,180.2,244.2,180.3,244.2,180.4z
		 M267.8,178.1c0.3,0,0.5,0.1,0.7,0.3s0.3,0.4,0.3,0.7c0,0.3-0.1,0.5-0.3,0.7c-0.2,0.2-0.5,0.3-0.7,0.3h-5.9c-0.2,0-0.2,0.1-0.2,0.3
		v5.5c0,0.3-0.1,0.6-0.3,0.8c-0.2,0.2-0.5,0.3-0.8,0.3c-0.3,0-0.6-0.1-0.9-0.3c-0.2-0.2-0.3-0.5-0.3-0.8v-5.5c0-0.2-0.1-0.3-0.2-0.3
		h-6.4c-0.3,0-0.5-0.1-0.7-0.3c-0.2-0.2-0.3-0.4-0.3-0.7c0-0.3,0.1-0.5,0.3-0.7c0.2-0.2,0.4-0.3,0.7-0.3h6.4c0.2,0,0.2-0.1,0.2-0.3
		v-4.5c0-0.2-0.1-0.3-0.2-0.3h-5.5c-0.3,0-0.5-0.1-0.7-0.3c-0.2-0.2-0.3-0.4-0.3-0.7c0-0.3,0.1-0.5,0.3-0.7c0.2-0.2,0.4-0.3,0.7-0.3
		h5.5c0.2,0,0.2-0.1,0.2-0.2v-4.2c0-0.2-0.1-0.3-0.2-0.3h-6.3c-0.3,0-0.5-0.1-0.7-0.3c-0.2-0.2-0.3-0.4-0.3-0.7s0.1-0.5,0.3-0.7
		c0.2-0.2,0.4-0.3,0.7-0.3h3.2c0.2,0,0.2-0.1,0.1-0.2c-0.5-1-0.9-2-1.4-2.8c-0.1-0.2-0.2-0.5,0-0.7c0.1-0.2,0.3-0.4,0.6-0.5
		c0.7-0.2,1.2,0,1.6,0.7c0.6,1.1,1.1,2.2,1.6,3.4c0.1,0.1,0.2,0.2,0.4,0.2h3.5c0.2,0,0.3-0.1,0.4-0.2c0.7-1.2,1.2-2.3,1.7-3.3
		c0.3-0.7,0.8-0.9,1.5-0.8c0.3,0.1,0.5,0.2,0.6,0.5c0.1,0.3,0.1,0.5,0,0.8c-0.4,0.8-0.9,1.8-1.5,2.8c0,0,0,0.1,0,0.1
		c0,0.1,0.1,0.1,0.1,0.1h2.2c0.3,0,0.5,0.1,0.7,0.3c0.2,0.2,0.3,0.4,0.3,0.7c0,0.3-0.1,0.5-0.3,0.7c-0.2,0.2-0.4,0.3-0.7,0.3h-5.5
		c-0.2,0-0.2,0.1-0.2,0.3v4.2c0,0.2,0.1,0.2,0.2,0.2h5c0.3,0,0.5,0.1,0.7,0.3c0.2,0.2,0.3,0.4,0.3,0.7s-0.1,0.5-0.3,0.7
		c-0.2,0.2-0.4,0.3-0.7,0.3h-5c-0.2,0-0.2,0.1-0.2,0.3v4.5c0,0.2,0.1,0.3,0.2,0.3H267.8z"/>
	<path class="st4" d="M284.4,186.1c-3.2,0-5.4-0.8-6.6-2.4c-1.2-1.6-1.8-4.5-1.8-8.8c0-3.4,0.1-7.6,0.3-12.4c0-0.3,0.1-0.6,0.4-0.8
		c0.2-0.2,0.5-0.3,0.8-0.3c0.3,0,0.6,0.1,0.8,0.4c0.2,0.2,0.3,0.5,0.3,0.8c-0.2,4.8-0.3,8.9-0.3,12.4c0,1.9,0.1,3.4,0.3,4.6
		c0.2,1.2,0.6,2.1,1.1,2.7c0.5,0.6,1.1,1.1,1.8,1.3c0.7,0.2,1.6,0.3,2.7,0.3c2,0,3.8-0.7,5.4-2.1c1.7-1.4,3.1-3.5,4.2-6.2
		c0.1-0.3,0.3-0.5,0.6-0.6c0.3-0.1,0.6-0.1,0.8,0c0.3,0.1,0.5,0.3,0.6,0.6c0.1,0.3,0.1,0.6,0,0.9c-1.3,3.2-3,5.6-5,7.2
		C289.2,185.2,286.9,186.1,284.4,186.1z"/>
	<path class="st4" d="M308.6,177.2c-1.6-1.1-2.6-1.9-3-2.3c-0.4-0.5-0.6-1.1-0.6-1.8c0-0.8,0.2-1.4,0.7-1.9s1.5-1.3,3.2-2.4
		c3.3-2.1,6.7-4.7,10.4-7.6c0.3-0.2,0.5-0.3,0.9-0.3c0.3,0,0.6,0.2,0.8,0.4c0.2,0.2,0.3,0.5,0.2,0.8c0,0.3-0.2,0.6-0.4,0.8
		c-3.7,2.9-7.2,5.5-10.4,7.6c-1.2,0.8-2,1.3-2.3,1.6s-0.5,0.6-0.5,0.9c0,0.3,0.1,0.6,0.4,0.9c0.3,0.3,0.9,0.8,2,1.5
		c3.9,2.7,7.8,5.7,11.7,9c0.2,0.2,0.3,0.5,0.3,0.8s-0.1,0.6-0.3,0.8c-0.2,0.2-0.5,0.3-0.8,0.3c-0.3,0-0.6-0.1-0.9-0.3
		C316.2,182.8,312.4,179.9,308.6,177.2z"/>
	<path class="st4" d="M335.3,185.8c-0.3,0-0.6,0-0.9-0.2s-0.4-0.4-0.5-0.7c-0.8-3.4-1.2-7.1-1.2-11.2c0-4.1,0.4-7.8,1.2-11.2
		c0.1-0.3,0.2-0.5,0.5-0.7c0.2-0.2,0.5-0.2,0.9-0.2c0.3,0,0.5,0.2,0.7,0.4c0.2,0.2,0.2,0.5,0.1,0.8c-0.8,3.3-1.2,6.9-1.2,10.9
		s0.4,7.5,1.2,10.9c0.1,0.3,0,0.5-0.1,0.8C335.8,185.6,335.6,185.7,335.3,185.8z M346.5,185.9c-2.1,0-3.7-0.5-4.8-1.4
		c-1.1-0.9-1.7-2.2-1.7-3.9c0-1.6,0.6-2.8,1.7-3.6c1.1-0.9,2.7-1.3,4.8-1.3c1.2,0,2.4,0.2,3.5,0.7c0.2,0.1,0.2,0,0.2-0.1v-8
		c0-0.2-0.1-0.2-0.3-0.2h-8.1c-0.3,0-0.5-0.1-0.7-0.3c-0.2-0.2-0.3-0.4-0.3-0.7c0-0.3,0.1-0.5,0.3-0.7c0.2-0.2,0.4-0.3,0.7-0.3h8.1
		c0.2,0,0.3-0.1,0.3-0.2v-3.7c0-0.3,0.1-0.6,0.3-0.8s0.5-0.3,0.8-0.3c0.3,0,0.6,0.1,0.8,0.3c0.2,0.2,0.3,0.5,0.3,0.8v3.7
		c0,0.2,0.1,0.2,0.3,0.2h4c0.3,0,0.5,0.1,0.7,0.3s0.3,0.4,0.3,0.7c0,0.3-0.1,0.5-0.3,0.7s-0.4,0.3-0.7,0.3h-4
		c-0.2,0-0.3,0.1-0.3,0.2v9.3c0,0.2,0.1,0.3,0.2,0.4c1.1,0.8,2.6,2,4.4,3.8c0.2,0.2,0.3,0.5,0.3,0.8s-0.1,0.5-0.3,0.8
		c-0.2,0.2-0.5,0.3-0.8,0.3s-0.6-0.1-0.8-0.3c-1.1-1.1-2-2-2.8-2.6c-0.2-0.1-0.2-0.1-0.2,0.1C352.1,184.1,350.2,185.9,346.5,185.9z
		 M346.4,177.7c-2.8,0-4.2,1-4.2,2.8c0,2.2,1.4,3.3,4.2,3.3c1.3,0,2.3-0.3,2.9-0.9c0.6-0.6,0.9-1.6,0.9-3v-0.8
		c0-0.2-0.1-0.3-0.2-0.4C348.8,178,347.6,177.7,346.4,177.7z"/>
	<path class="st4" d="M375,185.5c-3.5,0-6.2-0.6-8.3-1.7c-2-1.1-3-2.7-3-4.6c0-1.7,1.2-3.9,3.6-6.4c0.2-0.2,0.5-0.3,0.8-0.3
		c0.3,0,0.6,0.1,0.8,0.3c0.2,0.2,0.3,0.4,0.3,0.7c0,0.3-0.1,0.5-0.3,0.7c-1.9,2-2.9,3.6-2.9,4.8c0,1.3,0.8,2.4,2.4,3.2
		s3.8,1.2,6.6,1.2c3,0,6-0.3,8.9-1c0.3-0.1,0.5,0,0.8,0.1c0.2,0.2,0.4,0.4,0.5,0.6c0.1,0.3,0,0.6-0.1,0.8c-0.2,0.3-0.4,0.4-0.6,0.5
		C381.5,185.1,378.3,185.5,375,185.5z M367.5,163.1h15.1c0.3,0,0.5,0.1,0.7,0.3c0.2,0.2,0.3,0.4,0.3,0.7c0,0.3-0.1,0.5-0.3,0.7
		c-0.2,0.2-0.4,0.3-0.7,0.3h-15.1c-0.3,0-0.5-0.1-0.7-0.3c-0.2-0.2-0.3-0.4-0.3-0.7c0-0.3,0.1-0.5,0.3-0.7
		C366.9,163.2,367.2,163.1,367.5,163.1z"/>
	<path class="st4" d="M394,166.7c-0.3,0-0.5-0.1-0.7-0.3c-0.2-0.2-0.3-0.4-0.3-0.7s0.1-0.5,0.3-0.7c0.2-0.2,0.4-0.3,0.7-0.3h5.8
		c0.2,0,0.3-0.1,0.3-0.3c0.2-0.9,0.4-1.8,0.5-2.8c0-0.3,0.2-0.5,0.4-0.7s0.5-0.3,0.8-0.3c0.3,0,0.5,0.2,0.7,0.4
		c0.2,0.2,0.2,0.5,0.2,0.8c0,0.3-0.2,1.2-0.5,2.6c0,0.1,0,0.1,0,0.2c0,0.1,0.1,0.1,0.2,0.1h13.3c0.3,0,0.5,0.1,0.7,0.3
		c0.2,0.2,0.3,0.4,0.3,0.7s-0.1,0.5-0.3,0.7c-0.2,0.2-0.4,0.3-0.7,0.3h-13.8c-0.2,0-0.3,0.1-0.3,0.2c-0.7,2.3-1.5,4.6-2.5,6.8v0.1
		h0.1c1.1-0.5,2.4-1,3.8-1.3c1.4-0.3,2.6-0.5,3.8-0.5c2.7,0,4.8,0.6,6.2,1.7s2.1,2.7,2.1,4.8c0,2.2-1,4-2.9,5.3c-2,1.3-4.6,2-7.9,2
		c-2.1,0-4.1-0.2-6.2-0.5c-0.3,0-0.5-0.2-0.6-0.4c-0.2-0.2-0.2-0.5-0.2-0.8c0-0.3,0.2-0.5,0.4-0.6c0.2-0.2,0.5-0.2,0.8-0.2
		c2.1,0.3,4,0.5,5.9,0.5c2.6,0,4.7-0.5,6.2-1.5c1.5-1,2.3-2.3,2.3-3.9c0-2.9-2-4.4-6.1-4.4c-2.7,0-5.4,0.7-7.9,2.2
		c-0.6,0.3-1.2,0.4-1.9,0.1c-0.3-0.1-0.4-0.3-0.5-0.6c-0.1-0.3-0.1-0.6,0.1-0.8c1.3-2.7,2.3-5.3,3.1-7.8c0-0.2,0-0.2-0.2-0.2H394z"
		/>
	<path class="st4" d="M425.7,176.8c-0.3-0.1-0.5-0.2-0.6-0.5c-0.1-0.2-0.2-0.5-0.2-0.8c0.3-1.9,0.7-4.3,1.1-7.4
		c0-0.3,0.2-0.6,0.4-0.8c0.2-0.2,0.5-0.3,0.9-0.2c0.3,0,0.6,0.2,0.8,0.4c0.2,0.3,0.2,0.5,0.2,0.8c-0.4,2.6-0.7,4.5-0.9,6v0h0.1
		c1.3-1,2.9-1.9,4.8-2.5c1.9-0.6,3.6-1,5.3-1c5.6,0,8.4,2.2,8.4,6.7c0,2.6-1.1,4.7-3.3,6s-5.4,2.1-9.7,2.1c-1.5,0-3.2-0.1-5.2-0.2
		c-0.3,0-0.5-0.1-0.7-0.4c-0.2-0.2-0.3-0.5-0.3-0.8c0-0.3,0.1-0.5,0.4-0.7c0.2-0.2,0.5-0.3,0.7-0.2c2,0.2,3.7,0.3,5,0.3
		c7,0,10.4-2,10.4-6.1c0-3.1-2-4.7-6.1-4.7c-1.4,0-3,0.3-4.8,1c-1.8,0.7-3.4,1.5-4.9,2.6C426.9,176.8,426.3,177,425.7,176.8z
		 M429.4,162.1c4,0.5,7.8,0.8,11.4,0.8c0.3,0,0.5,0.1,0.7,0.3c0.2,0.2,0.3,0.4,0.3,0.7c0,0.3-0.1,0.5-0.3,0.7s-0.5,0.3-0.7,0.3
		c-3.9,0-7.7-0.3-11.6-0.8c-0.3,0-0.5-0.1-0.7-0.4c-0.2-0.2-0.2-0.5-0.2-0.8c0-0.3,0.1-0.5,0.4-0.7S429.2,162,429.4,162.1z"/>
</g>
<polygon class="st5" points="345.6,234.3 358.5,212 332.7,212 "/>
</svg>
