<svg id="Layer_1" data-name="Layer 1" xmlns="http://www.w3.org/2000/svg" viewBox="0 0 40.96 55.09"><defs><style>.cls-1{fill:#dd8ba0;}.cls-1,.cls-2{stroke:#3c0000;stroke-miterlimit:10;stroke-width:0.87px;}.cls-2{fill:#ffd4dd;}</style></defs><path class="cls-1" d="M20.51,49.44H16.18l.52,4.17a1.12,1.12,0,0,0,1,1h5.7a1.12,1.12,0,0,0,1-1.11l.32-4.11Z"/><rect class="cls-1" x="24.38" y="42.76" width="0.38" height="7.02"/><rect class="cls-1" x="23.31" y="42.76" width="0.38" height="7.02"/><rect class="cls-1" x="17.3" y="43.06" width="0.38" height="7.02"/><rect class="cls-1" x="16.24" y="43.06" width="0.38" height="7.02"/><rect class="cls-1" x="16.27" y="49.44" width="8.43" height="1.07"/><path class="cls-1" d="M.44,17.33a14.68,14.68,0,0,0,1.92,7.23h0a.41.41,0,0,0,.07.11c0,.06.07.12.1.19l.22.36.12.17a1.74,1.74,0,0,0,.11.18l.12.18.12.17.13.18h0l.13.18.17.22c.06.08.12.17.19.25H3.77l.35.38L14.7,38.79l1.36,1.51H24.9l1.37-1.51L36.84,27.13l.35-.38h-.07l.18-.24.17-.21.07-.09h0c.1-.13.19-.26.28-.4l.11-.15.15-.22.1-.17.25-.41.11-.18.06-.11a14.68,14.68,0,0,0,1.92-7.23,14.31,14.31,0,0,0-.25-2.71c0-.2-.08-.39-.13-.58l-.06-.27a16.33,16.33,0,0,0-5.43-8.39A22,22,0,0,0,20.48.44C10.85.44,2.8,6.17.88,13.8L.82,14c0,.16-.07.31-.1.47A13.9,13.9,0,0,0,.44,17.33Z"/><path class="cls-2" d="M8.38,17.33a22.64,22.64,0,0,0,1.16,7.23h0a.76.76,0,0,1,0,.11c0,.06.05.12.07.19s.08.24.13.36a.87.87,0,0,0,.07.17,1.34,1.34,0,0,0,.07.18l.07.18c0,.06,0,.11.07.17l.08.18h0a1.42,1.42,0,0,0,.08.18,2.14,2.14,0,0,0,.1.22l.12.25h0l.22.38L17,38.79l.82,1.51h5.34L24,38.79l6.39-11.66.21-.38h0a2.56,2.56,0,0,1,.11-.24l.09-.21.05-.09h0c.06-.13.11-.26.17-.4l.06-.15.09-.22a.87.87,0,0,1,.07-.17l.15-.41.06-.18a.76.76,0,0,1,0-.11,22.64,22.64,0,0,0,1.16-7.23,21.92,21.92,0,0,0-.16-2.71c0-.2,0-.39-.07-.58s0-.18,0-.27A19.72,19.72,0,0,0,29,5.38c-2.19-3-5.22-4.94-8.56-4.94C14.67.44,9.81,6.17,8.65,13.8a2,2,0,0,0,0,.24l-.06.47A23.73,23.73,0,0,0,8.38,17.33Z"/><path class="cls-1" d="M16.59,17.33A69.77,69.77,0,0,0,17,24.56h0l0,.11,0,.19c0,.12,0,.24,0,.36s0,.12,0,.17a1.1,1.1,0,0,1,0,.18l0,.18c0,.06,0,.11,0,.17l0,.18h0a1.1,1.1,0,0,0,0,.18l0,.22a2.17,2.17,0,0,1,0,.25h0l.07.38,2.05,11.66.26,1.51h1.72l.26-1.51,2.06-11.66.06-.38h0a2,2,0,0,1,0-.24l0-.21v-.09h0l.06-.4,0-.15a1.64,1.64,0,0,0,0-.22l0-.17c0-.14,0-.27,0-.41l0-.18,0-.11a67.1,67.1,0,0,0,.37-7.23c0-.92,0-1.83-.05-2.71,0-.2,0-.39,0-.58s0-.18,0-.27a49.65,49.65,0,0,0-1.05-8.39c-.7-3-1.68-4.94-2.75-4.94-1.87,0-3.43,5.73-3.8,13.36,0,.08,0,.16,0,.24s0,.31,0,.47Q16.59,15.89,16.59,17.33Z"/><rect class="cls-1" x="16.03" y="40.3" width="8.91" height="3.11" rx="0.23"/></svg>