<svg id="Layer_1" data-name="Layer 1" xmlns="http://www.w3.org/2000/svg" viewBox="0 0 67.26 90.75"><defs><style>.cls-1{fill:#d26088;}.cls-1,.cls-2{stroke:#3c0000;stroke-miterlimit:10;stroke-width:0.6px;}.cls-2{fill:#ffb8c8;}</style></defs><path class="cls-1" d="M33.67,81.77H26.48l.87,7a1.83,1.83,0,0,0,1.71,1.73h9.47a1.86,1.86,0,0,0,1.72-1.84l.52-6.84Z"/><rect class="cls-1" x="40.11" y="70.67" width="0.63" height="11.68"/><rect class="cls-1" x="38.34" y="70.67" width="0.63" height="11.68"/><rect class="cls-1" x="28.35" y="71.17" width="0.63" height="11.68"/><rect class="cls-1" x="26.57" y="71.17" width="0.63" height="11.68"/><rect class="cls-1" x="26.62" y="81.77" width="14.01" height="1.78"/><path class="cls-1" d="M.3,28.39a24.38,24.38,0,0,0,3.2,12h0l.11.19c.06.1.12.2.17.3l.37.6.19.3.19.29.2.3c.07.09.13.19.2.29l.21.28h0l.21.29.29.38.32.41H5.85l.58.64L24,64.08l2.26,2.5H41l2.26-2.5L60.83,44.69l.58-.64H61.3l.3-.39.27-.35.12-.16h0l.47-.67.17-.25.25-.37.18-.28c.14-.23.28-.45.41-.68s.12-.19.17-.29l.11-.19a24.38,24.38,0,0,0,3.2-12,24,24,0,0,0-.43-4.51q-.09-.49-.21-1c0-.15-.07-.3-.1-.44a27.06,27.06,0,0,0-9-13.95A36.53,36.53,0,0,0,33.63.3C17.61.3,4.23,9.82,1,22.52c0,.13-.07.27-.1.4s-.11.52-.17.78A24.3,24.3,0,0,0,.3,28.39Z"/><path class="cls-1" d="M67,28.39a21.87,21.87,0,0,1-.23,3.24,23.89,23.89,0,0,1-1.58,5.91,24.52,24.52,0,0,1-1.4,2.87l-.1.19a2.69,2.69,0,0,0-.16.29c-.15.23-.28.45-.42.68l-.19.28-.24.37-.17.25-.48.67h0l-.05.07s0,.06-.07.09l-.27.35c-.09.13-.2.26-.3.39h.12l-.59.64-1.34,1.48L43.25,64.08,41,66.57H26.28L24,64.08,7.77,46.17,6.42,44.69l-.57-.64H6l-.33-.42c-.09-.12-.18-.25-.28-.37a.08.08,0,0,0,0,0L5.14,43l-.21-.3a3,3,0,0,1-.2-.29l-.2-.28-.19-.3-.19-.3c-.12-.19-.25-.4-.36-.6s-.13-.2-.18-.3l-.11-.19a28.08,28.08,0,0,1-1.39-2.87A24.47,24.47,0,0,1,.52,31.63,23.31,23.31,0,0,1,.3,28.39,24.3,24.3,0,0,1,.76,23.7c.05-.26.12-.52.18-.78s.06-.27.09-.4A26.44,26.44,0,0,1,7.78,10.66a29.24,29.24,0,0,1,3.31-3A36.82,36.82,0,0,1,33.63.3,36.82,36.82,0,0,1,56.17,7.7c.35.27.69.54,1,.83a28.72,28.72,0,0,1,2.28,2.13,26.38,26.38,0,0,1,6.74,11.82c0,.14.07.29.11.44.07.31.14.63.2,1A24,24,0,0,1,67,28.39Z"/><path class="cls-2" d="M66.73,31.63a23.89,23.89,0,0,1-1.58,5.91h-63A24.47,24.47,0,0,1,.52,31.63Z"/><path class="cls-2" d="M61.94,43.22s0,.06-.07.09l-.27.35c-.09.13-.2.26-.3.39h.12l-.59.64-1.34,1.48H7.77L6.42,44.69l-.57-.64H6l-.33-.42c-.09-.12-.18-.25-.28-.37a.08.08,0,0,0,0,0Z"/><path class="cls-2" d="M59.48,10.66H7.78a29.24,29.24,0,0,1,3.31-3H56.17c.35.27.69.54,1,.83A28.72,28.72,0,0,1,59.48,10.66Z"/><rect class="cls-1" x="26.23" y="66.58" width="14.81" height="5.17" rx="0.39"/></svg>