<svg id="Layer_1" data-name="Layer 1" xmlns="http://www.w3.org/2000/svg" viewBox="0 0 167.31 108.61"><defs><style>.cls-1{fill:#baa290;}.cls-19,.cls-2{fill:#464647;}.cls-14,.cls-3{fill:#ad5151;}.cls-4{fill:#bfa896;}.cls-5{fill:#c8b59d;}.cls-6{fill:#a17c76;}.cls-7{fill:#edd661;}.cls-8{fill:#baa694;}.cls-9{fill:#928847;}.cls-10{fill:#783939;}.cls-11,.cls-15{fill:#ebebeb;}.cls-11,.cls-12,.cls-13,.cls-14,.cls-15,.cls-16,.cls-17,.cls-18,.cls-19{stroke:#3c0000;stroke-miterlimit:10;stroke-width:0.87px;}.cls-11{opacity:0.33;}.cls-12{fill:#edc998;}.cls-13{fill:#eab363;}.cls-16{fill:#a36c65;}.cls-17{fill:#6d6d6d;}.cls-18,.cls-20{fill:#3c0000;}</style></defs><path class="cls-1" d="M27,34.23c1.66,1,2.3,3.44,3.13,5.2s1.59,3.32,2.38,5a1.39,1.39,0,0,1-.66,1.86l-.19.1a1.34,1.34,0,0,1-1.56-.28,3.3,3.3,0,0,1-.61-1,40.16,40.16,0,0,0-2.18-4.59,9.4,9.4,0,0,0-1.8-2.3c-.85-.74-2.42-1.62-2.46-2.9a1.76,1.76,0,0,1,1.41-1.63A3.49,3.49,0,0,1,27,34.23Z"/><path class="cls-2" d="M31.07,46.93a1.79,1.79,0,0,1-1.27-.54,4,4,0,0,1-.69-1.14c-.13-.31-.26-.61-.4-.92A29.73,29.73,0,0,0,27,40.69a8.71,8.71,0,0,0-1.71-2.19c-.17-.15-.36-.3-.57-.46-.89-.68-2-1.53-2-2.75a2.16,2.16,0,0,1,1.73-2,3.87,3.87,0,0,1,2.86.63h0c1.4.87,2.12,2.59,2.75,4.11.18.44.36.87.55,1.26l2.38,5a1.83,1.83,0,0,1-.86,2.43l-.2.09A1.81,1.81,0,0,1,31.07,46.93ZM25,34a1.73,1.73,0,0,0-.45,0,1.34,1.34,0,0,0-1.08,1.19c0,.82.91,1.5,1.69,2.1.23.17.44.34.62.49a9.48,9.48,0,0,1,1.88,2.41A30.56,30.56,0,0,1,29.5,44l.39.91a3.19,3.19,0,0,0,.53.9.9.9,0,0,0,1.07.18l.19-.09a1,1,0,0,0,.46-1.29l-2.38-5c-.2-.41-.38-.85-.57-1.3-.61-1.47-1.24-3-2.41-3.72A3.59,3.59,0,0,0,25,34Z"/><path class="cls-3" d="M42.8,21.35h0A17.76,17.76,0,0,1,60.56,39.11v7.32a6,6,0,0,1-6,6H42.8a6,6,0,0,1-6-6V27.33A6,6,0,0,1,42.8,21.35Z"/><path class="cls-2" d="M54.58,52.93H42.8a6.51,6.51,0,0,1-6.5-6.5V27.33a6.5,6.5,0,0,1,6.5-6.49A18.3,18.3,0,0,1,61.07,39.11v7.32A6.5,6.5,0,0,1,54.58,52.93ZM42.8,21.86a5.48,5.48,0,0,0-5.47,5.47v19.1A5.47,5.47,0,0,0,42.8,51.9H54.58a5.48,5.48,0,0,0,5.47-5.47V39.11A17.27,17.27,0,0,0,42.8,21.86Z"/><path class="cls-4" d="M47.43,27.66c0,2.8-3.45,5.07-7.69,5.06h-.15c-4.23,0-7.66-2.29-7.65-5.09l0-10.24c0-2.8,3.45-5.06,7.68-5.05h.15c4.23,0,7.66,2.29,7.65,5.09Z"/><path class="cls-5" d="M38.07,12.34h0V32.71c5.16,0,9.34-2.26,9.35-5.05l0-10.23C47.47,14.63,43.27,12.35,38.07,12.34Z"/><path class="cls-2" d="M39.77,32.84h-.18a10.08,10.08,0,0,1-5.5-1.53,4.48,4.48,0,0,1-2.29-3.68l0-10.24c0-2.85,3.51-5.17,7.8-5.17h.18a10,10,0,0,1,5.51,1.52,4.52,4.52,0,0,1,2.29,3.69l0,10.23C47.56,30.52,44.06,32.84,39.77,32.84Zm-.14-20.38c-4.13,0-7.5,2.21-7.51,4.93l0,10.24a4.27,4.27,0,0,0,2.18,3.5A9.83,9.83,0,0,0,39.6,32.6h.17c4.14,0,7.5-2.21,7.51-4.94h0l0-10.23a4.3,4.3,0,0,0-2.18-3.5,9.77,9.77,0,0,0-5.33-1.47h-.18Z"/><path class="cls-2" d="M39.77,33h-.18A10.16,10.16,0,0,1,34,31.42a4.64,4.64,0,0,1-2.35-3.79l0-10.24c0-2.92,3.57-5.3,7.93-5.3h.18a10.28,10.28,0,0,1,5.58,1.55,4.62,4.62,0,0,1,2.34,3.79l0,10.23C47.69,30.59,44.13,33,39.77,33Zm0-.24,0,.12v-.12Zm-.12-20.26v.13c-4.06,0-7.37,2.15-7.38,4.8l0,10.24A4.16,4.16,0,0,0,34.34,31a9.66,9.66,0,0,0,5.26,1.45h.14c4.09,0,7.41-2.16,7.42-4.81v-.12l0-10.11A4.19,4.19,0,0,0,45.07,14a9.6,9.6,0,0,0-5.26-1.44h-.15Zm7.78,15.33a4.9,4.9,0,0,1-3,3.91c1.86-.92,3.07-2.39,3.08-4l0-10.23a4.4,4.4,0,0,0-2.23-3.58l-.38-.23a3.79,3.79,0,0,1,.34.2,4.42,4.42,0,0,1,2.23,3.61l0,10.11h0v.25ZM34.73,13.52A4.66,4.66,0,0,0,32,17.39l0,10.24a4.39,4.39,0,0,0,2.24,3.58c.13.09.27.17.41.25l-.37-.23A4.4,4.4,0,0,1,32,27.63l0-10.24A4.68,4.68,0,0,1,34.73,13.52Z"/><path class="cls-2" d="M35.3,21.38a.68.68,0,1,1-.68-.68A.68.68,0,0,1,35.3,21.38Z"/><path class="cls-2" d="M41,21.38a.69.69,0,1,1-.68-.68A.69.69,0,0,1,41,21.38Z"/><path class="cls-6" d="M41.36,22.8c-.74,0-1.33.39-1.33.88s.59.87,1.33.87,1.32-.39,1.32-.87S42.09,22.8,41.36,22.8Z"/><path class="cls-6" d="M34.33,22.8c-.74,0-1.33.39-1.33.88s.59.87,1.33.87,1.32-.39,1.32-.87S35.06,22.8,34.33,22.8Z"/><path class="cls-7" d="M48.93,17l-.09-.21a12.62,12.62,0,0,0-1.69-2.94,8.31,8.31,0,0,0-2.52-1.93,11.68,11.68,0,0,0-10.2-.08,6.56,6.56,0,0,0-3,2.53A18.89,18.89,0,0,0,30.31,17c-.17.46-.33.92-.51,1.38a5,5,0,0,0-.43,1.21c-.05.82,1.27,1.31,1.9,1.29a3.55,3.55,0,0,0,1.88-.65.59.59,0,0,1,.2-.12.83.83,0,0,1,.31,0,5.14,5.14,0,0,0,1.84-.42,2.13,2.13,0,0,0,1.16-.85c.18-.31.5-.25.82-.29a5.65,5.65,0,0,0,1.07-.22,3.34,3.34,0,0,0,.83-.4c.18-.12.3-.32.47-.45s.34-.09.59.07a2.68,2.68,0,0,0,1.68.37,6.08,6.08,0,0,0,1.63-.57c.27-.1.34-.09.49.17s.32.59.51.87a2.35,2.35,0,0,0,.45.54,3.23,3.23,0,0,0,.58.31,13.7,13.7,0,0,0,1.48.52c-.07.54,0,1.09,0,1.63q-.06,1.25,0,2.49A1.94,1.94,0,0,0,48,25.6c.84.51,2-.4,2.4-1.17a3.63,3.63,0,0,0,.21-2.09,15.2,15.2,0,0,0-.68-2.57l-.35-1C49.34,18.15,49.15,17.57,48.93,17Z"/><path class="cls-2" d="M48.49,26a1.31,1.31,0,0,1-.68-.19,2.22,2.22,0,0,1-.84-2c0-.83,0-1.68,0-2.51,0-.21,0-.43,0-.65s0-.5,0-.76c-.43-.13-.86-.29-1.28-.46a2.75,2.75,0,0,1-.65-.35,2.85,2.85,0,0,1-.51-.6c-.13-.19-.23-.38-.34-.57L44,17.66l0-.08-.11,0-.43.18a3.93,3.93,0,0,1-1.27.4,3,3,0,0,1-1.85-.41l-.1-.07-.11-.07s0,0-.07.05a1.52,1.52,0,0,0-.17.18,2.2,2.2,0,0,1-.31.29,3.75,3.75,0,0,1-.9.43,6.31,6.31,0,0,1-1.11.23l-.23,0c-.25,0-.33,0-.38.13a2.46,2.46,0,0,1-1.31,1,5.34,5.34,0,0,1-1.94.44.56.56,0,0,0-.21,0l-.12.07a3.8,3.8,0,0,1-2,.72,2.76,2.76,0,0,1-1.86-.75,1.15,1.15,0,0,1-.33-.85,3,3,0,0,1,.31-1c.05-.12.1-.23.14-.34.11-.29.22-.58.32-.87l.19-.52a19.5,19.5,0,0,1,1.16-2.69,7,7,0,0,1,3.1-2.65A12.37,12.37,0,0,1,41,10.53a11.88,11.88,0,0,1,3.73,1.15,8.22,8.22,0,0,1,2.61,2,13.39,13.39,0,0,1,1.73,3l.09.22c.23.58.42,1.16.61,1.73l.34,1.05a15.07,15.07,0,0,1,.7,2.62,3.89,3.89,0,0,1-.24,2.26A3,3,0,0,1,49,26,1.73,1.73,0,0,1,48.49,26ZM44,17c.18,0,.33.1.49.36l.19.35c.1.18.2.35.31.52a1.94,1.94,0,0,0,.39.46,2.36,2.36,0,0,0,.52.28,12.47,12.47,0,0,0,1.45.51.29.29,0,0,1,.2.32,5.46,5.46,0,0,0,0,.91c0,.22,0,.46,0,.7,0,.81,0,1.64,0,2.45,0,.65.09,1.2.56,1.5a.87.87,0,0,0,.73,0,2.33,2.33,0,0,0,1.28-1.11,3.2,3.2,0,0,0,.18-1.91,14.52,14.52,0,0,0-.67-2.51l-.34-1.05c-.19-.56-.38-1.14-.6-1.7h0l-.09-.21A12.1,12.1,0,0,0,46.93,14a7.93,7.93,0,0,0-2.44-1.85A11.26,11.26,0,0,0,41,11.11a11.73,11.73,0,0,0-6.41,1,6.17,6.17,0,0,0-2.84,2.41,18.56,18.56,0,0,0-1.13,2.61l-.18.51c-.11.29-.21.59-.32.88l-.16.37a2.49,2.49,0,0,0-.26.75.54.54,0,0,0,.18.41,2.27,2.27,0,0,0,1.43.57A3.25,3.25,0,0,0,33,20a1.83,1.83,0,0,1,.26-.16,1.08,1.08,0,0,1,.38-.05,5.14,5.14,0,0,0,1.77-.4,2,2,0,0,0,1-.72.9.9,0,0,1,.84-.42l.19,0a5.5,5.5,0,0,0,1-.21,3,3,0,0,0,.76-.36,1.7,1.7,0,0,0,.19-.19,2.13,2.13,0,0,1,.26-.26.59.59,0,0,1,.82,0l.09.06a2.44,2.44,0,0,0,1.5.32,3.52,3.52,0,0,0,1.1-.35l.46-.2A1,1,0,0,1,44,17Z"/><rect class="cls-5" x="46.37" y="37.01" width="4.21" height="17.28" rx="1.96" transform="translate(96.95 91.3) rotate(180)"/><path class="cls-2" d="M48.62,54.89h-.29a2.56,2.56,0,0,1-2.55-2.56V39a2.56,2.56,0,0,1,2.55-2.56h.29A2.56,2.56,0,0,1,51.18,39V52.33A2.56,2.56,0,0,1,48.62,54.89Zm-.29-17.28A1.36,1.36,0,0,0,47,39V52.33a1.36,1.36,0,0,0,1.36,1.36h.29A1.36,1.36,0,0,0,50,52.33V39a1.36,1.36,0,0,0-1.36-1.36Z"/><path class="cls-3" d="M51.69,30.42c-3-.36-5.29.75-6.21,2.76a7.7,7.7,0,0,0-.71,3.23v8.08h6.84Z"/><path class="cls-2" d="M51.34,37.56l0,6.68H45.09V36.41a7.55,7.55,0,0,1,.69-3.15,5,5,0,0,1,4.83-2.65,6.56,6.56,0,0,1,.76,0v.62a.28.28,0,0,0,.31.25h0a.29.29,0,0,0,.32-.25v-.84a.26.26,0,0,0-.26-.25c-3.05-.38-5.57.73-6.55,2.91a7.86,7.86,0,0,0-.73,3.32v8.08a.23.23,0,0,0,.09.18.35.35,0,0,0,.22.08h6.84a.29.29,0,0,0,.32-.25l0-6.93a.29.29,0,0,0-.32-.25h0A.28.28,0,0,0,51.34,37.56Z"/><path class="cls-2" d="M44.77,44.9a.54.54,0,0,1-.32-.11.38.38,0,0,1-.15-.3V36.41A8.22,8.22,0,0,1,45,33c1-2.23,3.6-3.39,6.72-3a.43.43,0,0,1,.4.41v.84a.46.46,0,0,1-.47.41.51.51,0,0,1-.36-.14.37.37,0,0,1-.12-.27v-.48c-2.48-.19-4.5.79-5.3,2.54a7.35,7.35,0,0,0-.68,3.08v7.68h5.91l0-6.53a.44.44,0,0,1,.47-.41.51.51,0,0,1,.36.14.4.4,0,0,1,.11.27l0,6.93a.44.44,0,0,1-.47.41Zm5.82-14.64c-2.46,0-4.43,1.06-5.26,2.89a7.74,7.74,0,0,0-.72,3.26v8.08s0,0,0,.06a.17.17,0,0,0,.12,0h6.84c.09,0,.16-.05.16-.1l0-6.93a.08.08,0,0,0,0-.05c-.09-.08-.3,0-.3.05h0l0,6.84H44.93v-8a7.62,7.62,0,0,1,.71-3.21,5.17,5.17,0,0,1,5-2.75c.25,0,.51,0,.78,0h.14v.77a.09.09,0,0,0,0,.05c.08.08.29,0,.29-.05v-.84s-.05-.09-.13-.1A8.68,8.68,0,0,0,50.59,30.26Z"/><path class="cls-2" d="M36.51,20.85a.33.33,0,0,0-.32-.33H33.56a.33.33,0,1,0,0,.65h2.63a.33.33,0,0,0,.32-.32Z"/><path class="cls-2" d="M42.33,20.52H39.42a.32.32,0,0,0-.32.33h0a.32.32,0,0,0,.32.32h2.91a.33.33,0,0,0,0-.65Z"/><path class="cls-5" d="M46.87,19.77s2.31.06,2.32,1.79-2.31,1.7-2.31,1.7Z"/><path class="cls-2" d="M47,19.43a.39.39,0,0,0-.23.12.28.28,0,0,0,0,.28A.3.3,0,0,0,47,20a4,4,0,0,1,.75.15,1.48,1.48,0,0,1,.89,1.34,1.36,1.36,0,0,1-.39,1,1.29,1.29,0,0,1-.55.3c-.18.05-.5,0-.64.12a.42.42,0,0,0-.11.38.17.17,0,0,0,0,.07c.11.23.67.05.83,0a2.41,2.41,0,0,0,.89-.48,1.84,1.84,0,0,0,.56-1.4,1.91,1.91,0,0,0-.88-1.66A2.49,2.49,0,0,0,47,19.43Z"/><path class="cls-8" d="M47.12,20.48s1.19-.12,1.2,1-1.2,1-1.2,1Z"/><path class="cls-5" d="M40.78,29.5a.18.18,0,0,0,.2-.16V28c0-1.22-1.34-2.21-3-2.21h0c-1.66,0-3,1-3,2.21v1.32a.18.18,0,0,0,.2.16Z"/><path class="cls-7" d="M40.76,30.68a2.85,2.85,0,0,1-.74.37,7.59,7.59,0,0,1-2.88.29,4.36,4.36,0,0,1-1.44-.25,1.86,1.86,0,0,1-1-.85,2.88,2.88,0,0,1-.18-1.3,5,5,0,0,1,.11-1.45,2.71,2.71,0,0,1,1.49-1.7,4.44,4.44,0,0,1,3.8,0A2.75,2.75,0,0,1,41.13,27a3.67,3.67,0,0,1,.34,1.57,2.85,2.85,0,0,1-.31,1.71A2,2,0,0,1,40.76,30.68ZM36,29.07h4a.57.57,0,0,0,.56-.57V28c0-1-1.18-1.77-2.58-1.77S35.4,27,35.4,28v.48A.57.57,0,0,0,36,29.07Z"/><path class="cls-2" d="M37.87,31.55c-.26,0-.51,0-.74,0a4.55,4.55,0,0,1-1.5-.26,2.05,2.05,0,0,1-1.11-.94,2.49,2.49,0,0,1-.19-1.16v-.23a4.92,4.92,0,0,1,.11-1.5A2.94,2.94,0,0,1,36,25.61a4.64,4.64,0,0,1,4,.05,3,3,0,0,1,1.29,1.23,4,4,0,0,1,.37,1.65,3,3,0,0,1-.35,1.83,1.64,1.64,0,0,1-.45.46,3.09,3.09,0,0,1-.79.41A6.86,6.86,0,0,1,37.87,31.55Zm.1-6a4.15,4.15,0,0,0-1.76.38,2.51,2.51,0,0,0-1.39,1.58,4.79,4.79,0,0,0-.11,1.39,1.85,1.85,0,0,1,0,.23,2.22,2.22,0,0,0,.15,1,1.74,1.74,0,0,0,.9.75,4.31,4.31,0,0,0,1.38.24A7.75,7.75,0,0,0,40,30.87a2.56,2.56,0,0,0,.68-.35h0a1.54,1.54,0,0,0,.36-.36,2.65,2.65,0,0,0,.28-1.6A3.63,3.63,0,0,0,41,27.07,2.51,2.51,0,0,0,39.84,26,4.14,4.14,0,0,0,38,25.58Zm2,3.68H36a.76.76,0,0,1-.76-.76V28c0-1.09,1.25-2,2.77-2s2.77.9,2.77,2v.48A.76.76,0,0,1,40,29.26Zm-2-2.82c-1.31,0-2.38.71-2.38,1.58v.48a.37.37,0,0,0,.37.37h4a.37.37,0,0,0,.37-.37V28C40.36,27.16,39.27,26.44,38,26.44Z"/><path class="cls-5" d="M38.09,22.39v.9a1.31,1.31,0,0,0-.33.12.84.84,0,0,0-.42.62.67.67,0,0,0,.33.64.71.71,0,0,0,.77-.06Z"/><path class="cls-2" d="M38,25a1,1,0,0,1-.45-.11.92.92,0,0,1-.45-.86,1,1,0,0,1,.53-.77,1.15,1.15,0,0,1,.23-.1v-.74a.21.21,0,0,1,.21-.21h0a.22.22,0,0,1,.22.21v.9a.21.21,0,0,1-.18.21.82.82,0,0,0-.26.1.63.63,0,0,0-.32.45.45.45,0,0,0,.23.43.49.49,0,0,0,.52,0,.21.21,0,0,1,.3,0,.22.22,0,0,1,0,.31A1,1,0,0,1,38,25Z"/><path class="cls-9" d="M21.6,43.36l-.39-.27a2,2,0,0,1-.44-2.57l4.35-8a1.52,1.52,0,0,1,2.22-.69l.39.27a2,2,0,0,1,.44,2.57l-4.35,8A1.52,1.52,0,0,1,21.6,43.36Z"/><path class="cls-2" d="M22,44.08a1.59,1.59,0,0,1-.67-.29L21,43.52a2.54,2.54,0,0,1-.56-3.24l4.35-8a2.27,2.27,0,0,1,1.28-1.11,1.71,1.71,0,0,1,1.52.24l.39.28a2.16,2.16,0,0,1,.86,1.44,2.82,2.82,0,0,1-.3,1.8l-4.35,8A2.06,2.06,0,0,1,22,44.08Zm-.2-1.14a1.12,1.12,0,0,0,1.63-.51l4.35-8a1.6,1.6,0,0,0,.17-1,1.28,1.28,0,0,0-.5-.84l-.38-.27a1.12,1.12,0,0,0-1.64.5l-4.35,8a1.49,1.49,0,0,0,.33,1.89Z"/><path class="cls-5" d="M30,30.52c1.66,1,2.3,3.44,3.13,5.2s1.59,3.32,2.38,5a1.4,1.4,0,0,1-.65,1.87l-.2.09A1.4,1.4,0,0,1,32.8,42L31,38.28c-.52-1.08-1.68-4.9-3-4.86a5,5,0,0,1-2.1-.37c-.16-.07-.35-.21-.29-.37a1.05,1.05,0,0,1-.87-.06.74.74,0,0,1-.17-.86,1.74,1.74,0,0,1,.64-.68,5,5,0,0,1,3.05-1A3.34,3.34,0,0,1,30,30.52Z"/><path class="cls-2" d="M34.06,43.22a1.86,1.86,0,0,1-.61-.1,1.83,1.83,0,0,1-1-.94l-1.78-3.72c-.11-.23-.25-.57-.41-1-.43-1.09-1.43-3.63-2.18-3.63h0a5.72,5.72,0,0,1-2.28-.41,1,1,0,0,1-.41-.28,1.2,1.2,0,0,1-.84-.19,1.15,1.15,0,0,1-.31-1.38,2.18,2.18,0,0,1,.78-.86,5.52,5.52,0,0,1,3.31-1.13,3.82,3.82,0,0,1,1.93.56h0c1.4.87,2.12,2.59,2.75,4.11.18.44.36.87.55,1.26l2.38,5A1.82,1.82,0,0,1,35,43l-.2.09A1.75,1.75,0,0,1,34.06,43.22ZM28.05,33c1.23,0,2.11,2,3,4.17.15.38.28.71.38.93l1.78,3.72a.92.92,0,0,0,.55.49,1,1,0,0,0,.74,0l.19-.09a1,1,0,0,0,.46-1.29l-2.38-5c-.19-.41-.38-.85-.57-1.3-.61-1.47-1.24-3-2.41-3.72h0a3,3,0,0,0-1.5-.43,4.73,4.73,0,0,0-2.79,1,1.43,1.43,0,0,0-.5.51c-.05.13,0,.3,0,.35s.4,0,.54,0a.4.4,0,0,1,.41.14.43.43,0,0,1,.1.24h0A4.75,4.75,0,0,0,28,33Z"/><path class="cls-2" d="M37.71,28.62a.75.75,0,0,1-.55-.22.64.64,0,0,1,.07-.85,1.14,1.14,0,0,1,.11-.11.88.88,0,0,1-.09-.37.57.57,0,0,1,.17-.41.54.54,0,0,1,.49-.14.79.79,0,0,1,.51.51.21.21,0,0,1-.13.25.2.2,0,0,1-.24-.13.39.39,0,0,0-.23-.25.13.13,0,0,0-.13,0,.18.18,0,0,0,0,.13.61.61,0,0,0,.17.37.19.19,0,0,1,0,.27.2.2,0,0,1-.24,0s0,0,0,0-.18.25-.09.35a.48.48,0,0,0,.57,0,.2.2,0,0,1,.27.08.2.2,0,0,1-.08.26A1,1,0,0,1,37.71,28.62Z"/><path class="cls-3" d="M49.46,16.71s0-.12.06-.27a7.07,7.07,0,0,0,0-.92,8.57,8.57,0,0,0-.16-1.89,4.33,4.33,0,0,0-4.45-3.39c-2.33,0-4.66,0-7,0s-4.67-.06-6.14,2.1a8,8,0,0,0-1.54,4.38c1.42,0,2.85,0,4.28,0H49.17C49.35,16.76,49.43,16.76,49.46,16.71Z"/><path class="cls-2" d="M31.71,17.07c-.48,0-1,0-1.45,0a.28.28,0,0,1-.27-.28,8.38,8.38,0,0,1,1.59-4.55C33,10.08,35.3,10,37.49,10H38c1.65,0,3.34,0,5,0H45a4.59,4.59,0,0,1,4.7,3.61,8.72,8.72,0,0,1,.17,2v.2a6.52,6.52,0,0,1,0,.76v.05a.59.59,0,0,1-.11.36h0c-.13.15-.3.15-.52.15H31.71Zm17.75-.36h0Zm-18.9-.23c.86,0,1.73,0,2.57,0h16.1V16.4a5,5,0,0,0,0-.68v-.2a7.59,7.59,0,0,0-.16-1.83,4,4,0,0,0-4.16-3.16h-2c-1.62,0-3.3,0-4.95,0H37.5c-2.13,0-4.15.07-5.43,2A8.34,8.34,0,0,0,30.56,16.48Z"/><rect class="cls-10" x="25.37" y="16.69" width="24.2" height="2.03"/><path class="cls-2" d="M49.57,19.13H25.37a.4.4,0,0,1-.4-.41v-2a.4.4,0,0,1,.4-.4h24.2a.39.39,0,0,1,.4.4v2A.4.4,0,0,1,49.57,19.13Zm-23.8-.81h23.4V17.09H25.77Z"/><path class="cls-7" d="M33,13.8h3.87a.82.82,0,0,1,.82.82v1a0,0,0,0,1,0,0H32.16a0,0,0,0,1,0,0v-1A.82.82,0,0,1,33,13.8Z"/><path class="cls-2" d="M37.67,15.88H32.16a.25.25,0,0,1-.26-.26v-1A1.08,1.08,0,0,1,33,13.54h3.87a1.08,1.08,0,0,1,1.08,1.08v1A.25.25,0,0,1,37.67,15.88Zm-5.25-.52h5v-.74a.56.56,0,0,0-.56-.55H33a.56.56,0,0,0-.56.55Z"/><path class="cls-11" d="M18.69,33l-2.42,3.33a1.85,1.85,0,0,0,1.59,2.9H53.91a1.9,1.9,0,0,0,1.94-1.85V34.06a1.9,1.9,0,0,0-1.94-1.85H20.28A2,2,0,0,0,18.69,33Z"/><path class="cls-12" d="M32.1,2.12,6.62,39.48A3.81,3.81,0,0,0,6,41.65V87.51A3.85,3.85,0,0,0,9.8,91.36H157.5a3.85,3.85,0,0,0,3.86-3.85V4.29A3.85,3.85,0,0,0,157.5.44H35.28A3.86,3.86,0,0,0,32.1,2.12ZM51.28,40.46H22.7a3.86,3.86,0,0,1-3.17-6.05L36.27,10.23a3.85,3.85,0,0,1,3.17-1.66H51.28a3.85,3.85,0,0,1,3.85,3.85V36.6A3.85,3.85,0,0,1,51.28,40.46Z"/><rect class="cls-13" x="5.95" y="52.05" width="155.4" height="39.67"/><rect class="cls-14" x="5.95" y="50.22" width="155.4" height="3.72"/><path class="cls-15" d="M19.3,62.67H6a1.61,1.61,0,0,1,0-3.22H19.3a1.61,1.61,0,1,1,0,3.22Z"/><path class="cls-16" d="M12.63,72.49H6a1.61,1.61,0,0,1,0-3.22h6.68a1.61,1.61,0,0,1,0,3.22Z"/><path class="cls-15" d="M161.36,62.67H148a1.61,1.61,0,0,1,0-3.22h13.36a1.61,1.61,0,0,1,0,3.22Z"/><path class="cls-16" d="M161.36,72.49h-6.68a1.61,1.61,0,1,1,0-3.22h6.68a1.61,1.61,0,0,1,0,3.22Z"/><rect class="cls-17" x="0.44" y="91.36" width="20.77" height="5.47" rx="1.65"/><path class="cls-18" d="M2.05,95.22H19.6V93H2.05Z"/><path class="cls-19" d="M46.86,53.66H34.63A1.62,1.62,0,0,1,33,52.05V48.21a1.62,1.62,0,0,1,3.23,0v2.22H46.86a1.62,1.62,0,0,1,0,3.23Z"/><path class="cls-19" d="M79.6,53.66H67.37a1.62,1.62,0,1,1,0-3.23H79.6a1.62,1.62,0,1,1,0,3.23Z"/><rect class="cls-17" x="146.1" y="91.36" width="20.77" height="5.47" rx="1.65"/><circle class="cls-17" cx="35.24" cy="93.33" r="14.84"/><path class="cls-18" d="M35.24,80.11A13.23,13.23,0,1,0,48.47,93.33,13.24,13.24,0,0,0,35.24,80.11Z"/><circle class="cls-15" cx="35.24" cy="93.33" r="6.72"/><path class="cls-19" d="M35.24,101.67a8.34,8.34,0,1,1,8.33-8.34A8.34,8.34,0,0,1,35.24,101.67Zm0-13.44a5.11,5.11,0,1,0,5.11,5.1A5.11,5.11,0,0,0,35.24,88.23Z"/><circle class="cls-17" cx="131.9" cy="93.33" r="14.84"/><path class="cls-18" d="M131.9,80.11a13.23,13.23,0,1,0,13.23,13.22A13.23,13.23,0,0,0,131.9,80.11Z"/><path class="cls-15" d="M138.62,93.33a6.72,6.72,0,1,1-6.72-6.72A6.72,6.72,0,0,1,138.62,93.33Z"/><path class="cls-19" d="M131.9,101.67a8.34,8.34,0,1,1,8.34-8.34A8.35,8.35,0,0,1,131.9,101.67Zm0-13.44a5.11,5.11,0,1,0,5.11,5.1A5.11,5.11,0,0,0,131.9,88.23Z"/><path class="cls-3" d="M73.12,15.53H69a1.94,1.94,0,0,0-2,1.87V33.77a2,2,0,0,0,4,0V28h2.11C77,28,80.2,25.24,80.2,21.8S77,15.53,73.12,15.53Zm0,8.78H71v-5h2.11a2.84,2.84,0,0,1,3.07,2.54C76.19,23.21,74.85,24.31,73.12,24.31Z"/><path class="cls-3" d="M93.1,16.16h0a7,7,0,0,0-3.45-.92,7.15,7.15,0,0,0-3.49.92c-3.45,2-4.68,6.29-4.68,9.36s1.23,7.34,4.7,9.38a7.11,7.11,0,0,0,3.47.91,6.86,6.86,0,0,0,3.46-.93c3.48-2,4.71-6.31,4.71-9.36S96.58,18.17,93.1,16.16ZM90.91,31.73a2.22,2.22,0,0,1-1.27.35,2.34,2.34,0,0,1-1.35-.38c-2-1.12-2.84-3.91-2.84-6.18s1-4.95,2.85-6.18A3.47,3.47,0,0,1,89.64,19a3.31,3.31,0,0,1,1.31.38c1.87,1.23,2.85,4,2.85,6.18S92.92,30.6,91,31.7Z"/><path class="cls-3" d="M107.4,23.28h0c-2.24-.63-3.53-1.21-3.53-2.31a1.69,1.69,0,0,1,.52-1.17,3,3,0,0,1,2.18-.78h.12a2.6,2.6,0,0,1,2.61,1.63,1.24,1.24,0,0,1,0,.22l0,.12a2.2,2.2,0,0,0,.1.78l.05.12a1.83,1.83,0,0,0,1.89,1.3,1.94,1.94,0,0,0,2-1.86c0-3.5-2.88-6-6.84-6-3.68,0-6.67,2.54-6.67,5.67,0,4.05,4.1,5.24,6.32,5.88,1.21.33,4,1.28,4,3s-1.57,2.27-3,2.27a3.81,3.81,0,0,1-1.93-.45l-.06,0a2.15,2.15,0,0,1-1.26-1.6l0-.15a.39.39,0,0,1,0-.13c0-.07,0-.17,0-.28a.78.78,0,0,1,0-.14V29.3a1.84,1.84,0,0,0-2-1.74,2,2,0,0,0-2,1.86c0,3.8,3,6.45,7.35,6.45,4.12,0,7-2.47,7-6C114.26,26.83,112,24.61,107.4,23.28Z"/><path class="cls-3" d="M126.9,15.74H117a1.86,1.86,0,1,0,0,3.72H120V33.65a2,2,0,0,0,4,0V19.46h2.94a1.86,1.86,0,1,0,0-3.72Z"/><path class="cls-3" d="M140.1,27.08H127.38A1.38,1.38,0,0,1,126,25.7h0a1.37,1.37,0,0,1,1.38-1.37H140.1a1.37,1.37,0,0,1,1.37,1.37h0A1.38,1.38,0,0,1,140.1,27.08Z"/><rect class="cls-3" x="130.48" y="16.75" width="8.65" height="2.85" rx="1.37"/><rect class="cls-3" x="129.87" y="31.3" width="22.28" height="3.36" rx="1.37"/><rect class="cls-20" x="54.49" y="5.96" width="1.62" height="85.76" rx="0.81"/></svg>