<svg id="レイヤー_1" data-name="レイヤー 1" xmlns="http://www.w3.org/2000/svg" viewBox="0 0 687.4 240.3"><defs><style>.cls-1{fill:#3c0000;}.cls-2{fill:#fffdfe;stroke:#3c0000;stroke-miterlimit:10;stroke-width:1.5px;}.cls-3{fill:#d26088;}.cls-4,.cls-6{isolation:isolate;}.cls-5{fill:#fff;}.cls-6{font-size:30px;fill:#2d2d2d;font-family:RoundedMplus1c-Regular, "Rounded Mplus 1c";}</style></defs><polygon class="cls-1" points="343.65 240.3 360.44 211.22 326.86 211.22 343.65 240.3"/><path class="cls-2" d="M25.9.8H661.5a25.2,25.2,0,0,1,25.2,25.1V185.4a25.14,25.14,0,0,1-25.2,25.1H25.9A25.12,25.12,0,0,1,.8,185.4V25.9A25.05,25.05,0,0,1,25.9.8Z" transform="translate(-0.05 -0.05)"/><path class="cls-3" d="M35,9.5H651.6a25.22,25.22,0,0,1,25.2,25.2v71.4a25.22,25.22,0,0,1-25.2,25.2H35A25.14,25.14,0,0,1,9.9,106.1V34.7A25.14,25.14,0,0,1,35,9.5Z" transform="translate(-0.05 -0.05)"/><g class="cls-4"><path class="cls-5" d="M194.2,80.4a2.9,2.9,0,0,1,2.3,1,3,3,0,0,1,1,2.3v2.4a2.9,2.9,0,0,1-1,2.3,3,3,0,0,1-2.3,1H179.8a.47.47,0,0,0-.5.5V95a2.9,2.9,0,0,1-1,2.3,3,3,0,0,1-2.3,1h-4.4a2.9,2.9,0,0,1-2.3-1,3,3,0,0,1-1-2.3V89.9a.47.47,0,0,0-.5-.5H146.5a2.9,2.9,0,0,1-2.3-1,3,3,0,0,1-1-2.3V83.7a2.9,2.9,0,0,1,1-2.3,3,3,0,0,1,2.3-1h4.6a.47.47,0,0,0,.5-.5V71.4a.47.47,0,0,0-.5-.5,8.57,8.57,0,0,1-1.3-.3L146,68.7a3.33,3.33,0,0,1-1.6-1.9,2.87,2.87,0,0,1,.2-2.4,113.47,113.47,0,0,0,7.7-17.2,3.92,3.92,0,0,1,1.7-2.1,3.39,3.39,0,0,1,2.6-.4l3.9.8a3.23,3.23,0,0,1,2,1.4,2.84,2.84,0,0,1,.2,2.4v.1l-.1.1c-.1.3,0,.5.3.5h28.7a2.9,2.9,0,0,1,2.3,1,3,3,0,0,1,1,2.3v2.1a2.9,2.9,0,0,1-1,2.3,3,3,0,0,1-2.3,1H179.5a.47.47,0,0,0-.5.5v5a.47.47,0,0,0,.5.5h10.3a2.9,2.9,0,0,1,2.3,1,3,3,0,0,1,1,2.3v2.1a2.9,2.9,0,0,1-1,2.3,3,3,0,0,1-2.3,1H179.5a.47.47,0,0,0-.5.5v6.2a.47.47,0,0,0,.5.5h14.7v-.2ZM168.3,64V59a.47.47,0,0,0-.5-.5h-7.9a.75.75,0,0,0-.7.5c-.8,1.8-1.5,3.5-2.3,5.1-.2.3-.1.5.2.5h10.7C168.1,64.5,168.3,64.4,168.3,64Zm0,15.9V73.7a.47.47,0,0,0-.5-.5h-5.3a.47.47,0,0,0-.5.5v6.2a.47.47,0,0,0,.5.5h5.3C168.1,80.4,168.3,80.3,168.3,79.9Z" transform="translate(-0.05 -0.05)"/><path class="cls-5" d="M226.7,67a2.9,2.9,0,0,1-1,2.3,3,3,0,0,1-2.3,1h-11a.47.47,0,0,0-.5.5V95a2.9,2.9,0,0,1-1,2.3,3,3,0,0,1-2.3,1h-3.5a2.9,2.9,0,0,1-2.3-1,3,3,0,0,1-1-2.3V49a2.9,2.9,0,0,1,1-2.3,3,3,0,0,1,2.3-1h18.3a2.9,2.9,0,0,1,2.3,1,3,3,0,0,1,1,2.3Zm-7.5-11.9V53.5a.47.47,0,0,0-.5-.5h-6.2a.47.47,0,0,0-.5.5v1.6a.47.47,0,0,0,.5.5h6.2A.47.47,0,0,0,219.2,55.1Zm0,8.3V61.8a.47.47,0,0,0-.5-.5h-6.2a.47.47,0,0,0-.5.5v1.6a.47.47,0,0,0,.5.5h6.2C219,64,219.2,63.8,219.2,63.4Zm31.9-17.6a2.9,2.9,0,0,1,2.3,1,3,3,0,0,1,1,2.3V86.8c0,2,0,3.5-.1,4.6a14.35,14.35,0,0,1-.5,3.1,6.83,6.83,0,0,1-1,2.1,4.75,4.75,0,0,1-1.9,1.1,9.29,9.29,0,0,1-2.9.5c-1,.1-2.4.1-4.2.1s-3.3,0-4.8-.1a3.66,3.66,0,0,1-2.3-1,3.25,3.25,0,0,1-1.2-2.2c-.1-.3-.3-.5-.5-.5H223.8a.27.27,0,0,0-.3.3,2.05,2.05,0,0,1-2,2h-3.1a2.9,2.9,0,0,1-2.3-1,3,3,0,0,1-1-2.3V75.9a2.9,2.9,0,0,1,1-2.3,3,3,0,0,1,2.3-1h19.4a2.9,2.9,0,0,1,2.3,1,3,3,0,0,1,1,2.3V89.1a.47.47,0,0,0,.5.5h.4a3.77,3.77,0,0,0,2-.3,3.12,3.12,0,0,0,.3-1.8V70.8a.47.47,0,0,0-.5-.5H232.3a2.9,2.9,0,0,1-2.3-1,3,3,0,0,1-1-2.3V49a2.9,2.9,0,0,1,1-2.3,3,3,0,0,1,2.3-1l18.8.1ZM232.7,80.5V79.2a.47.47,0,0,0-.5-.5H224a.47.47,0,0,0-.5.5v1.3a.47.47,0,0,0,.5.5h8.3C232.6,81,232.7,80.8,232.7,80.5Zm0,7.8V87a.47.47,0,0,0-.5-.5H224a.47.47,0,0,0-.5.5v1.3a.47.47,0,0,0,.5.5h8.3C232.6,88.8,232.7,88.6,232.7,88.3Zm11.6-33.2V53.5a.47.47,0,0,0-.5-.5H237a.47.47,0,0,0-.5.5v1.6a.47.47,0,0,0,.5.5h6.8A.47.47,0,0,0,244.3,55.1Zm0,8.3V61.8a.47.47,0,0,0-.5-.5H237a.47.47,0,0,0-.5.5v1.6a.47.47,0,0,0,.5.5h6.8C244.1,64,244.3,63.8,244.3,63.4Z" transform="translate(-0.05 -0.05)"/><path class="cls-5" d="M304.6,54.4a2.9,2.9,0,0,1,2.3,1,3,3,0,0,1,1,2.3v5.4c0,5.8-.1,10.5-.4,14.3a77.56,77.56,0,0,1-1.1,9.2,11.42,11.42,0,0,1-2.2,5.3,6.24,6.24,0,0,1-3.2,2.3,13.57,13.57,0,0,1-4.5.6c-2,0-5.1-.2-9.5-.6a3.25,3.25,0,0,1-2.2-1.2,3.49,3.49,0,0,1-.8-2.4l.3-3.4a3.25,3.25,0,0,1,1.2-2.2,3.49,3.49,0,0,1,2.4-.8q3.3.3,5.1.3a1.9,1.9,0,0,0,1.8-1c.4-.6.7-2.1,1-4.5s.4-5.9.4-10.7V64.5a.47.47,0,0,0-.5-.5h-9.5a.63.63,0,0,0-.6.5c-.9,6.9-2.4,12.6-4.7,17.1a38.84,38.84,0,0,1-9.5,12.1,3.49,3.49,0,0,1-2.4.8,3.36,3.36,0,0,1-2.3-1.1l-2.5-2.7a2.86,2.86,0,0,1-.8-2.3,3.58,3.58,0,0,1,1.1-2.2,28.94,28.94,0,0,0,6.9-8.9,42.06,42.06,0,0,0,3.5-12.7c.1-.3-.1-.5-.4-.5h-8.6a2.9,2.9,0,0,1-2.3-1,3,3,0,0,1-1-2.3V57.6a2.9,2.9,0,0,1,1-2.3,3,3,0,0,1,2.3-1h9.4a.47.47,0,0,0,.5-.5c.1-1.8.1-3.3.1-4.4a3,3,0,0,1,1-2.3,3.45,3.45,0,0,1,2.3-1h4.1a2.9,2.9,0,0,1,2.3,1,3.49,3.49,0,0,1,1,2.4c0,1,0,2.4-.1,4.2a.47.47,0,0,0,.5.5h17.6v.2Z" transform="translate(-0.05 -0.05)"/><path class="cls-5" d="M366.1,65.4a2.92,2.92,0,0,1,1.8,1.8,3.1,3.1,0,0,1,0,2.5c-3.8,9.2-8.9,15.8-15.1,19.7s-15,5.9-26,6.1a2.9,2.9,0,0,1-2.3-1,3,3,0,0,1-1-2.3V51.4a2.9,2.9,0,0,1,1-2.3,3,3,0,0,1,2.3-1h5.3a2.9,2.9,0,0,1,2.3,1,3,3,0,0,1,1,2.3V84c0,.3.2.5.5.4,5.6-.8,10.1-2.7,13.5-5.6s6.2-7.3,8.6-13.2a3.32,3.32,0,0,1,1.7-1.8,3.57,3.57,0,0,1,2.5-.1Z" transform="translate(-0.05 -0.05)"/><path class="cls-5" d="M382.3,59.2a3.14,3.14,0,0,1-1.6-1.8,2.9,2.9,0,0,1,.2-2.4l2.1-4a3.39,3.39,0,0,1,2-1.7,3.34,3.34,0,0,1,2.6.1c4.2,1.9,8.3,3.9,12.3,5.9a3.14,3.14,0,0,1,1.6,1.8,3.32,3.32,0,0,1-.3,2.4l-2.3,4.2a3.24,3.24,0,0,1-2,1.6,3.1,3.1,0,0,1-2.5-.2C389.9,62.9,385.9,60.9,382.3,59.2Zm41.9-3.7a3.45,3.45,0,0,1,2.1,1.4,3.2,3.2,0,0,1,.5,2.5c-2.3,10.3-6.8,18.3-13.5,23.9s-15.9,9.2-27.7,10.6a3.33,3.33,0,0,1-2.5-.7,3.84,3.84,0,0,1-1.3-2.2l-.7-4.2a2.77,2.77,0,0,1,.6-2.4,3.17,3.17,0,0,1,2.1-1.3q14.1-1.95,21.6-8.1c5-4.1,8.7-10.1,10.8-18.1a2.82,2.82,0,0,1,1.5-2,3,3,0,0,1,2.4-.4Z" transform="translate(-0.05 -0.05)"/><path class="cls-5" d="M477.8,53.4a2.91,2.91,0,0,1,1.2,2.5c-.1,13.1-3,22.9-8.7,29.2S455.5,95.4,443,96.9a3.22,3.22,0,0,1-2.5-.7,4,4,0,0,1-1.4-2.2l-.6-3.4a2.63,2.63,0,0,1,.6-2.4,3,3,0,0,1,2.1-1.2c8-1.1,13.9-3.1,17.6-6.1a.37.37,0,0,0,.1-.3c0-.1,0-.2-.1-.2-3.1-1.6-5.9-2.9-8.3-4a2.84,2.84,0,0,1-1.6-1.8,2.87,2.87,0,0,1,.2-2.4l2.1-3.8a3,3,0,0,1,2-1.6,3.85,3.85,0,0,1,2.6.1c2.6,1.2,5.6,2.7,9.2,4.5.3.2.5.1.6-.2a39.09,39.09,0,0,0,1.6-8,.47.47,0,0,0-.5-.5H451.3a.67.67,0,0,0-.7.4,50.32,50.32,0,0,1-8.5,12.5,3.36,3.36,0,0,1-2.3,1.1,3.15,3.15,0,0,1-2.4-.9l-2.7-2.3a2.7,2.7,0,0,1-1-2.2,3.49,3.49,0,0,1,.8-2.4,45.57,45.57,0,0,0,9.4-18.6,4.25,4.25,0,0,1,1.4-2.3,3.75,3.75,0,0,1,2.5-.8l3.8.2a3.36,3.36,0,0,1,2.3,1.1,2.44,2.44,0,0,1,.6,2.3,6.36,6.36,0,0,1-.3,1.5.37.37,0,0,0,.1.3c.1.1.2.2.3.2h17.3c.1,0,.2-.1.3-.2s0-.2,0-.3c-.2-.3-.4-.8-.7-1.3a13.09,13.09,0,0,0-.7-1.3,2.65,2.65,0,0,1-.2-2.3,3,3,0,0,1,1.5-1.8,3,3,0,0,1,4.1,1.4c.2.3.5.9.8,1.5s.6,1.2.8,1.5a2.63,2.63,0,0,1-.1,2.7C477.5,53,477.5,53.3,477.8,53.4Zm7.1-7.3a14.37,14.37,0,0,1,.8,1.7c.4.7.6,1.3.8,1.6a3.08,3.08,0,0,1,.2,2.3,3,3,0,0,1-1.6,1.7A3,3,0,0,1,481,52c-.3-.7-.9-1.7-1.7-3.1a2.7,2.7,0,0,1-.2-2.3,3.08,3.08,0,0,1,3.9-2A2.65,2.65,0,0,1,484.9,46.1Z" transform="translate(-0.05 -0.05)"/><path class="cls-5" d="M538.1,66.3a2.9,2.9,0,0,1,2.3,1,3,3,0,0,1,1,2.3V74a2.9,2.9,0,0,1-1,2.3,3,3,0,0,1-2.3,1h-42a2.9,2.9,0,0,1-2.3-1,3,3,0,0,1-1-2.3V69.6a2.9,2.9,0,0,1,1-2.3,3,3,0,0,1,2.3-1Z" transform="translate(-0.05 -0.05)"/></g><text class="cls-6" transform="translate(238.29 182.92)">詳しくはこちら</text></svg>