<svg id="Layer_1" data-name="Layer 1" xmlns="http://www.w3.org/2000/svg" viewBox="0 0 58.36 89.47"><defs><style>.cls-1{fill:#ffd5d5;}.cls-2{fill:#3d1c1f;}.cls-3{fill:#ffce8d;}.cls-4{fill:#c7ddbc;}.cls-5{fill:#dbeac5;}.cls-6{fill:#91c04f;}.cls-7{fill:#fd6161;}.cls-8{fill:#fdfdfd;}.cls-9{fill:#440e0a;}.cls-10{fill:#fde8c6;}.cls-11{fill:#fd974f;}</style></defs><path class="cls-1" d="M26.9,41.82c2,0,4,0,5.94,0a4.14,4.14,0,0,1-3.3,1.09A4.76,4.76,0,0,1,26.9,41.82Z"/><path class="cls-2" d="M18.79,68.3l-.15,0h.15Z"/><path class="cls-2" d="M58.35,42.78A18.12,18.12,0,0,0,55.44,33a1,1,0,0,1-.25-.53c0-.61,0-1.21-.12-1.81a18,18,0,0,0-3.51-8.87,18.65,18.65,0,0,0-1.28-1.54c-.49-.54-1-1.05-1.54-1.54a22.74,22.74,0,0,0-11.11-5.41,6.59,6.59,0,0,0-3.3-5.46A10.67,10.67,0,0,0,28.7,6.67a5.86,5.86,0,0,1,.65-1.55c.09-.13.27-.07.4-.11a2.51,2.51,0,0,0-.45-5,3.64,3.64,0,0,0-2.76,1.73,10.36,10.36,0,0,0-1.42,5.57,6.84,6.84,0,0,0-4,4.06,13.37,13.37,0,0,0-.45,2,31.51,31.51,0,0,0-3.17.85A21.26,21.26,0,0,0,5.14,24.58,17.9,17.9,0,0,0,3.2,32.32c0,.41-.35.71-.54,1.06A17.61,17.61,0,0,0,.38,39,23.8,23.8,0,0,0,0,44.21,4.47,4.47,0,0,0,.65,46c0,1.94,0,3.89,0,5.83,0,.46,0,.92,0,1.38l-.05,0c.09.35.2.71.27,1.07h0A11.64,11.64,0,0,0,3.1,58.42a15.73,15.73,0,0,0,4.82,3.47A41.7,41.7,0,0,0,21.8,65.15a81.58,81.58,0,0,0,15.47-.07,46.71,46.71,0,0,0,11.57-2.51,17.93,17.93,0,0,0,5.1-2.86,10.9,10.9,0,0,0,3.49-5.22v-.05c0-.15.09-.31.13-.47v0c0-.07,0-.14,0-.21a.28.28,0,0,1,0-.09v0a3,3,0,0,1,.08-.43h0c0-2.35,0-4.7,0-7,.12-.33.33-.6.45-.93A7.07,7.07,0,0,0,58.35,42.78ZM27.87,2.26a2,2,0,0,1,2-.88,1.24,1.24,0,0,1,.6,1.75.67.67,0,0,1-.62.43c-.18-.28-.63-.59-.9-.22a6.79,6.79,0,0,0-1.65,3.44l-.78,0A8.06,8.06,0,0,1,27.87,2.26Zm-5.3,9.41A5.25,5.25,0,0,1,25.2,8.82a8.94,8.94,0,0,1,1.91-.64l.08,0c0,.4-.14,1,.34,1.19S28.85,9.61,29,9c-.25-.28-.57-.54-.52-.95a10.84,10.84,0,0,1,3.22.3c.14.05.29.08.43.14a5.24,5.24,0,0,1,3.74,3.26,5,5,0,0,1-1.57,5.71A9.26,9.26,0,0,1,29,18.68a8.41,8.41,0,0,1-5-1.41,4.75,4.75,0,0,1-1.7-3.64A4.36,4.36,0,0,1,22.57,11.67ZM56.23,53.06a8.66,8.66,0,0,1-2.8,5.08,14.38,14.38,0,0,1-4.27,2.68A31.62,31.62,0,0,1,43,62.7a16.19,16.19,0,0,1-2.49.42,48.89,48.89,0,0,1-4.86.62,82.48,82.48,0,0,1-16-.31A44.79,44.79,0,0,1,11.3,61.6a19.51,19.51,0,0,1-4.79-2.22A9.58,9.58,0,0,1,2.76,55a6.45,6.45,0,0,1-.58-2.32c0-1.67,0-3.34,0-5a6.06,6.06,0,0,0,3.7,1.91,5.34,5.34,0,0,0,2.59-1,2.55,2.55,0,0,1,2.43,0,3.2,3.2,0,0,1,1.55,1.92,1.55,1.55,0,0,1,0,.88,5.57,5.57,0,0,0,.67,4.09,9.64,9.64,0,0,0,.83,1,5,5,0,0,0,2.43.89,4.28,4.28,0,0,0,3.43-1.22,4.65,4.65,0,0,0,1.26-3.31,2.53,2.53,0,0,1,.19-1.34,1.65,1.65,0,0,1,1.47-.75,4.34,4.34,0,0,1,2.53.72,2,2,0,0,1,.9,1.6,16.43,16.43,0,0,0-.11,2,4.26,4.26,0,0,0,1.07,2.64c.22.26.52.44.75.7a5.52,5.52,0,0,0,3.74.57,4.71,4.71,0,0,0,3.29-2.36,4.82,4.82,0,0,0,.38-3.19,1.54,1.54,0,0,1,.37-1.5,5.22,5.22,0,0,1,3.8-1.17,1.8,1.8,0,0,1,1.42.56,4,4,0,0,1,.69,1.85,4.29,4.29,0,0,0,2.92,3,5,5,0,0,0,5.07-1.73,4.66,4.66,0,0,0,.9-3.77,2.51,2.51,0,0,1,0-1.36,3.05,3.05,0,0,1,2.27-1.84c1.15-.23,2.35-.2,3.53-.44C56.23,49,56.26,51,56.23,53.06Zm-.46-7.34a13,13,0,0,1-2.05.24,5.82,5.82,0,0,0-3.2,1.1,4,4,0,0,0-1.41,2.35c-.14.76.2,1.51.13,2.29a3.25,3.25,0,0,1-.91,2.18,3.89,3.89,0,0,1-3.45,1,2.75,2.75,0,0,1-2-1.85c-.19-.49-.21-1-.36-1.5a4,4,0,0,0-1-1.39A3.18,3.18,0,0,0,40,49.49a7.6,7.6,0,0,0-4.35.84,4.6,4.6,0,0,0-1.06.9A2.94,2.94,0,0,0,34,52.72c-.08.78.32,1.54.14,2.31a3.17,3.17,0,0,1-2.06,2.48,4.22,4.22,0,0,1-2.36.17,2.71,2.71,0,0,1-2.22-2.12c-.25-1,.12-2.05,0-3.08a3.69,3.69,0,0,0-1.2-2,5.81,5.81,0,0,0-3.86-1A4.28,4.28,0,0,0,21,50a3.49,3.49,0,0,0-1,1.28,6.67,6.67,0,0,0-.2,1.94,3.18,3.18,0,0,1-.93,2.12,3.13,3.13,0,0,1-4.61-.42,4.23,4.23,0,0,1-.47-3.39,3.76,3.76,0,0,0-.85-2.9,4.25,4.25,0,0,0-2.64-1.52,4.25,4.25,0,0,0-2.9.68,2.35,2.35,0,0,1-1.73.51,6.47,6.47,0,0,1-3.9-3.38,1.93,1.93,0,0,1-.21-1c0-1.06,0-2.12.1-3.18a16.27,16.27,0,0,1,3.08-7.61c0-.7,0-1.41.11-2.13a17.39,17.39,0,0,1,5.88-11.08A17.67,17.67,0,0,1,14,17.44,14.25,14.25,0,0,1,16.6,16a20.21,20.21,0,0,1,4.29-1.43,7.69,7.69,0,0,0,.65,2l0,0a6.35,6.35,0,0,0,3.52,3,14.36,14.36,0,0,0,5.06.61,9,9,0,0,0,4.9-1.4,6.87,6.87,0,0,0,2-2.29,7.32,7.32,0,0,0,.59-1.84,24.84,24.84,0,0,1,6.2,2.46A19.75,19.75,0,0,1,52,25.35a15.87,15.87,0,0,1,1.69,7.19,2.23,2.23,0,0,0,0,.63,16.8,16.8,0,0,1,2.79,6.18,20.59,20.59,0,0,1,.38,5.08A1.34,1.34,0,0,1,55.77,45.72Z"/><path class="cls-2" d="M25.17,40.61a5.77,5.77,0,0,1,1-.07h8.08a.48.48,0,0,1,.45.67,4.53,4.53,0,0,1-2.57,2.58,6.15,6.15,0,0,1-4.06.12,4.85,4.85,0,0,1-2.8-2.28C25.14,41.3,25,40.93,25.17,40.61Zm1.73,1.21a4.82,4.82,0,0,0,2.64,1.1,4.16,4.16,0,0,0,3.3-1.09C30.86,41.79,28.87,41.83,26.9,41.82Z"/><path class="cls-3" d="M27.87,2.26a2,2,0,0,1,2-.87,1.25,1.25,0,0,1,.6,1.75.73.73,0,0,1-.63.43c-.18-.29-.63-.6-.9-.22A6.87,6.87,0,0,0,27.3,6.79l-.78,0A8,8,0,0,1,27.87,2.26Z"/><path class="cls-4" d="M28.5,8.07a10.94,10.94,0,0,1,3.23.29c.08.42.28.92,0,1.3a3.06,3.06,0,0,1-1.84.92,4.94,4.94,0,0,1-2.56-.12c0-.7-.7-1.05-1.24-1.31a8.63,8.63,0,0,0,.88,0c.06-.34.12-.67.17-1l.08,0c0,.4-.13,1,.34,1.18S28.85,9.61,29,9C28.77,8.74,28.46,8.48,28.5,8.07Z"/><path class="cls-5" d="M25.19,8.81a9.33,9.33,0,0,1,1.91-.64c-.05.34-.11.67-.18,1a8.53,8.53,0,0,1-.87,0,1.55,1.55,0,0,0-.9.12c-.21.74.55,1.19,1.16,1.35a1.26,1.26,0,0,0,1-.16,4.94,4.94,0,0,0,2.56.12,3.09,3.09,0,0,0,1.84-.92c.31-.38.11-.88,0-1.3a3.59,3.59,0,0,1,.43.14c.84.58,1.93,1.11,2.13,2.22a6.08,6.08,0,0,1-1.58,5.14,5.83,5.83,0,0,1-4.09,1.63,6.84,6.84,0,0,1-4.24-1.14,3.92,3.92,0,0,1-1.53-2.05,8.48,8.48,0,0,1-.27-2.65A5.24,5.24,0,0,1,25.19,8.81Zm-.94,3a.61.61,0,0,0,1,.12c.47-.37.77-1.25.17-1.64A1.42,1.42,0,0,0,24.25,11.77Z"/><path class="cls-5" d="M7.46,50.82a5.09,5.09,0,0,1,2.47-.75,3.49,3.49,0,0,1,2.54,1.35,5.51,5.51,0,0,0,.67,4.09,10.9,10.9,0,0,0,.83,1,3.82,3.82,0,0,0,3.4,2.76,4.5,4.5,0,0,0,3.83-1.6,6.68,6.68,0,0,0,1.24-2.8,6,6,0,0,1,.4-1.31.82.82,0,0,1,.7-.46,2.72,2.72,0,0,1,2.15,1,1.66,1.66,0,0,1,.38,1,4.32,4.32,0,0,0,1.07,2.64c.22.27.52.44.75.69a4.34,4.34,0,0,0,3,2.12,5.5,5.5,0,0,0,4.2-.94,5.12,5.12,0,0,0,2.26-4.3,7,7,0,0,1,.09-1.45A1.06,1.06,0,0,1,38.54,53a1.9,1.9,0,0,1,1.44.9,5.78,5.78,0,0,1,1,2.6,4.27,4.27,0,0,1-.75,3.33,5.25,5.25,0,0,1-3.42,1.79,44.1,44.1,0,0,1-7.52.69,66.63,66.63,0,0,1-13.45-1,26,26,0,0,1-6.72-2.14,9,9,0,0,1-3.23-2.65,6.08,6.08,0,0,1-.89-5A7.28,7.28,0,0,0,7.46,50.82Z"/><path class="cls-6" d="M32.16,8.5a5.26,5.26,0,0,1,3.74,3.26,5,5,0,0,1-1.57,5.71A9.24,9.24,0,0,1,29,18.67a8.61,8.61,0,0,1-5-1.41,4.75,4.75,0,0,1-1.7-3.64,4,4,0,0,1,.34-2,8.45,8.45,0,0,0,.26,2.65,3.94,3.94,0,0,0,1.54,2,6.86,6.86,0,0,0,4.23,1.15,5.74,5.74,0,0,0,4.09-1.64,6,6,0,0,0,1.58-5.14C34.09,9.61,33,9.08,32.16,8.5Z"/><path class="cls-6" d="M52.73,47.43c1.16-.23,2.35-.2,3.52-.43,0,2,0,4,0,6.07a8.66,8.66,0,0,1-2.8,5.09,14.64,14.64,0,0,1-4.27,2.67A32.32,32.32,0,0,1,43,62.71a16.19,16.19,0,0,1-2.49.42,3.77,3.77,0,0,1,.7-.34,17.49,17.49,0,0,0,5.89-2.55,4.4,4.4,0,0,0,1.63-2.17,5.17,5.17,0,0,0,.19-1.3,9.94,9.94,0,0,1-1.34-.07c-.5-.1-1-.34-1.43-.45a5.22,5.22,0,0,0,3.41-1.84,4.61,4.61,0,0,0,.9-3.76,2.76,2.76,0,0,1,0-1.37A3.07,3.07,0,0,1,52.73,47.43Z"/><path class="cls-6" d="M2.18,47.69a6.06,6.06,0,0,0,3.7,1.91,5.24,5.24,0,0,0,2.59-1,2.55,2.55,0,0,1,2.43,0,3.2,3.2,0,0,1,1.55,1.92,1.47,1.47,0,0,1,0,.88,3.49,3.49,0,0,0-2.54-1.35,5,5,0,0,0-2.47.75A7.71,7.71,0,0,1,5,51.51a6.12,6.12,0,0,0,.89,5,9.23,9.23,0,0,0,3.23,2.65,25.66,25.66,0,0,0,6.73,2.15,68.87,68.87,0,0,0,13.45,1,44.1,44.1,0,0,0,7.52-.69,5.23,5.23,0,0,0,3.41-1.79A4.23,4.23,0,0,0,41,56.54,5.82,5.82,0,0,0,40,54a1.94,1.94,0,0,0-1.44-.9,1.06,1.06,0,0,0-1.09.77,7,7,0,0,0-.08,1.45,5.11,5.11,0,0,1-2.26,4.3,5.39,5.39,0,0,1-4.2.94,4.32,4.32,0,0,1-3-2.11,5.52,5.52,0,0,0,3.74.57,4.63,4.63,0,0,0,3.28-2.36,4.72,4.72,0,0,0,.39-3.18,1.54,1.54,0,0,1,.36-1.5,5.19,5.19,0,0,1,3.81-1.18,1.77,1.77,0,0,1,1.42.57c.5.49.5,1.22.69,1.84a4.27,4.27,0,0,0,2.92,3,4.81,4.81,0,0,0,1.65.11c.5.11.93.36,1.43.45a11.9,11.9,0,0,0,1.34.07,5.1,5.1,0,0,1-.19,1.3,4.4,4.4,0,0,1-1.63,2.17,17.69,17.69,0,0,1-5.89,2.55,3.77,3.77,0,0,0-.7.34c-1.6.32-3.23.46-4.86.62a79.44,79.44,0,0,1-16-.31,44,44,0,0,1-8.32-1.82,20.34,20.34,0,0,1-4.8-2.23,9.62,9.62,0,0,1-3.74-4.34,6.45,6.45,0,0,1-.58-2.32C2.18,51.05,2.17,49.38,2.18,47.69Z"/><path class="cls-7" d="M21.27,51.5a1.65,1.65,0,0,1,1.47-.75,4.36,4.36,0,0,1,2.53.72,2,2,0,0,1,.9,1.6,18.62,18.62,0,0,0-.11,2,1.65,1.65,0,0,0-.38-1,2.72,2.72,0,0,0-2.15-1,.84.84,0,0,0-.7.46,6.12,6.12,0,0,0-.41,1.32,6.81,6.81,0,0,1-1.23,2.79,4.51,4.51,0,0,1-3.83,1.6A3.82,3.82,0,0,1,14,56.49a4.89,4.89,0,0,0,2.43.89,4.32,4.32,0,0,0,3.43-1.22,4.64,4.64,0,0,0,1.26-3.31A2.55,2.55,0,0,1,21.27,51.5Z"/><path class="cls-8" d="M55.77,45.72a13,13,0,0,1-2.05.24,5.82,5.82,0,0,0-3.2,1.1,4,4,0,0,0-1.41,2.35c-.14.76.2,1.51.13,2.29a3.25,3.25,0,0,1-.91,2.18,3.89,3.89,0,0,1-3.45,1,2.75,2.75,0,0,1-2-1.85c-.19-.49-.21-1-.36-1.5a4,4,0,0,0-1-1.39A3.18,3.18,0,0,0,40,49.49a7.6,7.6,0,0,0-4.35.84,4.6,4.6,0,0,0-1.06.9A2.94,2.94,0,0,0,34,52.72c-.08.78.32,1.54.14,2.31a3.17,3.17,0,0,1-2.06,2.48,4.22,4.22,0,0,1-2.36.17,2.71,2.71,0,0,1-2.22-2.12c-.25-1,.12-2.05,0-3.08a3.69,3.69,0,0,0-1.2-2,5.81,5.81,0,0,0-3.86-1A4.28,4.28,0,0,0,21,50a3.49,3.49,0,0,0-1,1.28,6.67,6.67,0,0,0-.2,1.94,3.18,3.18,0,0,1-.93,2.12,3.13,3.13,0,0,1-4.61-.42,4.23,4.23,0,0,1-.47-3.39,3.76,3.76,0,0,0-.85-2.9,4.25,4.25,0,0,0-2.64-1.52,4.25,4.25,0,0,0-2.9.68,2.35,2.35,0,0,1-1.73.51,6.47,6.47,0,0,1-3.9-3.38,1.93,1.93,0,0,1-.21-1c0-1.06,0-2.12.1-3.18a16.27,16.27,0,0,1,3.08-7.61c0-.7,0-1.41.11-2.13a17.39,17.39,0,0,1,5.88-11.08A17.67,17.67,0,0,1,14,17.44,14.25,14.25,0,0,1,16.6,16a20.21,20.21,0,0,1,4.29-1.43,7.69,7.69,0,0,0,.65,2l0,0a6.35,6.35,0,0,0,3.52,3,14.36,14.36,0,0,0,5.06.61,9,9,0,0,0,4.9-1.4,6.87,6.87,0,0,0,2-2.29,7.32,7.32,0,0,0,.59-1.84,24.84,24.84,0,0,1,6.2,2.46A19.75,19.75,0,0,1,52,25.35a15.87,15.87,0,0,1,1.69,7.19,2.23,2.23,0,0,0,0,.63,16.8,16.8,0,0,1,2.79,6.18,20.59,20.59,0,0,1,.38,5.08A1.34,1.34,0,0,1,55.77,45.72Z"/><path class="cls-9" d="M45.58,72.84c-.41-1.27-.83-2.53-1.26-3.79a1,1,0,0,1,.27-1.2,2.55,2.55,0,0,0,.63-2.95c-.19-.58-.23-.81,0-1a2.17,2.17,0,0,1,0-.25h0a2.16,2.16,0,0,1,.14-.57,8.32,8.32,0,0,1,2.41-4.19.89.89,0,0,1,.08-.17l.52-.8A19.34,19.34,0,0,0,44,32.36a22.18,22.18,0,0,0-28.82.82,19.25,19.25,0,0,0-3.06,25.25,7.12,7.12,0,0,1,.62,1,2,2,0,0,1,.49.75,1.89,1.89,0,0,1,.46.72,1.73,1.73,0,0,1,.43.72v0l.12.21,0,0a2.23,2.23,0,0,1,.46.78.35.35,0,0,1,0,.08,1.9,1.9,0,0,1,.2,1.53s0,0,0,0a.82.82,0,0,1,0,.4c-.06.18-.08.37-.14.55a2.35,2.35,0,0,0,.55,2.46c.21.24.42.46.65.71l-2.74,8.34a6.34,6.34,0,0,0-.37,1.47,1.94,1.94,0,0,0,2.36,2,7.17,7.17,0,0,0,1.21-.53A3.78,3.78,0,0,1,21,79.55a.92.92,0,0,1,.49,1.11,4.57,4.57,0,0,0-.12.74,2.14,2.14,0,0,1-1.79,2.27,4.65,4.65,0,0,0-.86.37c-.39.42-.79.82-1.15,1.27a5.24,5.24,0,0,0-1,2.8,1.05,1.05,0,0,0,1.07,1.27c.88.06,1.77.05,2.65.07l4.73,0c.38,0,.76,0,1.13,0,1.06-.06,1.45-.55,1.27-1.61a4.75,4.75,0,0,0-1-2.43A2.09,2.09,0,0,1,26,83.26a13,13,0,0,0,.37-1.86,2,2,0,0,1,1.09-1.63c2.12-1.29,3.87-1.22,5.75.34a1.21,1.21,0,0,1,.39.61c.15.61.24,1.23.35,1.85a2.65,2.65,0,0,1-.44,3.12,3.63,3.63,0,0,0-.78,2.48c0,.8.3,1.17,1.09,1.22,1,0,1.89,0,2.84.08l3.41-.07c.57,0,1.14,0,1.71,0,1.6,0,1.73-.16,1.74-1.72,0-.19,0-.38,0-.57L42,84.49a9.87,9.87,0,0,0-2.34-1.23.92.92,0,0,1-.69-.81c-.06-.37-.16-.74-.24-1.11-.29-1.36-.32-1.52,1.11-2.18a3.66,3.66,0,0,1,3.3.16c.45.23.87.52,1.33.74a1.8,1.8,0,0,0,2.12-.29,1.85,1.85,0,0,0,.62-2.06C46.66,76.08,46.12,74.46,45.58,72.84ZM15.07,55.94a4.2,4.2,0,0,0-.67,1.83c-.63-.05-.74-.47-.93-.77a17.25,17.25,0,0,1,2.91-22.34A19.46,19.46,0,0,1,32.7,29.54a19,19,0,0,1,13.63,8.11A17.11,17.11,0,0,1,46.66,57a1.87,1.87,0,0,1-.78.85l-.63-1.58A2.51,2.51,0,0,0,43,55.43c-1,.27-1.54-.27-2.15-.81-2-.33-2.72,0-3.36,1.79a1.09,1.09,0,0,1-.86.84,1.73,1.73,0,0,0-.53.21,2.38,2.38,0,0,0,0,4.19,20.31,20.31,0,0,0,2.07.92,7.35,7.35,0,0,1,1,.51.33.33,0,0,1,0,.49,1.1,1.1,0,0,1-.31.22,20.34,20.34,0,0,1-17.6,0,.46.46,0,0,1-.16-.11c-.09-.08-.26-.2-.24-.27a.63.63,0,0,1,.25-.43c.81-.37,1.63-.7,2.44-1a2.85,2.85,0,0,0,1.33-1,2.41,2.41,0,0,0-.7-3.34,5.14,5.14,0,0,0-1.05-.43.8.8,0,0,1-.48-.52c-.85-2.12-1.4-2.41-3.55-1.94a1.67,1.67,0,0,1-1.9.77A3.13,3.13,0,0,0,15.07,55.94Zm27.81,7.94A6.07,6.07,0,0,1,43.55,66a.62.62,0,0,1-.26.47.55.55,0,0,1-.68-.14,1.78,1.78,0,0,1-.28-.48c-.13-.29-.24-.59-.35-.88a13.78,13.78,0,0,0-1.34-3.11c-.68-.9-2-1-3-1.48a2.89,2.89,0,0,1-.78-.5.67.67,0,0,1-.08-.51.61.61,0,0,1,.13-.29c.81-.2,1.22.22,1.72.28a.88.88,0,0,0,1.06-1.13,4.81,4.81,0,0,0-.16-.54c-.06-.18-.14-.36-.18-.54s0-.65.31-.8a.57.57,0,0,1,.78.31c.15.28.24.59.38.87.43.82,1,.92,1.63.29.18-.17.31-.4.49-.57a.43.43,0,0,1,.52-.07c.24.13.45.34.36.59a14.18,14.18,0,0,1-.69,1.54C41.76,62.05,41.87,61,42.88,63.88ZM17.1,59.53c-.28-.56-.56-1.13-.79-1.72a.53.53,0,0,1,.33-.61.44.44,0,0,1,.53,0c.26.27.48.59.76.83a.82.82,0,0,0,1.17-.19c.26-.43.44-.91.69-1.34a.5.5,0,0,1,.67-.17c.15.07.23.28.37.47-.12.41-.26.83-.36,1.26-.23,1,.27,1.44,1.25,1.22.37-.09.72-.25,1.09-.31a.65.65,0,0,1,.46.26.47.47,0,0,1-.07.68,10.21,10.21,0,0,1-1.51.77c-2.79,1.18-2,.53-3.19,3.32-.32.76-.61,1.53-1,2.27a.51.51,0,0,1-.67.19.53.53,0,0,1-.35-.6c.24-.79.52-1.56.81-2.33C18.23,61.15,18.3,61.92,17.1,59.53Zm7.6,28c-.94,0-1.89,0-2.84,0v0c-.75,0-1.51,0-2.27,0-.29,0-.67.08-.78-.33a1,1,0,0,1,.3-.85,3.57,3.57,0,0,1,6,.38C25.35,87.12,25.16,87.5,24.7,87.5Zm-1.3-6.65c.11-.3.52-.28.83-.18s.33.16.31.61a5.18,5.18,0,0,1-.39,1.79.5.5,0,0,1-.63.23c-.25-.06-.49-.17-.53-.45A4.07,4.07,0,0,1,23.4,80.85Zm18.11,6.6H35c-.26-.62.15-1,.47-1.36a3.47,3.47,0,0,1,2.11-1.17C39.19,84.63,40.51,85.43,41.51,87.45Zm-5.39-6.79a.54.54,0,0,1,.6.27,4,4,0,0,1,.34,1.8c0,.36-.27.53-.62.54a.45.45,0,0,1-.52-.39c-.11-.55-.25-1.09-.34-1.64C35.51,80.9,35.73,80.67,36.12,80.66Zm9-2.47c-.36.1-.59-.15-.85-.3a5.87,5.87,0,0,0-6.14.06,6.14,6.14,0,0,1-1.36.67,3.93,3.93,0,0,1-3.28-.45,6,6,0,0,0-2.43-1,6.12,6.12,0,0,0-4.2.81,4.06,4.06,0,0,1-1.72.77,4.22,4.22,0,0,1-2.92-.58,5.9,5.9,0,0,0-6.47-.26,2.37,2.37,0,0,1-.53.18.55.55,0,0,1-.17,0,.86.86,0,0,1-.05-.9c.86-2.64,1.73-5.29,2.62-7.93a1.94,1.94,0,0,1,.55-1,4.66,4.66,0,0,0,1.49-2,2.35,2.35,0,0,1,1.4.19,31.25,31.25,0,0,0,17.44.15c.18-.05.35-.13.54-.17,1.08-.28,1.08-.28,1.79.75.1.15.18.36.33.45,1.07.67,1.31,1.8,1.66,2.88.74,2.29,1.5,4.57,2.25,6.86C45.2,77.59,45.43,77.88,45.16,78.19Z"/><path class="cls-10" d="M40.87,54.62c-2-.33-2.72,0-3.36,1.79a1.09,1.09,0,0,1-.86.84,1.73,1.73,0,0,0-.53.21,2.38,2.38,0,0,0,0,4.19,20.31,20.31,0,0,0,2.07.92,7.35,7.35,0,0,1,1,.51.33.33,0,0,1,0,.49,1.1,1.1,0,0,1-.31.22,20.34,20.34,0,0,1-17.6,0,.46.46,0,0,1-.16-.11c-.09-.08-.26-.2-.24-.27a.63.63,0,0,1,.25-.43c.81-.37,1.63-.7,2.44-1a2.85,2.85,0,0,0,1.33-1,2.41,2.41,0,0,0-.7-3.34,5.14,5.14,0,0,0-1.05-.43.8.8,0,0,1-.48-.52c-.85-2.12-1.4-2.41-3.55-1.94a2.91,2.91,0,0,0-.46-1.41,2.38,2.38,0,0,0-2.43-1.08,2.08,2.08,0,0,0-1.79,1.46,1.73,1.73,0,0,0,.67,2.3,4.2,4.2,0,0,0-.67,1.83c-.63-.05-.74-.47-.93-.77a17.25,17.25,0,0,1,2.91-22.34A19.46,19.46,0,0,1,32.7,29.54a19,19,0,0,1,13.63,8.11A17.11,17.11,0,0,1,46.66,57a1.87,1.87,0,0,1-.78.85l-.63-1.58a8.11,8.11,0,0,0,.46-1.42,2.25,2.25,0,0,0-4.17-1.54C41.28,53.71,41.09,54.17,40.87,54.62ZM33.16,38.5a16.49,16.49,0,0,0,1.44,1.14,3.15,3.15,0,0,0,3.09.17,5.21,5.21,0,0,0,2.56-4.94.86.86,0,0,0-1.65-.15c-.15.55-.18,1.13-.35,1.67-.38,1.23-1.24,2-2,1.93a2.34,2.34,0,0,1-1.88-1.91c-.16-.54-.2-1.12-.35-1.67a.76.76,0,0,0-.86-.58.71.71,0,0,0-.71.52,9.35,9.35,0,0,0-.26,1.3,3.35,3.35,0,0,1-.58,1.39,1.68,1.68,0,0,1-3.06-.07,3.8,3.8,0,0,1-.62-1.77,3.57,3.57,0,0,0-.18-.92.79.79,0,0,0-.77-.46.75.75,0,0,0-.75.48,5.73,5.73,0,0,0-.2,1.11,3.73,3.73,0,0,1-.83,1.88,1.58,1.58,0,0,1-2.61,0,3.14,3.14,0,0,1-.76-1.51c-.08-.43-.14-.87-.24-1.3a.81.81,0,0,0-1-.68.77.77,0,0,0-.7.77,5.19,5.19,0,0,0,1.68,4.27,3.26,3.26,0,0,0,4.34.19c.38-.29.73-.62,1.07-.92C29.35,40.67,30.72,40.67,33.16,38.5Zm-3,12.1h0c-1.4,0-2.79,0-4.19,0-1,0-1.35.38-1.37,1.38a5.45,5.45,0,1,0,10.89-.18c0-.82-.34-1.18-1.15-1.2C33,50.57,31.55,50.6,30.16,50.6Zm8.28-1.66c.18-.53.64-.65,1-.89s.87-.51,1.28-.8a.86.86,0,0,0-.8-1.53c-1.37.77-2.74,1.57-4.07,2.41a.8.8,0,0,0-.08,1.3c1.39.88,2.81,1.7,4.23,2.52a.71.71,0,0,0,.72-.08.82.82,0,0,0,.09-1.41C40,49.91,39.22,49.44,38.44,48.94Zm-16.66,0c-.64.38-1.18.69-1.71,1a7.19,7.19,0,0,0-.78.54.86.86,0,0,0-.13,1.18.76.76,0,0,0,1,.27c1.32-.74,2.64-1.48,3.92-2.28a.91.91,0,0,0,0-1.67c-1.23-.77-2.49-1.48-3.74-2.21a1.15,1.15,0,0,0-.36-.11A.85.85,0,0,0,19.18,47a3.83,3.83,0,0,0,.74.57A7.62,7.62,0,0,1,21.78,48.91Z"/><path class="cls-5" d="M15.09,78a.86.86,0,0,1-.05-.9c.86-2.64,1.73-5.29,2.62-7.93a1.94,1.94,0,0,1,.55-1,4.66,4.66,0,0,0,1.49-2,2.35,2.35,0,0,1,1.4.19,31.25,31.25,0,0,0,17.44.15c.18-.05.35-.13.54-.17,1.08-.28,1.08-.28,1.79.75.1.15.18.36.33.45,1.07.67,1.31,1.8,1.66,2.88.74,2.29,1.5,4.57,2.25,6.86.09.28.32.57,0,.88-.36.1-.59-.15-.85-.3a5.87,5.87,0,0,0-6.14.06,6.14,6.14,0,0,1-1.36.67,3.93,3.93,0,0,1-3.28-.45,6,6,0,0,0-2.43-1,6.12,6.12,0,0,0-4.2.81,4.06,4.06,0,0,1-1.72.77,4.22,4.22,0,0,1-2.92-.58,5.9,5.9,0,0,0-6.47-.26,2.37,2.37,0,0,1-.53.18A.55.55,0,0,1,15.09,78Z"/><path class="cls-10" d="M36.9,59.1c.81-.2,1.22.22,1.72.28a.88.88,0,0,0,1.06-1.13,4.81,4.81,0,0,0-.16-.54c-.06-.18-.14-.36-.18-.54s0-.65.31-.8a.57.57,0,0,1,.78.31c.15.28.24.59.38.87.43.82,1,.92,1.63.29.18-.17.31-.4.49-.57a.43.43,0,0,1,.52-.07c.24.13.45.34.36.59a14.18,14.18,0,0,1-.69,1.54c-1.36,2.72-1.25,1.67-.24,4.55A6.07,6.07,0,0,1,43.55,66a.62.62,0,0,1-.26.47.55.55,0,0,1-.68-.14,1.78,1.78,0,0,1-.28-.48c-.13-.29-.24-.59-.35-.88a13.78,13.78,0,0,0-1.34-3.11c-.68-.9-2-1-3-1.48a2.89,2.89,0,0,1-.78-.5.67.67,0,0,1-.08-.51A.61.61,0,0,1,36.9,59.1Z"/><path class="cls-10" d="M20.83,56.85c-.12.41-.26.83-.36,1.26-.23,1,.27,1.44,1.25,1.22.37-.09.72-.25,1.09-.31a.65.65,0,0,1,.46.26.47.47,0,0,1-.07.68,10.21,10.21,0,0,1-1.51.77c-2.79,1.18-2,.53-3.19,3.32-.32.76-.61,1.53-1,2.27a.51.51,0,0,1-.67.19.53.53,0,0,1-.35-.6c.24-.79.52-1.56.81-2.33.9-2.43,1-1.66-.23-4-.28-.56-.56-1.13-.79-1.72a.53.53,0,0,1,.33-.61.44.44,0,0,1,.53,0c.26.27.48.59.76.83a.82.82,0,0,0,1.17-.19c.26-.43.44-.91.69-1.34a.5.5,0,0,1,.67-.17C20.61,56.45,20.69,56.66,20.83,56.85Z"/><path class="cls-4" d="M15.07,55.94a1.73,1.73,0,0,1-.67-2.3,2.08,2.08,0,0,1,1.79-1.46,2.38,2.38,0,0,1,2.43,1.08,2.91,2.91,0,0,1,.46,1.41,1.67,1.67,0,0,1-1.9.77A3.13,3.13,0,0,0,15.07,55.94Z"/><path class="cls-4" d="M40.87,54.62c.22-.45.41-.91.67-1.33a2.25,2.25,0,0,1,4.17,1.54,8.11,8.11,0,0,1-.46,1.42A2.51,2.51,0,0,0,43,55.43C42,55.7,41.48,55.16,40.87,54.62Z"/><path class="cls-6" d="M21.86,87.53c-.75,0-1.51,0-2.27,0-.29,0-.67.08-.78-.33a1,1,0,0,1,.3-.85,3.57,3.57,0,0,1,6,.38c.22.4,0,.78-.43.78-.94,0-1.89,0-2.84,0Z"/><path class="cls-6" d="M41.51,87.45H35c-.26-.62.15-1,.47-1.36a3.47,3.47,0,0,1,2.11-1.17C39.19,84.63,40.51,85.43,41.51,87.45Z"/><path class="cls-10" d="M24.54,81.28a5.18,5.18,0,0,1-.39,1.79.5.5,0,0,1-.63.23c-.25-.06-.49-.17-.53-.45a4.07,4.07,0,0,1,.41-2c.11-.3.52-.28.83-.18S24.56,80.83,24.54,81.28Z"/><path class="cls-10" d="M36.12,80.66a.54.54,0,0,1,.6.27,4,4,0,0,1,.34,1.8c0,.36-.27.53-.62.54a.45.45,0,0,1-.52-.39c-.11-.55-.25-1.09-.34-1.64C35.51,80.9,35.73,80.67,36.12,80.66Z"/><path class="cls-9" d="M33.16,38.5c-2.44,2.17-3.81,2.17-6.2,0-.34.3-.69.63-1.07.92a3.26,3.26,0,0,1-4.34-.19,5.19,5.19,0,0,1-1.68-4.27.77.77,0,0,1,.7-.77.81.81,0,0,1,1,.68c.1.43.16.87.24,1.3a3.14,3.14,0,0,0,.76,1.51,1.58,1.58,0,0,0,2.61,0A3.73,3.73,0,0,0,26,35.74a5.73,5.73,0,0,1,.2-1.11.75.75,0,0,1,.75-.48.79.79,0,0,1,.77.46,3.57,3.57,0,0,1,.18.92,3.8,3.8,0,0,0,.62,1.77,1.68,1.68,0,0,0,3.06.07A3.35,3.35,0,0,0,32.14,36a9.35,9.35,0,0,1,.26-1.3.71.71,0,0,1,.71-.52.76.76,0,0,1,.86.58c.15.55.19,1.13.35,1.67a2.34,2.34,0,0,0,1.88,1.91c.81.12,1.67-.7,2-1.93.17-.54.2-1.12.35-1.67a.86.86,0,0,1,1.65.15,5.21,5.21,0,0,1-2.56,4.94,3.15,3.15,0,0,1-3.09-.17A16.49,16.49,0,0,1,33.16,38.5Z"/><path class="cls-9" d="M30.16,50.6c1.39,0,2.79,0,4.18,0,.81,0,1.11.38,1.15,1.2A5.45,5.45,0,1,1,24.6,52c0-1,.35-1.36,1.37-1.38,1.4,0,2.79,0,4.19,0Zm-3.72,1.83a3.7,3.7,0,0,0,.65,1.88,3.49,3.49,0,0,0,3.47,1.51,3.55,3.55,0,0,0,3-2.59c.14-.43-.06-.77-.5-.78C30.89,52.4,28.75,52.41,26.44,52.43Z"/><path class="cls-9" d="M38.44,48.94c.78.5,1.6,1,2.37,1.52a.82.82,0,0,1-.09,1.41A.71.71,0,0,1,40,52c-1.42-.82-2.84-1.64-4.23-2.52a.8.8,0,0,1,.08-1.3c1.33-.84,2.7-1.64,4.07-2.41a.86.86,0,0,1,.8,1.53c-.41.29-.86.53-1.28.8S38.62,48.41,38.44,48.94Z"/><path class="cls-9" d="M21.78,48.91a7.62,7.62,0,0,0-1.86-1.3,3.83,3.83,0,0,1-.74-.57A.85.85,0,0,1,20,45.65a1.15,1.15,0,0,1,.36.11c1.25.73,2.51,1.44,3.74,2.21a.91.91,0,0,1,0,1.67c-1.28.8-2.6,1.54-3.92,2.28a.76.76,0,0,1-1-.27.86.86,0,0,1,.13-1.18,7.19,7.19,0,0,1,.78-.54C20.6,49.6,21.14,49.29,21.78,48.91Z"/><path class="cls-11" d="M26.44,52.43c2.31,0,4.45,0,6.6,0,.44,0,.64.35.5.78a3.55,3.55,0,0,1-3,2.59,3.49,3.49,0,0,1-3.47-1.51A3.7,3.7,0,0,1,26.44,52.43Z"/></svg>