<svg id="Layer_1" data-name="Layer 1" xmlns="http://www.w3.org/2000/svg" viewBox="0 0 68.83 79.13"><defs><style>.cls-1{fill:#b86a39;}.cls-1,.cls-10,.cls-2,.cls-3,.cls-4,.cls-5,.cls-6,.cls-8{fill-rule:evenodd;}.cls-2,.cls-9{fill:#eec26b;}.cls-3{fill:#b0602e;}.cls-4{fill:#bf774a;}.cls-5{fill:#bf784c;}.cls-6{fill:#cf906a;}.cls-7,.cls-8{fill:#3c0000;}.cls-10{fill:#fff;}.cls-11{fill:#8c533d;}.cls-12{fill:#efd3a5;}.cls-13{fill:#ffebc8;}.cls-14{fill:#fff6ee;}.cls-15{fill:#e2d7c2;}</style></defs><path class="cls-1" d="M63.35,27.66c0,10.35,0,19.41-8,24.44-5,5.5-36.1,5.5-41.1,0-8-5-8-14.09-8-24.44,0-1.42.61-18,.83-18.59C8.06,6.16,9.28.18,13.21.79a141.55,141.55,0,0,0,43.1,0c3.91-.61,5.13,5.37,6.22,8.28.21.59.82,17.17.82,18.59Z"/><path class="cls-2" d="M54.78,22.84a2.6,2.6,0,1,0-2.57-2.59,2.6,2.6,0,0,0,2.57,2.59Z"/><path class="cls-2" d="M57.63,31.07a1.39,1.39,0,1,0-1.37-1.37,1.39,1.39,0,0,0,1.37,1.37Z"/><path class="cls-2" d="M56.26,37.71a.9.9,0,0,0,.88-.89.87.87,0,0,0-.88-.88.89.89,0,0,0-.88.88.91.91,0,0,0,.88.89Z"/><path class="cls-2" d="M15.61,20.29a1.9,1.9,0,1,0-1.89-1.9,1.9,1.9,0,0,0,1.89,1.9Z"/><path class="cls-2" d="M11.09,23.83a1.18,1.18,0,1,0-1.17-1.18,1.17,1.17,0,0,0,1.17,1.18Z"/><path class="cls-2" d="M11.34,38.35a.93.93,0,0,0,.95-.92,1,1,0,0,0-.95-.93.93.93,0,0,0-.93.93.92.92,0,0,0,.93.92Z"/><path class="cls-2" d="M12.85,31.48a1.75,1.75,0,0,0,1.79-1.75,1.77,1.77,0,0,0-3.54,0,1.75,1.75,0,0,0,1.75,1.75Z"/><path class="cls-3" d="M63.35,27.66c0,10.35,0,19.41-8,24.44-5,5.5-36.1,5.5-41.1,0-.13-.31-.13-.61.4-.63,12.13,2.58,31.5,5,39.83-3.22s5.5-30.59,5-32c-1-2.83-23.07-2.5-23.07-2.5L35.22,2.44A140,140,0,0,0,56.31.79c3.91-.61,5.13,5.37,6.22,8.28.21.59.82,17.17.82,18.59Z"/><path class="cls-4" d="M14.21,52.1c-8-5-8-14.09-8-24.44,0-1.39.56-17.43.8-18.54l6.33,3c-1.11.18-3.41.57-3.46,1.37-1.47,21.1,0,31.05,1,32.74a24.38,24.38,0,0,0,3.34,5.92Z"/><path class="cls-5" d="M6.93,9.51A1.51,1.51,0,0,1,7,9.07C8.06,6.16,9.28.18,13.21.79a141.55,141.55,0,0,0,43.1,0c3.91-.61,5.13,5.37,6.22,8.28a3.52,3.52,0,0,1,.06.55C53.79,15.36,11.74,15,6.93,9.51Z"/><path class="cls-6" d="M6.93,9.51A1.51,1.51,0,0,1,7,9.07C8.06,6.16,9.28.18,13.21.79c1.94.3,3.9.57,5.85.78-5.95-.06-7-.34-9,4.94-1.79,4.65,1,4.24,3.28,5.56-3.17-.67-5.46-1.52-6.37-2.56Z"/><path class="cls-7" d="M64.09,27.66c0,5.22,0,10.11-1,14.39a16.12,16.12,0,0,1-7.29,10.61,1.05,1.05,0,0,1-.23.24c-3,2.7-11.9,4.05-20.77,4.05h0C25.87,57,17,55.6,14,52.9a1.45,1.45,0,0,1-.26-.24A16.27,16.27,0,0,1,6.45,42.05c-1-4.28-1-9.17-1-14.39,0-.83.22-9.52.43-13.43.16-2.74.33-5.09.44-5.42s.33-.93.5-1.47C7.89,4,9.37-.54,13.32.05A139.83,139.83,0,0,0,34.78,1.7,139.22,139.22,0,0,0,56.2.05c3.94-.59,5.44,4,6.5,7.29.17.54.35,1,.5,1.47h0a47.79,47.79,0,0,1,.46,5.42c.21,3.91.43,12.6.43,13.43Zm-2.45,14c1-4.08,1-8.89,1-14,0-.85-.21-9.5-.43-13.35-.15-2.63-.28-4.82-.35-5h0l-.52-1.55c-.91-2.8-2.17-6.7-4.89-6.28A142.09,142.09,0,0,1,34.78,3.18,142.38,142.38,0,0,1,13.11,1.51c-2.72-.42-4,3.48-4.92,6.28-.17.57-.35,1.11-.5,1.55-.06.17-.22,2.34-.37,5-.22,3.85-.41,12.5-.41,13.35,0,5.15,0,10,1,14a14.76,14.76,0,0,0,6.72,9.77l.15.13a1,1,0,0,0,.21.21c2.7,2.46,11.22,3.68,19.79,3.68h0c8.57,0,17.09-1.22,19.77-3.68a2.19,2.19,0,0,0,.23-.21l.16-.13a15,15,0,0,0,6.72-9.77Z"/><path class="cls-8" d="M3.38,14.82a3.39,3.39,0,0,1,0-6.77H65.44a3.39,3.39,0,1,1,0,6.77Z"/><rect class="cls-9" x="1.38" y="9.44" width="66.06" height="4" rx="2"/><path class="cls-8" d="M34.77,16a4.53,4.53,0,1,0-4.52-4.53A4.55,4.55,0,0,0,34.77,16Z"/><path class="cls-10" d="M36.64,8.62a3.26,3.26,0,0,1,.82,4.2,3.2,3.2,0,0,1-4.19,1.65l.26-.27A6.22,6.22,0,0,0,35,11.54a9.43,9.43,0,0,1,1.63-2.92Zm-3.87,5.55A3.31,3.31,0,0,1,32.06,10a3.21,3.21,0,0,1,4.07-1.68,8.79,8.79,0,0,0-1.62,3,6.28,6.28,0,0,1-1.39,2.51c-.12.12-.23.2-.35.32Z"/><path class="cls-11" d="M30.54,77.39h-7.1a3.66,3.66,0,0,1,7.1,0Z"/><path class="cls-11" d="M46.59,77.39h-7.1a3.66,3.66,0,0,1,7.1,0Z"/><path class="cls-12" d="M50.32,68.27a.21.21,0,0,1-.24,0c-.21-.11-.4-.23-.62-.37a5.43,5.43,0,0,0-3.26-1,5.37,5.37,0,0,0-3.26,1,3.89,3.89,0,0,1-1.8.72c-.18,0-.36,0-.54,0a3.56,3.56,0,0,1-2.06-.58l-.26-.16a5.75,5.75,0,0,0-6.54,0l-.25.15a3.54,3.54,0,0,1-2.07.59c-.18,0-.36,0-.53,0a3.84,3.84,0,0,1-1.81-.72,5.37,5.37,0,0,0-3.26-1,5.43,5.43,0,0,0-3.26,1,6.75,6.75,0,0,1-.62.37.2.2,0,0,1-.23,0,.21.21,0,0,1-.07-.23l4.19-12.68.26-.78a21.85,21.85,0,0,0,8.22,2.71l.32,0h0a22.26,22.26,0,0,0,2.35.12,22.84,22.84,0,0,0,2.38-.12l.29,0h0a22.2,22.2,0,0,0,8.24-2.72l.36,1.08,4.08,12.39A.19.19,0,0,1,50.32,68.27Z"/><path class="cls-7" d="M17.38,48.35A24.88,24.88,0,0,1,15,44a18.87,18.87,0,0,1-1.14-6.47c0-11,9.49-19.94,21.14-19.94s21.14,9,21.14,19.94A18.87,18.87,0,0,1,55,44c-.75,2.06-2.1,4.54-2,4.64s.31.71.31.71a4.19,4.19,0,0,1,.3,1.55,4.14,4.14,0,0,1-1.28,3c.47,1.06,1.18,3.18.34,4.93A4.21,4.21,0,0,1,49.88,61L52,67.5a2,2,0,0,1-2.76,2.35c-.27-.15-.51-.3-.74-.44a3.75,3.75,0,0,0-2.34-.75,3.81,3.81,0,0,0-2.34.74c-.17.11-.35.23-.54.33L44,73a5.41,5.41,0,0,1,4.46,5.31.87.87,0,0,1-.87.87H38.51a.87.87,0,0,1-.87-.87,5.38,5.38,0,0,1,1.72-3.94L38.48,70a7.5,7.5,0,0,1-.85-.44l-.28-.18a4,4,0,0,0-4.68,0l-.28.17a6.66,6.66,0,0,1-.85.45l-.87,4.29a5.4,5.4,0,0,1,1.72,3.94.87.87,0,0,1-.87.87H22.46a.88.88,0,0,1-.87-.87A5.42,5.42,0,0,1,26.06,73l.66-3.21c-.2-.11-.39-.23-.56-.34a3.81,3.81,0,0,0-2.34-.74,3.72,3.72,0,0,0-2.33.75c-.23.14-.47.29-.75.43a1.94,1.94,0,0,1-2.16-.24A2,2,0,0,1,18,67.5L20.15,61a4.21,4.21,0,0,1-2.78-2.15c-.85-1.75-.14-3.87.34-4.93a4.14,4.14,0,0,1-1.28-3,4.09,4.09,0,0,1,.3-1.56Zm34.05-1.13a17.31,17.31,0,0,0,3-9.71c0-10-8.7-18.2-19.4-18.2s-19.4,8.17-19.4,18.2a17.32,17.32,0,0,0,3,9.71,4.17,4.17,0,0,1,6.15,3.66,4.09,4.09,0,0,1-.43,1.81,20.12,20.12,0,0,0,8.21,2.88l.25,0a24.39,24.39,0,0,0,4.44,0l.28,0a20.1,20.1,0,0,0,8.2-2.86,4.3,4.3,0,0,1-.42-1.82,4.17,4.17,0,0,1,6.15-3.66Zm.43,3.66a2.42,2.42,0,1,0-2.42,2.42A2.42,2.42,0,0,0,51.86,50.88ZM51.09,58a4.29,4.29,0,0,0-.27-3.24,4.12,4.12,0,0,1-3-.09l1.51,4.59A2.57,2.57,0,0,0,51.09,58Zm-.77,10.23a.19.19,0,0,0,.06-.22L45.94,54.58A22.2,22.2,0,0,1,37.7,57.3h0l-.29,0a22.84,22.84,0,0,1-2.38.12,22.26,22.26,0,0,1-2.35-.12h0l-.32,0a21.85,21.85,0,0,1-8.22-2.71L19.64,68a.21.21,0,0,0,.07.23.2.2,0,0,0,.23,0,6.75,6.75,0,0,0,.62-.37,5.43,5.43,0,0,1,3.26-1,5.37,5.37,0,0,1,3.26,1,3.84,3.84,0,0,0,1.81.72c.17,0,.35,0,.53,0a3.54,3.54,0,0,0,2.07-.59l.25-.15a5.75,5.75,0,0,1,6.54,0l.26.16a3.56,3.56,0,0,0,2.06.58c.18,0,.36,0,.54,0a3.89,3.89,0,0,0,1.8-.72,5.37,5.37,0,0,1,3.26-1,5.43,5.43,0,0,1,3.26,1c.22.14.41.26.62.37A.21.21,0,0,0,50.32,68.27ZM39.49,77.39h7.1a3.66,3.66,0,0,0-7.1,0Zm2.7-4.45-.53-2.61-.33,0a5.85,5.85,0,0,1-.73,0h-.26l.59,2.88A5.87,5.87,0,0,1,42.19,72.94ZM23.44,77.39h7.1a3.66,3.66,0,0,0-7.1,0ZM29.1,73.3l.59-2.89h-.27a4.21,4.21,0,0,1-.72,0,1.75,1.75,0,0,1-.33,0l-.53,2.61A5.36,5.36,0,0,1,29.1,73.3ZM23,50.88a2.42,2.42,0,1,0-2.41,2.42A2.41,2.41,0,0,0,23,50.88ZM20.7,59.3l1.51-4.59a4.19,4.19,0,0,1-1.62.33,4,4,0,0,1-1.39-.25,4.44,4.44,0,0,0-.27,3.26A2.63,2.63,0,0,0,20.7,59.3Z"/><path class="cls-13" d="M35,19.31c-10.7,0-19.4,8.17-19.4,18.2a17.49,17.49,0,0,0,3,9.71,3.83,3.83,0,0,1,1-.38,4.09,4.09,0,0,1,1-.12,4.16,4.16,0,0,1,4.14,3.81c0,.11,0,.23,0,.35a4.09,4.09,0,0,1-.43,1.81,20.12,20.12,0,0,0,8.21,2.88l.25,0a24.39,24.39,0,0,0,4.44,0l.28,0a20.1,20.1,0,0,0,8.2-2.86,4.3,4.3,0,0,1-.42-1.82c0-.11,0-.21,0-.31a4.17,4.17,0,0,1,4.15-3.85,3.75,3.75,0,0,1,1.12.16,4.14,4.14,0,0,1,.87.34,17.71,17.71,0,0,0,1.39-2.47,17.14,17.14,0,0,0,1.59-7.24C54.41,27.48,45.71,19.31,35,19.31ZM31,21.48a.87.87,0,0,1,.87.87,5,5,0,0,0,4.12,4.88,3.57,3.57,0,0,1-.49-1.8,3.64,3.64,0,0,1,3.63-3.63.88.88,0,0,1,0,1.75,1.88,1.88,0,0,0-.64,3.64.88.88,0,0,1-.09,1.67,6.69,6.69,0,0,1-8.27-6.51A.87.87,0,0,1,31,21.48Zm-.37,19.86a.86.86,0,0,1,.87.87,1.35,1.35,0,0,0,2.69,0,.88.88,0,0,1,1.75,0,1.34,1.34,0,0,0,2.68,0,.87.87,0,1,1,1.74,0,3.09,3.09,0,0,1-3.08,3.09A3.14,3.14,0,0,1,35,44.36a3.08,3.08,0,0,1-5.3-2.15A.87.87,0,0,1,30.58,41.34Zm-6.51.16a.85.85,0,0,1,.31-1.18L27,38.76,24.38,37.2A.86.86,0,0,1,24.07,36a.85.85,0,0,1,1.18-.31L29.19,38a.89.89,0,0,1,.42.76.88.88,0,0,1-.42.75l-3.94,2.31a.82.82,0,0,1-.44.11A.85.85,0,0,1,24.07,41.5Zm21.58-1.18a.86.86,0,0,1-.44,1.61.87.87,0,0,1-.44-.11l-3.93-2.31a.86.86,0,0,1-.43-.75.88.88,0,0,1,.43-.76l3.93-2.3a.87.87,0,0,1,.88,1.5L43,38.76Z"/><path class="cls-14" d="M24.73,51.78a2.36,2.36,0,0,0,0-.28,4,4,0,0,1-.37,1.19l.35.2a4.78,4.78,0,0,0,.08-.76C24.75,52,24.74,51.89,24.73,51.78Z"/><path class="cls-14" d="M35,20.56c10.48,0,19,7.83,19.39,17.58,0-.21,0-.42,0-.63,0-10-8.7-18.2-19.4-18.2s-19.4,8.17-19.4,18.2c0,.22,0,.43,0,.64C16,28.4,24.53,20.56,35,20.56Z"/><path class="cls-14" d="M45.29,51.82c0,.1,0,.2,0,.31a3.94,3.94,0,0,0,.08.77l.34-.2a4.48,4.48,0,0,1-.37-1.21C45.32,51.6,45.3,51.71,45.29,51.82Z"/><path class="cls-13" d="M49.44,48.46A2.42,2.42,0,1,1,47,50.88,2.42,2.42,0,0,1,49.44,48.46Z"/><path class="cls-12" d="M50.82,54.8A4.29,4.29,0,0,1,51.09,58a2.57,2.57,0,0,1-1.76,1.26l-1.51-4.59a4.12,4.12,0,0,0,3,.09Z"/><path class="cls-7" d="M46,36a.86.86,0,0,1-.31,1.19L43,38.76l2.65,1.56a.86.86,0,0,1-.44,1.61.87.87,0,0,1-.44-.11l-3.93-2.31a.86.86,0,0,1-.43-.75.88.88,0,0,1,.43-.76l3.93-2.3A.86.86,0,0,1,46,36Z"/><path class="cls-13" d="M42.19,72.94a5.87,5.87,0,0,0-1.26.35l-.41-2-.18-.87h.26a5.85,5.85,0,0,0,.73,0l.33,0,.16.78Z"/><path class="cls-7" d="M39.44,41.34a.86.86,0,0,1,.87.87,3.09,3.09,0,0,1-3.08,3.09A3.14,3.14,0,0,1,35,44.36a3.08,3.08,0,0,1-5.3-2.15.87.87,0,0,1,1.74,0,1.35,1.35,0,0,0,2.69,0,.88.88,0,0,1,1.75,0,1.34,1.34,0,0,0,2.68,0A.87.87,0,0,1,39.44,41.34Z"/><path class="cls-7" d="M39.08,21.8a.88.88,0,0,1,0,1.75,1.88,1.88,0,0,0-.64,3.64.88.88,0,0,1-.09,1.67,6.69,6.69,0,0,1-8.27-6.51.87.87,0,1,1,1.74,0,5,5,0,0,0,4.12,4.88,3.57,3.57,0,0,1-.49-1.8A3.64,3.64,0,0,1,39.08,21.8Z"/><path class="cls-13" d="M29.69,70.41l-.18.87-.41,2a5.36,5.36,0,0,0-1.26-.36l.37-1.83.16-.78a1.75,1.75,0,0,0,.33,0,4.21,4.21,0,0,0,.72,0Z"/><path class="cls-7" d="M29.19,38a.89.89,0,0,1,.42.76.88.88,0,0,1-.42.75l-3.94,2.31a.82.82,0,0,1-.44.11.86.86,0,0,1-.43-1.61L27,38.76,24.38,37.2A.86.86,0,0,1,24.07,36a.85.85,0,0,1,1.18-.31Z"/><path class="cls-13" d="M20.59,48.46a2.42,2.42,0,1,1-2.42,2.42A2.41,2.41,0,0,1,20.59,48.46Z"/><path class="cls-12" d="M49.44,52.06a2.44,2.44,0,0,1-2.34-1.8,2.42,2.42,0,1,0,4.68,0A2.44,2.44,0,0,1,49.44,52.06Z"/><path class="cls-12" d="M20.59,52.06a2.44,2.44,0,0,1-2.34-1.8,2.42,2.42,0,0,0,2.34,3A2.42,2.42,0,0,0,23,50.88a2.45,2.45,0,0,0-.08-.62A2.41,2.41,0,0,1,20.59,52.06Z"/><path class="cls-12" d="M22.21,54.71,20.7,59.3a2.63,2.63,0,0,1-1.77-1.25,4.44,4.44,0,0,1,.27-3.26,4,4,0,0,0,1.39.25A4.19,4.19,0,0,0,22.21,54.71Z"/><circle class="cls-12" cx="21.6" cy="44.36" r="2.39" transform="translate(-26.52 55.25) rotate(-76.79)"/><circle class="cls-12" cx="48.42" cy="44.36" r="2.39"/><path class="cls-12" d="M19.59,46.84a3.83,3.83,0,0,0-1,.38A17.36,17.36,0,0,1,17,44.32,34.1,34.1,0,0,0,19.59,46.84Z"/><path class="cls-12" d="M45.28,50.88a4.3,4.3,0,0,0,.42,1.82,20.1,20.1,0,0,1-8.2,2.86l-.28,0a24.39,24.39,0,0,1-4.44,0l-.25,0a20.12,20.12,0,0,1-8.21-2.88,4.09,4.09,0,0,0,.43-1.81c0-.12,0-.24,0-.35A21,21,0,0,0,35,53.3a21.33,21.33,0,0,0,10.28-2.73C45.28,50.67,45.28,50.77,45.28,50.88Z"/><path class="cls-12" d="M50.56,46.88c.8-.69,1.55-1.41,2.26-2.13a17.71,17.71,0,0,1-1.39,2.47A4.14,4.14,0,0,0,50.56,46.88Z"/><path class="cls-15" d="M46.3,55.66A20,20,0,0,1,35,59.3a17.75,17.75,0,0,1-11.18-3.94l.26-.78a21.85,21.85,0,0,0,8.22,2.71l.32,0h0a22.26,22.26,0,0,0,2.35.12,22.84,22.84,0,0,0,2.38-.12l.29,0h0a22.2,22.2,0,0,0,8.24-2.72Z"/><path class="cls-12" d="M29.42,70.42h.27l-.18.87h-.09a4.58,4.58,0,0,1-.53,0,2.64,2.64,0,0,1-.68-.14l.16-.78a1.75,1.75,0,0,0,.33,0A4.21,4.21,0,0,0,29.42,70.42Z"/><path class="cls-12" d="M41.82,71.11a3.13,3.13,0,0,1-.68.14,4.89,4.89,0,0,1-.54,0h-.08l-.18-.87h.26a5.85,5.85,0,0,0,.73,0l.33,0Z"/></svg>