<svg id="Layer_1" data-name="Layer 1" xmlns="http://www.w3.org/2000/svg" viewBox="0 0 67 80.12"><defs><style>.cls-1,.cls-4{fill:#d0d1d3;}.cls-1,.cls-3,.cls-6,.cls-8{stroke:#232020;}.cls-1,.cls-2,.cls-3,.cls-6,.cls-7,.cls-8{stroke-miterlimit:10;}.cls-1,.cls-3{stroke-width:0.31px;}.cls-2,.cls-7,.cls-8{fill:none;}.cls-2,.cls-7{stroke:#3c0000;}.cls-2,.cls-8{stroke-linecap:round;stroke-width:1.24px;}.cls-3,.cls-9{fill:#eb5160;}.cls-5{fill:#eaeced;}.cls-6{fill:#dd8793;stroke-width:0.26px;}.cls-7{stroke-width:1.83px;}.cls-10{fill:#ffebc8;}.cls-11{fill:#efd3a5;}.cls-12{fill:#ff92ab;}.cls-13{fill:#fffefd;}.cls-14{fill:#fff6ee;}.cls-15{fill:#3c0000;}</style></defs><path class="cls-1" d="M46,5.56s.15-4.22.89-4.74S53.43.6,54.25,1s1,4.59,1,4.59Z"/><path class="cls-2" d="M45.77,5.38s.14-3.55.81-4.21S52.2.5,53.83.87s1.11,4.59,1.11,4.59"/><path class="cls-3" d="M64.31,50a17.27,17.27,0,0,1-1.47,3c-.74,1.18-26,4.44-26,4.44C7,59.79,11.6,56.3,6.81,54.86c-1.15-.35-1.69-.57-1.69-.57-7.7-7.4-2.37-38.75-2.37-38.75.89-9.91,5.77-9.61,5.77-9.61l49.15-.6C66,8.15,65.36,25.43,66.1,35.79A32.77,32.77,0,0,1,64.31,50Z"/><path class="cls-4" d="M4.67,14.71s22.46-1.58,37.75-1.19,21.21,1,21.21,1,0-9.77-8.09-9.27-34.89.29-34.89.29S7.83,5.93,6.15,7s-2.76,5.53-2.86,7.75Z"/><path class="cls-1" d="M12.15,5.56s.14-4.22.88-4.74S19.54.6,20.36,1s1,4.59,1,4.59Z"/><path class="cls-3" d="M30.21,7.8s3.94-.64,4.58-.25.89,3.65.84,4.1-3.4,1.08-4.54.74a4.9,4.9,0,0,1-2-1.48Z"/><path class="cls-5" d="M5.86,14.61A10.29,10.29,0,0,1,8.62,9.38C10.89,7.21,53.08,7.6,56.14,7.5a4.8,4.8,0,0,1,4.63,3.36,32.72,32.72,0,0,1,.69,3.35l2.17.3s-.29-8.88-8.09-9.27-47,.69-47,.69-4,1.87-4.14,3.25-1.09,6-1.09,6Z"/><path class="cls-6" d="M59.29,14.51S61.66,31.06,59,42.6,48.49,52.81,43,52.81s14.65,2.07,18.49-.74,3.85-5.33,3.85-5.33,1.87-19.5-1.73-32.23l-4.56-.44Z"/><path class="cls-7" d="M3.59,11.23s-6.21,34,.3,42,52.1,4.59,58.76-.3,1.93-37.71-.15-43S56.88,5.46,49.78,5.16s-34.94.45-38,.59S5.22,5.46,3.59,11.23Z"/><path class="cls-2" d="M5.22,14.74c13.59-1.08,25.25-1,25.25-1"/><path class="cls-7" d="M29.77,8a6.54,6.54,0,0,0-.15,3.29c.44,1.34,5.15.74,5.82.37s.15-3.21-.3-3.88S30.51,7.32,29.77,8Z"/><path class="cls-2" d="M11.88,5.38s.15-3.55.81-4.21S18.32.5,19.94.87s1.11,4.59,1.11,4.59"/><path class="cls-2" d="M34.68,13.89s12.44-.44,24.42.3"/><line class="cls-8" x1="5.81" y1="20.16" x2="8.57" y2="20.21"/><line class="cls-8" x1="5.12" y1="23.81" x2="8.77" y2="23.71"/><line class="cls-8" x1="4.92" y1="27.65" x2="8.67" y2="27.75"/><line class="cls-8" x1="4.63" y1="41.39" x2="8.38" y2="41.49"/><line class="cls-8" x1="5.52" y1="45.44" x2="9.26" y2="45.53"/><line class="cls-8" x1="7" y1="48.99" x2="9.59" y2="49.09"/><line class="cls-8" x1="4.73" y1="32.61" x2="8.38" y2="32.61"/><line class="cls-8" x1="4.92" y1="37.15" x2="8.57" y2="37.15"/><line class="cls-8" x1="61.91" y1="20.55" x2="59.15" y2="20.6"/><line class="cls-8" x1="62.6" y1="24.2" x2="58.95" y2="24.1"/><line class="cls-8" x1="62.8" y1="28.05" x2="59.05" y2="28.15"/><line class="cls-8" x1="63.1" y1="41.79" x2="59.35" y2="41.88"/><line class="cls-8" x1="62.21" y1="45.83" x2="58.46" y2="45.93"/><line class="cls-8" x1="60.73" y1="49.38" x2="58.14" y2="49.48"/><line class="cls-8" x1="63" y1="32.61" x2="59.35" y2="32.61"/><line class="cls-8" x1="62.8" y1="37.54" x2="59.15" y2="37.54"/><path class="cls-9" d="M43.49,76.7A3.68,3.68,0,0,1,47,73.92h0a3.67,3.67,0,0,1,3.54,2.78Z"/><path class="cls-9" d="M26,73.59A3.66,3.66,0,0,1,27.08,78l-5.62-4.34a3.52,3.52,0,0,1,1.82-.76A3.6,3.6,0,0,1,26,73.59Z"/><path class="cls-10" d="M27.59,69.6a13.8,13.8,0,0,1-1.3,2.13A5.2,5.2,0,0,0,25,71.25a13.66,13.66,0,0,0,1.32-2.1A5.11,5.11,0,0,0,27.59,69.6Z"/><path class="cls-10" d="M45.37,68a13.92,13.92,0,0,1,.79,4.28,5.26,5.26,0,0,0-1.3.38,12.51,12.51,0,0,0-.77-4.36A3.44,3.44,0,0,1,45.37,68Z"/><path class="cls-6" d="M49.84,67.36a.18.18,0,0,1-.07.22.18.18,0,0,1-.23,0c-.21-.11-.41-.23-.62-.36a5.37,5.37,0,0,0-2.86-1h-.41a5.29,5.29,0,0,0-3.14.94h0l-.1.07a4,4,0,0,1-4.67,0,5.74,5.74,0,0,0-6.52,0,4,4,0,0,1-4.67,0l-.07,0h0a5.72,5.72,0,0,0-6.42.07c-.21.13-.41.25-.62.36a.18.18,0,0,1-.23,0,.2.2,0,0,1-.07-.23l4.37-13.24,1.1.44a2.37,2.37,0,0,0-.88,3.05,2.41,2.41,0,0,0,1.47,1.27,21.72,21.72,0,0,0,6.14.9,16.26,16.26,0,0,0,9.15-2.58A14.35,14.35,0,0,0,43,55l.41-.13h0l.11,0h0c.63-.21,1.25-.46,1.86-.72Z"/><path class="cls-11" d="M45.74,69.23A11.16,11.16,0,0,0,45.37,68a3.44,3.44,0,0,0-1.28.3c.13.35.24.7.34,1.06a6.14,6.14,0,0,1,1.22-.12Z"/><path class="cls-11" d="M26,69.88l.49.29s0,0,0,0l.07,0c.19.12.36.23.54.32.19-.31.36-.63.52-1a5.11,5.11,0,0,1-1.24-.45C26.22,69.4,26.09,69.64,26,69.88Z"/><path class="cls-10" d="M47.59,55a12.11,12.11,0,0,0,9.06-5.67.87.87,0,0,0,0-.94,2.07,2.07,0,0,1-.32-1,2,2,0,0,1,.57-1.5,2,2,0,0,1,1.44-.67,2.05,2.05,0,0,1,2.12,2.07,2,2,0,0,1-1.87,2.05.87.87,0,0,0-.66.42A13.49,13.49,0,0,1,48,56.22Z"/><path class="cls-10" d="M43.63,51.37A16.58,16.58,0,0,1,42.53,53l-.39.46c-.07.08-.14.17-.23.26a12.82,12.82,0,0,1-2.42,2.07A14.54,14.54,0,0,1,31.3,58a19.82,19.82,0,0,1-5.64-.83.62.62,0,0,1-.4-.34.66.66,0,0,1,0-.55.64.64,0,0,1,.6-.4.58.58,0,0,1,.19,0,17.94,17.94,0,0,0,9,.37h.05A12,12,0,0,0,42.36,51a.87.87,0,0,0,0-.94A1.92,1.92,0,0,1,42,49a2,2,0,0,1,.56-1.49A2,2,0,0,1,44,46.84h0a2.07,2.07,0,0,1,2.13,2.06A2.06,2.06,0,0,1,44.3,51,.86.86,0,0,0,43.63,51.37Z"/><path class="cls-12" d="M30.83,41.61h7.28a3.64,3.64,0,0,1-7.28,0Z"/><path class="cls-10" d="M34.47,18.62c-10.7,0-19.4,8.17-19.4,18.21a17.48,17.48,0,0,0,4.72,11.9A18.78,18.78,0,0,0,23.7,52a17.53,17.53,0,0,0,2.22,1.2,26.45,26.45,0,0,0,7.57,1.39l.48,0h.75a9.83,9.83,0,0,0,4.09-2.15,10.25,10.25,0,0,0,1.8-2,4.11,4.11,0,0,1-.32-1.34,3.85,3.85,0,0,1,1-2.76,3.77,3.77,0,0,1,5.43-.15,3.73,3.73,0,0,1,1.16,2.72,3.56,3.56,0,0,1,0,.57,3.87,3.87,0,0,1-.17.67,19.08,19.08,0,0,0,1.44-1.4,17.58,17.58,0,0,0,4.73-11.91C53.87,26.79,45.17,18.62,34.47,18.62ZM24.3,35.19a2.07,2.07,0,1,1-2.07,2.07A2.07,2.07,0,0,1,24.3,35.19Zm15.55,6.26a5.39,5.39,0,1,1-10.77,0v-.71a.87.87,0,0,1,.87-.87h9a.86.86,0,0,1,.87.87Zm.82-12.05a3.72,3.72,0,0,1-3.09-1.91,3.49,3.49,0,0,1-6.22,0,3.74,3.74,0,0,1-3.09,1.91c-2.2,0-4-2.3-4-5.11a.87.87,0,1,1,1.74,0c0,1.82,1,3.37,2.24,3.37s2.23-1.55,2.23-3.37a.87.87,0,1,1,1.74,0c0,1.82,1,3.37,2.23,3.37s2.23-1.55,2.23-3.37a.87.87,0,0,1,1.74,0c0,1.82,1,3.37,2.23,3.37s2.24-1.55,2.24-3.37a.87.87,0,1,1,1.74,0C44.65,27.1,42.86,29.4,40.67,29.4Zm4,9.93a2.07,2.07,0,1,1,2.07-2.07A2.07,2.07,0,0,1,44.63,39.33Z"/><path class="cls-13" d="M47.7,50.14l.2-.18a3,3,0,0,0,0-.43A3.2,3.2,0,0,1,47.7,50.14Z"/><path class="cls-13" d="M40.29,50.35a3.32,3.32,0,0,0,.06.44l.26-.36a3.8,3.8,0,0,1-.26-.89A3.69,3.69,0,0,0,40.29,50.35Z"/><path class="cls-14" d="M34.47,19.88c10.48,0,19.05,7.85,19.38,17.61,0-.22,0-.44,0-.66,0-10-8.7-18.21-19.4-18.21s-19.4,8.17-19.4,18.21c0,.22,0,.44,0,.66C15.42,27.73,24,19.88,34.47,19.88Z"/><path class="cls-15" d="M61,44.53a3.77,3.77,0,0,0-2.76-1.08h-.05a4.15,4.15,0,0,0-3.6,4.47,4.39,4.39,0,0,0,.27.87,10.27,10.27,0,0,1-7.56,4.46l4.6-5.19a19.14,19.14,0,0,0,3.67-11.23c0-11-9.48-19.95-21.14-19.95s-21.14,9-21.14,20A19.15,19.15,0,0,0,17,48.05h0a24.29,24.29,0,0,0,5,5l-.12.38L17.44,66.81a2,2,0,0,0,.6,2.1,2,2,0,0,0,2.16.25c.27-.14.51-.3.74-.44A3.75,3.75,0,0,1,23.28,68a3.47,3.47,0,0,1,1.56.31,11.34,11.34,0,0,1-2,2.89,5.41,5.41,0,0,0-3.33,2,.87.87,0,0,0,.16,1.22l7.16,5.54a.85.85,0,0,0,.53.18h.11a.81.81,0,0,0,.58-.33,5.32,5.32,0,0,0,1.08-4,5.24,5.24,0,0,0-1.42-3,15.73,15.73,0,0,0,1.78-3.1,5.4,5.4,0,0,0,2.68-1,4,4,0,0,1,4.67,0,5.43,5.43,0,0,0,3.26,1,5.2,5.2,0,0,0,2.49-.57,11.41,11.41,0,0,1,.5,4.79,5.41,5.41,0,0,0-1.41,3.63.88.88,0,0,0,.87.87h9.06a.88.88,0,0,0,.87-.87,5.39,5.39,0,0,0-4.54-5.32,15.64,15.64,0,0,0-.59-3.94c.23.12.45.25.68.4s.47.3.75.44a2,2,0,0,0,2.75-2.35l-2.94-8.92A15.05,15.05,0,0,0,59.19,51,3.8,3.8,0,0,0,61,44.53Zm-41.47,4a17.49,17.49,0,0,1-4.5-11.66c0-10,8.7-18.21,19.4-18.21s19.4,8.17,19.4,18.21A17.7,17.7,0,0,1,47.7,50.14a3.89,3.89,0,0,0,.21-1.24A3.83,3.83,0,0,0,44,45.1a3.78,3.78,0,0,0-2.67,1.23,3.85,3.85,0,0,0-1,2.76,4.11,4.11,0,0,0,.32,1.34,10.79,10.79,0,0,1-1.21,1.46,10,10,0,0,1-4.68,2.7H34l-.48,0a26.45,26.45,0,0,1-7.57-1.39A17.53,17.53,0,0,1,23.7,52,19.15,19.15,0,0,1,19.57,48.49ZM42.36,50A1.92,1.92,0,0,1,42,49a2,2,0,0,1,.56-1.49A2,2,0,0,1,44,46.84h0a2.07,2.07,0,0,1,2.13,2.06A2.06,2.06,0,0,1,44.3,51a.86.86,0,0,0-.67.41c-.23.38-.48.75-.75,1.12l-.35.46-.39.46c-.07.08-.14.17-.23.26a12.82,12.82,0,0,1-2.42,2.07A14.54,14.54,0,0,1,31.3,58a19.82,19.82,0,0,1-5.64-.83.62.62,0,0,1-.4-.34.66.66,0,0,1,0-.55.64.64,0,0,1,.6-.4.58.58,0,0,1,.19,0,17.94,17.94,0,0,0,9,.37h.05a11.85,11.85,0,0,0,6.37-4.07A13.68,13.68,0,0,0,42.36,51,.87.87,0,0,0,42.36,50ZM27.08,78l-5.62-4.34a3.52,3.52,0,0,1,1.82-.76,3.6,3.6,0,0,1,2.7.73A3.66,3.66,0,0,1,27.08,78Zm-.79-6.23A5.2,5.2,0,0,0,25,71.25a13.66,13.66,0,0,0,1.32-2.1,5.11,5.11,0,0,0,1.24.45A13.8,13.8,0,0,1,26.29,71.73Zm24.3,5h-7.1A3.68,3.68,0,0,1,47,73.92h0A3.67,3.67,0,0,1,50.59,76.7Zm-6.5-8.42a3.44,3.44,0,0,1,1.28-.3,13.92,13.92,0,0,1,.79,4.28,5.26,5.26,0,0,0-1.3.38A12.51,12.51,0,0,0,44.09,68.28Zm5.75-.92a.18.18,0,0,1-.07.22.18.18,0,0,1-.23,0c-.21-.11-.41-.23-.62-.36a5.37,5.37,0,0,0-2.86-1h-.41a5.29,5.29,0,0,0-3.14.94h0l-.1.07a4,4,0,0,1-4.67,0,5.74,5.74,0,0,0-6.52,0,4,4,0,0,1-4.67,0l-.07,0h0a5.72,5.72,0,0,0-6.42.07c-.21.13-.41.25-.62.36a.18.18,0,0,1-.23,0,.2.2,0,0,1-.07-.23l4.37-13.24,1.1.44a2.37,2.37,0,0,0-.88,3.05,2.41,2.41,0,0,0,1.47,1.27,21.72,21.72,0,0,0,6.14.9,16.26,16.26,0,0,0,9.15-2.58A14.35,14.35,0,0,0,43,55l.41-.13h0l.11,0h0c.63-.21,1.25-.46,1.86-.72Zm8.74-18a.87.87,0,0,0-.66.42A13.49,13.49,0,0,1,48,56.22L47.59,55a12.11,12.11,0,0,0,9.06-5.67.87.87,0,0,0,0-.94,2.07,2.07,0,0,1-.32-1,2,2,0,0,1,.57-1.5,2,2,0,0,1,1.44-.67,2.05,2.05,0,0,1,2.12,2.07A2,2,0,0,1,58.58,49.31Z"/><circle class="cls-15" cx="44.63" cy="37.26" r="2.07" transform="translate(-1.92 72.09) rotate(-76.66)"/><path class="cls-15" d="M43.78,23.42a.86.86,0,0,1,.87.87c0,2.81-1.79,5.11-4,5.11a3.72,3.72,0,0,1-3.09-1.91,3.49,3.49,0,0,1-6.22,0,3.74,3.74,0,0,1-3.09,1.91c-2.2,0-4-2.3-4-5.11a.87.87,0,1,1,1.74,0c0,1.82,1,3.37,2.24,3.37s2.23-1.55,2.23-3.37a.87.87,0,1,1,1.74,0c0,1.82,1,3.37,2.23,3.37s2.23-1.55,2.23-3.37a.87.87,0,0,1,1.74,0c0,1.82,1,3.37,2.23,3.37s2.24-1.55,2.24-3.37A.86.86,0,0,1,43.78,23.42Z"/><path class="cls-15" d="M39.85,40.74v.71a5.39,5.39,0,1,1-10.77,0v-.71a.87.87,0,0,1,.87-.87h9A.86.86,0,0,1,39.85,40.74Zm-1.74.87H30.83a3.64,3.64,0,0,0,7.28,0Z"/><circle class="cls-15" cx="24.3" cy="37.26" r="2.07" transform="translate(-17.56 52.31) rotate(-76.66)"/><path class="cls-11" d="M47.7,50.14a19.08,19.08,0,0,0,1.44-1.4c-.42.26-.84.5-1.27.73A3.87,3.87,0,0,1,47.7,50.14Z"/><path class="cls-11" d="M19.79,48.73A18.78,18.78,0,0,0,23.7,52a17.53,17.53,0,0,0,2.22,1.2,26.45,26.45,0,0,0,7.57,1.39l.48,0h.75a9.83,9.83,0,0,0,4.09-2.15,28.69,28.69,0,0,1-19-3.71Z"/><circle class="cls-6" cx="21.06" cy="43.67" r="2.39" transform="translate(-26.3 54.08) rotate(-76.65)"/><circle class="cls-6" cx="47.88" cy="43.67" r="2.39" transform="translate(-5.67 80.17) rotate(-76.65)"/><path class="cls-15" d="M58.28,43.45a4.21,4.21,0,0,0-3.65,4.47"/></svg>