<svg id="Layer_1" data-name="Layer 1" xmlns="http://www.w3.org/2000/svg" xmlns:xlink="http://www.w3.org/1999/xlink" viewBox="0 0 69.09 76.88"><defs><style>.cls-1{fill:none;}.cls-2{clip-path:url(#clip-path);}.cls-3{fill:#fffdfe;opacity:0.4;}.cls-4{fill:#3c0000;}.cls-5{fill:#f59f37;}.cls-6{fill:#f5b887;}.cls-7{fill:#fd974f;}.cls-8{fill:#ffebc8;}.cls-9{fill:#ffce8d;}.cls-10{fill:#efd3a5;}.cls-11{fill:#fff6ee;}.cls-12{fill:#ff92ab;}</style><clipPath id="clip-path"><polygon class="cls-1" points="2057.56 175.38 137.56 175.38 137.56 -904.62 2057.56 -902.32 2057.56 175.38"/></clipPath></defs><g class="cls-2"><path class="cls-3" d="M465.05-530h0c-228.24-.28-413.5,184.53-413.78,412.77L51.07,4.07l826.55,1,.21-121.29C878.1-344.46,693.3-529.71,465.05-530Z"/></g><path class="cls-4" d="M11,52.24a3.31,3.31,0,0,1-3.42-3.18V28.78l-.71-.36C.78,25.32,0,19.77,0,15.28a14.09,14.09,0,0,1,5.11-11C8.46,1.49,13.09,0,18.49,0A24.29,24.29,0,0,1,33.23,4.63l1.48,1.12,1.48-1.12A24.31,24.31,0,0,1,50.93,0c5.39,0,10,1.55,13.27,4.47a14.64,14.64,0,0,1,4.89,11.08c0,4.62-.5,9.8-6.51,12.87l-.7.36V49.06a3.32,3.32,0,0,1-3.42,3.18Z"/><path class="cls-5" d="M11,50.06a1.15,1.15,0,0,1-1.25-1V27.45l-1.89-1C2.92,24,2.17,19.62,2.17,15.28c0-7.37,6.12-13.11,16.32-13.11A22.25,22.25,0,0,1,31.92,6.35l2.79,2.14,2.8-2.14A22.2,22.2,0,0,1,50.93,2.17c10.2,0,16,6,16,13.38,0,4.34-.42,8.42-5.33,10.94l-1.88,1V49.06a1.15,1.15,0,0,1-1.25,1Z"/><path class="cls-6" d="M27.83,9.66a1.27,1.27,0,0,0,0,2.53A1.27,1.27,0,0,0,27.83,9.66Z"/><path class="cls-6" d="M9.46,14.94l-.15-.35a1.47,1.47,0,0,0-.53-.52L8.72,14a1.31,1.31,0,0,0-1.35,0l-.06.05a1,1,0,0,0-.41.37,1.16,1.16,0,0,0-.27.5,2,2,0,0,0,0,1,1.48,1.48,0,0,0,.51.74,1.36,1.36,0,0,0,.87.31,1.61,1.61,0,0,0,.71-.2,1.41,1.41,0,0,0,.66-.85A1.65,1.65,0,0,0,9.46,14.94Z"/><path class="cls-6" d="M18.06,6.72a1.71,1.71,0,0,0-2.44,0,1.74,1.74,0,0,0,0,2.44,1.74,1.74,0,0,0,2.44,0,1.74,1.74,0,0,0,.5-1.22A1.72,1.72,0,0,0,18.06,6.72Z"/><path class="cls-6" d="M44.14,9a1.24,1.24,0,0,0-.76-.59l-.17,0a1.16,1.16,0,0,0-.69,0,1.29,1.29,0,0,0-.58.33,1.38,1.38,0,0,0-.38.92,1.34,1.34,0,0,0,.38.92,1.23,1.23,0,0,0,.58.34,1.35,1.35,0,0,0,.69,0l.17,0,.3-.12a1,1,0,0,0,.36-.33,1.18,1.18,0,0,0,.27-.78A1.6,1.6,0,0,0,44.14,9Z"/><path class="cls-6" d="M57.35,43.33a1,1,0,0,0,0,1.92A1,1,0,0,0,57.35,43.33Z"/><path class="cls-6" d="M49.09,43.3a1.44,1.44,0,0,0-1-.42H48a1.42,1.42,0,0,0-1,.42,1.41,1.41,0,0,0,0,2,1.45,1.45,0,0,0,1,.41h.13a1.5,1.5,0,0,0,1-.41,1.43,1.43,0,0,0,.41-1A1.37,1.37,0,0,0,49.09,43.3Z"/><path class="cls-6" d="M14.67,45.25a1.66,1.66,0,0,0-1.08-.44h-.13a1.06,1.06,0,0,0-.58.13,1.11,1.11,0,0,0-.49.31,1.52,1.52,0,0,0,0,2.14l.31.24a1.54,1.54,0,0,0,.76.2h.13a1.61,1.61,0,0,0,1.08-.44,1.56,1.56,0,0,0,.44-1.08A1.52,1.52,0,0,0,14.67,45.25Z"/><path class="cls-6" d="M57.74,18.19l0,.1a1.19,1.19,0,0,0,2.28,0l0-.1C60.49,16.24,57.31,16.23,57.74,18.19Z"/><path class="cls-6" d="M16.4,25.07a1.43,1.43,0,0,0-2.09.1.9.9,0,0,0-.29.45,1,1,0,0,0-.12.54,1.43,1.43,0,0,0,.41,1,1.39,1.39,0,0,0,1,.41l.37-.05a1.62,1.62,0,0,0,1.07-1.09A1.39,1.39,0,0,0,16.4,25.07Z"/><path class="cls-6" d="M53.84,6.67a1.39,1.39,0,0,0-.4-.82h0a1.42,1.42,0,0,0-1.67-.22h0a1.47,1.47,0,0,0-.64.83l0,.37a1.35,1.35,0,0,0,.19.71,1.43,1.43,0,0,0,1.63.68,1.57,1.57,0,0,0,.7-.49,1.3,1.3,0,0,0,.29-.82A1,1,0,0,0,53.84,6.67Z"/><path class="cls-6" d="M56.37,26.38a1.62,1.62,0,0,0-1.26-1.13,1.48,1.48,0,0,0-1.62.66,1.64,1.64,0,0,0-.19.72,1.4,1.4,0,0,0,.42,1,2.87,2.87,0,0,0,.44.34,2,2,0,0,0,.4.16,1,1,0,0,0,.58,0,.59.59,0,0,0,.23,0,1.41,1.41,0,0,0,1-1.76Z"/><path class="cls-6" d="M36.75,43.92a1.41,1.41,0,0,0,0,2.82A1.41,1.41,0,0,0,36.75,43.92Z"/><path class="cls-6" d="M50.53,14.06l-.28-.22a1.43,1.43,0,0,0-.7-.18h-.13a1,1,0,0,0-.54.12,1,1,0,0,0-.44.29,1.36,1.36,0,0,0,0,1.95l.28.22a1.53,1.53,0,0,0,.7.19h.13a1.47,1.47,0,0,0,1-.41,1.4,1.4,0,0,0,0-2Z"/><path class="cls-7" d="M42.94,75.14h-7.1a3.65,3.65,0,0,1,7.1,0Z"/><path class="cls-7" d="M33.58,75.14h-7.1a3.65,3.65,0,0,1,7.1,0Z"/><path class="cls-8" d="M31.88,69.43,31,70.71a5.17,5.17,0,0,0-1-.1l-.55,0,.92-1.35.17-.25L30,68.1a4.69,4.69,0,0,0,1.3-.36l.47.79.12.2A.66.66,0,0,1,31.88,69.43Z"/><path class="cls-8" d="M39.94,70.64a4.92,4.92,0,0,0-1.53.07l-.87-1.29a.64.64,0,0,1,0-.69l.11-.19.48-.8a5.28,5.28,0,0,0,1.3.37l-.56.93.18.26Z"/><path class="cls-8" d="M59.89,57.94l-1.84,1.87a.63.63,0,0,1-.47.2h-.11c-5.22-.89-8.44-5-9.92-7.43l-.25-.76.47-.27.56-.25c1,1.79,3.81,6,8.53,7.25a1,1,0,0,0,.42,0Z"/><path class="cls-8" d="M21.89,52.49l0,.08C20.39,55,17.17,59.1,12,60a.7.7,0,0,1-.59-.18L9.53,57.94l2.61.61a1,1,0,0,0,.42,0c4.24-1.09,7-4.64,8.17-6.63C21.11,52.11,21.5,52.31,21.89,52.49Z"/><path class="cls-9" d="M50.08,65.79A.19.19,0,0,1,50,66a.2.2,0,0,1-.23,0,6.75,6.75,0,0,1-.62-.37,5.47,5.47,0,0,0-3.27-1,5.39,5.39,0,0,0-3.26,1,3.73,3.73,0,0,1-1.8.71,4.58,4.58,0,0,1-.53,0,3.58,3.58,0,0,1-2.07-.57L38,65.68a5.78,5.78,0,0,0-6.53,0l-.26.16a3.5,3.5,0,0,1-2.07.58,4.71,4.71,0,0,1-.53,0,3.77,3.77,0,0,1-1.81-.71,5.33,5.33,0,0,0-3.25-1,5.43,5.43,0,0,0-3.26,1,6.75,6.75,0,0,1-.62.37.22.22,0,0,1-.3-.26L23.5,53.18a28.77,28.77,0,0,0,6.65,1.73c.76.1,1.53.17,2.28.21a21.48,21.48,0,0,0,2.28.12,22.29,22.29,0,0,0,7.71-1.37,29.25,29.25,0,0,0,3.3-1.28Z"/><path class="cls-10" d="M31.31,67.74l.47.79-.34.22-.26.16a4,4,0,0,1-.78.38l.17-.25L30,68.1A4.69,4.69,0,0,0,31.31,67.74Z"/><path class="cls-10" d="M38.85,69l.18.26a4.25,4.25,0,0,1-.8-.39L38,68.75l-.34-.21.48-.8a5.28,5.28,0,0,0,1.3.37Z"/><path class="cls-4" d="M24.58,17.72a19.85,19.85,0,0,0-11,17.54,19.32,19.32,0,0,0,5.59,13.51.86.86,0,0,1,.32.31l0,.06,0,0a1,1,0,0,1,.11.75c0,.05,0,.1,0,.15a1.43,1.43,0,0,1,0,.22l0,.24a1.07,1.07,0,0,1-.13.31v0a.85.85,0,0,1-.13.25c-1.07,1.73-3.37,4.74-6.9,5.74L7,55.57A.87.87,0,0,0,6.2,57l3.93,4a2.37,2.37,0,0,0,1.71.71l.4,0a14.89,14.89,0,0,0,8-4.32l-2.59,7.85a2,2,0,0,0,.6,2.09,1.93,1.93,0,0,0,2.16.25c.27-.14.51-.29.74-.43a4,4,0,0,1,4.67,0,5.6,5.6,0,0,0,2.11.91l.54.92-2,3A5.38,5.38,0,0,0,24.64,76a.87.87,0,0,0,.87.87h9.05l.15,0,.15,0h9a.86.86,0,0,0,.87-.87,5.38,5.38,0,0,0-1.86-4.07l-2-3,.55-.92a5.64,5.64,0,0,0,2.09-.91,4,4,0,0,1,4.67,0c.23.14.47.29.75.44a2,2,0,0,0,2.75-2.35L49.14,57.4a15.05,15.05,0,0,0,8.06,4.32,2.43,2.43,0,0,0,.38,0A2.37,2.37,0,0,0,59.29,61l3.94-4a.89.89,0,0,0,.14-1,.88.88,0,0,0-1-.42L57.1,56.8c-4.17-1.18-6.61-5.14-7.34-6.5a61.49,61.49,0,0,0,3.36-5.17,19,19,0,0,0,2.77-9.87c0-11-9.5-20-21.18-20-.44,0-.87,0-1.29,0l-1.71.42,1.48-.41a22.3,22.3,0,0,0-7.77,2m-10.07,18c0-10,8.69-18.16,19.36-18.16s19.36,8.14,19.36,18.16c0,8-5.6,14.88-13.34,17.26a26,26,0,0,1-7.13.87C23.44,52.85,15.35,44.92,15.35,35.26ZM12,60a.7.7,0,0,1-.59-.18L9.53,57.94l2.61.61a1,1,0,0,0,.42,0c4.24-1.09,7-4.64,8.17-6.63.38.2.77.4,1.16.58l0,.08C20.39,55,17.17,59.1,12,60ZM26.48,75.14a3.65,3.65,0,0,1,7.1,0Zm3.53-7a4.69,4.69,0,0,0,1.3-.36l.59,1a.66.66,0,0,1,0,.7L31,70.71a5.17,5.17,0,0,0-1-.1l-.55,0L30.57,69Zm4.7,5.23a5.46,5.46,0,0,0-2-2l.62-.92a2.37,2.37,0,0,0,.07-2.56l-.57-1a3.48,3.48,0,0,1,1.89-.47,3.44,3.44,0,0,1,1.88.47l-.57,1a2.39,2.39,0,0,0,.08,2.56l.62.92A5.39,5.39,0,0,0,34.71,73.33Zm8.23,1.81h-7.1a3.65,3.65,0,0,1,7.1,0Zm-3-4.5a4.92,4.92,0,0,0-1.53.07l-.87-1.29a.64.64,0,0,1,0-.69l.59-1a5.28,5.28,0,0,0,1.3.37l-.56.93Zm10.14-4.85A.19.19,0,0,1,50,66a.2.2,0,0,1-.23,0,6.75,6.75,0,0,1-.62-.37,5.47,5.47,0,0,0-3.27-1,5.39,5.39,0,0,0-3.26,1,3.73,3.73,0,0,1-1.8.71,4.58,4.58,0,0,1-.53,0,3.58,3.58,0,0,1-2.07-.57L38,65.68a5.78,5.78,0,0,0-6.53,0l-.26.16a3.5,3.5,0,0,1-2.07.58,4.71,4.71,0,0,1-.53,0,3.77,3.77,0,0,1-1.81-.71,5.33,5.33,0,0,0-3.25-1,5.43,5.43,0,0,0-3.26,1,6.75,6.75,0,0,1-.62.37.22.22,0,0,1-.3-.26L23.5,53.18a28.77,28.77,0,0,0,6.65,1.73c.76.1,1.53.17,2.28.21a21.48,21.48,0,0,0,2.28.12,22.29,22.29,0,0,0,7.71-1.37,29.25,29.25,0,0,0,3.3-1.28Zm8-6a.63.63,0,0,1-.47.2h-.11c-5.22-.89-8.44-5-9.92-7.43l-.25-.76.47-.27.56-.25c1,1.79,3.81,6,8.53,7.25a1,1,0,0,0,.42,0l2.61-.61Z"/><path class="cls-4" d="M33.19,15.33a22,22,0,0,0-8.61,2.39Z"/><path class="cls-8" d="M34.71,17.1C24,17.1,15.35,25.24,15.35,35.26a17.44,17.44,0,0,0,4.94,12.1,19.78,19.78,0,0,0,13.31,6,26,26,0,0,0,7.13-.87A19.38,19.38,0,0,0,50,46.33a17.29,17.29,0,0,0,4-11.07C54.07,25.24,45.38,17.1,34.71,17.1ZM44.3,33a.87.87,0,0,1-.3,1.19l-2.66,1.55L44,37.25a.88.88,0,0,1,.3,1.2.87.87,0,0,1-.75.42,1,1,0,0,1-.44-.11l-3.93-2.31a.88.88,0,0,1-.43-.76.85.85,0,0,1,.43-.74l3.93-2.31A.87.87,0,0,1,44.3,33Zm-5.21,12.1a.88.88,0,0,1-.77.44H31.1a.89.89,0,0,1-.77-.44.88.88,0,0,1,0-.89L34,38.49a.89.89,0,0,1,.74-.41.9.9,0,0,1,.74.41l3.61,5.67A.88.88,0,0,1,39.09,45.05ZM25.26,21.94a.87.87,0,1,1,1.73.18c-.11,1.07.14,1.92.65,2.17.8.39,2.44-.66,3.44-2.65a.87.87,0,0,1,1.65.48c-.11,1.07.13,1.92.63,2.17.81.39,2.45-.66,3.45-2.65a.87.87,0,0,1,1.65.48c-.12,1.07.13,1.92.63,2.17.8.39,2.45-.66,3.46-2.65a.86.86,0,0,1,1.17-.38.86.86,0,0,1,.38,1.16c-1.42,2.82-4,4.32-5.77,3.43A2.77,2.77,0,0,1,37,24.4c-1.37,1.48-3.08,2.11-4.41,1.45a2.73,2.73,0,0,1-1.31-1.44A4.64,4.64,0,0,1,28,26.12a2.6,2.6,0,0,1-1.16-.27C25.67,25.26,25.07,23.8,25.26,21.94Zm.17,12.2A.87.87,0,0,1,25.12,33a.86.86,0,0,1,1.19-.31L30.24,35a.87.87,0,0,1,.43.74.9.9,0,0,1-.43.76l-3.93,2.31a1,1,0,0,1-.44.11.87.87,0,0,1-.44-1.62l2.65-1.56Z"/><path class="cls-9" d="M33.6,57a26.79,26.79,0,0,0,7.13-.87,20,20,0,0,0,5.32-2.56l-.33-1a29.25,29.25,0,0,1-3.3,1.28,22.29,22.29,0,0,1-7.71,1.37,21.48,21.48,0,0,1-2.28-.12c-.75,0-1.52-.11-2.28-.21a28.77,28.77,0,0,1-6.65-1.73l-.13.41A20,20,0,0,0,33.6,57Z"/><path class="cls-11" d="M34.71,18.36c10.47,0,19,7.84,19.34,17.6,0-.23,0-.47,0-.7,0-10-8.69-18.16-19.36-18.16S15.35,25.24,15.35,35.26c0,.21,0,.43,0,.64C15.72,26.17,24.26,18.36,34.71,18.36Z"/><path class="cls-4" d="M44.3,33a.87.87,0,0,1-.3,1.19l-2.66,1.55L44,37.25a.88.88,0,0,1,.3,1.2.87.87,0,0,1-.75.42,1,1,0,0,1-.44-.11l-3.93-2.31a.88.88,0,0,1-.43-.76.85.85,0,0,1,.43-.74l3.93-2.31A.87.87,0,0,1,44.3,33Z"/><path class="cls-4" d="M43.72,21.26a.86.86,0,0,1,.38,1.16c-1.42,2.82-4,4.32-5.77,3.43A2.77,2.77,0,0,1,37,24.4c-1.37,1.48-3.08,2.11-4.41,1.45a2.73,2.73,0,0,1-1.31-1.44A4.64,4.64,0,0,1,28,26.12a2.6,2.6,0,0,1-1.16-.27c-1.2-.59-1.8-2.05-1.61-3.91a.87.87,0,1,1,1.73.18c-.11,1.07.14,1.92.65,2.17.8.39,2.44-.66,3.44-2.65a.87.87,0,0,1,1.65.48c-.11,1.07.13,1.92.63,2.17.81.39,2.45-.66,3.45-2.65a.87.87,0,0,1,1.65.48c-.12,1.07.13,1.92.63,2.17.8.39,2.45-.66,3.46-2.65A.86.86,0,0,1,43.72,21.26Z"/><path class="cls-4" d="M39.06,44.16a.86.86,0,0,1-.74,1.33H31.1a.89.89,0,0,1-.77-.44.88.88,0,0,1,0-.89L34,38.49a.89.89,0,0,1,.74-.41.9.9,0,0,1,.74.41Zm-2.32-.41-2-3.17-2,3.17Z"/><polygon class="cls-12" points="34.71 40.58 36.74 43.75 32.69 43.75 34.71 40.58"/><path class="cls-4" d="M30.24,35a.87.87,0,0,1,.43.74.9.9,0,0,1-.43.76l-3.93,2.31a1,1,0,0,1-.44.11.87.87,0,0,1-.44-1.62l2.65-1.56-2.65-1.55A.87.87,0,0,1,25.12,33a.86.86,0,0,1,1.19-.31Z"/><circle class="cls-9" cx="21.28" cy="42.11" r="2.39"/><circle class="cls-9" cx="48.1" cy="42.11" r="2.39" transform="translate(-3.94 79.24) rotate(-76.72)"/><path class="cls-10" d="M34.69,51.91c5.9,0,11.22-2.63,15.35-5.58a19.38,19.38,0,0,1-9.31,6.19,26,26,0,0,1-7.13.87,19.78,19.78,0,0,1-13.31-6C24.39,49.86,29.37,51.91,34.69,51.91Z"/></svg>