<?xml version="1.0" encoding="utf-8"?>
<!-- Generator: Adobe Illustrator 25.3.0, SVG Export Plug-In . SVG Version: 6.00 Build 0)  -->
<svg version="1.1" id="Layer_1" xmlns="http://www.w3.org/2000/svg" xmlns:xlink="http://www.w3.org/1999/xlink" x="0px" y="0px"
	 viewBox="0 0 2448.3 1527.6" style="enable-background:new 0 0 2448.3 1527.6;" xml:space="preserve">
<style type="text/css">
	.st0{fill:url(#SVGID_1_);}
	.st1{fill:url(#SVGID_2_);}
	.st2{fill:#41A863;}
	.st3{fill:#069E77;}
	.st4{fill:#FFDA00;}
</style>
<linearGradient id="SVGID_1_" gradientUnits="userSpaceOnUse" x1="0" y1="764.1757" x2="2445.3623" y2="764.1757">
	<stop  offset="0" style="stop-color:#E8E8E8"/>
	<stop  offset="0.4142" style="stop-color:#E5EAED"/>
	<stop  offset="0.8981" style="stop-color:#DEF1FB"/>
	<stop  offset="1" style="stop-color:#DCF3FF"/>
</linearGradient>
<rect class="st0" width="2445.4" height="1528.4"/>
<linearGradient id="SVGID_2_" gradientUnits="userSpaceOnUse" x1="1224.1678" y1="1154.8354" x2="1224.1678" y2="-441.6479" gradientTransform="matrix(1 0 0 -1 0 1080.74)">
	<stop  offset="0" style="stop-color:#A4D7F4"/>
	<stop  offset="0.22" style="stop-color:#A7D5F1"/>
	<stop  offset="0.43" style="stop-color:#B3D2EA"/>
	<stop  offset="0.65" style="stop-color:#C7CDDE"/>
	<stop  offset="0.86" style="stop-color:#E2C6CD"/>
	<stop  offset="1" style="stop-color:#FAC1C0"/>
</linearGradient>
<polygon class="st1" points="2448.3,1441.8 1575.7,1353.6 1312.4,1354.2 1217.2,1335.8 0,1333.9 0,-0.3 2448.3,-0.3 "/>
<g>
	<path class="st2" d="M0.1,1498.7c0,0,443.2-206.6,1301.9-145.3c0,0-291.3-229.4-565.7-48c0,0-188.6-168.2-461.3-118.9
		c0,0-184.3-82.9-274.8-54.1V1498.7z"/>
	<path class="st2" d="M1326.7,1351.3c0,0,800.3,32,1120.7,174.6v-297.1c0,0-115.4-3.2-196.6,22.4s-159,4.8-191.4,4
		c-32.4-0.8-215.6-5.6-299.9,96.9C1759.5,1352.1,1518,1295.3,1326.7,1351.3z"/>
	<g>
		<g>
			<path class="st3" d="M2333.3,1425.8c0,0,0-4.4,0-4.4C2333.3,1421.4,2333.3,1425.8,2333.3,1425.8L2333.3,1425.8z"/>
		</g>
	</g>
	<ellipse class="st4" cx="2124.7" cy="1344" rx="6.8" ry="8.8"/>
	<circle class="st4" cx="2374.9" cy="1331.3" r="8.8"/>
	<circle class="st4" cx="2276.6" cy="1347.1" r="6.4"/>
	<circle class="st4" cx="2249.6" cy="1290.7" r="6.4"/>
	<circle class="st4" cx="2346.2" cy="1279.3" r="6.4"/>
	<circle class="st4" cx="2348.9" cy="1372.1" r="6.4"/>
	<circle class="st4" cx="2417.9" cy="1386.1" r="6.4"/>
	<circle class="st4" cx="2346.2" cy="1434.3" r="6.4"/>
	<circle class="st4" cx="2411.5" cy="1475.3" r="6.4"/>
	<circle class="st4" cx="2288.3" cy="1421.9" r="6.4"/>
	<circle class="st4" cx="2183.2" cy="1372.1" r="6.4"/>
	<circle class="st4" cx="2240.4" cy="1397.8" r="6.4"/>
	<circle class="st4" cx="2222" cy="1336.8" r="9.2"/>
	<circle class="st4" cx="2166.4" cy="1304" r="8.9"/>
	<circle class="st4" cx="2039.7" cy="1347.1" r="6.6"/>
	<circle class="st4" cx="1471.2" cy="1350" r="8.2"/>
	<circle class="st4" cx="1140.1" cy="1305.7" r="8.2"/>
	<circle class="st4" cx="1033.1" cy="1273.5" r="9.8"/>
	<circle class="st4" cx="862.9" cy="1297.4" r="9.8"/>
	<circle class="st4" cx="420.1" cy="1219.2" r="9.8"/>
	<circle class="st4" cx="406.6" cy="1321.9" r="9.8"/>
	<circle class="st4" cx="309" cy="1273.6" r="9.8"/>
	<circle class="st4" cx="62.9" cy="1171.4" r="9.8"/>
	<circle class="st4" cx="280.1" cy="1229.4" r="9.8"/>
	<circle class="st4" cx="192.9" cy="1374.9" r="12.6"/>
	<circle class="st4" cx="53.1" cy="1321.9" r="12.6"/>
	<circle class="st4" cx="86.8" cy="1424.1" r="12.6"/>
	<circle class="st4" cx="140.4" cy="1232.3" r="16.1"/>
	<circle class="st4" cx="535" cy="1273.6" r="13"/>
	<circle class="st4" cx="1989.9" cy="1313.2" r="7.9"/>
	<circle class="st4" cx="1989.9" cy="1374.4" r="7.9"/>
	<circle class="st4" cx="2082.1" cy="1356.9" r="10.4"/>
	<circle class="st4" cx="1859.6" cy="1336.8" r="10.4"/>
	<circle class="st4" cx="1657.1" cy="1353.1" r="13"/>
</g>
</svg>
