<svg id="Layer_1" data-name="Layer 1" xmlns="http://www.w3.org/2000/svg" viewBox="0 0 76.94 64.09"><path d="M0,13.65C0,6,3.77,2.26,11.39,2.26h9.88V6.81H11.39c-4.58,0-6.83,2.25-6.83,6.84s2.25,6.84,6.83,6.84h9.88V25H11.39C3.77,25,0,21.27,0,13.65Z"/><path d="M38.44,29.35V24c0-4.37-2.47-6.83-6.84-6.83S24.76,19.66,24.76,24s2.46,6.84,6.84,6.84H43v4.55H31.6c-6.9,0-11.39-4.49-11.39-11.39S24.7,12.64,31.6,12.64,43,17.13,43,24v5.32Z"/><path d="M33,42.22c0-7.63,3.77-11.4,11.39-11.4h9.88v4.56H44.36c-4.58,0-6.83,2.25-6.83,6.84s2.25,6.83,6.83,6.83h9.88v4.56H44.36C36.74,53.61,33,49.84,33,42.22Z"/><path d="M57.46,27.92H54V26.05h8.88v1.87h-3.5v7.5H57.46Z"/><path d="M63.64,27.92h-3.5V26.05H69v1.87H65.51v7.5H63.64Z"/><path d="M76.94,26.05v1.87H69V26.05ZM69,28.55h1.87V29.8h4.55v1.87H70.89v1.88h6v1.87H69Z"/><path d="M27.94,2.3c1.28,1.58,1.41,2.94.46,4.16-.8,1-1.22,2-.54,3.18.1.17-.1.51-.18.87a2.7,2.7,0,0,1-.47-4c.79-1,1.2-2,.52-3.18C27.64,3.17,27.83,2.83,27.94,2.3Z"/><path d="M32.45,0c1.29,1.51,1.37,2.88.27,4.24a2.52,2.52,0,0,0-.47,2.88c.11.25-.07.63-.15,1.18-1.32-1.66-1.43-2.93-.4-4.23.77-1,1.18-1.88.53-3.07C32.12.8,32.34.43,32.45,0Z"/><path d="M36.55,10.58c-1.25-1.4-1.4-2.84-.45-4,.79-1,1.28-1.93.56-3.17-.1-.17.08-.52.15-.89a2.74,2.74,0,0,1,.54,3.91c-.81,1-1.33,2-.58,3.28C36.86,9.82,36.66,10.15,36.55,10.58Z"/><path d="M67.24,38.12a1.55,1.55,0,0,0-.1-1.95h0A7.53,7.53,0,0,0,64.74,42l-.26,0c-.1-.34-.19-.69-.28-1a2.24,2.24,0,0,0-1.57,2.12,2.53,2.53,0,0,0,4.82,1.19,2.44,2.44,0,0,0-.78-3.07.81.81,0,0,1-.36-1A5.37,5.37,0,0,1,67.24,38.12Z"/><path d="M61.53,41.64c-5.14,1.14-8.35,5.24-8.35,11,0,6.9,4.5,11.4,11.4,11.4H76V59.53H64.58c-4.38,0-6.84-2.46-6.84-6.84,0-3.55,1.62-5.84,4.57-6.57a4,4,0,0,1-1.15-3A3.82,3.82,0,0,1,61.53,41.64Z"/><path d="M76,58V52.69c0-5.3-2.66-9.17-7-10.68a3.93,3.93,0,0,1-.16,3A4,4,0,0,1,67.7,46.4c2.4.94,3.71,3.11,3.71,6.29V58Z"/><path d="M0,63.6V62.47H3.33a.26.26,0,0,0,.27-.26v-1.6a.27.27,0,0,0-.27-.26H.27V59.22H4.72V63.6Z"/><path d="M12,63.6V62.47h3.33a.25.25,0,0,0,.26-.26v-1.6a.26.26,0,0,0-.26-.26H12.31V59.22h4.44V63.6Z"/><path d="M24.22,63.6v-.71h2.43a.26.26,0,0,0,.26-.27V60.81h.72V63.6Zm1.35-1.77V60.19h.48v1.64Zm-1.35,0V60.19h.48v1.64Z"/><path d="M34.37,63.6V58.88h1.12v1a.27.27,0,0,0,.21.26l2.25.53v1.15l-2.13-.5h-.06a.27.27,0,0,0-.17.06.28.28,0,0,0-.1.21v2Z"/></svg>