<svg id="Layer_1" data-name="Layer 1" xmlns="http://www.w3.org/2000/svg" viewBox="0 0 66.32 89.44"><defs><style>.cls-1{fill:#d26088;}.cls-1,.cls-2,.cls-3{stroke:#3c0000;stroke-miterlimit:10;stroke-width:0.74px;}.cls-2{fill:#69a62c;}.cls-3{fill:#ffb8c8;}</style></defs><path class="cls-1" d="M33.2,80.53H26.13L27,87.37a1.82,1.82,0,0,0,1.69,1.7H38a1.83,1.83,0,0,0,1.7-1.81l.51-6.73Z"/><rect class="cls-1" x="39.54" y="69.61" width="0.62" height="11.49"/><rect class="cls-1" x="37.8" y="69.61" width="0.62" height="11.49"/><rect class="cls-1" x="27.96" y="70.1" width="0.62" height="11.49"/><rect class="cls-1" x="26.22" y="70.1" width="0.62" height="11.49"/><rect class="cls-1" x="26.27" y="80.53" width="13.79" height="1.75"/><path class="cls-2" d="M.37,28A24,24,0,0,0,3.52,39.84h0l.1.18.18.3c.12.2.23.39.36.59l.18.29.19.29.2.29.2.28c.06.1.13.19.2.29h0l.21.29c.09.12.18.25.28.37s.21.27.32.41H5.83L6.4,44,23.7,63.12l2.22,2.46H40.4l2.23-2.46,17.3-19.07.57-.63h-.11l.3-.39c.09-.11.18-.23.26-.35l.12-.15h0c.16-.22.32-.43.47-.66l.17-.24.24-.37.18-.27.41-.67L62.7,40a1.62,1.62,0,0,0,.1-.18A24,24,0,0,0,66,28a23.21,23.21,0,0,0-.42-4.44c-.06-.32-.12-.64-.2-.95,0-.14-.07-.29-.1-.43A26.75,26.75,0,0,0,56.35,8.46,36,36,0,0,0,33.16.37C17.4.37,4.24,9.74,1.09,22.23c0,.13-.07.26-.1.39s-.11.52-.16.77A23.5,23.5,0,0,0,.37,28Z"/><path class="cls-1" d="M66,28a24.19,24.19,0,0,1-.21,3.19A23.67,23.67,0,0,1,64.17,37a24.54,24.54,0,0,1-1.37,2.83,1.62,1.62,0,0,1-.1.18,2.69,2.69,0,0,0-.16.29l-.41.67-.19.27-.23.37-.17.24c-.15.23-.31.45-.47.66h0l0,.07s0,.06-.07.08l-.26.35-.3.39h.11l-.57.63L58.61,45.5l-16,17.62L40.4,65.58H25.93L23.7,63.12,7.71,45.5,6.4,44.05l-.57-.63h.11c-.11-.14-.22-.27-.32-.41l-.28-.37a.08.08,0,0,0,0,0l-.17-.25-.2-.29a3,3,0,0,1-.2-.29l-.2-.28-.19-.29-.18-.29c-.12-.19-.25-.39-.36-.59s-.12-.2-.17-.3l-.11-.18A28.32,28.32,0,0,1,2.15,37,23.77,23.77,0,0,1,.59,31.2,22.6,22.6,0,0,1,.37,28a24.37,24.37,0,0,1,.45-4.62c.05-.26.12-.51.18-.76s.06-.27.08-.4A26,26,0,0,1,7.73,10.56,28.32,28.32,0,0,1,11,7.65,36.23,36.23,0,0,1,33.16.37,36.26,36.26,0,0,1,55.34,7.65c.34.27.68.54,1,.82a29.75,29.75,0,0,1,2.25,2.09,26,26,0,0,1,6.63,11.63c0,.14.07.29.1.44.07.3.14.62.21.94A24.12,24.12,0,0,1,66,28Z"/><rect class="cls-1" x="25.88" y="65.58" width="14.57" height="5.08" rx="0.38"/><rect class="cls-3" x="15.28" y="22.71" width="35.75" height="5.28" rx="2.64"/><rect class="cls-3" x="15.28" y="30.34" width="35.75" height="5.28" rx="2.64"/><rect class="cls-3" x="15.28" y="37.97" width="35.75" height="5.28" rx="2.64"/></svg>