<?xml version="1.0" encoding="utf-8"?>
<!-- Generator: Adobe Illustrator 25.3.0, SVG Export Plug-In . SVG Version: 6.00 Build 0)  -->
<svg version="1.1" id="レイヤー_1" xmlns="http://www.w3.org/2000/svg" xmlns:xlink="http://www.w3.org/1999/xlink" x="0px"
	 y="0px" viewBox="0 0 3418.4 1921.9" style="enable-background:new 0 0 3418.4 1921.9;" xml:space="preserve">
<style type="text/css">
	.st0{fill:url(#SVGID_1_);}
	.st1{fill:#FFFFFF;}
	.st2{fill:#DADADA;}
	.st3{opacity:0.1;fill:#1D1D1B;enable-background:new    ;}
	.st4{opacity:0.5;}
	.st5{clip-path:url(#SVGID_3_);}
	.st6{fill:#9D9D9C;}
	.st7{fill:#41A863;}
	.st8{opacity:0.2;fill:#1D1D1B;enable-background:new    ;}
	.st9{fill:#47383A;}
	.st10{fill:#A45940;}
	.st11{fill:#5E4A4C;}
	.st12{fill:#F6AF49;}
	.st13{fill:#A7C2B9;}
	.st14{fill:#7D9894;}
	.st15{opacity:0.1;enable-background:new    ;}
	.st16{fill:#3C0000;stroke:#3C0000;stroke-width:1.9044;stroke-miterlimit:10;}
	.st17{fill:#6D6D6D;stroke:#3C0000;stroke-width:1.9044;stroke-miterlimit:10;}
	.st18{fill:#AD5151;stroke:#3C0000;stroke-width:1.9044;stroke-miterlimit:10;}
	.st19{fill:#3C0000;}
	.st20{fill:#D0D1D3;stroke:#232020;stroke-width:0.4673;stroke-miterlimit:10;}
	.st21{fill:none;stroke:#3C0000;stroke-width:1.862;stroke-linecap:round;stroke-miterlimit:10;}
	.st22{fill:#EB5160;stroke:#232020;stroke-width:0.4673;stroke-miterlimit:10;}
	.st23{fill:#D0D1D3;}
	.st24{fill:#EAECED;}
	.st25{fill:#DD8793;stroke:#232020;stroke-width:0.3752;stroke-miterlimit:10;}
	.st26{fill:none;stroke:#3C0000;stroke-width:2.7398;stroke-miterlimit:10;}
	.st27{fill:none;stroke:#232020;stroke-width:1.862;stroke-linecap:round;stroke-miterlimit:10;}
	.st28{fill:#EB5160;}
	.st29{fill:#FFEBC8;}
	.st30{fill:#EFD3A5;}
	.st31{fill:#FF92AB;}
	.st32{fill:#FFFEFD;}
	.st33{fill:#FFF6EE;}
	.st34{fill:#F59F37;}
	.st35{fill:#F5B887;}
	.st36{fill:#FD974F;}
	.st37{fill:#FFCE8D;}
	.st38{fill:#FFD5D5;}
	.st39{fill:#3D1C1F;}
	.st40{fill:#C7DDBC;}
	.st41{fill:#DBEAC5;}
	.st42{fill:#91C04F;}
	.st43{fill:#FD6161;}
	.st44{fill:#FDFDFD;}
	.st45{fill:#440E0A;}
	.st46{fill:#FDE8C6;}
	.st47{fill-rule:evenodd;clip-rule:evenodd;fill:#B86A39;}
	.st48{fill-rule:evenodd;clip-rule:evenodd;fill:#EEC26B;}
	.st49{fill-rule:evenodd;clip-rule:evenodd;fill:#B0602E;}
	.st50{fill-rule:evenodd;clip-rule:evenodd;fill:#BF774A;}
	.st51{fill-rule:evenodd;clip-rule:evenodd;fill:#BF784C;}
	.st52{fill-rule:evenodd;clip-rule:evenodd;fill:#CF906A;}
	.st53{fill-rule:evenodd;clip-rule:evenodd;fill:#3C0000;}
	.st54{fill:#EEC26B;}
	.st55{fill-rule:evenodd;clip-rule:evenodd;fill:#FFFFFF;}
	.st56{fill:#8C533D;}
	.st57{fill:#E2D7C2;}
</style>
<linearGradient id="SVGID_1_" gradientUnits="userSpaceOnUse" x1="1708.3324" y1="-1470.3538" x2="1708.3324" y2="661.2354" gradientTransform="matrix(1 0 0 1 0 1371.8101)">
	<stop  offset="0" style="stop-color:#9ED9FF"/>
	<stop  offset="0.21" style="stop-color:#A2D8FC"/>
	<stop  offset="0.41" style="stop-color:#AED5F5"/>
	<stop  offset="0.61" style="stop-color:#C1D0E8"/>
	<stop  offset="0.81" style="stop-color:#DDC9D6"/>
	<stop  offset="1" style="stop-color:#FFC1BF"/>
</linearGradient>
<rect class="st0" width="3416.7" height="1925.5"/>
<rect x="1.5" y="1754.7" class="st1" width="2003.6" height="12.1"/>
<polygon class="st2" points="2003,1785.6 1.5,1785.6 1.5,1764.7 2028.8,1764.7 "/>
<g>
	<path class="st3" d="M1913.8,1325.4v326H-2.9v-291.7h143.5v24.7h7.8v8.6h8.6v9.6h13.4l28.3,17.3v24.6h18v-108.7H326v124.3l35.1-14
		l41.2,16.5v-47.8h34.2v-8.5h3.3v-33.2h95v-1.2h2.9v-27.5l5.7-4.2h99.1l5.7,4.2v95.9l9.2-4.4l37.1-17.5l10.2,4.9v-3.7l4.6,2.4v3.4
		l17.5,8.2l17.5-8.2v-3.5l4.6-2.3v3.7l10.2-4.9l37.4,17.4l9.1,4.6v-48.8h-2.9v-52.8h2.9v-45.8l5.7-4.2h99.1l5.8,4.2v27.5h2.9v1.2
		h94.8v84.7h3.3v8.5h34.2v45.7l76.3-0.4v-288.9h109.3v273.2h18v-24.6l28.3-17.3h13.5v-9.6h8.6v-8.6h8v-75.1h122.4v211.9h42.6v-66.6
		l-2-1.4c1.2-0.8,2.4-1.6,3.6-2.3c1.5-0.9,2.7-1.6,4.1-2.3c10.4-5.2,21.8-8.3,33.4-9.2h1.1c0.3,0,0.7,0,1,0h0.5
		c2.2-0.2,4.5-0.3,6.7-0.2c19.5,0,37.4,4.9,50.2,13.6h-1.1l-0.1,4.1v64.4l20.7,11.9l4.1-105.3h18.5V1402h8.6v-5.2h7.9v-2.2h67.2v2.2
		h8.2v5.2h8.6v82.9h73.1v-2.1h4.4v2.1h21.3l15.2,11.9v-171.4L1913.8,1325.4z"/>
	<g class="st4">
		<rect x="110.3" y="1385.6" class="st1" width="13.8" height="13.4"/>
		<rect x="456" y="1399" class="st1" width="13.8" height="13.4"/>
		<rect x="477" y="1508.9" class="st1" width="13.8" height="13.4"/>
		<rect x="499.3" y="1508.9" class="st1" width="13.8" height="13.4"/>
		<rect x="506.2" y="1441" class="st1" width="13.8" height="13.4"/>
		<rect x="856.8" y="1360.7" class="st1" width="13.8" height="13.4"/>
		<rect x="856.8" y="1434.3" class="st1" width="13.8" height="13.4"/>
		<rect x="554.9" y="1442.7" class="st1" width="13.8" height="13.4"/>
		<rect x="983.1" y="1347.2" class="st1" width="13.8" height="13.4"/>
		<rect x="976.2" y="1412.1" class="st1" width="13.8" height="13.4"/>
		<rect x="983.1" y="1502.2" class="st1" width="13.8" height="13.4"/>
		<rect x="957.9" y="1347.2" class="st1" width="13.8" height="13.4"/>
		<rect x="932.6" y="1378.9" class="st1" width="13.8" height="13.4"/>
		<rect x="907.3" y="1347.2" class="st1" width="13.8" height="13.4"/>
		<rect x="907.3" y="1472.6" class="st1" width="13.8" height="13.4"/>
		<rect x="1362.8" y="1513.7" class="st1" width="13.8" height="13.4"/>
		<rect x="1515.4" y="1568.1" class="st1" width="13.8" height="13.4"/>
		<rect x="1678.3" y="1568.1" class="st1" width="13.8" height="13.4"/>
		<rect x="1726.8" y="1527.4" class="st1" width="13.8" height="13.4"/>
		<rect x="1776.8" y="1550.6" class="st1" width="13.8" height="13.4"/>
		<rect x="1801.8" y="1527.4" class="st1" width="13.8" height="13.4"/>
		<rect x="1542.5" y="1515.6" class="st1" width="13.8" height="13.4"/>
		<rect x="1611" y="1515.6" class="st1" width="13.8" height="13.4"/>
		<rect x="1329.4" y="1513.7" class="st1" width="13.8" height="13.4"/>
		<rect x="36.5" y="1444.3" class="st1" width="10.7" height="10.3"/>
		<rect x="137.3" y="1454.5" class="st1" width="8.5" height="17.8"/>
		<rect x="107.5" y="1433.3" class="st1" width="9.8" height="7.5"/>
		<rect x="124.1" y="1564.1" class="st1" width="9.8" height="7.5"/>
		<rect x="61.3" y="1522.5" class="st1" width="9.2" height="15.8"/>
		<rect x="31.8" y="1560" class="st1" width="9.2" height="15.8"/>
		<rect x="233.1" y="1360.6" class="st1" width="8.5" height="13.7"/>
		<rect x="250.9" y="1360.6" class="st1" width="8.5" height="13.7"/>
		<rect x="587.4" y="1360.6" class="st1" width="8.5" height="13.7"/>
		<rect x="623.6" y="1442.5" class="st1" width="8.5" height="13.7"/>
		<rect x="609.4" y="1561.1" class="st1" width="8.5" height="13.7"/>
		<rect x="605.1" y="1360.6" class="st1" width="8.5" height="13.7"/>
		<rect x="1136.1" y="1195.2" class="st1" width="8.5" height="13.7"/>
		<rect x="1175.9" y="1195.2" class="st1" width="8.5" height="13.7"/>
		<rect x="1156" y="1222.3" class="st1" width="8.5" height="13.7"/>
		<rect x="1136.1" y="1249.4" class="st1" width="8.5" height="13.7"/>
		<rect x="1175.9" y="1249.4" class="st1" width="8.5" height="13.7"/>
		<rect x="1215.6" y="1249.4" class="st1" width="8.5" height="13.7"/>
		<rect x="1195.8" y="1276.5" class="st1" width="8.5" height="13.7"/>
		<rect x="1215.6" y="1276.5" class="st1" width="8.5" height="13.7"/>
		<rect x="1136.1" y="1303.6" class="st1" width="8.5" height="13.7"/>
		<rect x="1327.8" y="1330.7" class="st1" width="8.5" height="13.7"/>
		<rect x="1348.8" y="1360.6" class="st1" width="8.5" height="13.7"/>
		<rect x="1411.6" y="1360.6" class="st1" width="8.5" height="13.7"/>
		<rect x="1369.7" y="1330.7" class="st1" width="8.5" height="13.7"/>
		<rect x="1632" y="1418.9" class="st1" width="8.5" height="13.7"/>
		<rect x="1654.4" y="1418.6" class="st1" width="8.5" height="13.7"/>
		<rect x="1654.4" y="1442.5" class="st1" width="8.5" height="13.7"/>
		<rect x="1654.4" y="1508.7" class="st1" width="8.5" height="13.7"/>
		<rect x="1654.4" y="1564.1" class="st1" width="8.5" height="13.7"/>
		<rect x="1699.1" y="1473.5" class="st1" width="8.5" height="13.7"/>
		<rect x="1676.7" y="1443.8" class="st1" width="8.5" height="13.7"/>
		<rect x="1407.3" y="1557.3" class="st1" width="8.5" height="13.7"/>
		<rect x="1495.2" y="1515.6" class="st1" width="8.5" height="13.7"/>
		<rect x="1495.2" y="1473.5" class="st1" width="8.5" height="13.7"/>
		<rect x="1606.7" y="1472.4" class="st1" width="8.5" height="13.7"/>
		<rect x="1411.6" y="1330.7" class="st1" width="8.5" height="13.7"/>
		<rect x="1390.6" y="1388.7" class="st1" width="8.5" height="13.7"/>
		<rect x="1411.6" y="1434.2" class="st1" width="8.5" height="13.7"/>
		<rect x="1267.8" y="1435.7" class="st1" width="8.5" height="13.7"/>
		<rect x="1297.6" y="1418.9" class="st1" width="8.5" height="13.7"/>
		<rect x="1344.5" y="1458.7" class="st1" width="8.5" height="13.7"/>
		<rect x="1156" y="1303.6" class="st1" width="8.5" height="13.7"/>
		<rect x="1175.9" y="1303.6" class="st1" width="8.5" height="13.7"/>
		<rect x="1863.8" y="1351" class="st1" width="8.5" height="13.7"/>
		<rect x="1887.9" y="1351" class="st1" width="8.5" height="13.7"/>
		<rect x="1848.2" y="1381.8" class="st1" width="8.5" height="13.7"/>
		<rect x="1887.9" y="1381.8" class="st1" width="8.5" height="13.7"/>
		<rect x="1887.9" y="1412.7" class="st1" width="8.5" height="13.7"/>
		<rect x="1848.2" y="1474.4" class="st1" width="8.5" height="13.7"/>
		<rect x="1887.9" y="1505.3" class="st1" width="8.5" height="13.7"/>
		<rect x="1868" y="1536.2" class="st1" width="8.5" height="13.7"/>
		<rect x="1887.9" y="1536.2" class="st1" width="8.5" height="13.7"/>
		<rect x="1848.2" y="1567.1" class="st1" width="8.5" height="13.7"/>
		<rect x="1195.8" y="1330.7" class="st1" width="8.5" height="13.7"/>
		<rect x="1136.1" y="1357.8" class="st1" width="8.5" height="13.7"/>
		<rect x="1195.8" y="1384.9" class="st1" width="8.5" height="13.7"/>
		<rect x="1215.6" y="1384.9" class="st1" width="8.5" height="13.7"/>
		<rect x="1156" y="1412" class="st1" width="8.5" height="13.7"/>
		<rect x="1195.8" y="1412" class="st1" width="8.5" height="13.7"/>
		<rect x="1136.1" y="1439.1" class="st1" width="8.5" height="13.7"/>
		<rect x="1215.6" y="1439.1" class="st1" width="8.5" height="13.7"/>
		<rect x="1136.1" y="1466.2" class="st1" width="8.5" height="13.7"/>
		<rect x="1215.6" y="1466.2" class="st1" width="8.5" height="13.7"/>
		<rect x="1175.9" y="1493.3" class="st1" width="8.5" height="13.7"/>
		<rect x="1215.6" y="1493.3" class="st1" width="8.5" height="13.7"/>
		<rect x="1136.1" y="1520.4" class="st1" width="8.5" height="13.7"/>
		<rect x="848.3" y="1322.8" class="st1" width="8.5" height="13.7"/>
		<rect x="1063.5" y="1488.3" class="st1" width="8.5" height="13.7"/>
		<rect x="1031.4" y="1440.8" class="st1" width="8.5" height="13.7"/>
		<rect x="490.8" y="1440.8" class="st1" width="8.5" height="13.7"/>
		<rect x="279.3" y="1434" class="st1" width="8.5" height="13.7"/>
		<rect x="279.3" y="1508.7" class="st1" width="8.5" height="13.7"/>
		<rect x="542.1" y="1508.7" class="st1" width="8.5" height="13.7"/>
		<rect x="773.4" y="1495.2" class="st1" width="8.5" height="13.7"/>
		<rect x="747.8" y="1442.5" class="st1" width="8.5" height="13.7"/>
		<rect x="828" y="1322.8" class="st1" width="8.5" height="13.7"/>
		<rect x="352.4" y="1465.5" class="st1" width="8.5" height="13.7"/>
		<rect x="550.6" y="1360.6" class="st1" width="8.5" height="13.7"/>
		<rect x="568.7" y="1395.6" class="st1" width="8.5" height="13.7"/>
		<rect x="688.9" y="1479.3" class="st1" width="8.5" height="13.7"/>
		<rect x="233.1" y="1434" class="st1" width="8.5" height="13.7"/>
		<rect x="292.7" y="1385.4" class="st1" width="8.5" height="13.7"/>
		<rect x="250.9" y="1385.4" class="st1" width="8.5" height="13.7"/>
		<rect x="259.4" y="1508.7" class="st1" width="8.5" height="13.7"/>
		<rect x="416.3" y="1442.5" class="st1" width="8.5" height="13.7"/>
		<rect x="669" y="1454.4" class="st1" width="8.5" height="13.7"/>
	</g>
	<g>
		<defs>
			<rect id="SVGID_2_" x="1915.3" y="1287.8" width="1503.1" height="362.6"/>
		</defs>
		<clipPath id="SVGID_3_">
			<use xlink:href="#SVGID_2_"  style="overflow:visible;"/>
		</clipPath>
		<g class="st5">
			<path class="st3" d="M3109.8,1332.7v470.4L1193,1658.7V1367h143.6v24.7h7.8v8.6h8.6v9.7h13.4l28.3,17.3v24.6h18v-108.8H1522
				v124.3l35.1-14l41.2,16.5v-47.8h34.2v-8.5h3.3v-33.2h95v-1.2h2.9v-27.6l5.7-4.2h99.1l5.7,4.2v95.9l9.2-4.4l37.1-17.5l10.2,4.9
				v-3.7l4.6,2.4v3.4l17.5,8.2l17.5-8.2v-3.4l4.6-2.3v3.7l10.2-4.9l37.4,17.4l9.1,4.6v-48.8h-2.9V1346h2.9v-45.8l5.7-4.2h99.1
				l5.8,4.2v27.5h2.9v1.2h94.8v84.8h3.3v8.5h34.2v45.7l76.3-0.4v-288.9h109.3v273.2h18v-24.6l28.3-17.3h13.5v-9.6h8.6v-8.6h8v-75.2
				h122.4v211.9h42.6v-66.6l-2-1.4c1.2-0.8,2.4-1.6,3.6-2.3c1.5-0.9,2.7-1.6,4.1-2.4c10.4-5.2,21.8-8.3,33.4-9.2h1.1
				c0.3,0,0.7,0,1,0h0.5c2.2-0.2,4.5-0.3,6.7-0.2c19.5,0,37.4,4.9,50.2,13.6h-1.1l-0.1,4.1v64.4l20.7,11.9l4.1-105.3h18.5v-25.7h8.6
				v-5.2h7.9v-2.2h67.2v2.2h8.2v5.2h8.6v82.9h73.1v-2.1h4.4v2.1h21.3l15.2,11.9v-171.4L3109.8,1332.7z"/>
			<g class="st4">
				<rect x="1306.2" y="1383.2" class="st1" width="13.8" height="13.4"/>
				<rect x="1652" y="1396.6" class="st1" width="13.8" height="13.4"/>
				<rect x="1672.9" y="1506.5" class="st1" width="13.8" height="13.4"/>
				<rect x="1695.3" y="1506.5" class="st1" width="13.8" height="13.4"/>
				<rect x="1702.2" y="1438.6" class="st1" width="13.8" height="13.4"/>
				<rect x="2052.7" y="1358.3" class="st1" width="13.8" height="13.4"/>
				<rect x="2052.7" y="1431.9" class="st1" width="13.8" height="13.4"/>
				<rect x="1750.8" y="1440.3" class="st1" width="13.8" height="13.4"/>
				<rect x="2179.1" y="1344.8" class="st1" width="13.8" height="13.4"/>
				<rect x="2172.1" y="1409.7" class="st1" width="13.8" height="13.4"/>
				<rect x="2179.1" y="1499.8" class="st1" width="13.8" height="13.4"/>
				<rect x="2153.8" y="1344.8" class="st1" width="13.8" height="13.4"/>
				<rect x="2128.5" y="1376.5" class="st1" width="13.8" height="13.4"/>
				<rect x="2103.3" y="1344.8" class="st1" width="13.8" height="13.4"/>
				<rect x="2103.3" y="1470.1" class="st1" width="13.8" height="13.4"/>
				<rect x="2558.7" y="1511.3" class="st1" width="13.8" height="13.4"/>
				<rect x="2711.3" y="1565.7" class="st1" width="13.8" height="13.4"/>
				<rect x="2874.3" y="1565.7" class="st1" width="13.8" height="13.4"/>
				<rect x="2922.7" y="1525" class="st1" width="13.8" height="13.4"/>
				<rect x="2972.8" y="1548.2" class="st1" width="13.8" height="13.4"/>
				<rect x="2997.8" y="1525" class="st1" width="13.8" height="13.4"/>
				<rect x="2738.5" y="1513.2" class="st1" width="13.8" height="13.4"/>
				<rect x="2806.9" y="1513.2" class="st1" width="13.8" height="13.4"/>
				<rect x="2525.3" y="1511.3" class="st1" width="13.8" height="13.4"/>
				<rect x="1232.4" y="1441.8" class="st1" width="10.7" height="10.3"/>
				<rect x="1333.2" y="1452.1" class="st1" width="8.5" height="17.8"/>
				<rect x="1303.4" y="1430.9" class="st1" width="9.8" height="7.5"/>
				<rect x="1320.1" y="1561.7" class="st1" width="9.8" height="7.5"/>
				<rect x="1257.2" y="1520" class="st1" width="9.2" height="15.8"/>
				<rect x="1227.8" y="1557.6" class="st1" width="9.2" height="15.8"/>
				<rect x="1429" y="1358.2" class="st1" width="8.5" height="13.7"/>
				<rect x="1446.8" y="1358.2" class="st1" width="8.5" height="13.7"/>
				<rect x="1783.3" y="1358.2" class="st1" width="8.5" height="13.7"/>
				<rect x="1819.5" y="1440.1" class="st1" width="8.5" height="13.7"/>
				<rect x="1805.3" y="1558.6" class="st1" width="8.5" height="13.7"/>
				<rect x="1801" y="1358.2" class="st1" width="8.5" height="13.7"/>
				<rect x="2332.1" y="1192.8" class="st1" width="8.5" height="13.7"/>
				<rect x="2371.8" y="1192.8" class="st1" width="8.5" height="13.7"/>
				<rect x="2351.9" y="1219.9" class="st1" width="8.5" height="13.7"/>
				<rect x="2332.1" y="1247" class="st1" width="8.5" height="13.7"/>
				<rect x="2371.8" y="1247" class="st1" width="8.5" height="13.7"/>
				<rect x="2411.6" y="1247" class="st1" width="8.5" height="13.7"/>
				<rect x="2391.7" y="1274.1" class="st1" width="8.5" height="13.7"/>
				<rect x="2411.6" y="1274.1" class="st1" width="8.5" height="13.7"/>
				<rect x="2332.1" y="1301.2" class="st1" width="8.5" height="13.7"/>
				<rect x="2523.7" y="1328.3" class="st1" width="8.5" height="13.7"/>
				<rect x="2544.7" y="1358.2" class="st1" width="8.5" height="13.7"/>
				<rect x="2607.5" y="1358.2" class="st1" width="8.5" height="13.7"/>
				<rect x="2565.6" y="1328.3" class="st1" width="8.5" height="13.7"/>
				<rect x="2827.9" y="1416.4" class="st1" width="8.5" height="13.7"/>
				<rect x="2850.3" y="1416.2" class="st1" width="8.5" height="13.7"/>
				<rect x="2850.3" y="1440.1" class="st1" width="8.5" height="13.7"/>
				<rect x="2850.3" y="1506.3" class="st1" width="8.5" height="13.7"/>
				<rect x="2850.3" y="1561.7" class="st1" width="8.5" height="13.7"/>
				<rect x="2895" y="1471.1" class="st1" width="8.5" height="13.7"/>
				<rect x="2872.6" y="1441.4" class="st1" width="8.5" height="13.7"/>
				<rect x="2603.2" y="1554.9" class="st1" width="8.5" height="13.7"/>
				<rect x="2691.2" y="1513.2" class="st1" width="8.5" height="13.7"/>
				<rect x="2691.2" y="1471.1" class="st1" width="8.5" height="13.7"/>
				<rect x="2802.6" y="1470" class="st1" width="8.5" height="13.7"/>
				<rect x="2607.5" y="1328.3" class="st1" width="8.5" height="13.7"/>
				<rect x="2586.6" y="1386.3" class="st1" width="8.5" height="13.7"/>
				<rect x="2607.5" y="1431.7" class="st1" width="8.5" height="13.7"/>
				<rect x="2463.8" y="1433.3" class="st1" width="8.5" height="13.7"/>
				<rect x="2493.6" y="1416.4" class="st1" width="8.5" height="13.7"/>
				<rect x="2540.4" y="1456.2" class="st1" width="8.5" height="13.7"/>
				<rect x="2351.9" y="1301.2" class="st1" width="8.5" height="13.7"/>
				<rect x="2371.8" y="1301.2" class="st1" width="8.5" height="13.7"/>
				<rect x="3059.7" y="1348.5" class="st1" width="8.5" height="13.7"/>
				<rect x="3083.9" y="1348.5" class="st1" width="8.5" height="13.7"/>
				<rect x="3044.1" y="1379.4" class="st1" width="8.5" height="13.7"/>
				<rect x="3083.9" y="1379.4" class="st1" width="8.5" height="13.7"/>
				<rect x="3083.9" y="1410.3" class="st1" width="8.5" height="13.7"/>
				<rect x="3044.1" y="1472" class="st1" width="8.5" height="13.7"/>
				<rect x="3083.9" y="1502.9" class="st1" width="8.5" height="13.7"/>
				<rect x="3064" y="1533.8" class="st1" width="8.5" height="13.7"/>
				<rect x="3083.9" y="1533.8" class="st1" width="8.5" height="13.7"/>
				<rect x="3044.1" y="1564.6" class="st1" width="8.5" height="13.7"/>
				<rect x="2391.7" y="1328.3" class="st1" width="8.5" height="13.7"/>
				<rect x="2332.1" y="1355.4" class="st1" width="8.5" height="13.7"/>
				<rect x="2391.7" y="1382.5" class="st1" width="8.5" height="13.7"/>
				<rect x="2411.6" y="1382.5" class="st1" width="8.5" height="13.7"/>
				<rect x="2351.9" y="1409.6" class="st1" width="8.5" height="13.7"/>
				<rect x="2391.7" y="1409.6" class="st1" width="8.5" height="13.7"/>
				<rect x="2332.1" y="1436.7" class="st1" width="8.5" height="13.7"/>
				<rect x="2411.6" y="1436.7" class="st1" width="8.5" height="13.7"/>
				<rect x="2332.1" y="1463.8" class="st1" width="8.5" height="13.7"/>
				<rect x="2411.6" y="1463.8" class="st1" width="8.5" height="13.7"/>
				<rect x="2371.8" y="1490.9" class="st1" width="8.5" height="13.7"/>
				<rect x="2411.6" y="1490.9" class="st1" width="8.5" height="13.7"/>
				<rect x="2332.1" y="1518" class="st1" width="8.5" height="13.7"/>
				<rect x="2044.2" y="1320.4" class="st1" width="8.5" height="13.7"/>
				<rect x="2259.4" y="1485.9" class="st1" width="8.5" height="13.7"/>
				<rect x="2227.3" y="1438.4" class="st1" width="8.5" height="13.7"/>
				<rect x="1686.7" y="1438.4" class="st1" width="8.5" height="13.7"/>
				<rect x="1475.2" y="1431.5" class="st1" width="8.5" height="13.7"/>
				<rect x="1475.2" y="1506.3" class="st1" width="8.5" height="13.7"/>
				<rect x="1738" y="1506.3" class="st1" width="8.5" height="13.7"/>
				<rect x="1969.3" y="1492.8" class="st1" width="8.5" height="13.7"/>
				<rect x="1943.7" y="1440.1" class="st1" width="8.5" height="13.7"/>
				<rect x="2024" y="1320.4" class="st1" width="8.5" height="13.7"/>
				<rect x="1548.3" y="1463.1" class="st1" width="8.5" height="13.7"/>
				<rect x="1746.6" y="1358.2" class="st1" width="8.5" height="13.7"/>
				<rect x="1764.7" y="1393.1" class="st1" width="8.5" height="13.7"/>
				<rect x="1884.8" y="1476.8" class="st1" width="8.5" height="13.7"/>
				<rect x="1429" y="1431.5" class="st1" width="8.5" height="13.7"/>
				<rect x="1488.7" y="1383" class="st1" width="8.5" height="13.7"/>
				<rect x="1446.8" y="1383" class="st1" width="8.5" height="13.7"/>
				<rect x="1455.3" y="1506.3" class="st1" width="8.5" height="13.7"/>
				<rect x="1612.2" y="1440.1" class="st1" width="8.5" height="13.7"/>
				<rect x="1864.9" y="1452" class="st1" width="8.5" height="13.7"/>
			</g>
		</g>
		<g class="st5">
			<path class="st3" d="M5027.7,1270.3v470.4l-1916.8-144.4v-291.7h143.6v24.7h7.8v8.6h8.6v9.7h13.4l28.3,17.3v24.6h18v-108.8h109.3
				V1405l35.1-14l41.2,16.5v-47.8h34.2v-8.5h3.3V1318h95v-1.2h2.9v-27.6l5.7-4.2h99.1l5.7,4.2v95.9l9.2-4.4l37.1-17.5l10.2,4.9v-3.7
				l4.6,2.4v3.4l17.5,8.2l17.5-8.2v-3.4l4.6-2.3v3.7l10.2-4.9l37.4,17.4l9.1,4.6v-48.8h-2.9v-52.8h2.9v-45.8l5.7-4.2h99.1l5.8,4.2
				v27.5h2.9v1.2h94.8v84.8h3.3v8.5h34.2v45.7l76.3-0.4v-288.9h109.3v273.2h18v-24.6l28.3-17.3h13.5v-9.6h8.6v-8.6h8V1254h122.4
				v211.9h42.6v-66.6l-2-1.4c1.2-0.8,2.4-1.6,3.6-2.3c1.5-0.9,2.7-1.6,4.1-2.4c10.4-5.2,21.8-8.3,33.4-9.2h1.1c0.3,0,0.7,0,1,0h0.5
				c2.2-0.2,4.5-0.3,6.7-0.2c19.5,0,37.4,4.9,50.2,13.6h-1.1l-0.1,4.1v64.4l20.7,11.9l4.1-105.3h18.5v-25.7h8.6v-5.2h7.9v-2.2h67.2
				v2.2h8.2v5.2h8.6v82.9h73.1v-2.1h4.4v2.1h21.3l15.2,11.9v-171.4L5027.7,1270.3z"/>
			<g class="st4">
				<rect x="3224.2" y="1320.7" class="st1" width="13.8" height="13.4"/>
				<rect x="3569.9" y="1334.1" class="st1" width="13.8" height="13.4"/>
				<rect x="3590.8" y="1444" class="st1" width="13.8" height="13.4"/>
				<rect x="3613.2" y="1444" class="st1" width="13.8" height="13.4"/>
				<rect x="3620.1" y="1376.1" class="st1" width="13.8" height="13.4"/>
				<rect x="3970.7" y="1295.8" class="st1" width="13.8" height="13.4"/>
				<rect x="3970.7" y="1369.4" class="st1" width="13.8" height="13.4"/>
				<rect x="3668.8" y="1377.8" class="st1" width="13.8" height="13.4"/>
				<rect x="4097" y="1282.3" class="st1" width="13.8" height="13.4"/>
				<rect x="4090.1" y="1347.2" class="st1" width="13.8" height="13.4"/>
				<rect x="4097" y="1437.3" class="st1" width="13.8" height="13.4"/>
				<rect x="4071.7" y="1282.3" class="st1" width="13.8" height="13.4"/>
				<rect x="4046.5" y="1314" class="st1" width="13.8" height="13.4"/>
				<rect x="4021.2" y="1282.3" class="st1" width="13.8" height="13.4"/>
				<rect x="4021.2" y="1407.7" class="st1" width="13.8" height="13.4"/>
				<rect x="4476.7" y="1448.8" class="st1" width="13.8" height="13.4"/>
				<rect x="4629.3" y="1503.2" class="st1" width="13.8" height="13.4"/>
				<rect x="4792.2" y="1503.2" class="st1" width="13.8" height="13.4"/>
				<rect x="4840.7" y="1462.5" class="st1" width="13.8" height="13.4"/>
				<rect x="4890.7" y="1485.7" class="st1" width="13.8" height="13.4"/>
				<rect x="4915.7" y="1462.5" class="st1" width="13.8" height="13.4"/>
				<rect x="4656.4" y="1450.7" class="st1" width="13.8" height="13.4"/>
				<rect x="4724.9" y="1450.7" class="st1" width="13.8" height="13.4"/>
				<rect x="4443.3" y="1448.8" class="st1" width="13.8" height="13.4"/>
				<rect x="3150.3" y="1379.4" class="st1" width="10.7" height="10.3"/>
				<rect x="3251.2" y="1389.6" class="st1" width="8.5" height="17.8"/>
				<rect x="3221.3" y="1368.4" class="st1" width="9.8" height="7.5"/>
				<rect x="3238" y="1499.2" class="st1" width="9.8" height="7.5"/>
				<rect x="3175.2" y="1457.6" class="st1" width="9.2" height="15.8"/>
				<rect x="3145.7" y="1495.1" class="st1" width="9.2" height="15.8"/>
				<rect x="3347" y="1295.7" class="st1" width="8.5" height="13.7"/>
				<rect x="3364.8" y="1295.7" class="st1" width="8.5" height="13.7"/>
				<rect x="3701.3" y="1295.7" class="st1" width="8.5" height="13.7"/>
				<rect x="3737.5" y="1377.6" class="st1" width="8.5" height="13.7"/>
				<rect x="3723.3" y="1496.2" class="st1" width="8.5" height="13.7"/>
				<rect x="3719" y="1295.7" class="st1" width="8.5" height="13.7"/>
				<rect x="4250" y="1130.3" class="st1" width="8.5" height="13.7"/>
				<rect x="4289.8" y="1130.3" class="st1" width="8.5" height="13.7"/>
				<rect x="4269.9" y="1157.4" class="st1" width="8.5" height="13.7"/>
				<rect x="4250" y="1184.5" class="st1" width="8.5" height="13.7"/>
				<rect x="4289.8" y="1184.5" class="st1" width="8.5" height="13.7"/>
				<rect x="4329.5" y="1184.5" class="st1" width="8.5" height="13.7"/>
				<rect x="4309.6" y="1211.6" class="st1" width="8.5" height="13.7"/>
				<rect x="4329.5" y="1211.6" class="st1" width="8.5" height="13.7"/>
				<rect x="4250" y="1238.7" class="st1" width="8.5" height="13.7"/>
				<rect x="4441.7" y="1265.8" class="st1" width="8.5" height="13.7"/>
				<rect x="4462.6" y="1295.7" class="st1" width="8.5" height="13.7"/>
				<rect x="4525.5" y="1295.7" class="st1" width="8.5" height="13.7"/>
				<rect x="4483.6" y="1265.8" class="st1" width="8.5" height="13.7"/>
				<rect x="4745.9" y="1354" class="st1" width="8.5" height="13.7"/>
				<rect x="4768.2" y="1353.7" class="st1" width="8.5" height="13.7"/>
				<rect x="4768.2" y="1377.6" class="st1" width="8.5" height="13.7"/>
				<rect x="4768.2" y="1443.8" class="st1" width="8.5" height="13.7"/>
				<rect x="4768.2" y="1499.2" class="st1" width="8.5" height="13.7"/>
				<rect x="4813" y="1408.6" class="st1" width="8.5" height="13.7"/>
				<rect x="4790.6" y="1378.9" class="st1" width="8.5" height="13.7"/>
				<rect x="4521.2" y="1492.4" class="st1" width="8.5" height="13.7"/>
				<rect x="4609.1" y="1450.7" class="st1" width="8.5" height="13.7"/>
				<rect x="4609.1" y="1408.6" class="st1" width="8.5" height="13.7"/>
				<rect x="4720.6" y="1407.5" class="st1" width="8.5" height="13.7"/>
				<rect x="4525.5" y="1265.8" class="st1" width="8.5" height="13.7"/>
				<rect x="4504.5" y="1323.8" class="st1" width="8.5" height="13.7"/>
				<rect x="4525.5" y="1369.2" class="st1" width="8.5" height="13.7"/>
				<rect x="4381.7" y="1370.8" class="st1" width="8.5" height="13.7"/>
				<rect x="4411.5" y="1354" class="st1" width="8.5" height="13.7"/>
				<rect x="4458.4" y="1393.8" class="st1" width="8.5" height="13.7"/>
				<rect x="4269.9" y="1238.7" class="st1" width="8.5" height="13.7"/>
				<rect x="4289.8" y="1238.7" class="st1" width="8.5" height="13.7"/>
				<rect x="4977.7" y="1286.1" class="st1" width="8.5" height="13.7"/>
				<rect x="5001.8" y="1286.1" class="st1" width="8.5" height="13.7"/>
				<rect x="4962.1" y="1316.9" class="st1" width="8.5" height="13.7"/>
				<rect x="5001.8" y="1316.9" class="st1" width="8.5" height="13.7"/>
				<rect x="5001.8" y="1347.8" class="st1" width="8.5" height="13.7"/>
				<rect x="4962.1" y="1409.5" class="st1" width="8.5" height="13.7"/>
				<rect x="5001.8" y="1440.4" class="st1" width="8.5" height="13.7"/>
				<rect x="4981.9" y="1471.3" class="st1" width="8.5" height="13.7"/>
				<rect x="5001.8" y="1471.3" class="st1" width="8.5" height="13.7"/>
				<rect x="4962.1" y="1502.2" class="st1" width="8.5" height="13.7"/>
				<rect x="4309.6" y="1265.8" class="st1" width="8.5" height="13.7"/>
				<rect x="4250" y="1292.9" class="st1" width="8.5" height="13.7"/>
				<rect x="4309.6" y="1320" class="st1" width="8.5" height="13.7"/>
				<rect x="4329.5" y="1320" class="st1" width="8.5" height="13.7"/>
				<rect x="4269.9" y="1347.1" class="st1" width="8.5" height="13.7"/>
				<rect x="4309.6" y="1347.1" class="st1" width="8.5" height="13.7"/>
				<rect x="4250" y="1374.2" class="st1" width="8.5" height="13.7"/>
				<rect x="4329.5" y="1374.2" class="st1" width="8.5" height="13.7"/>
				<rect x="4250" y="1401.3" class="st1" width="8.5" height="13.7"/>
				<rect x="4329.5" y="1401.3" class="st1" width="8.5" height="13.7"/>
				<rect x="4289.8" y="1428.4" class="st1" width="8.5" height="13.7"/>
				<rect x="4329.5" y="1428.4" class="st1" width="8.5" height="13.7"/>
				<rect x="4250" y="1455.5" class="st1" width="8.5" height="13.7"/>
				<rect x="3962.1" y="1257.9" class="st1" width="8.5" height="13.7"/>
				<rect x="4177.4" y="1423.4" class="st1" width="8.5" height="13.7"/>
				<rect x="4145.3" y="1375.9" class="st1" width="8.5" height="13.7"/>
				<rect x="3604.7" y="1375.9" class="st1" width="8.5" height="13.7"/>
				<rect x="3393.1" y="1369.1" class="st1" width="8.5" height="13.7"/>
				<rect x="3393.1" y="1443.8" class="st1" width="8.5" height="13.7"/>
				<rect x="3656" y="1443.8" class="st1" width="8.5" height="13.7"/>
				<rect x="3887.2" y="1430.3" class="st1" width="8.5" height="13.7"/>
				<rect x="3861.7" y="1377.6" class="st1" width="8.5" height="13.7"/>
				<rect x="3941.9" y="1257.9" class="st1" width="8.5" height="13.7"/>
				<rect x="3466.3" y="1400.6" class="st1" width="8.5" height="13.7"/>
				<rect x="3664.5" y="1295.7" class="st1" width="8.5" height="13.7"/>
				<rect x="3682.6" y="1330.7" class="st1" width="8.5" height="13.7"/>
				<rect x="3802.8" y="1414.4" class="st1" width="8.5" height="13.7"/>
				<rect x="3347" y="1369.1" class="st1" width="8.5" height="13.7"/>
				<rect x="3406.6" y="1320.5" class="st1" width="8.5" height="13.7"/>
				<rect x="3364.8" y="1320.5" class="st1" width="8.5" height="13.7"/>
				<rect x="3373.3" y="1443.8" class="st1" width="8.5" height="13.7"/>
				<rect x="3530.2" y="1377.6" class="st1" width="8.5" height="13.7"/>
				<rect x="3782.9" y="1389.5" class="st1" width="8.5" height="13.7"/>
			</g>
		</g>
	</g>
</g>
<rect x="4.7" y="1573.5" class="st6" width="3412" height="348.3"/>
<polygon class="st7" points="3416.7,1669.8 3416.7,1794.2 1922.4,1794.2 2015.8,1754.8 2217.6,1669.8 "/>
<polygon class="st1" points="3416.7,1662.4 3416.7,1677.1 2225.8,1677.1 2037.8,1754.8 1999.2,1754.8 2222.5,1662.4 "/>
<rect x="1.5" y="1764.3" class="st7" width="3415.2" height="157.6"/>
<polygon class="st2" points="3416.2,1675.1 3416.2,1689.8 2228.9,1689.8 2002.8,1785.6 1964.3,1785.6 2225.6,1675.1 "/>
<g>
	<path class="st8" d="M945,1690.5c0,4.7-6.2,8.6-13.8,8.6h-508c-7.6,0-13.8-3.8-13.8-8.6l0,0c0-4.7,6.2-8.6,13.8-8.6h508
		C938.9,1681.9,945,1685.8,945,1690.5z"/>
	<rect x="720.6" y="1417.3" class="st9" width="8.1" height="234.7"/>
	<rect x="598.7" y="1417.3" class="st9" width="8.1" height="234.7"/>
	<rect x="484.6" y="1592.4" class="st10" width="358.9" height="9.6"/>
	<rect x="466.8" y="1417.3" class="st9" width="18.1" height="234.7"/>
	<rect x="843.4" y="1417.3" class="st9" width="18.1" height="234.7"/>
	<rect x="436.2" y="1401.3" class="st11" width="455.9" height="16"/>
	<path class="st12" d="M861.3,1370.1H467c-17,0-30.8,13.8-30.8,30.8l0,0v0.3h455.9v-0.3C892.1,1383.9,878.3,1370.1,861.3,1370.1z"/>
	<rect x="491.8" y="1422.2" class="st13" width="100.7" height="165.2"/>
	<rect x="613.7" y="1422.2" class="st13" width="100.7" height="165.2"/>
	<rect x="735.6" y="1422.2" class="st13" width="100.7" height="165.2"/>
	<rect x="598.7" y="1370.1" class="st11" width="8.1" height="38.4"/>
	<rect x="475.8" y="1368.6" class="st11" width="8.1" height="40"/>
	<rect x="720.6" y="1370.1" class="st11" width="8.1" height="38.4"/>
	<rect x="843.4" y="1368.6" class="st11" width="8.1" height="40"/>
	<rect x="514.3" y="1417.3" class="st14" width="5.6" height="9"/>
	<rect x="564.4" y="1417.3" class="st14" width="5.6" height="9"/>
	<rect x="636.3" y="1417.3" class="st14" width="5.6" height="9"/>
	<rect x="686.4" y="1417.3" class="st14" width="5.6" height="9"/>
	<rect x="758.1" y="1417.3" class="st14" width="5.6" height="9"/>
	<rect x="808.2" y="1417.3" class="st14" width="5.6" height="9"/>
	<rect x="514.3" y="1582.8" class="st14" width="5.6" height="9"/>
	<rect x="564.4" y="1582.8" class="st14" width="5.6" height="9"/>
	<rect x="636.3" y="1582.8" class="st14" width="5.6" height="9"/>
	<rect x="686.4" y="1582.8" class="st14" width="5.6" height="9"/>
	<rect x="758.1" y="1582.8" class="st14" width="5.6" height="9"/>
	<rect x="808.2" y="1582.8" class="st14" width="5.6" height="9"/>
	<g class="st4">
		<polygon class="st1" points="795.7,1428.4 756.9,1579.2 794.6,1579.2 834,1428.4 		"/>
		<polygon class="st1" points="781.9,1428.4 743.6,1579.2 753.2,1579.2 791.6,1428.4 		"/>
	</g>
	<g class="st4">
		<polygon class="st1" points="672.1,1428.4 633.3,1579.2 671,1579.2 710.4,1428.4 		"/>
		<polygon class="st1" points="658.2,1428.4 620,1579.2 629.6,1579.2 668,1428.4 		"/>
	</g>
	<g class="st4">
		<polygon class="st1" points="548.4,1428.4 509.7,1579.2 547.4,1579.2 586.7,1428.4 		"/>
		<polygon class="st1" points="534.6,1428.4 496.3,1579.2 505.9,1579.2 544.4,1428.4 		"/>
	</g>
	<path class="st15" d="M825.8,1650.2v-37.7c0,0,0,37.7,7.3,39.1l-7.3,0.4L825.8,1650.2z"/>
	<path class="st15" d="M861.2,1650.2v-37.7c0,0,1,38.5-12.8,39.1l12.8,0.4L861.2,1650.2z"/>
	<rect x="289.1" y="1615.1" class="st16" width="10.7" height="63.9"/>
	<path class="st17" d="M316,1678h-42.9c-1.6,0-2.8,1.3-2.9,2.8l-0.1,3.9h48.7l0.1-3.7c0-1.6-1.2-2.9-2.8-3
		C316,1678,316,1678,316,1678L316,1678z"/>
	<path class="st18" d="M286,1531h17c15,0,27.2,12.2,27.2,27.2v67.5h-71.3v-67.4C258.8,1543.2,270.9,1531,286,1531
		C285.9,1531,285.9,1531,286,1531L286,1531z"/>
	<rect x="265.8" y="1557" class="st1" width="57.3" height="32.8"/>
	<path class="st19" d="M323.1,1591h-57.3c-0.6,0-1.1-0.5-1.1-1.1V1557c0-0.6,0.5-1.1,1.1-1.1h57.3c0.6,0,1.1,0.5,1.1,1.1v32.8
		C324.3,1590.5,323.8,1591,323.1,1591C323.2,1591,323.2,1591,323.1,1591L323.1,1591z M267,1588.6h54.9v-30.4H267L267,1588.6z"/>
	<rect x="265.8" y="1582.6" class="st19" width="57.3" height="7.2"/>
	<path class="st1" d="M276.1,1540h-2.1c-0.5,0-1,0.4-1,0.9v8.2c0,0.6,0.5,1,1.1,0.9c0.5,0,0.9-0.4,0.9-0.9v-2.9h1.1
		c1.7,0.2,3.3-1,3.5-2.8c0.2-1.7-1-3.3-2.8-3.5C276.7,1539.9,276.4,1539.9,276.1,1540z M276.1,1544.4h-1.1v-2.5h1.1
		c0.7-0.1,1.4,0.4,1.5,1.1c0.1,0.7-0.4,1.4-1.1,1.5C276.4,1544.4,276.3,1544.4,276.1,1544.4L276.1,1544.4L276.1,1544.4z"/>
	<path class="st1" d="M286.2,1540.3L286.2,1540.3c-0.5-0.3-1.1-0.5-1.7-0.5c-0.6,0-1.2,0.2-1.8,0.5c-2.6,2-3.1,5.7-1.2,8.3
		c0.3,0.4,0.7,0.8,1.2,1.2c1.1,0.6,2.4,0.6,3.4,0c2.6-2,3.1-5.6,1.2-8.2C287,1541,286.6,1540.6,286.2,1540.3L286.2,1540.3z
		 M285,1548.1c-0.2,0.1-0.4,0.2-0.6,0.2c-0.3,0-0.5-0.1-0.7-0.2c-1-0.7-1.5-1.9-1.4-3.1c0-1.2,0.5-2.3,1.4-3.1
		c0.2-0.1,0.5-0.2,0.7-0.2c0.2,0,0.5,0.1,0.7,0.2c0.9,0.8,1.4,1.9,1.4,3.1C286.6,1546.2,286,1547.4,285,1548.1L285,1548.1z"/>
	<path class="st1" d="M293.4,1543.9L293.4,1543.9c-1.1-0.3-1.8-0.6-1.8-1.1c0-0.2,0.1-0.4,0.3-0.6c0.3-0.3,0.7-0.4,1.1-0.4h0.1
		c0.6-0.1,1.1,0.3,1.3,0.8v0.1l0,0c0,0.1,0,0.3,0,0.4v0.1c0.1,0.4,0.5,0.7,1,0.6c0.5,0,1-0.4,1-0.9c0,0,0,0,0,0l0,0
		c-0.2-1.9-2-3.2-3.9-3c-1.5,0.2-2.7,1.3-2.9,2.8c0,2,2.1,2.6,3.2,3c0.6,0.2,2,0.6,2,1.5c0,0.9-0.8,1.1-1.5,1.1
		c-0.3,0-0.7-0.1-1-0.2l0,0c-0.3-0.2-0.6-0.4-0.6-0.8v-0.3c0,0,0,0,0-0.1l0,0c0-0.5-0.5-0.9-1-0.9c0,0,0,0,0,0l0,0
		c-0.5,0-1,0.4-1,0.9c0,1.9,1.5,3.2,3.7,3.2s3.5-1.2,3.5-3C296.8,1545.7,295.7,1544.5,293.4,1543.9z"/>
	<path class="st1" d="M303.2,1540.1h-5c-0.5,0-1,0.4-1,0.9c0,0.5,0.3,0.9,0.8,1h1.7v7.1c0,0.6,0.5,1,1.1,0.9c0.5,0,0.9-0.4,0.9-0.9
		v-7.1h1.5c0.5,0.1,1-0.3,1.1-0.8c0.1-0.5-0.3-1-0.8-1.1c0,0-0.1,0-0.1,0H303.2z"/>
	<path class="st1" d="M309.8,1545.8h-6.4c-0.4,0-0.7-0.3-0.7-0.7l0,0c0-0.4,0.3-0.7,0.7-0.7h6.4c0.4,0,0.7,0.3,0.7,0.7l0,0l0,0
		C310.6,1545.5,310.3,1545.8,309.8,1545.8L309.8,1545.8z"/>
	<path class="st1" d="M305.7,1540.6h3c0.4,0,0.7,0.3,0.7,0.7v0.1c0,0.4-0.3,0.7-0.7,0.7h-3c-0.4,0-0.7-0.3-0.7-0.7v-0.1
		C305,1540.9,305.3,1540.6,305.7,1540.6z"/>
	<path class="st1" d="M305.4,1547.9h9.8c0.4,0,0.7,0.3,0.7,0.7v0.3c0,0.4-0.3,0.7-0.7,0.7h-9.8c-0.4,0-0.7-0.3-0.7-0.7v-0.3
		C304.7,1548.2,305,1547.9,305.4,1547.9z"/>
	<path class="st20" d="M893.1,1582c0,0,0.2-6.3,1.3-7.1c1.1-0.8,9.8-0.3,11,0.2c1.2,0.6,1.4,6.9,1.4,6.9L893.1,1582z"/>
	<path class="st21" d="M892.7,1581.7c0,0,0.2-5.3,1.2-6.3c1-1,8.4-1,10.9-0.4s1.7,6.9,1.7,6.9"/>
	<path class="st22" d="M920.5,1648.6c-0.6,1.6-1.3,3.1-2.2,4.5c-1.1,1.8-39,6.7-39,6.7c-44.7,3.6-37.8-1.7-45-3.8
		c-0.9-0.2-1.7-0.5-2.5-0.8c-11.5-11.1-3.5-58.1-3.5-58.1c1.3-14.9,8.7-14.4,8.7-14.4l73.7-0.9c12.4,4.2,11.5,30.1,12.6,45.7
		C924,1637.3,922.2,1644.3,920.5,1648.6z"/>
	<path class="st23" d="M831.1,1595.7c0,0,33.7-2.4,56.6-1.8c23,0.6,31.8,1.5,31.8,1.5s0-14.6-12.1-13.9c-12.1,0.7-52.3,0.4-52.3,0.4
		s-19.2,0.6-21.8,2.2c-2.6,1.6-4.1,8.3-4.3,11.6L831.1,1595.7z"/>
	<path class="st20" d="M842.3,1582c0,0,0.2-6.3,1.3-7.1c1.1-0.8,9.8-0.3,11,0.2c1.2,0.6,1.4,6.9,1.4,6.9L842.3,1582z"/>
	<path class="st22" d="M869.4,1585.3c0,0,5.9-1,6.9-0.4c1,0.6,1.3,5.5,1.2,6.1s-5.1,1.6-6.8,1.1c-1.2-0.5-2.2-1.2-3-2.2
		L869.4,1585.3z"/>
	<path class="st24" d="M832.9,1595.6c0.6-3,2-5.7,4.1-7.8c3.4-3.3,66.7-2.7,71.3-2.8c3.2,0,6,2,6.9,5c0.4,1.3,1,5,1,5l3.3,0.4
		c0,0-0.5-13.3-12.1-13.9c-11.7-0.6-70.5,1-70.5,1s-6.1,2.8-6.2,4.9c-0.1,2.1-1.6,9-1.6,9L832.9,1595.6z"/>
	<path class="st25" d="M913,1595.4c0,0,3.5,24.8-0.4,42.1c-4,17.3-15.8,15.3-24,15.3s21.9,3.1,27.7-1.1c5.8-4.3,5.7-8,5.7-8
		s2.8-29.3-2.6-48.3l-6.9-0.7L913,1595.4z"/>
	<path class="st26" d="M829.5,1590.5c0,0-9.3,51,0.4,63c9.8,12,78.1,6.9,88.1-0.4c10-7.3,2.9-56.5-0.2-64.5c-3.1-8-8.4-6.7-19.1-7.1
		c-10.7-0.4-52.4,0.7-57.1,0.9C837,1582.6,831.9,1581.8,829.5,1590.5z"/>
	<path class="st21" d="M831.9,1595.8c20.4-1.6,37.9-1.4,37.9-1.4"/>
	<path class="st26" d="M868.7,1585.6c-0.5,1.6-0.6,3.3-0.2,5c0.7,2,7.7,1.1,8.7,0.6c1-0.6,0.2-4.8-0.4-5.8
		C876.1,1584.3,869.9,1584.6,868.7,1585.6z"/>
	<path class="st21" d="M841.9,1581.7c0,0,0.2-5.3,1.2-6.3c1-1,8.4-1,10.9-0.4c2.4,0.6,1.7,6.9,1.7,6.9"/>
	<path class="st21" d="M876.1,1594.5c0,0,18.6-0.7,36.6,0.4"/>
	<line class="st27" x1="832.8" y1="1603.9" x2="837" y2="1604"/>
	<line class="st27" x1="831.8" y1="1609.4" x2="837.3" y2="1609.2"/>
	<line class="st27" x1="831.5" y1="1615.1" x2="837.1" y2="1615.3"/>
	<line class="st27" x1="831" y1="1635.7" x2="836.7" y2="1635.9"/>
	<line class="st27" x1="832.4" y1="1641.8" x2="838" y2="1641.9"/>
	<line class="st27" x1="834.6" y1="1647.1" x2="838.5" y2="1647.3"/>
	<line class="st27" x1="831.2" y1="1622.6" x2="836.7" y2="1622.6"/>
	<line class="st27" x1="831.5" y1="1629.4" x2="837" y2="1629.4"/>
	<line class="st27" x1="916.9" y1="1604.5" x2="912.8" y2="1604.5"/>
	<line class="st27" x1="918" y1="1609.9" x2="912.5" y2="1609.8"/>
	<line class="st27" x1="918.3" y1="1615.7" x2="912.7" y2="1615.9"/>
	<line class="st27" x1="918.7" y1="1636.3" x2="913.1" y2="1636.5"/>
	<line class="st27" x1="917.4" y1="1642.4" x2="911.8" y2="1642.5"/>
	<line class="st27" x1="915.2" y1="1647.7" x2="911.3" y2="1647.8"/>
	<line class="st27" x1="918.6" y1="1622.6" x2="913.1" y2="1622.6"/>
	<line class="st27" x1="918.3" y1="1629.9" x2="912.8" y2="1629.9"/>
	<path class="st28" d="M889.3,1688.7c0.6-2.4,2.8-4.1,5.3-4.2h0.1c2.5,0,4.7,1.7,5.3,4.2L889.3,1688.7z"/>
	<path class="st28" d="M863,1684c2,1.5,2.7,4.3,1.7,6.6l-8.4-6.5C858.3,1682.5,861.1,1682.5,863,1684L863,1684z"/>
	<path class="st29" d="M865.4,1678c-0.5,1.1-1.2,2.2-1.9,3.2c-0.6-0.3-1.2-0.6-1.9-0.7c0.8-1,1.4-2,2-3.2
		C864.2,1677.7,864.8,1677.9,865.4,1678z"/>
	<path class="st29" d="M892.1,1675.6c0.7,2.1,1.1,4.2,1.1,6.4c-0.7,0.1-1.3,0.3-2,0.6c0-2.2-0.4-4.4-1.1-6.5
		C890.8,1675.8,891.5,1675.6,892.1,1675.6z"/>
	<path class="st25" d="M898.8,1674.7c0.1,0.1,0,0.3-0.1,0.3c-0.1,0.1-0.3,0.1-0.4,0c-0.3-0.2-0.6-0.3-0.9-0.5
		c-1.2-0.9-2.7-1.4-4.2-1.5h-0.6c-1.7,0-3.3,0.5-4.7,1.4l0,0l-0.1,0.1c-2.1,1.5-4.9,1.5-6.9,0c-1.4-1-3.1-1.6-4.9-1.5
		c-1.8,0-3.5,0.5-4.9,1.5c-1,0.7-2.2,1.2-3.4,1.1c-1.3,0-2.5-0.4-3.5-1.1l-0.1-0.1l0,0c-2.9-1.9-6.7-1.9-9.6,0.1
		c-0.3,0.2-0.6,0.4-0.9,0.5c-0.1,0.1-0.2,0.1-0.3,0c-0.1-0.1-0.1-0.2-0.1-0.4l6.6-19.8c0.5,0.2,1.1,0.4,1.6,0.7
		c-0.6,0.4-1.1,1-1.4,1.7c-0.8,1.8,0.1,3.9,2,4.7c0,0,0,0,0,0l0.3,0.1c3,0.9,6.1,1.3,9.2,1.4c4.9,0.1,9.7-1.2,13.8-3.9
		c1.4-0.9,2.7-2,3.9-3.3l0.6-0.2l0,0l0.2-0.1l0,0c0.9-0.3,1.9-0.7,2.8-1.1L898.8,1674.7z"/>
	<path class="st30" d="M892.7,1677.5c-0.2-0.6-0.3-1.3-0.5-1.9c-0.7,0-1.3,0.2-1.9,0.4c0.2,0.5,0.4,1.1,0.5,1.6
		c0.6-0.1,1.2-0.2,1.8-0.2L892.7,1677.5z"/>
	<path class="st30" d="M863,1678.4l0.7,0.4l0,0l0.1,0.1l0.8,0.5c0.3-0.5,0.5-0.9,0.8-1.4c-0.6-0.1-1.3-0.4-1.9-0.7
		C863.4,1677.7,863.2,1678.1,863,1678.4z"/>
	<path class="st29" d="M895.5,1656.1c5.6-0.6,10.6-3.7,13.6-8.5c0.3-0.4,0.3-1,0-1.4c-0.8-1.2-0.6-2.8,0.4-3.8
		c1.2-1.3,3.1-1.3,4.4-0.2c0.6,0.6,1,1.4,1,2.2v0.1c0,1.6-1.2,3-2.8,3.1c-0.4,0-0.8,0.3-1,0.6c-3.2,5.4-8.7,9-14.9,9.7L895.5,1656.1
		z"/>
	<path class="st29" d="M889.5,1650.7c-0.5,0.8-1.1,1.6-1.6,2.4l-0.6,0.7c-0.1,0.1-0.2,0.3-0.4,0.4c-1.1,1.2-2.3,2.2-3.6,3.1
		c-3.7,2.3-7.9,3.5-12.3,3.4c-2.9,0-5.7-0.4-8.5-1.3c-0.5-0.2-0.8-0.7-0.7-1.2c0,0,0-0.1,0-0.1c0.1-0.4,0.5-0.6,0.9-0.6h0.3
		c4.4,1.3,9,1.5,13.5,0.6l0,0c4.6-1.1,8.5-4,11-8c0.3-0.4,0.3-1,0-1.4c-0.3-0.4-0.5-1-0.5-1.5c0-0.8,0.3-1.7,0.8-2.3
		c0.5-0.6,1.3-1,2.1-1l0,0c0.9,0,1.7,0.3,2.3,0.9c0.6,0.6,0.9,1.4,0.9,2.2c0,1.6-1.2,3-2.8,3.1
		C890.1,1650.1,889.7,1650.3,889.5,1650.7z"/>
	<path class="st31" d="M870.3,1636.1h10.9c0,3-2.4,5.5-5.5,5.5C872.8,1641.5,870.3,1639.1,870.3,1636.1z"/>
	<path class="st29" d="M875.8,1601.6c-16.1,0-29.1,12.3-29.1,27.3c0,6.6,2.6,13,7.1,17.8c1.7,1.9,3.7,3.5,5.9,4.9
		c1.1,0.7,2.2,1.3,3.3,1.8c3.7,1.2,7.5,1.9,11.3,2.1h1.9c2.3-0.6,4.4-1.7,6.1-3.2c1-0.9,1.9-1.9,2.7-3c-1.2-2.9,0.1-6.3,3.1-7.5
		c2.9-1.2,6.3,0.1,7.5,3.1c0.3,0.7,0.4,1.4,0.4,2.1c0,0.6-0.1,1.3-0.3,1.8c0.8-0.7,1.5-1.4,2.1-2.1c4.5-4.8,7.1-11.2,7.1-17.9
		C904.9,1613.8,891.8,1601.6,875.8,1601.6z M860.5,1626.4c1.7,0,3.1,1.4,3.1,3.1s-1.4,3.1-3.1,3.1c-1.7,0-3.1-1.4-3.1-3.1l0,0
		C857.4,1627.8,858.8,1626.4,860.5,1626.4L860.5,1626.4L860.5,1626.4z M883.8,1635.8c-0.1,4.5-3.9,8-8.3,7.8
		c-4.3-0.1-7.7-3.6-7.8-7.8v-1.1c0-0.7,0.6-1.3,1.3-1.3h13.6c0.7,0,1.3,0.6,1.3,1.3l0,0L883.8,1635.8z M885.1,1617.7
		c-1.9-0.1-3.7-1.2-4.6-2.8c-1.3,2.6-4.5,3.6-7.1,2.3c-1-0.5-1.8-1.3-2.3-2.3c-0.9,1.7-2.7,2.7-4.6,2.8c-3.3,0-6-3.4-6-7.7
		c0-0.7,0.6-1.3,1.3-1.3c0.7,0,1.3,0.6,1.3,1.3c0,2.7,1.5,5.1,3.3,5.1s3.3-2.3,3.3-5.1c0.1-0.7,0.7-1.2,1.4-1.2
		c0.6,0.1,1.1,0.6,1.2,1.2c0,2.7,1.5,5.1,3.3,5.1c1.8,0,3.4-2.3,3.4-5.1c0.1-0.7,0.7-1.3,1.4-1.2c0.6,0,1.2,0.6,1.2,1.2
		c0,2.7,1.5,5.1,3.3,5.1c1.8,0,3.4-2.3,3.4-5.1c-0.1-0.7,0.5-1.3,1.2-1.4s1.3,0.5,1.4,1.2c0,0.1,0,0.1,0,0.2
		C891.1,1614.3,888.4,1617.7,885.1,1617.7L885.1,1617.7z M891,1632.6c-1.7,0-3.1-1.4-3.1-3.1c0-1.7,1.4-3.1,3.1-3.1s3.1,1.4,3.1,3.1
		c0,0,0,0,0,0l0,0C894.1,1631.2,892.7,1632.6,891,1632.6L891,1632.6z"/>
	<path class="st32" d="M895.6,1648.8l0.3-0.3c0-0.2,0-0.4-0.1-0.6C895.8,1648.2,895.7,1648.5,895.6,1648.8z"/>
	<path class="st32" d="M884.5,1649.1c0,0.2,0,0.4,0.1,0.7c0.1-0.2,0.3-0.3,0.4-0.5c-0.2-0.4-0.3-0.9-0.4-1.3
		C884.5,1648.3,884.5,1648.7,884.5,1649.1z"/>
	<path class="st33" d="M875.8,1603.5c15.7,0,28.6,11.8,29.1,26.4v-1c0-15.1-13-27.3-29.1-27.3c-16,0-29.1,12.2-29.1,27.3v1
		C847.2,1615.2,860.1,1603.5,875.8,1603.5z"/>
	<path class="st19" d="M915.6,1640.4c-1.1-1.1-2.6-1.7-4.1-1.6h-0.1c-3.3,0.4-5.7,3.4-5.4,6.7c0.1,0.4,0.2,0.9,0.4,1.3
		c-2.6,3.8-6.7,6.3-11.3,6.7l6.9-7.8c3.6-4.9,5.5-10.8,5.5-16.8c0-16.5-14.2-29.9-31.7-29.9s-31.7,13.5-31.7,29.9
		c0,6,1.9,11.9,5.5,16.8l0,0c2.1,2.8,4.7,5.3,7.5,7.4l-0.2,0.6l-6.6,20.1c-0.5,1.5,0.3,3.2,1.8,3.7c0.8,0.3,1.6,0.2,2.3-0.2
		c0.4-0.2,0.8-0.4,1.1-0.6c1-0.8,2.2-1.2,3.4-1.1c0.8,0,1.6,0.1,2.3,0.5c-0.8,1.6-1.8,3.1-3.1,4.3c-2,0.4-3.7,1.4-5,3
		c-0.4,0.6-0.3,1.4,0.2,1.8l0,0l10.9,8.4c0.2,0.2,0.5,0.3,0.8,0.3h0.2c0.3-0.1,0.7-0.2,0.9-0.5c2.4-3.1,2.2-7.6-0.5-10.5
		c1.1-1.4,2-3,2.7-4.6c1.4-0.1,2.8-0.6,4-1.5c2.1-1.5,4.9-1.5,7,0c1.4,1,3.1,1.6,4.9,1.5c1.3,0,2.6-0.3,3.7-0.9
		c0.7,2.3,1,4.8,0.7,7.2c-1.4,1.5-2.1,3.4-2.1,5.4c0,0.7,0.6,1.3,1.3,1.3h13.6c0.7,0,1.3-0.6,1.3-1.3l0,0c0-4-2.8-7.4-6.8-8
		c-0.1-2-0.4-4-0.9-5.9c0.4,0.2,0.7,0.4,1,0.6c0.3,0.2,0.7,0.4,1.1,0.7c1.1,0.5,2.4,0.4,3.3-0.4c0.9-0.8,1.3-2,0.9-3.1l-4.4-13.4
		c6.6-0.9,12.4-4.7,15.9-10.3c3.1-0.7,5-3.8,4.3-6.8c-0.2-1.1-0.8-2.1-1.6-2.8L915.6,1640.4z M853.4,1646.4
		c-4.3-4.8-6.7-11-6.8-17.5c0-15.1,13.1-27.3,29.1-27.3s29.1,12.3,29.1,27.3c0,7.7-3.4,15-9.2,20c0.7-2.1,0.2-4.4-1.4-5.9
		c-2.3-2.2-5.9-2.1-8.1,0.2c-1.1,1.1-1.6,2.6-1.6,4.2c0,0.7,0.2,1.4,0.5,2c-0.5,0.8-1.1,1.5-1.8,2.2c-1.9,2-4.4,3.4-7,4h-1.9
		c-3.9-0.1-7.7-0.8-11.3-2.1c-1.2-0.5-2.3-1.1-3.3-1.8C857.3,1650.2,855.2,1648.4,853.4,1646.4L853.4,1646.4z M887.6,1648.7
		c-0.3-0.4-0.5-1-0.5-1.5c0-0.8,0.3-1.7,0.8-2.3c0.6-0.6,1.3-1,2.2-1l0,0c0.9,0,1.7,0.3,2.3,0.9c0.6,0.6,0.9,1.4,0.9,2.2
		c0,1.6-1.2,3-2.8,3.1c-0.4,0-0.8,0.3-1,0.6c-0.3,0.6-0.7,1.1-1.1,1.7l-0.5,0.7l-0.6,0.7c-0.1,0.1-0.2,0.3-0.4,0.4
		c-1.1,1.2-2.3,2.2-3.6,3.1c-3.7,2.3-7.9,3.5-12.3,3.4c-2.9,0-5.7-0.4-8.5-1.2c-0.5-0.2-0.8-0.7-0.7-1.2c0,0,0-0.1,0-0.1
		c0.1-0.4,0.5-0.6,0.9-0.6c0.1,0,0.2,0,0.3,0c4.4,1.3,9,1.5,13.5,0.6l0,0c3.8-0.9,7.1-3.1,9.6-6.1c0.5-0.6,1-1.3,1.4-1.9
		C887.9,1649.6,887.9,1649.1,887.6,1648.7L887.6,1648.7z M864.7,1690.6l-8.4-6.5c2.4-1.9,5.8-1.5,7.7,0.9
		C865.2,1686.5,865.5,1688.7,864.7,1690.6z M863.5,1681.2c-0.6-0.3-1.2-0.6-1.9-0.7c0.8-1,1.4-2,2-3.2c0.6,0.3,1.2,0.6,1.9,0.7
		C864.9,1679.2,864.3,1680.2,863.5,1681.2L863.5,1681.2z M900,1688.7h-10.6c0.6-2.4,2.8-4.1,5.3-4.2h0.1
		C897.2,1684.5,899.4,1686.2,900,1688.7L900,1688.7z M890.2,1676.1c0.6-0.3,1.3-0.4,1.9-0.4c0.7,2.1,1.1,4.2,1.1,6.4
		c-0.7,0.1-1.3,0.3-2,0.6C891.4,1680.4,891,1678.1,890.2,1676.1L890.2,1676.1z M898.8,1674.7c0.1,0.1,0,0.3-0.1,0.3
		c-0.1,0.1-0.3,0.1-0.4,0c-0.3-0.2-0.6-0.3-0.9-0.5c-1.2-0.9-2.7-1.4-4.2-1.5h-0.6c-1.7,0-3.3,0.5-4.7,1.4l0,0l-0.1,0.1
		c-2.1,1.5-4.9,1.5-6.9,0c-2.9-2-6.8-2-9.8,0c-1,0.7-2.2,1.2-3.4,1.2c-1.3,0-2.5-0.4-3.5-1.2l-0.1-0.1l0,0c-2.9-1.9-6.7-1.9-9.6,0.1
		c-0.3,0.2-0.6,0.4-0.9,0.5c-0.1,0.1-0.2,0.1-0.3,0c-0.1-0.1-0.1-0.2-0.1-0.4l6.6-19.8c0.5,0.2,1.1,0.4,1.6,0.7
		c-0.6,0.4-1.1,1-1.4,1.7c-0.8,1.8,0.1,3.9,2,4.7c0,0,0,0,0,0c0.1,0,0.2,0.1,0.3,0.1c3,0.9,6.1,1.3,9.2,1.4
		c4.9,0.1,9.7-1.2,13.8-3.9c1.4-0.9,2.7-2,3.9-3.3l0.6-0.2l0,0l0.2-0.1l0,0c0.9-0.3,1.9-0.7,2.8-1.1L898.8,1674.7z M911.9,1647.6
		c-0.4,0-0.8,0.3-1,0.6c-3.2,5.4-8.7,9-14.9,9.7l-0.6-1.9c5.6-0.6,10.6-3.7,13.6-8.5c0.3-0.4,0.3-1,0-1.4c-0.3-0.4-0.5-1-0.5-1.5
		c0-0.8,0.3-1.7,0.8-2.3c1.1-1.3,3.1-1.3,4.4-0.2c0.6,0.6,1,1.4,1,2.2c0,0,0,0.1,0,0.1C914.7,1646.1,913.5,1647.4,911.9,1647.6
		L911.9,1647.6z"/>
	<circle class="st19" cx="891" cy="1629.4" r="3.1"/>
	<path class="st19" d="M889.7,1608.8c0.7,0,1.3,0.6,1.3,1.3l0,0c0,4.2-2.7,7.7-6,7.7c-1.9-0.1-3.6-1.2-4.6-2.8
		c-1.3,2.6-4.5,3.6-7.1,2.3c-1-0.5-1.8-1.3-2.3-2.3c-0.9,1.7-2.7,2.7-4.6,2.8c-3.3,0-6-3.4-6-7.7c-0.1-0.7,0.5-1.3,1.2-1.4
		c0.7-0.1,1.3,0.5,1.4,1.2c0,0.1,0,0.1,0,0.2c0,2.7,1.5,5.1,3.3,5.1s3.4-2.3,3.4-5.1c0.1-0.7,0.7-1.3,1.4-1.2c0.6,0,1.2,0.6,1.2,1.2
		c0,2.7,1.5,5.1,3.3,5.1s3.3-2.3,3.3-5.1c0.1-0.7,0.7-1.2,1.4-1.2c0.6,0.1,1.1,0.6,1.2,1.2c0,2.7,1.5,5.1,3.3,5.1
		c1.8,0,3.3-2.3,3.3-5.1C888.5,1609.4,889.1,1608.8,889.7,1608.8z"/>
	<path class="st19" d="M883.9,1634.7v1.1c0,4.5-3.6,8.1-8.1,8.1c-4.4,0-8.1-3.6-8.1-8.1v-1.1c0-0.7,0.6-1.3,1.3-1.3h13.6
		C883.3,1633.4,883.9,1634,883.9,1634.7z M881.2,1636.1h-10.9c0,3,2.4,5.5,5.5,5.5C878.8,1641.5,881.2,1639.1,881.2,1636.1z"/>
	<circle class="st19" cx="860.5" cy="1629.4" r="3.1"/>
	<path class="st30" d="M895.6,1648.8c0.8-0.7,1.5-1.4,2.1-2.1c-0.6,0.4-1.3,0.8-1.9,1.1C895.8,1648.2,895.7,1648.5,895.6,1648.8z"/>
	<path class="st30" d="M853.7,1646.7c1.7,1.9,3.7,3.5,5.9,4.9c1.1,0.7,2.2,1.3,3.3,1.8c3.7,1.2,7.5,1.9,11.3,2.1h1.9
		c2.3-0.6,4.4-1.7,6.1-3.2c-2.2,0.3-4.3,0.5-6.5,0.5C868,1652.8,860.4,1650.7,853.7,1646.7z"/>
	<circle class="st25" cx="855.7" cy="1639.1" r="3.6"/>
	<circle class="st25" cx="895.9" cy="1639.1" r="3.6"/>
	<path class="st19" d="M911.5,1638.8c-3.3,0.4-5.7,3.4-5.5,6.7"/>
	<path class="st19" d="M569.8,1654.2c-2.7,0.1-5-2-5.1-4.8V1619l-1.1-0.5c-9.1-4.7-10.3-13-10.3-19.7c-0.1-6.4,2.8-12.4,7.7-16.5
		c5-4.2,12-6.4,20.1-6.4c7.9-0.2,15.7,2.3,22.1,6.9l2.2,1.7l2.2-1.7c6.4-4.6,14.2-7.1,22.1-6.9c8,0,14.9,2.3,19.9,6.7
		c4.7,4.2,7.4,10.3,7.3,16.6c0,6.9-0.8,14.7-9.8,19.3l-1,0.5v30.4c-0.1,2.7-2.4,4.9-5.1,4.8c0,0,0,0,0,0L569.8,1654.2z"/>
	<path class="st34" d="M569.8,1650.9c-0.9,0.1-1.8-0.6-1.9-1.5V1617l-2.8-1.4c-7.4-3.8-8.5-10.3-8.5-16.8c0-11.1,9.2-19.7,24.5-19.7
		c7.2-0.2,14.3,2,20.1,6.3l4.2,3.2l4.2-3.2c5.9-4.2,12.9-6.4,20.1-6.3c15.3,0,24,9,24,20.1c0,6.5-0.6,12.6-8,16.4l-2.8,1.4v32.4
		c-0.1,0.9-0.9,1.6-1.9,1.5H569.8z"/>
	<path class="st35" d="M595,1590.3c-1-0.1-2,0.7-2,1.7c-0.1,1,0.7,2,1.7,2c1,0.1,2-0.7,2-1.7c0-0.1,0-0.2,0-0.3
		C596.7,1591.1,596,1590.4,595,1590.3z"/>
	<path class="st35" d="M567.5,1598.2c-0.1-0.2-0.1-0.4-0.2-0.5c-0.2-0.3-0.5-0.6-0.8-0.8l-0.1-0.1c-0.6-0.4-1.4-0.4-2,0l-0.1,0.1
		c-0.3,0.1-0.5,0.3-0.6,0.6c-0.2,0.2-0.3,0.4-0.4,0.7c-0.1,0.5-0.1,1,0.1,1.4c0.1,0.5,0.4,0.9,0.8,1.1c0.4,0.3,0.8,0.5,1.3,0.5
		c0.4,0,0.7-0.1,1.1-0.3c0.5-0.3,0.8-0.7,1-1.3C567.6,1599.2,567.6,1598.7,567.5,1598.2z"/>
	<path class="st35" d="M580.4,1585.9c-1-0.9-2.6-0.9-3.5,0.1s-0.9,2.6,0.1,3.5c1,0.9,2.5,0.9,3.4,0
		C581.4,1588.6,581.4,1586.9,580.4,1585.9z"/>
	<path class="st35" d="M619.5,1589.3c-0.3-0.4-0.7-0.7-1.1-0.9h-0.2c-0.3-0.1-0.7-0.1-1,0c-0.3,0.1-0.6,0.3-0.9,0.5
		c-0.4,0.4-0.6,0.9-0.6,1.4c0,0.5,0.2,1,0.6,1.4c0.2,0.2,0.5,0.4,0.9,0.5c0.3,0.1,0.7,0.1,1,0h0.2l0.5-0.2c0.2-0.1,0.4-0.3,0.5-0.5
		c0.3-0.3,0.4-0.7,0.4-1.1C619.8,1590.1,619.7,1589.7,619.5,1589.3z"/>
	<path class="st35" d="M639.3,1640.8c-0.8-0.1-1.5,0.5-1.5,1.3c-0.1,0.8,0.5,1.5,1.3,1.5s1.5-0.5,1.5-1.3c0-0.1,0-0.1,0-0.2
		C640.6,1641.4,640,1640.8,639.3,1640.8z"/>
	<path class="st35" d="M626.9,1640.8c-0.4-0.4-0.9-0.6-1.5-0.6h-0.2c-1.2,0-2.1,1-2.1,2.2c0,0.5,0.2,1.1,0.6,1.5
		c0.4,0.4,0.9,0.6,1.5,0.6h0.2c0.6,0,1.1-0.2,1.5-0.6C627.7,1642.9,627.7,1641.6,626.9,1640.8L626.9,1640.8z"/>
	<path class="st35" d="M575.3,1643.7c-0.4-0.4-1-0.6-1.6-0.7h-0.2c-0.6,0-1.2,0.3-1.6,0.7c-0.9,0.9-0.9,2.3,0,3.2c0,0,0,0,0,0
		l0.5,0.4c0.3,0.2,0.7,0.3,1.1,0.3h0.2c0.6,0,1.2-0.3,1.6-0.7c0.4-0.4,0.7-1,0.7-1.6C576,1644.7,575.7,1644.1,575.3,1643.7z"/>
	<path class="st35" d="M639.9,1603.1v0.1c0.3,1,1.3,1.5,2.2,1.2c0.6-0.2,1.1-0.6,1.2-1.2v-0.1C644,1600.2,639.2,1600.2,639.9,1603.1
		z"/>
	<path class="st35" d="M577.9,1613.4c-0.8-0.8-2.2-0.8-3,0c0,0-0.1,0.1-0.1,0.1c-0.4,0.4-0.6,0.9-0.6,1.5c0,1.2,1,2.1,2.1,2.1
		l0.6-0.1c0.4-0.1,0.7-0.3,0.9-0.5c0.4-0.3,0.6-0.7,0.7-1.1C578.6,1614.7,578.4,1613.9,577.9,1613.4z"/>
	<path class="st35" d="M634,1585.8c-0.1-0.5-0.3-0.9-0.6-1.2l0,0c-0.7-0.6-1.7-0.8-2.5-0.3l0,0c-0.5,0.3-0.8,0.7-1,1.2l-0.1,0.6
		c0,0.8,0.4,1.5,1.1,1.9c0.5,0.3,1.1,0.4,1.6,0.2c0.4-0.1,0.8-0.4,1.1-0.7c0.3-0.3,0.4-0.8,0.4-1.2
		C634.1,1586.1,634.1,1586,634,1585.8z"/>
	<path class="st35" d="M637.9,1615.4c-0.3-0.9-1-1.5-1.9-1.7c-0.5-0.1-1-0.1-1.4,0.1c-0.4,0.2-0.8,0.5-1,0.9
		c-0.2,0.3-0.3,0.7-0.3,1.1c0,0.6,0.2,1.1,0.6,1.5c0.2,0.2,0.4,0.4,0.7,0.5c0.2,0.1,0.4,0.2,0.6,0.2c0.3,0.1,0.6,0.1,0.9,0
		c0.1,0,0.2,0,0.3,0c0.5-0.2,1-0.5,1.3-1C637.9,1616.6,638,1616,637.9,1615.4z"/>
	<path class="st35" d="M608.5,1641.7c-1.2,0-2.1,1-2.1,2.1c0,1.2,1,2.1,2.1,2.1c1.2,0,2.1-1,2.1-2.1
		C610.6,1642.7,609.7,1641.7,608.5,1641.7z"/>
	<path class="st35" d="M629.1,1596.9l-0.4-0.3c-0.3-0.2-0.7-0.3-1-0.3c-0.1,0-0.1,0-0.2,0c-0.3,0-0.6,0-0.8,0.2
		c-0.3,0.1-0.5,0.2-0.7,0.4c-0.8,0.8-0.8,2.1,0,2.9c0,0,0,0,0,0l0.4,0.3c0.3,0.2,0.7,0.3,1,0.3h0.2c0.5,0,1.1-0.2,1.5-0.6
		c0.4-0.4,0.6-0.9,0.6-1.5C629.7,1597.8,629.5,1597.3,629.1,1596.9z"/>
	<path class="st36" d="M617.7,1688.5H607c0.8-2.9,3.8-4.7,6.7-3.9C615.7,1685.1,617.2,1686.6,617.7,1688.5z"/>
	<path class="st36" d="M603.7,1688.5h-10.6c0.8-2.9,3.8-4.7,6.7-3.9C601.7,1685.1,603.2,1686.6,603.7,1688.5z"/>
	<path class="st29" d="M601.1,1680l-1.3,1.9c-0.5-0.1-1-0.1-1.5-0.2h-0.8l1.4-2l0.3-0.4l-0.8-1.4c0.7-0.1,1.3-0.3,1.9-0.5l0.7,1.1
		l0.2,0.3C601.4,1679.2,601.4,1679.6,601.1,1680z"/>
	<path class="st29" d="M613.2,1681.8c-0.3,0-0.6,0-0.8,0c-0.5,0-1,0-1.5,0.1l-1.3-1.9c-0.2-0.3-0.2-0.7,0-1l0.2-0.3l0.7-1.1
		c0.6,0.3,1.3,0.5,1.9,0.5l-0.8,1.4l0.3,0.4L613.2,1681.8z"/>
	<path class="st29" d="M643.1,1662.7l-2.8,2.8c-0.2,0.2-0.4,0.3-0.7,0.3h-0.2c-7.8-1.3-12.6-7.5-14.9-11.1l-0.4-1.1l0.7-0.4l0.8-0.4
		c1.5,2.7,5.7,9,12.8,10.9c0.2,0,0.4,0,0.6,0L643.1,1662.7z"/>
	<path class="st29" d="M586.1,1654.6v0.1c-2.2,3.6-7,9.8-14.9,11.2c-0.3,0-0.6-0.1-0.9-0.3l-2.8-2.8l3.9,0.9c0.2,0,0.4,0,0.6,0
		c6.4-1.6,10.4-7,12.2-9.9C585,1654,585.5,1654.3,586.1,1654.6z"/>
	<path class="st37" d="M628.4,1674.5c0,0.2,0,0.3-0.2,0.4c0,0,0,0,0,0c-0.1,0-0.2,0-0.2,0c-0.3-0.2-0.6-0.3-0.9-0.6
		c-2.9-2-6.8-2-9.8,0c-0.8,0.6-1.7,1-2.7,1.1h-0.8c-1.1,0-2.2-0.3-3.1-0.9l-0.4-0.2c-3-2-6.9-2-9.8,0l-0.4,0.2
		c-0.9,0.6-2,0.9-3.1,0.9h-0.8c-1-0.1-1.9-0.5-2.7-1.1c-2.9-2-6.8-2-9.8,0c-0.3,0.2-0.6,0.4-0.9,0.6c-0.1,0.1-0.2,0.1-0.3,0
		c-0.1-0.1-0.1-0.2-0.1-0.4l6.3-18.9c3.2,1.3,6.6,2.1,10,2.6c1.1,0.1,2.3,0.3,3.4,0.3c1.1,0.1,2.3,0.2,3.4,0.2
		c3.9,0,7.9-0.7,11.6-2.1c1.7-0.5,3.3-1.2,5-1.9L628.4,1674.5z"/>
	<path class="st30" d="M600.3,1677.4l0.7,1.1l-0.5,0.3l-0.4,0.2c-0.4,0.2-0.7,0.4-1.1,0.6l0.3-0.4l-0.8-1.4
		C599,1677.8,599.7,1677.7,600.3,1677.4z"/>
	<path class="st30" d="M611.6,1679.4l0.3,0.4c-0.4-0.2-0.8-0.3-1.1-0.6l-0.4-0.3l-0.5-0.3l0.7-1.1c0.6,0.3,1.3,0.5,2,0.5
		L611.6,1679.4z"/>
	<path class="st19" d="M590.1,1602.4c-10,5-16.4,15.1-16.6,26.3c0,7.6,3,14.9,8.4,20.2c0.2,0.1,0.4,0.3,0.5,0.5l0.1,0.1l0,0
		c0.2,0.3,0.3,0.8,0.2,1.1c0,0.1,0,0.2,0,0.2c0,0.1,0,0.2-0.1,0.3c0,0.1,0,0.2,0,0.4c0,0.2-0.1,0.3-0.2,0.5l0,0
		c0,0.1-0.1,0.3-0.2,0.4c-1.6,2.6-5.1,7.1-10.3,8.6l-8-1.8c-0.6-0.1-1.1,0.1-1.4,0.6c-0.3,0.5-0.2,1.1,0.2,1.6l5.9,6
		c0.7,0.7,1.6,1.1,2.6,1.1h0.6c4.6-0.9,8.8-3.1,12-6.5l-4,11.7c-0.5,1.5,0.3,3.2,1.8,3.7c0.8,0.3,1.6,0.2,2.3-0.2
		c0.4-0.2,0.8-0.4,1.1-0.7c1-0.7,2.2-1.1,3.4-1.1c1.3,0,2.5,0.4,3.5,1.1c1,0.7,2,1.1,3.2,1.4l0.8,1.4l-3,4.4
		c-1.8,1.5-2.8,3.8-2.8,6.1c0,0.7,0.6,1.3,1.3,1.3h27.6c0.7,0,1.3-0.6,1.3-1.3c0-2.3-1-4.6-2.8-6.1l-3-4.4l0.8-1.4
		c1.1-0.2,2.2-0.7,3.1-1.4c1-0.8,2.2-1.2,3.4-1.1c1.3,0,2.5,0.4,3.5,1.1c0.4,0.2,0.8,0.5,1.1,0.7c1.4,0.7,3.2,0.2,4-1.3
		c0.4-0.7,0.4-1.5,0.2-2.3l-3.9-11.8c3.3,3.4,7.5,5.6,12.1,6.5h0.6c1,0,1.9-0.4,2.6-1.1l5.9-6c0.5-0.5,0.5-1.3,0-1.9
		c-0.3-0.3-0.8-0.4-1.2-0.3l-8,1.8c-6.3-1.8-9.9-7.7-11-9.7c3-4.2,5-7.8,5-7.8c2.7-4.5,4.2-9.6,4.2-14.8c0-16.5-14.2-30-31.8-30
		c-0.6,0-1.3,0-1.9,0.1l-2.6,0.6l2.2-0.6c-4,0.3-8,1.3-11.6,3 M576.4,1628.7c0-15,13-27.2,29-27.2s29,12.2,29,27.2
		c0,12-8.4,22.3-20,25.9c-3.5,0.9-7.1,1.4-10.7,1.3C588.5,1655.1,576.4,1643.2,576.4,1628.7L576.4,1628.7z M571.3,1665.8
		c-0.3,0.1-0.6-0.1-0.9-0.3l-2.8-2.8l3.9,0.9c0.2,0,0.4,0,0.6,0c6.4-1.6,10.4-7,12.3-9.9c0.6,0.3,1.1,0.6,1.7,0.9v0.1
		C583.9,1658.3,579.1,1664.5,571.3,1665.8L571.3,1665.8z M593.1,1688.5c0.8-2.9,3.8-4.7,6.7-3.9c1.9,0.5,3.4,2,3.9,3.9H593.1z
		 M598.3,1677.9c0.7-0.1,1.3-0.3,2-0.5l0.9,1.5c0.2,0.3,0.2,0.7,0,1l-1.3,1.9c-0.5-0.1-1-0.2-1.5-0.2h-0.8l1.6-2.4L598.3,1677.9z
		 M605.4,1685.8c-0.7-1.2-1.8-2.3-3-3l0.9-1.4c0.8-1.2,0.8-2.7,0.1-3.9l-0.9-1.4c0.9-0.5,1.8-0.8,2.8-0.7c1,0,2,0.2,2.8,0.7
		l-0.9,1.4c-0.7,1.2-0.7,2.7,0.1,3.9l0.9,1.4C607.2,1683.5,606.1,1684.5,605.4,1685.8L605.4,1685.8z M617.7,1688.5h-10.6
		c0.8-2.9,3.8-4.7,6.7-3.9C615.7,1685.1,617.2,1686.6,617.7,1688.5z M613.2,1681.8c-0.3,0-0.6,0-0.8,0c-0.5,0-1,0-1.5,0.1l-1.3-1.9
		c-0.2-0.3-0.2-0.7,0-1l0.9-1.5c0.6,0.3,1.3,0.5,2,0.5l-0.8,1.4L613.2,1681.8z M628.4,1674.5c0,0.2,0,0.3-0.2,0.4c0,0,0,0,0,0
		c-0.1,0-0.2,0-0.2,0c-0.3-0.2-0.6-0.3-0.9-0.6c-2.9-2-6.8-2-9.8,0c-0.8,0.6-1.7,1-2.7,1.1h-0.8c-1.1,0-2.2-0.3-3.1-0.9l-0.4-0.2
		c-3-2-6.9-2-9.8,0l-0.4,0.2c-0.9,0.6-2,0.9-3.1,0.9h-0.8c-1-0.1-1.9-0.5-2.7-1.1c-2.9-2-6.8-2-9.8,0c-0.3,0.2-0.6,0.4-0.9,0.6
		c-0.1,0.1-0.2,0.1-0.3,0c-0.1-0.1-0.1-0.2-0.1-0.4l6.3-18.9c3.2,1.3,6.6,2.1,10,2.6c1.1,0.1,2.3,0.3,3.4,0.3
		c1.1,0.1,2.3,0.2,3.4,0.2c3.9,0,7.9-0.7,11.6-2.1c1.7-0.5,3.3-1.2,5-1.9L628.4,1674.5z M640.4,1665.5c-0.2,0.2-0.4,0.3-0.7,0.3
		h-0.2c-7.8-1.3-12.6-7.5-14.9-11.1l-0.4-1.1l0.7-0.4l0.8-0.4c1.5,2.7,5.7,9,12.8,10.9c0.2,0,0.4,0,0.6,0l3.9-0.9L640.4,1665.5z"/>
	<path class="st19" d="M603.1,1598.8c-4.5,0.3-8.9,1.5-12.9,3.5L603.1,1598.8z"/>
	<path class="st29" d="M605.4,1601.5c-16,0-29,12.2-29,27.2c0,6.8,2.7,13.3,7.4,18.1c5.3,5.4,12.4,8.7,20,9
		c3.6,0.1,7.2-0.4,10.7-1.3c5.5-1.7,10.3-4.9,14-9.3c3.9-4.7,6-10.5,6-16.6C634.4,1613.7,621.4,1601.5,605.4,1601.5z M619.8,1625.2
		c0.4,0.6,0.2,1.4-0.5,1.8l-4,2.3l4,2.3c0.6,0.4,0.8,1.2,0.5,1.8c-0.2,0.4-0.7,0.6-1.1,0.6c-0.2,0-0.5-0.1-0.7-0.2l-5.9-3.4
		c-0.6-0.4-0.8-1.2-0.4-1.8c0.1-0.2,0.3-0.3,0.4-0.4l5.9-3.4C618.6,1624.3,619.4,1624.6,619.8,1625.2L619.8,1625.2z M611.9,1643.4
		c-0.2,0.4-0.7,0.7-1.1,0.7h-10.8c-0.7,0-1.3-0.6-1.3-1.4c0-0.2,0.1-0.4,0.2-0.6l5.4-8.5c0.4-0.6,1.2-0.8,1.8-0.4
		c0.2,0.1,0.3,0.2,0.4,0.4l5.4,8.5C612.1,1642.5,612.1,1643,611.9,1643.4z M591.2,1608.7c0-0.7,0.6-1.3,1.3-1.3c0,0,0,0,0,0
		c0.7,0,1.3,0.6,1.3,1.3c0,0,0,0,0,0c0,0.1,0,0.1,0,0.2c-0.2,1.6,0.2,2.9,1,3.3c1.1,0.6,3.7-1,5.2-4c0.3-0.6,0.9-0.8,1.6-0.7
		c0.6,0.2,1,0.8,0.9,1.4c-0.2,1.6,0.2,2.9,1,3.2c1.1,0.6,3.7-1,5.2-4c0.3-0.6,0.9-0.8,1.6-0.7c0.6,0.2,1,0.8,0.9,1.4
		c-0.2,1.6,0.2,2.9,1,3.2c1.2,0.6,3.7-1,5.2-4c0.2-0.7,0.9-1.1,1.6-0.9c0.7,0.2,1.1,0.9,0.9,1.6c0,0.2-0.1,0.3-0.2,0.5
		c-2.1,4.2-5.9,6.5-8.7,5.1c-0.9-0.5-1.6-1.2-2-2.2c-2.1,2.2-4.6,3.2-6.6,2.2c-0.9-0.5-1.6-1.2-2-2.2c-1.2,1.5-3,2.4-4.9,2.6
		c-0.6,0-1.2-0.1-1.7-0.4C591.8,1613.8,590.9,1611.6,591.2,1608.7L591.2,1608.7z M591.4,1627c-0.6-0.4-0.9-1.2-0.5-1.8c0,0,0,0,0,0
		c0.4-0.6,1.2-0.8,1.8-0.5l5.9,3.4c0.4,0.2,0.7,0.7,0.6,1.1c0,0.5-0.2,0.9-0.6,1.1l-5.9,3.4c-0.6,0.3-1.4,0.1-1.8-0.5
		c-0.4-0.6-0.1-1.4,0.5-1.8l4-2.3L591.4,1627z"/>
	<path class="st37" d="M603.7,1661.3c3.6,0.1,7.2-0.4,10.7-1.3c2.9-0.9,5.6-2.2,8-3.8l-0.5-1.5c-1.6,0.7-3.3,1.4-5,1.9
		c-3.7,1.4-7.6,2.1-11.6,2.1c-1.1,0-2.3-0.1-3.4-0.2c-1.2,0-2.3-0.1-3.4-0.3c-3.4-0.5-6.8-1.3-10-2.6l-0.2,0.6
		C592.9,1659.3,598.2,1661.1,603.7,1661.3z"/>
	<path class="st33" d="M605.4,1603.4c15.7,0,28.5,11.8,29,26.4v-1c0-15-13-27.2-29-27.2c-16,0-29,12.2-29,27.2v1
		C576.9,1615.1,589.7,1603.4,605.4,1603.4z"/>
	<path class="st19" d="M619.8,1625.2c0.4,0.6,0.2,1.4-0.5,1.8l-4,2.3l4,2.3c0.6,0.4,0.8,1.2,0.5,1.8c-0.2,0.4-0.7,0.6-1.1,0.6
		c-0.2,0-0.5-0.1-0.7-0.2l-5.9-3.4c-0.6-0.4-0.8-1.2-0.4-1.8c0.1-0.2,0.3-0.3,0.4-0.4l5.9-3.4
		C618.6,1624.3,619.4,1624.6,619.8,1625.2L619.8,1625.2z"/>
	<path class="st19" d="M618.9,1607.7c0.6,0.3,0.9,1.1,0.6,1.8c-2.1,4.2-5.9,6.5-8.7,5.1c-0.9-0.5-1.6-1.2-2-2.2
		c-2.1,2.2-4.6,3.2-6.6,2.2c-0.9-0.5-1.6-1.2-2-2.2c-1.2,1.5-3,2.4-4.9,2.6c-0.6,0-1.2-0.1-1.7-0.4c-1.8-0.9-2.7-3.1-2.4-5.9
		c0-0.7,0.5-1.3,1.2-1.4c0.7,0,1.3,0.5,1.4,1.2c0,0.1,0,0.1,0,0.2c0,0.1,0,0.1,0,0.2c-0.2,1.6,0.2,2.9,1,3.3c1.1,0.6,3.7-1,5.2-4
		c0.3-0.6,0.9-0.8,1.5-0.7c0.6,0.2,1,0.8,0.9,1.4c-0.2,1.6,0.2,2.9,1,3.2c1.1,0.6,3.7-1,5.2-4c0.3-0.6,0.9-0.8,1.6-0.7
		c0.6,0.2,1,0.8,0.9,1.4c-0.2,1.6,0.2,2.9,0.9,3.2c1.2,0.6,3.7-1,5.2-4C617.5,1607.7,618.2,1607.4,618.9,1607.7z"/>
	<path class="st19" d="M611.9,1642c0.4,0.6,0.2,1.4-0.4,1.8c-0.2,0.1-0.5,0.2-0.7,0.2h-10.8c-0.7,0-1.3-0.6-1.3-1.4
		c0-0.2,0.1-0.4,0.2-0.6l5.4-8.5c0.4-0.6,1.2-0.8,1.8-0.4c0.2,0.1,0.3,0.2,0.4,0.4L611.9,1642z M608.5,1641.4l-3.1-4.8l-3,4.8H608.5
		z"/>
	<polygon class="st31" points="605.4,1636.7 608.4,1641.4 602.3,1641.4 	"/>
	<path class="st19" d="M598.7,1628.2c0.4,0.2,0.7,0.7,0.6,1.1c0,0.5-0.2,0.9-0.6,1.1l-5.9,3.4c-0.6,0.4-1.4,0.1-1.8-0.5
		c-0.4-0.6-0.2-1.4,0.5-1.8l4-2.3l-4-2.3c-0.6-0.4-0.9-1.2-0.5-1.8c0.4-0.6,1.2-0.9,1.8-0.5l0,0L598.7,1628.2z"/>
	<circle class="st37" cx="585.2" cy="1639" r="3.6"/>
	<circle class="st37" cx="625.4" cy="1638.9" r="3.6"/>
	<path class="st30" d="M605.3,1653.7c8.8,0,16.8-3.9,23-8.4c-3.6,4.4-8.5,7.6-14,9.3c-3.5,0.9-7.1,1.4-10.7,1.3
		c-7.6-0.4-14.7-3.6-20-9.1C589.9,1650.6,597.4,1653.7,605.3,1653.7z"/>
	<path class="st38" d="M473.6,1620.1h8.9c-1.3,1.2-3.1,1.8-5,1.6C476.1,1621.6,474.7,1621,473.6,1620.1z"/>
	<path class="st39" d="M461.5,1659.8L461.5,1659.8z"/>
	<path class="st39" d="M520.8,1621.5c0-5.2-1.5-10.2-4.4-14.6c-0.2-0.2-0.3-0.5-0.4-0.8c-0.1-0.9-0.1-1.8-0.2-2.7
		c-0.5-4.8-2.3-9.4-5.3-13.3c-0.6-0.8-1.2-1.6-1.9-2.3c-0.7-0.7-1.5-1.6-2.3-2.3c-4.7-4.2-10.5-7-16.7-8.1c-0.1-3.4-2-6.5-5-8.2
		c-2.6-1.4-5.5-2-8.4-1.8c0.2-0.8,0.5-1.6,1-2.3c0.1-0.2,0.4-0.1,0.6-0.1c2.1-0.2,3.6-2,3.4-4.1c0,0,0,0,0,0c0,0,0-0.1,0-0.1
		c-0.3-2-2-3.4-4-3.3c-1.7,0.2-3.2,1.1-4.1,2.6c-1.5,2.5-2.2,5.4-2.1,8.4c-2.8,1.1-5,3.3-6,6.1c-0.3,1-0.6,1.9-0.7,2.9
		c-1.6,0.3-3.2,0.8-4.8,1.3c-8,2.5-14.7,8.1-18.6,15.5c-1.8,3.6-2.8,7.6-2.9,11.6c0,0.6-0.5,1.1-0.8,1.6c-1.6,2.6-2.8,5.5-3.4,8.4
		c-0.5,2.6-0.7,5.2-0.6,7.8c0.1,1,0.5,1.9,1,2.8v10.8h-0.1c0.1,0.5,0.3,1.1,0.4,1.6l0,0c0.7,2.2,1.8,4.3,3.3,6.1
		c2.1,2.2,4.5,3.9,7.2,5.2c6.5,3,13.7,4.2,20.8,4.9c7.7,0.7,15.5,0.7,23.2-0.1c5.9-0.5,11.7-1.8,17.3-3.7c2.8-1,5.3-2.5,7.7-4.3
		c2.5-2,4.3-4.8,5.2-7.8v-0.1c0.1-0.2,0.1-0.5,0.2-0.7l0,0v-0.5l0,0c0-0.2,0.1-0.4,0.1-0.6l0,0c0.1-3.5,0-7.1,0-10.6
		c0.2-0.5,0.5-0.9,0.7-1.4C520.7,1624,520.8,1622.7,520.8,1621.5z M475.1,1560.7c0.7-1,1.8-1.5,3-1.3c0.9,0.4,1.4,1.5,1,2.5
		l-0.1,0.2c-0.2,0.4-0.5,0.6-0.9,0.6c-0.3-0.4-1-0.9-1.4-0.3c-1.3,1.4-2.2,3.2-2.5,5.1l-1.1,0.1
		C473,1565.1,473.7,1562.7,475.1,1560.7L475.1,1560.7z M467.1,1574.8c0.7-1.9,2.1-3.4,4-4.2c0.9-0.4,1.9-0.7,2.8-1h0.1
		c0,0.6-0.2,1.5,0.5,1.8c0.7,0.3,2,0.3,2.2-0.6c-0.4-0.4-0.9-0.8-0.8-1.4c1.6-0.1,3.3,0.1,4.8,0.5c0.2,0.1,0.4,0.1,0.6,0.2
		c2.6,0.6,4.7,2.4,5.6,4.9c1.2,3.1,0.2,6.5-2.4,8.6c-2.3,1.6-5.3,1.8-8,1.8c-2.7,0.1-5.3-0.7-7.5-2.1c-1.6-1.4-2.5-3.4-2.5-5.5
		C466.6,1576.8,466.7,1575.8,467.1,1574.8L467.1,1574.8z M517.6,1636.9c-0.5,2.9-2,5.6-4.2,7.6c-1.9,1.7-4,3.1-6.4,4
		c-3,1.3-6.1,2.2-9.3,2.8c-1.2,0.3-2.5,0.5-3.7,0.6c-2.4,0.4-4.8,0.7-7.3,0.9c-8,0.6-16,0.5-24-0.5c-4.2-0.5-8.4-1.4-12.5-2.7
		c-2.5-0.8-5-1.9-7.2-3.3c-2.5-1.6-4.4-3.8-5.6-6.5c-0.5-1.1-0.8-2.2-0.9-3.4v-7.5c1.5,1.6,3.4,2.6,5.6,2.8c1.4-0.1,2.7-0.6,3.9-1.5
		c1.1-0.6,2.5-0.6,3.7,0c1.1,0.6,1.9,1.7,2.3,2.9c0.1,0.4,0.1,0.9,0,1.3c-0.5,2.1-0.1,4.3,1,6.1c0.4,0.5,0.8,1,1.2,1.5
		c1.1,0.8,2.3,1.2,3.6,1.3c1.9,0.2,3.8-0.5,5.1-1.8c1.3-1.3,1.9-3.1,1.9-5c-0.1-0.7,0-1.4,0.3-2c0.5-0.8,1.3-1.2,2.2-1.1
		c1.3,0,2.7,0.3,3.8,1.1c0.8,0.5,1.3,1.4,1.4,2.4c-0.1,1-0.2,2-0.2,3c0.1,1.5,0.6,2.9,1.6,4c0.3,0.4,0.8,0.7,1.2,1
		c1.7,0.9,3.7,1.2,5.6,0.9c2.1-0.4,3.9-1.7,5-3.5c0.7-1.5,0.9-3.2,0.6-4.8c-0.3-0.8,0-1.7,0.6-2.3c1.5-1.5,3.7-1.8,5.7-1.8
		c0.8-0.1,1.6,0.3,2.1,0.8c0.6,0.8,0.9,1.8,1,2.8c0.6,2.2,2.2,3.8,4.4,4.5c0.8,0.2,1.6,0.2,2.5,0.2c2-0.2,3.8-1.2,5.1-2.8
		c1.3-1.6,1.8-3.7,1.4-5.7c-0.2-0.7-0.2-1.4,0-2c0.6-1.5,1.9-2.5,3.4-2.8c1.7-0.3,3.5-0.3,5.3-0.7
		C517.7,1630.9,517.7,1633.9,517.6,1636.9L517.6,1636.9z M516.9,1625.9c-1,0.2-2.1,0.3-3.1,0.4c-1.7,0-3.4,0.6-4.8,1.6
		c-1.1,0.9-1.9,2.1-2.1,3.5c-0.2,1.2,0.3,2.3,0.2,3.4c0,1.2-0.5,2.4-1.4,3.3c-1.4,1.3-3.3,1.9-5.2,1.6c-1.4-0.3-2.6-1.4-3-2.8
		c-0.3-0.7-0.3-1.5-0.5-2.3c-0.3-0.8-0.8-1.5-1.4-2.1c-0.7-0.6-1.5-0.9-2.4-1c-2.3-0.2-4.5,0.2-6.5,1.3c-0.6,0.4-1.1,0.8-1.6,1.4
		c-0.5,0.6-0.8,1.4-0.8,2.2c-0.1,1.1,0.5,2.3,0.2,3.4c-0.3,1.7-1.5,3.1-3.1,3.7c-1.1,0.4-2.4,0.5-3.5,0.3c-1.7-0.3-3-1.5-3.3-3.2
		c-0.4-1.5,0.2-3.1,0-4.6c-0.3-1.1-0.9-2.2-1.8-2.9c-1.7-1.2-3.7-1.7-5.7-1.5c-0.7,0.1-1.5,0.3-2.1,0.7c-0.6,0.5-1.2,1.2-1.5,1.9
		c-0.2,0.9-0.4,1.9-0.3,2.9c0,1.2-0.5,2.3-1.4,3.2c-1.9,1.7-4.9,1.6-6.7-0.4l-0.2-0.3c-0.9-1.5-1.2-3.4-0.7-5.1
		c0.2-1.6-0.3-3.1-1.3-4.3c-2-2.5-5.7-3.1-8.3-1.3c-0.7,0.6-1.7,0.9-2.6,0.8c-2.6-0.8-4.7-2.6-5.8-5.1c-0.2-0.5-0.4-1-0.3-1.5
		c0-1.6,0-3.2,0.2-4.8c0.5-4.1,2.1-8.1,4.6-11.4c0.1-1.1,0.1-2.1,0.1-3.2c0.8-6.4,3.9-12.4,8.8-16.6c1.5-1.4,3.1-2.6,4.9-3.6
		c1.2-0.8,2.5-1.6,3.9-2.1c2.1-0.9,4.2-1.6,6.4-2.1c0.2,1,0.5,2.1,1,3l0,0c1.1,2.1,3,3.7,5.3,4.4c2.5,0.8,5,1.1,7.6,0.9
		c2.6,0,5.2-0.7,7.4-2.1c1.2-0.9,2.3-2.1,3-3.4c0.4-0.9,0.7-1.8,0.9-2.7c3.3,0.8,6.4,2,9.3,3.7c5.2,2.8,9.5,7.1,12.2,12.4
		c1.7,3.3,2.5,7,2.5,10.8c0,0.3,0,0.6,0.1,1c2,2.8,3.4,5.9,4.2,9.3c0.5,2.5,0.7,5.1,0.6,7.6C518.5,1625,517.9,1625.8,516.9,1625.9
		L516.9,1625.9z"/>
	<path class="st39" d="M471,1618.2c0.5-0.1,1-0.1,1.5-0.1h12.1c0.4,0,0.7,0.3,0.7,0.7c0,0.1,0,0.2-0.1,0.3c-0.7,1.8-2.1,3.2-3.9,3.9
		c-2,0.7-4.1,0.8-6.1,0.2c-1.8-0.6-3.3-1.8-4.2-3.4C471,1619.3,470.7,1618.7,471,1618.2z M473.6,1620.1c1.1,0.9,2.5,1.5,4,1.6
		c1.8,0.2,3.6-0.4,5-1.6C479.6,1620,476.6,1620.1,473.6,1620.1L473.6,1620.1z"/>
	<path class="st37" d="M475.1,1560.7c0.7-1,1.8-1.5,3-1.3c0.9,0.4,1.4,1.5,1,2.5c0,0,0,0,0,0l-0.1,0.2c-0.2,0.4-0.5,0.6-0.9,0.6
		c-0.3-0.4-1-0.9-1.4-0.3c-1.3,1.4-2.2,3.2-2.5,5.1l-1.1,0.1C473,1565.2,473.7,1562.8,475.1,1560.7z"/>
	<path class="st40" d="M476,1569.4c1.6-0.1,3.3,0,4.8,0.4c0.1,0.6,0.4,1.4,0,2c-0.7,0.8-1.7,1.3-2.8,1.4c-1.3,0.3-2.6,0.2-3.8-0.2
		c0-1-1.1-1.6-1.9-1.9h1.3c0.1-0.5,0.2-1,0.3-1.5h0.1c0.1,0.6-0.2,1.5,0.5,1.8c0.7,0.3,2,0.3,2.2-0.6
		C476.4,1570.5,475.9,1570.1,476,1569.4z"/>
	<path class="st41" d="M471,1570.6c0.9-0.4,1.9-0.7,2.8-1c-0.1,0.5-0.1,1-0.3,1.5h-1.3c-0.5-0.1-0.9,0-1.4,0.2
		c-0.3,1.1,0.8,1.8,1.8,2c0.5,0.1,1,0,1.5-0.3c1.2,0.4,2.6,0.5,3.8,0.2c1-0.1,2-0.6,2.7-1.4c0.5-0.6,0.2-1.3,0.1-2
		c0.2,0.1,0.4,0.1,0.6,0.2c1.3,0.9,2.9,1.7,3.2,3.3c0.4,2.8-0.5,5.6-2.4,7.7c-1.6,1.6-3.8,2.5-6.1,2.5c-2.3,0.1-4.5-0.5-6.4-1.7
		c-1.1-0.7-1.9-1.8-2.3-3.1c-0.3-1.3-0.5-2.6-0.4-4C467.8,1572.9,469.2,1571.4,471,1570.6z M469.6,1575c0.2,0.5,0.8,0.6,1.2,0.4
		c0.1-0.1,0.2-0.1,0.3-0.2c0.7-0.5,1.1-1.9,0.2-2.4C470.3,1572.9,469.6,1573.9,469.6,1575L469.6,1575z"/>
	<path class="st41" d="M444.4,1633.5c1.1-0.7,2.4-1.1,3.7-1.1c1.5,0.1,2.9,0.8,3.8,2c-0.5,2.1-0.1,4.3,1,6.1c0.3,0.5,0.8,1,1.2,1.5
		c0.7,2.3,2.7,4,5.1,4.1c2.2,0.2,4.3-0.7,5.7-2.4c0.9-1.2,1.6-2.7,1.8-4.2c0.1-0.7,0.3-1.3,0.6-2c0.2-0.4,0.6-0.7,1.1-0.7
		c1.2,0,2.4,0.5,3.2,1.5c0.4,0.4,0.6,0.9,0.6,1.5c0.1,1.5,0.6,2.9,1.6,4c0.3,0.4,0.8,0.7,1.1,1c1,1.7,2.6,2.8,4.5,3.2
		c2.2,0.4,4.5-0.1,6.3-1.4c2.2-1.4,3.5-3.9,3.4-6.5c0-0.7,0-1.5,0.1-2.2c0.2-0.7,0.9-1.2,1.6-1.1c0.9,0.1,1.7,0.6,2.1,1.4
		c0.8,1.1,1.3,2.5,1.5,3.9c0.3,1.8-0.1,3.6-1.1,5c-1.3,1.5-3.1,2.5-5.1,2.7c-3.7,0.7-7.5,1-11.3,1c-6.8,0.2-13.5-0.3-20.2-1.5
		c-3.5-0.6-6.9-1.7-10.1-3.2c-1.9-0.9-3.6-2.3-4.8-4c-1.5-2.2-2-4.9-1.3-7.5C442,1634.4,443.3,1634.1,444.4,1633.5z"/>
	<path class="st42" d="M481.5,1570.1c2.6,0.6,4.7,2.4,5.6,4.9c1.2,3.1,0.2,6.5-2.4,8.6c-2.3,1.6-5.3,1.8-8,1.8
		c-2.7,0.1-5.3-0.7-7.5-2.1c-1.6-1.3-2.6-3.4-2.5-5.5c-0.1-1,0.1-2,0.5-2.9c-0.1,1.3,0.1,2.7,0.4,4c0.4,1.3,1.2,2.3,2.3,3.1
		c1.9,1.3,4.1,1.9,6.4,1.7c2.3,0,4.5-0.9,6.1-2.5c2-2.1,2.8-4.9,2.4-7.7C484.4,1571.8,482.8,1571,481.5,1570.1z"/>
	<path class="st42" d="M512.3,1628.5c1.7-0.3,3.5-0.3,5.3-0.6v9.1c-0.5,3-2,5.6-4.2,7.6c-1.9,1.7-4,3.1-6.4,4
		c-3,1.2-6.1,2.2-9.3,2.8c-1.2,0.3-2.5,0.5-3.7,0.6c0.3-0.2,0.7-0.4,1.1-0.5c3.2-0.7,6.1-2,8.8-3.8c1.1-0.8,2-1.9,2.5-3.2
		c0.2-0.6,0.3-1.3,0.3-2c-0.7,0-1.3,0-2-0.1c-0.7-0.1-1.4-0.5-2.1-0.7c2-0.2,3.8-1.2,5.1-2.8c1.3-1.6,1.8-3.7,1.4-5.7
		c-0.2-0.7-0.2-1.4,0-2C509.6,1629.8,510.8,1628.8,512.3,1628.5z"/>
	<path class="st42" d="M436.5,1628.9c1.5,1.6,3.4,2.6,5.6,2.8c1.4-0.1,2.7-0.6,3.9-1.5c1.1-0.6,2.5-0.6,3.7,0
		c1.1,0.6,1.9,1.7,2.3,2.9c0.1,0.4,0.1,0.9,0,1.3c-0.9-1.2-2.3-1.9-3.8-2c-1.3,0.1-2.6,0.4-3.7,1.1c-1.2,0.5-2.4,0.9-3.7,1
		c-0.7,2.6-0.2,5.3,1.3,7.5c1.3,1.7,2.9,3,4.8,4c3.2,1.5,6.6,2.6,10.1,3.2c6.7,1.2,13.4,1.7,20.2,1.5c3.8,0,7.6-0.4,11.3-1
		c2-0.2,3.8-1.2,5.1-2.7c1.1-1.4,1.5-3.2,1.1-5c-0.2-1.4-0.7-2.7-1.5-3.9c-0.5-0.7-1.2-1.2-2.1-1.4c-0.7,0-1.4,0.4-1.6,1.1
		c-0.1,0.7-0.2,1.5-0.1,2.2c0,2.6-1.3,5-3.4,6.5c-1.8,1.3-4.1,1.8-6.3,1.4c-1.9-0.3-3.6-1.5-4.5-3.2c1.7,0.9,3.7,1.2,5.6,0.9
		c2.1-0.4,3.9-1.7,4.9-3.5c0.7-1.5,0.9-3.2,0.6-4.8c-0.2-0.8,0-1.7,0.6-2.3c1.5-1.5,3.7-1.8,5.7-1.8c0.8,0,1.6,0.3,2.1,0.8
		c0.6,0.8,0.9,1.8,1,2.8c0.6,2.1,2.2,3.8,4.4,4.5c0.8,0.2,1.6,0.3,2.5,0.2c0.7,0.2,1.4,0.5,2.1,0.7c0.7,0.2,1.3,0.1,2,0.1
		c0,0.7-0.1,1.3-0.3,2c-0.5,1.3-1.3,2.4-2.5,3.2c-2.7,1.8-5.7,3.1-8.8,3.8c-0.4,0.1-0.7,0.3-1.1,0.5c-2.4,0.5-4.8,0.7-7.3,0.9
		c-8,0.6-16.1,0.5-24-0.5c-4.2-0.5-8.4-1.4-12.5-2.7c-2.5-0.8-5-1.9-7.2-3.3c-2.5-1.5-4.4-3.8-5.6-6.5c-0.5-1.1-0.8-2.3-0.9-3.4
		C436.5,1633.9,436.5,1631.4,436.5,1628.9z"/>
	<path class="st43" d="M465.2,1634.6c0.5-0.8,1.3-1.2,2.2-1.1c1.3,0,2.7,0.3,3.8,1.1c0.8,0.5,1.3,1.4,1.4,2.4c-0.1,1-0.2,2-0.2,3
		c0-0.5-0.2-1.1-0.6-1.5c-0.8-1-2-1.5-3.2-1.5c-0.5,0-0.9,0.3-1.1,0.7c-0.3,0.6-0.5,1.3-0.6,2c-0.3,1.5-0.9,2.9-1.9,4.2
		c-1.4,1.7-3.5,2.6-5.7,2.4c-2.4-0.2-4.4-1.8-5.1-4.1c1.1,0.8,2.3,1.2,3.6,1.3c1.9,0.2,3.8-0.5,5.1-1.8c1.3-1.3,1.9-3.1,1.9-5
		C464.8,1635.9,464.9,1635.2,465.2,1634.6z"/>
	<path class="st44" d="M516.9,1625.9c-1,0.2-2.1,0.3-3.1,0.4c-1.7,0-3.4,0.6-4.8,1.6c-1.1,0.9-1.9,2.1-2.1,3.5
		c-0.2,1.1,0.3,2.3,0.2,3.4c0,1.2-0.5,2.4-1.4,3.3c-1.4,1.3-3.3,1.9-5.2,1.6c-1.4-0.3-2.6-1.4-3-2.8c-0.3-0.7-0.3-1.5-0.5-2.3
		c-0.3-0.8-0.8-1.5-1.4-2.1c-0.7-0.6-1.5-0.9-2.4-1c-2.3-0.2-4.5,0.2-6.5,1.3c-0.6,0.4-1.1,0.8-1.6,1.4c-0.5,0.6-0.8,1.4-0.8,2.2
		c-0.1,1.1,0.5,2.3,0.2,3.4c-0.3,1.7-1.5,3.1-3.1,3.7c-1.1,0.4-2.4,0.5-3.5,0.3c-1.7-0.3-3-1.5-3.3-3.2c-0.4-1.5,0.2-3.1,0-4.6
		c-0.3-1.1-0.9-2.2-1.8-2.9c-1.7-1.2-3.7-1.7-5.7-1.5c-0.7,0.1-1.5,0.3-2.1,0.7c-0.6,0.5-1.2,1.2-1.5,1.9c-0.2,0.9-0.4,1.9-0.3,2.9
		c0,1.2-0.5,2.3-1.4,3.2c-1.9,1.7-4.9,1.6-6.7-0.4l-0.2-0.3c-0.9-1.5-1.2-3.4-0.7-5.1c0.2-1.6-0.3-3.1-1.3-4.3
		c-2-2.5-5.7-3.1-8.3-1.3c-0.7,0.6-1.7,0.9-2.6,0.8c-2.6-0.8-4.7-2.6-5.8-5.1c-0.2-0.5-0.4-1-0.3-1.5c0-1.6,0-3.2,0.2-4.8
		c0.5-4.1,2.1-8.1,4.6-11.4c0.1-1.1,0.1-2.1,0.1-3.2c0.8-6.4,3.9-12.4,8.8-16.6c1.5-1.4,3.1-2.6,4.9-3.6c1.2-0.8,2.5-1.6,3.9-2.1
		c2.1-0.9,4.2-1.6,6.4-2.1c0.2,1,0.5,2.1,1,3l0,0c1.1,2.1,3,3.7,5.3,4.4c2.5,0.8,5,1.1,7.6,0.9c2.6,0,5.2-0.7,7.4-2.1
		c1.2-0.9,2.3-2.1,3-3.4c0.4-0.9,0.7-1.8,0.9-2.7c3.3,0.8,6.4,2,9.3,3.7c5.2,2.8,9.5,7.1,12.2,12.4c1.7,3.3,2.5,7,2.5,10.8
		c0,0.3,0,0.6,0.1,1c2,2.8,3.4,5.9,4.2,9.3c0.5,2.5,0.7,5.1,0.6,7.6C518.5,1624.9,517.8,1625.7,516.9,1625.9z"/>
	<path class="st45" d="M501.6,1666.6c-0.6-1.9-1.2-3.8-1.9-5.7c-0.3-0.6-0.1-1.4,0.4-1.8c1.2-1.1,1.6-2.9,0.9-4.4
		c-0.3-0.9-0.4-1.2,0-1.6v-0.4l0,0c0-0.3,0.1-0.6,0.2-0.8c0.5-2.4,1.8-4.6,3.6-6.3c0-0.1,0.1-0.2,0.1-0.3c0.2-0.4,0.5-0.8,0.8-1.1
		c8-13.2,4.9-28.9-6.6-38.2c-12.7-10.3-31-9.7-43.2,1.2c-10.8,9.7-12.8,25.9-4.6,37.9c0.4,0.4,0.7,0.9,0.9,1.4
		c0.3,0.3,0.6,0.7,0.7,1.1c0.5,0.7,0.9,1.4,1.3,2.2l0,0c0,0.1,0.1,0.2,0.2,0.3l0,0c0.3,0.3,0.6,0.7,0.7,1.1l0.1,0.1
		c0.4,0.7,0.5,1.5,0.3,2.3v0.1c0,0.2,0,0.4-0.1,0.6c-0.1,0.3-0.1,0.6-0.2,0.8c-0.5,1.3-0.1,2.7,0.8,3.7c0.3,0.4,0.6,0.7,1,1.1
		c-1.4,4.2-2.7,8.3-4.1,12.5c-0.3,0.7-0.5,1.4-0.6,2.2c-0.1,1.6,1.1,3,2.7,3.1c0,0,0,0,0,0c0.3,0,0.6,0,0.8-0.1
		c0.6-0.2,1.2-0.5,1.8-0.8c2-1.6,4.8-1.7,6.9-0.2c0.6,0.3,0.9,1,0.7,1.7c-0.1,0.4-0.2,0.8-0.2,1.1c0.1,1.7-1,3.2-2.7,3.4
		c-0.4,0.1-0.9,0.3-1.3,0.6c-0.6,0.6-1.1,1.2-1.7,1.9c-0.9,1.2-1.5,2.7-1.6,4.2c-0.2,0.9,0.4,1.7,1.2,1.9c0.1,0,0.3,0,0.4,0
		c1.3,0.1,2.7,0.1,4,0.1l7.1-0.1h1.7c1.6-0.1,2.2-0.8,1.9-2.4c-0.1-1.3-0.6-2.6-1.5-3.6c-0.8-0.8-1-2.1-0.7-3.1
		c0.3-0.9,0.4-1.8,0.6-2.8c0.1-1,0.7-2,1.6-2.4c3.2-1.9,5.8-1.8,8.6,0.5c0.3,0.2,0.5,0.6,0.6,0.9c0.2,0.9,0.4,1.8,0.5,2.8
		c0.8,1.5,0.6,3.4-0.7,4.7c-0.8,1.1-1.2,2.4-1.1,3.7c0,1.1,0.4,1.8,1.6,1.8c1.4,0.1,2.8,0.1,4.2,0.1l5.1-0.1h2.6
		c2.4,0,2.6-0.2,2.6-2.6v-0.8c-0.8-1.3-1.6-2.6-2.3-3.9c-1.1-0.8-2.3-1.4-3.5-1.8c-0.6-0.1-1-0.6-1-1.2c-0.1-0.6-0.2-1.1-0.4-1.7
		c-0.4-2-0.5-2.3,1.7-3.3c1.6-0.7,3.4-0.6,5,0.2c0.7,0.3,1.3,0.8,2,1.1c1,0.6,2.3,0.4,3.2-0.4c0.9-0.7,1.3-2,0.9-3.1
		C503.2,1671.5,502.4,1669,501.6,1666.6z M455.9,1641.2c-0.5,0.8-0.9,1.8-1,2.7c-0.9-0.1-1.2-0.7-1.4-1.1c-7-10.7-5.2-24.9,4.4-33.5
		c6.5-6.2,15.6-9,24.5-7.7c8.3,0.9,15.7,5.3,20.4,12.2c6.1,8.6,6.3,20.1,0.5,29c-0.2,0.5-0.6,1-1.1,1.3l-0.9-2.3
		c-1-0.8-2.1-1.6-3.3-1.2c-1.5,0.4-2.3-0.4-3.2-1.2c-3-0.5-4.1,0-5,2.7c-0.2,0.6-0.7,1.1-1.3,1.2c-0.3,0.1-0.5,0.2-0.8,0.3
		c-1.7,0.9-2.4,3-1.5,4.8c0,0,0,0,0,0c0.3,0.6,0.8,1.1,1.4,1.5c1,0.5,2,1,3.1,1.4c0.5,0.2,1,0.5,1.5,0.8c0.2,0.2,0.2,0.5,0.1,0.7
		c0,0,0,0,0,0l0,0.1c-0.1,0.1-0.3,0.3-0.5,0.3c-8.3,4-18,4-26.4,0c-0.1,0-0.2-0.1-0.2-0.1c-0.1-0.1-0.4-0.3-0.4-0.4
		c0-0.3,0.2-0.5,0.4-0.7c1.1-0.6,2.4-1,3.7-1.6c0.8-0.3,1.5-0.8,2-1.5c1.1-1.7,0.6-3.9-1-5l0,0c-0.5-0.3-1-0.5-1.6-0.6
		c-0.3-0.1-0.6-0.4-0.7-0.8c-1.3-3.2-2.1-3.6-5.3-2.9c-0.6,1-1.7,1.5-2.8,1.1C457.9,1640.1,456.9,1640.8,455.9,1641.2L455.9,1641.2z
		 M497.6,1653.1c0.5,1,0.9,2.1,1,3.2c0,0.3-0.2,0.5-0.4,0.7c-0.3,0.2-0.8,0.1-1-0.2c-0.2-0.2-0.3-0.5-0.4-0.7
		c-0.2-0.4-0.3-0.9-0.5-1.3c-0.5-1.6-1.1-3.2-2-4.7c-1-1.4-3-1.5-4.5-2.2c-0.4-0.2-0.8-0.5-1.1-0.8c-0.1-0.2-0.2-0.5-0.1-0.8
		c0-0.2,0.1-0.3,0.2-0.4c1.2-0.3,1.8,0.3,2.6,0.4c0.7,0.2,1.4-0.2,1.6-0.9c0.1-0.3,0.1-0.5,0-0.8c-0.1-0.3-0.2-0.5-0.2-0.8
		c-0.1-0.3-0.2-0.5-0.3-0.8c-0.1-0.5-0.1-1,0.5-1.1c0.4-0.2,0.9,0,1.1,0.4v0.1c0.2,0.4,0.4,0.9,0.6,1.3c0.6,1.2,1.5,1.4,2.4,0.4
		c0.3-0.3,0.5-0.6,0.7-0.8c0.2-0.2,0.5-0.3,0.8-0.1c0.4,0.2,0.7,0.5,0.5,0.9c-0.3,0.8-0.6,1.5-1,2.3
		C495.9,1650.4,496.1,1648.9,497.6,1653.1L497.6,1653.1z M459,1646.6c-0.4-0.8-0.8-1.7-1.2-2.6c-0.1-0.4,0.1-0.7,0.5-0.9
		c0.2-0.2,0.6-0.1,0.8,0.1c0.4,0.4,0.7,0.9,1.1,1.3c0.6,0.4,1.3,0.3,1.7-0.3l0,0c0.4-0.6,0.6-1.4,1-2c0.2-0.3,0.7-0.5,1-0.3
		c0.2,0.1,0.3,0.4,0.5,0.7c-0.2,0.6-0.4,1.3-0.5,1.9c-0.3,1.4,0.4,2.1,1.9,1.8c0.6-0.1,1.1-0.4,1.6-0.4c0.3,0,0.5,0.2,0.7,0.4
		c0.3,0.3,0.2,0.7-0.1,1h0c-0.7,0.4-1.5,0.8-2.3,1.1c-4.2,1.8-3.1,0.8-4.8,5c-0.5,1.1-0.9,2.3-1.4,3.4c-0.2,0.3-0.6,0.5-1,0.3
		c-0.4-0.1-0.6-0.5-0.5-0.9c0.4-1.1,0.8-2.3,1.2-3.5C460.7,1649,460.8,1650.1,459,1646.6L459,1646.6z M470.4,1688.6h-7.7
		c-0.4,0-1,0.1-1.1-0.5c-0.1-0.5,0.1-1,0.4-1.3c1.7-2.4,5.1-2.9,7.5-1.2c0.6,0.5,1.2,1.1,1.6,1.8c0.3,0.3,0.3,0.7,0,1c0,0,0,0,0,0
		C470.8,1688.5,470.5,1688.6,470.4,1688.6L470.4,1688.6z M468.4,1678.6c0.2-0.5,0.8-0.4,1.3-0.3c0.2,0.1,0.5,0.2,0.5,0.9
		c0,0.9-0.2,1.8-0.6,2.7c-0.2,0.3-0.6,0.5-1,0.4c-0.4-0.1-0.7-0.3-0.8-0.7C467.8,1680.5,468,1679.5,468.4,1678.6L468.4,1678.6z
		 M495.6,1688.5h-9.9c-0.4-0.9,0.2-1.5,0.7-2c0.8-0.9,1.9-1.6,3.2-1.8C492.1,1684.3,494,1685.5,495.6,1688.5L495.6,1688.5z
		 M487.5,1678.3c0.4-0.1,0.7,0.1,0.9,0.4c0.4,0.9,0.6,1.8,0.5,2.7c0,0.5-0.4,0.8-0.9,0.8c-0.4,0-0.7-0.2-0.8-0.6l0,0
		c-0.2-0.8-0.4-1.6-0.5-2.4c-0.2-0.5,0.2-0.9,0.7-0.9H487.5z M501.1,1674.6c-0.5,0.2-0.9-0.2-1.3-0.4c-2.8-1.7-6.4-1.7-9.2,0.1
		c-0.6,0.4-1.3,0.8-2,1c-1.7,0.5-3.5,0.3-5-0.7c-1.1-0.8-2.3-1.3-3.6-1.5c-2.2-0.4-4.4,0.1-6.3,1.2c-2,1.6-4.8,1.7-7,0.3
		c-2.9-2-6.7-2.2-9.7-0.4c-0.3,0.1-0.5,0.2-0.8,0.3H456c-0.3-0.4-0.3-0.9-0.1-1.3c1.3-4,2.6-7.9,3.9-11.9c0.1-0.5,0.4-1,0.8-1.4
		c1-0.8,1.8-1.8,2.3-3.1c0.7-0.1,1.5,0,2.1,0.3c8.5,2.6,17.6,2.6,26.1,0.2c0.3-0.1,0.5-0.2,0.8-0.3c1.6-0.4,1.6-0.4,2.7,1.1
		c0.2,0.2,0.3,0.6,0.5,0.7c1.6,1,2,2.7,2.5,4.3c1.1,3.4,2.3,6.9,3.4,10.3c0,0.3,0.3,0.7-0.1,1.2L501.1,1674.6z"/>
	<path class="st46" d="M494.6,1639.3c-3-0.5-4.1,0-5,2.7c-0.2,0.6-0.7,1.1-1.3,1.2c-0.3,0.1-0.5,0.2-0.8,0.3c-1.7,0.9-2.4,3-1.6,4.8
		c0.3,0.7,0.9,1.2,1.5,1.5c1,0.5,2,1,3.1,1.4c0.5,0.2,1,0.5,1.5,0.8c0.2,0.2,0.2,0.5,0.1,0.7c0,0,0,0,0,0l0,0.1
		c-0.1,0.1-0.3,0.2-0.5,0.3c-8.3,4-18,4-26.4,0c-0.1,0-0.2-0.1-0.2-0.1c-0.1-0.1-0.4-0.3-0.4-0.4c0-0.3,0.2-0.5,0.4-0.7
		c1.1-0.6,2.4-1,3.7-1.6c0.8-0.3,1.5-0.8,2-1.5c1.1-1.7,0.6-3.9-1-5l0,0c-0.5-0.3-1-0.5-1.6-0.6c-0.3-0.1-0.6-0.4-0.7-0.8
		c-1.3-3.2-2.1-3.6-5.3-2.9c-0.1-0.8-0.3-1.5-0.7-2.1c-0.8-1.2-2.2-1.9-3.6-1.6c-1.3,0.1-2.3,1-2.7,2.2c-0.4,1.3-0.5,2.6,1,3.4
		c-0.5,0.8-0.9,1.8-1,2.7c-0.9-0.1-1.1-0.7-1.4-1.1c-7-10.7-5.2-25,4.4-33.5c6.5-6.2,15.6-9,24.5-7.7c8.3,0.9,15.7,5.3,20.4,12.2
		c6.1,8.6,6.3,20.1,0.5,29c-0.2,0.5-0.6,1-1.1,1.3c-0.3-0.8-0.6-1.6-0.9-2.4c0.3-0.7,0.5-1.4,0.7-2.1c0.3-1.8-0.9-3.6-2.7-3.9
		c-1.4-0.3-2.8,0.4-3.5,1.6C495.2,1637.9,494.9,1638.6,494.6,1639.3z M483,1615.1c0.7,0.6,1.4,1.2,2.2,1.7c1.4,0.9,3.1,1,4.6,0.3
		c2.6-1.5,4.1-4.4,3.8-7.4c-0.1-0.7-0.7-1.2-1.4-1.1c-0.5,0.1-0.9,0.4-1,0.9c-0.2,0.8-0.3,1.7-0.5,2.5c-0.6,1.8-1.9,3.1-3.1,2.9
		c-1.5-0.2-2.6-1.4-2.8-2.8c-0.2-0.8-0.3-1.7-0.5-2.5c-0.1-0.6-0.7-1-1.3-0.9c-0.5,0-0.9,0.3-1.1,0.8c-0.2,0.6-0.3,1.3-0.4,1.9
		c-0.1,0.8-0.4,1.5-0.9,2.1c-1.3,1.9-3.3,1.9-4.6-0.1c-0.5-0.8-0.8-1.7-0.9-2.7c0-0.5-0.1-0.9-0.3-1.4c-0.3-0.6-1.1-0.9-1.7-0.6
		c-0.2,0.1-0.5,0.3-0.6,0.6c-0.2,0.5-0.3,1.1-0.3,1.7c-0.1,1-0.6,2-1.3,2.8c-0.7,1.1-2.2,1.4-3.3,0.6c-0.2-0.2-0.4-0.4-0.6-0.6
		c-0.6-0.6-1-1.4-1.1-2.3c-0.1-0.7-0.2-1.3-0.4-1.9c-0.1-0.7-0.7-1.1-1.4-1c0,0,0,0,0,0h-0.1c-0.6,0-1.1,0.5-1.1,1.1
		c-0.2,2.4,0.7,4.8,2.5,6.4c1.8,1.7,4.6,1.9,6.5,0.3c0.6-0.4,1.1-0.9,1.6-1.4C477.3,1618.4,479.3,1618.4,483,1615.1L483,1615.1z
		 M478.5,1633.2h-6.3c-1.5,0-2,0.6-2.1,2.1c-0.2,4.5,3.4,8.3,7.9,8.5c4.5,0.2,8.3-3.4,8.5-7.9c0-0.3,0-0.5,0-0.8
		c-0.1-1.2-0.5-1.8-1.7-1.8C482.7,1633.2,480.6,1633.2,478.5,1633.2L478.5,1633.2z M490.9,1630.8c0.3-0.8,1-1,1.5-1.3
		s1.3-0.8,1.9-1.2c0.6-0.3,0.9-1.1,0.5-1.8c-0.3-0.6-1.1-0.8-1.7-0.5c-2.1,1.1-4.1,2.3-6.1,3.6c-0.6,0.4-0.7,1.1-0.4,1.7
		c0.1,0.1,0.2,0.2,0.3,0.3c2.1,1.3,4.2,2.5,6.4,3.8c0.3,0.2,0.8,0.1,1.1-0.1c0.6-0.3,0.9-1,0.6-1.6c-0.1-0.2-0.2-0.4-0.4-0.5
		C493.4,1632.2,492.1,1631.5,490.9,1630.8L490.9,1630.8z M466,1630.8l-2.6,1.5c-0.4,0.2-0.8,0.5-1.1,0.8c-0.5,0.4-0.6,1.2-0.2,1.8
		c0.3,0.5,1,0.7,1.5,0.4c2-1.1,4-2.2,5.9-3.4c0.7-0.3,1-1.1,0.7-1.8c-0.1-0.3-0.4-0.6-0.7-0.7c-1.8-1.1-3.7-2.2-5.6-3.3
		c-0.2-0.1-0.3-0.1-0.5-0.2c-0.5-0.1-1,0.1-1.2,0.5c-0.4,0.5-0.3,1.1,0.1,1.6c0.3,0.3,0.7,0.6,1.1,0.8
		C464.2,1629.3,465.2,1629.9,466,1630.8L466,1630.8z"/>
	<path class="st41" d="M455.9,1674.4c-0.3-0.4-0.3-0.9-0.1-1.3c1.3-4,2.6-7.9,3.9-11.9c0.1-0.6,0.4-1.1,0.8-1.5
		c1-0.8,1.8-1.8,2.3-3.1c0.7-0.1,1.5,0,2.1,0.3c8.5,2.6,17.6,2.6,26.1,0.2c0.3-0.1,0.5-0.2,0.8-0.2c1.6-0.4,1.6-0.4,2.7,1.1
		c0.2,0.2,0.3,0.6,0.5,0.7c1.6,1,2,2.7,2.5,4.3c1.1,3.4,2.3,6.9,3.4,10.3c0.1,0.4,0.5,0.8,0.1,1.3c-0.5,0.2-0.9-0.2-1.3-0.4
		c-2.8-1.7-6.4-1.7-9.2,0.1c-0.6,0.4-1.3,0.8-2,1c-1.7,0.5-3.5,0.3-4.9-0.7c-1.1-0.8-2.3-1.3-3.6-1.5c-2.2-0.4-4.4,0.1-6.3,1.2
		c-2,1.6-4.8,1.7-6.9,0.3c-2.9-2.1-6.7-2.2-9.7-0.4c-0.3,0.1-0.5,0.2-0.8,0.3C456.1,1674.4,456,1674.4,455.9,1674.4z"/>
	<path class="st46" d="M488.6,1646c1.2-0.3,1.8,0.3,2.6,0.4c0.7,0.2,1.4-0.2,1.6-0.9c0.1-0.3,0.1-0.5,0-0.8
		c-0.1-0.3-0.2-0.5-0.2-0.8c-0.1-0.3-0.2-0.5-0.3-0.8c-0.1-0.5-0.1-1,0.5-1.1c0.4-0.2,0.9,0,1.1,0.4l0,0.1c0.2,0.4,0.4,0.9,0.6,1.3
		c0.6,1.2,1.5,1.4,2.4,0.4c0.3-0.3,0.5-0.6,0.7-0.8c0.2-0.2,0.5-0.3,0.8-0.1c0.4,0.2,0.7,0.5,0.5,0.9c-0.3,0.8-0.6,1.5-1,2.3
		c-2,4.1-1.9,2.5-0.4,6.8c0.5,1,0.9,2.1,1,3.2c0,0.3-0.2,0.5-0.4,0.7c-0.3,0.2-0.8,0.1-1-0.2c-0.2-0.2-0.3-0.5-0.4-0.7
		c-0.2-0.4-0.3-0.9-0.5-1.3c-0.5-1.6-1.1-3.2-2-4.7c-1-1.4-3-1.5-4.5-2.2c-0.4-0.2-0.8-0.5-1.2-0.8c-0.1-0.2-0.2-0.5-0.1-0.8
		C488.4,1646.3,488.5,1646.1,488.6,1646z"/>
	<path class="st46" d="M464.5,1642.6c-0.2,0.6-0.4,1.3-0.5,1.9c-0.3,1.4,0.4,2.1,1.9,1.8c0.6-0.1,1.1-0.4,1.6-0.4
		c0.3,0,0.5,0.2,0.7,0.4c0.2,0.3,0.2,0.7-0.1,1h0c-0.7,0.4-1.5,0.8-2.3,1.1c-4.2,1.8-3.1,0.8-4.8,5c-0.5,1.1-0.9,2.3-1.4,3.4
		c-0.3,0.4-0.8,0.5-1.2,0.2c-0.2-0.2-0.4-0.5-0.3-0.8c0.4-1.1,0.8-2.3,1.2-3.5c1.4-3.6,1.4-2.5-0.3-6.1c-0.4-0.8-0.8-1.7-1.1-2.6
		c-0.1-0.4,0.1-0.7,0.5-0.9c0.2-0.2,0.6-0.1,0.8,0.1c0.4,0.4,0.7,0.9,1.1,1.3c0.6,0.4,1.3,0.3,1.7-0.3l0,0c0.4-0.7,0.6-1.4,1-2
		c0.2-0.3,0.7-0.5,1-0.2C464.2,1642,464.3,1642.3,464.5,1642.6z"/>
	<path class="st40" d="M455.9,1641.2c-1.4-0.8-1.4-2.2-1-3.4c0.4-1.2,1.4-2.1,2.7-2.2c1.4-0.3,2.9,0.4,3.6,1.6
		c0.4,0.6,0.7,1.4,0.7,2.1c-0.6,1-1.7,1.5-2.8,1.1C457.9,1640.1,456.9,1640.8,455.9,1641.2z"/>
	<path class="st40" d="M494.6,1639.3c0.3-0.7,0.6-1.4,1-2c0.9-1.6,3-2.2,4.6-1.3c1.2,0.7,1.9,2.1,1.6,3.6c-0.2,0.7-0.4,1.4-0.7,2.1
		c-1-0.8-2.1-1.6-3.3-1.2C496.3,1640.9,495.5,1640.1,494.6,1639.3z"/>
	<path class="st42" d="M466.1,1688.6h-3.4c-0.4,0-1,0.1-1.1-0.5c-0.1-0.5,0.1-1,0.5-1.3c1.7-2.4,5.1-2.9,7.5-1.2
		c0.6,0.5,1.2,1.1,1.6,1.8c0.2,0.3,0.2,0.8-0.1,1c0,0,0,0,0,0c-0.1,0.1-0.3,0.1-0.5,0.1L466.1,1688.6L466.1,1688.6z"/>
	<path class="st42" d="M495.5,1688.5h-9.8c-0.4-0.9,0.2-1.5,0.7-2c0.8-0.9,1.9-1.6,3.2-1.8C492,1684.3,494,1685.4,495.5,1688.5z"/>
	<path class="st46" d="M470.1,1679.3c0,0.9-0.2,1.8-0.6,2.7c-0.2,0.3-0.6,0.5-0.9,0.4c-0.4-0.1-0.7-0.3-0.8-0.7
		c-0.1-1,0.2-2.1,0.6-3c0.2-0.5,0.8-0.4,1.3-0.3C469.9,1678.4,470.1,1678.5,470.1,1679.3z"/>
	<path class="st46" d="M487.4,1678.3c0.4-0.1,0.7,0.1,0.9,0.4c0.4,0.9,0.6,1.8,0.5,2.7c0,0.5-0.4,0.8-0.9,0.8
		c-0.4,0.1-0.7-0.2-0.8-0.6l0,0c-0.2-0.8-0.4-1.6-0.5-2.4C486.5,1678.6,486.9,1678.3,487.4,1678.3z"/>
	<path class="st45" d="M483,1615.1c-3.7,3.2-5.7,3.2-9.3,0c-0.5,0.4-1,0.9-1.6,1.4c-1.9,1.6-4.7,1.5-6.5-0.3c-1.8-1.6-2.7-4-2.5-6.4
		c0-0.6,0.5-1.1,1.1-1.1c0.6-0.1,1.3,0.3,1.4,0.9c0,0,0,0.1,0,0.1c0.2,0.6,0.2,1.3,0.4,1.9c0.2,0.9,0.6,1.6,1.1,2.3
		c0.7,1.1,2.2,1.4,3.3,0.6c0.2-0.2,0.4-0.4,0.6-0.6c0.7-0.8,1.1-1.8,1.2-2.8c0-0.6,0.1-1.1,0.3-1.7c0.3-0.6,1.1-0.9,1.7-0.6
		c0.3,0.1,0.5,0.3,0.6,0.6c0.2,0.5,0.3,0.9,0.3,1.4c0.1,1,0.4,1.9,0.9,2.7c1.3,2,3.2,2,4.6,0.1c0.5-0.6,0.7-1.4,0.9-2.1
		c0.1-0.7,0.2-1.3,0.4-2c0.1-0.5,0.6-0.8,1.1-0.8c0.6-0.1,1.2,0.3,1.3,0.9c0.2,0.8,0.3,1.7,0.5,2.5c0.2,1.5,1.4,2.6,2.8,2.8
		c1.2,0.2,2.5-1,3.1-2.9c0.3-0.8,0.3-1.7,0.5-2.5c0.2-0.7,0.9-1,1.6-0.8c0,0,0,0,0,0c0.5,0.2,0.8,0.5,0.9,1c0.3,3-1.2,5.9-3.8,7.4
		c-1.5,0.7-3.2,0.6-4.6-0.3C484.4,1616.4,483.7,1615.7,483,1615.1z"/>
	<path class="st45" d="M478.5,1633.2h6.3c1.2,0,1.6,0.6,1.7,1.8c0.6,4.5-2.6,8.6-7,9.2c-4.5,0.6-8.6-2.6-9.2-7
		c0-0.4-0.1-0.7-0.1-1.1c0-0.3,0-0.6,0-0.8c0-1.5,0.5-2,2.1-2.1L478.5,1633.2L478.5,1633.2z M473,1636c0.1,1,0.4,2,1,2.8
		c1.1,1.7,3.2,2.6,5.2,2.3c2.1-0.3,3.9-1.8,4.5-3.9c0.2-0.7-0.1-1.1-0.8-1.1C479.6,1636,476.4,1636,473,1636L473,1636z"/>
	<path class="st45" d="M490.9,1630.7c1.1,0.8,2.4,1.5,3.5,2.3c0.6,0.4,0.7,1.1,0.3,1.7c0,0,0,0,0,0c-0.1,0.2-0.3,0.3-0.5,0.4
		c-0.3,0.2-0.7,0.3-1.1,0.1c-2.1-1.2-4.2-2.5-6.4-3.8c-0.5-0.4-0.6-1.2-0.2-1.7c0.1-0.1,0.2-0.2,0.3-0.3c2-1.2,4-2.4,6.1-3.6
		c0.6-0.3,1.4-0.1,1.7,0.6c0,0,0,0,0,0c0.3,0.6,0.1,1.4-0.5,1.7c-0.6,0.4-1.3,0.8-1.9,1.1S491.2,1629.9,490.9,1630.7z"/>
	<path class="st45" d="M465.9,1630.7c-0.8-0.8-1.8-1.4-2.8-2c-0.4-0.2-0.8-0.5-1.1-0.8c-0.4-0.4-0.4-1.1-0.1-1.6
		c0.3-0.4,0.8-0.6,1.2-0.5c0.2,0,0.4,0.1,0.5,0.2c1.9,1.1,3.8,2.1,5.6,3.3c0.7,0.3,1,1.1,0.7,1.8c-0.1,0.3-0.4,0.6-0.7,0.7
		c-1.9,1.1-3.9,2.3-5.9,3.4c-0.5,0.3-1.2,0.1-1.5-0.4c-0.4-0.6-0.3-1.3,0.2-1.8c0.4-0.3,0.7-0.6,1.1-0.8L465.9,1630.7z"/>
	<path class="st36" d="M472.9,1636h9.9c0.4,0,0.8,0.3,0.8,0.7c0,0.1,0,0.3-0.1,0.4c-0.6,2.1-2.3,3.6-4.5,3.9c-2,0.3-4.1-0.6-5.2-2.3
		C473.3,1637.9,473,1637,472.9,1636z"/>
	<path class="st47" d="M781.2,1617.5c0,15.5,0,29.1-12,36.7c-7.5,8.2-54.1,8.2-61.6,0c-12-7.5-12-21.1-12-36.7
		c0-2.1,0.9-27,1.2-27.9c1.6-4.4,3.4-13.3,9.3-12.4c21.4,3.3,43.2,3.3,64.6,0c5.9-0.9,7.7,8,9.3,12.4
		C780.2,1590.5,781.2,1615.4,781.2,1617.5z"/>
	<path class="st48" d="M768.3,1610.3c2.1,0,3.9-1.7,4-3.8s-1.7-3.9-3.8-4c-2.1,0-3.9,1.7-4,3.8v0.1
		C764.5,1608.5,766.2,1610.2,768.3,1610.3L768.3,1610.3z"/>
	<path class="st48" d="M772.5,1622.6c1.1,0,2.1-0.9,2.1-2.1c0-1.1-0.9-2.1-2.1-2.1c-1.1,0-2.1,0.9-2.1,2v0
		C770.5,1621.7,771.4,1622.6,772.5,1622.6z"/>
	<path class="st48" d="M770.5,1632.6c0.7,0,1.3-0.6,1.3-1.3c0-0.7-0.6-1.3-1.3-1.3c0,0,0,0,0,0l0,0c-0.7,0-1.3,0.6-1.3,1.3
		C769.2,1631.9,769.8,1632.5,770.5,1632.6z"/>
	<path class="st48" d="M709.6,1606.4c1.6,0,2.8-1.3,2.8-2.8s-1.3-2.8-2.8-2.8s-2.8,1.3-2.8,2.8l0,0
		C706.7,1605.2,708,1606.4,709.6,1606.4z"/>
	<path class="st48" d="M702.8,1611.7c1,0,1.8-0.8,1.8-1.8c0-1-0.8-1.8-1.8-1.8s-1.8,0.8-1.8,1.8l0,0
		C701,1611,701.8,1611.7,702.8,1611.7z"/>
	<path class="st48" d="M703.2,1633.5c0.8,0,1.4-0.6,1.4-1.4l0,0c0-0.8-0.6-1.4-1.4-1.4s-1.4,0.6-1.4,1.4
		C701.8,1632.9,702.4,1633.6,703.2,1633.5L703.2,1633.5z"/>
	<path class="st48" d="M705.4,1623.2c1.5,0,2.6-1.1,2.7-2.6c0,0,0,0,0,0l0,0c-0.1-1.5-1.3-2.6-2.8-2.5c-1.4,0.1-2.4,1.2-2.5,2.5
		C702.8,1622.1,704,1623.3,705.4,1623.2C705.4,1623.3,705.4,1623.3,705.4,1623.2L705.4,1623.2z"/>
	<path class="st49" d="M781.2,1617.5c0,15.5,0,29.1-12,36.7c-7.5,8.2-54.1,8.2-61.6,0c-0.2-0.5-0.2-0.9,0.6-0.9
		c18.2,3.9,47.2,7.4,59.7-4.8s8.2-45.9,7.5-48c-1.5-4.2-34.6-3.8-34.6-3.8l-1.7-17c10.6,0,21.2-0.9,31.6-2.5c5.9-0.9,7.7,8,9.3,12.4
		C780.3,1590.5,781.2,1615.4,781.2,1617.5L781.2,1617.5z"/>
	<path class="st50" d="M707.5,1654.1c-12-7.5-12-21.1-12-36.7c0-2.1,0.8-26.1,1.2-27.8l9.5,4.4c-1.7,0.3-5.1,0.8-5.2,2.1
		c-2.2,31.6,0,46.6,1.5,49.1C703.7,1648.4,705.4,1651.4,707.5,1654.1L707.5,1654.1z"/>
	<path class="st51" d="M696.6,1590.3c0-0.2,0-0.4,0.1-0.7c1.6-4.4,3.4-13.3,9.3-12.4c21.4,3.3,43.2,3.3,64.6,0
		c5.9-0.9,7.7,8,9.3,12.4c0.1,0.3,0.1,0.5,0.1,0.8C766.8,1599.1,703.8,1598.5,696.6,1590.3z"/>
	<path class="st52" d="M696.6,1590.3c0-0.2,0-0.4,0.1-0.7c1.6-4.4,3.4-13.3,9.3-12.4c2.9,0.5,5.8,0.8,8.8,1.1
		c-8.9-0.1-10.5-0.5-13.6,7.4c-2.7,7,1.5,6.4,5,8.3C701.4,1593.1,698,1591.8,696.6,1590.3L696.6,1590.3z"/>
	<path class="st19" d="M782.2,1617.5c0,7.8,0,15.2-1.6,21.6c-1.6,6.4-4.7,12-10.9,15.9c-0.1,0.1-0.2,0.3-0.4,0.4
		c-4.5,4-17.8,6.1-31.2,6.1l0,0c-13.3,0-26.7-2-31.2-6.1c-0.1-0.1-0.3-0.2-0.4-0.4c-6.2-3.9-9.4-9.4-10.9-15.9
		c-1.6-6.5-1.5-13.8-1.5-21.6c0-1.2,0.3-14.3,0.7-20.1c0.2-4.1,0.5-7.6,0.7-8.1c0.3-0.7,0.5-1.4,0.8-2.2c1.6-5,3.8-11.8,9.8-10.9
		c21.3,3.3,43,3.3,64.2,0c5.9-0.9,8.2,6,9.7,10.9c0.3,0.8,0.5,1.5,0.8,2.2l0,0c0.4,2.7,0.6,5.4,0.7,8.1
		C781.9,1603.2,782.2,1616.2,782.2,1617.5L782.2,1617.5z M778.6,1638.6c1.5-6.1,1.5-13.3,1.5-21.1c0-1.3-0.3-14.2-0.7-20
		c-0.2-3.9-0.4-7.2-0.5-7.5l0,0c-0.2-0.7-0.5-1.5-0.8-2.3c-1.4-4.2-3.3-10-7.3-9.4c-21.5,3.3-43.4,3.3-64.9,0
		c-4.1-0.6-6,5.2-7.4,9.4c-0.3,0.8-0.5,1.7-0.8,2.3c-0.1,0.3-0.3,3.5-0.6,7.5c-0.3,5.7-0.6,18.7-0.6,20c0,7.7,0,14.9,1.5,21.1
		c1.5,6.2,4.3,11.1,10.1,14.6l0.2,0.2c0.1,0.1,0.2,0.2,0.3,0.3c4,3.7,16.8,5.5,29.7,5.5l0,0c12.8,0,25.6-1.8,29.6-5.5
		c0.1-0.1,0.2-0.2,0.4-0.3l0.2-0.2C774.2,1649.6,777.1,1644.6,778.6,1638.6L778.6,1638.6z"/>
	<path class="st53" d="M691.2,1598.2c-2.8,0-5.1-2.3-5.1-5.1c0-2.8,2.3-5,5.1-5.1h93.1c2.8,0,5.1,2.3,5.1,5.1c0,2.8-2.3,5-5.1,5.1
		H691.2z"/>
	<path class="st54" d="M691.2,1590.2h93c1.7,0,3,1.3,3,3l0,0c0,1.7-1.3,3-3,3h-93c-1.7,0-3-1.3-3-3c0,0,0,0,0,0l0,0
		C688.2,1591.5,689.6,1590.2,691.2,1590.2C691.2,1590.2,691.2,1590.2,691.2,1590.2z"/>
	<path class="st53" d="M738.3,1600c3.8,0,6.8-3,6.8-6.8c0-3.8-3-6.8-6.8-6.8c-3.8,0-6.8,3-6.8,6.8c0,0,0,0,0,0
		C731.6,1596.9,734.6,1599.9,738.3,1600z"/>
	<path class="st55" d="M741.1,1588.9c1.9,1.5,2.5,4.2,1.2,6.3c-1.1,2.4-3.9,3.5-6.3,2.5l0.4-0.4c1.1-1.1,1.8-2.5,2.2-4
		C739.2,1591.7,740,1590.2,741.1,1588.9z M735.3,1597.3c-1.8-1.6-2.2-4.2-1.1-6.2c1.1-2.3,3.7-3.4,6.1-2.5c-1.1,1.3-1.9,2.8-2.4,4.5
		c-0.4,1.4-1.1,2.7-2.1,3.8C735.6,1597,735.5,1597.1,735.3,1597.3L735.3,1597.3z"/>
	<path class="st56" d="M732,1692.1h-10.7c0.7-2.9,3.7-4.8,6.6-4C729.9,1688.5,731.5,1690.1,732,1692.1L732,1692.1z"/>
	<path class="st56" d="M756,1692.1h-10.6c0.8-2.9,3.8-4.7,6.7-3.9C754,1688.6,755.5,1690.1,756,1692.1z"/>
	<path class="st30" d="M761.6,1678.4c-0.1,0.1-0.3,0.1-0.4,0c-0.3-0.2-0.6-0.3-0.9-0.5c-2.9-2-6.8-2-9.8,0c-0.8,0.6-1.7,1-2.7,1.1
		H747c-1.1,0-2.2-0.3-3.1-0.9l-0.4-0.2c-3-2-6.9-2-9.8,0l-0.4,0.2c-0.9,0.6-2,0.9-3.1,0.9h-0.8c-1-0.1-1.9-0.5-2.7-1.1
		c-2.9-2-6.8-2-9.8,0c-0.3,0.2-0.6,0.4-0.9,0.5c-0.1,0.1-0.2,0.1-0.3,0c-0.1-0.1-0.2-0.2-0.1-0.4l6.3-19l0.4-1.1
		c3.8,2.2,8,3.6,12.3,4.1h0.5c1.2,0.1,2.4,0.2,3.5,0.2c1.2,0,2.4-0.1,3.5-0.2h0.4c4.3-0.5,8.5-1.9,12.4-4.1l0.5,1.6l6.1,18.6
		C761.7,1678.2,761.7,1678.3,761.6,1678.4z"/>
	<path class="st19" d="M712.2,1648.5c-1.1-1.1-3.5-6.6-3.5-6.6c-1.1-3.1-1.7-6.4-1.7-9.7c0-16.5,14.2-29.9,31.7-29.9
		s31.7,13.5,31.7,29.9c0,3.3-0.6,6.6-1.7,9.7c-1.1,3.1-3.2,6.8-3.1,7c0.1,0.1,0.5,1.1,0.5,1.1c0.3,0.7,0.5,1.5,0.5,2.3
		c0,1.7-0.7,3.3-1.9,4.5c0.7,1.6,1.8,4.8,0.5,7.4c-0.9,1.6-2.4,2.8-4.2,3.2l3.2,9.8c0.5,1.5-0.3,3.2-1.9,3.7
		c-0.7,0.2-1.6,0.2-2.3-0.2c-0.4-0.2-0.8-0.4-1.1-0.7c-2.1-1.5-4.9-1.5-7,0c-0.3,0.2-0.5,0.3-0.8,0.5l1,4.8c3.9,0.7,6.7,4,6.7,8
		c0,0.7-0.6,1.3-1.3,1.3c0,0,0,0,0,0h-13.6c-0.7,0-1.3-0.6-1.3-1.3c0,0,0,0,0,0l0,0c0-2.2,0.9-4.4,2.6-5.9l-1.3-6.4
		c-0.4-0.2-0.9-0.4-1.3-0.7l-0.4-0.3c-2.1-1.5-4.9-1.5-7,0l-0.4,0.3c-0.4,0.3-0.8,0.5-1.3,0.7l-1.3,6.4c1.6,1.5,2.6,3.7,2.6,5.9
		c0,0.7-0.6,1.3-1.3,1.3c0,0,0,0,0,0h-13.6c-0.7,0-1.3-0.6-1.3-1.3c0-3.9,2.8-7.3,6.7-8l1-4.8c-0.3-0.2-0.6-0.3-0.8-0.5
		c-2.1-1.5-4.9-1.5-7,0c-0.4,0.2-0.8,0.5-1.1,0.7c-1.4,0.7-3.2,0.2-4-1.3c-0.4-0.7-0.4-1.5-0.2-2.3l3.2-9.8
		c-1.8-0.4-3.3-1.6-4.2-3.2c-1.3-2.6-0.2-5.8,0.5-7.4c-1.2-1.2-1.9-2.8-1.9-4.5c0-0.8,0.2-1.6,0.5-2.3L712.2,1648.5z M763.3,1646.8
		c2.9-4.3,4.5-9.4,4.5-14.6c0-15-13.1-27.3-29.1-27.3c-16,0-29.1,12.3-29.1,27.3c0,5.2,1.6,10.3,4.5,14.6c0.9-0.5,1.9-0.7,3-0.7
		c3.4,0,6.2,2.8,6.2,6.2c0,0.9-0.2,1.9-0.6,2.7c3.7,2.3,8,3.8,12.3,4.3h0.4c2.2,0.2,4.4,0.2,6.7,0h0.4c4.4-0.5,8.6-2,12.3-4.3
		c-1.5-3.1-0.2-6.8,2.9-8.3C759.4,1645.9,761.5,1645.9,763.3,1646.8L763.3,1646.8z M763.9,1652.3c0-2-1.6-3.6-3.6-3.7
		c-2,0-3.6,1.6-3.7,3.6s1.6,3.6,3.6,3.7l0,0C762.3,1655.9,763.9,1654.3,763.9,1652.3L763.9,1652.3L763.9,1652.3z M762.8,1663.1
		c0.7-1.5,0.1-3.6-0.4-4.9c-1.5,0.5-3.1,0.5-4.5-0.1l2.3,6.9C761.3,1664.7,762.2,1664,762.8,1663.1L762.8,1663.1z M761.6,1678.4
		c0.1-0.1,0.1-0.2,0.1-0.3l-6.7-20.2c-3.8,2.2-8,3.5-12.4,4.1h-0.4c-1.2,0.1-2.4,0.2-3.6,0.2c-1.2,0-2.4-0.1-3.5-0.2h-0.5
		c-4.3-0.5-8.5-1.9-12.3-4.1l-6.7,20.2c-0.1,0.1,0,0.3,0.1,0.4c0.1,0.1,0.2,0.1,0.3,0c0.3-0.2,0.6-0.3,0.9-0.5c2.9-2,6.8-2,9.8,0
		c0.8,0.6,1.7,1,2.7,1.1h0.8c1.1,0,2.2-0.3,3.1-0.9l0.4-0.2c3-2,6.9-2,9.8,0l0.4,0.2c0.9,0.6,2,0.9,3.1,0.9h0.8
		c1-0.1,1.9-0.5,2.7-1.1c2.9-2,6.8-2,9.8,0c0.3,0.2,0.6,0.4,0.9,0.5C761.4,1678.4,761.5,1678.4,761.6,1678.4L761.6,1678.4z
		 M745.4,1692.1H756c-0.8-2.9-3.8-4.7-6.7-3.9C747.4,1688.6,745.9,1690.1,745.4,1692.1z M749.4,1685.4l-0.8-3.9
		c-0.2,0-0.3,0-0.5,0.1c-0.4,0-0.7,0.1-1.1,0.1h-0.4l0.9,4.3C748.2,1685.7,748.8,1685.5,749.4,1685.4L749.4,1685.4z M721.4,1692.1
		H732c-0.7-2.9-3.7-4.7-6.6-4C723.4,1688.5,721.8,1690.1,721.4,1692.1L721.4,1692.1z M729.9,1685.9l0.9-4.3h-0.4
		c-0.4,0-0.7,0-1.1-0.1l-0.5-0.1l-0.8,3.9C728.6,1685.5,729.2,1685.7,729.9,1685.9L729.9,1685.9z M720.6,1652.3c0-2-1.6-3.6-3.6-3.6
		c-2,0-3.6,1.6-3.6,3.6s1.6,3.6,3.6,3.6l0,0C719,1655.9,720.6,1654.3,720.6,1652.3L720.6,1652.3L720.6,1652.3z M717.2,1664.9
		l2.3-6.9c-0.8,0.3-1.6,0.5-2.4,0.5c-0.7,0-1.4-0.1-2.1-0.4c-0.6,1.4-1.1,3.4-0.4,4.9C715.1,1664,716.1,1664.7,717.2,1664.9
		L717.2,1664.9z"/>
	<path class="st29" d="M738.7,1605c-16.1,0-29.1,12.3-29.1,27.3c0,5.2,1.6,10.3,4.5,14.6c0.9-0.5,1.9-0.7,3-0.7c3.2,0,6,2.5,6.2,5.7
		c0,0.2,0,0.3,0,0.5c0,0.9-0.2,1.9-0.6,2.7c3.7,2.3,8,3.8,12.3,4.3h0.4c2.2,0.2,4.4,0.2,6.6,0h0.4c4.4-0.5,8.6-2,12.3-4.3
		c-0.4-0.8-0.6-1.8-0.6-2.7v-0.5c0.3-3.2,3-5.7,6.2-5.7c0.6,0,1.1,0.1,1.7,0.2c0.4,0.1,0.9,0.3,1.3,0.5c2.9-4.3,4.5-9.4,4.5-14.6
		C767.8,1617.2,754.7,1605,738.7,1605z M732.6,1608.2c0.7,0,1.3,0.6,1.3,1.3l0,0c0,3.6,2.6,6.7,6.2,7.3c-0.5-0.8-0.7-1.8-0.7-2.7
		c0-3,2.4-5.4,5.4-5.4l0,0c0.7,0,1.3,0.6,1.3,1.3c0,0.7-0.6,1.3-1.3,1.3c-1.6,0-2.8,1.3-2.8,2.9c0,1.1,0.7,2.2,1.8,2.6
		c0.7,0.2,1,1,0.8,1.7c-0.1,0.4-0.5,0.7-0.9,0.8c-0.8,0.2-1.6,0.3-2.4,0.3c-5.5,0-10-4.5-10.1-10
		C731.3,1608.8,731.9,1608.2,732.6,1608.2L732.6,1608.2z M732,1638.1c0.7,0,1.3,0.6,1.3,1.3l0,0c0.1,1.1,1,2,2.1,1.9
		c1-0.1,1.8-0.9,1.9-1.9c-0.1-0.7,0.5-1.3,1.2-1.4c0.7-0.1,1.3,0.5,1.4,1.2c0,0.1,0,0.1,0,0.2l0,0c0.1,1.1,1,2,2.1,1.9
		c1-0.1,1.8-0.9,1.9-1.9c0-0.7,0.5-1.3,1.2-1.4c0.7,0,1.3,0.5,1.4,1.1c0,0.1,0,0.2,0,0.2c0,2.5-2,4.6-4.5,4.7
		c-1.3,0-2.5-0.5-3.4-1.5c-1.7,1.9-4.6,2-6.5,0.2c-1-0.9-1.5-2.1-1.5-3.5C730.7,1638.6,731.2,1638,732,1638.1
		C732,1638,732,1638,732,1638.1L732,1638.1L732,1638.1z M722.2,1638.3c-0.4-0.6-0.2-1.4,0.5-1.8c0,0,0,0,0,0l0,0l4-2.3l-4-2.3
		c-0.7-0.3-0.9-1.1-0.6-1.8c0.3-0.7,1.1-0.9,1.8-0.6c0,0,0.1,0,0.1,0.1l0,0l5.9,3.4c0.4,0.2,0.6,0.7,0.6,1.1c0,0.5-0.2,0.9-0.6,1.1
		l-5.9,3.4C723.4,1639.2,722.6,1639,722.2,1638.3L722.2,1638.3z M754.6,1636.5c0.6,0.4,0.8,1.1,0.5,1.8c-0.2,0.4-0.7,0.7-1.2,0.7
		c-0.2,0-0.5-0.1-0.7-0.2l-5.9-3.4c-0.6-0.4-0.8-1.2-0.4-1.9c0.1-0.2,0.3-0.3,0.4-0.4l5.9-3.4c0.7-0.3,1.5-0.1,1.8,0.6
		c0.3,0.6,0.1,1.3-0.5,1.7l-4,2.3L754.6,1636.5z"/>
	<path class="st33" d="M723.2,1653.7v-0.4c-0.1,0.6-0.3,1.2-0.6,1.8l0.5,0.3c0.1-0.4,0.1-0.8,0.1-1.1
		C723.3,1654,723.2,1653.8,723.2,1653.7z"/>
	<path class="st33" d="M738.7,1606.8c15.7,0,28.5,11.8,29.1,26.4v-0.9c0-15-13.1-27.3-29.1-27.3s-29.1,12.3-29.1,27.3v0.9
		C710.1,1618.6,722.9,1606.8,738.7,1606.8z"/>
	<path class="st33" d="M754.1,1653.8v0.4c0,0.4,0,0.8,0.1,1.1l0.5-0.3c-0.3-0.6-0.5-1.2-0.6-1.8
		C754.1,1653.4,754.1,1653.6,754.1,1653.8z"/>
	<path class="st29" d="M760.3,1648.7c2,0,3.6,1.6,3.6,3.6c0,2-1.6,3.6-3.6,3.6c-2,0-3.6-1.6-3.6-3.6
		C756.7,1650.3,758.3,1648.7,760.3,1648.7C760.3,1648.7,760.3,1648.7,760.3,1648.7z"/>
	<path class="st30" d="M762.4,1658.2c0.5,1.3,1.1,3.3,0.4,4.9c-0.6,1-1.5,1.7-2.6,1.9l-2.3-6.9
		C759.3,1658.7,760.9,1658.7,762.4,1658.2L762.4,1658.2z"/>
	<path class="st19" d="M755.1,1630c0.4,0.6,0.2,1.4-0.4,1.8c0,0,0,0,0,0l-4,2.3l4,2.3c0.6,0.4,0.8,1.1,0.5,1.8
		c-0.2,0.4-0.7,0.7-1.2,0.7c-0.2,0-0.5-0.1-0.7-0.2l-5.9-3.4c-0.4-0.2-0.6-0.7-0.6-1.1c0-0.5,0.2-0.9,0.6-1.1l5.9-3.4
		C753.9,1629.1,754.7,1629.4,755.1,1630C755.1,1630,755.1,1630,755.1,1630L755.1,1630z"/>
	<path class="st29" d="M749.4,1685.4c-0.7,0.1-1.3,0.3-1.9,0.5l-0.6-3l-0.3-1.3h0.4c0.4,0,0.7,0,1.1-0.1c0.2,0,0.3,0,0.5-0.1
		l0.2,1.1L749.4,1685.4z"/>
	<path class="st19" d="M745.3,1638c0.7,0,1.3,0.6,1.3,1.3l0,0c0,2.5-2,4.6-4.5,4.7c-1.3,0-2.5-0.5-3.4-1.5c-1.7,1.9-4.6,2-6.5,0.2
		c-1-0.9-1.5-2.1-1.5-3.5c-0.1-0.7,0.5-1.3,1.2-1.4c0.7-0.1,1.3,0.5,1.4,1.2c0,0.1,0,0.1,0,0.2l0,0c0.1,1.1,1,2,2.1,1.9
		c1-0.1,1.8-0.9,1.9-1.9c0.1-0.7,0.7-1.3,1.4-1.2c0.6,0,1.2,0.6,1.2,1.2l0,0c0.1,1.1,1,2,2.1,1.9c1-0.1,1.8-0.9,1.9-1.9
		C744,1638.6,744.6,1638,745.3,1638z"/>
	<path class="st19" d="M744.8,1608.7c0.7-0.1,1.3,0.5,1.4,1.2c0.1,0.7-0.5,1.3-1.2,1.4c-0.1,0-0.1,0-0.2,0c-1.6,0-2.8,1.3-2.8,2.9
		c0,1.1,0.7,2.2,1.8,2.6c0.7,0.3,1,1,0.8,1.7c-0.1,0.4-0.5,0.7-0.9,0.8c-0.8,0.2-1.6,0.3-2.4,0.3c-5.5,0-10-4.5-10-10
		c0-0.7,0.6-1.3,1.3-1.3c0.7,0,1.3,0.6,1.3,1.3l0,0c0,3.6,2.6,6.7,6.2,7.3c-0.5-0.8-0.7-1.8-0.7-2.7
		C739.4,1611.1,741.8,1608.7,744.8,1608.7L744.8,1608.7L744.8,1608.7z"/>
	<path class="st29" d="M730.7,1681.6l-0.3,1.3l-0.6,3c-0.6-0.3-1.2-0.4-1.9-0.5l0.6-2.7l0.2-1.1l0.5,0.1c0.4,0,0.7,0.1,1.1,0.1
		L730.7,1681.6z"/>
	<path class="st19" d="M729.9,1633c0.4,0.2,0.6,0.7,0.6,1.1c0,0.5-0.2,0.9-0.6,1.1l-5.9,3.4c-0.6,0.4-1.4,0.2-1.8-0.4
		c-0.4-0.6-0.2-1.4,0.4-1.8c0,0,0.1,0,0.1-0.1l4-2.3l-4-2.3c-0.7-0.3-0.9-1.1-0.6-1.8s1.1-0.9,1.8-0.6c0,0,0.1,0,0.1,0.1L729.9,1633
		z"/>
	<path class="st29" d="M717,1648.7c2,0,3.6,1.6,3.6,3.6s-1.6,3.6-3.6,3.6c-2,0-3.6-1.6-3.6-3.6l0,0
		C713.4,1650.3,715,1648.7,717,1648.7z"/>
	<path class="st30" d="M760.3,1654.1c-1.7,0-3.1-1.1-3.5-2.7c-0.1,0.3-0.1,0.6-0.1,0.9c0.1,2,1.9,3.5,3.9,3.4
		c1.8-0.1,3.3-1.6,3.4-3.4c0-0.3,0-0.6-0.1-0.9C763.3,1653,761.9,1654.1,760.3,1654.1z"/>
	<path class="st30" d="M717,1654.1c-1.6,0-3.1-1.1-3.5-2.7c-0.1,0.3-0.1,0.6-0.1,0.9c0,2,1.6,3.6,3.6,3.6c2,0,3.6-1.6,3.6-3.6
		c0-0.3,0-0.6-0.1-0.9C720.1,1653,718.7,1654.1,717,1654.1z"/>
	<path class="st30" d="M719.5,1658.1l-2.3,6.9c-1.1-0.2-2.1-0.9-2.6-1.9c-0.7-1.4-0.2-3.5,0.4-4.9c0.7,0.2,1.4,0.4,2.1,0.4
		C717.8,1658.5,718.7,1658.4,719.5,1658.1z"/>
	<circle class="st30" cx="718.5" cy="1642.5" r="3.6"/>
	<circle class="st30" cx="758.8" cy="1642.5" r="3.6"/>
	<path class="st30" d="M715.5,1646.3c-0.5,0.1-1,0.3-1.5,0.6c-0.9-1.4-1.7-2.8-2.4-4.3C712.9,1643.8,714.1,1645,715.5,1646.3z"/>
	<path class="st30" d="M754.1,1652.3c0,0.9,0.2,1.9,0.6,2.7c-3.7,2.3-7.9,3.8-12.3,4.3H742c-2.2,0.2-4.4,0.2-6.7,0h-0.4
		c-4.4-0.5-8.6-2-12.3-4.3c0.4-0.8,0.6-1.8,0.6-2.7c0-0.2,0-0.3,0-0.5c4.7,2.7,10,4.1,15.4,4.1c5.4,0,10.7-1.4,15.4-4.1
		C754.1,1651.9,754.1,1652.1,754.1,1652.3z"/>
	<path class="st30" d="M762,1646.3c1.1-1,2.3-2.1,3.4-3.2c-0.6,1.3-1.3,2.5-2.1,3.7C762.9,1646.6,762.4,1646.4,762,1646.3z"/>
	<path class="st57" d="M755.6,1659.5c-5,3.5-10.9,5.4-16.9,5.5c-6.1,0-12-2.1-16.8-5.9l0.4-1.1c3.8,2.2,8,3.6,12.3,4.1h0.5
		c1.2,0.1,2.4,0.2,3.5,0.2c1.2,0,2.4-0.1,3.5-0.2h0.4c4.3-0.5,8.5-1.9,12.4-4.1L755.6,1659.5z"/>
	<path class="st30" d="M730.3,1681.6h0.4l-0.3,1.3h-0.9c-0.3,0-0.7-0.1-1-0.2l0.2-1.1l0.5,0.1
		C729.5,1681.7,729.9,1681.6,730.3,1681.6z"/>
	<path class="st30" d="M748.9,1682.6c-0.3,0.1-0.7,0.2-1,0.2h-0.9l-0.3-1.3h0.4c0.4,0,0.7,0,1.1-0.1c0.2,0,0.3,0,0.5-0.1
		L748.9,1682.6z"/>
</g>
<polygon class="st7" points="3416.7,1669.8 3416.7,1794.2 1922.4,1794.2 2015.8,1754.8 2217.6,1669.8 "/>
<polygon class="st1" points="3416.7,1662.4 3416.7,1677.1 2225.8,1677.1 2037.8,1754.8 1999.2,1754.8 2222.5,1662.4 "/>
<polygon class="st1" points="2037.8,1754.8 2013.6,1764.7 2005.1,1764.7 2005.1,1754.8 "/>
<polygon class="st2" points="3416.2,1675.1 3416.2,1689.8 2228.9,1689.8 2002.8,1785.6 1964.3,1785.6 2225.6,1675.1 "/>
<rect x="1.5" y="1764.7" class="st7" width="3415.2" height="157.6"/>
<rect x="1.5" y="1754.7" class="st1" width="2003.6" height="12.1"/>
<polygon class="st2" points="2003,1785.6 1.5,1785.6 1.5,1764.7 2028.8,1764.7 "/>
<polygon class="st2" points="3416.2,1675.1 3416.2,1689.8 2228.9,1689.8 2002.8,1785.6 1964.3,1785.6 2225.6,1675.1 "/>
</svg>
