<?xml version="1.0" encoding="utf-8"?>
<!-- Generator: Adobe Illustrator 25.3.0, SVG Export Plug-In . SVG Version: 6.00 Build 0)  -->
<svg version="1.1" id="レイヤー_1" xmlns="http://www.w3.org/2000/svg" xmlns:xlink="http://www.w3.org/1999/xlink" x="0px"
	 y="0px" viewBox="0 0 1518.5 855" style="enable-background:new 0 0 1518.5 855;" xml:space="preserve">
<style type="text/css">
	.st0{fill:url(#SVGID_2_);}
	.st1{clip-path:url(#SVGID_5_);}
	.st2{fill:#DD8BA0;stroke:#3C0000;stroke-width:1.7225;stroke-miterlimit:10;}
	.st3{fill:none;stroke:#3C0000;stroke-width:1.6954;stroke-miterlimit:10;}
	.st4{clip-path:url(#SVGID_9_);fill:#45387D;stroke:#3C0000;stroke-width:1.6954;stroke-miterlimit:10;}
	.st5{clip-path:url(#SVGID_11_);}
	.st6{fill:#4E4C8F;stroke:#3C0000;stroke-width:1.6954;stroke-miterlimit:10;}
	.st7{fill:#FFFFFF;stroke:#3C0000;stroke-width:1.6954;stroke-miterlimit:10;}
	.st8{fill:#45387D;stroke:#3C0000;stroke-width:1.6954;stroke-miterlimit:10;}
	.st9{fill:#2A2C4E;stroke:#3C0000;stroke-width:1.6954;stroke-miterlimit:10;}
	.st10{fill:#6E76B5;}
	.st11{clip-path:url(#SVGID_13_);fill:none;stroke:#3C0000;stroke-width:1.6954;stroke-miterlimit:10;}
	.st12{clip-path:url(#SVGID_15_);fill:none;stroke:#3C0000;stroke-width:1.6954;stroke-miterlimit:10;}
	.st13{clip-path:url(#SVGID_17_);fill:none;stroke:#3C0000;stroke-width:1.6954;stroke-miterlimit:10;}
	.st14{clip-path:url(#SVGID_19_);fill:none;stroke:#3C0000;stroke-width:1.6954;stroke-miterlimit:10;}
	.st15{clip-path:url(#SVGID_21_);fill:none;stroke:#3C0000;stroke-width:1.6954;stroke-miterlimit:10;}
	.st16{clip-path:url(#SVGID_23_);fill:none;stroke:#3C0000;stroke-width:1.6954;stroke-miterlimit:10;}
	.st17{clip-path:url(#SVGID_25_);fill:none;stroke:#3C0000;stroke-width:1.6954;stroke-miterlimit:10;}
	.st18{clip-path:url(#SVGID_27_);fill:none;stroke:#3C0000;stroke-width:1.6954;stroke-miterlimit:10;}
	.st19{clip-path:url(#SVGID_29_);fill:none;stroke:#3C0000;stroke-width:1.6954;stroke-miterlimit:10;}
	.st20{clip-path:url(#SVGID_31_);fill:none;stroke:#3C0000;stroke-width:1.6954;stroke-miterlimit:10;}
	.st21{clip-path:url(#SVGID_33_);fill:none;stroke:#3C0000;stroke-width:1.6954;stroke-miterlimit:10;}
	.st22{clip-path:url(#SVGID_35_);fill:none;stroke:#3C0000;stroke-width:1.6954;stroke-miterlimit:10;}
	.st23{clip-path:url(#SVGID_37_);fill:none;stroke:#3C0000;stroke-width:1.6954;stroke-miterlimit:10;}
	.st24{clip-path:url(#SVGID_39_);fill:none;stroke:#3C0000;stroke-width:1.6954;stroke-miterlimit:10;}
	.st25{clip-path:url(#SVGID_41_);fill:none;stroke:#3C0000;stroke-width:1.6954;stroke-miterlimit:10;}
	.st26{clip-path:url(#SVGID_43_);fill:none;stroke:#3C0000;stroke-width:1.6954;stroke-miterlimit:10;}
	.st27{fill:#6E76B5;stroke:#3C0000;stroke-width:1.6954;stroke-miterlimit:10;}
	.st28{fill:#969AD9;stroke:#3C0000;stroke-width:1.6954;stroke-miterlimit:10;}
	.st29{fill:#FFB8C8;stroke:#3C0000;stroke-width:1.6954;stroke-miterlimit:10;}
	.st30{fill:#DD8BA0;stroke:#3C0000;stroke-width:1.6954;stroke-miterlimit:10;}
	.st31{opacity:0.6;fill:#45387D;enable-background:new    ;}
	.st32{clip-path:url(#SVGID_45_);}
	.st33{fill:#D5DEF0;stroke:#3C0000;stroke-width:1.6954;stroke-miterlimit:10;}
	.st34{fill:#969AD9;}
	.st35{fill:#D26088;stroke:#3C0000;stroke-width:1.6954;stroke-miterlimit:10;}
	.st36{fill:#B7BFEB;stroke:#3C0000;stroke-width:1.6954;stroke-miterlimit:10;}
	.st37{opacity:0.4;fill:#45387D;stroke:#3C0000;stroke-width:1.6954;stroke-miterlimit:10;enable-background:new    ;}
	.st38{clip-path:url(#SVGID_47_);}
	.st39{fill:#B7BFEB;}
	.st40{clip-path:url(#SVGID_49_);}
	.st41{fill:#DD8BA0;}
	.st42{fill-rule:evenodd;clip-rule:evenodd;fill:#B86A39;}
	.st43{fill-rule:evenodd;clip-rule:evenodd;fill:#EEC26B;}
	.st44{fill-rule:evenodd;clip-rule:evenodd;fill:#B0602E;}
	.st45{fill-rule:evenodd;clip-rule:evenodd;fill:#BF774A;}
	.st46{fill-rule:evenodd;clip-rule:evenodd;fill:#BF784C;}
	.st47{fill-rule:evenodd;clip-rule:evenodd;fill:#CF906A;}
	.st48{fill:#3C0000;}
	.st49{fill-rule:evenodd;clip-rule:evenodd;fill:#3C0000;}
	.st50{fill-rule:evenodd;clip-rule:evenodd;fill:#FFFFFF;}
	.st51{fill:#8C533D;}
	.st52{fill:#EFD3A5;}
	.st53{fill:#FFEBC8;}
	.st54{fill:#FFF6EE;}
	.st55{fill:#E2D7C2;}
</style>
<g>
	
		<linearGradient id="SVGID_2_" gradientUnits="userSpaceOnUse" x1="758.4" y1="760.673" x2="758.4" y2="-185.8745" gradientTransform="matrix(1 0 0 -1 0 856)">
		<stop  offset="2.143866e-03" style="stop-color:#9ED9FF"/>
		<stop  offset="0.2079" style="stop-color:#A2D8FC"/>
		<stop  offset="0.4098" style="stop-color:#AED5F5"/>
		<stop  offset="0.6102" style="stop-color:#C1D0E8"/>
		<stop  offset="0.8084" style="stop-color:#DDC9D6"/>
		<stop  offset="1" style="stop-color:#FFC1BF"/>
	</linearGradient>
	<rect x="-1.6" class="st0" width="1520" height="855"/>
</g>
<g>
	<g>
		<defs>
			<rect id="SVGID_3_" x="-7.5" y="253.6" width="958.2" height="601.4"/>
		</defs>
		<clipPath id="SVGID_5_">
			<use xlink:href="#SVGID_3_"  style="overflow:visible;"/>
		</clipPath>
		<g class="st1">
			<path class="st2" d="M891.7,731.4c0.3-3.1,0.1-6.2-0.4-9.5c-2.6-14.7-14.4-26.4-29.2-28.8c-22.4-3.6-41.7,13.5-41.7,35.2
				c0,1.2,0.1,2.4,0.2,3.6c1,9.5-0.6,19.2-4.9,27.7c-3.3,6.8-5,14.6-4.5,22.8c1.4,22.4,19.6,40.6,42,42
				c26.1,1.6,47.8-19.1,47.8-44.9c0-7.2-1.7-14-4.7-20C892.1,750.8,890.9,741,891.7,731.4z"/>
			<line class="st3" x1="857.4" y1="765.1" x2="872.7" y2="749.8"/>
			<line class="st3" x1="854.9" y1="787.2" x2="839.5" y2="771.8"/>
			<line class="st3" x1="856.1" y1="731.2" x2="856.1" y2="871.3"/>
		</g>
	</g>
	<g>
		<defs>
			<rect id="SVGID_7_" x="-7.5" y="253.6" width="958.2" height="601.4"/>
		</defs>
		<clipPath id="SVGID_9_">
			<use xlink:href="#SVGID_7_"  style="overflow:visible;"/>
		</clipPath>
		<path class="st4" d="M799.8,795.7L791,672.9c-0.2-3.4,0.6-6.3,2.1-8.8c-5.5,0.5-10.7,4-12.5,10.4l-34.2,118.3
			c-9.3,32.1,14.8,64.1,48.2,64.1l0,0c15.6,0,29.2-7,38.2-17.7C815.1,832.8,801.3,816.5,799.8,795.7z"/>
	</g>
	<g>
		<defs>
			<rect id="SVGID_10_" x="-7.5" y="253.6" width="958.2" height="601.4"/>
		</defs>
		<clipPath id="SVGID_11_">
			<use xlink:href="#SVGID_10_"  style="overflow:visible;"/>
		</clipPath>
		<g class="st5">
			<polygon class="st6" points="431.8,276.1 431.8,427.2 591.9,427.2 			"/>
			<rect x="290.4" y="427.2" class="st7" width="141.4" height="429.7"/>
			<rect x="431.8" y="427.3" class="st8" width="141.4" height="429.7"/>
			<polygon class="st9" points="573.2,519.4 554.5,695.8 573.6,695.8 			"/>
			<g>
				<g>
					<polygon id="SVGID_4_" class="st10" points="431.8,276.1 431.8,427.2 271.7,427.2 					"/>
				</g>
				<g>
					<defs>
						<polygon id="SVGID_12_" points="431.8,276.1 431.8,427.2 271.7,427.2 						"/>
					</defs>
					<clipPath id="SVGID_13_">
						<use xlink:href="#SVGID_12_"  style="overflow:visible;"/>
					</clipPath>
					<line class="st11" x1="284.8" y1="293.8" x2="453.6" y2="293.8"/>
				</g>
				<g>
					<defs>
						<polygon id="SVGID_14_" points="431.8,276.1 431.8,427.2 271.7,427.2 						"/>
					</defs>
					<clipPath id="SVGID_15_">
						<use xlink:href="#SVGID_14_"  style="overflow:visible;"/>
					</clipPath>
					<line class="st12" x1="284.8" y1="309.4" x2="453.6" y2="309.4"/>
				</g>
				<g>
					<defs>
						<polygon id="SVGID_16_" points="431.8,276.1 431.8,427.2 271.7,427.2 						"/>
					</defs>
					<clipPath id="SVGID_17_">
						<use xlink:href="#SVGID_16_"  style="overflow:visible;"/>
					</clipPath>
					<line class="st13" x1="284.8" y1="324.9" x2="453.6" y2="324.9"/>
				</g>
				<g>
					<defs>
						<polygon id="SVGID_18_" points="431.8,276.1 431.8,427.2 271.7,427.2 						"/>
					</defs>
					<clipPath id="SVGID_19_">
						<use xlink:href="#SVGID_18_"  style="overflow:visible;"/>
					</clipPath>
					<line class="st14" x1="284.8" y1="340.4" x2="453.6" y2="340.4"/>
				</g>
				<g>
					<defs>
						<polygon id="SVGID_20_" points="431.8,276.1 431.8,427.2 271.7,427.2 						"/>
					</defs>
					<clipPath id="SVGID_21_">
						<use xlink:href="#SVGID_20_"  style="overflow:visible;"/>
					</clipPath>
					<line class="st15" x1="284.8" y1="356" x2="453.6" y2="356"/>
				</g>
				<g>
					<defs>
						<polygon id="SVGID_22_" points="431.8,276.1 431.8,427.2 271.7,427.2 						"/>
					</defs>
					<clipPath id="SVGID_23_">
						<use xlink:href="#SVGID_22_"  style="overflow:visible;"/>
					</clipPath>
					<line class="st16" x1="284.8" y1="371.5" x2="453.6" y2="371.5"/>
				</g>
				<g>
					<defs>
						<polygon id="SVGID_24_" points="431.8,276.1 431.8,427.2 271.7,427.2 						"/>
					</defs>
					<clipPath id="SVGID_25_">
						<use xlink:href="#SVGID_24_"  style="overflow:visible;"/>
					</clipPath>
					<line class="st17" x1="284.8" y1="387.1" x2="453.6" y2="387.1"/>
				</g>
				<g>
					<defs>
						<polygon id="SVGID_26_" points="431.8,276.1 431.8,427.2 271.7,427.2 						"/>
					</defs>
					<clipPath id="SVGID_27_">
						<use xlink:href="#SVGID_26_"  style="overflow:visible;"/>
					</clipPath>
					<line class="st18" x1="284.8" y1="402.6" x2="453.6" y2="402.6"/>
				</g>
				<g>
					<polygon id="SVGID_1_" class="st3" points="431.8,276.1 431.8,427.2 271.7,427.2 					"/>
				</g>
			</g>
			<g>
				<g>
					<defs>
						<polygon id="SVGID_28_" points="431.8,276.1 431.8,427.2 591.9,427.2 						"/>
					</defs>
					<clipPath id="SVGID_29_">
						<use xlink:href="#SVGID_28_"  style="overflow:visible;"/>
					</clipPath>
					<line class="st19" x1="578.8" y1="293.8" x2="410.1" y2="293.8"/>
				</g>
				<g>
					<defs>
						<polygon id="SVGID_30_" points="431.8,276.1 431.8,427.2 591.9,427.2 						"/>
					</defs>
					<clipPath id="SVGID_31_">
						<use xlink:href="#SVGID_30_"  style="overflow:visible;"/>
					</clipPath>
					<line class="st20" x1="578.8" y1="309.4" x2="410.1" y2="309.4"/>
				</g>
				<g>
					<defs>
						<polygon id="SVGID_32_" points="431.8,276.1 431.8,427.2 591.9,427.2 						"/>
					</defs>
					<clipPath id="SVGID_33_">
						<use xlink:href="#SVGID_32_"  style="overflow:visible;"/>
					</clipPath>
					<line class="st21" x1="578.8" y1="324.9" x2="410.1" y2="324.9"/>
				</g>
				<g>
					<defs>
						<polygon id="SVGID_34_" points="431.8,276.1 431.8,427.2 591.9,427.2 						"/>
					</defs>
					<clipPath id="SVGID_35_">
						<use xlink:href="#SVGID_34_"  style="overflow:visible;"/>
					</clipPath>
					<line class="st22" x1="578.8" y1="340.4" x2="410.1" y2="340.4"/>
				</g>
				<g>
					<defs>
						<polygon id="SVGID_36_" points="431.8,276.1 431.8,427.2 591.9,427.2 						"/>
					</defs>
					<clipPath id="SVGID_37_">
						<use xlink:href="#SVGID_36_"  style="overflow:visible;"/>
					</clipPath>
					<line class="st23" x1="578.8" y1="356" x2="410.1" y2="356"/>
				</g>
				<g>
					<defs>
						<polygon id="SVGID_38_" points="431.8,276.1 431.8,427.2 591.9,427.2 						"/>
					</defs>
					<clipPath id="SVGID_39_">
						<use xlink:href="#SVGID_38_"  style="overflow:visible;"/>
					</clipPath>
					<line class="st24" x1="578.8" y1="371.5" x2="410.1" y2="371.5"/>
				</g>
				<g>
					<defs>
						<polygon id="SVGID_40_" points="431.8,276.1 431.8,427.2 591.9,427.2 						"/>
					</defs>
					<clipPath id="SVGID_41_">
						<use xlink:href="#SVGID_40_"  style="overflow:visible;"/>
					</clipPath>
					<line class="st25" x1="578.8" y1="387.1" x2="410.1" y2="387.1"/>
				</g>
				<g>
					<defs>
						<polygon id="SVGID_42_" points="431.8,276.1 431.8,427.2 591.9,427.2 						"/>
					</defs>
					<clipPath id="SVGID_43_">
						<use xlink:href="#SVGID_42_"  style="overflow:visible;"/>
					</clipPath>
					<line class="st26" x1="578.8" y1="402.6" x2="410.1" y2="402.6"/>
				</g>
				<g>
					<polygon id="SVGID_6_" class="st3" points="431.8,276.1 431.8,427.2 591.9,427.2 					"/>
				</g>
			</g>
			<rect x="431.8" y="416.5" class="st27" width="159.8" height="21.5"/>
			<rect x="431.8" y="424.8" class="st6" width="159.8" height="4.9"/>
			<rect x="272" y="416.5" class="st28" width="159.8" height="21.5"/>
			<rect x="272" y="424.8" class="st27" width="159.8" height="4.9"/>
			<line class="st3" x1="290.4" y1="857" x2="431.8" y2="857"/>
			<g>
				<g>
					<rect x="462.3" y="457" class="st9" width="31.9" height="31.9"/>
					<rect x="462.3" y="488.9" class="st9" width="31.9" height="31.9"/>
				</g>
				<g>
					<rect x="525.2" y="457" class="st9" width="31.9" height="31.9"/>
					<rect x="525.2" y="488.9" class="st9" width="31.9" height="31.9"/>
				</g>
				<g>
					<rect x="462.3" y="549.6" class="st9" width="31.9" height="31.9"/>
					<rect x="462.3" y="581.5" class="st9" width="31.9" height="31.9"/>
				</g>
				<g>
					<rect x="525.2" y="549.6" class="st9" width="31.9" height="31.9"/>
					<rect x="525.2" y="581.5" class="st9" width="31.9" height="31.9"/>
				</g>
				<g>
					<rect x="318.9" y="457" class="st29" width="31.9" height="31.9"/>
					<rect x="318.9" y="488.9" class="st29" width="31.9" height="31.9"/>
				</g>
				<g>
					<g>
						<rect x="381.8" y="457" class="st29" width="31.9" height="31.9"/>
						<rect x="381.8" y="488.9" class="st29" width="31.9" height="31.9"/>
					</g>
				</g>
				<g>
					<rect x="318.9" y="549.6" class="st30" width="31.9" height="31.9"/>
					<rect x="318.9" y="581.5" class="st9" width="31.9" height="31.9"/>
				</g>
				<g>
					<rect x="381.8" y="549.6" class="st29" width="31.9" height="31.9"/>
					<rect x="381.8" y="581.5" class="st29" width="31.9" height="31.9"/>
				</g>
			</g>
			<polyline class="st31" points="557.9,857 290.4,417.2 290.4,857 			"/>
		</g>
	</g>
	<g>
		<defs>
			<rect id="SVGID_44_" x="-7.5" y="253.6" width="958.2" height="601.4"/>
		</defs>
		<clipPath id="SVGID_45_">
			<use xlink:href="#SVGID_44_"  style="overflow:visible;"/>
		</clipPath>
		<g class="st32">
			<g>
				<rect x="652" y="461.9" class="st27" width="136" height="42.9"/>
				<rect x="655.7" y="465.6" class="st33" width="128.5" height="35.4"/>
				<rect x="679.7" y="471.4" class="st34" width="89.7" height="3.7"/>
				<rect x="662.4" y="480.6" class="st34" width="108.6" height="3.7"/>
				<rect x="672.5" y="489.9" class="st34" width="97.6" height="3.7"/>
				<rect x="662.5" y="504.8" class="st27" width="4.7" height="15.2"/>
				<rect x="767.1" y="504.8" class="st27" width="4.7" height="15.2"/>
			</g>
			<rect x="647.4" y="514.4" class="st6" width="136.9" height="5"/>
			<g>
				<polygon class="st6" points="633.5,513.6 618.3,513.6 619.6,519.4 632.2,519.4 				"/>
				<rect x="618.2" y="513.6" class="st27" width="15.6" height="1.3"/>
				<line class="st3" x1="625.9" y1="491.7" x2="625.9" y2="513.6"/>
				<path class="st35" d="M613.6,489.9c0,6.8,5.5,12.4,12.4,12.4c6.8,0,12.4-5.5,12.4-12.4s-5.5-12.4-12.4-12.4
					S613.6,483,613.6,489.9z"/>
				<line class="st3" x1="625.9" y1="509.5" x2="630" y2="505.4"/>
			</g>
			<rect x="690.3" y="540.9" class="st6" width="141.4" height="316.1"/>
			<rect x="744.3" y="770.1" class="st28" width="60.5" height="90.6"/>
			<rect x="748.4" y="774.4" class="st9" width="52.2" height="82.3"/>
			<polygon class="st8" points="748.5,818.5 800.6,774.3 748.5,774.3 			"/>
			<rect x="690.3" y="557" class="st8" width="130.4" height="21.5"/>
			<rect x="594.7" y="519.4" class="st28" width="95.6" height="21.5"/>
			<rect x="690.3" y="519.4" class="st9" width="141.4" height="21.5"/>
			<g>
				<line class="st3" x1="815.1" y1="519.8" x2="815.1" y2="493.4"/>
				<circle class="st9" cx="815.1" cy="491.7" r="7"/>
			</g>
			<rect x="690.3" y="597.9" class="st8" width="130.4" height="21.5"/>
			<rect x="690.3" y="639.3" class="st8" width="130.4" height="21.5"/>
			<rect x="690.3" y="680.7" class="st8" width="130.4" height="21.5"/>
			<rect x="690.3" y="722.2" class="st8" width="130.4" height="21.5"/>
			<rect x="594.7" y="540.9" class="st7" width="95.6" height="316.1"/>
			<rect x="659.2" y="557" class="st36" width="21.5" height="21.5"/>
			<rect x="630.7" y="557" class="st6" width="21.5" height="21.5"/>
			<rect x="602.3" y="557" class="st28" width="21.5" height="21.5"/>
			<rect x="659.2" y="597.7" class="st6" width="21.5" height="21.5"/>
			<rect x="630.7" y="597.7" class="st29" width="21.5" height="21.5"/>
			<rect x="602.3" y="597.7" class="st8" width="21.5" height="21.5"/>
			<rect x="659.2" y="638.5" class="st28" width="21.5" height="21.5"/>
			<rect x="659.2" y="722.2" class="st28" width="21.5" height="21.5"/>
			<rect x="659.2" y="679.2" class="st29" width="21.5" height="21.5"/>
			<rect x="630.7" y="638.5" class="st36" width="21.5" height="21.5"/>
			<polygon class="st37" points="646.7,857 680.6,857 646.7,686.5 			"/>
		</g>
	</g>
	<g>
		<defs>
			<rect id="SVGID_46_" x="-7.5" y="253.6" width="958.2" height="601.4"/>
		</defs>
		<clipPath id="SVGID_47_">
			<use xlink:href="#SVGID_46_"  style="overflow:visible;"/>
		</clipPath>
		<g class="st38">
			<g>
				<polygon class="st27" points="599.2,686.5 264.4,540.9 264.4,857 599.2,857 				"/>
				<polygon class="st28" points="285.2,836.2 285.2,572.6 578.4,700.1 578.4,836.2 				"/>
				<polygon class="st39" points="379.4,613.6 285.2,707.7 285.2,668 351.7,601.5 				"/>
				<polygon class="st39" points="531.1,679.6 374.5,836.2 334.7,836.2 503.4,667.5 				"/>
				<polygon class="st39" points="433.1,636.9 285.2,784.9 285.2,769 422.1,632.1 				"/>
				<polygon class="st39" points="453.4,645.8 285.2,814 285.2,798.1 442.4,641 				"/>
				<polygon class="st39" points="578.4,700.1 578.4,711.9 454.1,836.2 438.3,836.2 575.6,698.9 				"/>
				<polygon class="st9" points="285.2,572.6 285.2,578.4 572.9,703.5 572.9,836.2 578.4,836.2 578.4,700.1 				"/>
				<g>
					<g>
						<defs>
							<polygon id="SVGID_48_" points="285.2,836.2 285.2,572.6 578.4,700.1 578.4,836.2 							"/>
						</defs>
						<clipPath id="SVGID_49_">
							<use xlink:href="#SVGID_48_"  style="overflow:visible;"/>
						</clipPath>
						<g class="st40">
							<g>
								<line class="st3" x1="280.4" y1="563.7" x2="280.4" y2="836.2"/>
								<line class="st3" x1="337.7" y1="563.7" x2="337.7" y2="836.2"/>
								<line class="st3" x1="401.5" y1="563.7" x2="401.5" y2="836.2"/>
								<line class="st3" x1="465.3" y1="563.7" x2="465.3" y2="836.2"/>
								<line class="st3" x1="529" y1="563.7" x2="529" y2="836.2"/>
								<line class="st3" x1="599.2" y1="563.7" x2="599.2" y2="836.2"/>
							</g>
							<g>
								<line class="st3" x1="597.2" y1="531.2" x2="260.3" y2="531.2"/>
								<line class="st3" x1="597.2" y1="595" x2="260.3" y2="595"/>
								<line class="st3" x1="597.2" y1="627.6" x2="260.3" y2="627.6"/>
								<line class="st3" x1="597.2" y1="658.7" x2="260.3" y2="658.7"/>
								<line class="st3" x1="597.2" y1="690.6" x2="260.3" y2="690.6"/>
								<line class="st3" x1="597.2" y1="722.5" x2="260.3" y2="722.5"/>
								<line class="st3" x1="597.2" y1="786.3" x2="260.3" y2="786.3"/>
								<line class="st3" x1="597.2" y1="818.3" x2="260.3" y2="818.3"/>
								<line class="st3" x1="597.2" y1="754.5" x2="260.3" y2="754.5"/>
							</g>
						</g>
					</g>
					<g>
						<polygon id="SVGID_8_" class="st3" points="285.2,836.2 285.2,572.6 578.4,700.1 578.4,836.2 						"/>
					</g>
				</g>
				<rect x="104.3" y="540.9" class="st7" width="160.1" height="316.1"/>
				<rect x="125.1" y="726.3" class="st29" width="118.5" height="109.9"/>
				<rect x="125.1" y="561.7" class="st29" width="118.5" height="155.3"/>
				<polygon class="st41" points="226.6,561.7 125.1,663.2 125.1,632.4 195.8,561.7 				"/>
				<polygon class="st41" points="241.6,726.3 131.7,836.2 125.1,836.2 125.1,820.2 219,726.3 				"/>
				<polygon class="st41" points="243.6,657.8 243.6,684.5 211.1,717 184.4,717 				"/>
				<polygon class="st41" points="243.6,563.5 243.6,622.7 149.3,717 125.1,717 125.1,682 				"/>
				<polygon class="st41" points="243.6,738 243.6,797.1 204.6,836.2 145.4,836.2 				"/>
				<polygon class="st9" points="131.3,567.9 243.6,567.9 243.6,561.7 125.1,561.7 125.1,717 131.3,717 				"/>
				<polygon class="st9" points="131.3,732.6 243.6,732.6 243.6,726.3 125.1,726.3 125.1,836.2 131.3,836.2 				"/>
				<g>
					<g>
						<line class="st3" x1="125.1" y1="595" x2="157" y2="595"/>
						<line class="st3" x1="157" y1="563.8" x2="157" y2="595.7"/>
						<line class="st3" x1="125.1" y1="626.9" x2="157" y2="626.9"/>
						<line class="st3" x1="157" y1="595.7" x2="157" y2="627.6"/>
						<line class="st3" x1="125.1" y1="658.7" x2="157" y2="658.7"/>
						<line class="st3" x1="157" y1="627.6" x2="157" y2="659.4"/>
						<line class="st3" x1="125.1" y1="690.6" x2="157" y2="690.6"/>
						<line class="st3" x1="157" y1="659.4" x2="157" y2="691.3"/>
						<line class="st3" x1="157" y1="691.3" x2="157" y2="717"/>
					</g>
					<g>
						<line class="st3" x1="157" y1="595" x2="188.9" y2="595"/>
						<line class="st3" x1="188.9" y1="563.8" x2="188.9" y2="595.7"/>
						<line class="st3" x1="157" y1="626.9" x2="188.9" y2="626.9"/>
						<line class="st3" x1="188.9" y1="595.7" x2="188.9" y2="627.6"/>
						<line class="st3" x1="157" y1="658.7" x2="188.9" y2="658.7"/>
						<line class="st3" x1="188.9" y1="627.6" x2="188.9" y2="659.4"/>
						<line class="st3" x1="157" y1="690.6" x2="188.9" y2="690.6"/>
						<line class="st3" x1="188.9" y1="659.4" x2="188.9" y2="691.3"/>
						<line class="st3" x1="188.9" y1="691.3" x2="188.9" y2="717"/>
					</g>
					<g>
						<line class="st3" x1="188.9" y1="595" x2="220.8" y2="595"/>
						<line class="st3" x1="220.8" y1="563.8" x2="220.8" y2="595.7"/>
						<line class="st3" x1="188.9" y1="626.9" x2="220.8" y2="626.9"/>
						<line class="st3" x1="220.8" y1="595.7" x2="220.8" y2="627.6"/>
						<line class="st3" x1="188.9" y1="658.7" x2="220.8" y2="658.7"/>
						<line class="st3" x1="220.8" y1="627.6" x2="220.8" y2="659.4"/>
						<line class="st3" x1="188.9" y1="690.6" x2="220.8" y2="690.6"/>
						<line class="st3" x1="220.8" y1="659.4" x2="220.8" y2="691.3"/>
						<line class="st3" x1="220.8" y1="691.3" x2="220.8" y2="717"/>
					</g>
					<g>
						<line class="st3" x1="220.8" y1="595" x2="243.6" y2="595"/>
						<line class="st3" x1="220.8" y1="626.9" x2="243.6" y2="626.9"/>
						<line class="st3" x1="220.8" y1="658.7" x2="243.6" y2="658.7"/>
						<line class="st3" x1="220.8" y1="690.6" x2="243.6" y2="690.6"/>
					</g>
				</g>
				<g>
					<g>
						<line class="st3" x1="125.1" y1="754.5" x2="157" y2="754.5"/>
						<line class="st3" x1="157" y1="726.3" x2="157" y2="755.2"/>
						<line class="st3" x1="125.1" y1="786.4" x2="157" y2="786.4"/>
						<line class="st3" x1="157" y1="755.2" x2="157" y2="787.1"/>
						<line class="st3" x1="125.1" y1="818.3" x2="157" y2="818.3"/>
						<line class="st3" x1="157" y1="787.1" x2="157" y2="819"/>
						<line class="st3" x1="157" y1="819" x2="157" y2="836.2"/>
					</g>
					<g>
						<line class="st3" x1="157" y1="754.5" x2="188.9" y2="754.5"/>
						<line class="st3" x1="188.9" y1="726.3" x2="188.9" y2="755.2"/>
						<line class="st3" x1="157" y1="786.4" x2="188.9" y2="786.4"/>
						<line class="st3" x1="188.9" y1="755.2" x2="188.9" y2="787.1"/>
						<line class="st3" x1="157" y1="818.3" x2="188.9" y2="818.3"/>
						<line class="st3" x1="188.9" y1="787.1" x2="188.9" y2="819"/>
						<line class="st3" x1="188.9" y1="819" x2="188.9" y2="836.2"/>
					</g>
					<g>
						<line class="st3" x1="188.9" y1="754.5" x2="220.8" y2="754.5"/>
						<line class="st3" x1="220.8" y1="726.3" x2="220.8" y2="755.2"/>
						<line class="st3" x1="188.9" y1="786.4" x2="220.8" y2="786.4"/>
						<line class="st3" x1="220.8" y1="755.2" x2="220.8" y2="787.1"/>
						<line class="st3" x1="188.9" y1="818.3" x2="220.8" y2="818.3"/>
						<line class="st3" x1="220.8" y1="787.1" x2="220.8" y2="819"/>
						<line class="st3" x1="220.8" y1="819" x2="220.8" y2="836.2"/>
					</g>
					<g>
						<line class="st3" x1="220.8" y1="754.5" x2="243.6" y2="754.5"/>
						<line class="st3" x1="220.8" y1="786.4" x2="243.6" y2="786.4"/>
						<line class="st3" x1="220.8" y1="818.3" x2="243.6" y2="818.3"/>
					</g>
				</g>
			</g>
			<rect x="169.5" y="513.9" class="st27" width="82.1" height="27"/>
			<rect x="143.3" y="513.9" class="st33" width="82.1" height="27"/>
			<circle class="st27" cx="162.5" cy="528.4" r="6.8"/>
			<circle class="st27" cx="202.6" cy="528.4" r="6.8"/>
		</g>
	</g>
</g>
<g>
	<g>
		<g>
			<path class="st42" d="M738.6,465.6c0,10.8,0,20.2-8.4,25.4c-5.2,5.7-37.5,5.7-42.7,0c-8.4-5.2-8.4-14.7-8.4-25.4
				c0-1.5,0.6-18.7,0.9-19.3c1.1-3,2.4-9.2,6.5-8.6c14.9,2.3,29.9,2.3,44.8,0c4.1-0.6,5.3,5.6,6.5,8.6
				C737.9,446.9,738.6,464.1,738.6,465.6L738.6,465.6z"/>
			<g>
				<path class="st43" d="M729.7,460.6c1.5,0,2.7-1.2,2.7-2.7s-1.2-2.7-2.7-2.7s-2.7,1.2-2.7,2.7S728.2,460.6,729.7,460.6
					L729.7,460.6z"/>
			</g>
			<g>
				<path class="st43" d="M732.6,469.2c0.8,0,1.5-0.6,1.5-1.4s-0.6-1.5-1.5-1.5c-0.8,0-1.4,0.6-1.4,1.5
					C731.2,468.5,731.8,469.2,732.6,469.2L732.6,469.2z"/>
			</g>
			<g>
				<path class="st43" d="M731.2,476.1c0.5,0,0.9-0.4,0.9-0.9s-0.4-0.9-0.9-0.9s-0.9,0.4-0.9,0.9
					C730.3,475.6,730.7,476.1,731.2,476.1L731.2,476.1z"/>
			</g>
		</g>
		<g>
			<path class="st43" d="M688.9,458c1.1,0,2-0.9,2-2s-0.9-2-2-2s-2,0.9-2,2C687,457.1,687.8,458,688.9,458L688.9,458z"/>
		</g>
		<g>
			<path class="st43" d="M684.2,461.6c0.7,0,1.2-0.5,1.2-1.2s-0.6-1.2-1.2-1.2c-0.7,0-1.2,0.6-1.2,1.2
				C683,461.1,683.6,461.6,684.2,461.6L684.2,461.6z"/>
		</g>
		<g>
			<path class="st43" d="M684.5,476.7c0.5,0,1-0.4,1-1c0-0.5-0.4-1-1-1c-0.5,0-1,0.4-1,1C683.5,476.3,683.9,476.7,684.5,476.7
				L684.5,476.7z"/>
		</g>
		<g>
			<path class="st43" d="M686,469.6c1,0,1.9-0.8,1.9-1.8s-0.8-1.8-1.9-1.8c-1,0-1.8,0.8-1.8,1.8C684.2,468.8,685.1,469.6,686,469.6
				L686,469.6z"/>
		</g>
		<g>
			<path class="st44" d="M738.6,465.6c0,10.8,0,20.2-8.4,25.4c-5.2,5.7-37.5,5.7-42.7,0c-0.1-0.3-0.1-0.6,0.4-0.7
				c12.6,2.7,32.8,5.2,41.4-3.3c8.6-8.4,5.7-31.8,5.2-33.3c-1.1-2.9-24-2.6-24-2.6l-1.2-11.8c7.3,0,14.6-0.6,21.9-1.7
				c4.1-0.6,5.3,5.6,6.5,8.6C737.9,446.9,738.6,464.1,738.6,465.6L738.6,465.6z"/>
		</g>
		<g>
			<path class="st45" d="M687.5,491c-8.4-5.2-8.4-14.7-8.4-25.4c0-1.4,0.6-18.1,0.8-19.3l6.6,3.1c-1.2,0.2-3.6,0.6-3.6,1.4
				c-1.5,21.9,0,32.3,1.1,34C684.4,485.6,685.2,488.3,687.5,491L687.5,491z"/>
		</g>
		<g>
			<path class="st46" d="M679.9,446.7c0-0.2,0-0.4,0.1-0.5c1.1-3,2.4-9.2,6.5-8.6c14.9,2.3,29.9,2.3,44.8,0c4.1-0.6,5.3,5.6,6.5,8.6
				c0,0.1,0,0.2,0.1,0.6C728.6,452.8,684.9,452.4,679.9,446.7L679.9,446.7z"/>
		</g>
		<g>
			<path class="st47" d="M679.9,446.7c0-0.2,0-0.4,0.1-0.5c1.1-3,2.4-9.2,6.5-8.6c2,0.3,4,0.6,6.1,0.8c-6.2-0.1-7.3-0.4-9.4,5.1
				c-1.9,4.8,1.1,4.4,3.4,5.8C683.2,448.7,680.8,447.8,679.9,446.7L679.9,446.7z"/>
		</g>
		<g>
			<path class="st48" d="M739.3,465.6c0,5.4,0,10.5-1.1,15s-3.2,8.3-7.6,11c-0.1,0.1-0.2,0.2-0.2,0.2c-3.1,2.8-12.4,4.2-21.6,4.2
				l0,0c-9.2,0-18.5-1.4-21.6-4.2c-0.1-0.1-0.2-0.2-0.3-0.2c-4.3-2.7-6.5-6.5-7.6-11s-1.1-9.5-1.1-15c0-0.9,0.2-9.9,0.5-14
				c0.2-2.8,0.3-5.3,0.5-5.6c0.2-0.5,0.3-1,0.5-1.5c1.1-3.4,2.7-8.2,6.8-7.6c7.4,1.2,14.9,1.7,22.3,1.7c7.4,0,14.9-0.6,22.3-1.7
				c4.1-0.6,5.7,4.1,6.8,7.6c0.2,0.6,0.4,1.1,0.5,1.5l0,0c0.1,0.3,0.3,2.8,0.5,5.6C739.1,455.7,739.3,464.8,739.3,465.6L739.3,465.6
				z M736.8,480.2c1-4.3,1-9.2,1-14.6c0-0.9-0.2-9.9-0.5-13.9c-0.2-2.7-0.3-5-0.4-5.2l0,0c-0.2-0.5-0.3-1-0.5-1.6
				c-0.9-2.9-2.3-7-5.1-6.5c-7.5,1.2-15,1.7-22.5,1.7s-15-0.6-22.5-1.7c-2.8-0.4-4.1,3.6-5.1,6.5c-0.2,0.6-0.4,1.2-0.5,1.6
				c-0.1,0.2-0.2,2.4-0.4,5.2c-0.2,4-0.4,13-0.4,13.9c0,5.4,0,10.4,1,14.6s3,7.7,7,10.2l0.2,0.1c0.1,0.1,0.1,0.2,0.2,0.2
				c2.8,2.6,11.7,3.8,20.6,3.8l0,0c8.9,0,17.8-1.3,20.6-3.8c0.1-0.1,0.2-0.1,0.2-0.2l0.2-0.1C733.8,487.9,735.8,484.4,736.8,480.2
				L736.8,480.2z"/>
		</g>
		<g>
			<path class="st49" d="M676.2,452.3c-1.9,0-3.5-1.6-3.5-3.5s1.6-3.5,3.5-3.5h64.5c1.9,0,3.5,1.6,3.5,3.5s-1.6,3.5-3.5,3.5H676.2z"
				/>
			<path class="st43" d="M740.7,450.8h-64.5c-1.1,0-2.1-0.9-2.1-2.1l0,0c0-1.1,0.9-2.1,2.1-2.1h64.5c1.1,0,2.1,0.9,2.1,2.1l0,0
				C742.8,449.9,741.9,450.8,740.7,450.8z"/>
			<g>
				<path class="st49" d="M708.8,453.5c2.6,0,4.7-2.1,4.7-4.7s-2.1-4.7-4.7-4.7c-2.6,0-4.7,2.1-4.7,4.7
					C704.1,451.3,706.3,453.5,708.8,453.5L708.8,453.5z"/>
			</g>
			<g>
				<path class="st50" d="M710.8,445.8c1.3,0.9,1.7,2.8,0.9,4.4c-0.9,1.7-2.8,2.5-4.4,1.7c0.1-0.1,0.2-0.2,0.3-0.3
					c0.6-0.6,1.1-1.5,1.5-2.8C709.6,447.5,710.3,446.4,710.8,445.8L710.8,445.8z M706.8,451.6c-1.2-1-1.5-2.7-0.7-4.3
					c0.9-1.7,2.7-2.4,4.2-1.8c-0.6,0.6-1.2,1.7-1.7,3.1c-0.4,1.3-0.9,2.1-1.4,2.6C707,451.4,706.9,451.5,706.8,451.6L706.8,451.6z"
					/>
			</g>
		</g>
	</g>
	<g>
		<path class="st51" d="M704.4,517.3H697c0.4-1.7,1.9-2.9,3.7-2.9S704,515.7,704.4,517.3z"/>
		<path class="st51" d="M721.1,517.3h-7.4c0.4-1.7,1.9-2.9,3.7-2.9C719.2,514.4,720.7,515.7,721.1,517.3z"/>
		<path class="st52" d="M725,507.9c-0.1,0.1-0.2,0.1-0.2,0c-0.2-0.1-0.4-0.2-0.6-0.4c-0.8-0.5-1.7-1.1-3.4-1.1s-2.6,0.6-3.4,1.1
			c-0.6,0.4-1,0.7-1.9,0.7c-0.2,0-0.4,0-0.6,0c-1.1,0-1.6-0.3-2.2-0.6c-0.1-0.1-0.2-0.1-0.3-0.2c-0.8-0.5-1.7-1.1-3.4-1.1
			s-2.6,0.6-3.4,1.1l-0.3,0.2c-0.5,0.3-1.1,0.6-2.2,0.6c-0.2,0-0.4,0-0.5,0c-0.8-0.1-1.3-0.4-1.9-0.7c-0.8-0.5-1.7-1.1-3.4-1.1
			s-2.6,0.6-3.4,1.1c-0.2,0.1-0.4,0.3-0.6,0.4c-0.1,0-0.2,0-0.2,0c-0.1,0-0.1-0.1-0.1-0.2l4.4-13.2l0.3-0.8c2.6,1.5,5.5,2.5,8.6,2.8
			c0.1,0,0.2,0,0.3,0l0,0l0,0c0.8,0.1,1.6,0.1,2.4,0.1c0.9,0,1.7,0,2.5-0.1h0.3l0,0c3-0.4,6-1.3,8.6-2.8l0.4,1.1l4.2,12.9
			C725.1,507.7,725.1,507.8,725,507.9z"/>
		<path class="st48" d="M690.8,487.1c-0.8-0.8-2.5-4.6-2.5-4.6c-0.8-2.1-1.2-4.4-1.2-6.7c0-11.4,9.9-20.7,22-20.7s22,9.3,22,20.7
			c0,2.3-0.4,4.6-1.2,6.7s-2.2,4.7-2.1,4.8s0.3,0.7,0.3,0.7c0.2,0.5,0.3,1,0.3,1.6c0,1.2-0.5,2.3-1.3,3.1c0.5,1.1,1.2,3.3,0.4,5.1
			c-0.5,1.1-1.5,1.8-2.9,2.2l2.2,6.8c0.3,0.8,0,1.6-0.6,2.2c-0.6,0.5-1.5,0.6-2.3,0.3c-0.3-0.1-0.5-0.3-0.8-0.5
			c-0.7-0.4-1.2-0.8-2.4-0.8s-1.7,0.3-2.4,0.8c-0.2,0.1-0.4,0.2-0.6,0.3l0.7,3.3c2.6,0.5,4.6,2.8,4.6,5.5c0,0.5-0.4,0.9-0.9,0.9
			h-9.4c-0.5,0-0.9-0.4-0.9-0.9c0-1.6,0.7-3.1,1.8-4.1l-0.9-4.5c-0.3-0.1-0.6-0.3-0.9-0.5c-0.1-0.1-0.2-0.1-0.3-0.2
			c-0.7-0.4-1.2-0.8-2.4-0.8s-1.7,0.3-2.4,0.8c-0.1,0.1-0.2,0.1-0.3,0.2c-0.3,0.2-0.5,0.3-0.9,0.5l-0.9,4.5c1.1,1,1.8,2.5,1.8,4.1
			c0,0.5-0.4,0.9-0.9,0.9H696c-0.5,0-0.9-0.4-0.9-0.9c0-2.8,2-5.1,4.6-5.5l0.7-3.3c-0.2-0.1-0.4-0.2-0.6-0.3
			c-0.7-0.4-1.2-0.8-2.4-0.8s-1.7,0.3-2.4,0.8c-0.2,0.1-0.5,0.3-0.8,0.5c-0.7,0.4-1.6,0.3-2.3-0.3c-0.6-0.5-0.9-1.4-0.6-2.2l2.3-6.8
			c-1.4-0.4-2.4-1.2-2.9-2.2c-0.9-1.8-0.1-4,0.4-5.1c-0.8-0.8-1.3-1.9-1.3-3.1c0-0.6,0.1-1.1,0.3-1.6L690.8,487.1z M726.2,486
			c2-3,3.1-6.5,3.1-10.1c0-10.4-9.1-18.9-20.2-18.9c-11.1,0-20.2,8.5-20.2,18.9c0,3.6,1.1,7.1,3.1,10.1c0.6-0.3,1.3-0.5,2.1-0.5
			c2.4,0,4.3,1.9,4.3,4.3c0,0.7-0.2,1.3-0.4,1.9c2.6,1.6,5.5,2.6,8.5,3c0.1,0,0.2,0,0.3,0c1.5,0.1,3.1,0.1,4.6,0h0.3
			c3-0.4,6-1.4,8.5-3c-0.3-0.6-0.4-1.2-0.4-1.9c0-2.4,1.9-4.3,4.3-4.3C724.9,485.4,725.6,485.6,726.2,486z M726.6,489.8
			c0-1.4-1.1-2.5-2.5-2.5s-2.5,1.1-2.5,2.5s1.1,2.5,2.5,2.5S726.6,491.2,726.6,489.8z M725.8,497.2c0.5-1.1,0.1-2.5-0.3-3.4
			c-0.4,0.2-0.9,0.2-1.4,0.2c-0.6,0-1.2-0.1-1.7-0.3l1.6,4.8C724.9,498.3,725.5,497.8,725.8,497.2z M725,507.9
			c0.1-0.1,0.1-0.1,0.1-0.2l-4.6-14c-2.6,1.5-5.5,2.5-8.6,2.8l0,0h-0.3c-0.8,0.1-1.6,0.1-2.5,0.1c-0.8,0-1.7,0-2.4-0.1l0,0l0,0
			c-0.1,0-0.2,0-0.3,0c-3-0.4-5.9-1.3-8.6-2.8l-4.6,14c0,0.1,0,0.2,0.1,0.2c0.1,0.1,0.2,0.1,0.2,0c0.2-0.1,0.4-0.2,0.6-0.4
			c0.8-0.5,1.7-1.1,3.4-1.1s2.6,0.6,3.4,1.1c0.6,0.4,1,0.7,1.9,0.7c0.2,0,0.4,0,0.5,0c1.1,0,1.6-0.3,2.2-0.6l0.3-0.2
			c0.8-0.5,1.7-1.1,3.4-1.1s2.6,0.6,3.4,1.1c0.1,0.1,0.2,0.1,0.3,0.2c0.5,0.3,1.1,0.6,2.2,0.6c0.2,0,0.4,0,0.6,0
			c0.8-0.1,1.3-0.4,1.9-0.7c0.8-0.5,1.7-1.1,3.4-1.1s2.6,0.6,3.4,1.1C724.6,507.6,724.8,507.8,725,507.9
			C724.9,507.9,724.9,507.9,725,507.9z M713.7,517.3h7.4c-0.4-1.7-1.9-2.9-3.7-2.9C715.7,514.4,714.2,515.7,713.7,517.3z
			 M716.6,512.7L716,510c-0.1,0-0.2,0-0.3,0.1c-0.2,0-0.5,0-0.8,0c-0.1,0-0.2,0-0.3,0l0.6,3C715.7,512.9,716.1,512.8,716.6,512.7z
			 M697.1,517.3h7.4c-0.4-1.7-1.9-2.9-3.7-2.9S697.5,515.7,697.1,517.3z M702.9,513.1l0.6-3c-0.1,0-0.2,0-0.3,0c-0.3,0-0.5,0-0.7,0
			c-0.1,0-0.2,0-0.3,0l-0.6,2.7C702.1,512.8,702.5,512.9,702.9,513.1z M696.6,489.8c0-1.4-1.1-2.5-2.5-2.5s-2.5,1.1-2.5,2.5
			s1.1,2.5,2.5,2.5S696.6,491.2,696.6,489.8z M694.2,498.5l1.6-4.8c-0.5,0.2-1.1,0.3-1.7,0.3c-0.5,0-1-0.1-1.4-0.3
			c-0.4,0.9-0.8,2.4-0.3,3.4C692.7,497.8,693.3,498.3,694.2,498.5z"/>
		<path class="st53" d="M709.1,456.9c-11.1,0-20.2,8.5-20.2,18.9c0,2.5,0.5,4.9,1.5,7.1c0.4,1,1,2.1,1.6,3c0.3-0.2,0.7-0.3,1-0.4
			s0.7-0.1,1-0.1c2.3,0,4.1,1.7,4.3,4c0,0.1,0,0.2,0,0.4c0,0.7-0.2,1.3-0.4,1.9c2.6,1.6,5.5,2.6,8.5,3c0.1,0,0.2,0,0.3,0
			c1.5,0.1,3.1,0.1,4.6,0h0.3c3-0.4,6-1.4,8.5-3c-0.3-0.6-0.4-1.2-0.4-1.9c0-0.1,0-0.2,0-0.3c0.2-2.2,2-4,4.3-4
			c0.4,0,0.8,0.1,1.2,0.2c0.3,0.1,0.6,0.2,0.9,0.4c0.6-0.8,1-1.7,1.4-2.6c1.1-2.4,1.7-4.9,1.7-7.5
			C729.3,465.4,720.2,456.9,709.1,456.9z M704.9,459.2c0.5,0,0.9,0.4,0.9,0.9c0,2.5,1.9,4.7,4.3,5.1c-0.3-0.6-0.5-1.2-0.5-1.9
			c0-2.1,1.7-3.8,3.8-3.8c0.5,0,0.9,0.4,0.9,0.9s-0.4,0.9-0.9,0.9c-1.1,0-2,0.9-2,2c0,0.8,0.5,1.6,1.3,1.8c0.4,0.1,0.6,0.5,0.6,0.9
			s-0.3,0.7-0.7,0.8c-0.5,0.1-1.1,0.2-1.6,0.2c-3.8,0-7-3.1-7-7C704,459.6,704.4,459.2,704.9,459.2z M704.5,479.9
			c0.5,0,0.9,0.4,0.9,0.9c0,0.8,0.6,1.4,1.4,1.4s1.4-0.6,1.4-1.4c0-0.5,0.4-0.9,0.9-0.9s0.9,0.4,0.9,0.9c0,0.8,0.6,1.4,1.4,1.4
			s1.4-0.6,1.4-1.4c0-0.5,0.4-0.9,0.9-0.9s0.9,0.4,0.9,0.9c0,1.8-1.4,3.2-3.2,3.2c-0.9,0-1.7-0.4-2.3-1c-0.6,0.6-1.4,1-2.3,1
			c-1.8,0-3.2-1.4-3.2-3.2C703.6,480.3,704,479.9,704.5,479.9z M697.7,480c-0.3-0.4-0.1-1,0.3-1.2l2.8-1.6l-2.8-1.6
			c-0.4-0.3-0.6-0.8-0.3-1.2c0.3-0.4,0.8-0.6,1.2-0.3l4.1,2.4c0.3,0.2,0.4,0.5,0.4,0.8s-0.2,0.6-0.4,0.8l-4.1,2.4
			c-0.1,0.1-0.3,0.1-0.5,0.1C698.2,480.5,697.9,480.3,697.7,480z M720.2,478.8c0.4,0.3,0.6,0.8,0.3,1.2c-0.2,0.3-0.5,0.4-0.8,0.4
			c-0.2,0-0.3,0-0.5-0.1l-4.1-2.4c-0.3-0.2-0.4-0.5-0.4-0.8s0.2-0.6,0.4-0.8l4.1-2.4c0.4-0.3,1-0.1,1.2,0.3c0.3,0.4,0.1,1-0.3,1.2
			l-2.8,1.6L720.2,478.8z"/>
		<g>
			<path class="st54" d="M698.4,490.7c0-0.1,0-0.2,0-0.3c-0.1,0.4-0.2,0.9-0.4,1.2c0.1,0.1,0.2,0.1,0.4,0.2c0-0.3,0.1-0.5,0.1-0.8
				C698.4,490.9,698.4,490.8,698.4,490.7z"/>
			<path class="st54" d="M709.1,458.2c10.9,0,19.8,8.1,20.2,18.3c0-0.2,0-0.4,0-0.7c0-10.4-9.1-18.9-20.2-18.9
				c-11.1,0-20.2,8.5-20.2,18.9c0,0.2,0,0.4,0,0.7C689.3,466.4,698.2,458.2,709.1,458.2z"/>
			<path class="st54" d="M719.8,490.8c0,0.1,0,0.2,0,0.3c0,0.3,0,0.5,0.1,0.8c0.1-0.1,0.2-0.1,0.4-0.2c-0.2-0.4-0.3-0.8-0.4-1.3
				C719.8,490.5,719.8,490.6,719.8,490.8z"/>
		</g>
		<path class="st53" d="M724.1,487.3c1.4,0,2.5,1.1,2.5,2.5s-1.1,2.5-2.5,2.5s-2.5-1.1-2.5-2.5S722.7,487.3,724.1,487.3z"/>
		<path class="st52" d="M725.5,493.8c0.4,0.9,0.8,2.3,0.3,3.4c-0.3,0.6-0.9,1-1.8,1.3l-1.6-4.8c0.5,0.2,1.1,0.3,1.7,0.3
			C724.6,494.1,725.1,494,725.5,493.8z"/>
		<path class="st48" d="M720.5,474.3c0.3,0.4,0.1,1-0.3,1.2l-2.8,1.6l2.8,1.6c0.4,0.3,0.6,0.8,0.3,1.2c-0.2,0.3-0.5,0.4-0.8,0.4
			c-0.2,0-0.3,0-0.5-0.1l-4.1-2.4c-0.3-0.2-0.4-0.5-0.4-0.8s0.2-0.6,0.4-0.8l4.1-2.4C719.7,473.7,720.2,473.9,720.5,474.3z"/>
		<path class="st53" d="M716.6,512.7c-0.5,0.1-0.9,0.2-1.3,0.4l-0.4-2.1l-0.2-0.9c0.1,0,0.2,0,0.3,0c0.3,0,0.5,0,0.8,0
			c0.1,0,0.2,0,0.3-0.1l0.2,0.8L716.6,512.7z"/>
		<path class="st48" d="M713.7,479.9c0.5,0,0.9,0.4,0.9,0.9c0,1.8-1.4,3.2-3.2,3.2c-0.9,0-1.7-0.4-2.3-1c-0.6,0.6-1.4,1-2.3,1
			c-1.8,0-3.2-1.4-3.2-3.2c0-0.5,0.4-0.9,0.9-0.9s0.9,0.4,0.9,0.9c0,0.8,0.6,1.4,1.4,1.4s1.4-0.6,1.4-1.4c0-0.5,0.4-0.9,0.9-0.9
			s0.9,0.4,0.9,0.9c0,0.8,0.6,1.4,1.4,1.4s1.4-0.6,1.4-1.4C712.8,480.3,713.2,479.9,713.7,479.9z"/>
		<path class="st48" d="M713.3,459.5c0.5,0,0.9,0.4,0.9,0.9s-0.4,0.9-0.9,0.9c-1.1,0-2,0.9-2,2c0,0.8,0.5,1.6,1.3,1.8
			c0.4,0.1,0.6,0.5,0.6,0.9s-0.3,0.7-0.7,0.8c-0.5,0.1-1.1,0.2-1.6,0.2c-3.8,0-7-3.1-7-7c0-0.5,0.4-0.9,0.9-0.9s0.9,0.4,0.9,0.9
			c0,2.5,1.9,4.7,4.3,5.1c-0.3-0.6-0.5-1.2-0.5-1.9C709.6,461.2,711.2,459.5,713.3,459.5z"/>
		<path class="st53" d="M703.6,510.1l-0.2,0.9l-0.4,2.1c-0.4-0.2-0.9-0.3-1.3-0.4l0.4-1.9l0.2-0.8c0.1,0,0.2,0,0.3,0
			c0.2,0,0.5,0,0.7,0C703.4,510.1,703.5,510.1,703.6,510.1z"/>
		<path class="st48" d="M703,476.4c0.3,0.2,0.4,0.5,0.4,0.8s-0.2,0.6-0.4,0.8l-4.1,2.4c-0.1,0.1-0.3,0.1-0.5,0.1
			c-0.3,0-0.6-0.2-0.8-0.4c-0.3-0.4-0.1-1,0.3-1.2l2.8-1.6l-2.8-1.6c-0.4-0.3-0.6-0.8-0.3-1.2c0.3-0.4,0.8-0.6,1.2-0.3L703,476.4z"
			/>
		<path class="st53" d="M694.1,487.3c1.4,0,2.5,1.1,2.5,2.5s-1.1,2.5-2.5,2.5s-2.5-1.1-2.5-2.5S692.7,487.3,694.1,487.3z"/>
		<path class="st52" d="M724.1,491c-1.2,0-2.1-0.8-2.4-1.9c-0.1,0.2-0.1,0.4-0.1,0.6c0,1.4,1.1,2.5,2.5,2.5s2.5-1.1,2.5-2.5
			c0-0.2,0-0.4-0.1-0.6C726.2,490.2,725.3,491,724.1,491z"/>
		<path class="st52" d="M694.1,491c-1.2,0-2.1-0.8-2.4-1.9c-0.1,0.2-0.1,0.4-0.1,0.6c0,1.4,1.1,2.5,2.5,2.5s2.5-1.1,2.5-2.5
			c0-0.2,0-0.4-0.1-0.6C696.2,490.2,695.3,491,694.1,491z"/>
		<path class="st52" d="M695.8,493.8l-1.6,4.8c-0.9-0.3-1.5-0.7-1.8-1.3c-0.5-1-0.1-2.4,0.3-3.4c0.5,0.2,0.9,0.3,1.4,0.3
			C694.7,494.1,695.3,494,695.8,493.8z"/>
		<g>
			<ellipse class="st52" cx="695.2" cy="483" rx="2.5" ry="2.5"/>
			<circle class="st52" cx="723" cy="483" r="2.5"/>
		</g>
		<path class="st52" d="M693.1,485.6c-0.4,0.1-0.7,0.2-1,0.4c-0.6-1-1.2-2-1.6-3C691.2,483.8,692.1,484.7,693.1,485.6z"/>
		<path class="st52" d="M719.8,489.8c0,0.7,0.2,1.3,0.4,1.9c-2.6,1.6-5.5,2.6-8.5,3h-0.3c-1.5,0.1-3.1,0.1-4.6,0c-0.1,0-0.2,0-0.3,0
			c-3.1-0.4-6-1.4-8.5-3c0.3-0.6,0.4-1.2,0.4-1.9c0-0.1,0-0.2,0-0.4c3.1,1.7,6.7,2.9,10.7,2.9s7.5-1.1,10.7-2.8
			C719.8,489.6,719.8,489.7,719.8,489.8z"/>
		<path class="st52" d="M725.3,485.6c0.8-0.7,1.6-1.5,2.3-2.2c-0.4,0.9-0.9,1.7-1.4,2.6C725.9,485.8,725.6,485.7,725.3,485.6z"/>
		<path class="st55" d="M720.8,494.7c-2.8,1.9-6.8,3.8-11.7,3.8c-5.2,0-9.1-2.1-11.6-4.1l0.3-0.8c2.6,1.5,5.5,2.5,8.6,2.8
			c0.1,0,0.2,0,0.3,0l0,0l0,0c0.8,0.1,1.6,0.1,2.4,0.1c0.9,0,1.7,0,2.5-0.1h0.3l0,0c3-0.4,6-1.3,8.6-2.8L720.8,494.7z"/>
		<path class="st52" d="M703.3,510.1c0.1,0,0.2,0,0.3,0l-0.2,0.9h-0.1c-0.2,0-0.4,0-0.5,0c-0.3,0-0.5-0.1-0.7-0.1l0.2-0.8
			c0.1,0,0.2,0,0.3,0C702.8,510.1,703,510.1,703.3,510.1z"/>
		<path class="st52" d="M716.2,510.8c-0.2,0.1-0.4,0.1-0.7,0.2c-0.2,0-0.4,0-0.6,0h-0.1l-0.2-0.9c0.1,0,0.2,0,0.3,0
			c0.3,0,0.5,0,0.8,0c0.1,0,0.2,0,0.3-0.1L716.2,510.8z"/>
	</g>
</g>
</svg>
