<svg id="Layer_1" data-name="Layer 1" xmlns="http://www.w3.org/2000/svg" xmlns:xlink="http://www.w3.org/1999/xlink" viewBox="0 0 1920 1079.69"><defs><style>.cls-1{fill:url(#名称未設定グラデーション_3);}.cls-2{fill:#ebf4ff;}.cls-3{fill:#fffdfe;opacity:0.4;}</style><linearGradient id="名称未設定グラデーション_3" x1="960" y1="120.38" x2="960" y2="1315.64" gradientUnits="userSpaceOnUse"><stop offset="0" stop-color="#9ed9ff"/><stop offset="0.21" stop-color="#a2d8fc"/><stop offset="0.41" stop-color="#aed5f5"/><stop offset="0.61" stop-color="#c1d0e8"/><stop offset="0.81" stop-color="#ddc9d6"/><stop offset="1" stop-color="#ffc1bf"/></linearGradient></defs><rect class="cls-1" width="1920" height="1079.69"/><path class="cls-2" d="M252.19,484.89c10.14-3.7,17.75-12.07,26.67-18.15,3.64-2.48,7.67-4.64,12.05-5s9.18,1.34,11.41,5.13c1.39,2.34,1.78,5.36,3.85,7.12,3.58,3,9,.22,12.6-2.78,5.32-4.41,10.5-9.38,17.08-11.46s15.13-.07,17.77,6.3c1.21,2.92,1.13,6.47,3.28,8.78s6.06,2.47,9.33,3.22,6.86,3.62,5.73,6.78Z"/><path class="cls-2" d="M1651,668.7c10.14-3.69,17.75-12.07,26.67-18.15,3.64-2.47,7.67-4.63,12.05-5s9.18,1.34,11.41,5.13c1.39,2.34,1.78,5.35,3.85,7.11,3.58,3,9,.22,12.61-2.77,5.31-4.42,10.49-9.39,17.08-11.47s15.12-.07,17.77,6.31c1.21,2.91,1.12,6.47,3.27,8.78s6.06,2.47,9.33,3.21,6.86,3.62,5.73,6.78Z"/><path class="cls-3" d="M660.49,368.4c16.12-5.87,28.2-19.17,42.38-28.83,5.78-3.94,12.18-7.36,19.15-8s14.58,2.12,18.13,8.14c2.19,3.73,2.81,8.51,6.11,11.31,5.68,4.82,14.29.35,20-4.41,8.44-7,16.68-14.91,27.14-18.21s24-.12,28.23,10c1.92,4.63,1.79,10.28,5.2,13.95,3.62,3.9,9.64,3.92,14.83,5.11s10.89,5.75,9.1,10.77Z"/></svg>