<?xml version="1.0" encoding="utf-8"?>
<!-- Generator: Adobe Illustrator 25.3.0, SVG Export Plug-In . SVG Version: 6.00 Build 0)  -->
<svg version="1.1" id="レイヤー_1" xmlns="http://www.w3.org/2000/svg" xmlns:xlink="http://www.w3.org/1999/xlink" x="0px"
	 y="0px" viewBox="0 0 1920 289.5" style="enable-background:new 0 0 1920 289.5;" xml:space="preserve">
<style type="text/css">
	.st0{fill:#41A863;}
	.st1{fill:#FFDA00;}
	.st2{fill:#8E6643;}
	.st3{fill:#006738;}
	.st4{fill:#00512A;}
	.st5{fill:#017D3E;}
	.st6{fill:#019444;}
	.st7{fill:#3EA347;}
	.st8{fill:#43BE54;}
	.st9{fill:#6CB32F;}
	.st10{fill:#99CE3E;}
</style>
<path class="st0" d="M0.1,256.6c0,0,381.9-112.1,1121.9-78.8c0,0-251.1-124.4-487.6-26.1c0,0-162.5-91.2-397.6-64.5
	c0,0-158.8-44.9-236.9-29.3L0.1,256.6z"/>
<path class="st0" d="M1152.7,181.5c0,0,548,19.9,767.3,108V105.8c0,0-79-2-134.5,13.8c-55.6,15.8-108.9,3-131.1,2.5
	c-22.2-0.5-147.6-3.5-205.4,59.9C1449,182,1283.7,146.8,1152.7,181.5z"/>
<ellipse class="st1" cx="1581.1" cy="162" rx="6.3" ry="8.2"/>
<circle class="st1" cx="1887.9" cy="175" r="8.2"/>
<circle class="st1" cx="1887.9" cy="126.9" r="6"/>
<circle class="st1" cx="1849.3" cy="209.2" r="6"/>
<circle class="st1" cx="1914" cy="222.3" r="6"/>
<circle class="st1" cx="1712.6" cy="186.8" r="6"/>
<circle class="st1" cx="1871.4" cy="239.2" r="6"/>
<circle class="st1" cx="1678.5" cy="145.4" r="8.3"/>
<circle class="st1" cx="1505.7" cy="183.3" r="6.2"/>
<circle class="st1" cx="1346.7" cy="179.1" r="6.2"/>
<circle class="st1" cx="937.9" cy="153.8" r="5.4"/>
<circle class="st1" cx="487" cy="153.8" r="6.4"/>
<circle class="st1" cx="284.9" cy="115.3" r="6.4"/>
<circle class="st1" cx="269.6" cy="166.5" r="6.4"/>
<circle class="st1" cx="411.5" cy="155.6" r="6.4"/>
<circle class="st1" cx="128.7" cy="201.5" r="8.3"/>
<circle class="st1" cx="36.6" cy="166.5" r="8.3"/>
<circle class="st1" cx="835.9" cy="150.4" r="8.3"/>
<circle class="st1" cx="94.2" cy="107.5" r="10.6"/>
<circle class="st1" cx="354.2" cy="134.6" r="8.5"/>
<g>
	<rect x="1650.6" y="107.3" class="st2" width="9.4" height="20.7"/>
	<path class="st3" d="M1679.9,95.8h-49.1c-3.2,0.2-5.6,2.9-5.5,6c0.2,3,2.6,5.4,5.5,5.5h49.1c3.2-0.2,5.6-2.9,5.5-6
		C1685.2,98.4,1682.8,96,1679.9,95.8L1679.9,95.8z"/>
	<path class="st4" d="M1682.5,107.5h-54.3c-3.2,0.2-5.6,2.9-5.5,6c0.2,3,2.6,5.4,5.5,5.5h54.3c3.2-0.2,5.6-2.9,5.5-6
		C1687.9,110,1685.5,107.7,1682.5,107.5L1682.5,107.5z"/>
	<path class="st5" d="M1676,84.3h-41.3c-3.2,0-5.8,2.6-5.8,5.8s2.6,5.8,5.8,5.8h41.2c3.2,0,5.8-2.6,5.8-5.8S1679.1,84.3,1676,84.3
		L1676,84.3z"/>
	<path class="st6" d="M1672,72.8h-33.5c-3.2,0-5.8,2.6-5.8,5.8s2.6,5.8,5.8,5.8l0,0h33.5c3.2,0,5.8-2.6,5.8-5.8
		S1675.2,72.8,1672,72.8L1672,72.8z"/>
	<path class="st7" d="M1668.1,61.3h-25.7c-3.2,0.2-5.6,2.9-5.5,6c0.2,3,2.6,5.4,5.5,5.5h25.7c3.2-0.2,5.6-2.9,5.5-6
		C1673.5,63.8,1671.1,61.4,1668.1,61.3z"/>
	<path class="st8" d="M1664.3,49.7h-17.8c-3.2,0-5.8,2.6-5.8,5.8s2.6,5.8,5.8,5.8l0,0h17.8c3.2,0,5.8-2.6,5.8-5.8
		C1670,52.3,1667.4,49.7,1664.3,49.7z"/>
	<path class="st9" d="M1660.3,38.2h-10c-3.2,0-5.8,2.6-5.8,5.8s2.6,5.8,5.8,5.8l0,0h10c3.2,0,5.8-2.6,5.8-5.8
		C1666.1,40.8,1663.5,38.2,1660.3,38.2z"/>
	<path class="st10" d="M1657.8,26.7h-4.8c-3.2,0.2-5.6,2.9-5.5,6c0.2,3,2.6,5.4,5.5,5.5h4.8c3.2-0.2,5.6-2.9,5.5-6
		C1663,29.2,1660.7,26.8,1657.8,26.7z"/>
</g>
<g>
	<circle class="st1" cx="1810.8" cy="163.4" r="6"/>
	<circle class="st1" cx="1785.5" cy="110.7" r="6"/>
	<rect x="1783.6" y="168.8" class="st2" width="19.3" height="42.3"/>
	<path class="st3" d="M1843.3,145.3h-100.2c-6.5,0-11.8,5.3-11.8,11.8c0,6.5,5.3,11.8,11.8,11.8h100.2c6.5,0,11.8-5.3,11.8-11.8
		C1855.1,150.6,1849.8,145.3,1843.3,145.3z"/>
	<path class="st4" d="M1848.7,168.8h-111c-6.5,0-11.8,5.3-11.8,11.8s5.3,11.8,11.8,11.8h111c6.5,0,11.8-5.3,11.8-11.8
		C1860.4,174.1,1855.1,168.8,1848.7,168.8z"/>
	<path class="st5" d="M1835.3,121.7H1751c-6.5,0-11.8,5.3-11.8,11.8s5.3,11.8,11.8,11.8h84.3c6.5,0,11.8-5.3,11.8-11.8
		C1847.1,127,1841.8,121.7,1835.3,121.7z"/>
	<path class="st6" d="M1827.3,98.1H1759c-6.5,0.2-11.6,5.7-11.4,12.2c0.2,6.2,5.2,11.2,11.4,11.4h68.3c6.5-0.2,11.6-5.7,11.4-12.2
		C1838.5,103.3,1833.5,98.3,1827.3,98.1z"/>
	<path class="st7" d="M1819.3,74.6H1767c-6.5,0-11.8,5.3-11.8,11.8c0,6.5,5.3,11.8,11.8,11.8h52.3c6.5,0,11.8-5.3,11.8-11.8
		C1831.1,79.8,1825.9,74.6,1819.3,74.6z"/>
	<path class="st8" d="M1811.3,51h-36.4c-6.5,0-11.8,5.3-11.8,11.8s5.3,11.8,11.8,11.8h36.4c6.5,0,11.8-5.3,11.8-11.8
		C1823.1,56.3,1817.9,51,1811.3,51z"/>
	<path class="st9" d="M1803.4,27.5H1783c-6.5,0-11.8,5.3-11.8,11.8c0,6.5,5.3,11.8,11.8,11.8h20.4c6.5,0,11.8-5.3,11.8-11.8
		C1815.1,32.8,1809.9,27.5,1803.4,27.5z"/>
	<path class="st10" d="M1798.1,3.9h-9.8c-6.5,0-11.8,5.3-11.8,11.8s5.3,11.8,11.8,11.8h9.8c6.5,0,11.8-5.3,11.8-11.8
		S1804.6,3.9,1798.1,3.9z"/>
</g>
<g>
	<rect x="627.6" y="139.6" class="st2" width="7.4" height="16.3"/>
	<path class="st3" d="M650.7,130.5H612c-2.5,0.1-4.4,2.2-4.3,4.8c0.1,2.3,2,4.2,4.3,4.3h38.7c2.5-0.1,4.4-2.2,4.3-4.8
		C654.9,132.4,653,130.5,650.7,130.5L650.7,130.5z"/>
	<path class="st4" d="M652.7,139.6H610c-2.5,0.1-4.4,2.2-4.3,4.8c0.1,2.3,2,4.2,4.3,4.3h42.9c2.5-0.1,4.4-2.2,4.3-4.8
		C657,141.6,655.1,139.8,652.7,139.6L652.7,139.6z"/>
	<path class="st5" d="M647.6,121.4h-32.5c-2.5,0.1-4.4,2.2-4.3,4.8c0.1,2.3,2,4.2,4.3,4.3h32.5c2.5-0.1,4.4-2.2,4.3-4.8
		C651.8,123.3,649.9,121.5,647.6,121.4z"/>
	<path class="st6" d="M644.5,112.3h-26.4c-2.5,0.1-4.4,2.2-4.3,4.8c0.1,2.3,2,4.2,4.3,4.3h26.4c2.5-0.1,4.4-2.2,4.3-4.8
		C648.7,114.3,646.9,112.4,644.5,112.3z"/>
	<path class="st7" d="M641.5,103.2h-20.2c-2.5,0.1-4.4,2.2-4.3,4.8c0.1,2.3,2,4.2,4.3,4.3h20.2c2.5-0.1,4.4-2.2,4.3-4.8
		C645.7,105.2,643.8,103.3,641.5,103.2z"/>
	<path class="st8" d="M638.4,94.1h-14.1c-2.5,0.1-4.4,2.2-4.3,4.8c0.1,2.3,2,4.2,4.3,4.3h14.1c2.5-0.1,4.4-2.2,4.3-4.8
		C642.6,96.1,640.8,94.2,638.4,94.1z"/>
	<path class="st9" d="M635.3,85h-7.9c-2.5,0.1-4.4,2.2-4.3,4.8c0.1,2.3,2,4.2,4.3,4.3h7.9c2.5-0.1,4.4-2.2,4.3-4.8
		C639.5,87,637.6,85.2,635.3,85L635.3,85z"/>
	<path class="st10" d="M633.2,75.9h-3.8c-2.5,0-4.6,2-4.6,4.6c0,2.5,2,4.6,4.6,4.6h3.8c2.5,0,4.6-2,4.6-4.6
		C637.8,77.9,635.8,75.9,633.2,75.9z"/>
</g>
<g>
	<rect x="540.7" y="111.6" class="st2" width="9" height="19.7"/>
	<path class="st3" d="M568.5,100.7H522c-3,0.1-5.3,2.7-5.2,5.7c0.1,2.8,2.4,5.1,5.2,5.2h46.5c3-0.1,5.3-2.7,5.2-5.7
		C573.5,103.1,571.3,100.9,568.5,100.7L568.5,100.7z"/>
	<path class="st4" d="M570.9,111.8h-51.5c-3,0.1-5.3,2.7-5.2,5.7c0.1,2.8,2.4,5.1,5.2,5.2h51.5c3-0.1,5.3-2.7,5.2-5.7
		C576,114.2,573.8,111.9,570.9,111.8L570.9,111.8z"/>
	<path class="st5" d="M564.7,89.8h-39.1c-3,0-5.5,2.5-5.5,5.5c0,3,2.5,5.5,5.5,5.5h39.1c3,0,5.5-2.5,5.5-5.5S567.8,89.8,564.7,89.8
		L564.7,89.8z"/>
	<path class="st6" d="M561,78.8h-31.7c-3,0.1-5.3,2.7-5.2,5.7c0.1,2.8,2.4,5.1,5.2,5.2H561c3-0.1,5.3-2.7,5.2-5.7
		C566.1,81.2,563.9,79,561,78.8L561,78.8z"/>
	<path class="st7" d="M557.4,67.9H533c-3,0.1-5.3,2.7-5.2,5.7c0.1,2.8,2.4,5.1,5.2,5.2h24.4c3-0.1,5.3-2.7,5.2-5.7
		C562.4,70.3,560.2,68.1,557.4,67.9L557.4,67.9z"/>
	<path class="st8" d="M553.6,57h-16.9c-3,0.1-5.3,2.7-5.2,5.7c0.1,2.8,2.4,5.1,5.2,5.2h16.9c3-0.1,5.3-2.7,5.2-5.7
		C558.7,59.4,556.4,57.1,553.6,57z"/>
	<path class="st9" d="M549.9,46.1h-9.5c-3,0.1-5.3,2.7-5.2,5.7c0.1,2.8,2.4,5.1,5.2,5.2h9.5c3-0.1,5.3-2.7,5.2-5.7
		C555,48.5,552.7,46.2,549.9,46.1z"/>
	<path class="st10" d="M547.5,35.1h-4.6c-3,0.1-5.3,2.7-5.2,5.7c0.1,2.8,2.4,5.1,5.2,5.2h4.6c3-0.1,5.3-2.7,5.2-5.7
		C552.5,37.5,550.3,35.3,547.5,35.1z"/>
</g>
<g>
	<ellipse class="st1" cx="205.2" cy="114.3" rx="6.4" ry="6.4"/>
	<ellipse class="st1" cx="183" cy="77.6" rx="6.4" ry="6.4"/>
	<rect x="181.2" y="147.5" class="st2" width="17.4" height="37.8"/>
	<path class="st3" d="M235.1,126.4h-90.5c-5.9,0.5-10.3,5.6-9.8,11.4c0.4,5.1,4.6,9.2,9.8,9.7h90.5c5.9-0.5,10.3-5.6,9.8-11.4
		C244.5,130.9,240.4,126.8,235.1,126.4z"/>
	<path class="st4" d="M240,147.7H139.8c-5.9,0.5-10.3,5.6-9.8,11.4c0.4,5.1,4.6,9.2,9.8,9.7H240c5.9-0.5,10.3-5.6,9.8-11.4
		C249.3,152.2,245.2,148.1,240,147.7z"/>
	<path class="st5" d="M227.9,105.4h-76.1c-5.9,0.5-10.3,5.6-9.8,11.4c0.4,5.1,4.6,9.2,9.8,9.7h76.1c5.9-0.5,10.3-5.6,9.8-11.4
		C237.3,109.8,233.1,105.8,227.9,105.4L227.9,105.4z"/>
	<path class="st6" d="M220.8,84.3h-61.6c-5.9,0.5-10.3,5.6-9.8,11.4c0.4,5.1,4.6,9.2,9.8,9.7h61.6c5.9-0.5,10.3-5.6,9.8-11.4
		C230.1,88.8,226,84.7,220.8,84.3z"/>
	<path class="st7" d="M213.5,63.2h-47.3c-5.9,0.5-10.3,5.6-9.8,11.4c0.4,5.1,4.6,9.2,9.8,9.7h47.3c5.9-0.5,10.3-5.6,9.8-11.4
		C222.9,67.7,218.7,63.6,213.5,63.2z"/>
	<path class="st8" d="M206.3,42.1h-32.9c-5.9,0.5-10.3,5.6-9.8,11.4c0.4,5.1,4.6,9.2,9.8,9.7h32.9c5.9-0.5,10.3-5.6,9.8-11.4
		C215.7,46.6,211.5,42.6,206.3,42.1z"/>
	<path class="st9" d="M199.2,21h-18.4c-5.9,0.5-10.3,5.6-9.8,11.4c0.4,5.1,4.6,9.2,9.8,9.7h18.4c5.9-0.5,10.3-5.6,9.8-11.4
		C208.5,25.6,204.4,21.5,199.2,21L199.2,21z"/>
	<path class="st10" d="M194.3,0h-8.8c-5.9,0.5-10.3,5.6-9.8,11.4c0.4,5.1,4.6,9.2,9.8,9.7h8.8c5.9-0.5,10.3-5.6,9.8-11.4
		C203.6,4.5,199.5,0.4,194.3,0z"/>
</g>
<circle class="st1" cx="742.4" cy="148.7" r="6.4"/>
</svg>
