<?xml version="1.0" encoding="utf-8"?>
<!-- Generator: Adobe Illustrator 25.3.0, SVG Export Plug-In . SVG Version: 6.00 Build 0)  -->
<svg version="1.1" id="レイヤー_1" xmlns="http://www.w3.org/2000/svg" xmlns:xlink="http://www.w3.org/1999/xlink" x="0px"
	 y="0px" viewBox="0 0 1920 1080" style="enable-background:new 0 0 1920 1080;" xml:space="preserve">
<style type="text/css">
	.st0{fill:url(#SVGID_1_);}
	.st1{clip-path:url(#SVGID_3_);fill:#FFB8C8;stroke:#3C0000;stroke-width:1.3976;stroke-miterlimit:10;}
	.st2{clip-path:url(#SVGID_3_);}
	.st3{fill:none;stroke:#3C0000;stroke-width:1.3976;stroke-miterlimit:10;}
	.st4{fill:#6E76B5;stroke:#3C0000;stroke-width:1.3976;stroke-miterlimit:10;}
	.st5{fill:#B7BFEB;stroke:#3C0000;stroke-width:1.3976;stroke-miterlimit:10;}
	.st6{fill:#2A2C4E;stroke:#3C0000;stroke-width:1.3976;stroke-miterlimit:10;}
	.st7{fill:#F8F8F8;stroke:#3C0000;stroke-width:1.3976;stroke-miterlimit:10;}
	.st8{fill:#4E4C8F;stroke:#3C0000;stroke-width:1.3976;stroke-miterlimit:10;}
	.st9{fill:#DD8BA0;stroke:#3C0000;stroke-width:1.3976;stroke-miterlimit:10;}
	.st10{fill:#6E76B5;}
	.st11{fill:#969AD9;}
	.st12{fill:#FFFFFF;stroke:#3C0000;stroke-width:1.3976;stroke-miterlimit:10;}
	.st13{fill:#45387D;stroke:#3C0000;stroke-width:1.3976;stroke-miterlimit:10;}
	.st14{clip-path:url(#SVGID_5_);fill:none;stroke:#3C0000;stroke-width:1.3976;stroke-miterlimit:10;}
	.st15{clip-path:url(#SVGID_7_);fill:none;stroke:#3C0000;stroke-width:1.3976;stroke-miterlimit:10;}
	.st16{fill:#969AD9;stroke:#3C0000;stroke-width:1.3976;stroke-miterlimit:10;}
	.st17{fill:#FFB8C8;stroke:#3C0000;stroke-width:1.3976;stroke-miterlimit:10;}
	.st18{opacity:0.6;fill:#45387D;}
	.st19{fill:#D26088;stroke:#3C0000;stroke-width:1.3976;stroke-miterlimit:10;}
	.st20{fill:#D5DEF0;}
	.st21{opacity:0.4;fill:#969AD9;stroke:#3C0000;stroke-width:1.3976;stroke-miterlimit:10;}
	.st22{fill:#D5DEF0;stroke:#3C0000;stroke-width:1.3976;stroke-miterlimit:10;}
	.st23{fill:#2A2C4E;}
	.st24{fill:#DD8BA0;}
	.st25{fill:none;}
	.st26{fill:#FFFFFF;stroke:#3C0000;stroke-width:1.7184;stroke-miterlimit:10;}
	.st27{fill:#6E76B5;stroke:#3C0000;stroke-width:1.7184;stroke-miterlimit:10;}
	.st28{fill:#FEFDFD;}
	.st29{fill:#462915;}
	.st30{fill:#D16E7D;}
	.st31{fill:#D0D1D3;stroke:#232020;stroke-width:0.4197;stroke-miterlimit:10;}
	.st32{fill:none;stroke:#3C0000;stroke-width:1.6789;stroke-linecap:round;stroke-miterlimit:10;}
	.st33{fill:#EB5160;stroke:#232020;stroke-width:0.4197;stroke-miterlimit:10;}
	.st34{fill:#D0D1D3;}
	.st35{fill:#EAECED;}
	.st36{fill:#DD8793;stroke:#232020;stroke-width:0.3454;stroke-miterlimit:10;}
	.st37{fill:none;stroke:#3C0000;stroke-width:2.4736;stroke-miterlimit:10;}
	.st38{fill:none;stroke:#232020;stroke-width:1.6789;stroke-linecap:round;stroke-miterlimit:10;}
	.st39{fill:#EB5160;}
	.st40{fill:#FFEBC8;}
	.st41{fill:#EFD3A5;}
	.st42{fill:#FF92AB;}
	.st43{fill:#FFFEFD;}
	.st44{fill:#FFF6EE;}
	.st45{fill:#3C0000;}
</style>
<g>
	<linearGradient id="SVGID_1_" gradientUnits="userSpaceOnUse" x1="962.7234" y1="120.41" x2="962.7234" y2="1316.0193">
		<stop  offset="2.143866e-03" style="stop-color:#9ED9FF"/>
		<stop  offset="0.2079" style="stop-color:#A2D8FC"/>
		<stop  offset="0.4098" style="stop-color:#AED5F5"/>
		<stop  offset="0.6102" style="stop-color:#C1D0E8"/>
		<stop  offset="0.8084" style="stop-color:#DDC9D6"/>
		<stop  offset="1" style="stop-color:#FFC1BF"/>
	</linearGradient>
	<rect x="2.7" y="0" class="st0" width="1920" height="1080"/>
</g>
<g>
	<g>
		<defs>
			<rect id="SVGID_2_" x="594.6" y="285.4" width="1266" height="794.6"/>
		</defs>
		<clipPath id="SVGID_3_">
			<use xlink:href="#SVGID_2_"  style="overflow:visible;"/>
		</clipPath>
		<polygon class="st1" points="915.8,657.5 984.7,657.5 984.7,563.7 1085.3,507.1 1085.3,747.3 913.5,747.3 		"/>
		<g class="st2">
			<g>
				<g>
					<line class="st3" x1="786.9" y1="786.5" x2="786.9" y2="751.1"/>
					<line class="st3" x1="771.6" y1="757.9" x2="802.2" y2="757.9"/>
					<line class="st3" x1="771.6" y1="751.1" x2="771.6" y2="764.7"/>
					<line class="st3" x1="796.4" y1="751.1" x2="796.4" y2="764.7"/>
					<line class="st3" x1="802.2" y1="751.1" x2="802.2" y2="764.7"/>
					<line class="st3" x1="777.4" y1="751.1" x2="777.4" y2="764.7"/>
				</g>
			</g>
			<path class="st4" d="M753.4,775.8l-11.7-11.7l5.6-5.6c0.3-0.3,0.3-0.9,0-1.2c-0.3-0.3-0.9-0.3-1.2,0l-5.6,5.6l-11.7-11.7
				c-3.7,6.9-2.6,15.7,3.2,21.5c0.8,0.8,1.7,1.5,2.6,2.2v11.7h2.4v-10.3C742.2,778.6,748.3,778.5,753.4,775.8z"/>
			<rect x="642.9" y="820.7" class="st5" width="241.7" height="375.4"/>
			<rect x="642.9" y="820.7" class="st6" width="241.7" height="289.6"/>
			<rect x="629.8" y="820.7" class="st7" width="254.8" height="35.4"/>
			<line class="st3" x1="884.6" y1="846.4" x2="629.8" y2="846.4"/>
			<rect x="876" y="820.7" class="st8" width="8.6" height="35.4"/>
			<rect x="799.5" y="785.3" class="st8" width="34.3" height="35.4"/>
			<rect x="699.2" y="785.3" class="st7" width="100.3" height="35.4"/>
			<polygon class="st8" points="699.2,820.7 799.5,820.7 799.5,813.9 			"/>
			<line class="st3" x1="799.5" y1="798.5" x2="699.2" y2="798.5"/>
			<rect x="629.8" y="882.7" class="st7" width="254.8" height="35.4"/>
			<line class="st3" x1="884.6" y1="908.4" x2="629.8" y2="908.4"/>
			<rect x="629.8" y="944.7" class="st7" width="254.8" height="35.4"/>
			<line class="st3" x1="884.6" y1="970.4" x2="629.8" y2="970.4"/>
			<rect x="629.8" y="1006.7" class="st7" width="254.8" height="35.4"/>
			<line class="st3" x1="884.6" y1="1032.4" x2="629.8" y2="1032.4"/>
			<rect x="629.8" y="1068.7" class="st7" width="254.8" height="35.4"/>
			<line class="st3" x1="884.6" y1="1094.4" x2="629.8" y2="1094.4"/>
			<rect x="642.9" y="856.2" class="st9" width="241.7" height="26.6"/>
			<rect x="642.9" y="856.2" class="st9" width="241.7" height="26.6"/>
			<polygon class="st10" points="695,856.2 668.5,882.7 650.2,882.7 676.8,856.2 			"/>
			<polygon class="st10" points="850.3,856.2 823.7,882.7 805.4,882.7 832,856.2 			"/>
			<polygon class="st10" points="825.1,856.2 798.5,882.7 788.1,882.7 814.7,856.2 			"/>
			<polygon class="st10" points="769.4,856.2 742.8,882.7 708.2,882.7 734.8,856.2 			"/>
			<rect x="642.9" y="856.2" class="st6" width="241.7" height="7.4"/>
			<rect x="642.9" y="918.2" class="st9" width="241.7" height="26.6"/>
			<polygon class="st10" points="746.1,918.2 719.6,944.7 682,944.7 708.6,918.2 			"/>
			<polygon class="st10" points="816.9,918.2 790.3,944.7 769.2,944.7 795.8,918.2 			"/>
			<rect x="642.9" y="980.2" class="st9" width="241.7" height="26.6"/>
			<polygon class="st10" points="732.6,980.2 706,1006.7 686.9,1006.7 713.4,980.2 			"/>
			<polygon class="st10" points="837.2,980.2 810.6,1006.7 791.5,1006.7 818,980.2 			"/>
			<polygon class="st10" points="755.6,980.2 729,1006.7 717.2,1006.7 743.7,980.2 			"/>
			<rect x="642.9" y="1042.1" class="st9" width="241.7" height="26.6"/>
			<polygon class="st10" points="744.1,1042.2 717.5,1068.7 687.4,1068.7 714,1042.2 			"/>
			<polygon class="st10" points="872.2,1042.2 845.7,1068.7 815.6,1068.7 842.1,1042.2 			"/>
			<polygon class="st10" points="790.3,1042.2 763.7,1068.7 751.1,1068.7 777.7,1042.2 			"/>
			
				<rect x="707.9" y="1075.2" transform="matrix(6.123234e-17 -1 1 6.123234e-17 -407.8602 1903.9883)" class="st4" width="80.4" height="161.4"/>
			<rect x="667.3" y="1115.7" class="st4" width="161.4" height="80.4"/>
			<polygon class="st11" points="828.8,1115.7 828.8,1163.2 795.8,1196.1 737.8,1196.1 818.2,1115.7 			"/>
			<polygon class="st11" points="780.8,1115.7 700.4,1196.1 667.3,1196.1 667.3,1195.9 747.5,1115.7 			"/>
			<line class="st3" x1="749.3" y1="1115.7" x2="749.3" y2="1196.1"/>
			<polygon class="st6" points="671.6,1119.1 828.8,1119.1 828.8,1115.7 667.4,1115.7 667.4,1196.1 671.6,1196.1 			"/>
			<rect x="642.9" y="918.2" class="st6" width="241.7" height="7.4"/>
			<rect x="642.9" y="980.2" class="st6" width="241.7" height="7.4"/>
			<rect x="642.9" y="1042.1" class="st6" width="241.7" height="7.4"/>
		</g>
		<g class="st2">
			<polygon class="st8" points="1710.1,717.3 1710.1,841.9 1842.1,841.9 			"/>
			<rect x="1593.6" y="841.9" class="st12" width="116.6" height="354.3"/>
			
				<rect x="1710.1" y="841.9" transform="matrix(-1 -1.224647e-16 1.224647e-16 -1 3536.7896 2038.0126)" class="st13" width="116.6" height="354.3"/>
			<polygon class="st6" points="1826.7,917.9 1811.2,1063.3 1827,1063.3 			"/>
			<g>
				<defs>
					<polygon id="SVGID_4_" points="1710.1,717.3 1710.1,841.9 1578.1,841.9 					"/>
				</defs>
				<use xlink:href="#SVGID_4_"  style="overflow:visible;fill:#6E76B5;"/>
				<clipPath id="SVGID_5_">
					<use xlink:href="#SVGID_4_"  style="overflow:visible;"/>
				</clipPath>
				<line class="st14" x1="1588.9" y1="731.9" x2="1728" y2="731.9"/>
				<line class="st14" x1="1588.9" y1="744.7" x2="1728" y2="744.7"/>
				<line class="st14" x1="1588.9" y1="757.5" x2="1728" y2="757.5"/>
				<line class="st14" x1="1588.9" y1="770.3" x2="1728" y2="770.3"/>
				<line class="st14" x1="1588.9" y1="783.1" x2="1728" y2="783.1"/>
				<line class="st14" x1="1588.9" y1="795.9" x2="1728" y2="795.9"/>
				<line class="st14" x1="1588.9" y1="808.7" x2="1728" y2="808.7"/>
				<line class="st14" x1="1588.9" y1="821.6" x2="1728" y2="821.6"/>
				<use xlink:href="#SVGID_4_"  style="overflow:visible;fill:none;stroke:#3C0000;stroke-width:1.3976;stroke-miterlimit:10;"/>
			</g>
			<g>
				<defs>
					<polygon id="SVGID_6_" points="1710.1,717.3 1710.1,841.9 1842.1,841.9 					"/>
				</defs>
				<clipPath id="SVGID_7_">
					<use xlink:href="#SVGID_6_"  style="overflow:visible;"/>
				</clipPath>
				<line class="st15" x1="1831.3" y1="731.9" x2="1692.2" y2="731.9"/>
				<line class="st15" x1="1831.3" y1="744.7" x2="1692.2" y2="744.7"/>
				<line class="st15" x1="1831.3" y1="757.5" x2="1692.2" y2="757.5"/>
				<line class="st15" x1="1831.3" y1="770.3" x2="1692.2" y2="770.3"/>
				<line class="st15" x1="1831.3" y1="783.1" x2="1692.2" y2="783.1"/>
				<line class="st15" x1="1831.3" y1="795.9" x2="1692.2" y2="795.9"/>
				<line class="st15" x1="1831.3" y1="808.7" x2="1692.2" y2="808.7"/>
				<line class="st15" x1="1831.3" y1="821.6" x2="1692.2" y2="821.6"/>
				<use xlink:href="#SVGID_6_"  style="overflow:visible;fill:none;stroke:#3C0000;stroke-width:1.3976;stroke-miterlimit:10;"/>
			</g>
			
				<rect x="1710.1" y="833" transform="matrix(-1 -1.224647e-16 1.224647e-16 -1 3551.9312 1683.7548)" class="st4" width="131.7" height="17.7"/>
			
				<rect x="1710.1" y="839.9" transform="matrix(-1 -1.224647e-16 1.224647e-16 -1 3551.9312 1683.7548)" class="st8" width="131.7" height="4"/>
			<rect x="1578.4" y="833" class="st16" width="131.7" height="17.7"/>
			<rect x="1578.4" y="839.9" class="st4" width="131.7" height="4"/>
			<line class="st13" x1="1593.6" y1="1196.1" x2="1710.1" y2="1196.1"/>
			<g>
				<g>
					<rect x="1735.3" y="866.4" class="st6" width="26.3" height="26.3"/>
					<rect x="1735.3" y="892.7" class="st6" width="26.3" height="26.3"/>
				</g>
				<g>
					<rect x="1787.1" y="866.4" class="st6" width="26.3" height="26.3"/>
					<rect x="1787.1" y="892.7" class="st6" width="26.3" height="26.3"/>
				</g>
				<g>
					<rect x="1735.3" y="942.7" class="st6" width="26.3" height="26.3"/>
					<rect x="1735.3" y="969" class="st6" width="26.3" height="26.3"/>
				</g>
				<g>
					<rect x="1787.1" y="942.7" class="st6" width="26.3" height="26.3"/>
					<rect x="1787.1" y="969" class="st6" width="26.3" height="26.3"/>
				</g>
				<g>
					<rect x="1617" y="866.4" class="st17" width="26.3" height="26.3"/>
					<rect x="1617" y="892.7" class="st17" width="26.3" height="26.3"/>
				</g>
				<g>
					<g>
						<rect x="1668.9" y="866.4" class="st17" width="26.3" height="26.3"/>
						<rect x="1668.9" y="892.7" class="st17" width="26.3" height="26.3"/>
					</g>
				</g>
				<g>
					<rect x="1617" y="942.7" class="st9" width="26.3" height="26.3"/>
					<rect x="1617" y="969" class="st6" width="26.3" height="26.3"/>
				</g>
				<g>
					<rect x="1668.9" y="942.7" class="st17" width="26.3" height="26.3"/>
					<rect x="1668.9" y="969" class="st17" width="26.3" height="26.3"/>
				</g>
			</g>
			<polyline class="st18" points="1814.1,1196.1 1593.6,833.6 1593.6,1196.1 			"/>
		</g>
		<g class="st2">
			<g>
				
					<rect x="1262.7" y="421.6" transform="matrix(0.7071 -0.7071 0.7071 0.7071 50.429 1028.7277)" class="st13" width="8.6" height="63.7"/>
				<g>
					<rect x="1222" y="459.1" class="st13" width="8.6" height="8.6"/>
					<rect x="1428.3" y="459.1" class="st13" width="8.6" height="8.6"/>
				</g>
			</g>
			<g>
				<line class="st3" x1="1583.6" y1="602.5" x2="1566.5" y2="602.5"/>
				<line class="st3" x1="1583.6" y1="617.6" x2="1566.5" y2="617.6"/>
				<line class="st3" x1="1583.6" y1="632.8" x2="1566.5" y2="632.8"/>
				<line class="st3" x1="1583.6" y1="647.9" x2="1566.5" y2="647.9"/>
				<line class="st3" x1="1583.6" y1="663" x2="1566.5" y2="663"/>
				<line class="st3" x1="1583.6" y1="678.2" x2="1566.5" y2="678.2"/>
				<path class="st3" d="M1583.6,699.3V572.5c0-2.2-1.8-4.1-4.1-4.1l0,0"/>
				<path class="st3" d="M1566.5,699.3V572.5c0-2.2-1.8-4.1-4.1-4.1l0,0"/>
			</g>
			<path class="st19" d="M975.7,649.5L962,697c-3.7,12.9,5.9,25.7,19.4,25.7l0,0c13.4,0,23.1-12.9,19.4-25.7l-13.7-47.5
				C985.3,643.9,977.3,643.9,975.7,649.5z"/>
			<path class="st19" d="M1012.1,649.5L998.4,697c-3.7,12.9,5.9,25.7,19.4,25.7l0,0c13.4,0,23.1-12.9,19.4-25.7l-13.7-47.5
				C1021.8,643.9,1013.8,643.9,1012.1,649.5z"/>
			<rect x="1074.4" y="485.3" class="st12" width="256" height="88.6"/>
			<rect x="1292.7" y="485.3" class="st20" width="37.7" height="88.6"/>
			<rect x="937.3" y="717.3" class="st5" width="88" height="478.8"/>
			<rect x="1025.3" y="573.9" class="st12" width="305.1" height="622.2"/>
			<rect x="1025.3" y="573.9" class="st12" width="305.1" height="622.2"/>
			<rect x="1025.3" y="1002.4" class="st5" width="305.1" height="193.7"/>
			<rect x="1220.7" y="1020.7" class="st21" width="109.7" height="175.4"/>
			<rect x="1025.3" y="573.9" class="st7" width="305.1" height="446.8"/>
			<rect x="1025.3" y="717.3" class="st20" width="305.1" height="25.7"/>
			<rect x="1025.3" y="860.7" class="st20" width="305.1" height="25.7"/>
			<line class="st3" x1="1025.3" y1="1020.7" x2="1025.3" y2="735"/>
			<rect x="1025.3" y="573.9" class="st22" width="305.1" height="25.7"/>
			<rect x="1268.7" y="573.9" class="st20" width="61.7" height="446.8"/>
			<g>
				<line class="st3" x1="937.3" y1="1167" x2="1330.4" y2="1167"/>
				<line class="st3" x1="937.3" y1="1148.7" x2="1330.4" y2="1148.7"/>
				<line class="st3" x1="937.3" y1="1130.4" x2="1330.4" y2="1130.4"/>
				<line class="st3" x1="937.3" y1="1112.1" x2="1330.4" y2="1112.1"/>
				<line class="st3" x1="937.3" y1="1093.9" x2="1330.4" y2="1093.9"/>
				<line class="st3" x1="937.3" y1="1075.6" x2="1330.4" y2="1075.6"/>
				<line class="st3" x1="937.3" y1="1057.3" x2="1330.4" y2="1057.3"/>
				<line class="st3" x1="937.3" y1="1002.4" x2="1025.3" y2="1002.4"/>
				<line class="st3" x1="937.3" y1="984.2" x2="1025.3" y2="984.2"/>
				<line class="st3" x1="937.3" y1="965.9" x2="1025.3" y2="965.9"/>
				<line class="st3" x1="937.3" y1="947.6" x2="1025.3" y2="947.6"/>
				<line class="st3" x1="937.3" y1="929.3" x2="1025.3" y2="929.3"/>
				<line class="st3" x1="937.3" y1="891.6" x2="1025.3" y2="891.6"/>
				<line class="st3" x1="937.3" y1="911" x2="1025.3" y2="911"/>
				<line class="st3" x1="937.3" y1="856.2" x2="1025.3" y2="856.2"/>
				<line class="st3" x1="937.3" y1="837.9" x2="1025.3" y2="837.9"/>
				<line class="st3" x1="937.3" y1="819.6" x2="1025.3" y2="819.6"/>
				<line class="st3" x1="937.3" y1="801.3" x2="1025.3" y2="801.3"/>
				<line class="st3" x1="937.3" y1="783" x2="1025.3" y2="783"/>
				<line class="st3" x1="937.3" y1="764.7" x2="1025.3" y2="764.7"/>
				<line class="st3" x1="937.3" y1="746.5" x2="1025.3" y2="746.5"/>
			</g>
			<rect x="1330.4" y="573.9" class="st8" width="241.7" height="622.2"/>
			<polygon class="st6" points="1440.1,954.4 1385.3,1196.1 1572.1,1196.1 			"/>
			<rect x="1011.6" y="573.9" class="st4" width="318.8" height="17.7"/>
			<rect x="923.3" y="717.3" class="st4" width="407.1" height="17.7"/>
			
				<rect x="1330.4" y="717.3" transform="matrix(-1 -1.224647e-16 1.224647e-16 -1 2917.9814 1452.3445)" class="st13" width="257.1" height="17.7"/>
			<rect x="923.3" y="860.7" class="st4" width="407.1" height="17.7"/>
			<rect x="923.3" y="860.7" class="st4" width="407.1" height="17.7"/>
			<rect x="923.3" y="872.2" class="st13" width="407.1" height="6.3"/>
			<rect x="923.3" y="728.7" class="st13" width="407.1" height="6.3"/>
			<rect x="1011.6" y="585.3" class="st13" width="318.8" height="6.3"/>
			<rect x="923.3" y="1020.7" class="st4" width="407.1" height="17.7"/>
			<rect x="923.3" y="1031.9" class="st13" width="407.1" height="6.6"/>
			
				<rect x="1330.4" y="860.7" transform="matrix(-1 -1.224647e-16 1.224647e-16 -1 2917.9814 1739.179)" class="st13" width="257.1" height="17.7"/>
			
				<rect x="1330.4" y="1020.7" transform="matrix(-1 -1.224647e-16 1.224647e-16 -1 2917.9814 2059.1541)" class="st13" width="257.1" height="17.7"/>
			<rect x="1060.7" y="467.6" class="st4" width="269.7" height="17.7"/>
			
				<rect x="1185" y="398.2" transform="matrix(-1.836970e-16 1 -1 -1.836970e-16 1708.0536 -686.5319)" class="st4" width="24.6" height="225.1"/>
			<rect x="1088.2" y="501.9" class="st8" width="218.3" height="17.7"/>
			<polygon class="st5" points="1218.7,501.9 1201,519.6 1175.9,519.6 1193.6,501.9 			"/>
			<polygon class="st5" points="1294.5,501.9 1276.8,519.6 1259.5,519.6 1277.2,501.9 			"/>
			<polygon class="st5" points="1245.5,501.9 1227.8,519.6 1216.5,519.6 1234.2,501.9 			"/>
			<polygon class="st5" points="1123.8,501.9 1106.1,519.6 1094.8,519.6 1112.5,501.9 			"/>
			<line class="st3" x1="1131.6" y1="501.9" x2="1131.6" y2="519.6"/>
			<line class="st3" x1="1189.3" y1="501.9" x2="1189.3" y2="519.6"/>
			<line class="st3" x1="1247" y1="501.9" x2="1247" y2="519.6"/>
			<polygon class="st23" points="1091,504.2 1306.4,504.2 1306.4,501.9 1088.2,501.9 1088.2,519.6 1091,519.6 			"/>
			
				<rect x="1330.4" y="467.6" transform="matrix(-1 -1.224647e-16 1.224647e-16 -1 2873.9849 952.9553)" class="st13" width="213.1" height="17.7"/>
			<polygon class="st6" points="1535,467.6 1535,479 1330.4,479 1330.4,485.3 1543.6,485.3 1543.6,467.6 			"/>
			
				<rect x="1330.4" y="485.3" transform="matrix(-1 -1.224647e-16 1.224647e-16 -1 2849.4153 1059.2327)" class="st8" width="188.6" height="88.6"/>
			<rect x="1330.4" y="573.9" class="st13" width="257.1" height="17.7"/>
			<polygon class="st6" points="1579,573.9 1579,585.3 1330.4,585.3 1330.4,591.6 1587.6,591.6 1587.6,573.9 			"/>
			<polygon class="st6" points="1579,717.3 1579,728.7 1330.4,728.7 1330.4,735 1587.6,735 1587.6,717.3 			"/>
			<polygon class="st6" points="1579,860.7 1579,872.2 1330.4,872.2 1330.4,878.4 1587.6,878.4 1587.6,860.7 			"/>
			<polygon class="st6" points="1579,1020.7 1579,1032.1 1330.4,1032.1 1330.4,1038.4 1587.6,1038.4 1587.6,1020.7 			"/>
			<line class="st3" x1="1330.4" y1="545.9" x2="1042.5" y2="545.9"/>
			<g>
				<line class="st3" x1="1047.6" y1="545.9" x2="1047.6" y2="573.9"/>
				<line class="st3" x1="1066.5" y1="545.9" x2="1066.5" y2="573.9"/>
				<line class="st3" x1="1085.3" y1="545.9" x2="1085.3" y2="573.9"/>
				<line class="st3" x1="1104.2" y1="545.9" x2="1104.2" y2="573.9"/>
				<line class="st3" x1="1123" y1="545.9" x2="1123" y2="573.9"/>
				<line class="st3" x1="1141.9" y1="545.9" x2="1141.9" y2="573.9"/>
				<line class="st3" x1="1160.7" y1="545.9" x2="1160.7" y2="573.9"/>
				<line class="st3" x1="1179.6" y1="545.9" x2="1179.6" y2="573.9"/>
				<line class="st3" x1="1198.4" y1="545.9" x2="1198.4" y2="573.9"/>
				<line class="st3" x1="1217.3" y1="545.9" x2="1217.3" y2="573.9"/>
				<line class="st3" x1="1236.2" y1="545.9" x2="1236.2" y2="573.9"/>
				<line class="st3" x1="1255" y1="545.9" x2="1255" y2="573.9"/>
				<line class="st3" x1="1273.9" y1="545.9" x2="1273.9" y2="573.9"/>
				<line class="st3" x1="1292.7" y1="545.9" x2="1292.7" y2="573.9"/>
				<line class="st3" x1="1311.6" y1="545.9" x2="1311.6" y2="573.9"/>
				<line class="st3" x1="1330.4" y1="545.9" x2="1330.4" y2="573.9"/>
			</g>
			<g>
				<line class="st3" x1="1025.3" y1="689.3" x2="951.3" y2="689.3"/>
				<g>
					<line class="st3" x1="956.5" y1="689.3" x2="956.5" y2="717.3"/>
					<line class="st3" x1="975.3" y1="689.3" x2="975.3" y2="717.3"/>
					<line class="st3" x1="994.2" y1="689.3" x2="994.2" y2="717.3"/>
					<line class="st3" x1="1013" y1="689.3" x2="1013" y2="717.3"/>
				</g>
			</g>
			<g>
				<line class="st3" x1="1556.7" y1="545.9" x2="1556.7" y2="573.9"/>
				<line class="st3" x1="1537.8" y1="545.9" x2="1537.8" y2="573.9"/>
				<line class="st3" x1="1519" y1="545.9" x2="1519" y2="573.9"/>
				<line class="st3" x1="1500.1" y1="545.9" x2="1500.1" y2="573.9"/>
				<line class="st3" x1="1481.3" y1="545.9" x2="1481.3" y2="573.9"/>
				<line class="st3" x1="1462.4" y1="545.9" x2="1462.4" y2="573.9"/>
				<line class="st3" x1="1443.6" y1="545.9" x2="1443.6" y2="573.9"/>
				<line class="st3" x1="1424.7" y1="545.9" x2="1424.7" y2="573.9"/>
				<line class="st3" x1="1405.9" y1="545.9" x2="1405.9" y2="573.9"/>
				<line class="st3" x1="1387" y1="545.9" x2="1387" y2="573.9"/>
				<line class="st3" x1="1368.1" y1="545.9" x2="1368.1" y2="573.9"/>
				<line class="st3" x1="1349.3" y1="545.9" x2="1349.3" y2="573.9"/>
				<line class="st3" x1="1330.4" y1="545.9" x2="1330.4" y2="573.9"/>
			</g>
			<polyline class="st3" points="1330.4,573.9 1330.4,545.9 1562.4,545.9 			"/>
			<g>
				<rect x="1042.5" y="619" class="st5" width="72" height="76.6"/>
				<rect x="1051" y="627.6" class="st17" width="54.9" height="59.4"/>
				<rect x="1051" y="627.6" class="st24" width="54.9" height="18.9"/>
				<path class="st4" d="M1102.4,631v52.6h-48V631H1102.4 M1105.9,627.6H1051V687h54.9V627.6L1105.9,627.6z"/>
				<line class="st25" x1="1078.4" y1="627.6" x2="1078.4" y2="687"/>
				<line class="st25" x1="1105.9" y1="656.7" x2="1051" y2="656.7"/>
			</g>
			<g>
				<rect x="1137.9" y="619" class="st5" width="72" height="76.6"/>
				<rect x="1146.4" y="627.6" class="st17" width="54.9" height="59.4"/>
				<rect x="1146.4" y="627.6" class="st24" width="54.9" height="18.9"/>
				<path class="st4" d="M1197.9,631v52.6h-48V631H1197.9 M1201.3,627.6h-54.9V687h54.9V627.6L1201.3,627.6z"/>
				<line class="st25" x1="1173.9" y1="627.6" x2="1173.9" y2="687"/>
				<line class="st25" x1="1201.3" y1="656.7" x2="1146.4" y2="656.7"/>
			</g>
			<g>
				<rect x="1232.7" y="619" class="st5" width="72" height="76.6"/>
				<rect x="1241.3" y="627.6" class="st17" width="54.9" height="59.4"/>
				<rect x="1241.3" y="627.6" class="st24" width="54.9" height="18.9"/>
				<path class="st4" d="M1292.7,631v52.6h-48V631H1292.7 M1296.1,627.6h-54.9V687h54.9V627.6L1296.1,627.6z"/>
				<line class="st25" x1="1268.7" y1="627.6" x2="1268.7" y2="687"/>
				<line class="st25" x1="1296.1" y1="656.7" x2="1241.3" y2="656.7"/>
			</g>
			<g>
				<rect x="1042.5" y="768.7" class="st5" width="72" height="76.6"/>
				<rect x="1051" y="777.3" class="st17" width="54.9" height="59.4"/>
				<rect x="1051" y="777.3" class="st24" width="54.9" height="18.9"/>
				<path class="st4" d="M1102.4,780.7v52.6h-48v-52.6H1102.4 M1105.9,777.3H1051v59.4h54.9V777.3L1105.9,777.3z"/>
				<line class="st25" x1="1078.4" y1="777.3" x2="1078.4" y2="836.7"/>
				<line class="st25" x1="1105.9" y1="806.5" x2="1051" y2="806.5"/>
			</g>
			<g>
				<rect x="1137.9" y="768.7" class="st5" width="72" height="76.6"/>
				<rect x="1146.4" y="777.3" class="st17" width="54.9" height="59.4"/>
				<rect x="1146.4" y="777.3" class="st24" width="54.9" height="18.9"/>
				<path class="st4" d="M1197.9,780.7v52.6h-48v-52.6H1197.9 M1201.3,777.3h-54.9v59.4h54.9V777.3L1201.3,777.3z"/>
				<line class="st25" x1="1173.9" y1="777.3" x2="1173.9" y2="836.7"/>
				<line class="st25" x1="1201.3" y1="806.5" x2="1146.4" y2="806.5"/>
			</g>
			<g>
				<rect x="1232.7" y="768.7" class="st5" width="72" height="76.6"/>
				<rect x="1241.3" y="777.3" class="st17" width="54.9" height="59.4"/>
				<rect x="1241.3" y="777.3" class="st24" width="54.9" height="18.9"/>
				<path class="st4" d="M1292.7,780.7v52.6h-48v-52.6H1292.7 M1296.1,777.3h-54.9v59.4h54.9V777.3L1296.1,777.3z"/>
				<line class="st25" x1="1268.7" y1="777.3" x2="1268.7" y2="836.7"/>
				<line class="st25" x1="1296.1" y1="806.5" x2="1241.3" y2="806.5"/>
			</g>
			<g>
				<rect x="1042.5" y="918.4" class="st5" width="72" height="76.6"/>
				<rect x="1051" y="927" class="st17" width="54.9" height="59.4"/>
				<rect x="1051" y="927" class="st24" width="54.9" height="18.9"/>
				<path class="st4" d="M1102.4,930.4V983h-48v-52.6H1102.4 M1105.9,927H1051v59.4h54.9V927L1105.9,927z"/>
				<line class="st3" x1="1078.4" y1="927" x2="1078.4" y2="986.4"/>
				<line class="st25" x1="1105.9" y1="956.2" x2="1051" y2="956.2"/>
			</g>
			<g>
				<rect x="1137.9" y="918.4" class="st5" width="72" height="76.6"/>
				<rect x="1146.4" y="927" class="st17" width="54.9" height="59.4"/>
				<rect x="1146.4" y="927" class="st24" width="54.9" height="18.9"/>
				<path class="st4" d="M1197.9,930.4V983h-48v-52.6H1197.9 M1201.3,927h-54.9v59.4h54.9V927L1201.3,927z"/>
				<line class="st25" x1="1173.9" y1="927" x2="1173.9" y2="986.4"/>
				<line class="st25" x1="1201.3" y1="956.2" x2="1146.4" y2="956.2"/>
			</g>
			<g>
				<rect x="1232.7" y="918.4" class="st5" width="72" height="76.6"/>
				<rect x="1241.3" y="927" class="st17" width="54.9" height="59.4"/>
				<rect x="1241.3" y="927" class="st24" width="54.9" height="18.9"/>
				<path class="st4" d="M1292.7,930.4V983h-48v-52.6H1292.7 M1296.1,927h-54.9v59.4h54.9V927L1296.1,927z"/>
				<line class="st25" x1="1268.7" y1="927" x2="1268.7" y2="986.4"/>
				<line class="st25" x1="1296.1" y1="956.2" x2="1241.3" y2="956.2"/>
			</g>
			<g>
				<g>
					<rect x="1348.9" y="768.7" class="st13" width="55.7" height="64"/>
					
						<rect x="1349" y="785.7" transform="matrix(-1.836970e-16 1 -1 -1.836970e-16 2181.7349 -571.6881)" class="st6" width="55.4" height="38.6"/>
					<rect x="1357.4" y="777.3" class="st6" width="38.6" height="55.4"/>
					<polygon class="st8" points="1396,777.3 1396,798.3 1361.5,832.7 1357.4,832.7 1357.4,815.8 1395.9,777.3 					"/>
					<polygon class="st8" points="1396,808.7 1396,816.8 1380,832.7 1372,832.7 					"/>
				</g>
				<rect x="1348.9" y="832.7" class="st4" width="59.1" height="8.6"/>
			</g>
			<g>
				<g>
					<rect x="1348.9" y="918.4" class="st13" width="55.7" height="64"/>
					
						<rect x="1349" y="935.4" transform="matrix(-1.836970e-16 1 -1 -1.836970e-16 2331.4373 -421.9857)" class="st6" width="55.4" height="38.6"/>
					<polygon class="st8" points="1386.2,927 1357.4,955.8 1357.4,946.4 1376.8,927 					"/>
					<polygon class="st8" points="1396,930.1 1396,948.6 1362.2,982.4 1357.4,982.4 1357.4,968.7 					"/>
				</g>
				<rect x="1348.9" y="982.4" class="st4" width="59.1" height="8.6"/>
			</g>
			<g>
				<g>
					<rect x="1348.9" y="1055.4" class="st13" width="55.7" height="64"/>
					
						<rect x="1349" y="1072.4" transform="matrix(-1.836970e-16 1 -1 -1.836970e-16 2468.426 -284.9969)" class="st6" width="55.4" height="38.6"/>
					<polygon class="st8" points="1396,1064 1393.7,1064 1357.4,1100.3 1357.4,1119.4 1359.7,1119.4 1396,1083.1 					"/>
				</g>
				<rect x="1348.9" y="1119.4" class="st4" width="59.1" height="8.6"/>
			</g>
			<g>
				<g>
					<rect x="1424.7" y="768.7" class="st13" width="55.7" height="64"/>
					
						<rect x="1424.9" y="785.7" transform="matrix(-1.836970e-16 1 -1 -1.836970e-16 2257.5859 -647.5392)" class="st6" width="55.4" height="38.6"/>
					<polygon class="st8" points="1471.8,805.7 1471.8,817.4 1456.5,832.7 1444.8,832.7 					"/>
					<polygon class="st8" points="1458.2,777.3 1433.3,802.2 1433.3,790.6 1446.5,777.3 					"/>
				</g>
				<rect x="1424.7" y="832.7" class="st4" width="59.1" height="8.6"/>
			</g>
			<g>
				<g>
					<rect x="1499.8" y="768.7" class="st13" width="55.7" height="64"/>
					
						<rect x="1500" y="785.7" transform="matrix(-1.836970e-16 1 -1 -1.836970e-16 2332.7229 -722.6761)" class="st6" width="55.4" height="38.6"/>
					<polygon class="st8" points="1547,800.4 1547,777.3 1540.7,777.3 1508.4,809.6 1508.4,832.7 1514.7,832.7 					"/>
				</g>
				<rect x="1499.8" y="832.7" class="st4" width="59.1" height="8.6"/>
			</g>
			<g>
				<g>
					<rect x="1348.9" y="619" class="st13" width="55.7" height="64"/>
					
						<rect x="1349" y="636" transform="matrix(-1.836970e-16 1 -1 -1.836970e-16 2032.0322 -721.3906)" class="st6" width="55.4" height="38.6"/>
					<polygon class="st8" points="1382,627.6 1357.4,652.2 1357.4,642.8 1372.6,627.6 					"/>
					<polygon class="st8" points="1392.6,627.6 1357.4,662.7 1357.4,658.2 1388,627.6 					"/>
					<polygon class="st8" points="1396,657.5 1396,668.5 1381.5,683 1370.5,683 					"/>
				</g>
				<rect x="1348.9" y="683" class="st4" width="59.1" height="8.6"/>
			</g>
			
				<rect x="1353.9" y="498" transform="matrix(-1.836970e-16 1 -1 -1.836970e-16 1888.9005 -854.2375)" class="st6" width="35.4" height="38.6"/>
			
				<rect x="1465.3" y="498" transform="matrix(-1.836970e-16 1 -1 -1.836970e-16 2000.3203 -965.6572)" class="st6" width="35.4" height="38.6"/>
			
				<rect x="1409.6" y="498" transform="matrix(-1.836970e-16 1 -1 -1.836970e-16 1944.6105 -909.9473)" class="st6" width="35.4" height="38.6"/>
			<g>
				<g>
					<rect x="1424.7" y="619" class="st13" width="55.7" height="64"/>
					
						<rect x="1424.9" y="636" transform="matrix(-1.836970e-16 1 -1 -1.836970e-16 2107.8833 -797.2418)" class="st6" width="55.4" height="38.6"/>
					<polygon class="st8" points="1471.8,627.6 1471.8,631.2 1433.3,669.7 1433.3,659.5 1465.1,627.6 					"/>
					<polygon class="st8" points="1471.8,639.6 1471.8,660.3 1449.1,683 1433.3,683 1433.3,678.2 					"/>
				</g>
				<rect x="1424.7" y="683" class="st4" width="59.1" height="8.6"/>
			</g>
			<g>
				<g>
					<rect x="1499.8" y="619" class="st13" width="55.7" height="64"/>
					
						<rect x="1500" y="636" transform="matrix(-1.836970e-16 1 -1 -1.836970e-16 2183.0203 -872.3787)" class="st6" width="55.4" height="38.6"/>
					<polygon class="st8" points="1547,652.5 1547,660.8 1524.7,683 1516.4,683 					"/>
					<polygon class="st8" points="1547,631 1547,647.3 1511.3,683 1508.4,683 1508.4,669.6 					"/>
				</g>
				<rect x="1499.8" y="683" class="st4" width="59.1" height="8.6"/>
			</g>
			<rect x="1144.2" y="399.1" class="st26" width="370.6" height="60"/>
			<rect x="1514.7" y="399.1" class="st27" width="13" height="60"/>
			<g>
				<g>
					
						<rect x="953.3" y="768.7" transform="matrix(-1 -1.224647e-16 1.224647e-16 -1 1962.3424 1601.4756)" class="st22" width="55.7" height="64"/>
					
						<rect x="953.5" y="785.7" transform="matrix(-1.836970e-16 1 -1 -1.836970e-16 1786.1946 -176.1479)" class="st4" width="55.4" height="38.6"/>
					
						<rect x="956.9" y="789.2" transform="matrix(-1.836970e-16 1 -1 -1.836970e-16 1786.1947 -176.1477)" class="st17" width="48.6" height="31.7"/>
					<polygon class="st24" points="997,800.7 997,821.4 989.1,829.3 968.4,829.3 					"/>
					<polygon class="st24" points="997,780.7 997,789 965.3,820.7 965.3,811.4 996,780.7 					"/>
					<line class="st25" x1="965.3" y1="796.6" x2="997" y2="796.6"/>
				</g>
				
					<rect x="949.9" y="832.7" transform="matrix(-1 -1.224647e-16 1.224647e-16 -1 1958.9142 1674.0415)" class="st12" width="59.1" height="8.6"/>
			</g>
			<g>
				<g>
					
						<rect x="953.3" y="918.2" transform="matrix(-1 -1.224647e-16 1.224647e-16 -1 1962.3424 1900.3087)" class="st22" width="55.7" height="64"/>
					
						<rect x="953.5" y="935.2" transform="matrix(-1.836970e-16 1 -1 -1.836970e-16 1935.6111 -26.7313)" class="st4" width="55.4" height="38.6"/>
					
						<rect x="956.9" y="938.6" transform="matrix(-1.836970e-16 1 -1 -1.836970e-16 1935.6112 -26.7312)" class="st17" width="48.6" height="31.7"/>
					<polygon class="st24" points="997,940.2 997,948.4 965.3,980.2 965.3,970.9 996,940.2 					"/>
					<polygon class="st24" points="980.3,930.2 965.3,945.1 965.3,954.4 989.6,930.2 					"/>
					<line class="st25" x1="965.3" y1="946" x2="997" y2="946"/>
				</g>
				
					<rect x="949.9" y="982.2" transform="matrix(-1 -1.224647e-16 1.224647e-16 -1 1958.9142 1972.8748)" class="st12" width="59.1" height="8.6"/>
			</g>
			<rect x="1060.7" y="479" class="st13" width="269.7" height="6.3"/>
			<line class="st3" x1="1141.1" y1="459.1" x2="1400.4" y2="459.1"/>
		</g>
	</g>
	<g>
		<g>
			<path class="st28" d="M1330.1,445.9c-57.3,0-114.6,0-171.9,0c-0.3,0-0.4-0.1-0.4-0.4c0-10.7,0-21.3,0-32c0-0.3,0.1-0.4,0.4-0.4
				c114.6,0,229.2,0,343.8,0c0.3,0,0.4,0.1,0.4,0.4c0,10.7,0,21.3,0,32c0,0.3-0.1,0.4-0.4,0.4
				C1444.7,445.9,1387.4,445.9,1330.1,445.9z M1162.5,422.9c0.9-0.1,1.7-0.1,2.6,0.2c0.4,0.1,0.7,0.4,1.2,0.3c0.2,0,0.2,0.1,0.2,0.2
				c0.1,0.5,0.2,0.9,0.3,1.4c0.1,0.6,0.3,1.2,0.4,1.9c0.3-1.1,0.6-2.1,0.9-3.2c0.1-0.3,0.2-0.4,0.5-0.4c0.3,0,0.4,0.1,0.5,0.4
				c0.3,1,0.6,2,0.9,3c0.1-0.1,0.1-0.2,0.1-0.2c0.2-0.9,0.4-1.7,0.5-2.6c0.1-0.6,0.1-0.6,0.7-0.6c0.3,0,0.4,0.1,0.3,0.4
				c-0.3,1.2-0.6,2.5-0.9,3.7c-0.2,0.8-0.2,0.8,0.6,0.8c0.5,0,1,0,1.6,0c-1.4-1-1.3-3.1-0.6-4.1c0.5-0.7,1.2-1.1,2.1-1
				c0.9,0.1,1.4,0.6,1.6,1.5c0.1,0.3,0.1,0.7,0.1,1c0,0.3-0.1,0.4-0.4,0.4c-0.8,0-1.7,0-2.5,0c-0.3,0-0.4,0.1-0.3,0.4
				c0.1,0.7,0.6,1.2,1.3,1.2c0.6,0,1.1-0.1,1.6-0.5c0.1-0.1,0.3-0.2,0.3,0c0,0.3,0.1,0.7-0.1,1c0.5,0,1,0,1.5,0
				c-1.4-1-1.2-3.2-0.5-4.1c0.8-1,2.3-1.2,3.2-0.3c0.5,0.5,0.6,1.2,0.6,1.9c0,0.3-0.1,0.4-0.4,0.4c-0.8,0-1.7,0-2.5,0
				c-0.3,0-0.4,0.1-0.3,0.4c0.1,0.7,0.6,1.2,1.3,1.2c0.6,0,1.1-0.2,1.6-0.5c0.1-0.1,0.3-0.2,0.3,0.1c0,0.3,0.1,0.7-0.1,1
				c0.4,0,0.8,0,1.3,0c-0.4-0.5-0.5-1-0.5-1.5c0-0.7,0-1.4,0-2.1c0-0.2,0-0.3-0.3-0.3c-0.4,0-0.2-0.3-0.2-0.5c0-0.2,0-0.4,0.3-0.3
				c0.2,0,0.3-0.1,0.3-0.3c0-0.3,0-0.6,0-0.9c0-0.1,0-0.3,0.1-0.3c0.3,0,0.5-0.1,0.8,0c0.2,0.1,0.1,0.3,0.1,0.5c0,0.2,0,0.4,0,0.6
				c0,0.2,0.1,0.3,0.3,0.3c0.3,0,0.6,0,0.9,0c0.3,0,0.3,0.2,0.3,0.4c0,0.2,0.2,0.5-0.3,0.5c-0.3,0-0.6,0-0.9,0
				c-0.2,0-0.3,0.1-0.3,0.3c0,0.8,0,1.7,0,2.5c0,0.5,0.3,0.8,0.8,0.7c0.4-0.1,0.8-0.2,0.7,0.5c0,0,0,0.1,0,0.1c0,0,0.1,0,0.1,0
				c0.1,0,0-0.1,0-0.1c-0.1-0.2,0-0.5,0-0.7c0-0.1-0.1-0.2,0.1-0.3c0.1-0.1,0.2,0.1,0.3,0.1c0.4,0.3,0.9,0.5,1.4,0.5
				c0.5,0,0.8-0.2,0.8-0.6c0-0.4-0.1-0.5-0.7-0.7c-0.3-0.1-0.7-0.1-1-0.3c-1-0.4-1.3-1.6-0.5-2.4c0.3-0.4,0.8-0.5,1.3-0.5
				c0.3,0,0.3-0.1,0.2-0.3c-2.8-4.8-8-7.5-13.8-6.7c-3.3,0.5-6,2-8.1,4.5C1163.4,421.4,1162.9,422,1162.5,422.9
				C1162.5,422.9,1162.5,422.9,1162.5,422.9C1162.5,422.9,1162.5,422.9,1162.5,422.9z M1494.7,427.7c-0.5-0.2-0.5-0.2-0.7,0.2
				c-0.5,0.9-1,1.7-1.5,2.6c-0.1,0.2-0.2,0.2-0.4,0c-0.5-0.7-1-1.3-1.6-2c-0.2-0.2-0.3-0.6-0.6-0.7c-0.3-0.1-0.5,0.3-0.7,0.5
				c0,0,0,0-0.1,0c0,0,0-0.1-0.1-0.1c0-0.1,0-0.1,0.1-0.2c0.6-1.2,1.2-2.5,1.7-3.7c0.1-0.2,0.1-0.3-0.2-0.4
				c-0.8-0.4-1.6-0.7-2.4-1.1c-0.2-0.1-0.3-0.1-0.4,0.2c-0.5,1.2-1,2.3-1.5,3.4c-0.5,0.9-0.9,1.8-1.4,2.7c0,0-0.1,0-0.1,0
				c0-0.1,0-0.2,0-0.3c0-1.7,0-3.5,0-5.2c0-0.4,0.1-0.4,0.5-0.4c0.7,0.1,0.7,0.1,0.7-0.6c0-0.8,0-0.8-0.8-0.9
				c-0.2,0-0.3-0.1-0.3-0.3c0-0.8,0-1.7,0-2.5c0-0.3,0-0.4-0.4-0.4c-0.9,0-1.8,0-2.7,0c-0.3,0-0.4,0.1-0.4,0.4c0,0.8,0,1.5,0,2.3
				c0,0.3-0.1,0.4-0.4,0.4c-1,0-2.1,0-3.1,0.2c-0.3,0-0.8-0.1-1,0.2c-0.2,0.2,0,0.7-0.1,1c0,0.4,0.1,0.5,0.4,0.4
				c0.2-0.1,0.3,0,0.3,0.2c-0.1,2.4-0.3,4.8-0.4,7.1c-0.2,2.9-0.4,5.8-0.7,8.7c0,0.2,0,0.3,0.2,0.3c0.9,0.1,1.8,0.2,2.7,0.3
				c0.3,0,0.4,0,0.4-0.3c0.2-2.3,0.3-4.6,0.5-6.9c0.1-0.7,0.1-1.5,0.2-2.3c0.2,0.2,0.2,0.3,0.3,0.4c0.4,0.3,0.5,0.7,0.5,1.2
				c0,2.8,0,5.5,0,8.3c0,0.3,0.1,0.4,0.4,0.4c0.9,0,1.8,0,2.8,0c0.3,0,0.4-0.1,0.4-0.4c0-1.8,0-3.6,0-5.4c0-0.1,0-0.3,0-0.5
				c0.1,0.1,0.2,0.2,0.3,0.2c0.2,0.3,0.4,0.2,0.6,0c0.6-0.7,1.2-1.4,1.8-2.1c0.2-0.2,0.1-0.3,0-0.4c-0.8-0.6-1.6-1.3-2.4-2
				c-0.1-0.1-0.3-0.2-0.2-0.5c0.7,0.4,1.5,0.7,2.2,1.1c0.5,0.2,0.5,0.2,0.8-0.1c0.7,0.9,1.4,1.9,2.1,2.8c0.2,0.2,0.2,0.4,0,0.6
				c-1.2,1.4-2.4,2.7-3.8,4c-0.2,0.2-0.2,0.2,0,0.4c0.6,0.7,1.2,1.3,1.8,2c0.1,0.1,0.2,0.2,0.4,0c0.1-0.1,0.2-0.1,0.2-0.2
				c1.3-1.2,2.5-2.5,3.7-3.9c0.1,0.1,0.2,0.2,0.3,0.3c1.1,1.3,2.1,2.5,3.3,3.7c0.2,0.2,0.3,0.2,0.5,0c0.8-0.7,1.5-1.3,2.3-1.9
				c0.3-0.2,0.3-0.3,0-0.6c-1.4-1.4-2.7-2.8-3.9-4.2c-0.2-0.2-0.2-0.4,0-0.6c0.4-0.6,0.8-1.3,1.2-1.9c0.1-0.1,0.1-0.2,0.2-0.2
				c0.2,0.5,0.2,0.5,0.7,0.2c0.8-0.4,1.6-0.9,2.4-1.3c0.2-0.1,0.2-0.2,0.1-0.4c-1-2.1-1.9-4.2-2.7-6.3c-0.1-0.3-0.2-0.2-0.4-0.1
				c-0.8,0.4-1.6,0.7-2.5,1.1c-0.3,0.1-0.3,0.3-0.2,0.5C1494,425.6,1494.4,426.7,1494.7,427.7
				C1494.7,427.7,1494.7,427.7,1494.7,427.7z M1209.1,433.7c0.1,0,0.1,0,0.2,0c1.3,0.1,2.5,0.1,3.8,0.2c0.2,0,0.3,0,0.3-0.3
				c0-0.3,0-0.6,0-0.9c0-0.1,0-0.2-0.2-0.2c-0.3,0.1-0.3-0.1-0.2-0.3c0.2-1.7,0.3-3.4,0.2-5.1c-0.1-1.8-0.9-2.8-2.4-3.3
				c-0.4-0.1-0.9-0.2-1.4-0.3c-1.5-0.1-2.9-0.1-4.4,0c-0.3,0-0.4-0.1-0.3-0.3c0-0.4,0-0.8,0-1.2c0-0.3,0.1-0.3,0.3-0.3
				c2.3,0,4.7,0.1,7,0.2c1.2,0.1,1.2,0.1,1.1-1.1c0,0,0,0,0,0c0-0.2-0.1-0.2-0.2-0.2c-0.4,0-0.7,0-1.1,0c-2.3-0.1-4.6-0.2-6.9-0.2
				c-0.3,0-0.3-0.1-0.3-0.3c0-0.4,0-0.8,0-1.1c0-0.3-0.1-0.3-0.3-0.3c-1.1,0-2.2,0-3.3,0c-0.3,0-0.4,0.1-0.4,0.4c0,0.3,0,0.7,0,1
				c0,0.3,0,0.4-0.4,0.4c-2.3,0-4.7,0.1-7,0.2c-0.3,0-0.8-0.1-1,0.1c-0.2,0.2,0,0.7-0.1,1c0,0.2,0,0.3,0.3,0.3
				c0.7-0.1,1.5-0.1,2.2-0.1c1.9-0.1,3.8-0.1,5.6-0.1c0.2,0,0.3,0,0.3,0.2c0,0.6,0,1.2,0,1.7c0,0.2-0.1,0.2-0.2,0.2
				c-1.3,0.2-2.5,0.3-3.8,0.5c-0.5,0.1-0.5,0.1-0.4-0.4c0-0.2,0.1-0.3-0.2-0.3c-1.1,0-2.2,0-3.4,0c-0.2,0-0.3,0-0.3,0.2
				c0,0.5-0.1,1-0.2,1.5c-0.3,3.2-0.3,6.3,0.1,9.5c0,0.3,0.1,0.4,0.4,0.4c0.8,0,1.6,0,2.5,0c-1,1.2-2,2.3-3.1,3.5
				c1.2,0.7,2.3,1.5,3.5,2.2c0.2,0.2,0.3-0.1,0.4-0.2c1.3-1.7,2.5-3.4,3.7-5.1c0.3-0.5,0.6-1,1-1.6c0,2.2,0,4.4,0,6.5
				c0,0.3,0.1,0.4,0.4,0.4c1.1,0,2.1,0,3.2,0c0.3,0,0.4-0.1,0.4-0.4c0-2,0-4.1,0-6.1c0-0.1,0-0.3,0-0.4c0.1,0.1,0.2,0.2,0.3,0.3
				c1.2,2.2,2.5,4.3,4,6.3c0.1,0.2,0.3,0.3,0.5,0.1c1.1-0.6,2.3-1.2,3.4-1.7c0.2-0.1,0.3-0.2,0.1-0.4c-0.5-0.6-1.1-1.2-1.6-1.8
				C1210.6,435.7,1209.9,434.8,1209.1,433.7z M1411.3,433.9c-2.2,0-4.4,0.1-6.6,0.2c-0.3,0-0.8-0.1-1,0.1c-0.2,0.2,0,0.7-0.1,1.1
				c0,0.3,0.1,0.3,0.4,0.3c0.5,0,1.1-0.1,1.6-0.1c2.6-0.1,5.3-0.2,8-0.2c1.6,0,3.2,0,4.8,0c0.3,0,0.5,0.1,0.5,0.5
				c0,0.8,0,1.6-0.1,2.3c-0.1,0.7-0.3,0.9-0.9,0.9c-1.2,0.1-2.5,0-3.7-0.1c-0.4,0-0.9-0.2-1.1,0c-0.2,0.2,0,0.7-0.1,1.1
				c0,0.3,0.1,0.3,0.3,0.3c0.6,0,1.1,0.1,1.7,0.1c1.9,0.1,3.8,0.2,5.8-0.1c1.2-0.2,1.8-0.4,2-1.9c0.1-0.9,0.1-1.8,0.1-2.7
				c0-0.3,0.1-0.4,0.4-0.3c0.5,0,0.9,0,1.4,0.1c0.2,0,0.2,0,0.2-0.2c0-0.3,0-0.6,0-0.9c0-0.3-0.1-0.3-0.3-0.3
				c-0.5,0-0.9-0.1-1.4-0.1c-0.2,0-0.4,0-0.4-0.3c0-0.6-0.1-1.1-0.1-1.7c0-0.3,0.1-0.4,0.4-0.4c0.3,0,0.8,0.3,1,0
				c0.2-0.3,0-0.7,0-1.1c0-0.1,0-0.2-0.1-0.2c-0.4,0-0.3-0.2-0.3-0.4c0-1.6,0-3.2,0-4.8c0-1-0.5-1.7-1.4-2.1
				c-0.5-0.2-0.9-0.3-1.4-0.3c-1.4-0.1-2.8,0-4.1,0c-0.6,0-0.6,0-0.6-0.5c0-0.2,0-0.4,0-0.6c-0.1-0.4,0.1-0.5,0.5-0.5
				c2.4,0.1,4.8,0.1,7.3,0.2c0.3,0,0.7,0.1,0.9,0c0.2-0.2,0-0.6,0.1-0.9c0.1-0.4-0.1-0.5-0.5-0.5c-2.5-0.1-4.9-0.2-7.4-0.2
				c-0.8,0-0.8,0-0.8-0.8c0-0.1,0-0.2,0-0.2c0-0.3-0.1-0.4-0.4-0.4c-0.8,0-1.6,0-2.4,0c-0.3,0-0.8-0.1-1,0.1c-0.2,0.2,0,0.6-0.1,1
				c0,0,0,0,0,0c0.1,0.3-0.1,0.4-0.4,0.4c-2.4,0-4.7,0.1-7.1,0.2c-1.2,0.1-1.2,0-1.1,1.2c0,0.2,0,0.3,0.3,0.3
				c0.8-0.1,1.7-0.1,2.6-0.1c1.8-0.1,3.5-0.1,5.3-0.2c0.3,0,0.4,0.1,0.4,0.4c0,0.4,0,0.9,0,1.3c0,0.2,0,0.3-0.2,0.3
				c-1.3,0.1-2.5,0.3-3.8,0.4c-0.3,0-0.4-0.1-0.3-0.3c0.1-0.2,0-0.3-0.3-0.3c-1,0-2,0-3,0c-0.2,0-0.3,0.1-0.3,0.3
				c-0.4,3.1-0.4,6.2,0,9.3c0,0.3,0.1,0.3,0.4,0.3c0.9,0,1.9,0,2.8,0c0.4,0,0.5-0.1,0.4-0.5c0,0,0-0.1,0-0.1c-0.1-0.3,0-0.4,0.3-0.4
				c1.1,0,2.3-0.1,3.4-0.1c2.2,0,4.4,0,6.7,0c0.1,0,0.3-0.1,0.3,0.2c0,0.6,0.1,1.3,0.1,1.9c0,0.2,0,0.3-0.3,0.3
				C1416.2,433.9,1413.7,433.8,1411.3,433.9z M1181.9,436.5c-0.3-0.1-0.6-0.3-0.8-0.5c-1-1-1.1-3.1-0.1-4.1c0.6-0.7,1.4-0.8,2.2-0.6
				c0.8,0.2,1.1,0.8,1.3,1.6c0,0.3,0,0.5,0.1,0.8c0,0.3-0.1,0.4-0.4,0.4c-0.9,0-1.7,0-2.6,0c-0.3,0-0.4,0.1-0.3,0.4
				c0.1,0.6,0.4,1,0.9,1.2c0.6,0.2,1.2,0.1,1.6-0.5c0.4-0.5,0.9-0.5,1.3-0.2c0.4,0.3,0.4,0.8,0,1.3c-0.6,0.8-1.4,1.3-2.3,1.7
				c-3.2,1.4-6.5,1.7-9.9,0.8c-2.5-0.6-4.5-1.9-5.8-4.1c-0.2-0.4-0.4-0.7-0.6-1.1c-0.9,1.9-2.5,2.2-4.5,1.9c1.9,3.7,4.8,6.2,8.7,7.1
				c5.4,1.3,10-0.1,13.6-4.3c2.6-3,3.6-6.6,3.1-10.6c-0.3,0.3-0.5,0.5-0.7,0.7c-0.1,0.1-0.1,0.1,0,0.2c0.5,0.8,0.1,1.4-0.8,1.4
				c-1.7,0-3.4,0-5.1,0c-0.2,0-0.4,0-0.4,0.3c0,0.2-0.1,0.2-0.2,0.2c-0.3-0.1-0.6-0.1-0.9,0c-0.3,0.1-0.6,0.4-0.5,0.9
				c0,0.4,0.3,0.1,0.5,0.2c0.1,0,0.2,0,0.4,0c0.3,0,0.4,0.1,0.4,0.4c0,0.3-0.1,0.5-0.4,0.4c-0.1,0-0.2,0-0.4,0
				c-0.4-0.1-0.5,0.1-0.5,0.5c0,1.1,0,2.2,0,3.2c0,0.6,0,0.6-0.5,0.6c-0.5,0-0.5,0-0.5-0.5c0-1.1,0-2.2,0-3.4c0-0.2,0-0.4-0.2-0.4
				c-0.4,0-0.3-0.2-0.3-0.4c0-0.2-0.1-0.5,0.3-0.4c0.1,0,0.2,0,0.2-0.2c0-0.4,0.1-0.8,0.4-1.2c-0.2,0-0.4,0-0.5,0
				c-3.2,0-6.4,0-9.6,0c-0.7,0-0.7,0-0.6,0.7c0.3,3.2,2.3,5.5,5.3,6.4c1.9,0.5,3.8,0.7,5.7,0.4
				C1179.7,437.2,1180.8,437,1181.9,436.5z M1349.3,421.6c0.2-0.6,0.3-1.1,0.5-1.6c0.1-0.3,0-0.3-0.2-0.4c-0.8-0.3-1.6-0.7-2.3-1
				c-0.2-0.1-0.3-0.1-0.4,0.2c-0.3,1-0.7,2-1,3.1c-0.1,0.2-0.2,0.4-0.5,0.4c-2.2,0.5-4.4,1.2-6.5,2.3c-1,0.6-1,0.6-0.6,1.7
				c0.1,0.3,0.2,0.3,0.4,0.1c1.2-0.6,2.4-1.2,3.7-1.6c0.8-0.3,1.7-0.6,2.5-0.8c0,0.1,0,0.2-0.1,0.3c-2,4.8-4.4,9.3-7.3,13.6
				c-0.1,0.2-0.2,0.3,0.1,0.5c0.7,0.4,1.3,0.9,2,1.3c0.5,0.3,0.5,0.3,0.9-0.2c3.3-4.8,5.9-10,8-15.5c0.3-0.8,0.3-0.8,1.2-0.8
				c1.7,0,2.8,1.1,2.8,2.8c0,1.4-0.2,2.7-0.5,4c-0.7,3-1.9,5.8-3.3,8.6c-0.1,0.3-0.1,0.4,0.2,0.5c0.9,0.4,1.8,0.8,2.7,1.3
				c0.3,0.2,0.4,0.1,0.6-0.2c1.1-2.4,2-4.8,2.7-7.3c0.5-1.9,1-3.9,0.9-5.9c-0.1-2.6-1.5-4.4-4-5.1
				C1350.9,421.6,1350.1,421.6,1349.3,421.6z M1441.5,438.7c0,0.4,0,0.8,0,1.2c0,0.2,0.1,0.3,0.3,0.3c1.5,0.4,3.1,0.6,4.7,0.5
				c1.3-0.1,2.1-0.7,2.4-1.8c0.1-0.4,0.1-0.7,0.2-1.1c0.2-2.2,0.2-4.4,0.2-6.6c0-2.3,0-4.6,0-6.9c0-1.2-0.1-2.4-0.3-3.6
				c-0.2-1.2-1-2.1-2.3-2.3c-1.2-0.2-2.4-0.1-3.6,0.2c-0.1,0-0.3,0.1-0.3,0c0-0.3-0.2-0.2-0.3-0.2c-1,0-2,0-3,0
				c-0.3,0-0.3,0.1-0.3,0.3c-0.1,0.8-0.2,1.5-0.2,2.3c-0.2,2.7-0.2,5.5,0.1,8.2c0,0.2,0.1,0.3,0.3,0.3c1,0,1.9,0,2.9,0
				c0.1,0,0.2,0.1,0.3-0.1c0-0.2,0.2-0.2,0.4-0.2c0.8,0,1.5,0,2.3,0c0.3,0,0.4,0.1,0.4,0.4c0,1.5,0,3.1-0.1,4.6c0,1.3,0,2.6-0.1,3.9
				c-0.1,0.9-0.4,1.2-1.4,1C1443.2,439.1,1442.4,438.9,1441.5,438.7z M1330.5,423.7c0-1-0.5-2.1-1.6-2.9c-1.2-1-2.6-1.2-4-1
				c-2.7,0.3-4.4,2.8-3.7,5.4c0.3,1,0.7,1.8,1.2,2.7c0.1,0.2,0.1,0.3-0.1,0.5c-0.2,0.1-0.4,0.3-0.6,0.5c-1.3,1.1-2.2,2.3-2.4,4
				c-0.4,2.9,1.9,5.6,4.8,5.6c1.6,0,3.1-0.6,4.4-1.6c0.2-0.2,0.3-0.2,0.5,0c0.5,0.5,0.9,1.1,1.4,1.6c0.1,0.1,0.2,0.2,0.4,0
				c0.6-0.6,1.3-1.3,2-1.9c0.2-0.2,0.1-0.3,0-0.4c-0.5-0.6-1-1.1-1.5-1.7c-0.2-0.2-0.2-0.4-0.1-0.6c0.9-1.2,1.5-2.6,2.1-3.9
				c0.1-0.2,0.1-0.3-0.2-0.4c-0.3-0.1-0.5-0.3-0.8-0.4c-0.2-0.1-0.3-0.1-0.4,0.1c-0.4,1.2-1,2.4-1.8,3.5c-0.1,0.2-0.2,0.2-0.3,0
				c-0.9-1.1-1.8-2.2-2.6-3.3c-0.1-0.2-0.1-0.3,0.1-0.4c0.4-0.3,0.9-0.6,1.2-1C1329.6,427,1330.5,425.7,1330.5,423.7z M1229.4,434.8
				c0-1.1,0-2,0-2.9c0-0.3-0.1-0.7,0.1-0.9c0.2-0.2,0.6,0,0.9,0c1.8,0,3.5,0.1,5.3,0.2c1.3,0.1,1.3,0.1,1.2-1.2c0,0,0-0.1,0-0.1
				c0-0.1,0-0.1-0.1-0.1c-0.3,0-0.3-0.2-0.3-0.4c0-1.1,0-2.1,0-3.2c-0.1-1.2-0.7-2.1-1.9-2.6c-0.7-0.3-1.5-0.4-2.2-0.4
				c-2.5-0.1-5.1,0.2-7.6,0.5c-1.1,0.1-2.2,0.3-3.3,0.5c-0.2,0-0.3,0-0.3-0.2c0-0.1,0-0.2,0-0.3c0.1-0.3,0-0.3-0.3-0.3c-1,0-2,0-3,0
				c-0.2,0-0.3,0.1-0.4,0.3c-0.3,2.8-0.3,5.6,0,8.3c0,0.2,0.1,0.3,0.3,0.3c0.8,0,1.7,0,2.5,0c0.9,0,0.9,0,0.7-0.9
				c0-0.2,0-0.3,0.2-0.3c1.3,0,2.6-0.1,4-0.1c0.3,0,0.4,0.1,0.4,0.4c0,1.8,0,3.6,0,5.4c0,0.4,0,0.9-0.1,1.3
				c-0.1,0.6-0.3,0.7-0.8,0.8c-0.7,0.1-1.4,0-2.1-0.2c-0.2-0.1-0.3,0-0.3,0.2c0,0.3,0,0.6,0,0.9c0,0.2,0.1,0.3,0.3,0.3
				c1.7,0.3,3.4,0.3,5.1,0.1c0.4,0,0.8-0.1,1.2-0.4c0.4-0.3,0.4-0.8,0.5-1.3C1229.5,437.2,1229.4,435.9,1229.4,434.8z M1252.5,419.7
				c-3.6,0.1-7.1,0.9-10.5,2.2c-0.8,0.3-0.8,0.3-0.5,1.1c0.3,0.7,0.3,0.7,0.9,0.4c2.1-0.9,4.2-1.4,6.4-1.8c1.2-0.2,2.5-0.4,3.7-0.4
				c1.1,0,1.5,0.5,1.5,1.5c0,0.9-0.3,1.6-0.7,2.4c-1.2,2.5-3,4.6-5,6.5c-2.4,2.2-5.1,4-8,5.5c-0.3,0.1-0.3,0.3-0.1,0.5
				c0.5,0.7,0.9,1.5,1.4,2.2c0.2,0.3,0.3,0.3,0.6,0.1c3.2-1.9,6.2-4.1,9-6.6c0.2-0.1,0.3-0.2,0.4,0c0.5,0.5,1.1,1,1.7,1.6
				c1.6,1.6,2.9,3.3,4.1,5.2c0.1,0.2,0.2,0.2,0.4,0c0.7-0.6,1.4-1.2,2.1-1.8c0.2-0.2,0.3-0.3,0.1-0.5c-1.8-2.5-3.7-5-6-7
				c-0.2-0.2-0.2-0.3,0-0.4c0.3-0.4,0.6-0.8,0.9-1.2c1.1-1.7,2.1-3.5,2.3-5.5c0.3-2.1-0.6-3.4-2.7-3.8
				C1253.7,419.7,1253.1,419.7,1252.5,419.7z M1431.7,434.3c-0.1-1.2,0-2.7-0.1-4.3c0-0.3,0.1-0.4,0.4-0.4c0.9,0,1.9,0,2.8,0
				c1,0,2,0,3,0.1c0.3,0,0.3,0,0.3-0.3c0-0.3,0-0.6,0-0.9c0-0.1,0-0.2-0.1-0.2c-0.4,0-0.3-0.3-0.3-0.5c0.1-2.1,0.2-4.2,0.2-6.4
				c0-1.4-0.7-2.3-2-2.7c-0.5-0.2-1.1-0.2-1.7-0.2c-0.9-0.1-1.7,0.2-2.6,0.1c-1-0.2-2,0-3,0c-0.2,0-0.3,0.1-0.3,0.3
				c0,0.4,0,0.7-0.1,1.1c-0.3,4.1-0.4,8.2-0.3,12.3c0,2.7,0.2,5.4,0.3,8.1c0,0.4,0.1,0.5,0.5,0.5c0.9,0,1.8,0,2.7,0
				c0.3,0,0.4-0.1,0.4-0.4C1431.8,438.5,1431.7,436.6,1431.7,434.3z M1456,423.2c-1.1,0-2.2,0-3.2,0c-0.2,0-0.3,0-0.4,0.2
				c-0.4,2.4-0.4,4.7,0,7.1c0,0.1,0.1,0.2,0.2,0.2c1.1,0,2.3,0,3.4,0c-0.3-1.5-0.5-3.1-0.4-4.6c0-0.2,0.1-0.3,0.3-0.4
				c2.8-0.6,5.7-1.1,8.5-1.2c1.4-0.1,2.9-0.1,4.3,0.2c1.2,0.3,1.6,0.9,1.5,2.1c-0.1,1.1-0.2,2.3-0.5,3.4c-0.1,0.3,0,0.3,0.3,0.3
				c1.1,0,2.2,0,3.3,0c0.2,0,0.3-0.1,0.4-0.3c0.2-1.2,0.4-2.4,0.4-3.7c0-1.3-0.7-2.4-1.9-2.9c-0.5-0.2-1-0.3-1.5-0.4
				c0.9-0.9,1.8-1.9,2.5-3c0.2-0.2,0.1-0.3-0.1-0.4c-1-0.4-2-0.9-3.1-1.3c-0.3-0.1-0.4-0.1-0.5,0.2c-0.6,1.2-1.4,2.2-2.1,3.3
				c-0.5,0.8-1.1,1.1-2.1,1.1c-2.9,0-5.8,0.5-8.7,1.1c-1,0.2-1,0.2-0.8-0.8C1456,423.3,1456,423.3,1456,423.2
				c1.5,0.9,2.9,0.7,3.7-0.5c0.7-1,0.6-2.5-0.3-3.3c-0.9-0.8-2.6-0.8-3.6,0C1454.9,420.2,1454.9,421.7,1456,423.2z M1457,429.6
				c0.1-0.1,0.2-0.1,0.4-0.1c1.2-0.4,2.3-0.8,3.5-1.1c1.5-0.4,2.9-0.6,4.5-0.4c0.2,0,0.3,0.1,0.5,0.1c0.2,0.1,0.3,0.2,0.1,0.4
				c-0.2,0.2-0.4,0.4-0.6,0.7c-0.8,0.9-1.7,1.5-3,1.2c0,0,0,0,0,0c-0.2,0-0.3,0.1-0.2,0.3c0.1,0.7,0.2,1.4,0.3,2.1
				c0.1,0.4,0,0.4-0.4,0.4c-2.7,0-5.4,0.1-8.2,0.2c-0.3,0-0.8-0.1-1,0.1c-0.2,0.3,0,0.7-0.1,1.1c0,0.3,0.1,0.3,0.3,0.3
				c3.1-0.2,6.1-0.2,9.2-0.3c0.2,0,0.3,0.1,0.3,0.2c0,1.1,0,2.2-0.1,3.3c-0.1,0.4-0.3,0.7-0.7,0.7c-0.2,0-0.4,0-0.6,0
				c-1.3,0-2.6-0.2-3.9-0.4c-0.3-0.1-0.4,0-0.4,0.3c0,0.2,0,0.5,0,0.7c0,0.3,0.1,0.4,0.3,0.4c1.3,0.2,2.6,0.4,3.9,0.4
				c1.4,0,2.8,0.1,4.1-0.3c0.6-0.2,1-0.6,1.1-1.2c0.2-1.3,0.2-2.6,0.2-3.8c0-0.4,0.1-0.4,0.4-0.4c2.2,0,4.5,0.1,6.7,0.2
				c0.3,0,0.4,0,0.4-0.3c0-0.3,0-0.5,0-0.8c0-0.3-0.1-0.3-0.3-0.4c-2.3-0.1-4.6-0.2-7-0.2c-0.1,0-0.3,0.1-0.3-0.1
				c0-0.1-0.1-0.3,0.1-0.4c0.1-0.1,0.1-0.1,0.2-0.2c0.9-0.8,1.7-1.6,2.4-2.5c0.3-0.3,0.5-0.7,0.5-1.1c0-1-0.6-1.8-1.7-2.1
				c-0.8-0.2-1.6-0.3-2.4-0.3c-2.5-0.1-4.9,0.4-7.3,1.2c-0.4,0.1-1,0.2-1.2,0.5C1456.8,428.5,1457,429.1,1457,429.6z M1372.4,419.5
				c-1.4,0-2.6,0.1-3.8,0.3c-2.8,0.5-5.5,1.4-8.1,2.7c-0.2,0.1-0.2,0.1-0.1,0.3c0.1,0.3,0.3,0.7,0.4,1c0.1,0.2,0.1,0.2,0.3,0.1
				c1.9-1,4-1.6,6.1-2.1c1.6-0.4,3.2-0.8,4.8-0.7c1.4,0,2.4,0.9,2.7,2.3c0.3,1.5-0.1,3-0.7,4.3c-0.9,2-2.3,3.7-3.8,5.2
				c-1.5,1.5-3.1,2.8-4.8,4.1c-0.1,0.1-0.3,0.2-0.1,0.4c0.7,0.8,1.3,1.6,2,2.4c0.1,0.2,0.2,0.2,0.4,0c0.3-0.2,0.5-0.4,0.8-0.6
				c2.6-2.1,4.9-4.3,6.9-7c1.6-2.3,2.8-4.7,3-7.5c0.1-2.4-1-4.1-3.3-4.8C1374.1,419.6,1373.2,419.5,1372.4,419.5z M1389.5,439
				c3.2,0,5.5,0.1,7.8,0.2c0.3,0,0.8,0.2,1,0c0.2-0.2,0-0.7,0.1-1.1c0-0.3,0-0.4-0.3-0.4c-1.9,0-3.8-0.1-5.7-0.2
				c-0.4,0-0.4-0.1-0.4-0.5c0-3.8,0-7.6,0-11.4c0-0.4,0.1-0.4,0.5-0.4c1.4,0,2.8,0,4.2-0.2c0.2,0,0.3,0,0.3-0.2c0-0.4,0-0.7,0-1.1
				c0-0.1,0-0.2-0.2-0.2c-1.1,0.2-2.2,0.2-3.3,0.2c-3,0.1-5.9,0.1-8.9-0.2c-0.9-0.1-0.9-0.1-0.9,0.8c0,0.4,0.1,0.5,0.5,0.6
				c1.5,0.2,2.9,0.3,4.4,0.3c0.4,0,0.4,0.1,0.4,0.5c0,3.7,0,7.5,0,11.2c0,0.7,0,0.7-0.7,0.7c-1.8,0-3.6,0.1-5.4,0.2
				c-0.2,0-0.3,0.1-0.3,0.3c0,0.3,0,0.6,0,0.9c0,0.3,0.1,0.3,0.3,0.3C1385.3,439.1,1387.8,439,1389.5,439z M1268.7,427.3
				c0,0.2,0,0.3,0,0.4c0,4,0,8,0,12.1c0,0.3,0.1,0.4,0.4,0.4c0.8,0,1.6,0,2.4,0c0.3,0,0.4-0.1,0.4-0.4c0-4.7,0-9.5,0-14.2
				c0-0.3,0.1-0.5,0.3-0.6c1.8-1.3,3.5-2.6,5.2-4.1c0.9-0.8,0.9-0.8,0.2-1.7c-0.1-0.2-0.2-0.2-0.4,0c-0.2,0.2-0.5,0.5-0.7,0.7
				c-4.5,3.9-9.4,7.2-14.7,9.9c-0.3,0.2-0.8,0.3-1,0.5c-0.1,0.3,0.2,0.7,0.3,1.1c0.1,0.2,0.2,0.2,0.4,0.1c0.9-0.5,1.8-0.9,2.6-1.4
				C1265.8,429.1,1267.2,428.2,1268.7,427.3z M1318.1,421.2c0.1-0.2-0.1-0.2-0.3-0.2c-1-0.3-2-0.5-3.1-0.8c-0.3-0.1-0.3,0-0.4,0.3
				c-0.4,2.5-0.9,4.9-1.6,7.4c-0.7,2.5-1.8,4.7-3.6,6.6c-1.5,1.6-3.4,2.8-5.4,3.8c-0.3,0.2-0.9,0.2-1,0.5c-0.1,0.3,0.2,0.7,0.3,1.1
				c0.1,0.3,0.2,0.3,0.5,0.2c1.7-0.7,3.3-1.6,4.9-2.5c2.1-1.3,4-2.8,5.4-4.8c1.4-1.9,2.2-4,2.9-6.3
				C1317.4,424.7,1317.8,423,1318.1,421.2z M1291.1,430.5c0.4,0,0.7,0,1.1,0c1.8,0.1,3.6,0.1,5.5,0.3c0.2,0,0.3-0.1,0.3-0.3
				c0-0.8,0-1.6,0-2.4c0-0.3-0.1-0.4-0.4-0.4c-2.1-0.1-4.1-0.2-6.2-0.2c-2.6,0-5.1-0.1-7.7,0.1c-1.4,0.1-2.8,0.1-4.1,0.2
				c-0.3,0-0.4,0.1-0.4,0.4c0,0.8,0,1.6,0,2.4c0,0.2,0.1,0.3,0.3,0.3c0.7-0.1,1.3-0.1,2-0.2C1284.6,430.5,1287.9,430.4,1291.1,430.5
				z M1227.2,421.4c3.4,0,6.7,0.1,10,0.2c0.4,0,0.8,0.2,1,0c0.2-0.2,0-0.7,0-1.1c0,0,0,0,0,0c0-0.2-0.1-0.2-0.2-0.2
				c-0.4,0-0.9,0-1.3-0.1c-2.4-0.1-4.7-0.2-7.1-0.2c-0.3,0-0.3-0.1-0.3-0.3c0-0.4,0-0.7,0-1.1c0-0.3-0.1-0.3-0.3-0.3
				c-1.1,0-2.3,0-3.5,0c-0.2,0-0.3,0-0.3,0.3c0,0.3,0,0.7,0,1c0,0.3-0.1,0.4-0.4,0.4c-2.5,0-4.9,0.1-7.4,0.2c-0.3,0-0.8-0.1-1,0.1
				c-0.2,0.2,0,0.7-0.1,1.1c0,0.3,0.1,0.3,0.3,0.3C1220.3,421.4,1223.8,421.4,1227.2,421.4z M1301.7,420.2c0,0-0.1,0-0.1,0.1
				c-0.8,0.4-1.6,0.8-2.4,1.2c-0.2,0.1-0.2,0.2-0.1,0.3c1.4,3.1,2.5,6.2,3.4,9.4c0.1,0.2,0.2,0.2,0.4,0.2c0.8-0.3,1.6-0.6,2.3-0.9
				c0.2-0.1,0.3-0.2,0.2-0.5c-0.4-1.3-0.8-2.5-1.2-3.8c-0.7-1.9-1.4-3.8-2.3-5.7C1301.8,420.4,1301.8,420.3,1301.7,420.2z
				 M1310.7,428.2c0-0.1,0-0.1,0-0.2c-0.9-3-1.9-6-3.1-8.8c-0.1-0.2-0.2-0.2-0.4-0.1c-0.8,0.3-1.5,0.6-2.3,0.9
				c-0.3,0.1-0.3,0.2-0.2,0.5c0.6,1.3,1.1,2.6,1.6,4c0.6,1.5,1.1,3.1,1.5,4.7c0,0.1,0,0.4,0.3,0.2c0.8-0.3,1.6-0.7,2.5-1
				C1310.7,428.3,1310.8,428.3,1310.7,428.2z M1494.3,419.4C1494.3,419.4,1494.3,419.4,1494.3,419.4c0-0.3,0-0.6,0-0.9
				c0-0.2-0.1-0.3-0.3-0.3c-1.1,0-2.2,0-3.3,0c-0.2,0-0.3,0.1-0.3,0.3c0,0.6,0,1.2,0,1.7c0,0.2-0.1,0.3-0.3,0.3
				c-0.9,0-1.8,0.1-2.7,0.2c-1,0.1-1,0.1-1,1.1c0,0.4,0.1,0.5,0.4,0.4c1.8-0.2,3.6-0.3,5.4-0.3c2,0,4,0.1,6,0.3c0.3,0,0.4,0,0.4-0.3
				c0-0.3,0-0.5,0-0.8c0-0.3-0.1-0.3-0.3-0.3c-1-0.1-1.9-0.1-2.9-0.2c-0.4,0-0.9,0.1-1-0.1C1494.1,420.3,1494.3,419.8,1494.3,419.4z
				 M1223.3,433.8c0-0.2-0.1-0.1-0.2-0.2c-0.8-0.3-1.7-0.5-2.5-0.8c-0.2-0.1-0.3,0-0.4,0.2c-1.1,2-2.4,3.8-3.9,5.5
				c-0.2,0.2-0.1,0.3,0.1,0.4c0.8,0.4,1.7,0.8,2.5,1.2c0.2,0.1,0.3,0.1,0.4-0.1c1.6-1.8,2.9-3.8,3.9-5.9
				C1223.2,433.9,1223.3,433.9,1223.3,433.8z M1234.5,432.6C1234.5,432.6,1234.5,432.6,1234.5,432.6c-1,0.4-1.9,0.8-2.7,1.1
				c-0.2,0.1-0.1,0.1-0.1,0.2c0.2,0.3,0.3,0.7,0.5,1c0.9,1.7,1.8,3.3,2.9,4.9c0.1,0.2,0.2,0.3,0.4,0.2c0.8-0.4,1.7-0.9,2.5-1.3
				c0.2-0.1,0.2-0.2,0.1-0.4c-1.2-1.8-2.4-3.7-3.4-5.6C1234.7,432.7,1234.7,432.6,1234.5,432.6z M1411.6,438c0-1.5-0.9-2.5-2.5-2.5
				c-1.5,0-2.5,1-2.5,2.5c0,1.4,1.1,2.5,2.5,2.5C1410.5,440.5,1411.6,439.4,1411.6,438z M1464.2,418.2c-1.5,0-2.4,0.9-2.4,2.3
				c0,1.3,1.1,2.5,2.4,2.5c1.3,0,2.4-1.1,2.4-2.5C1466.6,419.1,1465.6,418.2,1464.2,418.2z M1160.7,428.6c-0.1,0.8,0,1.5,0,2.2
				c0,0.6,0.1,1.2,0.3,1.8c0.3,1.1,0.5,1.3,1.6,1.5c0.4,0.1,0.8,0.1,1.2,0c0.9-0.2,1.6-0.8,1.6-1.8c0.1-1.1-0.3-1.8-1.3-2.1
				c-0.3-0.1-0.6-0.2-0.9-0.3C1162.3,429.6,1161.4,429.4,1160.7,428.6z M1163.6,424.2c-1.2,0-2,0.6-2.1,1.5
				c-0.2,1.3,0.2,2.1,1.5,2.5c0.1,0,0.2,0.1,0.3,0.1c0.7,0.2,1.5,0.4,2.2,0.8c0.4,0.2,0.4,0.2,0.4-0.2c0-0.3,0-0.7,0.5-0.6
				c0.2,0,0.2-0.1,0.2-0.2c-0.2-0.9-0.5-1.8-0.7-2.8c0-0.1-0.1-0.2-0.2-0.3C1165,424.5,1164.4,424.2,1163.6,424.2z M1168.6,424.8
				c-0.3,1.1-0.6,2.2-1,3.2c0,0.1-0.1,0.2,0.1,0.2c0.6,0,1.1,0,1.7,0c0.1,0,0.2-0.1,0.1-0.2C1169.3,427,1168.9,426,1168.6,424.8z
				 M1178.7,425.3c0.3,0,0.6,0,0.8,0c0.3,0,0.3-0.1,0.3-0.3c-0.1-0.6-0.5-0.9-1.1-0.9c-0.6,0-1.1,0.4-1.1,0.9c0,0.2,0,0.3,0.2,0.3
				C1178.1,425.3,1178.4,425.3,1178.7,425.3z M1174.1,425.3c0.3,0,0.6,0,0.9,0c0.2,0,0.3-0.1,0.2-0.3c-0.1-0.6-0.4-0.9-1.1-0.9
				c-0.6,0-1.1,0.4-1.2,0.9c0,0.2,0,0.3,0.2,0.3C1173.5,425.3,1173.8,425.3,1174.1,425.3z M1182.4,433.3c0.3,0,0.6,0,0.9,0
				c0.3,0,0.3-0.1,0.3-0.3c-0.1-0.6-0.5-0.9-1-0.9c-0.6,0-1.1,0.4-1.2,0.9c0,0.2,0,0.2,0.2,0.2
				C1181.8,433.3,1182.1,433.3,1182.4,433.3z M1187.1,425.7c-0.1-0.4-0.2-0.7-0.3-1c-0.2-0.6-0.6-0.8-1.2-0.6
				c-0.3,0.1-0.5,0.2-0.5,0.5c0,0.3,0.2,0.5,0.5,0.6C1186,425.4,1186.5,425.5,1187.1,425.7z"/>
			<path class="st29" d="M1209.1,433.7c0.7,1,1.5,2,2.3,2.9c0.5,0.6,1,1.2,1.6,1.8c0.2,0.2,0.1,0.3-0.1,0.4
				c-1.1,0.6-2.3,1.1-3.4,1.7c-0.3,0.1-0.4,0.1-0.5-0.1c-1.4-2-2.8-4.1-4-6.3c-0.1-0.1-0.1-0.2-0.3-0.3c0,0.1,0,0.3,0,0.4
				c0,2,0,4.1,0,6.1c0,0.3-0.1,0.4-0.4,0.4c-1.1,0-2.1,0-3.2,0c-0.3,0-0.4-0.1-0.4-0.4c0-2.1,0-4.2,0-6.5c-0.4,0.6-0.7,1.1-1,1.6
				c-1.1,1.8-2.4,3.5-3.7,5.1c-0.1,0.1-0.1,0.3-0.4,0.2c-1.1-0.7-2.3-1.5-3.5-2.2c1-1.1,2.1-2.2,3.1-3.5c-0.9,0-1.7,0-2.5,0
				c-0.3,0-0.4-0.1-0.4-0.4c-0.4-3.2-0.4-6.3-0.1-9.5c0-0.5,0.1-1,0.2-1.5c0-0.2,0.1-0.2,0.3-0.2c1.1,0,2.2,0,3.4,0
				c0.3,0,0.2,0.1,0.2,0.3c-0.1,0.5-0.1,0.5,0.4,0.4c1.3-0.2,2.5-0.3,3.8-0.5c0.2,0,0.2-0.1,0.2-0.2c0-0.6,0-1.2,0-1.7
				c0-0.2-0.1-0.2-0.3-0.2c-1.9,0.1-3.8,0.1-5.6,0.1c-0.7,0-1.5,0.1-2.2,0.1c-0.3,0-0.3-0.1-0.3-0.3c0-0.4-0.1-0.8,0.1-1
				c0.2-0.3,0.7-0.1,1-0.1c2.3-0.1,4.7-0.2,7-0.2c0.3,0,0.4-0.1,0.4-0.4c0-0.3,0-0.7,0-1c0-0.3,0-0.4,0.4-0.4c1.1,0,2.2,0,3.3,0
				c0.2,0,0.3,0.1,0.3,0.3c0,0.4,0,0.8,0,1.1c0,0.2,0.1,0.3,0.3,0.3c2.3,0,4.6,0.1,6.9,0.2c0.4,0,0.7,0,1.1,0c0.2,0,0.3,0.1,0.2,0.2
				c0,0,0,0,0,0c0.1,1.2,0.1,1.2-1.1,1.1c-2.3-0.1-4.6-0.2-7-0.2c-0.3,0-0.3,0.1-0.3,0.3c0,0.4,0,0.8,0,1.2c0,0.3,0,0.4,0.3,0.3
				c1.5-0.1,2.9-0.1,4.4,0c0.5,0,0.9,0.1,1.4,0.3c1.5,0.5,2.2,1.6,2.4,3.3c0.1,1.7,0,3.4-0.2,5.1c0,0.2-0.1,0.4,0.2,0.3
				c0.2,0,0.2,0.1,0.2,0.2c0,0.3,0,0.6,0,0.9c0,0.3-0.1,0.3-0.3,0.3c-1.3-0.1-2.5-0.1-3.8-0.2
				C1209.3,433.7,1209.2,433.7,1209.1,433.7z M1198.4,432.3C1198.4,432.2,1198.4,432.2,1198.4,432.3c0.7-0.1,1.4-0.1,2.1-0.1
				c0.2,0,0.3-0.1,0.3-0.3c0-0.6,0-1.3,0-1.9c0-0.8,0-0.8-0.9-0.8c-0.1,0-0.1,0-0.2,0c-1.1,0-2.3,0.1-3.4,0.1c-0.2,0-0.4,0-0.4,0.3
				c0.1,0.8,0.1,1.6,0.1,2.5c0,0.2,0.1,0.3,0.3,0.3C1197,432.3,1197.7,432.3,1198.4,432.3z M1207.1,429.2
				C1207.1,429.2,1207.1,429.1,1207.1,429.2c-0.7,0-1.4,0-2,0c-0.2,0-0.3,0-0.3,0.2c0,0.9,0,1.7,0,2.6c0,0.2,0,0.2,0.2,0.2
				c1.3,0,2.6,0,3.9,0.1c0.1,0,0.3,0,0.3-0.2c0-0.8,0.1-1.7,0.2-2.5c0-0.2-0.1-0.2-0.2-0.2C1208.4,429.2,1207.7,429.2,1207.1,429.2z
				 M1207,427.7c0,0,0,0.1,0,0.1c0.7,0,1.3,0,2,0c0.2,0,0.3,0,0.3-0.3c0-0.5-0.1-0.9-0.2-1.4c-0.3-0.9-0.8-1.3-1.7-1.4
				c-0.8-0.1-1.5,0-2.3,0c-0.2,0-0.2,0.1-0.2,0.3c0,0.8,0,1.6,0,2.4c0,0.2,0,0.3,0.2,0.3C1205.7,427.7,1206.4,427.7,1207,427.7z
				 M1198.4,427.7C1198.4,427.7,1198.4,427.7,1198.4,427.7c0.7-0.1,1.5-0.1,2.2-0.1c0.2,0,0.3-0.1,0.2-0.3c0-0.7,0-1.4,0-2.1
				c0-0.3-0.1-0.3-0.3-0.2c-1.4,0.1-2.8,0.3-4.1,0.5c-0.2,0-0.3,0.1-0.3,0.4c0,0.5-0.1,1.1-0.1,1.6c0,0.2,0.1,0.3,0.3,0.2
				C1196.9,427.8,1197.6,427.8,1198.4,427.7z"/>
			<path class="st29" d="M1489.2,428.4C1489.2,428.4,1489.2,428.4,1489.2,428.4c0.3-0.2,0.5-0.6,0.8-0.5c0.2,0.1,0.4,0.4,0.6,0.7
				c0.5,0.7,1.1,1.3,1.6,2c0.1,0.2,0.2,0.2,0.4,0c0.5-0.8,1.1-1.7,1.5-2.6c0.3-0.5,0.3-0.5,0.7-0.2c0,0,0,0.1,0.1,0c0,0,0-0.1,0-0.1
				c-0.4-1-0.8-2.1-1.2-3.1c-0.1-0.3-0.1-0.4,0.2-0.5c0.8-0.3,1.6-0.7,2.5-1.1c0.2-0.1,0.3-0.1,0.4,0.1c0.8,2.2,1.7,4.3,2.7,6.3
				c0.1,0.2,0.1,0.3-0.1,0.4c-0.8,0.4-1.6,0.8-2.4,1.3c-0.5,0.3-0.5,0.3-0.7-0.2c-0.1,0-0.2,0.1-0.2,0.2c-0.4,0.6-0.8,1.3-1.2,1.9
				c-0.2,0.3-0.2,0.4,0,0.6c1.3,1.4,2.6,2.8,3.9,4.2c0.3,0.3,0.2,0.4,0,0.6c-0.8,0.6-1.6,1.3-2.3,1.9c-0.2,0.2-0.3,0.2-0.5,0
				c-1.1-1.2-2.2-2.5-3.3-3.7c-0.1-0.1-0.2-0.2-0.3-0.3c-1.2,1.4-2.4,2.7-3.7,3.9c-0.1,0.1-0.2,0.1-0.2,0.2c-0.1,0.2-0.2,0.1-0.4,0
				c-0.6-0.7-1.2-1.3-1.8-2c-0.2-0.2-0.1-0.3,0-0.4c1.3-1.3,2.6-2.6,3.8-4c0.2-0.2,0.2-0.4,0-0.6c-0.7-0.9-1.4-1.9-2.1-2.8
				c-0.3,0.4-0.3,0.4-0.8,0.1c-0.7-0.4-1.4-0.7-2.2-1.1c-0.1,0.2,0,0.3,0.2,0.5c0.8,0.7,1.6,1.3,2.4,2c0.2,0.1,0.2,0.2,0,0.4
				c-0.6,0.7-1.2,1.4-1.8,2.1c-0.2,0.3-0.4,0.3-0.6,0c-0.1-0.1-0.2-0.1-0.3-0.2c0,0.2,0,0.3,0,0.5c0,1.8,0,3.6,0,5.4
				c0,0.3-0.1,0.4-0.4,0.4c-0.9,0-1.8,0-2.8,0c-0.3,0-0.4-0.1-0.4-0.4c0-2.8,0-5.5,0-8.3c0-0.5-0.1-0.9-0.5-1.2
				c-0.1-0.1-0.2-0.2-0.3-0.4c-0.1,0.9-0.1,1.6-0.2,2.3c-0.2,2.3-0.3,4.6-0.5,6.9c0,0.3-0.1,0.4-0.4,0.3c-0.9-0.1-1.8-0.2-2.7-0.3
				c-0.2,0-0.2-0.1-0.2-0.3c0.3-2.9,0.5-5.8,0.7-8.7c0.1-2.4,0.3-4.8,0.4-7.1c0-0.3-0.1-0.3-0.3-0.2c-0.3,0.1-0.5,0-0.4-0.4
				c0-0.3-0.1-0.8,0.1-1c0.2-0.2,0.6-0.1,1-0.2c1-0.1,2.1-0.2,3.1-0.2c0.3,0,0.4-0.1,0.4-0.4c0-0.8,0-1.5,0-2.3
				c0-0.3,0.1-0.4,0.4-0.4c0.9,0,1.8,0,2.7,0c0.3,0,0.4,0.1,0.4,0.4c0,0.8,0,1.7,0,2.5c0,0.2,0.1,0.3,0.3,0.3
				c0.8,0.1,0.8,0.1,0.8,0.9c0,0.7,0,0.7-0.7,0.6c-0.3,0-0.5,0-0.5,0.4c0,1.7,0,3.5,0,5.2c0,0.1,0,0.2,0,0.3c0,0,0.1,0,0.1,0
				c0.5-0.9,0.9-1.8,1.4-2.7c0.6-1.1,1.1-2.3,1.5-3.4c0.1-0.3,0.2-0.3,0.4-0.2c0.8,0.4,1.6,0.8,2.4,1.1c0.2,0.1,0.3,0.2,0.2,0.4
				c-0.6,1.3-1.1,2.5-1.7,3.7C1489.1,428.2,1489.1,428.3,1489.2,428.4C1489.1,428.4,1489,428.4,1489.2,428.4
				C1489.1,428.5,1489.1,428.4,1489.2,428.4z M1480.7,427.7c0.3-0.3,0.7-0.4,0.7-0.9c0-1.2,0-2.4,0-3.6c0-0.2,0-0.3-0.2-0.3
				c-0.2,0-0.3,0.1-0.3,0.3C1480.9,424.7,1480.8,426.2,1480.7,427.7z"/>
			<path class="st29" d="M1411.3,433.9c2.4-0.1,4.8,0,7.3,0c0.2,0,0.3-0.1,0.3-0.3c-0.1-0.6-0.1-1.3-0.1-1.9c0-0.3-0.2-0.2-0.3-0.2
				c-2.2,0-4.4,0-6.7,0c-1.1,0-2.3,0.1-3.4,0.1c-0.3,0-0.4,0.1-0.3,0.4c0,0,0,0.1,0,0.1c0.1,0.4,0,0.5-0.4,0.5c-0.9,0-1.9,0-2.8,0
				c-0.3,0-0.3-0.1-0.4-0.3c-0.4-3.1-0.4-6.2,0-9.3c0-0.2,0.1-0.3,0.3-0.3c1,0,2,0,3,0c0.3,0,0.3,0.1,0.3,0.3
				c-0.1,0.3,0,0.4,0.3,0.3c1.3-0.2,2.5-0.3,3.8-0.4c0.2,0,0.2-0.1,0.2-0.3c0-0.4,0-0.9,0-1.3c0-0.3-0.1-0.4-0.4-0.4
				c-1.8,0.1-3.5,0.1-5.3,0.2c-0.9,0-1.7,0.1-2.6,0.1c-0.3,0-0.3-0.1-0.3-0.3c0-1.2,0-1.2,1.1-1.2c2.4-0.1,4.7-0.2,7.1-0.2
				c0.3,0,0.4-0.1,0.4-0.4c0,0,0,0,0,0c0-0.3-0.1-0.8,0.1-1c0.2-0.2,0.6-0.1,1-0.1c0.8,0,1.6,0,2.4,0c0.3,0,0.4,0.1,0.4,0.4
				c0,0.1,0,0.2,0,0.2c0,0.8,0,0.8,0.8,0.8c2.5,0,4.9,0.1,7.4,0.2c0.4,0,0.5,0.1,0.5,0.5c-0.1,0.3,0.1,0.7-0.1,0.9
				c-0.2,0.2-0.6,0-0.9,0c-2.4-0.1-4.8-0.2-7.3-0.2c-0.4,0-0.6,0-0.5,0.5c0,0.2,0,0.4,0,0.6c0,0.5,0,0.5,0.6,0.5
				c1.4,0,2.8-0.1,4.1,0c0.5,0,1,0.1,1.4,0.3c0.9,0.4,1.4,1.1,1.4,2.1c0,1.6,0,3.2,0,4.8c0,0.2-0.1,0.5,0.3,0.4
				c0.1,0,0.1,0.1,0.1,0.2c0,0.4,0.1,0.8,0,1.1c-0.2,0.3-0.7,0-1,0c-0.3,0-0.4,0.1-0.4,0.4c0.1,0.5,0.1,1.1,0.1,1.7
				c0,0.3,0.1,0.3,0.4,0.3c0.5,0,0.9,0.1,1.4,0.1c0.2,0,0.3,0.1,0.3,0.3c0,0.3,0,0.6,0,0.9c0,0.2-0.1,0.2-0.2,0.2
				c-0.5,0-0.9,0-1.4-0.1c-0.3,0-0.4,0-0.4,0.3c0,0.9,0,1.8-0.1,2.7c-0.2,1.5-0.8,1.7-2,1.9c-1.9,0.3-3.8,0.2-5.8,0.1
				c-0.6,0-1.1-0.1-1.7-0.1c-0.2,0-0.3-0.1-0.3-0.3c0-0.4-0.2-0.9,0.1-1.1c0.2-0.2,0.7,0,1.1,0c1.2,0.1,2.5,0.2,3.7,0.1
				c0.7,0,0.8-0.2,0.9-0.9c0.1-0.8,0.1-1.6,0.1-2.3c0-0.4-0.1-0.5-0.5-0.5c-1.6,0-3.2,0-4.8,0c-2.7,0-5.3,0.1-8,0.2
				c-0.5,0-1.1,0-1.6,0.1c-0.2,0-0.4,0-0.4-0.3c0-0.4-0.1-0.8,0.1-1.1c0.2-0.2,0.7-0.1,1-0.1C1406.9,434,1409.1,433.9,1411.3,433.9z
				 M1412.3,429.1c0-0.3,0-0.6,0-0.9c0-0.1,0-0.2-0.2-0.2c-1.4,0.1-2.9,0.1-4.3,0.2c-0.2,0-0.2,0.1-0.2,0.2c0,0.5,0.1,1,0.1,1.5
				c0,0.3,0.1,0.3,0.4,0.3c1.1-0.1,2.2-0.1,3.2-0.1c0.3,0,0.7,0.1,0.9-0.1C1412.5,429.8,1412.3,429.4,1412.3,429.1z M1418.1,426.5
				C1418.1,426.5,1418.1,426.5,1418.1,426.5c0.6,0.1,1.2,0.1,1.7,0.1c0.2,0,0.2-0.1,0.2-0.2c0-0.4,0-0.8,0-1.2c0-0.7-0.4-1.1-1-1.1
				c-0.9,0-1.8,0-2.6,0c-0.2,0-0.2,0.1-0.2,0.3c0,0.6,0,1.2,0,1.8c0,0.2,0.1,0.3,0.3,0.2C1417,426.5,1417.5,426.5,1418.1,426.5z
				 M1409.9,426.6C1409.9,426.6,1409.9,426.5,1409.9,426.6c0.7-0.1,1.4-0.1,2.1-0.1c0.2,0,0.3-0.1,0.3-0.3c0-0.5,0-0.9,0-1.4
				c0-0.3-0.1-0.4-0.4-0.3c-1.3,0.2-2.5,0.3-3.8,0.4c-0.3,0-0.5,0.2-0.5,0.5c0,0.3,0,0.6-0.1,1c0,0.2,0.1,0.3,0.3,0.3
				C1408.6,426.6,1409.3,426.6,1409.9,426.6z M1418.1,430.1C1418.1,430.1,1418.1,430.1,1418.1,430.1c0.6,0.1,1.1,0,1.7,0.1
				c0.2,0,0.3,0,0.3-0.3c0-0.4,0-0.9,0-1.3c0-0.3-0.1-0.4-0.4-0.4c-1.1,0-2.2-0.1-3.3-0.1c-0.2,0-0.3,0.1-0.3,0.3c0,0.5,0,1,0,1.5
				c0,0.2,0.1,0.3,0.3,0.3C1417,430.1,1417.5,430.1,1418.1,430.1z"/>
			<path class="st30" d="M1181.9,436.5c-1.1,0.5-2.1,0.8-3.2,0.9c-1.9,0.3-3.9,0.1-5.7-0.4c-3.1-0.9-5-3.2-5.3-6.4
				c-0.1-0.7-0.1-0.7,0.6-0.7c3.2,0,6.4,0,9.6,0c0.1,0,0.3,0,0.5,0c-0.3,0.4-0.4,0.8-0.4,1.2c0,0.2-0.1,0.2-0.2,0.2
				c-0.4,0-0.3,0.2-0.3,0.4c0,0.2-0.1,0.4,0.3,0.4c0.3,0,0.2,0.2,0.2,0.4c0,1.1,0,2.2,0,3.4c0,0.5,0,0.5,0.5,0.5
				c0.5,0,0.5,0,0.5-0.6c0-1.1,0-2.2,0-3.2c0-0.4,0.1-0.5,0.5-0.5c0.1,0,0.2,0,0.4,0c0.3,0.1,0.4-0.1,0.4-0.4c0-0.3-0.1-0.5-0.4-0.4
				c-0.1,0-0.2,0-0.4,0c-0.2,0-0.5,0.2-0.5-0.2c-0.1-0.4,0.2-0.8,0.5-0.9c0.3,0,0.6,0,0.9,0c0.2,0,0.3,0,0.2-0.2
				c0-0.3,0.1-0.3,0.4-0.3c1.7,0,3.4,0,5.1,0c0.9,0,1.3-0.6,0.8-1.4c-0.1-0.1-0.1-0.2,0-0.2c0.3-0.1,0.5-0.4,0.7-0.7
				c0.5,4.1-0.5,7.6-3.1,10.6c-3.6,4.1-8.3,5.6-13.6,4.3c-4-1-6.8-3.4-8.7-7.1c2,0.3,3.6,0,4.5-1.9c0.2,0.4,0.4,0.8,0.6,1.1
				c1.3,2.2,3.3,3.5,5.8,4.1c3.4,0.9,6.7,0.6,9.9-0.8c0.9-0.4,1.7-1,2.3-1.7c0.4-0.5,0.4-1,0-1.3c-0.4-0.3-0.9-0.3-1.3,0.2
				c-0.4,0.6-0.9,0.7-1.6,0.5c-0.5-0.2-0.9-0.6-0.9-1.2c0-0.3,0-0.4,0.3-0.4c0.9,0,1.7,0,2.6,0c0.3,0,0.4-0.1,0.4-0.4
				c0-0.3,0-0.5-0.1-0.8c-0.1-0.8-0.5-1.4-1.3-1.6c-0.8-0.2-1.6-0.1-2.2,0.6c-1,1-0.9,3.1,0.1,4.1
				C1181.3,436.2,1181.5,436.3,1181.9,436.5z M1175.9,436c-0.1,0.7,0.4,0.4,0.6,0.4c0.2,0,0.3-0.1,0.3-0.3c0-1.1,0-2.2,0-3.3
				c0-0.9-0.5-1.4-1.4-1.6c-0.5-0.1-1-0.1-1.5,0.1c-0.8,0.2-0.6,0-0.7,0.8c0,0.2,0.1,0.3,0.3,0.2c0.2-0.1,0.4-0.1,0.6-0.2
				c0.4-0.1,0.8-0.1,1.2,0c0.4,0.1,0.5,0.3,0.5,0.7c0,0.4-0.3,0.2-0.5,0.2c-0.5,0.1-1,0.1-1.5,0.3c-0.8,0.3-1.1,1.1-0.9,2
				c0.2,0.8,0.8,1.2,1.6,1.2C1175.1,436.6,1175.5,436.4,1175.9,436z"/>
			<path class="st30" d="M1162.5,422.8c0.4-0.8,0.9-1.5,1.5-2.1c2.2-2.5,4.9-4,8.1-4.5c5.8-0.8,11,1.9,13.8,6.7
				c0.1,0.2,0.2,0.3-0.2,0.3c-0.5,0-0.9,0.2-1.3,0.5c-0.7,0.8-0.5,2,0.5,2.4c0.3,0.1,0.7,0.2,1,0.3c0.5,0.1,0.7,0.3,0.7,0.7
				c0,0.4-0.3,0.5-0.8,0.6c-0.5,0-1-0.2-1.4-0.5c-0.1-0.1-0.2-0.2-0.3-0.1c-0.1,0.1-0.1,0.2-0.1,0.3c0,0.2,0,0.5,0,0.7
				c0,0,0.1,0.1,0,0.1c0,0-0.1,0-0.1,0c0,0,0-0.1,0-0.1c0.1-0.7-0.2-0.6-0.7-0.5c-0.5,0.1-0.8-0.1-0.8-0.7c0-0.8,0-1.7,0-2.5
				c0-0.2,0.1-0.3,0.3-0.3c0.3,0,0.6,0,0.9,0c0.4,0,0.2-0.3,0.3-0.5c0-0.2,0-0.4-0.3-0.4c-0.3,0-0.6,0-0.9,0c-0.2,0-0.3-0.1-0.3-0.3
				c0-0.2,0-0.4,0-0.6c0-0.2,0.1-0.4-0.1-0.5c-0.2-0.1-0.5,0-0.8,0c-0.1,0-0.1,0.2-0.1,0.3c0,0.3,0,0.6,0,0.9c0,0.2,0,0.3-0.3,0.3
				c-0.3,0-0.3,0.1-0.3,0.3c0,0.2-0.2,0.5,0.2,0.5c0.3,0,0.3,0.1,0.3,0.3c0,0.7,0,1.4,0,2.1c0,0.5,0.1,1.1,0.5,1.5
				c-0.5,0-0.9,0-1.3,0c0.1-0.3,0.1-0.6,0.1-1c0-0.3-0.2-0.2-0.3-0.1c-0.5,0.3-1,0.5-1.6,0.5c-0.7,0-1.2-0.5-1.3-1.2
				c0-0.3,0-0.4,0.3-0.4c0.8,0,1.7,0,2.5,0c0.3,0,0.4-0.1,0.4-0.4c0-0.7-0.1-1.4-0.6-1.9c-0.8-0.9-2.4-0.8-3.2,0.3
				c-0.7,0.9-0.9,3.1,0.5,4.1c-0.5,0-1,0-1.5,0c0.2-0.3,0.1-0.7,0.1-1c0-0.2-0.2-0.1-0.3,0c-0.5,0.3-1,0.5-1.6,0.5
				c-0.7,0-1.2-0.5-1.3-1.2c0-0.3,0-0.4,0.3-0.4c0.8,0,1.7,0,2.5,0c0.3,0,0.4-0.1,0.4-0.4c0-0.3,0-0.7-0.1-1
				c-0.2-0.8-0.7-1.4-1.6-1.5c-0.9-0.1-1.6,0.2-2.1,1c-0.7,1-0.7,3.1,0.6,4.1c-0.6,0-1.1,0-1.6,0c-0.8,0-0.8,0-0.6-0.8
				c0.3-1.2,0.6-2.5,0.9-3.7c0.1-0.3,0.1-0.4-0.3-0.4c-0.6,0-0.6,0-0.7,0.6c-0.2,0.9-0.4,1.7-0.5,2.6c0,0.1,0,0.2-0.1,0.2
				c-0.3-1-0.6-2-0.9-3c-0.1-0.3-0.2-0.4-0.5-0.4c-0.3,0-0.4,0.1-0.5,0.4c-0.3,1-0.6,2-0.9,3.2c-0.2-0.7-0.3-1.3-0.4-1.9
				c-0.1-0.5-0.2-0.9-0.3-1.4c0-0.1,0-0.2-0.2-0.2c-0.4,0-0.8-0.2-1.2-0.3C1164.3,422.8,1163.4,422.7,1162.5,422.8L1162.5,422.8z"/>
			<path class="st29" d="M1349.3,421.6c0.8,0,1.6,0,2.4,0.2c2.5,0.6,4,2.5,4,5.1c0.1,2-0.4,4-0.9,5.9c-0.7,2.5-1.6,5-2.7,7.3
				c-0.1,0.3-0.3,0.4-0.6,0.2c-0.9-0.5-1.8-0.9-2.7-1.3c-0.3-0.1-0.3-0.2-0.2-0.5c1.4-2.7,2.5-5.6,3.3-8.6c0.3-1.3,0.6-2.6,0.5-4
				c0-1.7-1.1-2.8-2.8-2.8c-0.9,0-0.9,0-1.2,0.8c-2.1,5.5-4.7,10.7-8,15.5c-0.3,0.5-0.3,0.5-0.9,0.2c-0.7-0.4-1.3-0.9-2-1.3
				c-0.2-0.1-0.2-0.3-0.1-0.5c2.9-4.3,5.3-8.9,7.3-13.6c0-0.1,0.1-0.2,0.1-0.3c-0.9,0.2-1.7,0.5-2.5,0.8c-1.3,0.5-2.5,1-3.7,1.6
				c-0.2,0.1-0.3,0.2-0.4-0.1c-0.4-1.1-0.4-1.1,0.6-1.7c2-1.1,4.2-1.8,6.5-2.3c0.3-0.1,0.4-0.2,0.5-0.4c0.3-1,0.7-2,1-3.1
				c0.1-0.3,0.2-0.3,0.4-0.2c0.8,0.3,1.6,0.7,2.3,1c0.2,0.1,0.3,0.2,0.2,0.4C1349.6,420.5,1349.5,421.1,1349.3,421.6z"/>
			<path class="st29" d="M1441.5,438.7c0.9,0.2,1.7,0.4,2.5,0.5c0.9,0.1,1.3-0.1,1.4-1c0.1-1.3,0.1-2.6,0.1-3.9c0-1.5,0-3.1,0.1-4.6
				c0-0.3-0.1-0.4-0.4-0.4c-0.8,0-1.5,0-2.3,0c-0.2,0-0.3,0-0.4,0.2c0,0.2-0.2,0.1-0.3,0.1c-1,0-1.9,0-2.9,0c-0.2,0-0.3-0.1-0.3-0.3
				c-0.3-2.7-0.3-5.5-0.1-8.2c0.1-0.8,0.1-1.5,0.2-2.3c0-0.2,0.1-0.3,0.3-0.3c1,0,2,0,3,0c0.1,0,0.3-0.1,0.3,0.2c0,0.1,0.2,0,0.3,0
				c1.2-0.3,2.4-0.4,3.6-0.2c1.2,0.2,2.1,1,2.3,2.3c0.2,1.2,0.2,2.4,0.3,3.6c0.1,2.3,0.1,4.6,0,6.9c0,2.2,0,4.4-0.2,6.6
				c0,0.4-0.1,0.7-0.2,1.1c-0.3,1.1-1.1,1.7-2.4,1.8c-1.6,0.1-3.1-0.1-4.7-0.5c-0.2-0.1-0.3-0.1-0.3-0.3
				C1441.5,439.5,1441.5,439.1,1441.5,438.7z M1444,427.7C1444,427.7,1444,427.7,1444,427.7c0.4,0,0.8,0,1.3,0c0.2,0,0.3,0,0.3-0.3
				c0-0.8-0.1-1.6-0.1-2.5c0-0.2-0.1-0.3-0.3-0.3c-0.9-0.1-1.7,0-2.6,0c-0.3,0-0.3,0.1-0.3,0.3c0,0.8,0.1,1.6,0.1,2.5
				c0,0.2,0.1,0.3,0.3,0.3C1443.1,427.7,1443.6,427.7,1444,427.7z M1443.9,423.2C1443.9,423.2,1443.9,423.2,1443.9,423.2
				c0.4,0,0.9,0,1.3,0c0.1,0,0.3,0,0.2-0.2c-0.1-0.7,0-1.4-0.2-2c-0.1-0.4-0.4-0.7-0.8-0.8c-0.6-0.2-1.2-0.1-1.8,0.1
				c-0.1,0-0.2,0.1-0.2,0.2c-0.1,0.8-0.1,1.6-0.2,2.5c0,0.2,0,0.3,0.2,0.2C1443,423.2,1443.4,423.2,1443.9,423.2z"/>
			<path class="st29" d="M1330.5,423.7c0,2-0.9,3.3-2,4.4c-0.4,0.4-0.8,0.7-1.2,1c-0.2,0.1-0.2,0.2-0.1,0.4c0.8,1.1,1.7,2.2,2.6,3.3
				c0.2,0.2,0.2,0.1,0.3,0c0.7-1.1,1.3-2.2,1.8-3.5c0.1-0.3,0.2-0.3,0.4-0.1c0.2,0.2,0.5,0.3,0.8,0.4c0.2,0.1,0.2,0.2,0.2,0.4
				c-0.6,1.4-1.2,2.7-2.1,3.9c-0.2,0.3-0.2,0.4,0.1,0.6c0.5,0.5,1,1.1,1.5,1.7c0.1,0.1,0.2,0.2,0,0.4c-0.7,0.6-1.3,1.2-2,1.9
				c-0.2,0.2-0.3,0.1-0.4,0c-0.5-0.5-0.9-1.1-1.4-1.6c-0.2-0.2-0.3-0.2-0.5,0c-1.3,1-2.7,1.6-4.4,1.6c-3,0-5.3-2.7-4.8-5.6
				c0.2-1.7,1.2-3,2.4-4c0.2-0.2,0.4-0.3,0.6-0.5c0.2-0.1,0.2-0.3,0.1-0.5c-0.5-0.8-1-1.7-1.2-2.7c-0.7-2.7,1-5.1,3.7-5.4
				c1.5-0.2,2.8,0.1,4,1C1330,421.6,1330.5,422.7,1330.5,423.7z M1325,436.8c0.7,0,1.6-0.5,2.3-1c0.5-0.4,0.5-0.4,0.1-0.9
				c-1-1.3-2-2.5-2.9-3.9c-0.1-0.1-0.1-0.3-0.3-0.2c-1,0.7-1.8,1.5-2,2.8C1321.9,435.5,1323,436.8,1325,436.8z M1327.7,423.2
				c0-0.1,0-0.2,0-0.4c-0.1-0.9-0.8-1.6-1.7-1.7c-1-0.1-1.6,0.3-1.9,1.3c-0.1,0.2-0.1,0.5-0.1,0.8c0,1.2,0.5,2.2,1.1,3.1
				c0.1,0.1,0.2,0.1,0.3,0.1c0.5-0.3,1-0.6,1.4-1C1327.4,424.8,1327.7,424.1,1327.7,423.2z"/>
			<path class="st29" d="M1229.4,434.8c0,1.1,0.1,2.4-0.1,3.7c-0.1,0.5-0.1,0.9-0.5,1.3c-0.3,0.3-0.8,0.4-1.2,0.4
				c-1.7,0.2-3.4,0.1-5.1-0.1c-0.2,0-0.3-0.1-0.3-0.3c0-0.3,0-0.6,0-0.9c0-0.2,0.1-0.3,0.3-0.2c0.7,0.2,1.4,0.3,2.1,0.2
				c0.6,0,0.8-0.2,0.8-0.8c0.1-0.4,0.1-0.9,0.1-1.3c0-1.8,0-3.6,0-5.4c0-0.3-0.1-0.4-0.4-0.4c-1.3,0.1-2.6,0.1-4,0.1
				c-0.3,0-0.3,0.1-0.2,0.3c0.1,0.9,0.1,0.9-0.7,0.9c-0.8,0-1.7,0-2.5,0c-0.2,0-0.3-0.1-0.3-0.3c-0.3-2.8-0.3-5.6,0-8.3
				c0-0.2,0.1-0.3,0.4-0.3c1,0,2,0,3,0c0.3,0,0.4,0.1,0.3,0.3c0,0.1,0,0.2,0,0.3c-0.1,0.2,0,0.3,0.3,0.2c1.1-0.2,2.2-0.3,3.3-0.5
				c2.5-0.3,5-0.6,7.6-0.5c0.8,0,1.5,0.1,2.2,0.4c1.2,0.5,1.8,1.4,1.9,2.6c0.1,1.1,0,2.1,0,3.2c0,0.2-0.1,0.4,0.3,0.4
				c0.1,0,0.1,0.1,0.1,0.1c0,0,0,0.1,0,0.1c0.1,1.3,0.1,1.3-1.2,1.2c-1.8-0.1-3.5-0.2-5.3-0.2c-0.3,0-0.7-0.2-0.9,0
				c-0.2,0.2-0.1,0.6-0.1,0.9C1229.4,432.9,1229.4,433.7,1229.4,434.8z M1226.8,429.6c1.8,0,3.7,0,5.5,0c0.3,0,0.4-0.1,0.4-0.4
				c0-0.8,0-1.7,0-2.5c0-1.4-0.8-2.1-2.2-2.1c-1.7,0.1-3.5,0.2-5.2,0.4c-1.3,0.2-2.7,0.4-4,0.6c-0.1,0-0.3,0-0.3,0.2
				c-0.1,1.2-0.1,2.4,0,3.6c0,0.2,0.1,0.2,0.3,0.2C1223.1,429.6,1225,429.6,1226.8,429.6z"/>
			<path class="st29" d="M1252.5,419.7c0.6,0,1.2,0,1.9,0.1c2.1,0.3,3,1.6,2.7,3.8c-0.3,2.1-1.2,3.8-2.3,5.5
				c-0.3,0.4-0.6,0.8-0.9,1.2c-0.1,0.2-0.2,0.3,0,0.4c2.4,2,4.3,4.4,6,7c0.2,0.2,0.1,0.4-0.1,0.5c-0.7,0.6-1.4,1.2-2.1,1.8
				c-0.2,0.2-0.3,0.2-0.4,0c-1.2-1.9-2.6-3.6-4.1-5.2c-0.5-0.5-1.1-1-1.7-1.6c-0.2-0.2-0.3-0.1-0.4,0c-2.7,2.5-5.8,4.7-9,6.6
				c-0.3,0.2-0.4,0.1-0.6-0.1c-0.4-0.7-0.9-1.5-1.4-2.2c-0.2-0.3-0.1-0.4,0.1-0.5c2.9-1.5,5.6-3.3,8-5.5c2-1.9,3.8-4,5-6.5
				c0.4-0.8,0.7-1.5,0.7-2.4c0-1.1-0.4-1.5-1.5-1.5c-1.2,0-2.5,0.2-3.7,0.4c-2.2,0.4-4.4,0.9-6.4,1.8c-0.6,0.3-0.6,0.3-0.9-0.4
				c-0.3-0.8-0.3-0.8,0.5-1.1C1245.3,420.6,1248.8,419.8,1252.5,419.7z"/>
			<path class="st29" d="M1431.7,434.3c0.1,2.3,0.1,4.2,0.3,6.1c0,0.3-0.1,0.4-0.4,0.4c-0.9,0-1.8,0-2.7,0c-0.4,0-0.5-0.1-0.5-0.5
				c-0.2-2.7-0.3-5.4-0.3-8.1c-0.1-4.1,0-8.2,0.3-12.3c0-0.4,0.1-0.7,0.1-1.1c0-0.2,0.1-0.3,0.3-0.3c1,0,2-0.1,3,0
				c0.9,0.1,1.7-0.1,2.6-0.1c0.6,0.1,1.1,0.1,1.7,0.2c1.3,0.4,2,1.3,2,2.7c0,2.1-0.1,4.2-0.2,6.4c0,0.2-0.1,0.5,0.3,0.5
				c0.1,0,0.1,0.1,0.1,0.2c0,0.3,0,0.6,0,0.9c0,0.3-0.1,0.3-0.3,0.3c-1,0-2-0.1-3-0.1c-0.9,0-1.9,0-2.8,0c-0.3,0-0.4,0.1-0.4,0.4
				C1431.6,431.5,1431.6,433.1,1431.7,434.3z M1434.4,426.4C1434.5,426.4,1434.5,426.4,1434.4,426.4c0-0.5,0-0.9,0-1.4
				c0-0.2,0-0.3-0.3-0.3c-0.8,0-1.5,0-2.3,0c-0.2,0-0.3,0.1-0.3,0.3c0,0.9,0,1.9-0.1,2.8c0,0.2,0,0.2,0.2,0.2c0.8-0.1,1.5-0.1,2.3,0
				c0.2,0,0.2-0.1,0.2-0.3C1434.4,427.3,1434.4,426.8,1434.4,426.4z M1431.8,421.7C1431.8,421.7,1431.7,421.7,1431.8,421.7
				c0,0.4,0,0.9,0,1.3c0,0.2,0.1,0.3,0.3,0.3c0.8,0,1.5,0,2.3,0c0.2,0,0.2,0,0.2-0.2c0-0.6,0-1.2,0-1.8c0-0.6-0.3-1-0.9-1.2
				c-0.5-0.2-1-0.2-1.5-0.1c-0.2,0-0.3,0.1-0.3,0.3C1431.8,420.7,1431.8,421.2,1431.8,421.7z"/>
			<path class="st29" d="M1456,423.2c-1-1.5-1.1-3-0.1-3.8c1-0.8,2.6-0.8,3.6,0c0.9,0.8,1,2.3,0.3,3.3
				C1458.8,423.8,1457.5,424,1456,423.2c0.1,0.1,0,0.2,0,0.2c-0.2,1-0.2,1,0.8,0.8c2.9-0.5,5.8-1,8.7-1.1c1,0,1.6-0.3,2.1-1.1
				c0.7-1.1,1.5-2.1,2.1-3.3c0.1-0.3,0.2-0.3,0.5-0.2c1,0.4,2,0.9,3.1,1.3c0.3,0.1,0.3,0.2,0.1,0.4c-0.7,1.1-1.5,2.1-2.5,3
				c0.5,0.1,1,0.2,1.5,0.4c1.2,0.5,1.9,1.5,1.9,2.9c0,1.2-0.2,2.5-0.4,3.7c0,0.2-0.1,0.3-0.4,0.3c-1.1,0-2.2,0-3.3,0
				c-0.3,0-0.3-0.1-0.3-0.3c0.3-1.1,0.4-2.2,0.5-3.4c0.1-1.2-0.4-1.8-1.5-2.1c-1.4-0.3-2.9-0.3-4.3-0.2c-2.9,0.2-5.7,0.7-8.5,1.2
				c-0.3,0.1-0.3,0.2-0.3,0.4c-0.1,1.5,0.1,3.1,0.4,4.6c-1.2,0-2.3,0-3.4,0c-0.2,0-0.2-0.1-0.2-0.2c-0.4-2.4-0.4-4.7,0-7.1
				c0-0.3,0.2-0.2,0.4-0.2C1453.8,423.2,1454.9,423.2,1456,423.2z"/>
			<path class="st29" d="M1457,429.6c0-0.5-0.2-1.1,0-1.4c0.2-0.3,0.8-0.4,1.2-0.5c2.4-0.8,4.7-1.4,7.3-1.2c0.8,0,1.6,0.1,2.4,0.3
				c1.1,0.3,1.7,1.1,1.7,2.1c0,0.5-0.3,0.8-0.5,1.1c-0.7,0.9-1.6,1.7-2.4,2.5c-0.1,0.1-0.1,0.1-0.2,0.2c-0.2,0.1-0.1,0.3-0.1,0.4
				c0,0.2,0.2,0.1,0.3,0.1c2.3,0,4.7,0.1,7,0.2c0.3,0,0.4,0.1,0.3,0.4c0,0.3,0,0.5,0,0.8c0,0.3-0.1,0.3-0.4,0.3
				c-2.2-0.1-4.5-0.2-6.7-0.2c-0.4,0-0.4,0.1-0.4,0.4c0.1,1.3,0,2.6-0.2,3.8c-0.1,0.6-0.5,1-1.1,1.2c-1.3,0.4-2.7,0.3-4.1,0.3
				c-1.3,0-2.6-0.2-3.9-0.4c-0.3,0-0.4-0.1-0.3-0.4c0-0.2,0-0.5,0-0.7c0-0.3,0.1-0.4,0.4-0.3c1.3,0.2,2.6,0.4,3.9,0.4
				c0.2,0,0.4,0,0.6,0c0.4-0.1,0.6-0.3,0.7-0.7c0.1-1.1,0.1-2.2,0.1-3.3c0-0.2,0-0.2-0.3-0.2c-3.1,0-6.1,0.1-9.2,0.3
				c-0.2,0-0.4,0-0.3-0.3c0-0.4-0.1-0.8,0.1-1.1c0.2-0.2,0.7-0.1,1-0.1c2.7-0.1,5.4-0.2,8.2-0.2c0.3,0,0.4,0,0.4-0.4
				c-0.1-0.7-0.2-1.4-0.3-2.1c0-0.2,0-0.3,0.2-0.3c0,0,0,0,0,0c1.3,0.3,2.2-0.3,3-1.2c0.2-0.2,0.4-0.5,0.6-0.7
				c0.2-0.2,0.1-0.4-0.1-0.4c-0.2-0.1-0.3-0.1-0.5-0.1c-1.5-0.3-3,0-4.5,0.4c-1.2,0.3-2.4,0.7-3.5,1.1
				C1457.2,429.5,1457.1,429.5,1457,429.6z"/>
			<path class="st29" d="M1372.4,419.5c0.7,0,1.6,0.1,2.5,0.3c2.3,0.7,3.4,2.4,3.3,4.8c-0.2,2.9-1.4,5.3-3,7.5
				c-1.9,2.7-4.3,4.9-6.9,7c-0.3,0.2-0.5,0.4-0.8,0.6c-0.2,0.1-0.3,0.1-0.4,0c-0.7-0.8-1.3-1.6-2-2.4c-0.2-0.2,0-0.3,0.1-0.4
				c1.7-1.3,3.3-2.6,4.8-4.1c1.5-1.6,2.9-3.2,3.8-5.2c0.6-1.4,1-2.8,0.7-4.3c-0.2-1.4-1.3-2.3-2.7-2.3c-1.7,0-3.2,0.4-4.8,0.7
				c-2.1,0.5-4.2,1.1-6.1,2.1c-0.2,0.1-0.2,0.1-0.3-0.1c-0.1-0.3-0.2-0.7-0.4-1c-0.1-0.2,0-0.2,0.1-0.3c2.6-1.2,5.3-2.2,8.1-2.7
				C1369.8,419.6,1371,419.5,1372.4,419.5z"/>
			<path class="st29" d="M1389.5,439c-1.7,0-4.2,0.1-6.8,0.2c-0.3,0-0.4,0-0.3-0.3c0-0.3,0-0.6,0-0.9c0-0.3,0.1-0.3,0.3-0.3
				c1.8,0,3.6-0.1,5.4-0.2c0.7,0,0.7,0,0.7-0.7c0-3.7,0-7.5,0-11.2c0-0.3,0-0.5-0.4-0.5c-1.5,0-2.9-0.1-4.4-0.3
				c-0.4,0-0.5-0.1-0.5-0.6c0.1-0.9,0-0.9,0.9-0.8c3,0.3,5.9,0.3,8.9,0.2c1.1,0,2.2-0.1,3.3-0.2c0.2,0,0.2,0,0.2,0.2
				c0,0.4,0,0.7,0,1.1c0,0.2-0.1,0.2-0.3,0.2c-1.4,0.2-2.8,0.2-4.2,0.2c-0.3,0-0.5,0.1-0.5,0.4c0,3.8,0,7.6,0,11.4
				c0,0.3,0.1,0.5,0.4,0.5c1.9,0,3.8,0.1,5.7,0.2c0.3,0,0.4,0.1,0.3,0.4c0,0.4,0.1,0.8-0.1,1.1c-0.2,0.2-0.7,0-1,0
				C1395,439.1,1392.7,439,1389.5,439z"/>
			<path class="st29" d="M1268.7,427.3c-1.5,0.9-2.9,1.8-4.4,2.7c-0.9,0.5-1.8,0.9-2.6,1.4c-0.2,0.1-0.3,0.1-0.4-0.1
				c-0.1-0.4-0.5-0.8-0.3-1.1c0.1-0.3,0.6-0.4,1-0.5c5.3-2.7,10.1-6.1,14.7-9.9c0.3-0.2,0.5-0.4,0.7-0.7c0.1-0.1,0.2-0.2,0.4,0
				c0.7,1,0.7,0.9-0.2,1.7c-1.7,1.5-3.4,2.8-5.2,4.1c-0.2,0.2-0.3,0.3-0.3,0.6c0,4.7,0,9.5,0,14.2c0,0.3-0.1,0.4-0.4,0.4
				c-0.8,0-1.6,0-2.4,0c-0.3,0-0.4-0.1-0.4-0.4c0-4,0-8,0-12.1C1268.7,427.5,1268.7,427.5,1268.7,427.3z"/>
			<path class="st29" d="M1318.1,421.2c-0.3,1.8-0.7,3.5-1.3,5.2c-0.7,2.2-1.6,4.3-2.9,6.3c-1.4,2-3.3,3.5-5.4,4.8
				c-1.6,1-3.2,1.8-4.9,2.5c-0.3,0.1-0.4,0.1-0.5-0.2c-0.1-0.4-0.4-0.8-0.3-1.1c0.1-0.3,0.6-0.4,1-0.5c2-1,3.9-2.1,5.4-3.8
				c1.8-1.9,2.8-4.2,3.6-6.6c0.7-2.4,1.2-4.9,1.6-7.4c0-0.3,0.1-0.3,0.4-0.3c1,0.3,2,0.5,3.1,0.8C1318,421,1318.2,421,1318.1,421.2z
				"/>
			<path class="st29" d="M1291.1,430.5c-3.2-0.1-6.5-0.1-9.7,0.1c-0.7,0-1.3,0.1-2,0.2c-0.2,0-0.3,0-0.3-0.3c0-0.8,0-1.6,0-2.4
				c0-0.3,0.1-0.4,0.4-0.4c1.4-0.1,2.8-0.1,4.1-0.2c2.6-0.1,5.1-0.1,7.7-0.1c2.1,0,4.1,0.1,6.2,0.2c0.3,0,0.4,0.1,0.4,0.4
				c0,0.8,0,1.6,0,2.4c0,0.2,0,0.3-0.3,0.3c-1.8-0.2-3.6-0.2-5.5-0.3C1291.8,430.5,1291.5,430.5,1291.1,430.5z"/>
			<path class="st29" d="M1227.2,421.4c-3.4,0-6.9,0.1-10.4,0.3c-0.2,0-0.3,0-0.3-0.3c0-0.4-0.1-0.8,0.1-1.1c0.2-0.2,0.7-0.1,1-0.1
				c2.5-0.1,4.9-0.2,7.4-0.2c0.4,0,0.4-0.1,0.4-0.4c0-0.3,0-0.6,0-1c0-0.2,0.1-0.3,0.3-0.3c1.2,0,2.3,0,3.5,0c0.2,0,0.3,0.1,0.3,0.3
				c0,0.4,0,0.7,0,1.1c0,0.2,0,0.3,0.3,0.3c2.4,0,4.7,0.1,7.1,0.2c0.4,0,0.9,0.1,1.3,0.1c0.2,0,0.3,0.1,0.2,0.2c0,0,0,0,0,0
				c0,0.4,0.1,0.8,0,1.1c-0.2,0.3-0.7,0.1-1,0C1233.9,421.4,1230.6,421.4,1227.2,421.4z"/>
			<path class="st29" d="M1301.7,420.2c0.2,0,0.2,0.2,0.2,0.3c0.8,1.9,1.6,3.8,2.3,5.7c0.4,1.3,0.9,2.5,1.2,3.8
				c0.1,0.3,0,0.4-0.2,0.5c-0.8,0.3-1.6,0.6-2.3,0.9c-0.2,0.1-0.3,0.1-0.4-0.2c-0.9-3.2-2-6.4-3.4-9.4c-0.1-0.2,0-0.3,0.1-0.3
				c0.8-0.4,1.6-0.8,2.4-1.2C1301.6,420.3,1301.6,420.3,1301.7,420.2z"/>
			<path class="st29" d="M1310.7,428.2c0,0.1-0.1,0.1-0.2,0.2c-0.8,0.3-1.7,0.7-2.5,1c-0.3,0.1-0.2-0.1-0.3-0.2
				c-0.4-1.6-0.9-3.2-1.5-4.7c-0.5-1.3-1-2.7-1.6-4c-0.1-0.3-0.1-0.4,0.2-0.5c0.8-0.3,1.5-0.6,2.3-0.9c0.2-0.1,0.3-0.1,0.4,0.1
				c1.2,2.9,2.3,5.8,3.1,8.8C1310.7,428.1,1310.7,428.1,1310.7,428.2z"/>
			<path class="st29" d="M1494.3,419.4c0,0.4-0.1,0.8,0,1.1c0.2,0.2,0.7,0.1,1,0.1c1,0.1,1.9,0.2,2.9,0.2c0.2,0,0.3,0.1,0.3,0.3
				c0,0.3,0,0.5,0,0.8c0,0.3-0.1,0.4-0.4,0.3c-2-0.2-4-0.3-6-0.3c-1.8,0-3.6,0.1-5.4,0.3c-0.4,0-0.5-0.1-0.4-0.4c0-1,0-1,1-1.1
				c0.9-0.1,1.8-0.1,2.7-0.2c0.2,0,0.3-0.1,0.3-0.3c0-0.6,0-1.2,0-1.7c0-0.2,0.1-0.3,0.3-0.3c1.1,0,2.2,0,3.3,0
				c0.2,0,0.3,0.1,0.3,0.3C1494.2,418.8,1494.3,419.1,1494.3,419.4C1494.3,419.4,1494.3,419.4,1494.3,419.4z"/>
			<path class="st29" d="M1223.3,433.8c0,0.1-0.1,0.1-0.1,0.2c-1,2.1-2.3,4.1-3.9,5.9c-0.1,0.2-0.2,0.2-0.4,0.1
				c-0.8-0.4-1.7-0.8-2.5-1.2c-0.2-0.1-0.3-0.2-0.1-0.4c1.5-1.7,2.8-3.5,3.9-5.5c0.1-0.2,0.2-0.3,0.4-0.2c0.8,0.3,1.7,0.6,2.5,0.8
				C1223.2,433.7,1223.3,433.6,1223.3,433.8z"/>
			<path class="st29" d="M1234.5,432.6c0.1,0,0.2,0.1,0.2,0.2c1,1.9,2.2,3.8,3.4,5.6c0.1,0.2,0.1,0.2-0.1,0.4
				c-0.8,0.4-1.7,0.8-2.5,1.3c-0.3,0.1-0.3,0-0.4-0.2c-1-1.6-2-3.2-2.9-4.9c-0.2-0.3-0.3-0.7-0.5-1c-0.1-0.1-0.1-0.2,0.1-0.2
				C1232.7,433.4,1233.6,433,1234.5,432.6C1234.5,432.6,1234.5,432.6,1234.5,432.6z"/>
			<path class="st29" d="M1411.6,438c0,1.4-1.1,2.5-2.5,2.5c-1.4,0-2.5-1.1-2.5-2.5c0-1.5,1-2.5,2.5-2.5
				C1410.7,435.5,1411.6,436.5,1411.6,438z"/>
			<path class="st29" d="M1464.2,418.2c1.5,0,2.4,0.9,2.4,2.4c0,1.3-1.1,2.5-2.4,2.5c-1.3,0-2.4-1.2-2.4-2.5
				C1461.8,419.1,1462.7,418.2,1464.2,418.2z"/>
			<path class="st30" d="M1160.7,428.6c0.7,0.8,1.6,1,2.5,1.3c0.3,0.1,0.6,0.2,0.9,0.3c1,0.3,1.4,1,1.3,2.1c-0.1,1-0.7,1.6-1.6,1.8
				c-0.4,0.1-0.8,0.1-1.2,0c-1.1-0.2-1.3-0.4-1.6-1.5c-0.1-0.6-0.2-1.2-0.3-1.8C1160.7,430.1,1160.7,429.4,1160.7,428.6z"/>
			<path class="st30" d="M1163.6,424.2c0.7,0,1.4,0.3,2.1,0.7c0.1,0.1,0.2,0.2,0.2,0.3c0.2,0.9,0.4,1.8,0.7,2.8
				c0,0.2,0.1,0.3-0.2,0.2c-0.5-0.1-0.5,0.2-0.5,0.6c0,0.4,0,0.4-0.4,0.2c-0.7-0.4-1.4-0.5-2.2-0.8c-0.1,0-0.2-0.1-0.3-0.1
				c-1.2-0.4-1.7-1.2-1.5-2.5C1161.6,424.8,1162.4,424.2,1163.6,424.2z"/>
			<path class="st30" d="M1168.6,424.8c0.3,1.1,0.7,2.2,1,3.2c0,0.1,0,0.2-0.1,0.2c-0.6,0-1.1,0-1.7,0c-0.2,0-0.2-0.1-0.1-0.2
				C1167.9,427,1168.3,426,1168.6,424.8z"/>
			<path class="st30" d="M1178.7,425.3c-0.3,0-0.6,0-0.9,0c-0.2,0-0.2-0.1-0.2-0.3c0.1-0.5,0.6-0.9,1.1-0.9c0.7,0,1,0.3,1.1,0.9
				c0,0.2,0,0.4-0.3,0.3C1179.3,425.3,1179,425.3,1178.7,425.3z"/>
			<path class="st30" d="M1174.1,425.3c-0.3,0-0.6,0-0.9,0c-0.2,0-0.3-0.1-0.2-0.3c0.1-0.5,0.6-0.9,1.2-0.9c0.6,0,1,0.3,1.1,0.9
				c0,0.2,0,0.3-0.2,0.3C1174.7,425.3,1174.4,425.3,1174.1,425.3z"/>
			<path class="st30" d="M1182.4,433.3c-0.3,0-0.6,0-0.9,0c-0.2,0-0.2-0.1-0.2-0.2c0.1-0.5,0.6-0.9,1.2-0.9c0.6,0,0.9,0.3,1,0.9
				c0,0.2,0,0.3-0.3,0.3C1183,433.2,1182.7,433.3,1182.4,433.3z"/>
			<path class="st30" d="M1187.1,425.7c-0.5-0.2-1.1-0.3-1.6-0.5c-0.3-0.1-0.5-0.3-0.5-0.6c0-0.3,0.2-0.5,0.5-0.5
				c0.6-0.2,1,0,1.2,0.6C1186.9,425,1187,425.3,1187.1,425.7z"/>
			<path class="st30" d="M1162.5,422.9C1162.5,422.9,1162.5,422.9,1162.5,422.9C1162.5,422.9,1162.5,422.9,1162.5,422.9
				C1162.5,422.8,1162.5,422.9,1162.5,422.9z"/>
			<path class="st28" d="M1198.4,432.3c-0.7,0-1.4,0.1-2.1,0.1c-0.2,0-0.3,0-0.3-0.3c0-0.8,0-1.6-0.1-2.5c0-0.3,0.2-0.3,0.4-0.3
				c1.1,0,2.3-0.1,3.4-0.1c0.1,0,0.1,0,0.2,0c0.9,0,0.9,0,0.9,0.8c0,0.6,0,1.3,0,1.9c0,0.2-0.1,0.3-0.3,0.3
				C1199.8,432.2,1199.1,432.2,1198.4,432.3C1198.4,432.2,1198.4,432.2,1198.4,432.3z"/>
			<path class="st28" d="M1207.1,429.2c0.7,0,1.3,0.1,2,0.1c0.2,0,0.2,0,0.2,0.2c-0.1,0.8-0.1,1.7-0.2,2.5c0,0.2-0.1,0.2-0.3,0.2
				c-1.3,0-2.6,0-3.9-0.1c-0.2,0-0.2-0.1-0.2-0.2c0-0.9,0-1.7,0-2.6c0-0.2,0.1-0.2,0.3-0.2C1205.7,429.1,1206.4,429.1,1207.1,429.2
				C1207.1,429.1,1207.1,429.2,1207.1,429.2z"/>
			<path class="st28" d="M1207,427.7c-0.7,0-1.3,0-2,0c-0.2,0-0.2-0.1-0.2-0.3c0-0.8,0-1.6,0-2.4c0-0.2,0-0.3,0.2-0.3
				c0.8,0,1.5-0.1,2.3,0c0.9,0.1,1.5,0.5,1.7,1.4c0.1,0.5,0.2,0.9,0.2,1.4c0,0.2,0,0.3-0.3,0.3c-0.7,0-1.3,0-2,0
				C1207,427.7,1207,427.7,1207,427.7z"/>
			<path class="st28" d="M1198.4,427.7c-0.7,0-1.4,0.1-2.1,0.1c-0.2,0-0.3,0-0.3-0.2c0-0.5,0.1-1.1,0.1-1.6c0-0.2,0.1-0.3,0.3-0.4
				c1.4-0.2,2.8-0.4,4.1-0.5c0.2,0,0.3,0,0.3,0.2c0,0.7,0,1.4,0,2.1c0,0.2-0.1,0.3-0.2,0.3C1199.8,427.7,1199.1,427.7,1198.4,427.7
				C1198.4,427.7,1198.4,427.7,1198.4,427.7z"/>
			<path class="st28" d="M1480.7,427.7c0.1-1.5,0.1-3,0.2-4.4c0-0.2,0.1-0.3,0.3-0.3c0.2,0,0.2,0.1,0.2,0.3c0,1.2,0,2.4,0,3.6
				C1481.4,427.3,1481,427.4,1480.7,427.7z"/>
			<path class="st28" d="M1494.8,427.7C1494.8,427.7,1494.8,427.8,1494.8,427.7C1494.7,427.8,1494.7,427.8,1494.8,427.7
				C1494.7,427.7,1494.7,427.7,1494.8,427.7z"/>
			<path class="st28" d="M1489.2,428.4C1489.1,428.4,1489.1,428.5,1489.2,428.4C1489,428.4,1489.1,428.4,1489.2,428.4
				C1489.1,428.4,1489.1,428.4,1489.2,428.4z"/>
			<path class="st28" d="M1412.3,429.1c0,0.3,0.2,0.7-0.1,0.9c-0.2,0.2-0.6,0-0.9,0.1c-1.1,0-2.2,0.1-3.2,0.1
				c-0.3,0-0.3-0.1-0.4-0.3c0-0.5-0.1-1-0.1-1.5c0-0.2,0-0.2,0.2-0.2c1.4,0,2.9-0.1,4.3-0.2c0.2,0,0.2,0.1,0.2,0.2
				C1412.3,428.5,1412.3,428.8,1412.3,429.1z"/>
			<path class="st28" d="M1418.1,426.5c-0.6,0-1.1,0-1.7,0c-0.2,0-0.3,0-0.3-0.2c0-0.6,0-1.2,0-1.8c0-0.2,0-0.3,0.2-0.3
				c0.9,0,1.8-0.1,2.6,0c0.7,0,1,0.4,1,1.1c0,0.4,0,0.8,0,1.2c0,0.2,0,0.2-0.2,0.2C1419.3,426.6,1418.7,426.6,1418.1,426.5
				C1418.1,426.5,1418.1,426.5,1418.1,426.5z"/>
			<path class="st28" d="M1409.9,426.6c-0.7,0-1.3,0.1-2,0.1c-0.2,0-0.3,0-0.3-0.3c0-0.3,0.1-0.6,0.1-1c0-0.4,0.1-0.5,0.5-0.5
				c1.3-0.1,2.5-0.3,3.8-0.4c0.3,0,0.4,0.1,0.4,0.3c0,0.5,0,0.9,0,1.4c0,0.2-0.1,0.3-0.3,0.3
				C1411.3,426.5,1410.6,426.5,1409.9,426.6C1409.9,426.5,1409.9,426.6,1409.9,426.6z"/>
			<path class="st28" d="M1418.1,430.1c-0.6,0-1.1,0-1.7,0c-0.2,0-0.3-0.1-0.3-0.3c0-0.5,0-1,0-1.5c0-0.2,0-0.3,0.3-0.3
				c1.1,0,2.2,0.1,3.3,0.1c0.3,0,0.4,0.1,0.4,0.4c0,0.4,0,0.9,0,1.3c0,0.3-0.1,0.3-0.3,0.3C1419.2,430.1,1418.6,430.1,1418.1,430.1
				C1418.1,430.1,1418.1,430.1,1418.1,430.1z"/>
			<path class="st28" d="M1175.9,436c-0.4,0.3-0.8,0.5-1.3,0.5c-0.8,0-1.4-0.4-1.6-1.2c-0.2-0.9,0.1-1.6,0.9-2
				c0.5-0.2,1-0.3,1.5-0.3c0.2,0,0.5,0.2,0.5-0.2c0-0.3-0.2-0.6-0.5-0.7c-0.4-0.1-0.8-0.1-1.2,0c-0.2,0-0.4,0.1-0.6,0.2
				c-0.2,0.1-0.3,0-0.3-0.2c0-0.8-0.1-0.7,0.7-0.8c0.5-0.1,1-0.1,1.5-0.1c0.9,0.2,1.4,0.7,1.4,1.6c0,1.1,0,2.2,0,3.3
				c0,0.3-0.1,0.4-0.3,0.3C1176.3,436.4,1175.9,436.7,1175.9,436z M1175.9,434.5c0-0.1,0-0.3,0-0.4c0-0.1,0-0.2-0.2-0.2
				c-0.5,0.1-0.9,0.1-1.4,0.3c-0.4,0.2-0.5,0.5-0.4,1c0.1,0.4,0.4,0.5,0.8,0.5C1175.5,435.7,1175.9,435.2,1175.9,434.5z"/>
			<path class="st28" d="M1444,427.7c-0.4,0-0.9,0-1.3,0c-0.2,0-0.3,0-0.3-0.3c0-0.8-0.1-1.6-0.1-2.5c0-0.2,0.1-0.3,0.3-0.3
				c0.9,0,1.7-0.1,2.6,0c0.2,0,0.3,0.1,0.3,0.3c0,0.8,0,1.6,0.1,2.5c0,0.3-0.1,0.3-0.3,0.3C1444.8,427.7,1444.4,427.7,1444,427.7
				C1444,427.7,1444,427.7,1444,427.7z"/>
			<path class="st28" d="M1443.9,423.2c-0.4,0-0.9,0-1.3,0c-0.2,0-0.3-0.1-0.2-0.2c0.1-0.8,0.1-1.6,0.2-2.5c0-0.1,0.1-0.2,0.2-0.2
				c0.6-0.2,1.2-0.2,1.8-0.1c0.4,0.1,0.7,0.4,0.8,0.8c0.2,0.7,0.1,1.4,0.2,2c0,0.2-0.1,0.2-0.2,0.2
				C1444.8,423.2,1444.3,423.2,1443.9,423.2C1443.9,423.2,1443.9,423.2,1443.9,423.2z"/>
			<path class="st28" d="M1325,436.8c-2,0-3-1.3-2.8-3.1c0.2-1.3,1-2.1,2-2.8c0.2-0.2,0.2,0.1,0.3,0.2c0.9,1.3,1.9,2.6,2.9,3.9
				c0.4,0.5,0.4,0.5-0.1,0.9C1326.5,436.4,1325.7,436.8,1325,436.8z"/>
			<path class="st28" d="M1327.7,423.2c0,0.8-0.3,1.5-0.9,2.1c-0.4,0.4-0.9,0.7-1.4,1c-0.1,0.1-0.2,0.1-0.3-0.1
				c-0.5-1-1.1-2-1.1-3.1c0-0.3,0-0.5,0.1-0.8c0.3-1,0.9-1.4,1.9-1.3c0.9,0.1,1.6,0.8,1.7,1.7C1327.7,423,1327.7,423.1,1327.7,423.2
				z"/>
			<path class="st28" d="M1226.8,429.6c-1.9,0-3.7,0-5.6,0.1c-0.2,0-0.3,0-0.3-0.2c-0.1-1.2,0-2.4,0-3.6c0-0.2,0.1-0.2,0.3-0.2
				c1.3-0.2,2.7-0.4,4-0.6c1.7-0.2,3.5-0.4,5.2-0.4c1.4-0.1,2.2,0.6,2.2,2.1c0,0.8,0,1.7,0,2.5c0,0.3,0,0.4-0.4,0.4
				C1230.5,429.6,1228.7,429.6,1226.8,429.6z"/>
			<path class="st28" d="M1434.4,426.4c0,0.4-0.1,0.9-0.1,1.3c0,0.2,0,0.3-0.2,0.3c-0.8,0-1.5,0-2.3,0c-0.2,0-0.2-0.1-0.2-0.2
				c0-0.9,0.1-1.9,0.1-2.8c0-0.2,0.1-0.2,0.3-0.3c0.8,0,1.5,0,2.3,0c0.2,0,0.3,0.1,0.3,0.3C1434.5,425.5,1434.5,425.9,1434.4,426.4
				C1434.5,426.4,1434.5,426.4,1434.4,426.4z"/>
			<path class="st28" d="M1431.8,421.7c0-0.5,0.1-0.9,0.1-1.4c0-0.2,0.1-0.3,0.3-0.3c0.5-0.1,1-0.1,1.5,0.1c0.6,0.2,0.9,0.6,0.9,1.2
				c0,0.6,0,1.2,0,1.8c0,0.2-0.1,0.2-0.2,0.2c-0.8,0-1.5,0-2.3,0c-0.2,0-0.3,0-0.3-0.3C1431.7,422.6,1431.7,422.1,1431.8,421.7
				C1431.7,421.7,1431.8,421.7,1431.8,421.7z"/>
			<path class="st30" d="M1175.9,434.5c0,0.7-0.4,1.2-1.2,1.2c-0.3,0-0.7-0.1-0.8-0.5c-0.1-0.5,0-0.8,0.4-1c0.4-0.2,0.9-0.2,1.4-0.3
				c0.1,0,0.2,0.1,0.2,0.2C1175.9,434.2,1175.9,434.4,1175.9,434.5z"/>
		</g>
	</g>
	<g>
		<g id="XMLID_249_">
			<g id="XMLID_250_">
				<path id="XMLID_557_" class="st31" d="M1123,367.7c0,0,0.2-5.7,1.2-6.4c1-0.7,8.8-0.3,9.9,0.2s1.3,6.2,1.3,6.2H1123z"/>
				<path id="XMLID_278_" class="st32" d="M1122.6,367.5c0,0,0.2-4.8,1.1-5.7c0.9-0.9,7.6-0.9,9.8-0.4c2.2,0.5,1.5,6.2,1.5,6.2"/>
				<path id="XMLID_277_" class="st33" d="M1147.7,427.7c-0.8,2.1-1.6,3.5-2,4c-1,1.6-35.2,6-35.2,6c-40.3,3.2-34-1.5-40.5-3.4
					c-1.6-0.5-2.3-0.8-2.3-0.8c-10.4-10-3.2-52.3-3.2-52.3c1.2-13.4,7.8-13,7.8-13l66.4-0.8c11.2,3.8,10.4,27.1,11.4,41.1
					C1150.7,417.5,1149.2,423.9,1147.7,427.7z"/>
				<path id="XMLID_276_" class="st34" d="M1067.1,380.1c0,0,30.3-2.1,51-1.6s28.6,1.3,28.6,1.3s0-13.2-10.9-12.5
					c-10.9,0.7-47.1,0.4-47.1,0.4s-17.3,0.5-19.6,2s-3.7,7.5-3.9,10.5L1067.1,380.1z"/>
				<path id="XMLID_275_" class="st31" d="M1077.2,367.7c0,0,0.2-5.7,1.2-6.4c1-0.7,8.8-0.3,9.9,0.2s1.3,6.2,1.3,6.2H1077.2z"/>
				<path id="XMLID_274_" class="st33" d="M1101.6,370.8c0,0,5.3-0.9,6.2-0.3c0.9,0.5,1.2,4.9,1.1,5.5c-0.1,0.6-4.6,1.5-6.1,1
					c-1.5-0.5-2.7-2-2.7-2L1101.6,370.8z"/>
				<path id="XMLID_273_" class="st35" d="M1068.7,379.9c0,0,0.7-4.1,3.7-7.1c3.1-2.9,60.1-2.4,64.2-2.5c4.1-0.1,5.9,3.3,6.3,4.5
					c0.4,1.2,0.9,4.5,0.9,4.5l2.9,0.4c0,0-0.4-12-10.9-12.5c-10.5-0.5-63.5,0.9-63.5,0.9s-5.5,2.5-5.6,4.4c-0.1,1.9-1.5,8.1-1.5,8.1
					L1068.7,379.9z"/>
				<path id="XMLID_272_" class="st36" d="M1140.9,379.8c0,0,3.2,22.4-0.4,37.9c-3.6,15.6-14.2,13.8-21.6,13.8s19.8,2.8,25-1
					c5.2-3.8,5.2-7.2,5.2-7.2s2.5-26.3-2.3-43.5l-6.2-0.6L1140.9,379.8z"/>
				<path id="XMLID_271_" class="st37" d="M1065.7,375.4c0,0-8.4,45.9,0.4,56.7c8.8,10.8,70.4,6.2,79.4-0.4c9-6.6,2.6-50.9-0.2-58.1
					c-2.8-7.2-7.6-6-17.2-6.4c-9.6-0.4-47.2,0.6-51.4,0.8C1072.5,368.2,1067.9,367.6,1065.7,375.4z"/>
				<path id="XMLID_270_" class="st32" d="M1067.9,380.1c18.4-1.5,34.1-1.3,34.1-1.3"/>
				<path id="XMLID_269_" class="st37" d="M1101,371c0,0-0.8,2.6-0.2,4.4c0.6,1.8,7,1,7.9,0.5c0.9-0.5,0.2-4.3-0.4-5.2
					C1107.7,369.8,1102,370.1,1101,371z"/>
				<path id="XMLID_268_" class="st32" d="M1076.9,367.5c0,0,0.2-4.8,1.1-5.7c0.9-0.9,7.6-0.9,9.8-0.4c2.2,0.5,1.5,6.2,1.5,6.2"/>
				<path id="XMLID_267_" class="st32" d="M1107.7,379c0,0,16.8-0.6,33,0.4"/>
				<line id="XMLID_266_" class="st38" x1="1068.7" y1="387.4" x2="1072.4" y2="387.5"/>
				<line id="XMLID_265_" class="st38" x1="1067.7" y1="392.4" x2="1072.7" y2="392.2"/>
				<line id="XMLID_264_" class="st38" x1="1067.5" y1="397.6" x2="1072.5" y2="397.7"/>
				<line id="XMLID_263_" class="st38" x1="1067.1" y1="416.1" x2="1072.1" y2="416.3"/>
				<line id="XMLID_262_" class="st38" x1="1068.3" y1="421.6" x2="1073.3" y2="421.7"/>
				<line id="XMLID_261_" class="st38" x1="1070.3" y1="426.4" x2="1073.8" y2="426.5"/>
				<line id="XMLID_260_" class="st38" x1="1067.2" y1="404.3" x2="1072.1" y2="404.3"/>
				<line id="XMLID_259_" class="st38" x1="1067.5" y1="410.4" x2="1072.4" y2="410.4"/>
				<line id="XMLID_258_" class="st38" x1="1144.4" y1="388" x2="1140.7" y2="388"/>
				<line id="XMLID_257_" class="st38" x1="1145.4" y1="392.9" x2="1140.4" y2="392.8"/>
				<line id="XMLID_256_" class="st38" x1="1145.6" y1="398.1" x2="1140.6" y2="398.2"/>
				<line id="XMLID_255_" class="st38" x1="1146" y1="416.7" x2="1141" y2="416.8"/>
				<line id="XMLID_254_" class="st38" x1="1144.8" y1="422.1" x2="1139.8" y2="422.3"/>
				<line id="XMLID_253_" class="st38" x1="1142.8" y1="426.9" x2="1139.4" y2="427"/>
				<line id="XMLID_252_" class="st38" x1="1145.9" y1="404.3" x2="1141" y2="404.3"/>
				<line id="XMLID_251_" class="st38" x1="1145.6" y1="410.9" x2="1140.7" y2="410.9"/>
			</g>
		</g>
		<g>
			<path class="st39" d="M1119.6,463.8c0.5-2.1,2.5-3.7,4.8-3.8c0,0,0,0,0,0c0,0,0,0,0,0s0,0,0,0c2.3,0,4.3,1.6,4.8,3.8H1119.6z"/>
			<path class="st39" d="M1095.9,459.6c1.8,1.4,2.4,3.9,1.5,5.9l-7.6-5.9c0.7-0.6,1.5-0.9,2.5-1
				C1093.6,458.5,1094.9,458.8,1095.9,459.6z"/>
			<path class="st40" d="M1098.1,454.2c-0.5,1-1.1,2-1.8,2.9c-0.5-0.3-1.1-0.5-1.7-0.7c0.7-0.9,1.3-1.8,1.8-2.8
				C1096.9,453.9,1097.4,454.1,1098.1,454.2z"/>
			<path class="st40" d="M1122.1,452c0.6,1.8,1,3.8,1.1,5.8c-0.6,0.1-1.2,0.3-1.8,0.5c0-2.1-0.4-4-1-5.9
				C1120.8,452.2,1121.4,452.1,1122.1,452z"/>
			<path class="st36" d="M1128.1,451.2c0,0.1,0,0.2-0.1,0.3c-0.1,0.1-0.2,0.1-0.3,0c-0.3-0.1-0.5-0.3-0.8-0.5
				c-0.9-0.6-2-1.2-3.9-1.3c-0.1,0-0.1,0-0.2,0c-0.1,0-0.3,0-0.4,0c-2.1,0-3.3,0.7-4.3,1.3c0,0,0,0,0,0c0,0-0.1,0.1-0.1,0.1
				c-0.9,0.6-1.6,1-3.2,1c-1.6,0-2.3-0.4-3.2-1c-1-0.6-2.2-1.4-4.4-1.4c-2.2,0-3.4,0.7-4.4,1.4c-0.9,0.6-1.6,1-3.2,1
				c-1.6,0-2.3-0.4-3.2-1c0,0-0.1,0-0.1-0.1c0,0,0,0,0,0c-1-0.6-2.1-1.3-4.3-1.3c-2.2,0-3.4,0.7-4.4,1.4c-0.3,0.2-0.6,0.3-0.8,0.5
				c-0.1,0.1-0.2,0-0.3,0c-0.1-0.1-0.1-0.2-0.1-0.3l5.9-17.9c0.5,0.2,1,0.4,1.5,0.6c-0.6,0.4-1,0.9-1.3,1.5
				c-0.3,0.8-0.3,1.8,0.1,2.6c0.4,0.8,1.1,1.4,2,1.7c1.9,0.6,4.8,1.2,8.3,1.2c4.7,0,8.9-1.2,12.4-3.5c1.3-0.8,2.4-1.8,3.5-2.9
				c0.2-0.1,0.4-0.1,0.5-0.2c0,0,0,0,0.1,0c0.1,0,0.1,0,0.2-0.1c0,0,0,0,0,0c0.9-0.3,1.7-0.6,2.5-1L1128.1,451.2z"/>
			<path class="st41" d="M1122.6,453.7c-0.1-0.6-0.3-1.1-0.5-1.7c-0.7,0-1.3,0.2-1.7,0.4c0.2,0.5,0.3,1,0.5,1.4
				c0.5-0.1,1-0.2,1.7-0.2C1122.5,453.7,1122.6,453.7,1122.6,453.7z"/>
			<path class="st41" d="M1095.9,454.6c0.2,0.1,0.5,0.3,0.7,0.4c0,0,0,0,0,0c0,0,0.1,0,0.1,0.1c0.2,0.2,0.5,0.3,0.7,0.4
				c0.3-0.4,0.5-0.9,0.7-1.3c-0.7-0.1-1.2-0.4-1.7-0.6C1096.2,454,1096.1,454.3,1095.9,454.6z"/>
			<path class="st40" d="M1125.1,434.5c5.2-0.6,9.4-3.2,12.2-7.7c0.2-0.4,0.2-0.9,0-1.3c-0.3-0.4-0.4-0.9-0.4-1.3
				c0-0.7,0.2-1.5,0.8-2c0.5-0.6,1.2-0.9,2-0.9c0.7,0,1.5,0.3,2,0.8c0.5,0.5,0.8,1.2,0.8,2c0,1.5-1.1,2.6-2.5,2.8
				c-0.4,0-0.7,0.2-0.9,0.6c-3.7,6.1-9.2,8.2-13.4,8.8L1125.1,434.5z"/>
			<path class="st40" d="M1119.8,429.6c-0.4,0.7-0.9,1.4-1.5,2.1c-0.2,0.2-0.3,0.4-0.5,0.6c-0.1,0.1-0.2,0.2-0.3,0.4
				c-1,1.1-2.1,2-3.3,2.8c-3.1,2.1-6.8,3.1-11.1,3.1c-3.2,0-5.9-0.6-7.6-1.1c-0.2-0.1-0.4-0.2-0.5-0.5c-0.1-0.2-0.1-0.5,0-0.7
				c0.1-0.3,0.5-0.5,0.8-0.5c0.1,0,0.2,0,0.3,0c2.5,0.7,7.3,1.7,12.1,0.5c0,0,0,0,0.1,0c4.2-1.1,7.5-3.5,9.9-7.2
				c0.2-0.4,0.2-0.9,0-1.3c-0.3-0.4-0.4-0.9-0.4-1.4c0-0.7,0.2-1.5,0.8-2c0.5-0.6,1.2-0.9,1.9-0.9c0,0,0,0,0,0c0.8,0,1.5,0.3,2,0.8
				c0.5,0.5,0.8,1.2,0.8,2c0,1.5-1.1,2.6-2.5,2.8C1120.3,429.1,1119.9,429.3,1119.8,429.6z"/>
			<path class="st42" d="M1102.5,416.4h9.8c-0.1,2.6-2.3,4.7-4.9,4.7C1104.7,421.1,1102.6,419,1102.5,416.4z"/>
			<path class="st40" d="M1107.4,385.4c-14.5,0-26.2,11-26.2,24.6c0,6,2.3,11.7,6.4,16.1c1.5,1.7,3.3,3.1,5.3,4.4c1,0.6,2,1.1,3,1.6
				c3.3,1.1,6.7,1.7,10.2,1.9c0.3,0,0.4,0,0.6,0c0.3,0,0.5,0,0.7,0c0.1,0,0.2,0,0.3,0c2.1-0.5,4-1.5,5.5-2.9
				c0.9-0.8,1.7-1.7,2.4-2.7c-0.3-0.6-0.4-1.2-0.4-1.8c-0.1-1.4,0.4-2.7,1.4-3.7c0.9-1,2.3-1.6,3.6-1.7c1.4,0,2.7,0.5,3.7,1.5
				c1,1,1.6,2.3,1.6,3.7c0,0.3,0,0.5-0.1,0.8c0,0.3-0.1,0.6-0.2,0.9c0.7-0.6,1.3-1.2,1.9-1.9c4.1-4.4,6.4-10.1,6.4-16.1
				C1133.6,396.4,1121.8,385.4,1107.4,385.4z M1093.6,407.7c1.5,0,2.8,1.3,2.8,2.8s-1.2,2.8-2.8,2.8c-1.5,0-2.8-1.3-2.8-2.8
				S1092.1,407.7,1093.6,407.7z M1114.7,416.2c0,4-3.3,7.3-7.3,7.3c-4,0-7.3-3.3-7.3-7.3v-1c0-0.6,0.5-1.2,1.2-1.2h12.2
				c0.7,0,1.2,0.5,1.2,1.2V416.2z M1115.8,399.9c-1.7,0-3.2-1-4.2-2.6c-1,1.6-2.5,2.6-4.2,2.6s-3.2-1-4.2-2.6
				c-1,1.6-2.5,2.6-4.2,2.6c-3,0-5.4-3.1-5.4-6.9c0-0.7,0.5-1.2,1.2-1.2c0.6,0,1.2,0.5,1.2,1.2c0,2.5,1.4,4.6,3,4.6
				c1.6,0,3-2.1,3-4.6c0-0.7,0.5-1.2,1.2-1.2c0.6,0,1.2,0.5,1.2,1.2c0,2.5,1.4,4.6,3,4.6c1.6,0,3-2.1,3-4.6c0-0.7,0.5-1.2,1.2-1.2
				c0.6,0,1.2,0.5,1.2,1.2c0,2.5,1.4,4.6,3,4.6c1.6,0,3-2.1,3-4.6c0-0.7,0.5-1.2,1.2-1.2c0.6,0,1.2,0.5,1.2,1.2
				C1121.1,396.8,1118.7,399.9,1115.8,399.9z M1121.1,413.3c-1.5,0-2.8-1.3-2.8-2.8s1.3-2.8,2.8-2.8c1.5,0,2.8,1.3,2.8,2.8
				S1122.6,413.3,1121.1,413.3z"/>
			<g>
				<path class="st43" d="M1125.3,427.9c0.1-0.1,0.2-0.2,0.3-0.2c0-0.2,0-0.4-0.1-0.6C1125.4,427.4,1125.3,427.7,1125.3,427.9z"/>
				<path class="st43" d="M1115.2,428.2c0,0.2,0,0.4,0.1,0.6c0.1-0.2,0.2-0.3,0.4-0.5c-0.2-0.4-0.3-0.8-0.4-1.2
					C1115.3,427.5,1115.2,427.9,1115.2,428.2z"/>
				<path class="st44" d="M1107.4,387.1c14.2,0,25.7,10.6,26.2,23.8c0-0.3,0-0.6,0-0.9c0-13.6-11.8-24.6-26.2-24.6
					c-14.5,0-26.2,11-26.2,24.6c0,0.3,0,0.6,0,0.9C1081.6,397.7,1093.2,387.1,1107.4,387.1z"/>
			</g>
			<path class="st45" d="M1143.3,420.4c-1-1-2.3-1.5-3.7-1.5c0,0,0,0-0.1,0c-5.3,0.9-4.9,6-4.9,6c0.1,0.4,0.2,0.8,0.4,1.2
				c-2.5,3.5-5.9,5.5-10.2,6l6.2-7c3.2-4.4,5-9.7,5-15.2c0-14.9-12.8-26.9-28.6-26.9c-15.7,0-28.6,12.1-28.6,26.9
				c0,5.5,1.8,10.7,4.9,15.2l0,0c2.2,3.4,6.8,6.7,6.8,6.7l-0.2,0.5l-6,18.1c-0.3,1,0,2.1,0.8,2.8c0.8,0.7,2,0.8,2.9,0.3
				c0.4-0.2,0.7-0.4,1-0.6c0.9-0.6,1.6-1,3.2-1c0.9,0,1.6,0.2,2.1,0.4c-0.7,1.4-1.6,2.7-2.8,3.9c-1.8,0.3-3.4,1.3-4.5,2.7
				c-0.4,0.5-0.3,1.3,0.2,1.7l9.7,7.5c0.2,0.2,0.5,0.2,0.7,0.2c0.1,0,0.1,0,0.2,0c0.3,0,0.6-0.2,0.8-0.4c1.2-1.5,1.7-3.5,1.5-5.4
				c-0.2-1.5-0.9-2.9-1.9-4.1c1-1.3,1.8-2.7,2.4-4.2c1.7-0.1,2.7-0.8,3.6-1.3c0.9-0.6,1.6-1,3.2-1c1.5,0,2.3,0.4,3.2,1
				c1,0.6,2.2,1.4,4.4,1.4c1.5,0,2.5-0.3,3.4-0.8c0.7,2,0.9,4.2,0.7,6.5c-1.2,1.3-1.9,3-1.9,4.9c0,0.6,0.5,1.2,1.2,1.2h12.2
				c0.6,0,1.2-0.5,1.2-1.2c0-3.6-2.7-6.6-6.1-7.2c0-1.8-0.3-3.6-0.8-5.3c0.3,0.2,0.6,0.3,0.9,0.5c0.3,0.2,0.6,0.4,1,0.6
				c1,0.5,2.1,0.4,2.9-0.3c0.8-0.7,1.1-1.8,0.8-2.8l-4-12c4.6-0.7,10.3-3,14.4-9.3c2.4-0.5,4.1-2.6,4.1-5
				C1144.8,422.6,1144.3,421.3,1143.3,420.4z M1087.3,425.7c-3.9-4.4-6.1-9.9-6.1-15.8c0-13.6,11.8-24.6,26.2-24.6
				c14.4,0,26.2,11,26.2,24.6c0,6.9-3.1,13.4-8.3,18c0.2-0.5,0.3-1.1,0.3-1.7c0-1.4-0.6-2.7-1.6-3.7c-1-1-2.3-1.5-3.7-1.5
				c-1.4,0-2.7,0.6-3.6,1.7c-0.9,1-1.4,2.4-1.4,3.7c0,0.6,0.2,1.2,0.4,1.8c-0.5,0.7-1,1.4-1.6,2c-1.7,1.8-3.9,3-6.3,3.6
				c-0.1,0-0.2,0-0.3,0c-0.2,0-0.5,0-0.7,0c-0.2,0-0.4,0-0.6,0c-3.5-0.1-6.9-0.8-10.2-1.9c-1-0.5-2.1-1-3-1.6
				C1090.7,429.1,1088.8,427.5,1087.3,425.7z M1118,427.8c-0.3-0.4-0.4-0.9-0.4-1.4c0-0.7,0.2-1.5,0.8-2c0.5-0.6,1.2-0.9,1.9-0.9
				c0,0,0,0,0,0c0.8,0,1.5,0.3,2,0.8c0.5,0.5,0.8,1.2,0.8,2c0,1.5-1.1,2.6-2.5,2.8c-0.4,0-0.7,0.2-0.9,0.6c-0.3,0.5-0.7,1-1,1.5
				c-0.2,0.2-0.3,0.4-0.5,0.6c-0.2,0.2-0.3,0.4-0.5,0.6c-0.1,0.1-0.2,0.2-0.3,0.4c-1,1.1-2.1,2-3.3,2.8c-3.1,2.1-6.8,3.1-11.1,3.1
				c-3.2,0-5.9-0.6-7.6-1.1c-0.2-0.1-0.4-0.2-0.5-0.5c-0.1-0.2-0.1-0.5,0-0.7c0.1-0.3,0.5-0.5,0.8-0.5c0.1,0,0.2,0,0.3,0
				c2.5,0.7,7.3,1.7,12.1,0.5c0,0,0,0,0.1,0c3.5-0.9,6.3-2.7,8.6-5.5c0.4-0.5,0.9-1.1,1.3-1.7C1118.3,428.6,1118.3,428.1,1118,427.8
				z M1097.4,465.5l-7.6-5.9c0.7-0.6,1.5-0.9,2.5-1c1.3-0.2,2.6,0.2,3.6,1C1097.7,461,1098.3,463.5,1097.4,465.5z M1096.3,457.1
				c-0.5-0.3-1.1-0.5-1.7-0.7c0.7-0.9,1.3-1.8,1.8-2.8c0.5,0.2,1,0.5,1.7,0.6C1097.6,455.2,1097,456.2,1096.3,457.1z M1129.1,463.8
				h-9.6c0.5-2.1,2.5-3.7,4.8-3.8c0,0,0,0,0,0c0,0,0,0,0,0c0,0,0,0,0,0C1126.7,460.1,1128.6,461.7,1129.1,463.8z M1120.4,452.4
				c0.5-0.2,1-0.4,1.7-0.4c0.6,1.8,1,3.8,1.1,5.8c-0.6,0.1-1.2,0.3-1.8,0.5C1121.4,456.3,1121.1,454.3,1120.4,452.4z M1128.1,451.2
				c0,0.1,0,0.2-0.1,0.3c-0.1,0.1-0.2,0.1-0.3,0c-0.3-0.1-0.5-0.3-0.8-0.5c-0.9-0.6-2-1.2-3.9-1.3c-0.1,0-0.1,0-0.2,0
				c-0.1,0-0.3,0-0.4,0c-2.1,0-3.3,0.7-4.3,1.3c0,0,0,0,0,0c0,0-0.1,0.1-0.1,0.1c-0.9,0.6-1.6,1-3.2,1c-1.6,0-2.3-0.4-3.2-1
				c-1-0.6-2.2-1.4-4.4-1.4c-2.2,0-3.4,0.7-4.4,1.4c-0.9,0.6-1.6,1-3.2,1c-1.6,0-2.3-0.4-3.2-1c0,0-0.1,0-0.1-0.1c0,0,0,0,0,0
				c-1-0.6-2.1-1.3-4.3-1.3c-2.2,0-3.4,0.7-4.4,1.4c-0.3,0.2-0.6,0.3-0.8,0.5c-0.1,0.1-0.2,0-0.3,0c-0.1-0.1-0.1-0.2-0.1-0.3
				l5.9-17.9c0.5,0.2,1,0.4,1.5,0.6c-0.6,0.4-1,0.9-1.3,1.5c-0.3,0.8-0.3,1.8,0.1,2.6c0.4,0.8,1.1,1.4,2,1.7
				c1.9,0.6,4.8,1.2,8.3,1.2c4.7,0,8.9-1.2,12.4-3.5c1.3-0.8,2.4-1.8,3.5-2.9c0.2-0.1,0.4-0.1,0.5-0.2c0,0,0,0,0.1,0
				c0.1,0,0.1,0,0.2-0.1c0,0,0,0,0,0c0.9-0.3,1.7-0.6,2.5-1L1128.1,451.2z M1139.9,426.8c-0.4,0-0.7,0.2-0.9,0.6
				c-3.7,6.1-9.2,8.2-13.4,8.8l-0.6-1.7c5.2-0.6,9.4-3.2,12.2-7.7c0.2-0.4,0.2-0.9,0-1.3c-0.3-0.4-0.4-0.9-0.4-1.3
				c0-0.7,0.2-1.5,0.8-2c0.5-0.6,1.2-0.9,2-0.9c0.7,0,1.5,0.3,2,0.8c0.5,0.5,0.8,1.2,0.8,2C1142.5,425.5,1141.4,426.7,1139.9,426.8z
				"/>
			<path class="st45" d="M1121.1,407.7c1.5,0,2.8,1.3,2.8,2.8c0,1.5-1.3,2.8-2.8,2.8c-1.5,0-2.8-1.3-2.8-2.8
				C1118.3,409,1119.6,407.7,1121.1,407.7"/>
			<path class="st45" d="M1120,391.8c0.6,0,1.2,0.5,1.2,1.2c0,3.8-2.4,6.9-5.4,6.9c-1.7,0-3.2-1-4.2-2.6c-1,1.6-2.5,2.6-4.2,2.6
				s-3.2-1-4.2-2.6c-1,1.6-2.5,2.6-4.2,2.6c-3,0-5.4-3.1-5.4-6.9c0-0.7,0.5-1.2,1.2-1.2c0.6,0,1.2,0.5,1.2,1.2c0,2.5,1.4,4.6,3,4.6
				c1.6,0,3-2.1,3-4.6c0-0.7,0.5-1.2,1.2-1.2c0.6,0,1.2,0.5,1.2,1.2c0,2.5,1.4,4.6,3,4.6c1.6,0,3-2.1,3-4.6c0-0.7,0.5-1.2,1.2-1.2
				c0.6,0,1.2,0.5,1.2,1.2c0,2.5,1.4,4.6,3,4.6c1.6,0,3-2.1,3-4.6C1118.8,392.4,1119.3,391.8,1120,391.8z"/>
			<path class="st45" d="M1114.7,415.2v1c0,4-3.3,7.3-7.3,7.3c-4,0-7.3-3.3-7.3-7.3v-1c0-0.6,0.5-1.2,1.2-1.2h12.2
				C1114.1,414.1,1114.7,414.6,1114.7,415.2z M1112.3,416.4h-9.8c0.1,2.6,2.3,4.7,4.9,4.7C1110,421.1,1112.2,419,1112.3,416.4z"/>
			
				<ellipse transform="matrix(0.2308 -0.973 0.973 0.2308 441.7853 1379.915)" class="st45" cx="1093.6" cy="410.5" rx="2.8" ry="2.8"/>
			<g>
				<path class="st41" d="M1125.3,427.9c0.7-0.6,1.3-1.2,1.9-1.9c-0.6,0.3-1.1,0.7-1.7,1C1125.4,427.3,1125.4,427.6,1125.3,427.9z"
					/>
				<path class="st41" d="M1087.5,426c1.5,1.7,3.3,3.1,5.3,4.4c1,0.6,2,1.1,3,1.6c3.3,1.1,6.7,1.7,10.2,1.9c0.3,0,0.4,0,0.6,0
					c0.3,0,0.5,0,0.7,0c0.1,0,0.2,0,0.3,0c2.1-0.5,4-1.5,5.5-2.9c-1.9,0.3-3.9,0.4-5.9,0.4C1100.1,431.5,1093.2,429.5,1087.5,426z"
					/>
			</g>
			<g>
				
					<ellipse transform="matrix(0.2309 -0.973 0.973 0.2309 429.8287 1382.2107)" class="st36" cx="1089.3" cy="419.2" rx="3.2" ry="3.2"/>
				
					<ellipse transform="matrix(0.2309 -0.973 0.973 0.2309 457.6839 1417.4517)" class="st36" cx="1125.5" cy="419.2" rx="3.2" ry="3.2"/>
			</g>
			<path class="st45" d="M1139.5,418.9c0,0-5.1,0.6-4.9,6"/>
		</g>
		<path class="st45" d="M1083.8,425.1"/>
	</g>
</g>
</svg>
