<svg id="レイヤー_1" data-name="レイヤー 1" xmlns="http://www.w3.org/2000/svg" viewBox="0 0 229.79 72.2"><defs><style>.cls-1{opacity:0.4;}.cls-2{fill:#9b4a00;}.cls-3{fill:#f59f37;}.cls-4{fill:#9b0000;}.cls-5{fill:#eb5160;}.cls-6{fill:#754c29;}.cls-7{fill:#115924;}.cls-8{fill:#91c04f;}.cls-9{fill:#fff;}.cls-10{fill:none;}</style></defs><g id="レイヤー_1-2" data-name="レイヤー 1"><g class="cls-1"><path class="cls-2" d="M110.47,25.67a91.19,91.19,0,0,1,0,12.37,55.14,55.14,0,0,1-1.86,14.23c-1.8,6.8-5.3,13.72-11.6,17.33a22.85,22.85,0,0,1-12.7,2.54c-5.73-.67-11.73-2.75-15.41-7.4a28.49,28.49,0,0,1-5.82-14,89.93,89.93,0,0,1-.37-17.59c.59-7.93,1.89-16.24,6.56-22.88,3.63-5.38,12.65-8.7,19-7.83C95.4,3.29,103,6,107.16,12.15,109.75,16.09,110.2,21,110.47,25.67Z" transform="translate(0.04 -0.03)"/></g><path class="cls-3" d="M107,23.38a91.19,91.19,0,0,1,0,12.37A55.3,55.3,0,0,1,105.13,50c-1.79,6.8-5.3,13.73-11.6,17.33a22.85,22.85,0,0,1-12.7,2.55c-5.72-.68-11.72-2.76-15.41-7.41a28.45,28.45,0,0,1-5.82-14,89.93,89.93,0,0,1-.37-17.59c.59-8,1.89-16.28,6.57-22.88C69.42,2.62,78.44-.7,84.8.17c7.13.84,14.74,3.5,18.89,9.7C106.33,13.81,106.77,18.73,107,23.38Z" transform="translate(0.04 -0.03)"/><g class="cls-1"><path class="cls-4" d="M169.85,26.63c.15,2.79.17,5.58.17,8.37a36.74,36.74,0,0,1-.67,6,36.28,36.28,0,0,1-1,6.13,38.41,38.41,0,0,1-2,6.62,39.52,39.52,0,0,1-3.87,8.5A24.38,24.38,0,0,1,151,71.12a26.34,26.34,0,0,1-8.24.94A28.19,28.19,0,0,1,127,66.65a29,29,0,0,1-7.73-9.39c-1.83-3.72-2.37-7.91-2.7-12a91.55,91.55,0,0,1-.46-12.5,47.42,47.42,0,0,1,3.49-16.32c3.65-8.68,13.3-12.84,22.16-13.8,6.36-.59,12.65,1.65,18,5,4.07,2.51,6.84,6.74,8.46,11.17A36.64,36.64,0,0,1,169.85,26.63Z" transform="translate(0.04 -0.03)"/></g><path class="cls-5" d="M166.43,24.34c.14,2.79.16,5.59.16,8.38a36.74,36.74,0,0,1-.67,6,36.39,36.39,0,0,1-1,6.14,38.68,38.68,0,0,1-2,6.62A39.62,39.62,0,0,1,159,59.94a24.27,24.27,0,0,1-11.48,8.87,26.1,26.1,0,0,1-8.24,1,28.37,28.37,0,0,1-15.77-5.41,29,29,0,0,1-7.75-9.4c-1.82-3.73-2.37-7.92-2.7-12a91.64,91.64,0,0,1-.46-12.51,47.84,47.84,0,0,1,3.49-16.31c3.66-8.69,13.3-12.84,22.17-13.8,6.35-.6,12.64,1.65,18,5,4.07,2.5,6.84,6.73,8.46,11.16A37.22,37.22,0,0,1,166.43,24.34Z" transform="translate(0.04 -0.03)"/><g class="cls-1"><path class="cls-4" d="M229.59,26.6c.14,2.79.16,5.59.16,8.38a35.55,35.55,0,0,1-.67,6,36.39,36.39,0,0,1-1,6.14,37.45,37.45,0,0,1-2,6.61,39.52,39.52,0,0,1-3.87,8.5,24.27,24.27,0,0,1-11.48,8.87,26.12,26.12,0,0,1-8.25,1,28.25,28.25,0,0,1-15.76-5.42A28.66,28.66,0,0,1,179,57.29c-1.83-3.72-2.38-7.91-2.71-12a91.63,91.63,0,0,1-.45-12.51,47.37,47.37,0,0,1,3.49-16.31C183,7.78,192.61,3.63,201.48,2.67c6.35-.6,12.65,1.65,18,5,4.08,2.5,6.85,6.73,8.46,11.16A36.83,36.83,0,0,1,229.59,26.6Z" transform="translate(0.04 -0.03)"/></g><path class="cls-6" d="M226.16,24.32c.14,2.78.16,5.58.16,8.37a35.54,35.54,0,0,1-.66,6,37.31,37.31,0,0,1-1,6.13,37.81,37.81,0,0,1-2,6.62,39.67,39.67,0,0,1-3.87,8.49,24.34,24.34,0,0,1-11.48,8.88,26.34,26.34,0,0,1-8.24.94,28.19,28.19,0,0,1-15.77-5.41A28.66,28.66,0,0,1,175.57,55c-1.83-3.72-2.38-7.92-2.71-12a91.54,91.54,0,0,1-.45-12.5,47.42,47.42,0,0,1,3.49-16.32C179.48,5.42,189.12,1.26,198,.3c6.36-.59,12.65,1.65,18,5,4.08,2.51,6.85,6.73,8.47,11.17A36.4,36.4,0,0,1,226.16,24.32Z" transform="translate(0.04 -0.03)"/><g class="cls-1"><path class="cls-7" d="M57.28,26.63c.14,2.79.16,5.58.17,8.37a36.74,36.74,0,0,1-.67,6,37.31,37.31,0,0,1-1,6.13,37.55,37.55,0,0,1-2,6.62,39.52,39.52,0,0,1-3.87,8.5A24.4,24.4,0,0,1,38.36,71.1a26.34,26.34,0,0,1-8.24.94,28.19,28.19,0,0,1-15.77-5.41,29,29,0,0,1-7.73-9.39c-1.83-3.72-2.38-7.91-2.7-12a90,90,0,0,1-.46-12.5A47.49,47.49,0,0,1,7,16.41C10.6,7.73,20.25,3.57,29.11,2.61c6.36-.59,12.65,1.65,18,5,4.08,2.51,6.85,6.74,8.47,11.17A37,37,0,0,1,57.28,26.63Z" transform="translate(0.04 -0.03)"/></g><path class="cls-8" d="M53.85,24.34c.14,2.79.17,5.59.17,8.38a36.74,36.74,0,0,1-.67,6,37.61,37.61,0,0,1-1,6.14,38.68,38.68,0,0,1-2,6.62A39.67,39.67,0,0,1,46.48,60,24.27,24.27,0,0,1,35,68.84a26.1,26.1,0,0,1-8.24,1A28.37,28.37,0,0,1,11,64.43,29,29,0,0,1,3.19,55C1.36,51.23.82,47,.49,43A89.32,89.32,0,0,1,0,30.44,47.4,47.4,0,0,1,3.52,14.13C7.17,5.44,16.82,1.29,25.68.33c6.36-.6,12.65,1.65,18,5,4.08,2.5,6.85,6.73,8.47,11.16A37,37,0,0,1,53.85,24.34Z" transform="translate(0.04 -0.03)"/><path class="cls-9" d="M25.47,49.49a3.53,3.53,0,0,1-1.07-2.56V45a.22.22,0,0,0-.06-.13.16.16,0,0,0-.13-.06H18.55a1.74,1.74,0,0,1-1.74-1.75,1.65,1.65,0,0,1,.51-1.22,1.71,1.71,0,0,1,1.23-.49h5.66a.23.23,0,0,0,.19-.19V39.72a.16.16,0,0,0-.06-.13.21.21,0,0,0-.13-.07H18.52a1.6,1.6,0,0,1-1.2-.5,1.67,1.67,0,0,1-.51-1.21,1.6,1.6,0,0,1,.51-1.22,1.7,1.7,0,0,1,1.2-.5h3.94a.11.11,0,0,0,.1-.06.09.09,0,0,0,0-.1l-5.09-8.67a3.6,3.6,0,0,1-.5-1.81,3.48,3.48,0,0,1,.47-1.75,3.57,3.57,0,0,1,1.37-1.33A3.28,3.28,0,0,1,20.49,22a3.74,3.74,0,0,1,1.85.49,3.37,3.37,0,0,1,1.33,1.42L28,32.25h.19l4.26-8.39a3.36,3.36,0,0,1,1.29-1.43,3.45,3.45,0,0,1,3.51-.06,3.32,3.32,0,0,1,1.3,1.25,3.45,3.45,0,0,1,.51,1.8,3.6,3.6,0,0,1-.48,1.78l-5.14,8.73V36a.1.1,0,0,0,.09.06h3.94a1.72,1.72,0,0,1,1.72,1.7v0a1.72,1.72,0,0,1-.5,1.21,1.61,1.61,0,0,1-1.22.5H31.84c-.13,0-.19.07-.19.2v1.43a.17.17,0,0,0,.15.19h5.66a1.6,1.6,0,0,1,1.22.49,1.64,1.64,0,0,1,.5,1.22,1.71,1.71,0,0,1-.5,1.24,1.6,1.6,0,0,1-1.22.51H31.84a.17.17,0,0,0-.19.15v2a3.62,3.62,0,0,1-6.18,2.56Z" transform="translate(0.04 -0.03)"/><path class="cls-9" d="M136.17,48.44a10.67,10.67,0,0,1-3.6-4.85,19.19,19.19,0,0,1-1.21-7.08,19.75,19.75,0,0,1,1.13-6.9A10.75,10.75,0,0,1,136,24.67a10.83,10.83,0,0,1,12.14,0,10.76,10.76,0,0,1,3.53,5,19.91,19.91,0,0,1,1.13,6.88,19.41,19.41,0,0,1-1.18,7,10.67,10.67,0,0,1-3.57,4.88,10.83,10.83,0,0,1-11.89,0Zm9.55-11.93q0-6.84-3.65-6.84a2.84,2.84,0,0,0-2.81,1.91,12.56,12.56,0,0,0-.81,4.93,14.14,14.14,0,0,0,.74,4.78,2.84,2.84,0,0,0,2.88,2.05Q145.72,43.34,145.72,36.51Z" transform="translate(0.04 -0.03)"/><path class="cls-9" d="M195.37,48.44a10.67,10.67,0,0,1-3.6-4.85,19.19,19.19,0,0,1-1.21-7.08,19.75,19.75,0,0,1,1.13-6.9,10.84,10.84,0,0,1,3.52-4.94,10.83,10.83,0,0,1,12.14,0,10.76,10.76,0,0,1,3.53,5A19.91,19.91,0,0,1,212,36.51a19.41,19.41,0,0,1-1.18,7,10.67,10.67,0,0,1-3.57,4.88,10.83,10.83,0,0,1-11.89,0Zm9.55-11.93q0-6.84-3.65-6.84a2.84,2.84,0,0,0-2.81,1.91,12.74,12.74,0,0,0-.81,4.93,14.14,14.14,0,0,0,.74,4.78,2.84,2.84,0,0,0,2.88,2.05C203.7,43.34,204.91,41.06,204.92,36.51Z" transform="translate(0.04 -0.03)"/><line class="cls-10" x1="84.38" y1="34.96" x2="83.13" y2="34.96"/><path class="cls-9" d="M78.16,48.48a8.71,8.71,0,0,1-3.67-4.13,2.47,2.47,0,0,1-.22-1.09,2.94,2.94,0,0,1,2.91-2.88,3.87,3.87,0,0,1,1.83.49,5.25,5.25,0,0,1,1.64,1.36,3.13,3.13,0,0,0,1.19.89,4.46,4.46,0,0,0,3.63-.28A2,2,0,0,0,86.38,41a1.91,1.91,0,0,0-.88-1.72,4.12,4.12,0,0,0-2.28-.57h-.35a2.71,2.71,0,0,1,0-5.41h.41a3.16,3.16,0,0,0,1.83-.53,1.71,1.71,0,0,0,.77-1.47,1.88,1.88,0,0,0-.74-1.57,3,3,0,0,0-1.86-.56,3.13,3.13,0,0,0-2.54,1.32,6,6,0,0,1-1.58,1.42,3.5,3.5,0,0,1-1.86.58,2.66,2.66,0,0,1-.72-.1,3.24,3.24,0,0,1-1.67-1.08,2.66,2.66,0,0,1-.67-1.76,2.25,2.25,0,0,1,.22-1,9.16,9.16,0,0,1,3.72-4.29,10.5,10.5,0,0,1,5.41-1.41,11.85,11.85,0,0,1,4.62.89,8.21,8.21,0,0,1,3.37,2.55,6.19,6.19,0,0,1,1.27,3.88,5.45,5.45,0,0,1-.94,3.16,8,8,0,0,1-2.47,2.32.1.1,0,0,0,0,.08.09.09,0,0,0,0,.07,6.94,6.94,0,0,1,2.93,2.32,6.21,6.21,0,0,1,1.11,3.75,7,7,0,0,1-1.38,4.38,8.41,8.41,0,0,1-3.64,2.68,13.58,13.58,0,0,1-5,.89A10.7,10.7,0,0,1,78.16,48.48Z" transform="translate(0.04 -0.03)"/></g></svg>