<?xml version="1.0" encoding="utf-8"?>
<!-- Generator: Adobe Illustrator 25.3.0, SVG Export Plug-In . SVG Version: 6.00 Build 0)  -->
<svg version="1.1" id="レイヤー_1" xmlns="http://www.w3.org/2000/svg" xmlns:xlink="http://www.w3.org/1999/xlink" x="0px"
	 y="0px" viewBox="0 0 229.8 72.2" style="enable-background:new 0 0 229.8 72.2;" xml:space="preserve">
<style type="text/css">
	.st0{opacity:0.4;}
	.st1{fill:#9B4A00;}
	.st2{fill:#F59F37;}
	.st3{fill:#9B0000;}
	.st4{fill:#EB5160;}
	.st5{fill:#754C29;}
	.st6{fill:#115924;}
	.st7{fill:#91C04F;}
	.st8{fill:#FFFFFF;}
	.st9{fill:#FFFFFF;stroke:#FFFFFF;stroke-width:2;stroke-miterlimit:10;}
</style>
<g id="レイヤー_1-2">
	<g class="st0">
		<path class="st1" d="M110.5,25.6c0.3,4.1,0.3,8.3,0,12.4c0,4.8-0.6,9.6-1.9,14.2c-1.8,6.8-5.3,13.7-11.6,17.3
			c-3.9,2.1-8.3,2.9-12.7,2.5c-5.7-0.7-11.7-2.8-15.4-7.4c-3.2-4.1-5.2-8.9-5.8-14c-0.7-5.8-0.8-11.7-0.4-17.6
			c0.6-7.9,1.9-16.2,6.6-22.9c3.6-5.4,12.7-8.7,19-7.8c7.1,0.9,14.7,3.6,18.9,9.7C109.8,16.1,110.2,21,110.5,25.6z"/>
	</g>
	<path class="st2" d="M107,23.4c0.3,4.1,0.3,8.3,0,12.4c0,4.8-0.6,9.6-1.8,14.3c-1.8,6.8-5.3,13.7-11.6,17.3
		c-3.9,2.1-8.3,2.9-12.7,2.6c-5.7-0.7-11.7-2.8-15.4-7.4c-3.2-4.1-5.2-8.9-5.8-14c-0.7-5.8-0.8-11.7-0.4-17.6
		c0.6-8,1.9-16.3,6.6-22.9c3.6-5.4,12.6-8.7,19-7.8C92,1,99.6,3.6,103.7,9.8C106.4,13.8,106.8,18.7,107,23.4z"/>
	<g class="st0">
		<path class="st3" d="M169.9,26.6c0.1,2.8,0.2,5.6,0.2,8.4c-0.1,2-0.3,4-0.7,6c-0.2,2.1-0.5,4.1-1,6.1c-0.5,2.3-1.1,4.5-2,6.6
			c-0.9,3-2.2,5.8-3.9,8.5c-2.8,4.1-6.9,7.2-11.5,8.9c-2.7,0.7-5.5,1.1-8.2,0.9c-5.7-0.2-11.2-2.1-15.8-5.4
			c-3.2-2.5-5.8-5.7-7.7-9.4c-1.8-3.7-2.4-7.9-2.7-12c-0.4-4.2-0.6-8.3-0.5-12.5c0.2-5.6,1.4-11.1,3.5-16.3
			c3.7-8.7,13.3-12.8,22.2-13.8c6.4-0.6,12.6,1.7,18,5c4.1,2.5,6.8,6.7,8.5,11.2C169.1,21.3,169.6,23.9,169.9,26.6z"/>
	</g>
	<path class="st4" d="M166.5,24.3c0.1,2.8,0.2,5.6,0.2,8.4c-0.1,2-0.3,4-0.7,6c-0.2,2.1-0.5,4.1-1,6.1c-0.5,2.3-1.1,4.5-2,6.6
		c-1,3-2.3,5.8-4,8.5c-2.8,4.1-6.8,7.2-11.5,8.9c-2.7,0.8-5.5,1.1-8.2,1c-5.7-0.2-11.2-2.1-15.8-5.4c-3.2-2.5-5.8-5.7-7.7-9.4
		c-1.8-3.7-2.4-7.9-2.7-12c-0.4-4.2-0.6-8.3-0.5-12.5c0.2-5.6,1.4-11.1,3.5-16.3c3.7-8.7,13.3-12.8,22.2-13.8c6.4-0.6,12.6,1.7,18,5
		c4.1,2.5,6.8,6.7,8.5,11.2C165.6,19.1,166.2,21.7,166.5,24.3z"/>
	<g class="st0">
		<path class="st3" d="M229.6,26.6c0.1,2.8,0.2,5.6,0.2,8.4c-0.1,2-0.3,4-0.7,6c-0.2,2.1-0.5,4.1-1,6.1c-0.5,2.3-1.1,4.5-2,6.6
			c-0.9,3-2.2,5.8-3.9,8.5c-2.8,4.1-6.8,7.2-11.5,8.9c-2.7,0.8-5.5,1.1-8.2,1c-10-0.1-19.1-5.8-23.5-14.8c-1.8-3.7-2.4-7.9-2.7-12
			c-0.4-4.2-0.6-8.3-0.4-12.5c0.2-5.6,1.4-11.1,3.5-16.3c3.7-8.7,13.3-12.8,22.2-13.8c6.4-0.6,12.6,1.6,18,5
			c4.1,2.5,6.9,6.7,8.5,11.2C228.8,21.3,229.4,23.9,229.6,26.6z"/>
	</g>
	<path class="st5" d="M226.2,24.3c0.1,2.8,0.2,5.6,0.2,8.4c0,2-0.3,4-0.7,6c-0.2,2.1-0.5,4.1-1,6.1c-0.5,2.3-1.1,4.5-2,6.6
		c-1,3-2.3,5.8-3.9,8.5c-2.8,4.1-6.8,7.2-11.5,8.9c-2.7,0.7-5.5,1.1-8.2,0.9c-5.7-0.2-11.2-2.1-15.8-5.4c-3.2-2.5-5.8-5.7-7.7-9.3
		c-1.8-3.7-2.4-7.9-2.7-12c-0.4-4.2-0.6-8.3-0.4-12.5c0.2-5.6,1.4-11.1,3.5-16.3c3.6-8.8,13.2-13,22.1-13.9c6.4-0.6,12.6,1.6,18,5
		c4.1,2.5,6.9,6.7,8.5,11.2C225.3,19,225.9,21.6,226.2,24.3z"/>
	<g class="st0">
		<path class="st6" d="M57.3,26.6c0.1,2.8,0.2,5.6,0.2,8.4c-0.1,2-0.3,4-0.7,6c-0.2,2.1-0.5,4.1-1,6.1c-0.5,2.3-1.1,4.5-2,6.6
			c-0.9,3-2.2,5.8-3.8,8.5c-2.9,4.1-6.9,7.2-11.6,8.8c-2.7,0.7-5.5,1.1-8.2,0.9C24.5,71.8,19,70,14.4,66.6c-3.2-2.5-5.8-5.7-7.7-9.4
			c-1.8-3.7-2.4-7.9-2.7-12c-0.4-4.2-0.6-8.3-0.5-12.5C3.7,27.1,4.9,21.6,7,16.4C10.6,7.7,20.3,3.5,29.1,2.6c6.4-0.6,12.6,1.7,18,5
			c4.1,2.5,6.8,6.7,8.5,11.2C56.5,21.3,57,23.9,57.3,26.6z"/>
	</g>
	<path class="st7" d="M53.9,24.3c0.1,2.8,0.2,5.6,0.2,8.4c-0.1,2-0.3,4-0.7,6c-0.2,2.1-0.5,4.1-1,6.1c-0.5,2.3-1.1,4.5-2,6.6
		c-0.9,3-2.2,5.9-3.9,8.6c-2.9,4-6.9,7.1-11.5,8.8c-2.7,0.8-5.5,1.1-8.2,1c-5.7-0.2-11.2-2.1-15.8-5.4c-3.2-2.5-5.9-5.8-7.8-9.4
		c-1.8-3.8-2.4-8-2.7-12C0.1,38.8-0.1,34.6,0,30.4c0.2-5.6,1.4-11.1,3.6-16.3C7.2,5.4,16.9,1.3,25.7,0.3c6.4-0.6,12.6,1.7,18,5
		c4.1,2.5,6.8,6.7,8.5,11.2C53,19,53.6,21.6,53.9,24.3z"/>
	<path class="st8" d="M25.5,49.5c-0.7-0.7-1.1-1.6-1.1-2.6V45c0,0,0-0.1-0.1-0.1c0,0-0.1-0.1-0.1-0.1h-5.7c-1,0-1.7-0.8-1.7-1.7
		c0,0,0,0,0-0.1l0,0c0-0.5,0.2-0.9,0.5-1.2c0.3-0.3,0.8-0.5,1.2-0.5h5.7c0.1,0,0.2-0.1,0.2-0.2v-1.4c0-0.1,0-0.1-0.1-0.1
		c0,0-0.1-0.1-0.1-0.1h-5.7c-0.5,0-0.9-0.2-1.2-0.5c-0.3-0.3-0.5-0.8-0.5-1.2c0-0.5,0.2-0.9,0.5-1.2c0.3-0.3,0.7-0.5,1.2-0.5h3.9
		c0,0,0.1,0,0.1-0.1c0,0,0-0.1,0-0.1l-5.1-8.7c-0.3-0.5-0.5-1.2-0.5-1.8c0-0.6,0.2-1.2,0.5-1.8c0.3-0.6,0.8-1,1.4-1.3
		c0.5-0.3,1.1-0.4,1.7-0.3c0.6,0,1.3,0.2,1.9,0.5c0.6,0.3,1,0.8,1.3,1.4l4.3,8.3h0.2l4.3-8.4c0.3-0.6,0.7-1.1,1.3-1.4
		c1.1-0.7,2.4-0.7,3.5-0.1c0.5,0.3,1,0.7,1.3,1.2c0.3,0.5,0.5,1.2,0.5,1.8c0,0.6-0.2,1.2-0.5,1.8l-5.1,8.7V36c0,0,0.1,0.1,0.1,0.1
		h3.9c0.9,0,1.7,0.8,1.7,1.7l0,0c0,0.5-0.2,0.9-0.5,1.2c-0.3,0.3-0.8,0.5-1.2,0.5h-5.6c-0.1,0-0.2,0.1-0.2,0.2v1.4
		c0,0.1,0.1,0.2,0.1,0.2c0,0,0,0,0,0h5.7c0.5,0,0.9,0.2,1.2,0.5c0.3,0.3,0.5,0.8,0.5,1.2c0,0.5-0.2,0.9-0.5,1.2
		c-0.3,0.3-0.8,0.5-1.2,0.5h-5.6c-0.1,0-0.2,0.1-0.2,0.1c0,0,0,0,0,0l0,0v2c0,2-1.6,3.6-3.6,3.6C27.1,50.5,26.2,50.1,25.5,49.5z"/>
	<path class="st8" d="M136.2,48.4c-1.6-1.2-2.9-2.9-3.6-4.8c-0.8-2.3-1.3-4.7-1.2-7.1c0-2.3,0.3-4.7,1.1-6.9
		c0.7-1.9,1.9-3.7,3.5-4.9c3.7-2.5,8.5-2.5,12.1,0c1.6,1.3,2.9,3,3.5,5c0.8,2.2,1.2,4.5,1.1,6.9c0,2.4-0.4,4.8-1.2,7
		c-0.7,1.9-1.9,3.6-3.6,4.9C144.4,50.8,139.8,50.8,136.2,48.4L136.2,48.4z M145.8,36.5c0-4.6-1.2-6.8-3.6-6.8
		c-1.3-0.1-2.4,0.7-2.8,1.9c-0.6,1.6-0.9,3.2-0.8,4.9c0,1.6,0.2,3.2,0.7,4.8c0.4,1.3,1.6,2.1,2.9,2C144.5,43.3,145.8,41,145.8,36.5
		L145.8,36.5z"/>
	<path class="st8" d="M195.4,48.4c-1.6-1.2-2.9-2.9-3.6-4.8c-0.8-2.3-1.3-4.7-1.2-7.1c0-2.3,0.3-4.7,1.1-6.9
		c0.7-1.9,1.9-3.7,3.5-4.9c3.7-2.5,8.5-2.5,12.1,0c1.6,1.3,2.9,3,3.5,5c0.8,2.2,1.1,4.5,1.1,6.8c0,2.4-0.4,4.8-1.2,7
		c-0.7,1.9-1.9,3.6-3.6,4.9C203.6,50.7,199,50.7,195.4,48.4L195.4,48.4z M205,36.5c0-4.6-1.2-6.8-3.6-6.8c-1.3-0.1-2.4,0.7-2.8,1.9
		c-0.6,1.6-0.9,3.2-0.8,4.9c0,1.6,0.2,3.2,0.7,4.8c0.4,1.3,1.6,2.1,2.9,2C203.7,43.3,205,41,205,36.5z"/>
	<g>
		<path class="st9" d="M91.4,47.5c-1.8,1.4-4.4,2-7.6,2c-3.3,0-5.8-0.7-7.6-2s-2.7-3.2-2.7-5.4c0-2.6,1.6-4.6,4.9-6.2c0,0,0,0,0-0.1
			c0,0,0,0,0,0c-2.8-1.6-4.1-3.7-4.1-6.3c0-1.9,0.8-3.5,2.5-4.8c1.7-1.2,4-1.9,7-1.9c3,0,5.3,0.6,7,1.9c1.7,1.2,2.5,2.8,2.5,4.8
			c0,2.3-1.5,4.1-4.4,5.6c0,0,0,0,0,0c0,0,0,0.1,0,0.1c3.4,1.4,5.2,3.7,5.2,6.8C94.1,44.3,93.2,46.1,91.4,47.5z M82.9,37.8
			c-1.3,0.5-2.2,1.1-2.8,1.8c-0.5,0.6-0.8,1.4-0.8,2.2c0,1,0.4,1.9,1.2,2.5c0.8,0.7,1.9,1,3.2,1s2.4-0.3,3.2-1
			c0.8-0.7,1.2-1.5,1.2-2.5c0-0.9-0.3-1.6-0.9-2.2s-1.9-1.2-3.8-1.8C83.3,37.7,83.1,37.7,82.9,37.8z M83.8,27
			c-1.2,0-2.1,0.3-2.8,0.8c-0.7,0.6-1,1.3-1,2.2c0,0.7,0.3,1.4,0.8,1.9c0.6,0.5,1.5,1,2.9,1.5c0.2,0.1,0.4,0.1,0.6,0
			c2.2-0.9,3.3-2,3.3-3.4c0-0.9-0.3-1.6-1-2.2C85.9,27.3,84.9,27,83.8,27z"/>
	</g>
</g>
</svg>
