<svg xmlns="http://www.w3.org/2000/svg" viewBox="0 0 229.75 72.24"><defs><style>.cls-1{isolation:isolate;}.cls-2{mix-blend-mode:multiply;opacity:0.4;}.cls-3{fill:#9b4a00;}.cls-4{fill:#f59f37;}.cls-5{fill:#9b0000;}.cls-6{fill:#eb5160;}.cls-7{fill:#754c29;}.cls-8{fill:#115924;}.cls-9{fill:#91c04f;}.cls-10{fill:#fff;}</style></defs><g class="cls-1"><g id="レイヤー_1" data-name="レイヤー 1"><g class="cls-2"><path class="cls-3" d="M110.47,25.67a92.84,92.84,0,0,1,0,12.37,55.14,55.14,0,0,1-1.86,14.23c-1.8,6.8-5.3,13.72-11.6,17.33a22.85,22.85,0,0,1-12.7,2.54c-5.73-.67-11.73-2.75-15.41-7.4a28.5,28.5,0,0,1-5.82-14,89.91,89.91,0,0,1-.37-17.59c.59-7.93,1.89-16.24,6.56-22.88,3.63-5.38,12.65-8.7,19-7.83,7.13.85,14.74,3.51,18.89,9.71C109.75,16.09,110.2,21,110.47,25.67Z"/></g><path class="cls-4" d="M107,23.38A92.83,92.83,0,0,1,107,35.75,55.14,55.14,0,0,1,105.13,50c-1.79,6.8-5.3,13.73-11.6,17.33a22.85,22.85,0,0,1-12.7,2.55c-5.72-.68-11.72-2.76-15.41-7.41a28.46,28.46,0,0,1-5.82-14,89.91,89.91,0,0,1-.37-17.59C59.82,22.91,61.12,14.6,65.8,8c3.62-5.38,12.64-8.7,19-7.83,7.13.84,14.74,3.5,18.89,9.7C106.33,13.81,106.77,18.73,107,23.38Z"/><g class="cls-2"><path class="cls-5" d="M169.85,26.63c.15,2.79.17,5.58.17,8.37a37,37,0,0,1-.67,6,36.34,36.34,0,0,1-1,6.13c-.62,2.22-1,4.58-2,6.62a39.79,39.79,0,0,1-3.87,8.5,24.39,24.39,0,0,1-11.48,8.87,26.31,26.31,0,0,1-8.24.94,28.22,28.22,0,0,1-15.77-5.41,29,29,0,0,1-7.73-9.39c-1.83-3.72-2.37-7.91-2.7-12a91.43,91.43,0,0,1-.46-12.5,47.52,47.52,0,0,1,3.49-16.32c3.65-8.68,13.3-12.84,22.16-13.8,6.36-.59,12.65,1.65,18,5,4.07,2.51,6.84,6.74,8.46,11.17A36.51,36.51,0,0,1,169.85,26.63Z"/></g><path class="cls-6" d="M166.43,24.34c.14,2.79.16,5.59.16,8.38a36.94,36.94,0,0,1-.67,6,36.45,36.45,0,0,1-1,6.14c-.62,2.21-1,4.58-2,6.62A39.48,39.48,0,0,1,159,59.94a24.27,24.27,0,0,1-11.48,8.87,26,26,0,0,1-8.24,1,28.37,28.37,0,0,1-15.77-5.41A29.1,29.1,0,0,1,115.76,55c-1.82-3.73-2.37-7.92-2.7-12a91.64,91.64,0,0,1-.46-12.51,47.65,47.65,0,0,1,3.49-16.31c3.66-8.69,13.3-12.84,22.17-13.8,6.35-.6,12.64,1.65,18,5,4.07,2.5,6.84,6.73,8.46,11.16A37.4,37.4,0,0,1,166.43,24.34Z"/><g class="cls-2"><path class="cls-5" d="M229.59,26.6c.14,2.79.16,5.59.16,8.38a35.83,35.83,0,0,1-.67,6,36.62,36.62,0,0,1-1,6.14c-.61,2.21-1,4.58-2,6.61a39.79,39.79,0,0,1-3.87,8.5,24.27,24.27,0,0,1-11.48,8.87,26.12,26.12,0,0,1-8.25,1,28.27,28.27,0,0,1-15.76-5.42,28.74,28.74,0,0,1-7.73-9.39c-1.83-3.72-2.38-7.91-2.71-12a91.63,91.63,0,0,1-.45-12.51,47.42,47.42,0,0,1,3.49-16.31c3.65-8.69,13.29-12.84,22.16-13.8,6.35-.6,12.65,1.65,18,5,4.08,2.5,6.85,6.73,8.46,11.16A36.79,36.79,0,0,1,229.59,26.6Z"/></g><path class="cls-7" d="M226.16,24.32c.14,2.78.16,5.58.16,8.37a35.72,35.72,0,0,1-.66,6,37.39,37.39,0,0,1-1,6.13c-.61,2.21-1,4.58-2,6.62a39.71,39.71,0,0,1-3.87,8.49,24.35,24.35,0,0,1-11.48,8.88,26.34,26.34,0,0,1-8.24.94,28.22,28.22,0,0,1-15.77-5.41,28.74,28.74,0,0,1-7.73-9.39c-1.83-3.72-2.38-7.92-2.71-12a91.54,91.54,0,0,1-.45-12.5,47.52,47.52,0,0,1,3.49-16.32C179.48,5.42,189.12,1.26,198,.3c6.36-.59,12.65,1.65,18,5,4.08,2.51,6.85,6.73,8.47,11.17A36.51,36.51,0,0,1,226.16,24.32Z"/><g class="cls-2"><path class="cls-8" d="M57.28,26.63c.14,2.79.16,5.58.17,8.37a37,37,0,0,1-.67,6,37.39,37.39,0,0,1-1,6.13c-.61,2.22-1,4.58-2,6.62a39.79,39.79,0,0,1-3.87,8.5A24.39,24.39,0,0,1,38.36,71.1a26.34,26.34,0,0,1-8.24.94,28.22,28.22,0,0,1-15.77-5.41,28.87,28.87,0,0,1-7.73-9.39c-1.83-3.72-2.38-7.91-2.7-12a89.86,89.86,0,0,1-.46-12.5A47.52,47.52,0,0,1,7,16.41C10.6,7.73,20.25,3.57,29.11,2.61c6.36-.59,12.65,1.65,18,5,4.08,2.51,6.85,6.74,8.47,11.17A36.51,36.51,0,0,1,57.28,26.63Z"/></g><path class="cls-9" d="M53.85,24.34c.14,2.79.17,5.59.17,8.38a36.94,36.94,0,0,1-.67,6,37.49,37.49,0,0,1-1,6.14c-.62,2.21-1,4.58-2,6.62a39.94,39.94,0,0,1-3.87,8.49,24.27,24.27,0,0,1-11.48,8.87,26,26,0,0,1-8.24,1,28.37,28.37,0,0,1-15.77-5.41A29,29,0,0,1,3.19,55C1.36,51.23.82,47,.49,43A90.06,90.06,0,0,1,0,30.44,47.42,47.42,0,0,1,3.52,14.13C7.17,5.44,16.82,1.29,25.68.33c6.36-.6,12.65,1.65,18,5,4.08,2.5,6.85,6.73,8.47,11.16A36.77,36.77,0,0,1,53.85,24.34Z"/><path class="cls-10" d="M25.47,49.49a3.51,3.51,0,0,1-1.07-2.56V45a.22.22,0,0,0-.06-.13.19.19,0,0,0-.13-.06H18.55a1.66,1.66,0,0,1-1.23-.51,1.68,1.68,0,0,1-.51-1.24,1.64,1.64,0,0,1,.51-1.22,1.68,1.68,0,0,1,1.23-.49h5.66a.23.23,0,0,0,.19-.19V39.72a.18.18,0,0,0-.06-.13.21.21,0,0,0-.13-.07H18.52a1.62,1.62,0,0,1-1.2-.5,1.65,1.65,0,0,1-.51-1.21,1.61,1.61,0,0,1,.51-1.22,1.66,1.66,0,0,1,1.2-.5h3.94a.1.1,0,0,0,.1-.06.09.09,0,0,0,0-.1l-5.09-8.67a3.58,3.58,0,0,1-.5-1.81,3.51,3.51,0,0,1,.47-1.75,3.65,3.65,0,0,1,1.37-1.33A3.33,3.33,0,0,1,20.49,22a3.76,3.76,0,0,1,1.85.49,3.38,3.38,0,0,1,1.33,1.42L28,32.25a.13.13,0,0,0,.1,0,.12.12,0,0,0,.09,0l4.26-8.39a3.32,3.32,0,0,1,1.29-1.43,3.45,3.45,0,0,1,3.51-.06,3.24,3.24,0,0,1,1.3,1.25,3.41,3.41,0,0,1,.51,1.8,3.63,3.63,0,0,1-.48,1.78l-5.14,8.73s0,.06,0,.1a.1.1,0,0,0,.09.06h3.94a1.71,1.71,0,0,1,1.72,1.72,1.68,1.68,0,0,1-.5,1.21,1.6,1.6,0,0,1-1.22.5H31.84c-.13,0-.19.07-.19.2v1.43a.17.17,0,0,0,.19.19h5.62a1.63,1.63,0,0,1,1.22.49,1.67,1.67,0,0,1,.5,1.22,1.71,1.71,0,0,1-.5,1.24,1.61,1.61,0,0,1-1.22.51H31.84a.17.17,0,0,0-.19.19v1.94a3.62,3.62,0,0,1-6.18,2.56Z"/><path class="cls-10" d="M77.83,49a2.39,2.39,0,0,1-.65-1.7,3,3,0,0,1,.73-1.91l5.72-6.35a32.06,32.06,0,0,0,3.51-4.43,5.77,5.77,0,0,0,.94-2.94,2,2,0,0,0-.68-1.61,2.78,2.78,0,0,0-1.8-.55h0a2.89,2.89,0,0,0-1.6.42,3.42,3.42,0,0,0-1.13,1.42,3.64,3.64,0,0,1-1.48,1.57,3.75,3.75,0,0,1-1.83.49A3.3,3.3,0,0,1,77,32.15a2.91,2.91,0,0,1-.63-1.81,2.48,2.48,0,0,1,.19-.95,10.31,10.31,0,0,1,3.54-4.74,9.77,9.77,0,0,1,6-1.84,11.06,11.06,0,0,1,4.62,1A7.83,7.83,0,0,1,94,26.56a7.64,7.64,0,0,1,1.24,4.38,10,10,0,0,1-.86,4.17,14.64,14.64,0,0,1-2.32,3.64,45.86,45.86,0,0,1-3.78,3.83l-.31.31a.09.09,0,0,0,0,.08s0,.05.07.05h4.57a3.34,3.34,0,1,1,0,6.67H79.41A2.09,2.09,0,0,1,77.83,49Z"/><path class="cls-10" d="M136.17,48.44a10.63,10.63,0,0,1-3.6-4.85,19.21,19.21,0,0,1-1.21-7.08,19.78,19.78,0,0,1,1.13-6.9A10.77,10.77,0,0,1,136,24.67a10.83,10.83,0,0,1,12.14,0,10.74,10.74,0,0,1,3.53,5,20,20,0,0,1,1.13,6.88,19.5,19.5,0,0,1-1.18,7,10.68,10.68,0,0,1-3.57,4.88,10.84,10.84,0,0,1-11.89,0Zm9.55-11.93q0-6.84-3.65-6.84a2.85,2.85,0,0,0-2.81,1.91,12.53,12.53,0,0,0-.81,4.93,13.91,13.91,0,0,0,.74,4.78,2.85,2.85,0,0,0,2.88,2.05Q145.72,43.34,145.72,36.51Z"/><path class="cls-10" d="M195.37,48.44a10.63,10.63,0,0,1-3.6-4.85,19.21,19.21,0,0,1-1.21-7.08,19.78,19.78,0,0,1,1.13-6.9,10.77,10.77,0,0,1,3.52-4.94,10.83,10.83,0,0,1,12.14,0,10.74,10.74,0,0,1,3.53,5A20,20,0,0,1,212,36.51a19.5,19.5,0,0,1-1.18,7,10.68,10.68,0,0,1-3.57,4.88,10.84,10.84,0,0,1-11.89,0Zm9.55-11.93q0-6.84-3.65-6.84a2.85,2.85,0,0,0-2.81,1.91,12.72,12.72,0,0,0-.81,4.93,13.91,13.91,0,0,0,.74,4.78,2.85,2.85,0,0,0,2.88,2.05Q204.91,43.34,204.92,36.51Z"/></g></g></svg>