<svg id="レイヤー_1" data-name="レイヤー 1" xmlns="http://www.w3.org/2000/svg" viewBox="0 0 229.83 72.17"><defs><style>.cls-1{opacity:0.4;}.cls-2{fill:#9b4a00;}.cls-3{fill:#f59f37;}.cls-4{fill:#9b0000;}.cls-5{fill:#eb5160;}.cls-6{fill:#754c29;}.cls-7{fill:#115924;}.cls-8{fill:#91c04f;}.cls-9{fill:#fff;}</style></defs><g id="レイヤー_1-2" data-name="レイヤー 1-2"><g class="cls-1"><path class="cls-2" d="M110.51,25.64a91.19,91.19,0,0,1,0,12.37,55.14,55.14,0,0,1-1.86,14.23c-1.8,6.8-5.3,13.72-11.6,17.33a22.85,22.85,0,0,1-12.7,2.54c-5.73-.67-11.73-2.75-15.41-7.4a28.49,28.49,0,0,1-5.82-14,89.93,89.93,0,0,1-.37-17.59c.59-7.93,1.89-16.24,6.56-22.88,3.63-5.38,12.65-8.7,19-7.83C95.44,3.26,103,6,107.2,12.12,109.79,16.06,110.24,21,110.51,25.64Z" transform="translate(0.04 -0.03)"/></g><path class="cls-3" d="M107,23.35a91.19,91.19,0,0,1,0,12.37A55.49,55.49,0,0,1,105.17,50c-1.79,6.8-5.3,13.73-11.6,17.33a22.85,22.85,0,0,1-12.7,2.55c-5.72-.68-11.72-2.76-15.41-7.41a28.45,28.45,0,0,1-5.82-14,89.93,89.93,0,0,1-.37-17.59c.59-8,1.89-16.28,6.57-22.88,3.62-5.38,12.64-8.7,19-7.83C92,1,99.58,3.64,103.73,9.84,106.37,13.78,106.81,18.7,107,23.35Z" transform="translate(0.04 -0.03)"/><g class="cls-1"><path class="cls-4" d="M169.89,26.6c.15,2.79.17,5.58.17,8.37a36.74,36.74,0,0,1-.67,6,36.28,36.28,0,0,1-1,6.13,39.15,39.15,0,0,1-2,6.62,39.52,39.52,0,0,1-3.87,8.5A24.42,24.42,0,0,1,151,71.09a26.34,26.34,0,0,1-8.24.94A28.16,28.16,0,0,1,127,66.62a29,29,0,0,1-7.73-9.39c-1.83-3.72-2.37-7.91-2.7-12a91.55,91.55,0,0,1-.46-12.5,47.42,47.42,0,0,1,3.49-16.32c3.65-8.68,13.3-12.84,22.16-13.8,6.36-.59,12.65,1.65,18,5,4.07,2.51,6.84,6.74,8.46,11.17A36.7,36.7,0,0,1,169.89,26.6Z" transform="translate(0.04 -0.03)"/></g><path class="cls-5" d="M166.47,24.31c.14,2.79.16,5.59.16,8.38a36.74,36.74,0,0,1-.67,6,36.39,36.39,0,0,1-1,6.14,39.15,39.15,0,0,1-2,6.62,39.31,39.31,0,0,1-4,8.46,24.27,24.27,0,0,1-11.48,8.87,26.1,26.1,0,0,1-8.24,1,28.37,28.37,0,0,1-15.77-5.41A29,29,0,0,1,115.8,55c-1.82-3.73-2.37-7.92-2.7-12a91.64,91.64,0,0,1-.46-12.51,47.84,47.84,0,0,1,3.49-16.31c3.66-8.69,13.3-12.84,22.17-13.8,6.35-.6,12.64,1.65,18,5,4.07,2.5,6.84,6.73,8.46,11.16A37,37,0,0,1,166.47,24.31Z" transform="translate(0.04 -0.03)"/><g class="cls-1"><path class="cls-4" d="M229.63,26.57c.14,2.79.16,5.59.16,8.38a35.55,35.55,0,0,1-.67,6,36.39,36.39,0,0,1-1,6.14,37.29,37.29,0,0,1-2,6.61,39.52,39.52,0,0,1-3.87,8.5,24.27,24.27,0,0,1-11.48,8.87,26.12,26.12,0,0,1-8.25,1A26.5,26.5,0,0,1,179,57.26c-1.83-3.72-2.38-7.91-2.71-12a90.06,90.06,0,0,1-.45-12.51,47.37,47.37,0,0,1,3.49-16.31C183,7.75,192.65,3.6,201.52,2.64c6.35-.6,12.65,1.65,18,5,4.08,2.5,6.85,6.73,8.46,11.16A36.83,36.83,0,0,1,229.63,26.57Z" transform="translate(0.04 -0.03)"/></g><path class="cls-6" d="M226.2,24.29c.14,2.78.16,5.58.16,8.37a35.54,35.54,0,0,1-.66,6,37.31,37.31,0,0,1-1,6.13,37.4,37.4,0,0,1-2,6.62,39.67,39.67,0,0,1-3.87,8.49,24.29,24.29,0,0,1-11.48,8.88,26.34,26.34,0,0,1-8.24.94,28.19,28.19,0,0,1-15.77-5.41A28.73,28.73,0,0,1,175.61,55c-1.83-3.72-2.38-7.92-2.71-12a91.54,91.54,0,0,1-.45-12.5,47.42,47.42,0,0,1,3.49-16.32C179.52,5.39,189.16,1.23,198,.27c6.36-.59,12.65,1.65,18,5,4.08,2.51,6.85,6.73,8.47,11.17A37,37,0,0,1,226.2,24.29Z" transform="translate(0.04 -0.03)"/><g class="cls-1"><path class="cls-7" d="M57.32,26.6c.14,2.79.16,5.58.17,8.37a36.74,36.74,0,0,1-.67,6,37.31,37.31,0,0,1-1,6.13,37.4,37.4,0,0,1-2,6.62A39.57,39.57,0,0,1,50,62.22a24.42,24.42,0,0,1-11.6,8.85,26.34,26.34,0,0,1-8.24.94A28.19,28.19,0,0,1,14.39,66.6a29,29,0,0,1-7.73-9.39c-1.83-3.72-2.38-7.91-2.7-12a90,90,0,0,1-.46-12.5A47.44,47.44,0,0,1,7,16.38C10.64,7.7,20.29,3.54,29.15,2.58c6.36-.59,12.65,1.65,18,5,4.08,2.51,6.85,6.74,8.47,11.17A37,37,0,0,1,57.32,26.6Z" transform="translate(0.04 -0.03)"/></g><path class="cls-8" d="M53.89,24.31c.14,2.79.17,5.59.17,8.38a36.74,36.74,0,0,1-.67,6,37.61,37.61,0,0,1-1,6.14,39.15,39.15,0,0,1-2,6.62A40.13,40.13,0,0,1,46.52,60,24.24,24.24,0,0,1,35,68.81a26.1,26.1,0,0,1-8.24,1A28.39,28.39,0,0,1,11,64.4,28.92,28.92,0,0,1,3.23,55C1.4,51.2.86,47,.53,43A89.77,89.77,0,0,1,0,30.41,47.4,47.4,0,0,1,3.56,14.1C7.21,5.41,16.86,1.26,25.72.3c6.36-.6,12.65,1.65,18,5,4.08,2.5,6.85,6.7,8.47,11.16A37,37,0,0,1,53.89,24.31Z" transform="translate(0.04 -0.03)"/><path class="cls-9" d="M25.51,49.46a3.53,3.53,0,0,1-1.07-2.56V45a.22.22,0,0,0-.06-.13.16.16,0,0,0-.13-.06H18.59a1.74,1.74,0,0,1-1.74-1.74V43h0a1.65,1.65,0,0,1,.51-1.22,1.71,1.71,0,0,1,1.23-.49h5.66a.23.23,0,0,0,.19-.19V39.69a.16.16,0,0,0-.06-.13.21.21,0,0,0-.13-.07H18.56a1.6,1.6,0,0,1-1.2-.5,1.67,1.67,0,0,1-.51-1.21,1.6,1.6,0,0,1,.51-1.22,1.7,1.7,0,0,1,1.2-.5H22.5a.11.11,0,0,0,.1-.06.09.09,0,0,0,0-.1l-5.09-8.67a3.6,3.6,0,0,1-.5-1.81,3.48,3.48,0,0,1,.47-1.75,3.57,3.57,0,0,1,1.37-1.33A3.26,3.26,0,0,1,20.53,22a3.74,3.74,0,0,1,1.85.49,3.37,3.37,0,0,1,1.33,1.42L28,32.22h.19l4.26-8.39a3.36,3.36,0,0,1,1.29-1.43,3.45,3.45,0,0,1,3.51-.06,3.32,3.32,0,0,1,1.3,1.25,3.45,3.45,0,0,1,.51,1.8,3.6,3.6,0,0,1-.48,1.78l-5.1,8.73V36a.1.1,0,0,0,.09.06h3.94a1.72,1.72,0,0,1,1.72,1.7h0a1.72,1.72,0,0,1-.5,1.21,1.61,1.61,0,0,1-1.22.5H31.88c-.13,0-.19.07-.19.2V41.1a.17.17,0,0,0,.15.19H37.5a1.6,1.6,0,0,1,1.22.49,1.64,1.64,0,0,1,.5,1.22,1.71,1.71,0,0,1-.5,1.24,1.6,1.6,0,0,1-1.22.51H31.88a.17.17,0,0,0-.19.15h0v2a3.62,3.62,0,0,1-6.18,2.56Z" transform="translate(0.04 -0.03)"/><path class="cls-9" d="M136.21,48.41a10.72,10.72,0,0,1-3.6-4.85,19,19,0,0,1-1.21-7.08,19.75,19.75,0,0,1,1.13-6.9A10.79,10.79,0,0,1,136,24.64a10.83,10.83,0,0,1,12.14,0,10.76,10.76,0,0,1,3.53,5,19.91,19.91,0,0,1,1.13,6.88,19.41,19.41,0,0,1-1.18,7,10.6,10.6,0,0,1-3.57,4.88,10.83,10.83,0,0,1-11.89,0Zm9.55-11.93q0-6.84-3.65-6.84a2.83,2.83,0,0,0-2.81,1.91,12.56,12.56,0,0,0-.81,4.93,14.14,14.14,0,0,0,.74,4.78,2.84,2.84,0,0,0,2.88,2.05q3.64,0,3.65-6.83Z" transform="translate(0.04 -0.03)"/><path class="cls-9" d="M195.41,48.41a10.72,10.72,0,0,1-3.6-4.85,19,19,0,0,1-1.21-7.08,19.75,19.75,0,0,1,1.13-6.9,10.84,10.84,0,0,1,3.52-4.94,10.83,10.83,0,0,1,12.14,0,10.76,10.76,0,0,1,3.53,5A19.87,19.87,0,0,1,212,36.48a19.41,19.41,0,0,1-1.18,7,10.6,10.6,0,0,1-3.57,4.88,10.83,10.83,0,0,1-11.89,0ZM205,36.48q0-6.84-3.65-6.84a2.83,2.83,0,0,0-2.81,1.91,12.74,12.74,0,0,0-.81,4.93,14.14,14.14,0,0,0,.74,4.78,2.84,2.84,0,0,0,2.88,2.05C203.74,43.31,205,41,205,36.48Z" transform="translate(0.04 -0.03)"/><path class="cls-9" d="M91.87,39.45a2.12,2.12,0,0,1,2.07,2.08V43a2.12,2.12,0,0,1-2.07,2.07H90.59c-.19,0-.29.11-.29.33v2.33a2.1,2.1,0,0,1-2.07,2.07H85.46A2,2,0,0,1,84,49.2a2,2,0,0,1-.62-1.45V45.42a.29.29,0,0,0-.33-.33H73.82A2.12,2.12,0,0,1,71.75,43V41.53A6.39,6.39,0,0,1,73,37.78l9.24-12.85a3.82,3.82,0,0,1,3.27-1.67h2.77a2,2,0,0,1,1.46.62,2,2,0,0,1,.61,1.45V39.12c0,.22.1.33.29.33Zm-8.48-.33V31.67s0,0,0,0-.07,0-.07,0L78,39.34l0,0v0s0,0,0,0h5.09A.29.29,0,0,0,83.39,39.12Z" transform="translate(0.04 -0.03)"/></g></svg>